solid OpenSCAD_Model
  facet normal -0.221114 -0.533784 -0.8162
    outer loop
      vertex -14.9595 -36.769 39
      vertex -16 -25.6344 32
      vertex -14.0774 -37.1344 39
    endloop
  endfacet
  facet normal 0.495169 -0.495096 -0.713924
    outer loop
      vertex -11.5654 -36.0938 39
      vertex -12.2405 -36.769 39
      vertex -11.2 -25.6344 32
    endloop
  endfacet
  facet normal 0 -0.519947 -0.854199
    outer loop
      vertex -14.0774 -37.1344 39
      vertex -11.2 -25.6344 32
      vertex -13.1226 -37.1344 39
    endloop
  endfacet
  facet normal -0 -0.519947 -0.854199
    outer loop
      vertex -11.2 -25.6344 32
      vertex -14.0774 -37.1344 39
      vertex -16 -25.6344 32
    endloop
  endfacet
  facet normal 0.818462 -0.339039 -0.463868
    outer loop
      vertex -11.2 -35.2117 39
      vertex -11.5654 -36.0938 39
      vertex -11.2 -25.6344 32
    endloop
  endfacet
  facet normal -1 0 0
    outer loop
      vertex -16 -35.2117 39
      vertex -16 -25.6344 43
      vertex -16 -25.6344 32
    endloop
  endfacet
  facet normal -1 -0 0
    outer loop
      vertex -16 -25.6344 43
      vertex -16 -35.2117 39
      vertex -16 -35.2117 43
    endloop
  endfacet
  facet normal 0 -1 0
    outer loop
      vertex -14.0774 -37.1344 39
      vertex -13.1226 -37.1344 43
      vertex -14.0774 -37.1344 43
    endloop
  endfacet
  facet normal 0 -1 -0
    outer loop
      vertex -13.1226 -37.1344 43
      vertex -14.0774 -37.1344 39
      vertex -13.1226 -37.1344 39
    endloop
  endfacet
  facet normal 1 0 0
    outer loop
      vertex -11.2 -35.2117 39
      vertex -11.2 -25.6344 43
      vertex -11.2 -35.2117 43
    endloop
  endfacet
  facet normal 1 0 0
    outer loop
      vertex -11.2 -25.6344 43
      vertex -11.2 -35.2117 39
      vertex -11.2 -25.6344 32
    endloop
  endfacet
  facet normal 0.707159 -0.707054 0
    outer loop
      vertex -12.2405 -36.769 43
      vertex -11.5654 -36.0938 39
      vertex -11.5654 -36.0938 43
    endloop
  endfacet
  facet normal 0.707159 -0.707054 0
    outer loop
      vertex -11.5654 -36.0938 39
      vertex -12.2405 -36.769 43
      vertex -12.2405 -36.769 39
    endloop
  endfacet
  facet normal -0.382703 -0.923871 0
    outer loop
      vertex -14.9595 -36.769 39
      vertex -14.0774 -37.1344 43
      vertex -14.9595 -36.769 43
    endloop
  endfacet
  facet normal -0.382703 -0.923871 -0
    outer loop
      vertex -14.0774 -37.1344 43
      vertex -14.9595 -36.769 39
      vertex -14.0774 -37.1344 39
    endloop
  endfacet
  facet normal 0 0 1
    outer loop
      vertex -16 35.2117 43
      vertex -11.2 35.2117 43
      vertex -11.5654 36.0938 43
    endloop
  endfacet
  facet normal 0 0 1
    outer loop
      vertex 11.2 25.6344 43
      vertex 16 25.6344 43
      vertex 16 35.2117 43
    endloop
  endfacet
  facet normal 0 0 1
    outer loop
      vertex 11.2 35.2117 43
      vertex 16 35.2117 43
      vertex 15.6346 36.0938 43
    endloop
  endfacet
  facet normal 0 0 1
    outer loop
      vertex 11.2 35.2117 43
      vertex 15.6346 36.0938 43
      vertex 14.9595 36.769 43
    endloop
  endfacet
  facet normal 0 0 1
    outer loop
      vertex 11.2 35.2117 43
      vertex 14.9595 36.769 43
      vertex 14.0774 37.1344 43
    endloop
  endfacet
  facet normal 0 0 1
    outer loop
      vertex 11.2 35.2117 43
      vertex 14.0774 37.1344 43
      vertex 13.1226 37.1344 43
    endloop
  endfacet
  facet normal 0 0 1
    outer loop
      vertex 11.2 35.2117 43
      vertex 13.1226 37.1344 43
      vertex 12.2405 36.769 43
    endloop
  endfacet
  facet normal 0 0 1
    outer loop
      vertex 11.2 35.2117 43
      vertex 12.2405 36.769 43
      vertex 11.5654 36.0938 43
    endloop
  endfacet
  facet normal 0 0 1
    outer loop
      vertex 16 35.2117 43
      vertex 11.2 35.2117 43
      vertex 11.2 25.6344 43
    endloop
  endfacet
  facet normal 0 0 1
    outer loop
      vertex 16 25.6344 43
      vertex 11.2 25.6344 43
      vertex 16 21.0155 43
    endloop
  endfacet
  facet normal 0 0 1
    outer loop
      vertex 11.2 25.6344 43
      vertex 0.6 12.1244 43
      vertex 16 21.0155 43
    endloop
  endfacet
  facet normal 0 0 1
    outer loop
      vertex 0.6 12.1244 43
      vertex -0.6 12.1244 43
      vertex 0.6 -12.1244 43
    endloop
  endfacet
  facet normal 0 0 1
    outer loop
      vertex 11.2 25.6344 43
      vertex -0.6 12.1244 43
      vertex 0.6 12.1244 43
    endloop
  endfacet
  facet normal -0 0 1
    outer loop
      vertex -11.2 25.6344 43
      vertex -0.6 12.1244 43
      vertex 11.2 25.6344 43
    endloop
  endfacet
  facet normal 0 0 1
    outer loop
      vertex -16 35.2117 43
      vertex -11.5654 36.0938 43
      vertex -12.2405 36.769 43
    endloop
  endfacet
  facet normal 0 0 1
    outer loop
      vertex -16 35.2117 43
      vertex -12.2405 36.769 43
      vertex -13.1226 37.1344 43
    endloop
  endfacet
  facet normal 0 0 1
    outer loop
      vertex -16 35.2117 43
      vertex -13.1226 37.1344 43
      vertex -14.0774 37.1344 43
    endloop
  endfacet
  facet normal 0 0 1
    outer loop
      vertex -16 35.2117 43
      vertex -14.0774 37.1344 43
      vertex -14.9595 36.769 43
    endloop
  endfacet
  facet normal 0 0 1
    outer loop
      vertex -16 35.2117 43
      vertex -14.9595 36.769 43
      vertex -15.6346 36.0938 43
    endloop
  endfacet
  facet normal 0 0 1
    outer loop
      vertex -11.2 35.2117 43
      vertex -16 35.2117 43
      vertex -11.2 25.6344 43
    endloop
  endfacet
  facet normal 0 0 1
    outer loop
      vertex -16 25.6344 43
      vertex -11.2 25.6344 43
      vertex -16 35.2117 43
    endloop
  endfacet
  facet normal 0 0 1
    outer loop
      vertex -16 21.0155 43
      vertex -11.2 25.6344 43
      vertex -16 25.6344 43
    endloop
  endfacet
  facet normal 0 0 1
    outer loop
      vertex -11.2 25.6344 43
      vertex -16 21.0155 43
      vertex -0.6 12.1244 43
    endloop
  endfacet
  facet normal 0 0 1
    outer loop
      vertex 11.2 -25.6344 43
      vertex 16 -25.6344 43
      vertex 16 -21.0155 43
    endloop
  endfacet
  facet normal 0 0 1
    outer loop
      vertex 16 -25.6344 43
      vertex 11.2 -25.6344 43
      vertex 16 -35.2117 43
    endloop
  endfacet
  facet normal 0 0 1
    outer loop
      vertex 11.2 -35.2117 43
      vertex 16 -35.2117 43
      vertex 11.2 -25.6344 43
    endloop
  endfacet
  facet normal 0 0 1
    outer loop
      vertex 16 -35.2117 43
      vertex 11.2 -35.2117 43
      vertex 15.6346 -36.0938 43
    endloop
  endfacet
  facet normal 0 0 1
    outer loop
      vertex 15.6346 -36.0938 43
      vertex 11.2 -35.2117 43
      vertex 14.9595 -36.769 43
    endloop
  endfacet
  facet normal 0 0 1
    outer loop
      vertex 14.9595 -36.769 43
      vertex 11.2 -35.2117 43
      vertex 14.0774 -37.1344 43
    endloop
  endfacet
  facet normal 0 0 1
    outer loop
      vertex 14.0774 -37.1344 43
      vertex 11.2 -35.2117 43
      vertex 13.1226 -37.1344 43
    endloop
  endfacet
  facet normal 0 0 1
    outer loop
      vertex 13.1226 -37.1344 43
      vertex 11.2 -35.2117 43
      vertex 12.2405 -36.769 43
    endloop
  endfacet
  facet normal 0 0 1
    outer loop
      vertex 0.6 -12.1244 43
      vertex 11.2 -25.6344 43
      vertex 16 -21.0155 43
    endloop
  endfacet
  facet normal 0 0 1
    outer loop
      vertex -0.6 -12.1244 43
      vertex 0.6 -12.1244 43
      vertex -0.6 12.1244 43
    endloop
  endfacet
  facet normal -0 0 1
    outer loop
      vertex -0.6 -12.1244 43
      vertex 11.2 -25.6344 43
      vertex 0.6 -12.1244 43
    endloop
  endfacet
  facet normal 0 0 1
    outer loop
      vertex -0.6 -12.1244 43
      vertex -11.2 -25.6344 43
      vertex 11.2 -25.6344 43
    endloop
  endfacet
  facet normal 0 0 1
    outer loop
      vertex -16 -35.2117 43
      vertex -11.2 -35.2117 43
      vertex -11.2 -25.6344 43
    endloop
  endfacet
  facet normal 0 0 1
    outer loop
      vertex -11.2 -35.2117 43
      vertex -16 -35.2117 43
      vertex -11.5654 -36.0938 43
    endloop
  endfacet
  facet normal 0 0 1
    outer loop
      vertex -11.5654 -36.0938 43
      vertex -16 -35.2117 43
      vertex -12.2405 -36.769 43
    endloop
  endfacet
  facet normal 0 0 1
    outer loop
      vertex -12.2405 -36.769 43
      vertex -16 -35.2117 43
      vertex -13.1226 -37.1344 43
    endloop
  endfacet
  facet normal 0 0 1
    outer loop
      vertex -13.1226 -37.1344 43
      vertex -16 -35.2117 43
      vertex -14.0774 -37.1344 43
    endloop
  endfacet
  facet normal 0 0 1
    outer loop
      vertex -14.0774 -37.1344 43
      vertex -16 -35.2117 43
      vertex -14.9595 -36.769 43
    endloop
  endfacet
  facet normal -0 0 1
    outer loop
      vertex -16 -21.0155 43
      vertex -11.2 -25.6344 43
      vertex -0.6 -12.1244 43
    endloop
  endfacet
  facet normal 0 0 1
    outer loop
      vertex -16 -25.6344 43
      vertex -11.2 -25.6344 43
      vertex -16 -21.0155 43
    endloop
  endfacet
  facet normal 0 0 1
    outer loop
      vertex -16 -35.2117 43
      vertex -11.2 -25.6344 43
      vertex -16 -25.6344 43
    endloop
  endfacet
  facet normal 0 0 1
    outer loop
      vertex -14.9595 -36.769 43
      vertex -16 -35.2117 43
      vertex -15.6346 -36.0938 43
    endloop
  endfacet
  facet normal 0 0 1
    outer loop
      vertex 12.2405 -36.769 43
      vertex 11.2 -35.2117 43
      vertex 11.5654 -36.0938 43
    endloop
  endfacet
  facet normal -0.818462 -0.339039 -0.463868
    outer loop
      vertex -15.6346 -36.0938 39
      vertex -16 -35.2117 39
      vertex -16 -25.6344 32
    endloop
  endfacet
  facet normal -0.495169 -0.495096 -0.713924
    outer loop
      vertex -15.6346 -36.0938 39
      vertex -16 -25.6344 32
      vertex -14.9595 -36.769 39
    endloop
  endfacet
  facet normal 0.382703 -0.923871 0
    outer loop
      vertex -13.1226 -37.1344 39
      vertex -12.2405 -36.769 43
      vertex -13.1226 -37.1344 43
    endloop
  endfacet
  facet normal 0.382703 -0.923871 0
    outer loop
      vertex -12.2405 -36.769 43
      vertex -13.1226 -37.1344 39
      vertex -12.2405 -36.769 39
    endloop
  endfacet
  facet normal 0.221114 -0.533784 -0.8162
    outer loop
      vertex -12.2405 -36.769 39
      vertex -13.1226 -37.1344 39
      vertex -11.2 -25.6344 32
    endloop
  endfacet
  facet normal 0.923871 -0.382703 0
    outer loop
      vertex -11.5654 -36.0938 43
      vertex -11.2 -35.2117 39
      vertex -11.2 -35.2117 43
    endloop
  endfacet
  facet normal 0.923871 -0.382703 0
    outer loop
      vertex -11.2 -35.2117 39
      vertex -11.5654 -36.0938 43
      vertex -11.5654 -36.0938 39
    endloop
  endfacet
  facet normal -0.923871 -0.382703 0
    outer loop
      vertex -15.6346 -36.0938 39
      vertex -16 -35.2117 43
      vertex -16 -35.2117 39
    endloop
  endfacet
  facet normal -0.923871 -0.382703 0
    outer loop
      vertex -16 -35.2117 43
      vertex -15.6346 -36.0938 39
      vertex -15.6346 -36.0938 43
    endloop
  endfacet
  facet normal -0.707159 -0.707054 0
    outer loop
      vertex -14.9595 -36.769 39
      vertex -15.6346 -36.0938 43
      vertex -15.6346 -36.0938 39
    endloop
  endfacet
  facet normal -0.707159 -0.707054 0
    outer loop
      vertex -15.6346 -36.0938 43
      vertex -14.9595 -36.769 39
      vertex -14.9595 -36.769 43
    endloop
  endfacet
  facet normal -0.221114 -0.533784 -0.8162
    outer loop
      vertex 12.2405 -36.769 39
      vertex 11.2 -25.6344 32
      vertex 13.1226 -37.1344 39
    endloop
  endfacet
  facet normal 0.221114 -0.533784 -0.8162
    outer loop
      vertex 14.9595 -36.769 39
      vertex 14.0774 -37.1344 39
      vertex 16 -25.6344 32
    endloop
  endfacet
  facet normal 0 -0.519947 -0.854199
    outer loop
      vertex 13.1226 -37.1344 39
      vertex 16 -25.6344 32
      vertex 14.0774 -37.1344 39
    endloop
  endfacet
  facet normal -0 -0.519947 -0.854199
    outer loop
      vertex 16 -25.6344 32
      vertex 13.1226 -37.1344 39
      vertex 11.2 -25.6344 32
    endloop
  endfacet
  facet normal 0.818462 -0.339039 -0.463868
    outer loop
      vertex 16 -35.2117 39
      vertex 15.6346 -36.0938 39
      vertex 16 -25.6344 32
    endloop
  endfacet
  facet normal 0.707159 -0.707054 0
    outer loop
      vertex 14.9595 -36.769 43
      vertex 15.6346 -36.0938 39
      vertex 15.6346 -36.0938 43
    endloop
  endfacet
  facet normal 0.707159 -0.707054 0
    outer loop
      vertex 15.6346 -36.0938 39
      vertex 14.9595 -36.769 43
      vertex 14.9595 -36.769 39
    endloop
  endfacet
  facet normal 0.495169 -0.495096 -0.713924
    outer loop
      vertex 15.6346 -36.0938 39
      vertex 14.9595 -36.769 39
      vertex 16 -25.6344 32
    endloop
  endfacet
  facet normal 0.923871 -0.382703 0
    outer loop
      vertex 15.6346 -36.0938 43
      vertex 16 -35.2117 39
      vertex 16 -35.2117 43
    endloop
  endfacet
  facet normal 0.923871 -0.382703 0
    outer loop
      vertex 16 -35.2117 39
      vertex 15.6346 -36.0938 43
      vertex 15.6346 -36.0938 39
    endloop
  endfacet
  facet normal -0.707159 -0.707054 0
    outer loop
      vertex 12.2405 -36.769 39
      vertex 11.5654 -36.0938 43
      vertex 11.5654 -36.0938 39
    endloop
  endfacet
  facet normal -0.707159 -0.707054 0
    outer loop
      vertex 11.5654 -36.0938 43
      vertex 12.2405 -36.769 39
      vertex 12.2405 -36.769 43
    endloop
  endfacet
  facet normal -1 0 0
    outer loop
      vertex 11.2 -35.2117 39
      vertex 11.2 -25.6344 43
      vertex 11.2 -25.6344 32
    endloop
  endfacet
  facet normal -1 -0 0
    outer loop
      vertex 11.2 -25.6344 43
      vertex 11.2 -35.2117 39
      vertex 11.2 -35.2117 43
    endloop
  endfacet
  facet normal 0.382703 -0.923871 0
    outer loop
      vertex 14.0774 -37.1344 39
      vertex 14.9595 -36.769 43
      vertex 14.0774 -37.1344 43
    endloop
  endfacet
  facet normal 0.382703 -0.923871 0
    outer loop
      vertex 14.9595 -36.769 43
      vertex 14.0774 -37.1344 39
      vertex 14.9595 -36.769 39
    endloop
  endfacet
  facet normal 1 0 0
    outer loop
      vertex 16 -35.2117 39
      vertex 16 -25.6344 43
      vertex 16 -35.2117 43
    endloop
  endfacet
  facet normal 1 0 0
    outer loop
      vertex 16 -25.6344 43
      vertex 16 -35.2117 39
      vertex 16 -25.6344 32
    endloop
  endfacet
  facet normal -0.923871 -0.382703 0
    outer loop
      vertex 11.5654 -36.0938 39
      vertex 11.2 -35.2117 43
      vertex 11.2 -35.2117 39
    endloop
  endfacet
  facet normal -0.923871 -0.382703 0
    outer loop
      vertex 11.2 -35.2117 43
      vertex 11.5654 -36.0938 39
      vertex 11.5654 -36.0938 43
    endloop
  endfacet
  facet normal -0.382703 -0.923871 0
    outer loop
      vertex 12.2405 -36.769 39
      vertex 13.1226 -37.1344 43
      vertex 12.2405 -36.769 43
    endloop
  endfacet
  facet normal -0.382703 -0.923871 -0
    outer loop
      vertex 13.1226 -37.1344 43
      vertex 12.2405 -36.769 39
      vertex 13.1226 -37.1344 39
    endloop
  endfacet
  facet normal -0.818462 -0.339039 -0.463868
    outer loop
      vertex 11.5654 -36.0938 39
      vertex 11.2 -35.2117 39
      vertex 11.2 -25.6344 32
    endloop
  endfacet
  facet normal -0.495169 -0.495096 -0.713924
    outer loop
      vertex 11.5654 -36.0938 39
      vertex 11.2 -25.6344 32
      vertex 12.2405 -36.769 39
    endloop
  endfacet
  facet normal 0 -1 0
    outer loop
      vertex 13.1226 -37.1344 39
      vertex 14.0774 -37.1344 43
      vertex 13.1226 -37.1344 43
    endloop
  endfacet
  facet normal 0 -1 -0
    outer loop
      vertex 14.0774 -37.1344 43
      vertex 13.1226 -37.1344 39
      vertex 14.0774 -37.1344 39
    endloop
  endfacet
  facet normal -0.495169 0.495096 -0.713924
    outer loop
      vertex -14.9595 36.769 39
      vertex -16 25.6344 32
      vertex -15.6346 36.0938 39
    endloop
  endfacet
  facet normal 0.923871 0.382703 0
    outer loop
      vertex -11.2 35.2117 43
      vertex -11.5654 36.0938 39
      vertex -11.5654 36.0938 43
    endloop
  endfacet
  facet normal 0.923871 0.382703 0
    outer loop
      vertex -11.5654 36.0938 39
      vertex -11.2 35.2117 43
      vertex -11.2 35.2117 39
    endloop
  endfacet
  facet normal -0.923871 0.382703 0
    outer loop
      vertex -16 35.2117 39
      vertex -15.6346 36.0938 43
      vertex -15.6346 36.0938 39
    endloop
  endfacet
  facet normal -0.923871 0.382703 0
    outer loop
      vertex -15.6346 36.0938 43
      vertex -16 35.2117 39
      vertex -16 35.2117 43
    endloop
  endfacet
  facet normal 0.382703 0.923871 -0
    outer loop
      vertex -12.2405 36.769 39
      vertex -13.1226 37.1344 43
      vertex -12.2405 36.769 43
    endloop
  endfacet
  facet normal 0.382703 0.923871 0
    outer loop
      vertex -13.1226 37.1344 43
      vertex -12.2405 36.769 39
      vertex -13.1226 37.1344 39
    endloop
  endfacet
  facet normal 0 0.519947 -0.854199
    outer loop
      vertex -11.2 25.6344 32
      vertex -14.0774 37.1344 39
      vertex -13.1226 37.1344 39
    endloop
  endfacet
  facet normal 0 0.519947 -0.854199
    outer loop
      vertex -14.0774 37.1344 39
      vertex -11.2 25.6344 32
      vertex -16 25.6344 32
    endloop
  endfacet
  facet normal -0.221114 0.533784 -0.8162
    outer loop
      vertex -14.0774 37.1344 39
      vertex -16 25.6344 32
      vertex -14.9595 36.769 39
    endloop
  endfacet
  facet normal 0.818462 0.339039 -0.463868
    outer loop
      vertex -11.2 25.6344 32
      vertex -11.5654 36.0938 39
      vertex -11.2 35.2117 39
    endloop
  endfacet
  facet normal 0.221114 0.533784 -0.8162
    outer loop
      vertex -11.2 25.6344 32
      vertex -13.1226 37.1344 39
      vertex -12.2405 36.769 39
    endloop
  endfacet
  facet normal 1 -0 0
    outer loop
      vertex -11.2 25.6344 43
      vertex -11.2 35.2117 39
      vertex -11.2 35.2117 43
    endloop
  endfacet
  facet normal 1 0 0
    outer loop
      vertex -11.2 35.2117 39
      vertex -11.2 25.6344 43
      vertex -11.2 25.6344 32
    endloop
  endfacet
  facet normal -0.818462 0.339039 -0.463868
    outer loop
      vertex -15.6346 36.0938 39
      vertex -16 25.6344 32
      vertex -16 35.2117 39
    endloop
  endfacet
  facet normal -0.707159 0.707054 0
    outer loop
      vertex -15.6346 36.0938 39
      vertex -14.9595 36.769 43
      vertex -14.9595 36.769 39
    endloop
  endfacet
  facet normal -0.707159 0.707054 0
    outer loop
      vertex -14.9595 36.769 43
      vertex -15.6346 36.0938 39
      vertex -15.6346 36.0938 43
    endloop
  endfacet
  facet normal -1 0 0
    outer loop
      vertex -16 25.6344 43
      vertex -16 35.2117 39
      vertex -16 25.6344 32
    endloop
  endfacet
  facet normal -1 0 0
    outer loop
      vertex -16 35.2117 39
      vertex -16 25.6344 43
      vertex -16 35.2117 43
    endloop
  endfacet
  facet normal 0 1 -0
    outer loop
      vertex -13.1226 37.1344 39
      vertex -14.0774 37.1344 43
      vertex -13.1226 37.1344 43
    endloop
  endfacet
  facet normal 0 1 0
    outer loop
      vertex -14.0774 37.1344 43
      vertex -13.1226 37.1344 39
      vertex -14.0774 37.1344 39
    endloop
  endfacet
  facet normal 0.707159 0.707054 0
    outer loop
      vertex -11.5654 36.0938 43
      vertex -12.2405 36.769 39
      vertex -12.2405 36.769 43
    endloop
  endfacet
  facet normal 0.707159 0.707054 0
    outer loop
      vertex -12.2405 36.769 39
      vertex -11.5654 36.0938 43
      vertex -11.5654 36.0938 39
    endloop
  endfacet
  facet normal 0.495169 0.495096 -0.713924
    outer loop
      vertex -11.2 25.6344 32
      vertex -12.2405 36.769 39
      vertex -11.5654 36.0938 39
    endloop
  endfacet
  facet normal -0.382703 0.923871 0
    outer loop
      vertex -14.0774 37.1344 39
      vertex -14.9595 36.769 43
      vertex -14.0774 37.1344 43
    endloop
  endfacet
  facet normal -0.382703 0.923871 0
    outer loop
      vertex -14.9595 36.769 43
      vertex -14.0774 37.1344 39
      vertex -14.9595 36.769 39
    endloop
  endfacet
  facet normal -0.495169 0.495096 -0.713924
    outer loop
      vertex 12.2405 36.769 39
      vertex 11.2 25.6344 32
      vertex 11.5654 36.0938 39
    endloop
  endfacet
  facet normal 0.923871 0.382703 0
    outer loop
      vertex 16 35.2117 43
      vertex 15.6346 36.0938 39
      vertex 15.6346 36.0938 43
    endloop
  endfacet
  facet normal 0.923871 0.382703 0
    outer loop
      vertex 15.6346 36.0938 39
      vertex 16 35.2117 43
      vertex 16 35.2117 39
    endloop
  endfacet
  facet normal -0.923871 0.382703 0
    outer loop
      vertex 11.2 35.2117 39
      vertex 11.5654 36.0938 43
      vertex 11.5654 36.0938 39
    endloop
  endfacet
  facet normal -0.923871 0.382703 0
    outer loop
      vertex 11.5654 36.0938 43
      vertex 11.2 35.2117 39
      vertex 11.2 35.2117 43
    endloop
  endfacet
  facet normal 0.382703 0.923871 -0
    outer loop
      vertex 14.9595 36.769 39
      vertex 14.0774 37.1344 43
      vertex 14.9595 36.769 43
    endloop
  endfacet
  facet normal 0.382703 0.923871 0
    outer loop
      vertex 14.0774 37.1344 43
      vertex 14.9595 36.769 39
      vertex 14.0774 37.1344 39
    endloop
  endfacet
  facet normal 0 0.519947 -0.854199
    outer loop
      vertex 16 25.6344 32
      vertex 13.1226 37.1344 39
      vertex 14.0774 37.1344 39
    endloop
  endfacet
  facet normal 0 0.519947 -0.854199
    outer loop
      vertex 13.1226 37.1344 39
      vertex 16 25.6344 32
      vertex 11.2 25.6344 32
    endloop
  endfacet
  facet normal -0.221114 0.533784 -0.8162
    outer loop
      vertex 13.1226 37.1344 39
      vertex 11.2 25.6344 32
      vertex 12.2405 36.769 39
    endloop
  endfacet
  facet normal 0.818462 0.339039 -0.463868
    outer loop
      vertex 16 25.6344 32
      vertex 15.6346 36.0938 39
      vertex 16 35.2117 39
    endloop
  endfacet
  facet normal 0.221114 0.533784 -0.8162
    outer loop
      vertex 16 25.6344 32
      vertex 14.0774 37.1344 39
      vertex 14.9595 36.769 39
    endloop
  endfacet
  facet normal 0.707159 0.707054 0
    outer loop
      vertex 15.6346 36.0938 43
      vertex 14.9595 36.769 39
      vertex 14.9595 36.769 43
    endloop
  endfacet
  facet normal 0.707159 0.707054 0
    outer loop
      vertex 14.9595 36.769 39
      vertex 15.6346 36.0938 43
      vertex 15.6346 36.0938 39
    endloop
  endfacet
  facet normal 1 -0 0
    outer loop
      vertex 16 25.6344 43
      vertex 16 35.2117 39
      vertex 16 35.2117 43
    endloop
  endfacet
  facet normal 1 0 0
    outer loop
      vertex 16 35.2117 39
      vertex 16 25.6344 43
      vertex 16 25.6344 32
    endloop
  endfacet
  facet normal -0.818462 0.339039 -0.463868
    outer loop
      vertex 11.5654 36.0938 39
      vertex 11.2 25.6344 32
      vertex 11.2 35.2117 39
    endloop
  endfacet
  facet normal -0.707159 0.707054 0
    outer loop
      vertex 11.5654 36.0938 39
      vertex 12.2405 36.769 43
      vertex 12.2405 36.769 39
    endloop
  endfacet
  facet normal -0.707159 0.707054 0
    outer loop
      vertex 12.2405 36.769 43
      vertex 11.5654 36.0938 39
      vertex 11.5654 36.0938 43
    endloop
  endfacet
  facet normal -1 0 0
    outer loop
      vertex 11.2 25.6344 43
      vertex 11.2 35.2117 39
      vertex 11.2 25.6344 32
    endloop
  endfacet
  facet normal -1 0 0
    outer loop
      vertex 11.2 35.2117 39
      vertex 11.2 25.6344 43
      vertex 11.2 35.2117 43
    endloop
  endfacet
  facet normal -0.382703 0.923871 0
    outer loop
      vertex 13.1226 37.1344 39
      vertex 12.2405 36.769 43
      vertex 13.1226 37.1344 43
    endloop
  endfacet
  facet normal -0.382703 0.923871 0
    outer loop
      vertex 12.2405 36.769 43
      vertex 13.1226 37.1344 39
      vertex 12.2405 36.769 39
    endloop
  endfacet
  facet normal 0.495169 0.495096 -0.713924
    outer loop
      vertex 16 25.6344 32
      vertex 14.9595 36.769 39
      vertex 15.6346 36.0938 39
    endloop
  endfacet
  facet normal 0 1 -0
    outer loop
      vertex 14.0774 37.1344 39
      vertex 13.1226 37.1344 43
      vertex 14.0774 37.1344 43
    endloop
  endfacet
  facet normal 0 1 0
    outer loop
      vertex 13.1226 37.1344 43
      vertex 14.0774 37.1344 39
      vertex 13.1226 37.1344 39
    endloop
  endfacet
  facet normal -0.500004 0.866023 0
    outer loop
      vertex -21.6 25.6344 32
      vertex -33.4542 18.7903 39.3125
      vertex -21.6 25.6344 41.8169
    endloop
  endfacet
  facet normal -0.500004 0.866023 0
    outer loop
      vertex -33.4542 18.7903 -43
      vertex -21.6 25.6344 32
      vertex -21.6 25.6344 -41
    endloop
  endfacet
  facet normal -0.500004 0.866023 0
    outer loop
      vertex -33.4542 18.7903 -43
      vertex -21.6 25.6344 -41
      vertex -21.6 25.6344 -43
    endloop
  endfacet
  facet normal -0.500004 0.866023 0
    outer loop
      vertex -21.6 25.6344 32
      vertex -33.4542 18.7903 -43
      vertex -33.4542 18.7903 39.3125
    endloop
  endfacet
  facet normal -0.500004 -0.866023 0
    outer loop
      vertex -33.4542 -18.7903 39.3125
      vertex -21.6 -25.6344 32
      vertex -21.6 -25.6344 41.8169
    endloop
  endfacet
  facet normal -0.500004 -0.866023 0
    outer loop
      vertex -33.4542 -18.7903 -43
      vertex -21.6 -25.6344 32
      vertex -33.4542 -18.7903 39.3125
    endloop
  endfacet
  facet normal -0.500004 -0.866023 -0
    outer loop
      vertex -21.6 -25.6344 32
      vertex -33.4542 -18.7903 -43
      vertex -21.6 -25.6344 -41
    endloop
  endfacet
  facet normal -0.500004 -0.866023 -0
    outer loop
      vertex -21.6 -25.6344 -41
      vertex -33.4542 -18.7903 -43
      vertex -21.6 -25.6344 -43
    endloop
  endfacet
  facet normal 0.500004 -0.866023 0
    outer loop
      vertex 21.6 -25.6344 32
      vertex 33.4542 -18.7903 39.3125
      vertex 21.6 -25.6344 41.8169
    endloop
  endfacet
  facet normal 0.500004 -0.866023 0
    outer loop
      vertex 33.4542 -18.7903 -43
      vertex 21.6 -25.6344 32
      vertex 21.6 -25.6344 -41
    endloop
  endfacet
  facet normal 0.500004 -0.866023 0
    outer loop
      vertex 33.4542 -18.7903 -43
      vertex 21.6 -25.6344 -41
      vertex 21.6 -25.6344 -43
    endloop
  endfacet
  facet normal 0.500004 -0.866023 0
    outer loop
      vertex 21.6 -25.6344 32
      vertex 33.4542 -18.7903 -43
      vertex 33.4542 -18.7903 39.3125
    endloop
  endfacet
  facet normal 0 1 -0
    outer loop
      vertex 21.6 25.6344 -43
      vertex -21.6 25.6344 -41
      vertex 21.6 25.6344 -41
    endloop
  endfacet
  facet normal 0 1 0
    outer loop
      vertex -21.6 25.6344 -41
      vertex 21.6 25.6344 -43
      vertex -21.6 25.6344 -43
    endloop
  endfacet
  facet normal 0 1 -0
    outer loop
      vertex 11.2 25.6344 32
      vertex -11.2 25.6344 43
      vertex 11.2 25.6344 43
    endloop
  endfacet
  facet normal 0 1 0
    outer loop
      vertex -11.2 25.6344 43
      vertex 11.2 25.6344 32
      vertex -11.2 25.6344 32
    endloop
  endfacet
  facet normal 0 1 -0
    outer loop
      vertex -16 25.6344 32
      vertex -21.6 25.6344 41.8169
      vertex -16 25.6344 43
    endloop
  endfacet
  facet normal 0 1 0
    outer loop
      vertex -21.6 25.6344 41.8169
      vertex -16 25.6344 32
      vertex -21.6 25.6344 32
    endloop
  endfacet
  facet normal 0 1 0
    outer loop
      vertex 16 25.6344 32
      vertex 21.6 25.6344 41.8169
      vertex 21.6 25.6344 32
    endloop
  endfacet
  facet normal 0 1 0
    outer loop
      vertex 21.6 25.6344 41.8169
      vertex 16 25.6344 32
      vertex 16 25.6344 43
    endloop
  endfacet
  facet normal 0 0 -1
    outer loop
      vertex 21.6 -25.6344 -43
      vertex 31.6989 -15.75 -43
      vertex 33.4542 -18.7903 -43
    endloop
  endfacet
  facet normal 0 0 -1
    outer loop
      vertex 21.6 -25.6344 -43
      vertex 19.5161 -15.75 -43
      vertex 31.6989 -15.75 -43
    endloop
  endfacet
  facet normal 0 0 -1
    outer loop
      vertex 21.6 -25.6344 -43
      vertex 10.29 -6.52386 -43
      vertex 19.5161 -15.75 -43
    endloop
  endfacet
  facet normal 0 0 -1
    outer loop
      vertex 10.29 -6.52386 -43
      vertex -10.29 -6.52386 -43
      vertex 10.29 6.52386 -43
    endloop
  endfacet
  facet normal 0 0 -1
    outer loop
      vertex 21.6 -25.6344 -43
      vertex -10.29 -6.52386 -43
      vertex 10.29 -6.52386 -43
    endloop
  endfacet
  facet normal 0 0 -1
    outer loop
      vertex -21.6 -25.6344 -43
      vertex -10.29 -6.52386 -43
      vertex 21.6 -25.6344 -43
    endloop
  endfacet
  facet normal 0 0 -1
    outer loop
      vertex -10.29 -6.52386 -43
      vertex -21.6 -25.6344 -43
      vertex -19.5161 -15.75 -43
    endloop
  endfacet
  facet normal 0 0 -1
    outer loop
      vertex -21.6 -25.6344 -43
      vertex -31.6989 -15.75 -43
      vertex -19.5161 -15.75 -43
    endloop
  endfacet
  facet normal 0 -0 -1
    outer loop
      vertex -31.6989 -15.75 -43
      vertex -21.6 -25.6344 -43
      vertex -33.4542 -18.7903 -43
    endloop
  endfacet
  facet normal 0 0 -1
    outer loop
      vertex 31.6989 15.75 -43
      vertex 21.6 25.6344 -43
      vertex 33.4542 18.7903 -43
    endloop
  endfacet
  facet normal 0 0 -1
    outer loop
      vertex 19.5161 15.75 -43
      vertex 21.6 25.6344 -43
      vertex 31.6989 15.75 -43
    endloop
  endfacet
  facet normal 0 0 -1
    outer loop
      vertex 10.29 6.52386 -43
      vertex 21.6 25.6344 -43
      vertex 19.5161 15.75 -43
    endloop
  endfacet
  facet normal 0 0 -1
    outer loop
      vertex -10.29 6.52386 -43
      vertex 10.29 6.52386 -43
      vertex -10.29 -6.52386 -43
    endloop
  endfacet
  facet normal 0 0 -1
    outer loop
      vertex 10.29 6.52386 -43
      vertex -10.29 6.52386 -43
      vertex 21.6 25.6344 -43
    endloop
  endfacet
  facet normal 0 0 -1
    outer loop
      vertex -21.6 25.6344 -43
      vertex -10.29 6.52386 -43
      vertex -19.5161 15.75 -43
    endloop
  endfacet
  facet normal 0 0 -1
    outer loop
      vertex -10.29 6.52386 -43
      vertex -21.6 25.6344 -43
      vertex 21.6 25.6344 -43
    endloop
  endfacet
  facet normal 0 0 -1
    outer loop
      vertex -31.6989 15.75 -43
      vertex -21.6 25.6344 -43
      vertex -19.5161 15.75 -43
    endloop
  endfacet
  facet normal 0 0 -1
    outer loop
      vertex -21.6 25.6344 -43
      vertex -31.6989 15.75 -43
      vertex -33.4542 18.7903 -43
    endloop
  endfacet
  facet normal 0 -1 0
    outer loop
      vertex -21.6 -25.6344 -43
      vertex 21.6 -25.6344 -41
      vertex -21.6 -25.6344 -41
    endloop
  endfacet
  facet normal 0 -1 -0
    outer loop
      vertex 21.6 -25.6344 -41
      vertex -21.6 -25.6344 -43
      vertex 21.6 -25.6344 -43
    endloop
  endfacet
  facet normal 0 -1 0
    outer loop
      vertex -16 -25.6344 32
      vertex -21.6 -25.6344 41.8169
      vertex -21.6 -25.6344 32
    endloop
  endfacet
  facet normal 0 -1 0
    outer loop
      vertex -21.6 -25.6344 41.8169
      vertex -16 -25.6344 32
      vertex -16 -25.6344 43
    endloop
  endfacet
  facet normal 0 -1 0
    outer loop
      vertex -11.2 -25.6344 32
      vertex 11.2 -25.6344 43
      vertex -11.2 -25.6344 43
    endloop
  endfacet
  facet normal 0 -1 -0
    outer loop
      vertex 11.2 -25.6344 43
      vertex -11.2 -25.6344 32
      vertex 11.2 -25.6344 32
    endloop
  endfacet
  facet normal 0 -1 0
    outer loop
      vertex 16 -25.6344 32
      vertex 21.6 -25.6344 41.8169
      vertex 16 -25.6344 43
    endloop
  endfacet
  facet normal 0 -1 -0
    outer loop
      vertex 21.6 -25.6344 41.8169
      vertex 16 -25.6344 32
      vertex 21.6 -25.6344 32
    endloop
  endfacet
  facet normal 0.500004 0.866023 0
    outer loop
      vertex 33.4542 18.7903 39.3125
      vertex 21.6 25.6344 32
      vertex 21.6 25.6344 41.8169
    endloop
  endfacet
  facet normal 0.500004 0.866023 -0
    outer loop
      vertex 33.4542 18.7903 -43
      vertex 21.6 25.6344 32
      vertex 33.4542 18.7903 39.3125
    endloop
  endfacet
  facet normal 0.500004 0.866023 0
    outer loop
      vertex 21.6 25.6344 32
      vertex 33.4542 18.7903 -43
      vertex 21.6 25.6344 -41
    endloop
  endfacet
  facet normal 0.500004 0.866023 0
    outer loop
      vertex 21.6 25.6344 -41
      vertex 33.4542 18.7903 -43
      vertex 21.6 25.6344 -43
    endloop
  endfacet
  facet normal -0.499996 0.866028 0
    outer loop
      vertex -0.6 -12.1244 -41
      vertex -16 -21.0155 43
      vertex -0.6 -12.1244 43
    endloop
  endfacet
  facet normal -0.500004 0.866023 -1.98507e-06
    outer loop
      vertex -16 -21.0155 43
      vertex -0.6 -12.1244 -41
      vertex -21.6 -24.2487 41.8169
    endloop
  endfacet
  facet normal -0.499998 0.866026 0
    outer loop
      vertex -21.6 -24.2487 41.8169
      vertex -0.6 -12.1244 -41
      vertex -21.6 -24.2487 -41
    endloop
  endfacet
  facet normal -1 0 0
    outer loop
      vertex -0.6 -12.1244 -41
      vertex -0.6 12.1244 43
      vertex -0.6 12.1244 -41
    endloop
  endfacet
  facet normal -1 -0 0
    outer loop
      vertex -0.6 12.1244 43
      vertex -0.6 -12.1244 -41
      vertex -0.6 -12.1244 43
    endloop
  endfacet
  facet normal 0.499999 -0.866026 0
    outer loop
      vertex -21.6 24.2487 -41
      vertex -32.8542 17.7511 39.4392
      vertex -32.8542 17.7511 -41
    endloop
  endfacet
  facet normal 0.499999 -0.866026 0
    outer loop
      vertex -32.8542 17.7511 39.4392
      vertex -21.6 24.2487 -41
      vertex -21.6 24.2487 41.8169
    endloop
  endfacet
  facet normal -0.500004 -0.866023 -1.98507e-06
    outer loop
      vertex -0.6 12.1244 -41
      vertex -16 21.0155 43
      vertex -21.6 24.2487 41.8169
    endloop
  endfacet
  facet normal -0.499998 -0.866026 0
    outer loop
      vertex -0.6 12.1244 -41
      vertex -21.6 24.2487 41.8169
      vertex -21.6 24.2487 -41
    endloop
  endfacet
  facet normal -0.499996 -0.866028 0
    outer loop
      vertex -16 21.0155 43
      vertex -0.6 12.1244 -41
      vertex -0.6 12.1244 43
    endloop
  endfacet
  facet normal 0.499999 0.866026 -0
    outer loop
      vertex -21.6 -24.2487 -41
      vertex -32.8542 -17.7511 39.4392
      vertex -21.6 -24.2487 41.8169
    endloop
  endfacet
  facet normal 0.499999 0.866026 0
    outer loop
      vertex -32.8542 -17.7511 39.4392
      vertex -21.6 -24.2487 -41
      vertex -32.8542 -17.7511 -41
    endloop
  endfacet
  facet normal 0 0 1
    outer loop
      vertex -0.6 12.1244 -41
      vertex -10.29 6.52386 -41
      vertex -0.6 -12.1244 -41
    endloop
  endfacet
  facet normal 0 0 1
    outer loop
      vertex -0.6 12.1244 -41
      vertex -19.5161 15.75 -41
      vertex -10.29 6.52386 -41
    endloop
  endfacet
  facet normal 0 0 1
    outer loop
      vertex -21.6 24.2487 -41
      vertex -19.5161 15.75 -41
      vertex -0.6 12.1244 -41
    endloop
  endfacet
  facet normal 0 0 1
    outer loop
      vertex -21.6 24.2487 -41
      vertex -31.6989 15.75 -41
      vertex -19.5161 15.75 -41
    endloop
  endfacet
  facet normal 0 -0 1
    outer loop
      vertex -31.6989 15.75 -41
      vertex -21.6 24.2487 -41
      vertex -32.8542 17.7511 -41
    endloop
  endfacet
  facet normal -0 0 1
    outer loop
      vertex -10.29 -6.52386 -41
      vertex -0.6 -12.1244 -41
      vertex -10.29 6.52386 -41
    endloop
  endfacet
  facet normal 0 0 1
    outer loop
      vertex -19.5161 -15.75 -41
      vertex -0.6 -12.1244 -41
      vertex -10.29 -6.52386 -41
    endloop
  endfacet
  facet normal -0 0 1
    outer loop
      vertex -19.5161 -15.75 -41
      vertex -21.6 -24.2487 -41
      vertex -0.6 -12.1244 -41
    endloop
  endfacet
  facet normal -0 0 1
    outer loop
      vertex -31.6989 -15.75 -41
      vertex -21.6 -24.2487 -41
      vertex -19.5161 -15.75 -41
    endloop
  endfacet
  facet normal 0 0 1
    outer loop
      vertex -21.6 -24.2487 -41
      vertex -31.6989 -15.75 -41
      vertex -32.8542 -17.7511 -41
    endloop
  endfacet
  facet normal 0 -1 0
    outer loop
      vertex -31.6989 15.75 -43
      vertex -19.5161 15.75 -41
      vertex -31.6989 15.75 -41
    endloop
  endfacet
  facet normal 0 -1 -0
    outer loop
      vertex -19.5161 15.75 -41
      vertex -31.6989 15.75 -43
      vertex -19.5161 15.75 -43
    endloop
  endfacet
  facet normal -0.707108 -0.707105 0
    outer loop
      vertex -10.29 6.52386 -43
      vertex -19.5161 15.75 -41
      vertex -19.5161 15.75 -43
    endloop
  endfacet
  facet normal -0.707108 -0.707105 0
    outer loop
      vertex -19.5161 15.75 -41
      vertex -10.29 6.52386 -43
      vertex -10.29 6.52386 -41
    endloop
  endfacet
  facet normal -1 0 0
    outer loop
      vertex -10.29 -6.52386 -43
      vertex -10.29 6.52386 -41
      vertex -10.29 6.52386 -43
    endloop
  endfacet
  facet normal -1 -0 0
    outer loop
      vertex -10.29 6.52386 -41
      vertex -10.29 -6.52386 -43
      vertex -10.29 -6.52386 -41
    endloop
  endfacet
  facet normal 0 1 -0
    outer loop
      vertex -19.5161 -15.75 -43
      vertex -31.6989 -15.75 -41
      vertex -19.5161 -15.75 -41
    endloop
  endfacet
  facet normal 0 1 0
    outer loop
      vertex -31.6989 -15.75 -41
      vertex -19.5161 -15.75 -43
      vertex -31.6989 -15.75 -43
    endloop
  endfacet
  facet normal -0.707108 0.707105 0
    outer loop
      vertex -19.5161 -15.75 -43
      vertex -10.29 -6.52386 -41
      vertex -10.29 -6.52386 -43
    endloop
  endfacet
  facet normal -0.707108 0.707105 0
    outer loop
      vertex -10.29 -6.52386 -41
      vertex -19.5161 -15.75 -43
      vertex -19.5161 -15.75 -41
    endloop
  endfacet
  facet normal -0.866019 -0.500011 0
    outer loop
      vertex -33.4542 18.7903 -43
      vertex -32.8542 17.7511 -41
      vertex -33.4542 18.7903 39.3125
    endloop
  endfacet
  facet normal -0.866028 -0.499996 1.02888e-05
    outer loop
      vertex -31.6989 15.75 -43
      vertex -32.8542 17.7511 -41
      vertex -33.4542 18.7903 -43
    endloop
  endfacet
  facet normal -0.866032 -0.499988 0
    outer loop
      vertex -32.8542 17.7511 -41
      vertex -31.6989 15.75 -43
      vertex -31.6989 15.75 -41
    endloop
  endfacet
  facet normal -0.866019 -0.500011 0
    outer loop
      vertex -33.4542 18.7903 39.3125
      vertex -32.8542 17.7511 -41
      vertex -32.8542 17.7511 39.4392
    endloop
  endfacet
  facet normal -0.866032 0.499988 0
    outer loop
      vertex -31.6989 -15.75 -43
      vertex -32.8542 -17.7511 -41
      vertex -31.6989 -15.75 -41
    endloop
  endfacet
  facet normal -0.866028 0.499996 1.02888e-05
    outer loop
      vertex -33.4542 -18.7903 -43
      vertex -32.8542 -17.7511 -41
      vertex -31.6989 -15.75 -43
    endloop
  endfacet
  facet normal -0.866019 0.500011 0
    outer loop
      vertex -33.4542 -18.7903 39.3125
      vertex -32.8542 -17.7511 -41
      vertex -33.4542 -18.7903 -43
    endloop
  endfacet
  facet normal -0.866019 0.500011 0
    outer loop
      vertex -32.8542 -17.7511 -41
      vertex -33.4542 -18.7903 39.3125
      vertex -32.8542 -17.7511 39.4392
    endloop
  endfacet
  facet normal -0.499999 0.866026 0
    outer loop
      vertex 21.6 -24.2487 -41
      vertex 32.8542 -17.7511 39.4392
      vertex 32.8542 -17.7511 -41
    endloop
  endfacet
  facet normal -0.499999 0.866026 0
    outer loop
      vertex 32.8542 -17.7511 39.4392
      vertex 21.6 -24.2487 -41
      vertex 21.6 -24.2487 41.8169
    endloop
  endfacet
  facet normal 0.499996 -0.866028 0
    outer loop
      vertex 0.6 12.1244 -41
      vertex 16 21.0155 43
      vertex 0.6 12.1244 43
    endloop
  endfacet
  facet normal 0.500004 -0.866023 -1.98507e-06
    outer loop
      vertex 16 21.0155 43
      vertex 0.6 12.1244 -41
      vertex 21.6 24.2487 41.8169
    endloop
  endfacet
  facet normal 0.499998 -0.866026 0
    outer loop
      vertex 21.6 24.2487 41.8169
      vertex 0.6 12.1244 -41
      vertex 21.6 24.2487 -41
    endloop
  endfacet
  facet normal -0.499999 -0.866026 0
    outer loop
      vertex 21.6 24.2487 -41
      vertex 32.8542 17.7511 39.4392
      vertex 21.6 24.2487 41.8169
    endloop
  endfacet
  facet normal -0.499999 -0.866026 -0
    outer loop
      vertex 32.8542 17.7511 39.4392
      vertex 21.6 24.2487 -41
      vertex 32.8542 17.7511 -41
    endloop
  endfacet
  facet normal 1 -0 0
    outer loop
      vertex 0.6 -12.1244 43
      vertex 0.6 12.1244 -41
      vertex 0.6 12.1244 43
    endloop
  endfacet
  facet normal 1 0 0
    outer loop
      vertex 0.6 12.1244 -41
      vertex 0.6 -12.1244 43
      vertex 0.6 -12.1244 -41
    endloop
  endfacet
  facet normal 0.500004 0.866023 -1.98507e-06
    outer loop
      vertex 0.6 -12.1244 -41
      vertex 16 -21.0155 43
      vertex 21.6 -24.2487 41.8169
    endloop
  endfacet
  facet normal 0.499998 0.866026 0
    outer loop
      vertex 0.6 -12.1244 -41
      vertex 21.6 -24.2487 41.8169
      vertex 21.6 -24.2487 -41
    endloop
  endfacet
  facet normal 0.499996 0.866028 0
    outer loop
      vertex 16 -21.0155 43
      vertex 0.6 -12.1244 -41
      vertex 0.6 -12.1244 43
    endloop
  endfacet
  facet normal 0 0 1
    outer loop
      vertex 21.6 24.2487 -41
      vertex 31.6989 15.75 -41
      vertex 32.8542 17.7511 -41
    endloop
  endfacet
  facet normal 0 0 1
    outer loop
      vertex 21.6 24.2487 -41
      vertex 19.5161 15.75 -41
      vertex 31.6989 15.75 -41
    endloop
  endfacet
  facet normal 0 0 1
    outer loop
      vertex 0.6 12.1244 -41
      vertex 19.5161 15.75 -41
      vertex 21.6 24.2487 -41
    endloop
  endfacet
  facet normal 0 0 1
    outer loop
      vertex 10.29 6.52386 -41
      vertex 0.6 12.1244 -41
      vertex 10.29 -6.52386 -41
    endloop
  endfacet
  facet normal 0 0 1
    outer loop
      vertex 19.5161 15.75 -41
      vertex 0.6 12.1244 -41
      vertex 10.29 6.52386 -41
    endloop
  endfacet
  facet normal 0 0 1
    outer loop
      vertex 31.6989 -15.75 -41
      vertex 21.6 -24.2487 -41
      vertex 32.8542 -17.7511 -41
    endloop
  endfacet
  facet normal -0 0 1
    outer loop
      vertex 19.5161 -15.75 -41
      vertex 21.6 -24.2487 -41
      vertex 31.6989 -15.75 -41
    endloop
  endfacet
  facet normal -0 0 1
    outer loop
      vertex 0.6 -12.1244 -41
      vertex 19.5161 -15.75 -41
      vertex 10.29 -6.52386 -41
    endloop
  endfacet
  facet normal 0 0 1
    outer loop
      vertex 19.5161 -15.75 -41
      vertex 0.6 -12.1244 -41
      vertex 21.6 -24.2487 -41
    endloop
  endfacet
  facet normal 0 0 1
    outer loop
      vertex 0.6 -12.1244 -41
      vertex 10.29 -6.52386 -41
      vertex 0.6 12.1244 -41
    endloop
  endfacet
  facet normal 0.707108 0.707105 0
    outer loop
      vertex 19.5161 -15.75 -41
      vertex 10.29 -6.52386 -43
      vertex 10.29 -6.52386 -41
    endloop
  endfacet
  facet normal 0.707108 0.707105 0
    outer loop
      vertex 10.29 -6.52386 -43
      vertex 19.5161 -15.75 -41
      vertex 19.5161 -15.75 -43
    endloop
  endfacet
  facet normal 0 -1 0
    outer loop
      vertex 19.5161 15.75 -43
      vertex 31.6989 15.75 -41
      vertex 19.5161 15.75 -41
    endloop
  endfacet
  facet normal 0 -1 -0
    outer loop
      vertex 31.6989 15.75 -41
      vertex 19.5161 15.75 -43
      vertex 31.6989 15.75 -43
    endloop
  endfacet
  facet normal 0 1 -0
    outer loop
      vertex 31.6989 -15.75 -43
      vertex 19.5161 -15.75 -41
      vertex 31.6989 -15.75 -41
    endloop
  endfacet
  facet normal 0 1 0
    outer loop
      vertex 19.5161 -15.75 -41
      vertex 31.6989 -15.75 -43
      vertex 19.5161 -15.75 -43
    endloop
  endfacet
  facet normal 0.707108 -0.707105 0
    outer loop
      vertex 10.29 6.52386 -41
      vertex 19.5161 15.75 -43
      vertex 19.5161 15.75 -41
    endloop
  endfacet
  facet normal 0.707108 -0.707105 0
    outer loop
      vertex 19.5161 15.75 -43
      vertex 10.29 6.52386 -41
      vertex 10.29 6.52386 -43
    endloop
  endfacet
  facet normal 1 -0 0
    outer loop
      vertex 10.29 -6.52386 -41
      vertex 10.29 6.52386 -43
      vertex 10.29 6.52386 -41
    endloop
  endfacet
  facet normal 1 0 0
    outer loop
      vertex 10.29 6.52386 -43
      vertex 10.29 -6.52386 -41
      vertex 10.29 -6.52386 -43
    endloop
  endfacet
  facet normal 0.866019 -0.500011 0
    outer loop
      vertex 32.8542 17.7511 -41
      vertex 33.4542 18.7903 39.3125
      vertex 32.8542 17.7511 39.4392
    endloop
  endfacet
  facet normal 0.866019 -0.500011 0
    outer loop
      vertex 33.4542 18.7903 39.3125
      vertex 32.8542 17.7511 -41
      vertex 33.4542 18.7903 -43
    endloop
  endfacet
  facet normal 0.866032 -0.499988 0
    outer loop
      vertex 31.6989 15.75 -43
      vertex 32.8542 17.7511 -41
      vertex 31.6989 15.75 -41
    endloop
  endfacet
  facet normal 0.866028 -0.499996 1.02888e-05
    outer loop
      vertex 32.8542 17.7511 -41
      vertex 31.6989 15.75 -43
      vertex 33.4542 18.7903 -43
    endloop
  endfacet
  facet normal 0.866019 0.500011 0
    outer loop
      vertex 32.8542 -17.7511 39.4392
      vertex 33.4542 -18.7903 39.3125
      vertex 32.8542 -17.7511 -41
    endloop
  endfacet
  facet normal 0.866032 0.499988 0
    outer loop
      vertex 32.8542 -17.7511 -41
      vertex 31.6989 -15.75 -43
      vertex 31.6989 -15.75 -41
    endloop
  endfacet
  facet normal 0.866028 0.499996 1.02888e-05
    outer loop
      vertex 32.8542 -17.7511 -41
      vertex 33.4542 -18.7903 -43
      vertex 31.6989 -15.75 -43
    endloop
  endfacet
  facet normal 0.866019 0.500011 -0
    outer loop
      vertex 33.4542 -18.7903 -43
      vertex 32.8542 -17.7511 -41
      vertex 33.4542 -18.7903 39.3125
    endloop
  endfacet
  facet normal -0.206705 0 0.978403
    outer loop
      vertex -21.6 24.2487 41.8169
      vertex -16 25.6344 43
      vertex -21.6 25.6344 41.8169
    endloop
  endfacet
  facet normal -0.206705 0 0.978403
    outer loop
      vertex -16 25.6344 43
      vertex -21.6 24.2487 41.8169
      vertex -16 21.0155 43
    endloop
  endfacet
  facet normal -0.206704 0 0.978403
    outer loop
      vertex -33.4542 18.7903 39.3125
      vertex -21.6 24.2487 41.8169
      vertex -21.6 25.6344 41.8169
    endloop
  endfacet
  facet normal -0.206685 -4.47269e-05 0.978408
    outer loop
      vertex -21.6 24.2487 41.8169
      vertex -33.4542 18.7903 39.3125
      vertex -32.8542 17.7511 39.4392
    endloop
  endfacet
  facet normal -0.206705 0 0.978403
    outer loop
      vertex -21.6 -24.2487 41.8169
      vertex -16 -25.6344 43
      vertex -16 -21.0155 43
    endloop
  endfacet
  facet normal -0.206705 0 0.978403
    outer loop
      vertex -16 -25.6344 43
      vertex -21.6 -24.2487 41.8169
      vertex -21.6 -25.6344 41.8169
    endloop
  endfacet
  facet normal -0.206685 4.47269e-05 0.978408
    outer loop
      vertex -33.4542 -18.7903 39.3125
      vertex -21.6 -24.2487 41.8169
      vertex -32.8542 -17.7511 39.4392
    endloop
  endfacet
  facet normal -0.206704 0 0.978403
    outer loop
      vertex -21.6 -24.2487 41.8169
      vertex -33.4542 -18.7903 39.3125
      vertex -21.6 -25.6344 41.8169
    endloop
  endfacet
  facet normal 0.206685 -4.47269e-05 0.978408
    outer loop
      vertex 33.4542 18.7903 39.3125
      vertex 21.6 24.2487 41.8169
      vertex 32.8542 17.7511 39.4392
    endloop
  endfacet
  facet normal 0.206704 0 0.978403
    outer loop
      vertex 21.6 25.6344 41.8169
      vertex 21.6 24.2487 41.8169
      vertex 33.4542 18.7903 39.3125
    endloop
  endfacet
  facet normal 0.206705 0 0.978403
    outer loop
      vertex 16 25.6344 43
      vertex 21.6 24.2487 41.8169
      vertex 21.6 25.6344 41.8169
    endloop
  endfacet
  facet normal 0.206705 0 0.978403
    outer loop
      vertex 21.6 24.2487 41.8169
      vertex 16 25.6344 43
      vertex 16 21.0155 43
    endloop
  endfacet
  facet normal 0.206685 4.47269e-05 0.978408
    outer loop
      vertex 21.6 -24.2487 41.8169
      vertex 33.4542 -18.7903 39.3125
      vertex 32.8542 -17.7511 39.4392
    endloop
  endfacet
  facet normal 0.206704 0 0.978403
    outer loop
      vertex 21.6 -24.2487 41.8169
      vertex 21.6 -25.6344 41.8169
      vertex 33.4542 -18.7903 39.3125
    endloop
  endfacet
  facet normal 0.206705 -0 0.978403
    outer loop
      vertex 16 -25.6344 43
      vertex 21.6 -24.2487 41.8169
      vertex 16 -21.0155 43
    endloop
  endfacet
  facet normal 0.206705 0 0.978403
    outer loop
      vertex 21.6 -24.2487 41.8169
      vertex 16 -25.6344 43
      vertex 21.6 -25.6344 41.8169
    endloop
  endfacet
  facet normal 0 -0.923847 -0.382761
    outer loop
      vertex 0 -13.1636 1.9
      vertex -16 -25.6344 32
      vertex -21.6 -25.6344 32
    endloop
  endfacet
  facet normal 0 -0.923847 -0.382761
    outer loop
      vertex -16 -25.6344 32
      vertex 0 -13.1636 1.9
      vertex -11.2 -25.6344 32
    endloop
  endfacet
  facet normal 0 -0.923847 -0.382761
    outer loop
      vertex -11.2 -25.6344 32
      vertex 0 -13.1636 1.9
      vertex 11.2 -25.6344 32
    endloop
  endfacet
  facet normal 0 -0.923847 -0.382761
    outer loop
      vertex 11.2 -25.6344 32
      vertex 0 -13.1636 1.9
      vertex 16 -25.6344 32
    endloop
  endfacet
  facet normal 0 -0.923847 -0.382761
    outer loop
      vertex 16 -25.6344 32
      vertex 0 -13.1636 1.9
      vertex 21.6 -25.6344 32
    endloop
  endfacet
  facet normal -0.500001 -0.866025 0
    outer loop
      vertex 21.6 -25.6344 -41
      vertex 0 -13.1636 1.9
      vertex 0 -13.1636 -23.9
    endloop
  endfacet
  facet normal -0.500001 -0.866025 0
    outer loop
      vertex 0 -13.1636 1.9
      vertex 21.6 -25.6344 -41
      vertex 21.6 -25.6344 32
    endloop
  endfacet
  facet normal 0 -0.807961 0.589235
    outer loop
      vertex 21.6 -25.6344 -41
      vertex 0 -13.1636 -23.9
      vertex -21.6 -25.6344 -41
    endloop
  endfacet
  facet normal 0.500001 -0.866025 0
    outer loop
      vertex -21.6 -25.6344 -41
      vertex 0 -13.1636 1.9
      vertex -21.6 -25.6344 32
    endloop
  endfacet
  facet normal 0.500001 -0.866025 0
    outer loop
      vertex 0 -13.1636 1.9
      vertex -21.6 -25.6344 -41
      vertex 0 -13.1636 -23.9
    endloop
  endfacet
  facet normal -0.500001 0.866025 0
    outer loop
      vertex 21.6 25.6344 -41
      vertex 0 13.1636 1.9
      vertex 21.6 25.6344 32
    endloop
  endfacet
  facet normal -0.500001 0.866025 0
    outer loop
      vertex 0 13.1636 1.9
      vertex 21.6 25.6344 -41
      vertex 0 13.1636 -23.9
    endloop
  endfacet
  facet normal 0 0.807961 0.589235
    outer loop
      vertex 0 13.1636 -23.9
      vertex 21.6 25.6344 -41
      vertex -21.6 25.6344 -41
    endloop
  endfacet
  facet normal 0 0.923847 -0.382761
    outer loop
      vertex 0 13.1636 1.9
      vertex 16 25.6344 32
      vertex 21.6 25.6344 32
    endloop
  endfacet
  facet normal 0 0.923847 -0.382761
    outer loop
      vertex 16 25.6344 32
      vertex 0 13.1636 1.9
      vertex 11.2 25.6344 32
    endloop
  endfacet
  facet normal 0 0.923847 -0.382761
    outer loop
      vertex 11.2 25.6344 32
      vertex 0 13.1636 1.9
      vertex -11.2 25.6344 32
    endloop
  endfacet
  facet normal 0 0.923847 -0.382761
    outer loop
      vertex -11.2 25.6344 32
      vertex 0 13.1636 1.9
      vertex -16 25.6344 32
    endloop
  endfacet
  facet normal 0 0.923847 -0.382761
    outer loop
      vertex -16 25.6344 32
      vertex 0 13.1636 1.9
      vertex -21.6 25.6344 32
    endloop
  endfacet
  facet normal 0.500001 0.866025 0
    outer loop
      vertex -21.6 25.6344 -41
      vertex 0 13.1636 1.9
      vertex 0 13.1636 -23.9
    endloop
  endfacet
  facet normal 0.500001 0.866025 0
    outer loop
      vertex 0 13.1636 1.9
      vertex -21.6 25.6344 -41
      vertex -21.6 25.6344 32
    endloop
  endfacet
endsolid OpenSCAD_Model
