  0
SECTION
  2
BLOCKS
  0
ENDSEC
  0
SECTION
  2
ENTITIES
  0
LINE
  8
0
 10
66.675
 20
-19.05
 11
84.4687
 21
-19.05
  0
LINE
  8
0
 10
84.4687
 20
-19.05
 11
84.4687
 21
-44.45
  0
LINE
  8
0
 10
84.4687
 20
-44.45
 11
99.1802
 21
-44.45
  0
LINE
  8
0
 10
99.1802
 20
-44.45
 11
103.006
 21
-43.2068
  0
LINE
  8
0
 10
103.006
 20
-43.2068
 11
106.261
 21
-40.8422
  0
LINE
  8
0
 10
106.261
 20
-40.8422
 11
108.626
 21
-37.5875
  0
LINE
  8
0
 10
108.626
 20
-37.5875
 11
109.869
 21
-33.7615
  0
LINE
  8
0
 10
109.869
 20
-33.7615
 11
109.869
 21
33.7615
  0
LINE
  8
0
 10
109.869
 20
33.7615
 11
108.626
 21
37.5875
  0
LINE
  8
0
 10
108.626
 20
37.5875
 11
106.261
 21
40.8422
  0
LINE
  8
0
 10
106.261
 20
40.8422
 11
103.006
 21
43.2068
  0
LINE
  8
0
 10
103.006
 20
43.2068
 11
99.1802
 21
44.45
  0
LINE
  8
0
 10
99.1802
 20
44.45
 11
66.675
 21
44.45
  0
LINE
  8
0
 10
66.675
 20
44.45
 11
66.675
 21
66.675
  0
LINE
  8
0
 10
66.675
 20
66.675
 11
-66.675
 21
66.675
  0
LINE
  8
0
 10
-66.675
 20
66.675
 11
-66.675
 21
44.45
  0
LINE
  8
0
 10
-66.675
 20
44.45
 11
-84.4687
 21
44.45
  0
LINE
  8
0
 10
-84.4687
 20
44.45
 11
-103.006
 21
32.6568
  0
LINE
  8
0
 10
-103.006
 20
32.6568
 11
-106.261
 21
30.2922
  0
LINE
  8
0
 10
-106.261
 20
30.2922
 11
-108.626
 21
27.0375
  0
LINE
  8
0
 10
-108.626
 20
27.0375
 11
-109.869
 21
23.2115
  0
LINE
  8
0
 10
-109.869
 20
23.2115
 11
-109.869
 21
-23.2115
  0
LINE
  8
0
 10
-109.869
 20
-23.2115
 11
-108.626
 21
-27.0375
  0
LINE
  8
0
 10
-108.626
 20
-27.0375
 11
-106.261
 21
-30.2922
  0
LINE
  8
0
 10
-106.261
 20
-30.2922
 11
-103.006
 21
-32.6568
  0
LINE
  8
0
 10
-103.006
 20
-32.6568
 11
-84.4687
 21
-44.45
  0
LINE
  8
0
 10
-84.4687
 20
-44.45
 11
-66.675
 21
-44.45
  0
LINE
  8
0
 10
-66.675
 20
-44.45
 11
-66.675
 21
-66.675
  0
LINE
  8
0
 10
-66.675
 20
-66.675
 11
66.675
 21
-66.675
  0
LINE
  8
0
 10
66.675
 20
-66.675
 11
66.675
 21
-19.05
  0
LINE
  8
0
 10
-45.2437
 20
31.8812
 11
-45.2437
 21
50.4688
  0
LINE
  8
0
 10
-45.2437
 20
50.4688
 11
45.2437
 21
50.4687
  0
LINE
  8
0
 10
45.2437
 20
50.4687
 11
45.2437
 21
31.8812
  0
LINE
  8
0
 10
45.2437
 20
31.8812
 11
-45.2437
 21
31.8812
  0
LINE
  8
0
 10
-92.9687
 20
-11.675
 11
-92.9687
 21
11.675
  0
LINE
  8
0
 10
-92.9687
 20
11.675
 11
-75.9687
 21
11.675
  0
LINE
  8
0
 10
-75.9687
 20
11.675
 11
-75.9687
 21
-11.675
  0
LINE
  8
0
 10
-75.9687
 20
-11.675
 11
-92.9687
 21
-11.675
  0
ENDSEC
  0
SECTION
  2
OBJECTS
  0
DICTIONARY
  0
ENDSEC
  0
EOF
