  0
SECTION
  2
BLOCKS
  0
ENDSEC
  0
SECTION
  2
ENTITIES
  0
LINE
  8
0
 10
9.64278
 20
-23.0135
 11
9.67523
 21
-23.0092
  0
LINE
  8
0
 10
9.67523
 20
-23.0092
 11
9.70734
 21
-23.0028
  0
LINE
  8
0
 10
9.70734
 20
-23.0028
 11
9.73897
 21
-22.9943
  0
LINE
  8
0
 10
9.73897
 20
-22.9943
 11
9.76996
 21
-22.9838
  0
LINE
  8
0
 10
9.76996
 20
-22.9838
 11
9.8002
 21
-22.9713
  0
LINE
  8
0
 10
9.8002
 20
-22.9713
 11
9.82957
 21
-22.9568
  0
LINE
  8
0
 10
9.82957
 20
-22.9568
 11
9.85791
 21
-22.9404
  0
LINE
  8
0
 10
9.85791
 20
-22.9404
 11
9.88513
 21
-22.9223
  0
LINE
  8
0
 10
9.88513
 20
-22.9223
 11
9.9111
 21
-22.9023
  0
LINE
  8
0
 10
9.9111
 20
-22.9023
 11
9.93571
 21
-22.8807
  0
LINE
  8
0
 10
9.93571
 20
-22.8807
 11
9.95886
 21
-22.8576
  0
LINE
  8
0
 10
9.95886
 20
-22.8576
 11
9.98045
 21
-22.833
  0
LINE
  8
0
 10
9.98045
 20
-22.833
 11
10.0004
 21
-22.807
  0
LINE
  8
0
 10
10.0004
 20
-22.807
 11
10.0186
 21
-22.7798
  0
LINE
  8
0
 10
10.0186
 20
-22.7798
 11
10.0349
 21
-22.7514
  0
LINE
  8
0
 10
10.0349
 20
-22.7514
 11
10.0494
 21
-22.7221
  0
LINE
  8
0
 10
10.0494
 20
-22.7221
 11
10.062
 21
-22.6918
  0
LINE
  8
0
 10
10.062
 20
-22.6918
 11
10.0725
 21
-22.6608
  0
LINE
  8
0
 10
10.0725
 20
-22.6608
 11
10.0809
 21
-22.6292
  0
LINE
  8
0
 10
10.0809
 20
-22.6292
 11
10.0873
 21
-22.5971
  0
LINE
  8
0
 10
10.0873
 20
-22.5971
 11
10.0916
 21
-22.5647
  0
LINE
  8
0
 10
10.0916
 20
-22.5647
 11
10.0938
 21
-22.532
  0
LINE
  8
0
 10
10.0938
 20
-22.532
 11
10.0938
 21
-21.3594
  0
LINE
  8
0
 10
10.0938
 20
-21.3594
 11
10.0991
 21
-21.3231
  0
LINE
  8
0
 10
10.0991
 20
-21.3231
 11
10.1125
 21
-21.2933
  0
LINE
  8
0
 10
10.1125
 20
-21.2933
 11
10.1333
 21
-21.2681
  0
LINE
  8
0
 10
10.1333
 20
-21.2681
 11
10.1598
 21
-21.2491
  0
LINE
  8
0
 10
10.1598
 20
-21.2491
 11
10.1903
 21
-21.2376
  0
LINE
  8
0
 10
10.1903
 20
-21.2376
 11
10.2188
 21
-21.2344
  0
LINE
  8
0
 10
10.2188
 20
-21.2344
 11
26.231
 21
-21.2349
  0
LINE
  8
0
 10
26.231
 20
-21.2349
 11
26.2628
 21
-21.2423
  0
LINE
  8
0
 10
26.2628
 20
-21.2423
 11
26.2916
 21
-21.2577
  0
LINE
  8
0
 10
26.2916
 20
-21.2577
 11
26.3154
 21
-21.28
  0
LINE
  8
0
 10
26.3154
 20
-21.28
 11
26.3327
 21
-21.3078
  0
LINE
  8
0
 10
26.3327
 20
-21.3078
 11
26.3421
 21
-21.339
  0
LINE
  8
0
 10
26.3421
 20
-21.339
 11
26.3432
 21
-21.3716
  0
LINE
  8
0
 10
26.3432
 20
-21.3716
 11
26.3432
 21
-21.9029
  0
LINE
  8
0
 10
26.3432
 20
-21.9029
 11
26.3358
 21
-21.9347
  0
LINE
  8
0
 10
26.3358
 20
-21.9347
 11
26.3204
 21
-21.9635
  0
LINE
  8
0
 10
26.3204
 20
-21.9635
 11
26.2981
 21
-21.9873
  0
LINE
  8
0
 10
26.2981
 20
-21.9873
 11
26.2704
 21
-22.0045
  0
LINE
  8
0
 10
26.2704
 20
-22.0045
 11
26.2391
 21
-22.014
  0
LINE
  8
0
 10
26.2391
 20
-22.014
 11
25.8438
 21
-22.0156
  0
LINE
  8
0
 10
25.8438
 20
-22.0156
 11
25.7947
 21
-22.0178
  0
LINE
  8
0
 10
25.7947
 20
-22.0178
 11
25.7623
 21
-22.022
  0
LINE
  8
0
 10
25.7623
 20
-22.022
 11
25.7302
 21
-22.0284
  0
LINE
  8
0
 10
25.7302
 20
-22.0284
 11
25.6985
 21
-22.0369
  0
LINE
  8
0
 10
25.6985
 20
-22.0369
 11
25.6675
 21
-22.0474
  0
LINE
  8
0
 10
25.6675
 20
-22.0474
 11
25.6373
 21
-22.06
  0
LINE
  8
0
 10
25.6373
 20
-22.06
 11
25.6079
 21
-22.0744
  0
LINE
  8
0
 10
25.6079
 20
-22.0744
 11
25.5796
 21
-22.0908
  0
LINE
  8
0
 10
25.5796
 20
-22.0908
 11
25.5524
 21
-22.109
  0
LINE
  8
0
 10
25.5524
 20
-22.109
 11
25.5264
 21
-22.1289
  0
LINE
  8
0
 10
25.5264
 20
-22.1289
 11
25.5018
 21
-22.1505
  0
LINE
  8
0
 10
25.5018
 20
-22.1505
 11
25.4786
 21
-22.1737
  0
LINE
  8
0
 10
25.4786
 20
-22.1737
 11
25.457
 21
-22.1983
  0
LINE
  8
0
 10
25.457
 20
-22.1983
 11
25.4371
 21
-22.2242
  0
LINE
  8
0
 10
25.4371
 20
-22.2242
 11
25.4189
 21
-22.2515
  0
LINE
  8
0
 10
25.4189
 20
-22.2515
 11
25.4026
 21
-22.2798
  0
LINE
  8
0
 10
25.4026
 20
-22.2798
 11
25.3881
 21
-22.3092
  0
LINE
  8
0
 10
25.3881
 20
-22.3092
 11
25.3755
 21
-22.3394
  0
LINE
  8
0
 10
25.3755
 20
-22.3394
 11
25.365
 21
-22.3704
  0
LINE
  8
0
 10
25.365
 20
-22.3704
 11
25.3566
 21
-22.402
  0
LINE
  8
0
 10
25.3566
 20
-22.402
 11
25.3502
 21
-22.4341
  0
LINE
  8
0
 10
25.3502
 20
-22.4341
 11
25.3459
 21
-22.4666
  0
LINE
  8
0
 10
25.3459
 20
-22.4666
 11
25.3438
 21
-22.4993
  0
LINE
  8
0
 10
25.3438
 20
-22.4993
 11
25.3438
 21
-22.532
  0
LINE
  8
0
 10
25.3438
 20
-22.532
 11
25.3459
 21
-22.5647
  0
LINE
  8
0
 10
25.3459
 20
-22.5647
 11
25.3502
 21
-22.5971
  0
LINE
  8
0
 10
25.3502
 20
-22.5971
 11
25.3566
 21
-22.6292
  0
LINE
  8
0
 10
25.3566
 20
-22.6292
 11
25.365
 21
-22.6608
  0
LINE
  8
0
 10
25.365
 20
-22.6608
 11
25.3755
 21
-22.6918
  0
LINE
  8
0
 10
25.3755
 20
-22.6918
 11
25.3881
 21
-22.7221
  0
LINE
  8
0
 10
25.3881
 20
-22.7221
 11
25.4026
 21
-22.7514
  0
LINE
  8
0
 10
25.4026
 20
-22.7514
 11
25.4189
 21
-22.7798
  0
LINE
  8
0
 10
25.4189
 20
-22.7798
 11
25.4371
 21
-22.807
  0
LINE
  8
0
 10
25.4371
 20
-22.807
 11
25.457
 21
-22.833
  0
LINE
  8
0
 10
25.457
 20
-22.833
 11
25.4786
 21
-22.8576
  0
LINE
  8
0
 10
25.4786
 20
-22.8576
 11
25.5018
 21
-22.8807
  0
LINE
  8
0
 10
25.5018
 20
-22.8807
 11
25.5264
 21
-22.9023
  0
LINE
  8
0
 10
25.5264
 20
-22.9023
 11
25.5524
 21
-22.9223
  0
LINE
  8
0
 10
25.5524
 20
-22.9223
 11
25.5796
 21
-22.9404
  0
LINE
  8
0
 10
25.5796
 20
-22.9404
 11
25.6079
 21
-22.9568
  0
LINE
  8
0
 10
25.6079
 20
-22.9568
 11
25.6373
 21
-22.9713
  0
LINE
  8
0
 10
25.6373
 20
-22.9713
 11
25.6675
 21
-22.9838
  0
LINE
  8
0
 10
25.6675
 20
-22.9838
 11
25.6985
 21
-22.9943
  0
LINE
  8
0
 10
25.6985
 20
-22.9943
 11
25.7302
 21
-23.0028
  0
LINE
  8
0
 10
25.7302
 20
-23.0028
 11
25.7623
 21
-23.0092
  0
LINE
  8
0
 10
25.7623
 20
-23.0092
 11
25.7947
 21
-23.0135
  0
LINE
  8
0
 10
25.7947
 20
-23.0135
 11
25.8274
 21
-23.0156
  0
LINE
  8
0
 10
25.8274
 20
-23.0156
 11
28.3601
 21
-23.0156
  0
LINE
  8
0
 10
28.3601
 20
-23.0156
 11
28.3928
 21
-23.0135
  0
LINE
  8
0
 10
28.3928
 20
-23.0135
 11
28.4252
 21
-23.0092
  0
LINE
  8
0
 10
28.4252
 20
-23.0092
 11
28.4573
 21
-23.0028
  0
LINE
  8
0
 10
28.4573
 20
-23.0028
 11
28.489
 21
-22.9943
  0
LINE
  8
0
 10
28.489
 20
-22.9943
 11
28.52
 21
-22.9838
  0
LINE
  8
0
 10
28.52
 20
-22.9838
 11
28.5502
 21
-22.9713
  0
LINE
  8
0
 10
28.5502
 20
-22.9713
 11
28.5796
 21
-22.9568
  0
LINE
  8
0
 10
28.5796
 20
-22.9568
 11
28.6079
 21
-22.9404
  0
LINE
  8
0
 10
28.6079
 20
-22.9404
 11
28.6351
 21
-22.9223
  0
LINE
  8
0
 10
28.6351
 20
-22.9223
 11
28.6611
 21
-22.9023
  0
LINE
  8
0
 10
28.6611
 20
-22.9023
 11
28.6857
 21
-22.8807
  0
LINE
  8
0
 10
28.6857
 20
-22.8807
 11
28.7089
 21
-22.8576
  0
LINE
  8
0
 10
28.7089
 20
-22.8576
 11
28.7305
 21
-22.833
  0
LINE
  8
0
 10
28.7305
 20
-22.833
 11
28.7504
 21
-22.807
  0
LINE
  8
0
 10
28.7504
 20
-22.807
 11
28.7686
 21
-22.7798
  0
LINE
  8
0
 10
28.7686
 20
-22.7798
 11
28.7849
 21
-22.7514
  0
LINE
  8
0
 10
28.7849
 20
-22.7514
 11
28.7994
 21
-22.7221
  0
LINE
  8
0
 10
28.7994
 20
-22.7221
 11
28.812
 21
-22.6918
  0
LINE
  8
0
 10
28.812
 20
-22.6918
 11
28.8225
 21
-22.6608
  0
LINE
  8
0
 10
28.8225
 20
-22.6608
 11
28.8309
 21
-22.6292
  0
LINE
  8
0
 10
28.8309
 20
-22.6292
 11
28.8373
 21
-22.5971
  0
LINE
  8
0
 10
28.8373
 20
-22.5971
 11
28.8416
 21
-22.5647
  0
LINE
  8
0
 10
28.8416
 20
-22.5647
 11
28.8438
 21
-22.532
  0
LINE
  8
0
 10
28.8438
 20
-22.532
 11
28.8438
 21
-21.3594
  0
LINE
  8
0
 10
28.8438
 20
-21.3594
 11
28.8491
 21
-21.3231
  0
LINE
  8
0
 10
28.8491
 20
-21.3231
 11
28.8625
 21
-21.2933
  0
LINE
  8
0
 10
28.8625
 20
-21.2933
 11
28.8833
 21
-21.2681
  0
LINE
  8
0
 10
28.8833
 20
-21.2681
 11
28.9098
 21
-21.2491
  0
LINE
  8
0
 10
28.9098
 20
-21.2491
 11
28.9403
 21
-21.2376
  0
LINE
  8
0
 10
28.9403
 20
-21.2376
 11
28.9688
 21
-21.2344
  0
LINE
  8
0
 10
28.9688
 20
-21.2344
 11
37.4375
 21
-21.2344
  0
LINE
  8
0
 10
37.4375
 20
-21.2344
 11
37.4375
 21
-9.6875
  0
LINE
  8
0
 10
37.4375
 20
-9.6875
 11
37.4428
 21
-9.65118
  0
LINE
  8
0
 10
37.4428
 20
-9.65118
 11
37.4563
 21
-9.62144
  0
LINE
  8
0
 10
37.4563
 20
-9.62144
 11
37.477
 21
-9.59621
  0
LINE
  8
0
 10
37.477
 20
-9.59621
 11
37.5035
 21
-9.57719
  0
LINE
  8
0
 10
37.5035
 20
-9.57719
 11
37.5341
 21
-9.56569
  0
LINE
  8
0
 10
37.5341
 20
-9.56569
 11
37.5625
 21
-9.5625
  0
LINE
  8
0
 10
37.5625
 20
-9.5625
 11
38.0123
 21
-9.5625
  0
LINE
  8
0
 10
38.0123
 20
-9.5625
 11
38.0611
 21
-9.55768
  0
LINE
  8
0
 10
38.0611
 20
-9.55768
 11
38.1089
 21
-9.54654
  0
LINE
  8
0
 10
38.1089
 20
-9.54654
 11
38.1548
 21
-9.52925
  0
LINE
  8
0
 10
38.1548
 20
-9.52925
 11
38.1981
 21
-9.50612
  0
LINE
  8
0
 10
38.1981
 20
-9.50612
 11
38.238
 21
-9.47752
  0
LINE
  8
0
 10
38.238
 20
-9.47752
 11
38.2738
 21
-9.44397
  0
LINE
  8
0
 10
38.2738
 20
-9.44397
 11
38.305
 21
-9.40604
  0
LINE
  8
0
 10
38.305
 20
-9.40604
 11
38.3309
 21
-9.36436
  0
LINE
  8
0
 10
38.3309
 20
-9.36436
 11
38.3512
 21
-9.31966
  0
LINE
  8
0
 10
38.3512
 20
-9.31966
 11
38.3654
 21
-9.27269
  0
LINE
  8
0
 10
38.3654
 20
-9.27269
 11
38.3734
 21
-9.22427
  0
LINE
  8
0
 10
38.3734
 20
-9.22427
 11
38.375
 21
-9.17522
  0
LINE
  8
0
 10
38.375
 20
-9.17522
 11
38.375
 21
-6.42523
  0
LINE
  8
0
 10
38.375
 20
-6.42523
 11
38.3702
 21
-6.37639
  0
LINE
  8
0
 10
38.3702
 20
-6.37639
 11
38.359
 21
-6.3286
  0
LINE
  8
0
 10
38.359
 20
-6.3286
 11
38.3418
 21
-6.28265
  0
LINE
  8
0
 10
38.3418
 20
-6.28265
 11
38.3186
 21
-6.23938
  0
LINE
  8
0
 10
38.3186
 20
-6.23938
 11
38.29
 21
-6.19948
  0
LINE
  8
0
 10
38.29
 20
-6.19948
 11
38.2565
 21
-6.16367
  0
LINE
  8
0
 10
38.2565
 20
-6.16367
 11
38.2185
 21
-6.13252
  0
LINE
  8
0
 10
38.2185
 20
-6.13252
 11
38.1769
 21
-6.10661
  0
LINE
  8
0
 10
38.1769
 20
-6.10661
 11
38.1322
 21
-6.08635
  0
LINE
  8
0
 10
38.1322
 20
-6.08635
 11
38.0852
 21
-6.07211
  0
LINE
  8
0
 10
38.0852
 20
-6.07211
 11
38.0368
 21
-6.06412
  0
LINE
  8
0
 10
38.0368
 20
-6.06412
 11
37.9877
 21
-6.0625
  0
LINE
  8
0
 10
37.9877
 20
-6.0625
 11
37.5625
 21
-6.0625
  0
LINE
  8
0
 10
37.5625
 20
-6.0625
 11
37.5262
 21
-6.05719
  0
LINE
  8
0
 10
37.5262
 20
-6.05719
 11
37.4964
 21
-6.04372
  0
LINE
  8
0
 10
37.4964
 20
-6.04372
 11
37.4712
 21
-6.02299
  0
LINE
  8
0
 10
37.4712
 20
-6.02299
 11
37.4522
 21
-5.99646
  0
LINE
  8
0
 10
37.4522
 20
-5.99646
 11
37.4407
 21
-5.96591
  0
LINE
  8
0
 10
37.4407
 20
-5.96591
 11
37.4375
 21
-5.9375
  0
LINE
  8
0
 10
37.4375
 20
-5.9375
 11
37.4375
 21
5.9375
  0
LINE
  8
0
 10
37.4375
 20
5.9375
 11
37.4428
 21
5.97382
  0
LINE
  8
0
 10
37.4428
 20
5.97382
 11
37.4563
 21
6.00356
  0
LINE
  8
0
 10
37.4563
 20
6.00356
 11
37.477
 21
6.02879
  0
LINE
  8
0
 10
37.477
 20
6.02879
 11
37.5035
 21
6.04781
  0
LINE
  8
0
 10
37.5035
 20
6.04781
 11
37.5341
 21
6.05931
  0
LINE
  8
0
 10
37.5341
 20
6.05931
 11
37.5625
 21
6.0625
  0
LINE
  8
0
 10
37.5625
 20
6.0625
 11
38.0123
 21
6.0625
  0
LINE
  8
0
 10
38.0123
 20
6.0625
 11
38.0611
 21
6.06732
  0
LINE
  8
0
 10
38.0611
 20
6.06732
 11
38.1089
 21
6.07846
  0
LINE
  8
0
 10
38.1089
 20
6.07846
 11
38.1548
 21
6.09575
  0
LINE
  8
0
 10
38.1548
 20
6.09575
 11
38.1981
 21
6.11888
  0
LINE
  8
0
 10
38.1981
 20
6.11888
 11
38.238
 21
6.14748
  0
LINE
  8
0
 10
38.238
 20
6.14748
 11
38.2738
 21
6.18103
  0
LINE
  8
0
 10
38.2738
 20
6.18103
 11
38.305
 21
6.21896
  0
LINE
  8
0
 10
38.305
 20
6.21896
 11
38.3309
 21
6.26064
  0
LINE
  8
0
 10
38.3309
 20
6.26064
 11
38.3512
 21
6.30534
  0
LINE
  8
0
 10
38.3512
 20
6.30534
 11
38.3654
 21
6.35231
  0
LINE
  8
0
 10
38.3654
 20
6.35231
 11
38.3734
 21
6.40073
  0
LINE
  8
0
 10
38.3734
 20
6.40073
 11
38.375
 21
6.44978
  0
LINE
  8
0
 10
38.375
 20
6.44978
 11
38.375
 21
9.19977
  0
LINE
  8
0
 10
38.375
 20
9.19977
 11
38.3702
 21
9.24861
  0
LINE
  8
0
 10
38.3702
 20
9.24861
 11
38.359
 21
9.2964
  0
LINE
  8
0
 10
38.359
 20
9.2964
 11
38.3418
 21
9.34235
  0
LINE
  8
0
 10
38.3418
 20
9.34235
 11
38.3186
 21
9.38562
  0
LINE
  8
0
 10
38.3186
 20
9.38562
 11
38.29
 21
9.42552
  0
LINE
  8
0
 10
38.29
 20
9.42552
 11
38.2565
 21
9.46133
  0
LINE
  8
0
 10
38.2565
 20
9.46133
 11
38.2185
 21
9.49248
  0
LINE
  8
0
 10
38.2185
 20
9.49248
 11
38.1769
 21
9.51839
  0
LINE
  8
0
 10
38.1769
 20
9.51839
 11
38.1322
 21
9.53865
  0
LINE
  8
0
 10
38.1322
 20
9.53865
 11
38.0852
 21
9.55289
  0
LINE
  8
0
 10
38.0852
 20
9.55289
 11
38.0368
 21
9.56088
  0
LINE
  8
0
 10
38.0368
 20
9.56088
 11
37.9877
 21
9.5625
  0
LINE
  8
0
 10
37.9877
 20
9.5625
 11
37.5625
 21
9.5625
  0
LINE
  8
0
 10
37.5625
 20
9.5625
 11
37.5262
 21
9.56781
  0
LINE
  8
0
 10
37.5262
 20
9.56781
 11
37.4964
 21
9.58128
  0
LINE
  8
0
 10
37.4964
 20
9.58128
 11
37.4712
 21
9.60201
  0
LINE
  8
0
 10
37.4712
 20
9.60201
 11
37.4522
 21
9.62854
  0
LINE
  8
0
 10
37.4522
 20
9.62854
 11
37.4407
 21
9.65909
  0
LINE
  8
0
 10
37.4407
 20
9.65909
 11
37.4375
 21
9.6875
  0
LINE
  8
0
 10
37.4375
 20
9.6875
 11
37.4375
 21
21.2344
  0
LINE
  8
0
 10
37.4375
 20
21.2344
 11
28.9688
 21
21.2344
  0
LINE
  8
0
 10
28.9688
 20
21.2344
 11
28.9403
 21
21.2376
  0
LINE
  8
0
 10
28.9403
 20
21.2376
 11
28.9098
 21
21.2491
  0
LINE
  8
0
 10
28.9098
 20
21.2491
 11
28.8833
 21
21.2681
  0
LINE
  8
0
 10
28.8833
 20
21.2681
 11
28.8625
 21
21.2933
  0
LINE
  8
0
 10
28.8625
 20
21.2933
 11
28.8491
 21
21.3231
  0
LINE
  8
0
 10
28.8491
 20
21.3231
 11
28.8438
 21
21.3594
  0
LINE
  8
0
 10
28.8438
 20
21.3594
 11
28.8438
 21
22.532
  0
LINE
  8
0
 10
28.8438
 20
22.532
 11
28.8416
 21
22.5647
  0
LINE
  8
0
 10
28.8416
 20
22.5647
 11
28.8373
 21
22.5971
  0
LINE
  8
0
 10
28.8373
 20
22.5971
 11
28.8309
 21
22.6292
  0
LINE
  8
0
 10
28.8309
 20
22.6292
 11
28.8225
 21
22.6608
  0
LINE
  8
0
 10
28.8225
 20
22.6608
 11
28.812
 21
22.6918
  0
LINE
  8
0
 10
28.812
 20
22.6918
 11
28.7994
 21
22.7221
  0
LINE
  8
0
 10
28.7994
 20
22.7221
 11
28.7849
 21
22.7514
  0
LINE
  8
0
 10
28.7849
 20
22.7514
 11
28.7686
 21
22.7798
  0
LINE
  8
0
 10
28.7686
 20
22.7798
 11
28.7504
 21
22.807
  0
LINE
  8
0
 10
28.7504
 20
22.807
 11
28.7305
 21
22.833
  0
LINE
  8
0
 10
28.7305
 20
22.833
 11
28.7089
 21
22.8576
  0
LINE
  8
0
 10
28.7089
 20
22.8576
 11
28.6857
 21
22.8807
  0
LINE
  8
0
 10
28.6857
 20
22.8807
 11
28.6611
 21
22.9023
  0
LINE
  8
0
 10
28.6611
 20
22.9023
 11
28.6351
 21
22.9223
  0
LINE
  8
0
 10
28.6351
 20
22.9223
 11
28.6079
 21
22.9404
  0
LINE
  8
0
 10
28.6079
 20
22.9404
 11
28.5796
 21
22.9568
  0
LINE
  8
0
 10
28.5796
 20
22.9568
 11
28.5502
 21
22.9713
  0
LINE
  8
0
 10
28.5502
 20
22.9713
 11
28.52
 21
22.9838
  0
LINE
  8
0
 10
28.52
 20
22.9838
 11
28.489
 21
22.9943
  0
LINE
  8
0
 10
28.489
 20
22.9943
 11
28.4573
 21
23.0028
  0
LINE
  8
0
 10
28.4573
 20
23.0028
 11
28.4252
 21
23.0092
  0
LINE
  8
0
 10
28.4252
 20
23.0092
 11
28.3928
 21
23.0135
  0
LINE
  8
0
 10
28.3928
 20
23.0135
 11
28.3601
 21
23.0156
  0
LINE
  8
0
 10
28.3601
 20
23.0156
 11
25.8274
 21
23.0156
  0
LINE
  8
0
 10
25.8274
 20
23.0156
 11
25.7947
 21
23.0135
  0
LINE
  8
0
 10
25.7947
 20
23.0135
 11
25.7623
 21
23.0092
  0
LINE
  8
0
 10
25.7623
 20
23.0092
 11
25.7302
 21
23.0028
  0
LINE
  8
0
 10
25.7302
 20
23.0028
 11
25.6985
 21
22.9943
  0
LINE
  8
0
 10
25.6985
 20
22.9943
 11
25.6675
 21
22.9838
  0
LINE
  8
0
 10
25.6675
 20
22.9838
 11
25.6373
 21
22.9713
  0
LINE
  8
0
 10
25.6373
 20
22.9713
 11
25.6079
 21
22.9568
  0
LINE
  8
0
 10
25.6079
 20
22.9568
 11
25.5796
 21
22.9404
  0
LINE
  8
0
 10
25.5796
 20
22.9404
 11
25.5524
 21
22.9223
  0
LINE
  8
0
 10
25.5524
 20
22.9223
 11
25.5264
 21
22.9023
  0
LINE
  8
0
 10
25.5264
 20
22.9023
 11
25.5018
 21
22.8807
  0
LINE
  8
0
 10
25.5018
 20
22.8807
 11
25.4786
 21
22.8576
  0
LINE
  8
0
 10
25.4786
 20
22.8576
 11
25.457
 21
22.833
  0
LINE
  8
0
 10
25.457
 20
22.833
 11
25.4371
 21
22.807
  0
LINE
  8
0
 10
25.4371
 20
22.807
 11
25.4189
 21
22.7798
  0
LINE
  8
0
 10
25.4189
 20
22.7798
 11
25.4026
 21
22.7514
  0
LINE
  8
0
 10
25.4026
 20
22.7514
 11
25.3881
 21
22.7221
  0
LINE
  8
0
 10
25.3881
 20
22.7221
 11
25.3755
 21
22.6918
  0
LINE
  8
0
 10
25.3755
 20
22.6918
 11
25.365
 21
22.6608
  0
LINE
  8
0
 10
25.365
 20
22.6608
 11
25.3566
 21
22.6292
  0
LINE
  8
0
 10
25.3566
 20
22.6292
 11
25.3502
 21
22.5971
  0
LINE
  8
0
 10
25.3502
 20
22.5971
 11
25.3459
 21
22.5647
  0
LINE
  8
0
 10
25.3459
 20
22.5647
 11
25.3438
 21
22.532
  0
LINE
  8
0
 10
25.3438
 20
22.532
 11
25.3438
 21
22.4993
  0
LINE
  8
0
 10
25.3438
 20
22.4993
 11
25.3459
 21
22.4666
  0
LINE
  8
0
 10
25.3459
 20
22.4666
 11
25.3502
 21
22.4341
  0
LINE
  8
0
 10
25.3502
 20
22.4341
 11
25.3566
 21
22.402
  0
LINE
  8
0
 10
25.3566
 20
22.402
 11
25.365
 21
22.3704
  0
LINE
  8
0
 10
25.365
 20
22.3704
 11
25.3755
 21
22.3394
  0
LINE
  8
0
 10
25.3755
 20
22.3394
 11
25.3881
 21
22.3092
  0
LINE
  8
0
 10
25.3881
 20
22.3092
 11
25.4026
 21
22.2798
  0
LINE
  8
0
 10
25.4026
 20
22.2798
 11
25.4189
 21
22.2515
  0
LINE
  8
0
 10
25.4189
 20
22.2515
 11
25.4371
 21
22.2242
  0
LINE
  8
0
 10
25.4371
 20
22.2242
 11
25.457
 21
22.1983
  0
LINE
  8
0
 10
25.457
 20
22.1983
 11
25.4786
 21
22.1737
  0
LINE
  8
0
 10
25.4786
 20
22.1737
 11
25.5018
 21
22.1505
  0
LINE
  8
0
 10
25.5018
 20
22.1505
 11
25.5264
 21
22.1289
  0
LINE
  8
0
 10
25.5264
 20
22.1289
 11
25.5524
 21
22.109
  0
LINE
  8
0
 10
25.5524
 20
22.109
 11
25.5796
 21
22.0908
  0
LINE
  8
0
 10
25.5796
 20
22.0908
 11
25.6079
 21
22.0744
  0
LINE
  8
0
 10
25.6079
 20
22.0744
 11
25.6373
 21
22.06
  0
LINE
  8
0
 10
25.6373
 20
22.06
 11
25.6675
 21
22.0474
  0
LINE
  8
0
 10
25.6675
 20
22.0474
 11
25.6985
 21
22.0369
  0
LINE
  8
0
 10
25.6985
 20
22.0369
 11
25.7302
 21
22.0284
  0
LINE
  8
0
 10
25.7302
 20
22.0284
 11
25.7623
 21
22.022
  0
LINE
  8
0
 10
25.7623
 20
22.022
 11
25.7947
 21
22.0178
  0
LINE
  8
0
 10
25.7947
 20
22.0178
 11
25.8438
 21
22.0156
  0
LINE
  8
0
 10
25.8438
 20
22.0156
 11
26.2391
 21
22.014
  0
LINE
  8
0
 10
26.2391
 20
22.014
 11
26.2704
 21
22.0045
  0
LINE
  8
0
 10
26.2704
 20
22.0045
 11
26.2981
 21
21.9873
  0
LINE
  8
0
 10
26.2981
 20
21.9873
 11
26.3204
 21
21.9635
  0
LINE
  8
0
 10
26.3204
 20
21.9635
 11
26.3358
 21
21.9347
  0
LINE
  8
0
 10
26.3358
 20
21.9347
 11
26.3432
 21
21.9029
  0
LINE
  8
0
 10
26.3432
 20
21.9029
 11
26.3432
 21
21.3716
  0
LINE
  8
0
 10
26.3432
 20
21.3716
 11
26.3421
 21
21.339
  0
LINE
  8
0
 10
26.3421
 20
21.339
 11
26.3327
 21
21.3078
  0
LINE
  8
0
 10
26.3327
 20
21.3078
 11
26.3154
 21
21.28
  0
LINE
  8
0
 10
26.3154
 20
21.28
 11
26.2916
 21
21.2577
  0
LINE
  8
0
 10
26.2916
 20
21.2577
 11
26.2628
 21
21.2423
  0
LINE
  8
0
 10
26.2628
 20
21.2423
 11
26.231
 21
21.2349
  0
LINE
  8
0
 10
26.231
 20
21.2349
 11
10.2188
 21
21.2344
  0
LINE
  8
0
 10
10.2188
 20
21.2344
 11
10.1903
 21
21.2376
  0
LINE
  8
0
 10
10.1903
 20
21.2376
 11
10.1598
 21
21.2491
  0
LINE
  8
0
 10
10.1598
 20
21.2491
 11
10.1333
 21
21.2681
  0
LINE
  8
0
 10
10.1333
 20
21.2681
 11
10.1125
 21
21.2933
  0
LINE
  8
0
 10
10.1125
 20
21.2933
 11
10.0991
 21
21.3231
  0
LINE
  8
0
 10
10.0991
 20
21.3231
 11
10.0938
 21
21.3594
  0
LINE
  8
0
 10
10.0938
 20
21.3594
 11
10.0938
 21
22.532
  0
LINE
  8
0
 10
10.0938
 20
22.532
 11
10.0916
 21
22.5647
  0
LINE
  8
0
 10
10.0916
 20
22.5647
 11
10.0873
 21
22.5971
  0
LINE
  8
0
 10
10.0873
 20
22.5971
 11
10.0809
 21
22.6292
  0
LINE
  8
0
 10
10.0809
 20
22.6292
 11
10.0725
 21
22.6608
  0
LINE
  8
0
 10
10.0725
 20
22.6608
 11
10.062
 21
22.6918
  0
LINE
  8
0
 10
10.062
 20
22.6918
 11
10.0494
 21
22.7221
  0
LINE
  8
0
 10
10.0494
 20
22.7221
 11
10.0349
 21
22.7514
  0
LINE
  8
0
 10
10.0349
 20
22.7514
 11
10.0186
 21
22.7798
  0
LINE
  8
0
 10
10.0186
 20
22.7798
 11
10.0004
 21
22.807
  0
LINE
  8
0
 10
10.0004
 20
22.807
 11
9.98045
 21
22.833
  0
LINE
  8
0
 10
9.98045
 20
22.833
 11
9.95886
 21
22.8576
  0
LINE
  8
0
 10
9.95886
 20
22.8576
 11
9.93571
 21
22.8807
  0
LINE
  8
0
 10
9.93571
 20
22.8807
 11
9.9111
 21
22.9023
  0
LINE
  8
0
 10
9.9111
 20
22.9023
 11
9.88513
 21
22.9223
  0
LINE
  8
0
 10
9.88513
 20
22.9223
 11
9.85791
 21
22.9404
  0
LINE
  8
0
 10
9.85791
 20
22.9404
 11
9.82957
 21
22.9568
  0
LINE
  8
0
 10
9.82957
 20
22.9568
 11
9.8002
 21
22.9713
  0
LINE
  8
0
 10
9.8002
 20
22.9713
 11
9.76996
 21
22.9838
  0
LINE
  8
0
 10
9.76996
 20
22.9838
 11
9.73897
 21
22.9943
  0
LINE
  8
0
 10
9.73897
 20
22.9943
 11
9.70734
 21
23.0028
  0
LINE
  8
0
 10
9.70734
 20
23.0028
 11
9.67523
 21
23.0092
  0
LINE
  8
0
 10
9.67523
 20
23.0092
 11
9.64278
 21
23.0135
  0
LINE
  8
0
 10
9.64278
 20
23.0135
 11
9.61011
 21
23.0156
  0
LINE
  8
0
 10
9.61011
 20
23.0156
 11
7.07739
 21
23.0156
  0
LINE
  8
0
 10
7.07739
 20
23.0156
 11
7.04472
 21
23.0135
  0
LINE
  8
0
 10
7.04472
 20
23.0135
 11
7.01227
 21
23.0092
  0
LINE
  8
0
 10
7.01227
 20
23.0092
 11
6.98016
 21
23.0028
  0
LINE
  8
0
 10
6.98016
 20
23.0028
 11
6.94853
 21
22.9943
  0
LINE
  8
0
 10
6.94853
 20
22.9943
 11
6.91754
 21
22.9838
  0
LINE
  8
0
 10
6.91754
 20
22.9838
 11
6.8873
 21
22.9713
  0
LINE
  8
0
 10
6.8873
 20
22.9713
 11
6.85793
 21
22.9568
  0
LINE
  8
0
 10
6.85793
 20
22.9568
 11
6.82959
 21
22.9404
  0
LINE
  8
0
 10
6.82959
 20
22.9404
 11
6.80237
 21
22.9223
  0
LINE
  8
0
 10
6.80237
 20
22.9223
 11
6.7764
 21
22.9023
  0
LINE
  8
0
 10
6.7764
 20
22.9023
 11
6.75179
 21
22.8807
  0
LINE
  8
0
 10
6.75179
 20
22.8807
 11
6.72864
 21
22.8576
  0
LINE
  8
0
 10
6.72864
 20
22.8576
 11
6.70705
 21
22.833
  0
LINE
  8
0
 10
6.70705
 20
22.833
 11
6.68712
 21
22.807
  0
LINE
  8
0
 10
6.68712
 20
22.807
 11
6.66893
 21
22.7798
  0
LINE
  8
0
 10
6.66893
 20
22.7798
 11
6.65256
 21
22.7514
  0
LINE
  8
0
 10
6.65256
 20
22.7514
 11
6.63808
 21
22.7221
  0
LINE
  8
0
 10
6.63808
 20
22.7221
 11
6.62555
 21
22.6918
  0
LINE
  8
0
 10
6.62555
 20
22.6918
 11
6.61504
 21
22.6608
  0
LINE
  8
0
 10
6.61504
 20
22.6608
 11
6.60655
 21
22.6292
  0
LINE
  8
0
 10
6.60655
 20
22.6292
 11
6.60017
 21
22.5971
  0
LINE
  8
0
 10
6.60017
 20
22.5971
 11
6.5959
 21
22.5647
  0
LINE
  8
0
 10
6.5959
 20
22.5647
 11
6.59375
 21
22.532
  0
LINE
  8
0
 10
6.59375
 20
22.532
 11
6.59375
 21
22.4993
  0
LINE
  8
0
 10
6.59375
 20
22.4993
 11
6.5959
 21
22.4666
  0
LINE
  8
0
 10
6.5959
 20
22.4666
 11
6.60017
 21
22.4341
  0
LINE
  8
0
 10
6.60017
 20
22.4341
 11
6.60655
 21
22.402
  0
LINE
  8
0
 10
6.60655
 20
22.402
 11
6.61504
 21
22.3704
  0
LINE
  8
0
 10
6.61504
 20
22.3704
 11
6.62555
 21
22.3394
  0
LINE
  8
0
 10
6.62555
 20
22.3394
 11
6.63808
 21
22.3092
  0
LINE
  8
0
 10
6.63808
 20
22.3092
 11
6.65256
 21
22.2798
  0
LINE
  8
0
 10
6.65256
 20
22.2798
 11
6.66893
 21
22.2515
  0
LINE
  8
0
 10
6.66893
 20
22.2515
 11
6.68712
 21
22.2242
  0
LINE
  8
0
 10
6.68712
 20
22.2242
 11
6.70705
 21
22.1983
  0
LINE
  8
0
 10
6.70705
 20
22.1983
 11
6.72864
 21
22.1737
  0
LINE
  8
0
 10
6.72864
 20
22.1737
 11
6.75179
 21
22.1505
  0
LINE
  8
0
 10
6.75179
 20
22.1505
 11
6.7764
 21
22.1289
  0
LINE
  8
0
 10
6.7764
 20
22.1289
 11
6.80237
 21
22.109
  0
LINE
  8
0
 10
6.80237
 20
22.109
 11
6.82959
 21
22.0908
  0
LINE
  8
0
 10
6.82959
 20
22.0908
 11
6.85793
 21
22.0744
  0
LINE
  8
0
 10
6.85793
 20
22.0744
 11
6.8873
 21
22.06
  0
LINE
  8
0
 10
6.8873
 20
22.06
 11
6.91754
 21
22.0474
  0
LINE
  8
0
 10
6.91754
 20
22.0474
 11
6.94853
 21
22.0369
  0
LINE
  8
0
 10
6.94853
 20
22.0369
 11
6.98016
 21
22.0284
  0
LINE
  8
0
 10
6.98016
 20
22.0284
 11
7.01227
 21
22.022
  0
LINE
  8
0
 10
7.01227
 20
22.022
 11
7.04472
 21
22.0178
  0
LINE
  8
0
 10
7.04472
 20
22.0178
 11
7.09375
 21
22.0156
  0
LINE
  8
0
 10
7.09375
 20
22.0156
 11
7.48912
 21
22.014
  0
LINE
  8
0
 10
7.48912
 20
22.014
 11
7.52036
 21
22.0045
  0
LINE
  8
0
 10
7.52036
 20
22.0045
 11
7.54808
 21
21.9873
  0
LINE
  8
0
 10
7.54808
 20
21.9873
 11
7.5704
 21
21.9635
  0
LINE
  8
0
 10
7.5704
 20
21.9635
 11
7.5858
 21
21.9347
  0
LINE
  8
0
 10
7.5858
 20
21.9347
 11
7.5932
 21
21.9029
  0
LINE
  8
0
 10
7.5932
 20
21.9029
 11
7.5932
 21
21.3716
  0
LINE
  8
0
 10
7.5932
 20
21.3716
 11
7.59213
 21
21.339
  0
LINE
  8
0
 10
7.59213
 20
21.339
 11
7.58266
 21
21.3078
  0
LINE
  8
0
 10
7.58266
 20
21.3078
 11
7.56541
 21
21.28
  0
LINE
  8
0
 10
7.56541
 20
21.28
 11
7.5416
 21
21.2577
  0
LINE
  8
0
 10
7.5416
 20
21.2577
 11
7.5128
 21
21.2423
  0
LINE
  8
0
 10
7.5128
 20
21.2423
 11
7.481
 21
21.2349
  0
LINE
  8
0
 10
7.481
 20
21.2349
 11
0
 21
21.2344
  0
LINE
  8
0
 10
0
 20
21.2344
 11
0
 21
-21.2344
  0
LINE
  8
0
 10
0
 20
-21.2344
 11
7.481
 21
-21.2349
  0
LINE
  8
0
 10
7.481
 20
-21.2349
 11
7.5128
 21
-21.2423
  0
LINE
  8
0
 10
7.5128
 20
-21.2423
 11
7.5416
 21
-21.2577
  0
LINE
  8
0
 10
7.5416
 20
-21.2577
 11
7.56541
 21
-21.28
  0
LINE
  8
0
 10
7.56541
 20
-21.28
 11
7.58266
 21
-21.3078
  0
LINE
  8
0
 10
7.58266
 20
-21.3078
 11
7.59213
 21
-21.339
  0
LINE
  8
0
 10
7.59213
 20
-21.339
 11
7.5932
 21
-21.3716
  0
LINE
  8
0
 10
7.5932
 20
-21.3716
 11
7.5932
 21
-21.9029
  0
LINE
  8
0
 10
7.5932
 20
-21.9029
 11
7.5858
 21
-21.9347
  0
LINE
  8
0
 10
7.5858
 20
-21.9347
 11
7.5704
 21
-21.9635
  0
LINE
  8
0
 10
7.5704
 20
-21.9635
 11
7.54808
 21
-21.9873
  0
LINE
  8
0
 10
7.54808
 20
-21.9873
 11
7.52036
 21
-22.0045
  0
LINE
  8
0
 10
7.52036
 20
-22.0045
 11
7.48912
 21
-22.014
  0
LINE
  8
0
 10
7.48912
 20
-22.014
 11
7.09375
 21
-22.0156
  0
LINE
  8
0
 10
7.09375
 20
-22.0156
 11
7.04472
 21
-22.0178
  0
LINE
  8
0
 10
7.04472
 20
-22.0178
 11
7.01227
 21
-22.022
  0
LINE
  8
0
 10
7.01227
 20
-22.022
 11
6.98016
 21
-22.0284
  0
LINE
  8
0
 10
6.98016
 20
-22.0284
 11
6.94853
 21
-22.0369
  0
LINE
  8
0
 10
6.94853
 20
-22.0369
 11
6.91754
 21
-22.0474
  0
LINE
  8
0
 10
6.91754
 20
-22.0474
 11
6.8873
 21
-22.06
  0
LINE
  8
0
 10
6.8873
 20
-22.06
 11
6.85793
 21
-22.0744
  0
LINE
  8
0
 10
6.85793
 20
-22.0744
 11
6.82959
 21
-22.0908
  0
LINE
  8
0
 10
6.82959
 20
-22.0908
 11
6.80237
 21
-22.109
  0
LINE
  8
0
 10
6.80237
 20
-22.109
 11
6.7764
 21
-22.1289
  0
LINE
  8
0
 10
6.7764
 20
-22.1289
 11
6.75179
 21
-22.1505
  0
LINE
  8
0
 10
6.75179
 20
-22.1505
 11
6.72864
 21
-22.1737
  0
LINE
  8
0
 10
6.72864
 20
-22.1737
 11
6.70705
 21
-22.1983
  0
LINE
  8
0
 10
6.70705
 20
-22.1983
 11
6.68712
 21
-22.2242
  0
LINE
  8
0
 10
6.68712
 20
-22.2242
 11
6.66893
 21
-22.2515
  0
LINE
  8
0
 10
6.66893
 20
-22.2515
 11
6.65256
 21
-22.2798
  0
LINE
  8
0
 10
6.65256
 20
-22.2798
 11
6.63808
 21
-22.3092
  0
LINE
  8
0
 10
6.63808
 20
-22.3092
 11
6.62555
 21
-22.3394
  0
LINE
  8
0
 10
6.62555
 20
-22.3394
 11
6.61504
 21
-22.3704
  0
LINE
  8
0
 10
6.61504
 20
-22.3704
 11
6.60655
 21
-22.402
  0
LINE
  8
0
 10
6.60655
 20
-22.402
 11
6.60017
 21
-22.4341
  0
LINE
  8
0
 10
6.60017
 20
-22.4341
 11
6.5959
 21
-22.4666
  0
LINE
  8
0
 10
6.5959
 20
-22.4666
 11
6.59375
 21
-22.4993
  0
LINE
  8
0
 10
6.59375
 20
-22.4993
 11
6.59375
 21
-22.532
  0
LINE
  8
0
 10
6.59375
 20
-22.532
 11
6.5959
 21
-22.5647
  0
LINE
  8
0
 10
6.5959
 20
-22.5647
 11
6.60017
 21
-22.5971
  0
LINE
  8
0
 10
6.60017
 20
-22.5971
 11
6.60655
 21
-22.6292
  0
LINE
  8
0
 10
6.60655
 20
-22.6292
 11
6.61504
 21
-22.6608
  0
LINE
  8
0
 10
6.61504
 20
-22.6608
 11
6.62555
 21
-22.6918
  0
LINE
  8
0
 10
6.62555
 20
-22.6918
 11
6.63808
 21
-22.7221
  0
LINE
  8
0
 10
6.63808
 20
-22.7221
 11
6.65256
 21
-22.7514
  0
LINE
  8
0
 10
6.65256
 20
-22.7514
 11
6.66893
 21
-22.7798
  0
LINE
  8
0
 10
6.66893
 20
-22.7798
 11
6.68712
 21
-22.807
  0
LINE
  8
0
 10
6.68712
 20
-22.807
 11
6.70705
 21
-22.833
  0
LINE
  8
0
 10
6.70705
 20
-22.833
 11
6.72864
 21
-22.8576
  0
LINE
  8
0
 10
6.72864
 20
-22.8576
 11
6.75179
 21
-22.8807
  0
LINE
  8
0
 10
6.75179
 20
-22.8807
 11
6.7764
 21
-22.9023
  0
LINE
  8
0
 10
6.7764
 20
-22.9023
 11
6.80237
 21
-22.9223
  0
LINE
  8
0
 10
6.80237
 20
-22.9223
 11
6.82959
 21
-22.9404
  0
LINE
  8
0
 10
6.82959
 20
-22.9404
 11
6.85793
 21
-22.9568
  0
LINE
  8
0
 10
6.85793
 20
-22.9568
 11
6.8873
 21
-22.9713
  0
LINE
  8
0
 10
6.8873
 20
-22.9713
 11
6.91754
 21
-22.9838
  0
LINE
  8
0
 10
6.91754
 20
-22.9838
 11
6.94853
 21
-22.9943
  0
LINE
  8
0
 10
6.94853
 20
-22.9943
 11
6.98016
 21
-23.0028
  0
LINE
  8
0
 10
6.98016
 20
-23.0028
 11
7.01227
 21
-23.0092
  0
LINE
  8
0
 10
7.01227
 20
-23.0092
 11
7.04472
 21
-23.0135
  0
LINE
  8
0
 10
7.04472
 20
-23.0135
 11
7.07739
 21
-23.0156
  0
LINE
  8
0
 10
7.07739
 20
-23.0156
 11
9.61011
 21
-23.0156
  0
LINE
  8
0
 10
9.61011
 20
-23.0156
 11
9.64278
 21
-23.0135
  0
LINE
  8
0
 10
-0.25
 20
22.8125
 11
-47
 21
22.8125
  0
LINE
  8
0
 10
-47
 20
22.8125
 11
-47
 21
-22.8125
  0
LINE
  8
0
 10
-47
 20
-22.8125
 11
-0.250015
 21
-22.8125
  0
LINE
  8
0
 10
-0.250015
 20
-22.8125
 11
-0.25
 21
22.8125
  0
LINE
  8
0
 10
-45.6199
 20
21.2188
 11
-45.6504
 21
21.2208
  0
LINE
  8
0
 10
-45.6504
 20
21.2208
 11
-45.6895
 21
21.2326
  0
LINE
  8
0
 10
-45.6895
 20
21.2326
 11
-45.716
 21
21.2479
  0
LINE
  8
0
 10
-45.716
 20
21.2479
 11
-45.7391
 21
21.2681
  0
LINE
  8
0
 10
-45.7391
 20
21.2681
 11
-45.7577
 21
21.2924
  0
LINE
  8
0
 10
-45.7577
 20
21.2924
 11
-45.7746
 21
21.3296
  0
LINE
  8
0
 10
-45.7746
 20
21.3296
 11
-45.7812
 21
21.3699
  0
LINE
  8
0
 10
-45.7812
 20
21.3699
 11
-45.7812
 21
21.8699
  0
LINE
  8
0
 10
-45.7812
 20
21.8699
 11
-45.7792
 21
21.9005
  0
LINE
  8
0
 10
-45.7792
 20
21.9005
 11
-45.7674
 21
21.9395
  0
LINE
  8
0
 10
-45.7674
 20
21.9395
 11
-45.7521
 21
21.966
  0
LINE
  8
0
 10
-45.7521
 20
21.966
 11
-45.7318
 21
21.9891
  0
LINE
  8
0
 10
-45.7318
 20
21.9891
 11
-45.7075
 21
22.0078
  0
LINE
  8
0
 10
-45.7075
 20
22.0078
 11
-45.6704
 21
22.0246
  0
LINE
  8
0
 10
-45.6704
 20
22.0246
 11
-45.6403
 21
22.0306
  0
LINE
  8
0
 10
-45.6403
 20
22.0306
 11
-42.3597
 21
22.0306
  0
LINE
  8
0
 10
-42.3597
 20
22.0306
 11
-42.3296
 21
22.0246
  0
LINE
  8
0
 10
-42.3296
 20
22.0246
 11
-42.2924
 21
22.0078
  0
LINE
  8
0
 10
-42.2924
 20
22.0078
 11
-42.2681
 21
21.9891
  0
LINE
  8
0
 10
-42.2681
 20
21.9891
 11
-42.2479
 21
21.966
  0
LINE
  8
0
 10
-42.2479
 20
21.966
 11
-42.2326
 21
21.9395
  0
LINE
  8
0
 10
-42.2326
 20
21.9395
 11
-42.2207
 21
21.9005
  0
LINE
  8
0
 10
-42.2207
 20
21.9005
 11
-42.2187
 21
21.8699
  0
LINE
  8
0
 10
-42.2187
 20
21.8699
 11
-42.2187
 21
21.3699
  0
LINE
  8
0
 10
-42.2187
 20
21.3699
 11
-42.2207
 21
21.3495
  0
LINE
  8
0
 10
-42.2207
 20
21.3495
 11
-42.2326
 21
21.3105
  0
LINE
  8
0
 10
-42.2326
 20
21.3105
 11
-42.2479
 21
21.284
  0
LINE
  8
0
 10
-42.2479
 20
21.284
 11
-42.2681
 21
21.2609
  0
LINE
  8
0
 10
-42.2681
 20
21.2609
 11
-42.2924
 21
21.2422
  0
LINE
  8
0
 10
-42.2924
 20
21.2422
 11
-42.3296
 21
21.2254
  0
LINE
  8
0
 10
-42.3296
 20
21.2254
 11
-42.3699
 21
21.2188
  0
LINE
  8
0
 10
-42.3699
 20
21.2188
 11
-45.6199
 21
21.2188
  0
LINE
  8
0
 10
-38.6199
 20
21.2188
 11
-38.6504
 21
21.2208
  0
LINE
  8
0
 10
-38.6504
 20
21.2208
 11
-38.6895
 21
21.2326
  0
LINE
  8
0
 10
-38.6895
 20
21.2326
 11
-38.716
 21
21.2479
  0
LINE
  8
0
 10
-38.716
 20
21.2479
 11
-38.7391
 21
21.2681
  0
LINE
  8
0
 10
-38.7391
 20
21.2681
 11
-38.7577
 21
21.2924
  0
LINE
  8
0
 10
-38.7577
 20
21.2924
 11
-38.7746
 21
21.3296
  0
LINE
  8
0
 10
-38.7746
 20
21.3296
 11
-38.7812
 21
21.3699
  0
LINE
  8
0
 10
-38.7812
 20
21.3699
 11
-38.7812
 21
21.8699
  0
LINE
  8
0
 10
-38.7812
 20
21.8699
 11
-38.7792
 21
21.9005
  0
LINE
  8
0
 10
-38.7792
 20
21.9005
 11
-38.7674
 21
21.9395
  0
LINE
  8
0
 10
-38.7674
 20
21.9395
 11
-38.7521
 21
21.966
  0
LINE
  8
0
 10
-38.7521
 20
21.966
 11
-38.7318
 21
21.9891
  0
LINE
  8
0
 10
-38.7318
 20
21.9891
 11
-38.7075
 21
22.0078
  0
LINE
  8
0
 10
-38.7075
 20
22.0078
 11
-38.6704
 21
22.0246
  0
LINE
  8
0
 10
-38.6704
 20
22.0246
 11
-38.6403
 21
22.0306
  0
LINE
  8
0
 10
-38.6403
 20
22.0306
 11
-35.3597
 21
22.0306
  0
LINE
  8
0
 10
-35.3597
 20
22.0306
 11
-35.3296
 21
22.0246
  0
LINE
  8
0
 10
-35.3296
 20
22.0246
 11
-35.2924
 21
22.0078
  0
LINE
  8
0
 10
-35.2924
 20
22.0078
 11
-35.2681
 21
21.9891
  0
LINE
  8
0
 10
-35.2681
 20
21.9891
 11
-35.2479
 21
21.966
  0
LINE
  8
0
 10
-35.2479
 20
21.966
 11
-35.2326
 21
21.9395
  0
LINE
  8
0
 10
-35.2326
 20
21.9395
 11
-35.2207
 21
21.9005
  0
LINE
  8
0
 10
-35.2207
 20
21.9005
 11
-35.2187
 21
21.8699
  0
LINE
  8
0
 10
-35.2187
 20
21.8699
 11
-35.2187
 21
21.3699
  0
LINE
  8
0
 10
-35.2187
 20
21.3699
 11
-35.2207
 21
21.3495
  0
LINE
  8
0
 10
-35.2207
 20
21.3495
 11
-35.2326
 21
21.3105
  0
LINE
  8
0
 10
-35.2326
 20
21.3105
 11
-35.2479
 21
21.284
  0
LINE
  8
0
 10
-35.2479
 20
21.284
 11
-35.2681
 21
21.2609
  0
LINE
  8
0
 10
-35.2681
 20
21.2609
 11
-35.2924
 21
21.2422
  0
LINE
  8
0
 10
-35.2924
 20
21.2422
 11
-35.3296
 21
21.2254
  0
LINE
  8
0
 10
-35.3296
 20
21.2254
 11
-35.3699
 21
21.2188
  0
LINE
  8
0
 10
-35.3699
 20
21.2188
 11
-38.6199
 21
21.2188
  0
LINE
  8
0
 10
-16.2827
 20
3.42186
 11
-16.3481
 21
3.42615
  0
LINE
  8
0
 10
-16.3481
 20
3.42615
 11
-16.413
 21
3.43469
  0
LINE
  8
0
 10
-16.413
 20
3.43469
 11
-16.4772
 21
3.44746
  0
LINE
  8
0
 10
-16.4772
 20
3.44746
 11
-16.5404
 21
3.46442
  0
LINE
  8
0
 10
-16.5404
 20
3.46442
 11
-16.6024
 21
3.48546
  0
LINE
  8
0
 10
-16.6024
 20
3.48546
 11
-16.6629
 21
3.51051
  0
LINE
  8
0
 10
-16.6629
 20
3.51051
 11
-16.7216
 21
3.53947
  0
LINE
  8
0
 10
-16.7216
 20
3.53947
 11
-16.7783
 21
3.5722
  0
LINE
  8
0
 10
-16.7783
 20
3.5722
 11
-16.8328
 21
3.60858
  0
LINE
  8
0
 10
-16.8328
 20
3.60858
 11
-16.8847
 21
3.64844
  0
LINE
  8
0
 10
-16.8847
 20
3.64844
 11
-16.9339
 21
3.69162
  0
LINE
  8
0
 10
-16.9339
 20
3.69162
 11
-16.9802
 21
3.73792
  0
LINE
  8
0
 10
-16.9802
 20
3.73792
 11
-17.0234
 21
3.78714
  0
LINE
  8
0
 10
-17.0234
 20
3.78714
 11
-17.0633
 21
3.83908
  0
LINE
  8
0
 10
-17.0633
 20
3.83908
 11
-17.0997
 21
3.89352
  0
LINE
  8
0
 10
-17.0997
 20
3.89352
 11
-17.1324
 21
3.95021
  0
LINE
  8
0
 10
-17.1324
 20
3.95021
 11
-17.1613
 21
4.00894
  0
LINE
  8
0
 10
-17.1613
 20
4.00894
 11
-17.1864
 21
4.06943
  0
LINE
  8
0
 10
-17.1864
 20
4.06943
 11
-17.2074
 21
4.13142
  0
LINE
  8
0
 10
-17.2074
 20
4.13142
 11
-17.2244
 21
4.19467
  0
LINE
  8
0
 10
-17.2244
 20
4.19467
 11
-17.2372
 21
4.25888
  0
LINE
  8
0
 10
-17.2372
 20
4.25888
 11
-17.2457
 21
4.32379
  0
LINE
  8
0
 10
-17.2457
 20
4.32379
 11
-17.25
 21
4.38913
  0
LINE
  8
0
 10
-17.25
 20
4.38913
 11
-17.25
 21
13.8608
  0
LINE
  8
0
 10
-17.25
 20
13.8608
 11
-17.2457
 21
13.9262
  0
LINE
  8
0
 10
-17.2457
 20
13.9262
 11
-17.2372
 21
13.9911
  0
LINE
  8
0
 10
-17.2372
 20
13.9911
 11
-17.2244
 21
14.0553
  0
LINE
  8
0
 10
-17.2244
 20
14.0553
 11
-17.2074
 21
14.1185
  0
LINE
  8
0
 10
-17.2074
 20
14.1185
 11
-17.1864
 21
14.1805
  0
LINE
  8
0
 10
-17.1864
 20
14.1805
 11
-17.1613
 21
14.241
  0
LINE
  8
0
 10
-17.1613
 20
14.241
 11
-17.1324
 21
14.2998
  0
LINE
  8
0
 10
-17.1324
 20
14.2998
 11
-17.0997
 21
14.3564
  0
LINE
  8
0
 10
-17.0997
 20
14.3564
 11
-17.0633
 21
14.4109
  0
LINE
  8
0
 10
-17.0633
 20
14.4109
 11
-17.0234
 21
14.4628
  0
LINE
  8
0
 10
-17.0234
 20
14.4628
 11
-16.9802
 21
14.5121
  0
LINE
  8
0
 10
-16.9802
 20
14.5121
 11
-16.9339
 21
14.5583
  0
LINE
  8
0
 10
-16.9339
 20
14.5583
 11
-16.8847
 21
14.6015
  0
LINE
  8
0
 10
-16.8847
 20
14.6015
 11
-16.8328
 21
14.6414
  0
LINE
  8
0
 10
-16.8328
 20
14.6414
 11
-16.7783
 21
14.6778
  0
LINE
  8
0
 10
-16.7783
 20
14.6778
 11
-16.7216
 21
14.7105
  0
LINE
  8
0
 10
-16.7216
 20
14.7105
 11
-16.6629
 21
14.7395
  0
LINE
  8
0
 10
-16.6629
 20
14.7395
 11
-16.6024
 21
14.7645
  0
LINE
  8
0
 10
-16.6024
 20
14.7645
 11
-16.5404
 21
14.7856
  0
LINE
  8
0
 10
-16.5404
 20
14.7856
 11
-16.4772
 21
14.8025
  0
LINE
  8
0
 10
-16.4772
 20
14.8025
 11
-16.413
 21
14.8153
  0
LINE
  8
0
 10
-16.413
 20
14.8153
 11
-16.3481
 21
14.8238
  0
LINE
  8
0
 10
-16.3481
 20
14.8238
 11
-16.2827
 21
14.8281
  0
LINE
  8
0
 10
-16.2827
 20
14.8281
 11
-13.2173
 21
14.8281
  0
LINE
  8
0
 10
-13.2173
 20
14.8281
 11
-13.1519
 21
14.8238
  0
LINE
  8
0
 10
-13.1519
 20
14.8238
 11
-13.087
 21
14.8153
  0
LINE
  8
0
 10
-13.087
 20
14.8153
 11
-13.0228
 21
14.8025
  0
LINE
  8
0
 10
-13.0228
 20
14.8025
 11
-12.9596
 21
14.7856
  0
LINE
  8
0
 10
-12.9596
 20
14.7856
 11
-12.8976
 21
14.7645
  0
LINE
  8
0
 10
-12.8976
 20
14.7645
 11
-12.8371
 21
14.7395
  0
LINE
  8
0
 10
-12.8371
 20
14.7395
 11
-12.7784
 21
14.7105
  0
LINE
  8
0
 10
-12.7784
 20
14.7105
 11
-12.7217
 21
14.6778
  0
LINE
  8
0
 10
-12.7217
 20
14.6778
 11
-12.6672
 21
14.6414
  0
LINE
  8
0
 10
-12.6672
 20
14.6414
 11
-12.6153
 21
14.6015
  0
LINE
  8
0
 10
-12.6153
 20
14.6015
 11
-12.5661
 21
14.5583
  0
LINE
  8
0
 10
-12.5661
 20
14.5583
 11
-12.5198
 21
14.5121
  0
LINE
  8
0
 10
-12.5198
 20
14.5121
 11
-12.4766
 21
14.4628
  0
LINE
  8
0
 10
-12.4766
 20
14.4628
 11
-12.4367
 21
14.4109
  0
LINE
  8
0
 10
-12.4367
 20
14.4109
 11
-12.4003
 21
14.3564
  0
LINE
  8
0
 10
-12.4003
 20
14.3564
 11
-12.3676
 21
14.2998
  0
LINE
  8
0
 10
-12.3676
 20
14.2998
 11
-12.3387
 21
14.241
  0
LINE
  8
0
 10
-12.3387
 20
14.241
 11
-12.3136
 21
14.1805
  0
LINE
  8
0
 10
-12.3136
 20
14.1805
 11
-12.2926
 21
14.1185
  0
LINE
  8
0
 10
-12.2926
 20
14.1185
 11
-12.2756
 21
14.0553
  0
LINE
  8
0
 10
-12.2756
 20
14.0553
 11
-12.2628
 21
13.9911
  0
LINE
  8
0
 10
-12.2628
 20
13.9911
 11
-12.2543
 21
13.9262
  0
LINE
  8
0
 10
-12.2543
 20
13.9262
 11
-12.25
 21
13.8608
  0
LINE
  8
0
 10
-12.25
 20
13.8608
 11
-12.25
 21
4.38913
  0
LINE
  8
0
 10
-12.25
 20
4.38913
 11
-12.2543
 21
4.32379
  0
LINE
  8
0
 10
-12.2543
 20
4.32379
 11
-12.2628
 21
4.25888
  0
LINE
  8
0
 10
-12.2628
 20
4.25888
 11
-12.2756
 21
4.19467
  0
LINE
  8
0
 10
-12.2756
 20
4.19467
 11
-12.2926
 21
4.13142
  0
LINE
  8
0
 10
-12.2926
 20
4.13142
 11
-12.3136
 21
4.06943
  0
LINE
  8
0
 10
-12.3136
 20
4.06943
 11
-12.3387
 21
4.00894
  0
LINE
  8
0
 10
-12.3387
 20
4.00894
 11
-12.3676
 21
3.95021
  0
LINE
  8
0
 10
-12.3676
 20
3.95021
 11
-12.4003
 21
3.89352
  0
LINE
  8
0
 10
-12.4003
 20
3.89352
 11
-12.4367
 21
3.83908
  0
LINE
  8
0
 10
-12.4367
 20
3.83908
 11
-12.4766
 21
3.78714
  0
LINE
  8
0
 10
-12.4766
 20
3.78714
 11
-12.5198
 21
3.73792
  0
LINE
  8
0
 10
-12.5198
 20
3.73792
 11
-12.5661
 21
3.69162
  0
LINE
  8
0
 10
-12.5661
 20
3.69162
 11
-12.6153
 21
3.64844
  0
LINE
  8
0
 10
-12.6153
 20
3.64844
 11
-12.6672
 21
3.60858
  0
LINE
  8
0
 10
-12.6672
 20
3.60858
 11
-12.7217
 21
3.5722
  0
LINE
  8
0
 10
-12.7217
 20
3.5722
 11
-12.7784
 21
3.53947
  0
LINE
  8
0
 10
-12.7784
 20
3.53947
 11
-12.8371
 21
3.51051
  0
LINE
  8
0
 10
-12.8371
 20
3.51051
 11
-12.8976
 21
3.48546
  0
LINE
  8
0
 10
-12.8976
 20
3.48546
 11
-12.9596
 21
3.46442
  0
LINE
  8
0
 10
-12.9596
 20
3.46442
 11
-13.0228
 21
3.44746
  0
LINE
  8
0
 10
-13.0228
 20
3.44746
 11
-13.087
 21
3.43469
  0
LINE
  8
0
 10
-13.087
 20
3.43469
 11
-13.1519
 21
3.42615
  0
LINE
  8
0
 10
-13.1519
 20
3.42615
 11
-13.2173
 21
3.42186
  0
LINE
  8
0
 10
-13.2173
 20
3.42186
 11
-16.2827
 21
3.42186
  0
LINE
  8
0
 10
-37.1199
 20
6.03125
 11
-37.1504
 21
6.03326
  0
LINE
  8
0
 10
-37.1504
 20
6.03326
 11
-37.1895
 21
6.0451
  0
LINE
  8
0
 10
-37.1895
 20
6.0451
 11
-37.216
 21
6.06042
  0
LINE
  8
0
 10
-37.216
 20
6.06042
 11
-37.2391
 21
6.08064
  0
LINE
  8
0
 10
-37.2391
 20
6.08064
 11
-37.2577
 21
6.10495
  0
LINE
  8
0
 10
-37.2577
 20
6.10495
 11
-37.2746
 21
6.14212
  0
LINE
  8
0
 10
-37.2746
 20
6.14212
 11
-37.2806
 21
6.17218
  0
LINE
  8
0
 10
-37.2806
 20
6.17218
 11
-37.2806
 21
9.45282
  0
LINE
  8
0
 10
-37.2806
 20
9.45282
 11
-37.2746
 21
9.48288
  0
LINE
  8
0
 10
-37.2746
 20
9.48288
 11
-37.2577
 21
9.52005
  0
LINE
  8
0
 10
-37.2577
 20
9.52005
 11
-37.2391
 21
9.54436
  0
LINE
  8
0
 10
-37.2391
 20
9.54436
 11
-37.216
 21
9.56458
  0
LINE
  8
0
 10
-37.216
 20
9.56458
 11
-37.1895
 21
9.5799
  0
LINE
  8
0
 10
-37.1895
 20
9.5799
 11
-37.1504
 21
9.59174
  0
LINE
  8
0
 10
-37.1504
 20
9.59174
 11
-37.1199
 21
9.59375
  0
LINE
  8
0
 10
-37.1199
 20
9.59375
 11
-35.8699
 21
9.59375
  0
LINE
  8
0
 10
-35.8699
 20
9.59375
 11
-35.8495
 21
9.59174
  0
LINE
  8
0
 10
-35.8495
 20
9.59174
 11
-35.8105
 21
9.5799
  0
LINE
  8
0
 10
-35.8105
 20
9.5799
 11
-35.7839
 21
9.56458
  0
LINE
  8
0
 10
-35.7839
 20
9.56458
 11
-35.7609
 21
9.54436
  0
LINE
  8
0
 10
-35.7609
 20
9.54436
 11
-35.7422
 21
9.52005
  0
LINE
  8
0
 10
-35.7422
 20
9.52005
 11
-35.7254
 21
9.48288
  0
LINE
  8
0
 10
-35.7254
 20
9.48288
 11
-35.7187
 21
9.44261
  0
LINE
  8
0
 10
-35.7187
 20
9.44261
 11
-35.7187
 21
6.19263
  0
LINE
  8
0
 10
-35.7187
 20
6.19263
 11
-35.7207
 21
6.16205
  0
LINE
  8
0
 10
-35.7207
 20
6.16205
 11
-35.7326
 21
6.12299
  0
LINE
  8
0
 10
-35.7326
 20
6.12299
 11
-35.7479
 21
6.09645
  0
LINE
  8
0
 10
-35.7479
 20
6.09645
 11
-35.7681
 21
6.07341
  0
LINE
  8
0
 10
-35.7681
 20
6.07341
 11
-35.7924
 21
6.05475
  0
LINE
  8
0
 10
-35.7924
 20
6.05475
 11
-35.8296
 21
6.0379
  0
LINE
  8
0
 10
-35.8296
 20
6.0379
 11
-35.8699
 21
6.03125
  0
LINE
  8
0
 10
-35.8699
 20
6.03125
 11
-37.1199
 21
6.03125
  0
LINE
  8
0
 10
-16.2827
 20
-14.8281
 11
-16.3481
 21
-14.8238
  0
LINE
  8
0
 10
-16.3481
 20
-14.8238
 11
-16.413
 21
-14.8153
  0
LINE
  8
0
 10
-16.413
 20
-14.8153
 11
-16.4772
 21
-14.8025
  0
LINE
  8
0
 10
-16.4772
 20
-14.8025
 11
-16.5405
 21
-14.7856
  0
LINE
  8
0
 10
-16.5405
 20
-14.7856
 11
-16.6024
 21
-14.7645
  0
LINE
  8
0
 10
-16.6024
 20
-14.7645
 11
-16.6629
 21
-14.7395
  0
LINE
  8
0
 10
-16.6629
 20
-14.7395
 11
-16.7217
 21
-14.7105
  0
LINE
  8
0
 10
-16.7217
 20
-14.7105
 11
-16.7784
 21
-14.6778
  0
LINE
  8
0
 10
-16.7784
 20
-14.6778
 11
-16.8328
 21
-14.6414
  0
LINE
  8
0
 10
-16.8328
 20
-14.6414
 11
-16.8847
 21
-14.6015
  0
LINE
  8
0
 10
-16.8847
 20
-14.6015
 11
-16.934
 21
-14.5584
  0
LINE
  8
0
 10
-16.934
 20
-14.5584
 11
-16.9803
 21
-14.5121
  0
LINE
  8
0
 10
-16.9803
 20
-14.5121
 11
-17.0234
 21
-14.4628
  0
LINE
  8
0
 10
-17.0234
 20
-14.4628
 11
-17.0633
 21
-14.4109
  0
LINE
  8
0
 10
-17.0633
 20
-14.4109
 11
-17.0997
 21
-14.3565
  0
LINE
  8
0
 10
-17.0997
 20
-14.3565
 11
-17.1324
 21
-14.2998
  0
LINE
  8
0
 10
-17.1324
 20
-14.2998
 11
-17.1614
 21
-14.241
  0
LINE
  8
0
 10
-17.1614
 20
-14.241
 11
-17.1864
 21
-14.1806
  0
LINE
  8
0
 10
-17.1864
 20
-14.1806
 11
-17.2075
 21
-14.1186
  0
LINE
  8
0
 10
-17.2075
 20
-14.1186
 11
-17.2244
 21
-14.0553
  0
LINE
  8
0
 10
-17.2244
 20
-14.0553
 11
-17.2372
 21
-13.9911
  0
LINE
  8
0
 10
-17.2372
 20
-13.9911
 11
-17.2457
 21
-13.9262
  0
LINE
  8
0
 10
-17.2457
 20
-13.9262
 11
-17.25
 21
-13.8609
  0
LINE
  8
0
 10
-17.25
 20
-13.8609
 11
-17.25
 21
-4.38914
  0
LINE
  8
0
 10
-17.25
 20
-4.38914
 11
-17.2457
 21
-4.32381
  0
LINE
  8
0
 10
-17.2457
 20
-4.32381
 11
-17.2372
 21
-4.2589
  0
LINE
  8
0
 10
-17.2372
 20
-4.2589
 11
-17.2244
 21
-4.19469
  0
LINE
  8
0
 10
-17.2244
 20
-4.19469
 11
-17.2075
 21
-4.13144
  0
LINE
  8
0
 10
-17.2075
 20
-4.13144
 11
-17.1864
 21
-4.06944
  0
LINE
  8
0
 10
-17.1864
 20
-4.06944
 11
-17.1614
 21
-4.00896
  0
LINE
  8
0
 10
-17.1614
 20
-4.00896
 11
-17.1324
 21
-3.95023
  0
LINE
  8
0
 10
-17.1324
 20
-3.95023
 11
-17.0997
 21
-3.89354
  0
LINE
  8
0
 10
-17.0997
 20
-3.89354
 11
-17.0633
 21
-3.8391
  0
LINE
  8
0
 10
-17.0633
 20
-3.8391
 11
-17.0234
 21
-3.78716
  0
LINE
  8
0
 10
-17.0234
 20
-3.78716
 11
-16.9803
 21
-3.73793
  0
LINE
  8
0
 10
-16.9803
 20
-3.73793
 11
-16.934
 21
-3.69164
  0
LINE
  8
0
 10
-16.934
 20
-3.69164
 11
-16.8847
 21
-3.64845
  0
LINE
  8
0
 10
-16.8847
 20
-3.64845
 11
-16.8328
 21
-3.6086
  0
LINE
  8
0
 10
-16.8328
 20
-3.6086
 11
-16.7784
 21
-3.57222
  0
LINE
  8
0
 10
-16.7784
 20
-3.57222
 11
-16.7217
 21
-3.53949
  0
LINE
  8
0
 10
-16.7217
 20
-3.53949
 11
-16.6629
 21
-3.51053
  0
LINE
  8
0
 10
-16.6629
 20
-3.51053
 11
-16.6024
 21
-3.48547
  0
LINE
  8
0
 10
-16.6024
 20
-3.48547
 11
-16.5405
 21
-3.46443
  0
LINE
  8
0
 10
-16.5405
 20
-3.46443
 11
-16.4772
 21
-3.44748
  0
LINE
  8
0
 10
-16.4772
 20
-3.44748
 11
-16.413
 21
-3.43471
  0
LINE
  8
0
 10
-16.413
 20
-3.43471
 11
-16.3481
 21
-3.42616
  0
LINE
  8
0
 10
-16.3481
 20
-3.42616
 11
-16.2827
 21
-3.42188
  0
LINE
  8
0
 10
-16.2827
 20
-3.42188
 11
-13.2173
 21
-3.42188
  0
LINE
  8
0
 10
-13.2173
 20
-3.42188
 11
-13.1519
 21
-3.42616
  0
LINE
  8
0
 10
-13.1519
 20
-3.42616
 11
-13.087
 21
-3.43471
  0
LINE
  8
0
 10
-13.087
 20
-3.43471
 11
-13.0228
 21
-3.44748
  0
LINE
  8
0
 10
-13.0228
 20
-3.44748
 11
-12.9596
 21
-3.46443
  0
LINE
  8
0
 10
-12.9596
 20
-3.46443
 11
-12.8976
 21
-3.48547
  0
LINE
  8
0
 10
-12.8976
 20
-3.48547
 11
-12.8371
 21
-3.51053
  0
LINE
  8
0
 10
-12.8371
 20
-3.51053
 11
-12.7784
 21
-3.53949
  0
LINE
  8
0
 10
-12.7784
 20
-3.53949
 11
-12.7217
 21
-3.57222
  0
LINE
  8
0
 10
-12.7217
 20
-3.57222
 11
-12.6672
 21
-3.6086
  0
LINE
  8
0
 10
-12.6672
 20
-3.6086
 11
-12.6153
 21
-3.64845
  0
LINE
  8
0
 10
-12.6153
 20
-3.64845
 11
-12.5661
 21
-3.69164
  0
LINE
  8
0
 10
-12.5661
 20
-3.69164
 11
-12.5198
 21
-3.73793
  0
LINE
  8
0
 10
-12.5198
 20
-3.73793
 11
-12.4766
 21
-3.78716
  0
LINE
  8
0
 10
-12.4766
 20
-3.78716
 11
-12.4367
 21
-3.8391
  0
LINE
  8
0
 10
-12.4367
 20
-3.8391
 11
-12.4003
 21
-3.89354
  0
LINE
  8
0
 10
-12.4003
 20
-3.89354
 11
-12.3676
 21
-3.95023
  0
LINE
  8
0
 10
-12.3676
 20
-3.95023
 11
-12.3387
 21
-4.00896
  0
LINE
  8
0
 10
-12.3387
 20
-4.00896
 11
-12.3136
 21
-4.06944
  0
LINE
  8
0
 10
-12.3136
 20
-4.06944
 11
-12.2926
 21
-4.13144
  0
LINE
  8
0
 10
-12.2926
 20
-4.13144
 11
-12.2756
 21
-4.19469
  0
LINE
  8
0
 10
-12.2756
 20
-4.19469
 11
-12.2628
 21
-4.2589
  0
LINE
  8
0
 10
-12.2628
 20
-4.2589
 11
-12.2543
 21
-4.32381
  0
LINE
  8
0
 10
-12.2543
 20
-4.32381
 11
-12.25
 21
-4.38914
  0
LINE
  8
0
 10
-12.25
 20
-4.38914
 11
-12.25
 21
-13.8609
  0
LINE
  8
0
 10
-12.25
 20
-13.8609
 11
-12.2543
 21
-13.9262
  0
LINE
  8
0
 10
-12.2543
 20
-13.9262
 11
-12.2628
 21
-13.9911
  0
LINE
  8
0
 10
-12.2628
 20
-13.9911
 11
-12.2756
 21
-14.0553
  0
LINE
  8
0
 10
-12.2756
 20
-14.0553
 11
-12.2926
 21
-14.1186
  0
LINE
  8
0
 10
-12.2926
 20
-14.1186
 11
-12.3136
 21
-14.1806
  0
LINE
  8
0
 10
-12.3136
 20
-14.1806
 11
-12.3387
 21
-14.241
  0
LINE
  8
0
 10
-12.3387
 20
-14.241
 11
-12.3676
 21
-14.2998
  0
LINE
  8
0
 10
-12.3676
 20
-14.2998
 11
-12.4004
 21
-14.3565
  0
LINE
  8
0
 10
-12.4004
 20
-14.3565
 11
-12.4367
 21
-14.4109
  0
LINE
  8
0
 10
-12.4367
 20
-14.4109
 11
-12.4766
 21
-14.4628
  0
LINE
  8
0
 10
-12.4766
 20
-14.4628
 11
-12.5198
 21
-14.5121
  0
LINE
  8
0
 10
-12.5198
 20
-14.5121
 11
-12.5661
 21
-14.5584
  0
LINE
  8
0
 10
-12.5661
 20
-14.5584
 11
-12.6153
 21
-14.6015
  0
LINE
  8
0
 10
-12.6153
 20
-14.6015
 11
-12.6672
 21
-14.6414
  0
LINE
  8
0
 10
-12.6672
 20
-14.6414
 11
-12.7217
 21
-14.6778
  0
LINE
  8
0
 10
-12.7217
 20
-14.6778
 11
-12.7784
 21
-14.7105
  0
LINE
  8
0
 10
-12.7784
 20
-14.7105
 11
-12.8371
 21
-14.7395
  0
LINE
  8
0
 10
-12.8371
 20
-14.7395
 11
-12.8976
 21
-14.7645
  0
LINE
  8
0
 10
-12.8976
 20
-14.7645
 11
-12.9596
 21
-14.7856
  0
LINE
  8
0
 10
-12.9596
 20
-14.7856
 11
-13.0228
 21
-14.8025
  0
LINE
  8
0
 10
-13.0228
 20
-14.8025
 11
-13.087
 21
-14.8153
  0
LINE
  8
0
 10
-13.087
 20
-14.8153
 11
-13.1519
 21
-14.8238
  0
LINE
  8
0
 10
-13.1519
 20
-14.8238
 11
-13.2173
 21
-14.8281
  0
LINE
  8
0
 10
-13.2173
 20
-14.8281
 11
-16.2827
 21
-14.8281
  0
LINE
  8
0
 10
-37.1199
 20
-9.59373
 11
-37.1505
 21
-9.59172
  0
LINE
  8
0
 10
-37.1505
 20
-9.59172
 11
-37.1895
 21
-9.57988
  0
LINE
  8
0
 10
-37.1895
 20
-9.57988
 11
-37.216
 21
-9.56456
  0
LINE
  8
0
 10
-37.216
 20
-9.56456
 11
-37.2391
 21
-9.54434
  0
LINE
  8
0
 10
-37.2391
 20
-9.54434
 11
-37.2578
 21
-9.52003
  0
LINE
  8
0
 10
-37.2578
 20
-9.52003
 11
-37.2746
 21
-9.48286
  0
LINE
  8
0
 10
-37.2746
 20
-9.48286
 11
-37.2806
 21
-9.4528
  0
LINE
  8
0
 10
-37.2806
 20
-9.4528
 11
-37.2806
 21
-6.17216
  0
LINE
  8
0
 10
-37.2806
 20
-6.17216
 11
-37.2746
 21
-6.14211
  0
LINE
  8
0
 10
-37.2746
 20
-6.14211
 11
-37.2578
 21
-6.10493
  0
LINE
  8
0
 10
-37.2578
 20
-6.10493
 11
-37.2391
 21
-6.08063
  0
LINE
  8
0
 10
-37.2391
 20
-6.08063
 11
-37.216
 21
-6.06041
  0
LINE
  8
0
 10
-37.216
 20
-6.06041
 11
-37.1895
 21
-6.04509
  0
LINE
  8
0
 10
-37.1895
 20
-6.04509
 11
-37.1505
 21
-6.03325
  0
LINE
  8
0
 10
-37.1505
 20
-6.03325
 11
-37.1199
 21
-6.03123
  0
LINE
  8
0
 10
-37.1199
 20
-6.03123
 11
-35.8699
 21
-6.03123
  0
LINE
  8
0
 10
-35.8699
 20
-6.03123
 11
-35.8495
 21
-6.03325
  0
LINE
  8
0
 10
-35.8495
 20
-6.03325
 11
-35.8105
 21
-6.04509
  0
LINE
  8
0
 10
-35.8105
 20
-6.04509
 11
-35.784
 21
-6.06041
  0
LINE
  8
0
 10
-35.784
 20
-6.06041
 11
-35.7609
 21
-6.08063
  0
LINE
  8
0
 10
-35.7609
 20
-6.08063
 11
-35.7422
 21
-6.10493
  0
LINE
  8
0
 10
-35.7422
 20
-6.10493
 11
-35.7254
 21
-6.14211
  0
LINE
  8
0
 10
-35.7254
 20
-6.14211
 11
-35.7188
 21
-6.18237
  0
LINE
  8
0
 10
-35.7188
 20
-6.18237
 11
-35.7188
 21
-9.43236
  0
LINE
  8
0
 10
-35.7188
 20
-9.43236
 11
-35.7208
 21
-9.46294
  0
LINE
  8
0
 10
-35.7208
 20
-9.46294
 11
-35.7326
 21
-9.502
  0
LINE
  8
0
 10
-35.7326
 20
-9.502
 11
-35.7479
 21
-9.52853
  0
LINE
  8
0
 10
-35.7479
 20
-9.52853
 11
-35.7681
 21
-9.55157
  0
LINE
  8
0
 10
-35.7681
 20
-9.55157
 11
-35.7924
 21
-9.57024
  0
LINE
  8
0
 10
-35.7924
 20
-9.57024
 11
-35.8296
 21
-9.58708
  0
LINE
  8
0
 10
-35.8296
 20
-9.58708
 11
-35.8699
 21
-9.59373
  0
LINE
  8
0
 10
-35.8699
 20
-9.59373
 11
-37.1199
 21
-9.59373
  0
LINE
  8
0
 10
-45.6199
 20
-22.0312
 11
-45.6505
 21
-22.0292
  0
LINE
  8
0
 10
-45.6505
 20
-22.0292
 11
-45.6895
 21
-22.0174
  0
LINE
  8
0
 10
-45.6895
 20
-22.0174
 11
-45.716
 21
-22.0021
  0
LINE
  8
0
 10
-45.716
 20
-22.0021
 11
-45.7391
 21
-21.9818
  0
LINE
  8
0
 10
-45.7391
 20
-21.9818
 11
-45.7578
 21
-21.9575
  0
LINE
  8
0
 10
-45.7578
 20
-21.9575
 11
-45.7746
 21
-21.9204
  0
LINE
  8
0
 10
-45.7746
 20
-21.9204
 11
-45.7812
 21
-21.8801
  0
LINE
  8
0
 10
-45.7812
 20
-21.8801
 11
-45.7812
 21
-21.3801
  0
LINE
  8
0
 10
-45.7812
 20
-21.3801
 11
-45.7792
 21
-21.3495
  0
LINE
  8
0
 10
-45.7792
 20
-21.3495
 11
-45.7674
 21
-21.3105
  0
LINE
  8
0
 10
-45.7674
 20
-21.3105
 11
-45.7521
 21
-21.2839
  0
LINE
  8
0
 10
-45.7521
 20
-21.2839
 11
-45.7319
 21
-21.2609
  0
LINE
  8
0
 10
-45.7319
 20
-21.2609
 11
-45.7076
 21
-21.2422
  0
LINE
  8
0
 10
-45.7076
 20
-21.2422
 11
-45.6704
 21
-21.2254
  0
LINE
  8
0
 10
-45.6704
 20
-21.2254
 11
-45.6403
 21
-21.2194
  0
LINE
  8
0
 10
-45.6403
 20
-21.2194
 11
-42.3597
 21
-21.2194
  0
LINE
  8
0
 10
-42.3597
 20
-21.2194
 11
-42.3296
 21
-21.2254
  0
LINE
  8
0
 10
-42.3296
 20
-21.2254
 11
-42.2924
 21
-21.2422
  0
LINE
  8
0
 10
-42.2924
 20
-21.2422
 11
-42.2681
 21
-21.2609
  0
LINE
  8
0
 10
-42.2681
 20
-21.2609
 11
-42.2479
 21
-21.2839
  0
LINE
  8
0
 10
-42.2479
 20
-21.2839
 11
-42.2326
 21
-21.3105
  0
LINE
  8
0
 10
-42.2326
 20
-21.3105
 11
-42.2208
 21
-21.3495
  0
LINE
  8
0
 10
-42.2208
 20
-21.3495
 11
-42.2188
 21
-21.3801
  0
LINE
  8
0
 10
-42.2188
 20
-21.3801
 11
-42.2188
 21
-21.8801
  0
LINE
  8
0
 10
-42.2188
 20
-21.8801
 11
-42.2208
 21
-21.9004
  0
LINE
  8
0
 10
-42.2208
 20
-21.9004
 11
-42.2326
 21
-21.9395
  0
LINE
  8
0
 10
-42.2326
 20
-21.9395
 11
-42.2479
 21
-21.966
  0
LINE
  8
0
 10
-42.2479
 20
-21.966
 11
-42.2681
 21
-21.9891
  0
LINE
  8
0
 10
-42.2681
 20
-21.9891
 11
-42.2924
 21
-22.0077
  0
LINE
  8
0
 10
-42.2924
 20
-22.0077
 11
-42.3296
 21
-22.0246
  0
LINE
  8
0
 10
-42.3296
 20
-22.0246
 11
-42.3699
 21
-22.0312
  0
LINE
  8
0
 10
-42.3699
 20
-22.0312
 11
-45.6199
 21
-22.0312
  0
LINE
  8
0
 10
-38.6199
 20
-22.0312
 11
-38.6505
 21
-22.0292
  0
LINE
  8
0
 10
-38.6505
 20
-22.0292
 11
-38.6895
 21
-22.0174
  0
LINE
  8
0
 10
-38.6895
 20
-22.0174
 11
-38.716
 21
-22.0021
  0
LINE
  8
0
 10
-38.716
 20
-22.0021
 11
-38.7391
 21
-21.9818
  0
LINE
  8
0
 10
-38.7391
 20
-21.9818
 11
-38.7578
 21
-21.9575
  0
LINE
  8
0
 10
-38.7578
 20
-21.9575
 11
-38.7746
 21
-21.9204
  0
LINE
  8
0
 10
-38.7746
 20
-21.9204
 11
-38.7812
 21
-21.8801
  0
LINE
  8
0
 10
-38.7812
 20
-21.8801
 11
-38.7812
 21
-21.3801
  0
LINE
  8
0
 10
-38.7812
 20
-21.3801
 11
-38.7792
 21
-21.3495
  0
LINE
  8
0
 10
-38.7792
 20
-21.3495
 11
-38.7674
 21
-21.3105
  0
LINE
  8
0
 10
-38.7674
 20
-21.3105
 11
-38.7521
 21
-21.2839
  0
LINE
  8
0
 10
-38.7521
 20
-21.2839
 11
-38.7319
 21
-21.2609
  0
LINE
  8
0
 10
-38.7319
 20
-21.2609
 11
-38.7076
 21
-21.2422
  0
LINE
  8
0
 10
-38.7076
 20
-21.2422
 11
-38.6704
 21
-21.2254
  0
LINE
  8
0
 10
-38.6704
 20
-21.2254
 11
-38.6403
 21
-21.2194
  0
LINE
  8
0
 10
-38.6403
 20
-21.2194
 11
-35.3597
 21
-21.2194
  0
LINE
  8
0
 10
-35.3597
 20
-21.2194
 11
-35.3296
 21
-21.2254
  0
LINE
  8
0
 10
-35.3296
 20
-21.2254
 11
-35.2924
 21
-21.2422
  0
LINE
  8
0
 10
-35.2924
 20
-21.2422
 11
-35.2681
 21
-21.2609
  0
LINE
  8
0
 10
-35.2681
 20
-21.2609
 11
-35.2479
 21
-21.2839
  0
LINE
  8
0
 10
-35.2479
 20
-21.2839
 11
-35.2326
 21
-21.3105
  0
LINE
  8
0
 10
-35.2326
 20
-21.3105
 11
-35.2208
 21
-21.3495
  0
LINE
  8
0
 10
-35.2208
 20
-21.3495
 11
-35.2188
 21
-21.3801
  0
LINE
  8
0
 10
-35.2188
 20
-21.3801
 11
-35.2188
 21
-21.8801
  0
LINE
  8
0
 10
-35.2188
 20
-21.8801
 11
-35.2208
 21
-21.9004
  0
LINE
  8
0
 10
-35.2208
 20
-21.9004
 11
-35.2326
 21
-21.9395
  0
LINE
  8
0
 10
-35.2326
 20
-21.9395
 11
-35.2479
 21
-21.966
  0
LINE
  8
0
 10
-35.2479
 20
-21.966
 11
-35.2681
 21
-21.9891
  0
LINE
  8
0
 10
-35.2681
 20
-21.9891
 11
-35.2924
 21
-22.0077
  0
LINE
  8
0
 10
-35.2924
 20
-22.0077
 11
-35.3296
 21
-22.0246
  0
LINE
  8
0
 10
-35.3296
 20
-22.0246
 11
-35.3699
 21
-22.0312
  0
LINE
  8
0
 10
-35.3699
 20
-22.0312
 11
-38.6199
 21
-22.0312
  0
ENDSEC
  0
SECTION
  2
OBJECTS
  0
DICTIONARY
  0
ENDSEC
  0
EOF
