<?xml version="1.0" standalone="no"?>
<!DOCTYPE svg PUBLIC "-//W3C//DTD SVG 1.1//EN" "http://www.w3.org/Graphics/SVG/1.1/DTD/svg11.dtd">
<svg width="89" height="46" viewBox="-47 -23 89 46" xmlns="http://www.w3.org/2000/svg" version="1.1">
<title>OpenSCAD Model</title>
<path d="
M 1.70963,22.8396 L 1.9659,22.6534 L 2.15208,22.3971 L 2.24998,22.0959 L 2.25,-22.0959 L 2.1521,-22.3971
 L 1.96591,-22.6534 L 1.70964,-22.8396 L 1.40837,-22.9375 L -46.1584,-22.9375 L -46.4596,-22.8396 L -46.7159,-22.6534
 L -46.9021,-22.3971 L -47,-22.0959 L -47,-16.8416 L -46.9021,-16.5403 L -46.7159,-16.2841 L -46.4596,-16.0979
 L -46.1584,-16 L -39.1416,-16 L -38.8403,-15.9021 L -38.5841,-15.7159 L -38.3979,-15.4596 L -38.3,-15.1584
 L -38.3,3.15836 L -38.3979,3.45963 L -38.5841,3.7159 L -38.8404,3.90208 L -39.1416,3.99998 L -46.1584,3.99998
 L -46.4597,4.09787 L -46.7159,4.28406 L -46.9021,4.54033 L -47,4.8416 L -47,22.0959 L -46.9021,22.3971
 L -46.7159,22.6534 L -46.4596,22.8396 L -46.1584,22.9375 L 1.40836,22.9375 z
M -44.7812,-20.9688 L -44.7812,-21.7812 L -41.2187,-21.7812 L -41.2187,-20.9688 z
M -37.7812,-20.9688 L -37.7812,-21.7812 L -34.2187,-21.7812 L -34.2187,-20.9688 z
M -10.2812,-20.9687 L -10.2812,-21.7812 L -6.71875,-21.7812 L -6.71875,-20.9687 z
M -3.28125,-20.9687 L -3.28125,-21.7812 L 0.28125,-21.7812 L 0.28125,-20.9687 z
M -30.4084,3.99998 L -30.7096,3.90208 L -30.9659,3.7159 L -31.1521,3.45963 L -31.25,3.15836 L -31.25,-15.1584
 L -31.1521,-15.4596 L -30.9659,-15.7159 L -30.7096,-15.9021 L -30.4084,-16 L -27.0916,-16 L -26.7903,-15.9021
 L -26.5341,-15.7159 L -26.3479,-15.4596 L -26.25,-15.1584 L -26.25,3.15836 L -26.3479,3.45963 L -26.5341,3.7159
 L -26.7904,3.90208 L -27.0916,3.99998 z
M -20.4084,4 L -20.7097,3.9021 L -20.9659,3.71591 L -21.1521,3.45964 L -21.25,3.15837 L -21.25,-15.1584
 L -21.1521,-15.4596 L -20.9659,-15.7159 L -20.7096,-15.9021 L -20.4084,-16 L -17.0916,-16 L -16.7904,-15.9021
 L -16.5341,-15.7159 L -16.3479,-15.4596 L -16.25,-15.1584 L -16.25,3.15837 L -16.3479,3.45964 L -16.5341,3.71591
 L -16.7904,3.9021 L -17.0916,4 z
M -10.4084,4 L -10.7096,3.9021 L -10.9659,3.71591 L -11.1521,3.45964 L -11.25,3.15837 L -11.25,-15.1584
 L -11.1521,-15.4596 L -10.9659,-15.7159 L -10.7096,-15.9021 L -10.4084,-16 L -7.09163,-16 L -6.79036,-15.9021
 L -6.53409,-15.7159 L -6.3479,-15.4596 L -6.25,-15.1584 L -6.25,3.15837 L -6.3479,3.45964 L -6.53409,3.71591
 L -6.79036,3.9021 L -7.09163,4 z
M -36.2812,-6.46875 L -36.2812,-10.0312 L -34.7187,-10.0312 L -34.7187,-6.46875 z
M -1.78125,-6.46873 L -1.78125,-10.0312 L -0.21875,-10.0312 L -0.21875,-6.46873 z
M -36.2812,10.0312 L -36.2812,6.46873 L -34.7188,6.46873 L -34.7188,10.0312 z
M -1.78127,10.0312 L -1.78125,6.46875 L -0.21875,6.46875 L -0.218765,10.0312 z
M -44.7812,21.7812 L -44.7812,20.9687 L -41.2188,20.9687 L -41.2188,21.7812 z
M -37.7812,21.7812 L -37.7812,20.9687 L -34.2188,20.9687 L -34.2188,21.7812 z
M -3.28127,21.7812 L -3.28127,20.9688 L 0.281235,20.9688 L 0.281235,21.7812 z
M -10.2813,21.7812 L -10.2813,20.9688 L -6.71877,20.9688 L -6.71877,21.7812 z
M 32.1187,20.9844 L 40.9625,20.9844 L 40.9625,10.1052 L 40.9747,10.0675 L 40.998,10.0355 L 41.03,10.0122
 L 41.0677,10 L 41.5844,10 L 41.6974,9.96329 L 41.7935,9.89346 L 41.8633,9.79736 L 41.9,9.68439
 L 41.9,6.81561 L 41.8633,6.70264 L 41.7935,6.60654 L 41.6974,6.53671 L 41.5844,6.5 L 41.0677,6.5
 L 41.03,6.48778 L 40.998,6.46449 L 40.9747,6.43246 L 40.9625,6.39481 L 40.9625,-6.39481 L 40.9747,-6.43246
 L 40.998,-6.46449 L 41.03,-6.48778 L 41.0677,-6.5 L 41.5844,-6.5 L 41.6974,-6.53671 L 41.7935,-6.60654
 L 41.8633,-6.70264 L 41.9,-6.81561 L 41.9,-9.68439 L 41.8633,-9.79736 L 41.7935,-9.89346 L 41.6974,-9.96329
 L 41.5844,-10 L 41.0677,-10 L 41.03,-10.0122 L 40.998,-10.0355 L 40.9747,-10.0675 L 40.9625,-10.1052
 L 40.9625,-20.9844 L 32.1187,-20.9844 L 32.1187,-22.7656 L 28.6187,-22.7656 L 28.6187,-21.7656 L 29.6187,-21.7656
 L 29.6187,-20.9844 L 12.8687,-20.9844 L 12.8687,-22.7656 L 9.36874,-22.7656 L 9.36874,-21.7656 L 10.3687,-21.7656
 L 10.3687,-20.9844 L 2.52499,-20.9844 L 2.52499,20.9844 L 10.3687,20.9844 L 10.3687,21.7656 L 9.36874,21.7656
 L 9.36874,22.7656 L 12.8687,22.7656 L 12.8687,20.9844 L 29.6187,20.9844 L 29.6187,21.7656 L 28.6187,21.7656
 L 28.6187,22.7656 L 32.1187,22.7656 z
" stroke="black" fill="lightgray" stroke-width="0.5"/></svg>
