<?xml version="1.0" standalone="no"?>
<!DOCTYPE svg PUBLIC "-//W3C//DTD SVG 1.1//EN" "http://www.w3.org/Graphics/SVG/1.1/DTD/svg11.dtd">
<svg width="82" height="44" viewBox="-47 -22 82 44" xmlns="http://www.w3.org/2000/svg" version="1.1">
<title>OpenSCAD Model</title>
<path d="
M -45.5312,-9.5 L -44.75,-9.5 L -44.75,-8.5 L 32.25,-8.5 L 32.25,-9.5 L 33.0312,-9.5
 L 33.0313,-8.5 L 34.0312,-8.5 L 34.0312,-12 L 32.25,-12 L 32.25,-16.5 L 33.0312,-16.5
 L 33.0313,-15.5 L 34.0312,-15.5 L 34.0312,-19 L 32.25,-19 L 32.25,-21.25 L -44.75,-21.25
 L -44.75,-19 L -46.5312,-19 L -46.5312,-15.5 L -45.5313,-15.5 L -45.5312,-16.5 L -44.75,-16.5
 L -44.75,-12 L -46.5312,-12 L -46.5312,-8.5 L -45.5313,-8.5 z
M 20.8438,-9.96875 L 20.8438,-10.7812 L 24.4062,-10.7812 L 24.4062,-9.96875 z
M -36.9062,-9.96875 L -36.9062,-10.7812 L -33.3438,-10.7812 L -33.3438,-9.96875 z
M -17.6562,-9.96875 L -17.6562,-10.7812 L -14.0938,-10.7812 L -14.0938,-9.96875 z
M 1.59375,-9.96875 L 1.59375,-10.7812 L 5.15625,-10.7812 L 5.15625,-9.96875 z
M -45.5312,3.75 L -44.75,3.75 L -44.75,4.75 L 32.25,4.75 L 32.25,3.75 L 33.0312,3.75
 L 33.0313,4.75 L 34.0312,4.75 L 34.0312,1.25 L 32.25,1.25 L 32.25,-3.25 L 33.0312,-3.25
 L 33.0313,-2.25 L 34.0312,-2.25 L 34.0312,-5.75 L 32.25,-5.75 L 32.25,-8 L -44.75,-8
 L -44.75,-5.75 L -46.5312,-5.75 L -46.5312,-2.25 L -45.5313,-2.25 L -45.5312,-3.25 L -44.75,-3.25
 L -44.75,1.25 L -46.5312,1.25 L -46.5312,4.75 L -45.5313,4.75 z
M -36.9062,3.28125 L -36.9062,2.46875 L -33.3438,2.46875 L -33.3438,3.28125 z
M -17.6562,3.28125 L -17.6562,2.46875 L -14.0938,2.46875 L -14.0938,3.28125 z
M 1.59375,3.28125 L 1.59375,2.46875 L 5.15625,2.46875 L 5.15625,3.28125 z
M 20.8438,3.28125 L 20.8438,2.46875 L 24.4062,2.46875 L 24.4062,3.28125 z
M -45.5312,17 L -44.75,17 L -44.75,18 L 32.25,18 L 32.25,17 L 33.0312,17
 L 33.0313,18 L 34.0312,18 L 34.0312,14.5 L 32.25,14.5 L 32.25,10 L 33.0312,10
 L 33.0313,11 L 34.0312,11 L 34.0312,7.5 L 32.25,7.5 L 32.25,5.25 L -44.75,5.25
 L -44.75,7.5 L -46.5312,7.5 L -46.5312,11 L -45.5313,11 L -45.5312,10 L -44.75,10
 L -44.75,14.5 L -46.5312,14.5 L -46.5312,18 L -45.5313,18 z
M 20.8438,16.5312 L 20.8438,15.7188 L 24.4062,15.7188 L 24.4062,16.5312 z
M -36.9062,16.5312 L -36.9062,15.7188 L -33.3438,15.7188 L -33.3438,16.5312 z
M -17.6562,16.5312 L -17.6562,15.7188 L -14.0938,15.7188 L -14.0938,16.5312 z
M 1.59375,16.5312 L 1.59375,15.7188 L 5.15625,15.7188 L 5.15625,16.5312 z
M 32.25,18.5 L -44.75,18.5 L -44.75,20 L 32.25,20 z
M 32.25,20.5 L -44.75,20.5 L -44.75,22 L 32.25,22 z
" stroke="black" fill="lightgray" stroke-width="0.5"/></svg>
