  0
SECTION
  2
BLOCKS
  0
ENDSEC
  0
SECTION
  2
ENTITIES
  0
LINE
  8
0
 10
-1163.36
 20
207.618
 11
-1160.1
 21
209.983
  0
LINE
  8
0
 10
-1160.1
 20
209.983
 11
-1157.74
 21
213.237
  0
LINE
  8
0
 10
-1157.74
 20
213.237
 11
-1156.49
 21
217.064
  0
LINE
  8
0
 10
-1156.49
 20
217.064
 11
-1156.49
 21
229.103
  0
LINE
  8
0
 10
-1156.49
 20
229.103
 11
-1156.18
 21
230.059
  0
LINE
  8
0
 10
-1156.18
 20
230.059
 11
-1155.59
 21
230.873
  0
LINE
  8
0
 10
-1155.59
 20
230.873
 11
-1154.78
 21
231.464
  0
LINE
  8
0
 10
-1154.78
 20
231.464
 11
-1153.82
 21
231.775
  0
LINE
  8
0
 10
-1153.82
 20
231.775
 11
-1139.32
 21
231.775
  0
LINE
  8
0
 10
-1139.32
 20
231.775
 11
-1138.37
 21
231.464
  0
LINE
  8
0
 10
-1138.37
 20
231.464
 11
-1137.55
 21
230.873
  0
LINE
  8
0
 10
-1137.55
 20
230.873
 11
-1136.96
 21
230.059
  0
LINE
  8
0
 10
-1136.96
 20
230.059
 11
-1136.65
 21
229.103
  0
LINE
  8
0
 10
-1136.65
 20
229.103
 11
-1136.65
 21
206.375
  0
LINE
  8
0
 10
-1136.65
 20
206.375
 11
819.15
 21
206.375
  0
LINE
  8
0
 10
819.15
 20
206.375
 11
819.15
 21
229.103
  0
LINE
  8
0
 10
819.15
 20
229.103
 11
819.461
 21
230.059
  0
LINE
  8
0
 10
819.461
 20
230.059
 11
820.052
 21
230.873
  0
LINE
  8
0
 10
820.052
 20
230.873
 11
820.866
 21
231.464
  0
LINE
  8
0
 10
820.866
 20
231.464
 11
821.822
 21
231.775
  0
LINE
  8
0
 10
821.822
 20
231.775
 11
836.322
 21
231.775
  0
LINE
  8
0
 10
836.322
 20
231.775
 11
837.278
 21
231.464
  0
LINE
  8
0
 10
837.278
 20
231.464
 11
838.092
 21
230.873
  0
LINE
  8
0
 10
838.092
 20
230.873
 11
838.683
 21
230.059
  0
LINE
  8
0
 10
838.683
 20
230.059
 11
838.994
 21
229.103
  0
LINE
  8
0
 10
838.994
 20
229.103
 11
838.994
 21
217.064
  0
LINE
  8
0
 10
838.994
 20
217.064
 11
840.237
 21
213.237
  0
LINE
  8
0
 10
840.237
 20
213.237
 11
842.602
 21
209.983
  0
LINE
  8
0
 10
842.602
 20
209.983
 11
845.856
 21
207.618
  0
LINE
  8
0
 10
845.856
 20
207.618
 11
849.682
 21
206.375
  0
LINE
  8
0
 10
849.682
 20
206.375
 11
853.705
 21
206.375
  0
LINE
  8
0
 10
853.705
 20
206.375
 11
857.531
 21
207.618
  0
LINE
  8
0
 10
857.531
 20
207.618
 11
860.786
 21
209.983
  0
LINE
  8
0
 10
860.786
 20
209.983
 11
863.151
 21
213.237
  0
LINE
  8
0
 10
863.151
 20
213.237
 11
864.394
 21
217.064
  0
LINE
  8
0
 10
864.394
 20
217.064
 11
864.394
 21
284.586
  0
LINE
  8
0
 10
864.394
 20
284.586
 11
863.151
 21
288.413
  0
LINE
  8
0
 10
863.151
 20
288.413
 11
860.786
 21
291.667
  0
LINE
  8
0
 10
860.786
 20
291.667
 11
857.531
 21
294.032
  0
LINE
  8
0
 10
857.531
 20
294.032
 11
853.705
 21
295.275
  0
LINE
  8
0
 10
853.705
 20
295.275
 11
821.822
 21
295.275
  0
LINE
  8
0
 10
821.822
 20
295.275
 11
820.866
 21
295.586
  0
LINE
  8
0
 10
820.866
 20
295.586
 11
820.052
 21
296.177
  0
LINE
  8
0
 10
820.052
 20
296.177
 11
819.461
 21
296.991
  0
LINE
  8
0
 10
819.461
 20
296.991
 11
819.15
 21
297.947
  0
LINE
  8
0
 10
819.15
 20
297.947
 11
819.15
 21
406.903
  0
LINE
  8
0
 10
819.15
 20
406.903
 11
819.461
 21
407.859
  0
LINE
  8
0
 10
819.461
 20
407.859
 11
820.052
 21
408.673
  0
LINE
  8
0
 10
820.052
 20
408.673
 11
820.866
 21
409.264
  0
LINE
  8
0
 10
820.866
 20
409.264
 11
821.822
 21
409.575
  0
LINE
  8
0
 10
821.822
 20
409.575
 11
836.322
 21
409.575
  0
LINE
  8
0
 10
836.322
 20
409.575
 11
837.278
 21
409.264
  0
LINE
  8
0
 10
837.278
 20
409.264
 11
838.092
 21
408.673
  0
LINE
  8
0
 10
838.092
 20
408.673
 11
838.683
 21
407.859
  0
LINE
  8
0
 10
838.683
 20
407.859
 11
838.994
 21
406.903
  0
LINE
  8
0
 10
838.994
 20
406.903
 11
838.994
 21
394.864
  0
LINE
  8
0
 10
838.994
 20
394.864
 11
840.237
 21
391.037
  0
LINE
  8
0
 10
840.237
 20
391.037
 11
842.602
 21
387.783
  0
LINE
  8
0
 10
842.602
 20
387.783
 11
845.856
 21
385.418
  0
LINE
  8
0
 10
845.856
 20
385.418
 11
849.682
 21
384.175
  0
LINE
  8
0
 10
849.682
 20
384.175
 11
853.705
 21
384.175
  0
LINE
  8
0
 10
853.705
 20
384.175
 11
857.531
 21
385.418
  0
LINE
  8
0
 10
857.531
 20
385.418
 11
860.786
 21
387.783
  0
LINE
  8
0
 10
860.786
 20
387.783
 11
863.151
 21
391.037
  0
LINE
  8
0
 10
863.151
 20
391.037
 11
864.394
 21
394.864
  0
LINE
  8
0
 10
864.394
 20
394.864
 11
864.394
 21
462.386
  0
LINE
  8
0
 10
864.394
 20
462.386
 11
863.151
 21
466.213
  0
LINE
  8
0
 10
863.151
 20
466.213
 11
860.786
 21
469.467
  0
LINE
  8
0
 10
860.786
 20
469.467
 11
857.531
 21
471.832
  0
LINE
  8
0
 10
857.531
 20
471.832
 11
853.705
 21
473.075
  0
LINE
  8
0
 10
853.705
 20
473.075
 11
821.822
 21
473.075
  0
LINE
  8
0
 10
821.822
 20
473.075
 11
820.866
 21
473.386
  0
LINE
  8
0
 10
820.866
 20
473.386
 11
820.052
 21
473.977
  0
LINE
  8
0
 10
820.052
 20
473.977
 11
819.461
 21
474.791
  0
LINE
  8
0
 10
819.461
 20
474.791
 11
819.15
 21
475.747
  0
LINE
  8
0
 10
819.15
 20
475.747
 11
819.15
 21
530.225
  0
LINE
  8
0
 10
819.15
 20
530.225
 11
-1136.65
 21
530.225
  0
LINE
  8
0
 10
-1136.65
 20
530.225
 11
-1136.65
 21
475.747
  0
LINE
  8
0
 10
-1136.65
 20
475.747
 11
-1136.96
 21
474.791
  0
LINE
  8
0
 10
-1136.96
 20
474.791
 11
-1137.55
 21
473.977
  0
LINE
  8
0
 10
-1137.55
 20
473.977
 11
-1138.37
 21
473.386
  0
LINE
  8
0
 10
-1138.37
 20
473.386
 11
-1139.32
 21
473.075
  0
LINE
  8
0
 10
-1139.32
 20
473.075
 11
-1171.21
 21
473.075
  0
LINE
  8
0
 10
-1171.21
 20
473.075
 11
-1175.03
 21
471.832
  0
LINE
  8
0
 10
-1175.03
 20
471.832
 11
-1178.29
 21
469.467
  0
LINE
  8
0
 10
-1178.29
 20
469.467
 11
-1180.65
 21
466.213
  0
LINE
  8
0
 10
-1180.65
 20
466.213
 11
-1181.89
 21
462.386
  0
LINE
  8
0
 10
-1181.89
 20
462.386
 11
-1181.89
 21
394.864
  0
LINE
  8
0
 10
-1181.89
 20
394.864
 11
-1180.65
 21
391.037
  0
LINE
  8
0
 10
-1180.65
 20
391.037
 11
-1178.29
 21
387.783
  0
LINE
  8
0
 10
-1178.29
 20
387.783
 11
-1175.03
 21
385.418
  0
LINE
  8
0
 10
-1175.03
 20
385.418
 11
-1171.21
 21
384.175
  0
LINE
  8
0
 10
-1171.21
 20
384.175
 11
-1167.18
 21
384.175
  0
LINE
  8
0
 10
-1167.18
 20
384.175
 11
-1163.36
 21
385.418
  0
LINE
  8
0
 10
-1163.36
 20
385.418
 11
-1160.1
 21
387.783
  0
LINE
  8
0
 10
-1160.1
 20
387.783
 11
-1157.74
 21
391.037
  0
LINE
  8
0
 10
-1157.74
 20
391.037
 11
-1156.49
 21
394.864
  0
LINE
  8
0
 10
-1156.49
 20
394.864
 11
-1156.49
 21
406.903
  0
LINE
  8
0
 10
-1156.49
 20
406.903
 11
-1156.18
 21
407.859
  0
LINE
  8
0
 10
-1156.18
 20
407.859
 11
-1155.59
 21
408.673
  0
LINE
  8
0
 10
-1155.59
 20
408.673
 11
-1154.78
 21
409.264
  0
LINE
  8
0
 10
-1154.78
 20
409.264
 11
-1153.82
 21
409.575
  0
LINE
  8
0
 10
-1153.82
 20
409.575
 11
-1139.32
 21
409.575
  0
LINE
  8
0
 10
-1139.32
 20
409.575
 11
-1138.37
 21
409.264
  0
LINE
  8
0
 10
-1138.37
 20
409.264
 11
-1137.55
 21
408.673
  0
LINE
  8
0
 10
-1137.55
 20
408.673
 11
-1136.96
 21
407.859
  0
LINE
  8
0
 10
-1136.96
 20
407.859
 11
-1136.65
 21
406.903
  0
LINE
  8
0
 10
-1136.65
 20
406.903
 11
-1136.65
 21
297.947
  0
LINE
  8
0
 10
-1136.65
 20
297.947
 11
-1136.96
 21
296.991
  0
LINE
  8
0
 10
-1136.96
 20
296.991
 11
-1137.55
 21
296.177
  0
LINE
  8
0
 10
-1137.55
 20
296.177
 11
-1138.37
 21
295.586
  0
LINE
  8
0
 10
-1138.37
 20
295.586
 11
-1139.32
 21
295.275
  0
LINE
  8
0
 10
-1139.32
 20
295.275
 11
-1171.21
 21
295.275
  0
LINE
  8
0
 10
-1171.21
 20
295.275
 11
-1175.03
 21
294.032
  0
LINE
  8
0
 10
-1175.03
 20
294.032
 11
-1178.29
 21
291.667
  0
LINE
  8
0
 10
-1178.29
 20
291.667
 11
-1180.65
 21
288.413
  0
LINE
  8
0
 10
-1180.65
 20
288.413
 11
-1181.89
 21
284.586
  0
LINE
  8
0
 10
-1181.89
 20
284.586
 11
-1181.89
 21
217.064
  0
LINE
  8
0
 10
-1181.89
 20
217.064
 11
-1180.65
 21
213.237
  0
LINE
  8
0
 10
-1180.65
 20
213.237
 11
-1178.29
 21
209.983
  0
LINE
  8
0
 10
-1178.29
 20
209.983
 11
-1175.03
 21
207.618
  0
LINE
  8
0
 10
-1175.03
 20
207.618
 11
-1171.21
 21
206.375
  0
LINE
  8
0
 10
-1171.21
 20
206.375
 11
-1167.18
 21
206.375
  0
LINE
  8
0
 10
-1167.18
 20
206.375
 11
-1163.36
 21
207.618
  0
LINE
  8
0
 10
529.431
 20
243.681
 11
529.431
 21
264.319
  0
LINE
  8
0
 10
529.431
 20
264.319
 11
619.919
 21
264.319
  0
LINE
  8
0
 10
619.919
 20
264.319
 11
619.919
 21
243.681
  0
LINE
  8
0
 10
619.919
 20
243.681
 11
529.431
 21
243.681
  0
LINE
  8
0
 10
-937.419
 20
243.681
 11
-937.419
 21
264.319
  0
LINE
  8
0
 10
-937.419
 20
264.319
 11
-846.931
 21
264.319
  0
LINE
  8
0
 10
-846.931
 20
264.319
 11
-846.931
 21
243.681
  0
LINE
  8
0
 10
-846.931
 20
243.681
 11
-937.419
 21
243.681
  0
LINE
  8
0
 10
-448.469
 20
243.681
 11
-448.469
 21
264.319
  0
LINE
  8
0
 10
-448.469
 20
264.319
 11
-357.981
 21
264.319
  0
LINE
  8
0
 10
-357.981
 20
264.319
 11
-357.981
 21
243.681
  0
LINE
  8
0
 10
-357.981
 20
243.681
 11
-448.469
 21
243.681
  0
LINE
  8
0
 10
40.4812
 20
243.681
 11
40.4812
 21
264.319
  0
LINE
  8
0
 10
40.4812
 20
264.319
 11
130.969
 21
264.319
  0
LINE
  8
0
 10
130.969
 20
264.319
 11
130.969
 21
243.681
  0
LINE
  8
0
 10
130.969
 20
243.681
 11
40.4812
 21
243.681
  0
LINE
  8
0
 10
-1163.36
 20
-122.582
 11
-1160.1
 21
-120.217
  0
LINE
  8
0
 10
-1160.1
 20
-120.217
 11
-1157.74
 21
-116.963
  0
LINE
  8
0
 10
-1157.74
 20
-116.963
 11
-1156.49
 21
-113.136
  0
LINE
  8
0
 10
-1156.49
 20
-113.136
 11
-1156.49
 21
-101.097
  0
LINE
  8
0
 10
-1156.49
 20
-101.097
 11
-1156.18
 21
-100.141
  0
LINE
  8
0
 10
-1156.18
 20
-100.141
 11
-1155.59
 21
-99.327
  0
LINE
  8
0
 10
-1155.59
 20
-99.327
 11
-1154.78
 21
-98.7358
  0
LINE
  8
0
 10
-1154.78
 20
-98.7358
 11
-1153.82
 21
-98.425
  0
LINE
  8
0
 10
-1153.82
 20
-98.425
 11
-1139.32
 21
-98.425
  0
LINE
  8
0
 10
-1139.32
 20
-98.425
 11
-1138.37
 21
-98.7358
  0
LINE
  8
0
 10
-1138.37
 20
-98.7358
 11
-1137.55
 21
-99.327
  0
LINE
  8
0
 10
-1137.55
 20
-99.327
 11
-1136.96
 21
-100.141
  0
LINE
  8
0
 10
-1136.96
 20
-100.141
 11
-1136.65
 21
-101.097
  0
LINE
  8
0
 10
-1136.65
 20
-101.097
 11
-1136.65
 21
-123.825
  0
LINE
  8
0
 10
-1136.65
 20
-123.825
 11
819.15
 21
-123.825
  0
LINE
  8
0
 10
819.15
 20
-123.825
 11
819.15
 21
-101.097
  0
LINE
  8
0
 10
819.15
 20
-101.097
 11
819.461
 21
-100.141
  0
LINE
  8
0
 10
819.461
 20
-100.141
 11
820.052
 21
-99.327
  0
LINE
  8
0
 10
820.052
 20
-99.327
 11
820.866
 21
-98.7358
  0
LINE
  8
0
 10
820.866
 20
-98.7358
 11
821.822
 21
-98.425
  0
LINE
  8
0
 10
821.822
 20
-98.425
 11
836.322
 21
-98.425
  0
LINE
  8
0
 10
836.322
 20
-98.425
 11
837.278
 21
-98.7358
  0
LINE
  8
0
 10
837.278
 20
-98.7358
 11
838.092
 21
-99.327
  0
LINE
  8
0
 10
838.092
 20
-99.327
 11
838.683
 21
-100.141
  0
LINE
  8
0
 10
838.683
 20
-100.141
 11
838.994
 21
-101.097
  0
LINE
  8
0
 10
838.994
 20
-101.097
 11
838.994
 21
-113.136
  0
LINE
  8
0
 10
838.994
 20
-113.136
 11
840.237
 21
-116.963
  0
LINE
  8
0
 10
840.237
 20
-116.963
 11
842.602
 21
-120.217
  0
LINE
  8
0
 10
842.602
 20
-120.217
 11
845.856
 21
-122.582
  0
LINE
  8
0
 10
845.856
 20
-122.582
 11
849.682
 21
-123.825
  0
LINE
  8
0
 10
849.682
 20
-123.825
 11
853.705
 21
-123.825
  0
LINE
  8
0
 10
853.705
 20
-123.825
 11
857.531
 21
-122.582
  0
LINE
  8
0
 10
857.531
 20
-122.582
 11
860.786
 21
-120.217
  0
LINE
  8
0
 10
860.786
 20
-120.217
 11
863.151
 21
-116.963
  0
LINE
  8
0
 10
863.151
 20
-116.963
 11
864.394
 21
-113.136
  0
LINE
  8
0
 10
864.394
 20
-113.136
 11
864.394
 21
-45.6135
  0
LINE
  8
0
 10
864.394
 20
-45.6135
 11
863.151
 21
-41.7875
  0
LINE
  8
0
 10
863.151
 20
-41.7875
 11
860.786
 21
-38.5328
  0
LINE
  8
0
 10
860.786
 20
-38.5328
 11
857.531
 21
-36.1682
  0
LINE
  8
0
 10
857.531
 20
-36.1682
 11
853.705
 21
-34.925
  0
LINE
  8
0
 10
853.705
 20
-34.925
 11
821.822
 21
-34.925
  0
LINE
  8
0
 10
821.822
 20
-34.925
 11
820.866
 21
-34.6142
  0
LINE
  8
0
 10
820.866
 20
-34.6142
 11
820.052
 21
-34.0231
  0
LINE
  8
0
 10
820.052
 20
-34.0231
 11
819.461
 21
-33.2094
  0
LINE
  8
0
 10
819.461
 20
-33.2094
 11
819.15
 21
-32.2529
  0
LINE
  8
0
 10
819.15
 20
-32.2529
 11
819.15
 21
76.7029
  0
LINE
  8
0
 10
819.15
 20
76.7029
 11
819.461
 21
77.6594
  0
LINE
  8
0
 10
819.461
 20
77.6594
 11
820.052
 21
78.473
  0
LINE
  8
0
 10
820.052
 20
78.473
 11
820.866
 21
79.0642
  0
LINE
  8
0
 10
820.866
 20
79.0642
 11
821.822
 21
79.375
  0
LINE
  8
0
 10
821.822
 20
79.375
 11
836.322
 21
79.375
  0
LINE
  8
0
 10
836.322
 20
79.375
 11
837.278
 21
79.0642
  0
LINE
  8
0
 10
837.278
 20
79.0642
 11
838.092
 21
78.473
  0
LINE
  8
0
 10
838.092
 20
78.473
 11
838.683
 21
77.6594
  0
LINE
  8
0
 10
838.683
 20
77.6594
 11
838.994
 21
76.7029
  0
LINE
  8
0
 10
838.994
 20
76.7029
 11
838.994
 21
64.6635
  0
LINE
  8
0
 10
838.994
 20
64.6635
 11
840.237
 21
60.8374
  0
LINE
  8
0
 10
840.237
 20
60.8374
 11
842.602
 21
57.5828
  0
LINE
  8
0
 10
842.602
 20
57.5828
 11
845.856
 21
55.2182
  0
LINE
  8
0
 10
845.856
 20
55.2182
 11
849.682
 21
53.975
  0
LINE
  8
0
 10
849.682
 20
53.975
 11
853.705
 21
53.975
  0
LINE
  8
0
 10
853.705
 20
53.975
 11
857.531
 21
55.2182
  0
LINE
  8
0
 10
857.531
 20
55.2182
 11
860.786
 21
57.5828
  0
LINE
  8
0
 10
860.786
 20
57.5828
 11
863.151
 21
60.8374
  0
LINE
  8
0
 10
863.151
 20
60.8374
 11
864.394
 21
64.6635
  0
LINE
  8
0
 10
864.394
 20
64.6635
 11
864.394
 21
132.186
  0
LINE
  8
0
 10
864.394
 20
132.186
 11
863.151
 21
136.013
  0
LINE
  8
0
 10
863.151
 20
136.013
 11
860.786
 21
139.267
  0
LINE
  8
0
 10
860.786
 20
139.267
 11
857.531
 21
141.632
  0
LINE
  8
0
 10
857.531
 20
141.632
 11
853.705
 21
142.875
  0
LINE
  8
0
 10
853.705
 20
142.875
 11
821.822
 21
142.875
  0
LINE
  8
0
 10
821.822
 20
142.875
 11
820.866
 21
143.186
  0
LINE
  8
0
 10
820.866
 20
143.186
 11
820.052
 21
143.777
  0
LINE
  8
0
 10
820.052
 20
143.777
 11
819.461
 21
144.591
  0
LINE
  8
0
 10
819.461
 20
144.591
 11
819.15
 21
145.547
  0
LINE
  8
0
 10
819.15
 20
145.547
 11
819.15
 21
200.025
  0
LINE
  8
0
 10
819.15
 20
200.025
 11
-1136.65
 21
200.025
  0
LINE
  8
0
 10
-1136.65
 20
200.025
 11
-1136.65
 21
145.547
  0
LINE
  8
0
 10
-1136.65
 20
145.547
 11
-1136.96
 21
144.591
  0
LINE
  8
0
 10
-1136.96
 20
144.591
 11
-1137.55
 21
143.777
  0
LINE
  8
0
 10
-1137.55
 20
143.777
 11
-1138.37
 21
143.186
  0
LINE
  8
0
 10
-1138.37
 20
143.186
 11
-1139.32
 21
142.875
  0
LINE
  8
0
 10
-1139.32
 20
142.875
 11
-1171.21
 21
142.875
  0
LINE
  8
0
 10
-1171.21
 20
142.875
 11
-1175.03
 21
141.632
  0
LINE
  8
0
 10
-1175.03
 20
141.632
 11
-1178.29
 21
139.267
  0
LINE
  8
0
 10
-1178.29
 20
139.267
 11
-1180.65
 21
136.013
  0
LINE
  8
0
 10
-1180.65
 20
136.013
 11
-1181.89
 21
132.186
  0
LINE
  8
0
 10
-1181.89
 20
132.186
 11
-1181.89
 21
64.6635
  0
LINE
  8
0
 10
-1181.89
 20
64.6635
 11
-1180.65
 21
60.8374
  0
LINE
  8
0
 10
-1180.65
 20
60.8374
 11
-1178.29
 21
57.5828
  0
LINE
  8
0
 10
-1178.29
 20
57.5828
 11
-1175.03
 21
55.2182
  0
LINE
  8
0
 10
-1175.03
 20
55.2182
 11
-1171.21
 21
53.975
  0
LINE
  8
0
 10
-1171.21
 20
53.975
 11
-1167.18
 21
53.975
  0
LINE
  8
0
 10
-1167.18
 20
53.975
 11
-1163.36
 21
55.2182
  0
LINE
  8
0
 10
-1163.36
 20
55.2182
 11
-1160.1
 21
57.5828
  0
LINE
  8
0
 10
-1160.1
 20
57.5828
 11
-1157.74
 21
60.8374
  0
LINE
  8
0
 10
-1157.74
 20
60.8374
 11
-1156.49
 21
64.6635
  0
LINE
  8
0
 10
-1156.49
 20
64.6635
 11
-1156.49
 21
76.7029
  0
LINE
  8
0
 10
-1156.49
 20
76.7029
 11
-1156.18
 21
77.6594
  0
LINE
  8
0
 10
-1156.18
 20
77.6594
 11
-1155.59
 21
78.473
  0
LINE
  8
0
 10
-1155.59
 20
78.473
 11
-1154.78
 21
79.0642
  0
LINE
  8
0
 10
-1154.78
 20
79.0642
 11
-1153.82
 21
79.375
  0
LINE
  8
0
 10
-1153.82
 20
79.375
 11
-1139.32
 21
79.375
  0
LINE
  8
0
 10
-1139.32
 20
79.375
 11
-1138.37
 21
79.0642
  0
LINE
  8
0
 10
-1138.37
 20
79.0642
 11
-1137.55
 21
78.473
  0
LINE
  8
0
 10
-1137.55
 20
78.473
 11
-1136.96
 21
77.6594
  0
LINE
  8
0
 10
-1136.96
 20
77.6594
 11
-1136.65
 21
76.7029
  0
LINE
  8
0
 10
-1136.65
 20
76.7029
 11
-1136.65
 21
-32.2529
  0
LINE
  8
0
 10
-1136.65
 20
-32.2529
 11
-1136.96
 21
-33.2094
  0
LINE
  8
0
 10
-1136.96
 20
-33.2094
 11
-1137.55
 21
-34.0231
  0
LINE
  8
0
 10
-1137.55
 20
-34.0231
 11
-1138.37
 21
-34.6142
  0
LINE
  8
0
 10
-1138.37
 20
-34.6142
 11
-1139.32
 21
-34.925
  0
LINE
  8
0
 10
-1139.32
 20
-34.925
 11
-1171.21
 21
-34.925
  0
LINE
  8
0
 10
-1171.21
 20
-34.925
 11
-1175.03
 21
-36.1682
  0
LINE
  8
0
 10
-1175.03
 20
-36.1682
 11
-1178.29
 21
-38.5328
  0
LINE
  8
0
 10
-1178.29
 20
-38.5328
 11
-1180.65
 21
-41.7875
  0
LINE
  8
0
 10
-1180.65
 20
-41.7875
 11
-1181.89
 21
-45.6135
  0
LINE
  8
0
 10
-1181.89
 20
-45.6135
 11
-1181.89
 21
-113.136
  0
LINE
  8
0
 10
-1181.89
 20
-113.136
 11
-1180.65
 21
-116.963
  0
LINE
  8
0
 10
-1180.65
 20
-116.963
 11
-1178.29
 21
-120.217
  0
LINE
  8
0
 10
-1178.29
 20
-120.217
 11
-1175.03
 21
-122.582
  0
LINE
  8
0
 10
-1175.03
 20
-122.582
 11
-1171.21
 21
-123.825
  0
LINE
  8
0
 10
-1171.21
 20
-123.825
 11
-1167.18
 21
-123.825
  0
LINE
  8
0
 10
-1167.18
 20
-123.825
 11
-1163.36
 21
-122.582
  0
LINE
  8
0
 10
-937.419
 20
-86.5188
 11
-937.419
 21
-65.8813
  0
LINE
  8
0
 10
-937.419
 20
-65.8813
 11
-846.931
 21
-65.8813
  0
LINE
  8
0
 10
-846.931
 20
-65.8813
 11
-846.931
 21
-86.5188
  0
LINE
  8
0
 10
-846.931
 20
-86.5188
 11
-937.419
 21
-86.5188
  0
LINE
  8
0
 10
-448.469
 20
-86.5188
 11
-448.469
 21
-65.8813
  0
LINE
  8
0
 10
-448.469
 20
-65.8813
 11
-357.981
 21
-65.8813
  0
LINE
  8
0
 10
-357.981
 20
-65.8813
 11
-357.981
 21
-86.5188
  0
LINE
  8
0
 10
-357.981
 20
-86.5188
 11
-448.469
 21
-86.5188
  0
LINE
  8
0
 10
40.4812
 20
-86.5188
 11
40.4812
 21
-65.8813
  0
LINE
  8
0
 10
40.4812
 20
-65.8813
 11
130.969
 21
-65.8813
  0
LINE
  8
0
 10
130.969
 20
-65.8813
 11
130.969
 21
-86.5188
  0
LINE
  8
0
 10
130.969
 20
-86.5188
 11
40.4812
 21
-86.5188
  0
LINE
  8
0
 10
529.431
 20
-86.5188
 11
529.431
 21
-65.8813
  0
LINE
  8
0
 10
529.431
 20
-65.8813
 11
619.919
 21
-65.8813
  0
LINE
  8
0
 10
619.919
 20
-65.8813
 11
619.919
 21
-86.5188
  0
LINE
  8
0
 10
619.919
 20
-86.5188
 11
529.431
 21
-86.5188
  0
LINE
  8
0
 10
-1163.36
 20
-452.782
 11
-1160.1
 21
-450.417
  0
LINE
  8
0
 10
-1160.1
 20
-450.417
 11
-1157.74
 21
-447.163
  0
LINE
  8
0
 10
-1157.74
 20
-447.163
 11
-1156.49
 21
-443.336
  0
LINE
  8
0
 10
-1156.49
 20
-443.336
 11
-1156.49
 21
-431.297
  0
LINE
  8
0
 10
-1156.49
 20
-431.297
 11
-1156.18
 21
-430.341
  0
LINE
  8
0
 10
-1156.18
 20
-430.341
 11
-1155.59
 21
-429.527
  0
LINE
  8
0
 10
-1155.59
 20
-429.527
 11
-1154.78
 21
-428.936
  0
LINE
  8
0
 10
-1154.78
 20
-428.936
 11
-1153.82
 21
-428.625
  0
LINE
  8
0
 10
-1153.82
 20
-428.625
 11
-1139.32
 21
-428.625
  0
LINE
  8
0
 10
-1139.32
 20
-428.625
 11
-1138.37
 21
-428.936
  0
LINE
  8
0
 10
-1138.37
 20
-428.936
 11
-1137.55
 21
-429.527
  0
LINE
  8
0
 10
-1137.55
 20
-429.527
 11
-1136.96
 21
-430.341
  0
LINE
  8
0
 10
-1136.96
 20
-430.341
 11
-1136.65
 21
-431.297
  0
LINE
  8
0
 10
-1136.65
 20
-431.297
 11
-1136.65
 21
-454.025
  0
LINE
  8
0
 10
-1136.65
 20
-454.025
 11
819.15
 21
-454.025
  0
LINE
  8
0
 10
819.15
 20
-454.025
 11
819.15
 21
-431.297
  0
LINE
  8
0
 10
819.15
 20
-431.297
 11
819.461
 21
-430.341
  0
LINE
  8
0
 10
819.461
 20
-430.341
 11
820.052
 21
-429.527
  0
LINE
  8
0
 10
820.052
 20
-429.527
 11
820.866
 21
-428.936
  0
LINE
  8
0
 10
820.866
 20
-428.936
 11
821.822
 21
-428.625
  0
LINE
  8
0
 10
821.822
 20
-428.625
 11
836.322
 21
-428.625
  0
LINE
  8
0
 10
836.322
 20
-428.625
 11
837.278
 21
-428.936
  0
LINE
  8
0
 10
837.278
 20
-428.936
 11
838.092
 21
-429.527
  0
LINE
  8
0
 10
838.092
 20
-429.527
 11
838.683
 21
-430.341
  0
LINE
  8
0
 10
838.683
 20
-430.341
 11
838.994
 21
-431.297
  0
LINE
  8
0
 10
838.994
 20
-431.297
 11
838.994
 21
-443.336
  0
LINE
  8
0
 10
838.994
 20
-443.336
 11
840.237
 21
-447.163
  0
LINE
  8
0
 10
840.237
 20
-447.163
 11
842.602
 21
-450.417
  0
LINE
  8
0
 10
842.602
 20
-450.417
 11
845.856
 21
-452.782
  0
LINE
  8
0
 10
845.856
 20
-452.782
 11
849.682
 21
-454.025
  0
LINE
  8
0
 10
849.682
 20
-454.025
 11
853.705
 21
-454.025
  0
LINE
  8
0
 10
853.705
 20
-454.025
 11
857.531
 21
-452.782
  0
LINE
  8
0
 10
857.531
 20
-452.782
 11
860.786
 21
-450.417
  0
LINE
  8
0
 10
860.786
 20
-450.417
 11
863.151
 21
-447.163
  0
LINE
  8
0
 10
863.151
 20
-447.163
 11
864.394
 21
-443.336
  0
LINE
  8
0
 10
864.394
 20
-443.336
 11
864.394
 21
-375.814
  0
LINE
  8
0
 10
864.394
 20
-375.814
 11
863.151
 21
-371.987
  0
LINE
  8
0
 10
863.151
 20
-371.987
 11
860.786
 21
-368.733
  0
LINE
  8
0
 10
860.786
 20
-368.733
 11
857.531
 21
-366.368
  0
LINE
  8
0
 10
857.531
 20
-366.368
 11
853.705
 21
-365.125
  0
LINE
  8
0
 10
853.705
 20
-365.125
 11
821.822
 21
-365.125
  0
LINE
  8
0
 10
821.822
 20
-365.125
 11
820.866
 21
-364.814
  0
LINE
  8
0
 10
820.866
 20
-364.814
 11
820.052
 21
-364.223
  0
LINE
  8
0
 10
820.052
 20
-364.223
 11
819.461
 21
-363.409
  0
LINE
  8
0
 10
819.461
 20
-363.409
 11
819.15
 21
-362.453
  0
LINE
  8
0
 10
819.15
 20
-362.453
 11
819.15
 21
-253.497
  0
LINE
  8
0
 10
819.15
 20
-253.497
 11
819.461
 21
-252.541
  0
LINE
  8
0
 10
819.461
 20
-252.541
 11
820.052
 21
-251.727
  0
LINE
  8
0
 10
820.052
 20
-251.727
 11
820.866
 21
-251.136
  0
LINE
  8
0
 10
820.866
 20
-251.136
 11
821.822
 21
-250.825
  0
LINE
  8
0
 10
821.822
 20
-250.825
 11
836.322
 21
-250.825
  0
LINE
  8
0
 10
836.322
 20
-250.825
 11
837.278
 21
-251.136
  0
LINE
  8
0
 10
837.278
 20
-251.136
 11
838.092
 21
-251.727
  0
LINE
  8
0
 10
838.092
 20
-251.727
 11
838.683
 21
-252.541
  0
LINE
  8
0
 10
838.683
 20
-252.541
 11
838.994
 21
-253.497
  0
LINE
  8
0
 10
838.994
 20
-253.497
 11
838.994
 21
-265.536
  0
LINE
  8
0
 10
838.994
 20
-265.536
 11
840.237
 21
-269.363
  0
LINE
  8
0
 10
840.237
 20
-269.363
 11
842.602
 21
-272.617
  0
LINE
  8
0
 10
842.602
 20
-272.617
 11
845.856
 21
-274.982
  0
LINE
  8
0
 10
845.856
 20
-274.982
 11
849.682
 21
-276.225
  0
LINE
  8
0
 10
849.682
 20
-276.225
 11
853.705
 21
-276.225
  0
LINE
  8
0
 10
853.705
 20
-276.225
 11
857.531
 21
-274.982
  0
LINE
  8
0
 10
857.531
 20
-274.982
 11
860.786
 21
-272.617
  0
LINE
  8
0
 10
860.786
 20
-272.617
 11
863.151
 21
-269.363
  0
LINE
  8
0
 10
863.151
 20
-269.363
 11
864.394
 21
-265.536
  0
LINE
  8
0
 10
864.394
 20
-265.536
 11
864.394
 21
-198.014
  0
LINE
  8
0
 10
864.394
 20
-198.014
 11
863.151
 21
-194.187
  0
LINE
  8
0
 10
863.151
 20
-194.187
 11
860.786
 21
-190.933
  0
LINE
  8
0
 10
860.786
 20
-190.933
 11
857.531
 21
-188.568
  0
LINE
  8
0
 10
857.531
 20
-188.568
 11
853.705
 21
-187.325
  0
LINE
  8
0
 10
853.705
 20
-187.325
 11
821.822
 21
-187.325
  0
LINE
  8
0
 10
821.822
 20
-187.325
 11
820.866
 21
-187.014
  0
LINE
  8
0
 10
820.866
 20
-187.014
 11
820.052
 21
-186.423
  0
LINE
  8
0
 10
820.052
 20
-186.423
 11
819.461
 21
-185.609
  0
LINE
  8
0
 10
819.461
 20
-185.609
 11
819.15
 21
-184.653
  0
LINE
  8
0
 10
819.15
 20
-184.653
 11
819.15
 21
-130.175
  0
LINE
  8
0
 10
819.15
 20
-130.175
 11
-1136.65
 21
-130.175
  0
LINE
  8
0
 10
-1136.65
 20
-130.175
 11
-1136.65
 21
-184.653
  0
LINE
  8
0
 10
-1136.65
 20
-184.653
 11
-1136.96
 21
-185.609
  0
LINE
  8
0
 10
-1136.96
 20
-185.609
 11
-1137.55
 21
-186.423
  0
LINE
  8
0
 10
-1137.55
 20
-186.423
 11
-1138.37
 21
-187.014
  0
LINE
  8
0
 10
-1138.37
 20
-187.014
 11
-1139.32
 21
-187.325
  0
LINE
  8
0
 10
-1139.32
 20
-187.325
 11
-1171.21
 21
-187.325
  0
LINE
  8
0
 10
-1171.21
 20
-187.325
 11
-1175.03
 21
-188.568
  0
LINE
  8
0
 10
-1175.03
 20
-188.568
 11
-1178.29
 21
-190.933
  0
LINE
  8
0
 10
-1178.29
 20
-190.933
 11
-1180.65
 21
-194.187
  0
LINE
  8
0
 10
-1180.65
 20
-194.187
 11
-1181.89
 21
-198.014
  0
LINE
  8
0
 10
-1181.89
 20
-198.014
 11
-1181.89
 21
-265.536
  0
LINE
  8
0
 10
-1181.89
 20
-265.536
 11
-1180.65
 21
-269.363
  0
LINE
  8
0
 10
-1180.65
 20
-269.363
 11
-1178.29
 21
-272.617
  0
LINE
  8
0
 10
-1178.29
 20
-272.617
 11
-1175.03
 21
-274.982
  0
LINE
  8
0
 10
-1175.03
 20
-274.982
 11
-1171.21
 21
-276.225
  0
LINE
  8
0
 10
-1171.21
 20
-276.225
 11
-1167.18
 21
-276.225
  0
LINE
  8
0
 10
-1167.18
 20
-276.225
 11
-1163.36
 21
-274.982
  0
LINE
  8
0
 10
-1163.36
 20
-274.982
 11
-1160.1
 21
-272.617
  0
LINE
  8
0
 10
-1160.1
 20
-272.617
 11
-1157.74
 21
-269.363
  0
LINE
  8
0
 10
-1157.74
 20
-269.363
 11
-1156.49
 21
-265.536
  0
LINE
  8
0
 10
-1156.49
 20
-265.536
 11
-1156.49
 21
-253.497
  0
LINE
  8
0
 10
-1156.49
 20
-253.497
 11
-1156.18
 21
-252.541
  0
LINE
  8
0
 10
-1156.18
 20
-252.541
 11
-1155.59
 21
-251.727
  0
LINE
  8
0
 10
-1155.59
 20
-251.727
 11
-1154.78
 21
-251.136
  0
LINE
  8
0
 10
-1154.78
 20
-251.136
 11
-1153.82
 21
-250.825
  0
LINE
  8
0
 10
-1153.82
 20
-250.825
 11
-1139.32
 21
-250.825
  0
LINE
  8
0
 10
-1139.32
 20
-250.825
 11
-1138.37
 21
-251.136
  0
LINE
  8
0
 10
-1138.37
 20
-251.136
 11
-1137.55
 21
-251.727
  0
LINE
  8
0
 10
-1137.55
 20
-251.727
 11
-1136.96
 21
-252.541
  0
LINE
  8
0
 10
-1136.96
 20
-252.541
 11
-1136.65
 21
-253.497
  0
LINE
  8
0
 10
-1136.65
 20
-253.497
 11
-1136.65
 21
-362.453
  0
LINE
  8
0
 10
-1136.65
 20
-362.453
 11
-1136.96
 21
-363.409
  0
LINE
  8
0
 10
-1136.96
 20
-363.409
 11
-1137.55
 21
-364.223
  0
LINE
  8
0
 10
-1137.55
 20
-364.223
 11
-1138.37
 21
-364.814
  0
LINE
  8
0
 10
-1138.37
 20
-364.814
 11
-1139.32
 21
-365.125
  0
LINE
  8
0
 10
-1139.32
 20
-365.125
 11
-1171.21
 21
-365.125
  0
LINE
  8
0
 10
-1171.21
 20
-365.125
 11
-1175.03
 21
-366.368
  0
LINE
  8
0
 10
-1175.03
 20
-366.368
 11
-1178.29
 21
-368.733
  0
LINE
  8
0
 10
-1178.29
 20
-368.733
 11
-1180.65
 21
-371.987
  0
LINE
  8
0
 10
-1180.65
 20
-371.987
 11
-1181.89
 21
-375.814
  0
LINE
  8
0
 10
-1181.89
 20
-375.814
 11
-1181.89
 21
-443.336
  0
LINE
  8
0
 10
-1181.89
 20
-443.336
 11
-1180.65
 21
-447.163
  0
LINE
  8
0
 10
-1180.65
 20
-447.163
 11
-1178.29
 21
-450.417
  0
LINE
  8
0
 10
-1178.29
 20
-450.417
 11
-1175.03
 21
-452.782
  0
LINE
  8
0
 10
-1175.03
 20
-452.782
 11
-1171.21
 21
-454.025
  0
LINE
  8
0
 10
-1171.21
 20
-454.025
 11
-1167.18
 21
-454.025
  0
LINE
  8
0
 10
-1167.18
 20
-454.025
 11
-1163.36
 21
-452.782
  0
LINE
  8
0
 10
529.431
 20
-416.719
 11
529.431
 21
-396.081
  0
LINE
  8
0
 10
529.431
 20
-396.081
 11
619.919
 21
-396.081
  0
LINE
  8
0
 10
619.919
 20
-396.081
 11
619.919
 21
-416.719
  0
LINE
  8
0
 10
619.919
 20
-416.719
 11
529.431
 21
-416.719
  0
LINE
  8
0
 10
-937.419
 20
-416.719
 11
-937.419
 21
-396.081
  0
LINE
  8
0
 10
-937.419
 20
-396.081
 11
-846.931
 21
-396.081
  0
LINE
  8
0
 10
-846.931
 20
-396.081
 11
-846.931
 21
-416.719
  0
LINE
  8
0
 10
-846.931
 20
-416.719
 11
-937.419
 21
-416.719
  0
LINE
  8
0
 10
-448.469
 20
-416.719
 11
-448.469
 21
-396.081
  0
LINE
  8
0
 10
-448.469
 20
-396.081
 11
-357.981
 21
-396.081
  0
LINE
  8
0
 10
-357.981
 20
-396.081
 11
-357.981
 21
-416.719
  0
LINE
  8
0
 10
-357.981
 20
-416.719
 11
-448.469
 21
-416.719
  0
LINE
  8
0
 10
40.4812
 20
-416.719
 11
40.4812
 21
-396.081
  0
LINE
  8
0
 10
40.4812
 20
-396.081
 11
130.969
 21
-396.081
  0
LINE
  8
0
 10
130.969
 20
-396.081
 11
130.969
 21
-416.719
  0
LINE
  8
0
 10
130.969
 20
-416.719
 11
40.4812
 21
-416.719
  0
LINE
  8
0
 10
819.15
 20
-460.375
 11
-1136.65
 21
-460.375
  0
LINE
  8
0
 10
-1136.65
 20
-460.375
 11
-1136.65
 21
-498.475
  0
LINE
  8
0
 10
-1136.65
 20
-498.475
 11
819.15
 21
-498.475
  0
LINE
  8
0
 10
819.15
 20
-498.475
 11
819.15
 21
-460.375
  0
LINE
  8
0
 10
819.15
 20
-504.825
 11
-1136.65
 21
-504.825
  0
LINE
  8
0
 10
-1136.65
 20
-504.825
 11
-1136.65
 21
-542.925
  0
LINE
  8
0
 10
-1136.65
 20
-542.925
 11
819.15
 21
-542.925
  0
LINE
  8
0
 10
819.15
 20
-542.925
 11
819.15
 21
-504.825
  0
ENDSEC
  0
SECTION
  2
OBJECTS
  0
DICTIONARY
  0
ENDSEC
  0
EOF
