  0
SECTION
  2
BLOCKS
  0
ENDSEC
  0
SECTION
  2
ENTITIES
  0
LINE
  8
0
 10
1.70963
 20
-22.8396
 11
1.9659
 21
-22.6534
  0
LINE
  8
0
 10
1.9659
 20
-22.6534
 11
2.15208
 21
-22.3971
  0
LINE
  8
0
 10
2.15208
 20
-22.3971
 11
2.24998
 21
-22.0959
  0
LINE
  8
0
 10
2.24998
 20
-22.0959
 11
2.25
 21
22.0959
  0
LINE
  8
0
 10
2.25
 20
22.0959
 11
2.1521
 21
22.3971
  0
LINE
  8
0
 10
2.1521
 20
22.3971
 11
1.96591
 21
22.6534
  0
LINE
  8
0
 10
1.96591
 20
22.6534
 11
1.70964
 21
22.8396
  0
LINE
  8
0
 10
1.70964
 20
22.8396
 11
1.40837
 21
22.9375
  0
LINE
  8
0
 10
1.40837
 20
22.9375
 11
-46.1584
 21
22.9375
  0
LINE
  8
0
 10
-46.1584
 20
22.9375
 11
-46.4596
 21
22.8396
  0
LINE
  8
0
 10
-46.4596
 20
22.8396
 11
-46.7159
 21
22.6534
  0
LINE
  8
0
 10
-46.7159
 20
22.6534
 11
-46.9021
 21
22.3971
  0
LINE
  8
0
 10
-46.9021
 20
22.3971
 11
-47
 21
22.0959
  0
LINE
  8
0
 10
-47
 20
22.0959
 11
-47
 21
-22.0959
  0
LINE
  8
0
 10
-47
 20
-22.0959
 11
-46.9021
 21
-22.3971
  0
LINE
  8
0
 10
-46.9021
 20
-22.3971
 11
-46.7159
 21
-22.6534
  0
LINE
  8
0
 10
-46.7159
 20
-22.6534
 11
-46.4596
 21
-22.8396
  0
LINE
  8
0
 10
-46.4596
 20
-22.8396
 11
-46.1584
 21
-22.9375
  0
LINE
  8
0
 10
-46.1584
 20
-22.9375
 11
1.40836
 21
-22.9375
  0
LINE
  8
0
 10
1.40836
 20
-22.9375
 11
1.70963
 21
-22.8396
  0
LINE
  8
0
 10
-44.7812
 20
20.9688
 11
-44.7812
 21
21.7812
  0
LINE
  8
0
 10
-44.7812
 20
21.7812
 11
-41.2187
 21
21.7812
  0
LINE
  8
0
 10
-41.2187
 20
21.7812
 11
-41.2187
 21
20.9688
  0
LINE
  8
0
 10
-41.2187
 20
20.9688
 11
-44.7812
 21
20.9688
  0
LINE
  8
0
 10
-37.7812
 20
20.9688
 11
-37.7812
 21
21.7812
  0
LINE
  8
0
 10
-37.7812
 20
21.7812
 11
-34.2187
 21
21.7812
  0
LINE
  8
0
 10
-34.2187
 20
21.7812
 11
-34.2187
 21
20.9688
  0
LINE
  8
0
 10
-34.2187
 20
20.9688
 11
-37.7812
 21
20.9688
  0
LINE
  8
0
 10
-10.2812
 20
20.9687
 11
-10.2812
 21
21.7812
  0
LINE
  8
0
 10
-10.2812
 20
21.7812
 11
-6.71875
 21
21.7812
  0
LINE
  8
0
 10
-6.71875
 20
21.7812
 11
-6.71875
 21
20.9687
  0
LINE
  8
0
 10
-6.71875
 20
20.9687
 11
-10.2812
 21
20.9687
  0
LINE
  8
0
 10
-3.28125
 20
20.9687
 11
-3.28125
 21
21.7812
  0
LINE
  8
0
 10
-3.28125
 20
21.7812
 11
0.28125
 21
21.7812
  0
LINE
  8
0
 10
0.28125
 20
21.7812
 11
0.28125
 21
20.9687
  0
LINE
  8
0
 10
0.28125
 20
20.9687
 11
-3.28125
 21
20.9687
  0
LINE
  8
0
 10
-29.2209
 20
-11.4687
 11
-29.5221
 21
-11.3708
  0
LINE
  8
0
 10
-29.5221
 20
-11.3708
 11
-29.7784
 21
-11.1846
  0
LINE
  8
0
 10
-29.7784
 20
-11.1846
 11
-29.9646
 21
-10.9284
  0
LINE
  8
0
 10
-29.9646
 20
-10.9284
 11
-30.0625
 21
-10.6271
  0
LINE
  8
0
 10
-30.0625
 20
-10.6271
 11
-30.0625
 21
10.6271
  0
LINE
  8
0
 10
-30.0625
 20
10.6271
 11
-29.9646
 21
10.9284
  0
LINE
  8
0
 10
-29.9646
 20
10.9284
 11
-29.7784
 21
11.1847
  0
LINE
  8
0
 10
-29.7784
 20
11.1847
 11
-29.5221
 21
11.3708
  0
LINE
  8
0
 10
-29.5221
 20
11.3708
 11
-29.2209
 21
11.4688
  0
LINE
  8
0
 10
-29.2209
 20
11.4688
 11
-18.9041
 21
11.4688
  0
LINE
  8
0
 10
-18.9041
 20
11.4688
 11
-18.6029
 21
11.3708
  0
LINE
  8
0
 10
-18.6029
 20
11.3708
 11
-18.3466
 21
11.1846
  0
LINE
  8
0
 10
-18.3466
 20
11.1846
 11
-18.1604
 21
10.9284
  0
LINE
  8
0
 10
-18.1604
 20
10.9284
 11
-18.0625
 21
10.6271
  0
LINE
  8
0
 10
-18.0625
 20
10.6271
 11
-18.0625
 21
-10.6271
  0
LINE
  8
0
 10
-18.0625
 20
-10.6271
 11
-18.1604
 21
-10.9284
  0
LINE
  8
0
 10
-18.1604
 20
-10.9284
 11
-18.3466
 21
-11.1847
  0
LINE
  8
0
 10
-18.3466
 20
-11.1847
 11
-18.6029
 21
-11.3708
  0
LINE
  8
0
 10
-18.6029
 20
-11.3708
 11
-18.9041
 21
-11.4688
  0
LINE
  8
0
 10
-18.9041
 20
-11.4688
 11
-29.2209
 21
-11.4687
  0
LINE
  8
0
 10
-36.2812
 20
6.46875
 11
-36.2812
 21
10.0312
  0
LINE
  8
0
 10
-36.2812
 20
10.0312
 11
-34.7187
 21
10.0312
  0
LINE
  8
0
 10
-34.7187
 20
10.0312
 11
-34.7187
 21
6.46875
  0
LINE
  8
0
 10
-34.7187
 20
6.46875
 11
-36.2812
 21
6.46875
  0
LINE
  8
0
 10
-1.78125
 20
6.46873
 11
-1.78125
 21
10.0312
  0
LINE
  8
0
 10
-1.78125
 20
10.0312
 11
-0.21875
 21
10.0312
  0
LINE
  8
0
 10
-0.21875
 20
10.0312
 11
-0.21875
 21
6.46873
  0
LINE
  8
0
 10
-0.21875
 20
6.46873
 11
-1.78125
 21
6.46873
  0
LINE
  8
0
 10
-36.2812
 20
-10.0312
 11
-36.2812
 21
-6.46873
  0
LINE
  8
0
 10
-36.2812
 20
-6.46873
 11
-34.7188
 21
-6.46873
  0
LINE
  8
0
 10
-34.7188
 20
-6.46873
 11
-34.7188
 21
-10.0312
  0
LINE
  8
0
 10
-34.7188
 20
-10.0312
 11
-36.2812
 21
-10.0312
  0
LINE
  8
0
 10
-1.78127
 20
-10.0312
 11
-1.78125
 21
-6.46875
  0
LINE
  8
0
 10
-1.78125
 20
-6.46875
 11
-0.21875
 21
-6.46875
  0
LINE
  8
0
 10
-0.21875
 20
-6.46875
 11
-0.218765
 21
-10.0312
  0
LINE
  8
0
 10
-0.218765
 20
-10.0312
 11
-1.78127
 21
-10.0312
  0
LINE
  8
0
 10
-44.7812
 20
-21.7812
 11
-44.7812
 21
-20.9687
  0
LINE
  8
0
 10
-44.7812
 20
-20.9687
 11
-41.2188
 21
-20.9687
  0
LINE
  8
0
 10
-41.2188
 20
-20.9687
 11
-41.2188
 21
-21.7812
  0
LINE
  8
0
 10
-41.2188
 20
-21.7812
 11
-44.7812
 21
-21.7812
  0
LINE
  8
0
 10
-37.7812
 20
-21.7812
 11
-37.7812
 21
-20.9687
  0
LINE
  8
0
 10
-37.7812
 20
-20.9687
 11
-34.2188
 21
-20.9687
  0
LINE
  8
0
 10
-34.2188
 20
-20.9687
 11
-34.2188
 21
-21.7812
  0
LINE
  8
0
 10
-34.2188
 20
-21.7812
 11
-37.7812
 21
-21.7812
  0
LINE
  8
0
 10
-10.2813
 20
-21.7812
 11
-10.2813
 21
-20.9688
  0
LINE
  8
0
 10
-10.2813
 20
-20.9688
 11
-6.71877
 21
-20.9688
  0
LINE
  8
0
 10
-6.71877
 20
-20.9688
 11
-6.71877
 21
-21.7812
  0
LINE
  8
0
 10
-6.71877
 20
-21.7812
 11
-10.2813
 21
-21.7812
  0
LINE
  8
0
 10
-3.28127
 20
-21.7812
 11
-3.28127
 21
-20.9688
  0
LINE
  8
0
 10
-3.28127
 20
-20.9688
 11
0.281235
 21
-20.9688
  0
LINE
  8
0
 10
0.281235
 20
-20.9688
 11
0.281235
 21
-21.7812
  0
LINE
  8
0
 10
0.281235
 20
-21.7812
 11
-3.28127
 21
-21.7812
  0
LINE
  8
0
 10
32.1187
 20
-20.9844
 11
40.9625
 21
-20.9844
  0
LINE
  8
0
 10
40.9625
 20
-20.9844
 11
40.9625
 21
-10.1052
  0
LINE
  8
0
 10
40.9625
 20
-10.1052
 11
40.9747
 21
-10.0675
  0
LINE
  8
0
 10
40.9747
 20
-10.0675
 11
40.998
 21
-10.0355
  0
LINE
  8
0
 10
40.998
 20
-10.0355
 11
41.03
 21
-10.0122
  0
LINE
  8
0
 10
41.03
 20
-10.0122
 11
41.0677
 21
-10
  0
LINE
  8
0
 10
41.0677
 20
-10
 11
41.5844
 21
-10
  0
LINE
  8
0
 10
41.5844
 20
-10
 11
41.6974
 21
-9.96329
  0
LINE
  8
0
 10
41.6974
 20
-9.96329
 11
41.7935
 21
-9.89346
  0
LINE
  8
0
 10
41.7935
 20
-9.89346
 11
41.8633
 21
-9.79736
  0
LINE
  8
0
 10
41.8633
 20
-9.79736
 11
41.9
 21
-9.68439
  0
LINE
  8
0
 10
41.9
 20
-9.68439
 11
41.9
 21
-6.81561
  0
LINE
  8
0
 10
41.9
 20
-6.81561
 11
41.8633
 21
-6.70264
  0
LINE
  8
0
 10
41.8633
 20
-6.70264
 11
41.7935
 21
-6.60654
  0
LINE
  8
0
 10
41.7935
 20
-6.60654
 11
41.6974
 21
-6.53671
  0
LINE
  8
0
 10
41.6974
 20
-6.53671
 11
41.5844
 21
-6.5
  0
LINE
  8
0
 10
41.5844
 20
-6.5
 11
41.0677
 21
-6.5
  0
LINE
  8
0
 10
41.0677
 20
-6.5
 11
41.03
 21
-6.48778
  0
LINE
  8
0
 10
41.03
 20
-6.48778
 11
40.998
 21
-6.46449
  0
LINE
  8
0
 10
40.998
 20
-6.46449
 11
40.9747
 21
-6.43246
  0
LINE
  8
0
 10
40.9747
 20
-6.43246
 11
40.9625
 21
-6.39481
  0
LINE
  8
0
 10
40.9625
 20
-6.39481
 11
40.9625
 21
6.39481
  0
LINE
  8
0
 10
40.9625
 20
6.39481
 11
40.9747
 21
6.43246
  0
LINE
  8
0
 10
40.9747
 20
6.43246
 11
40.998
 21
6.46449
  0
LINE
  8
0
 10
40.998
 20
6.46449
 11
41.03
 21
6.48778
  0
LINE
  8
0
 10
41.03
 20
6.48778
 11
41.0677
 21
6.5
  0
LINE
  8
0
 10
41.0677
 20
6.5
 11
41.5844
 21
6.5
  0
LINE
  8
0
 10
41.5844
 20
6.5
 11
41.6974
 21
6.53671
  0
LINE
  8
0
 10
41.6974
 20
6.53671
 11
41.7935
 21
6.60654
  0
LINE
  8
0
 10
41.7935
 20
6.60654
 11
41.8633
 21
6.70264
  0
LINE
  8
0
 10
41.8633
 20
6.70264
 11
41.9
 21
6.81561
  0
LINE
  8
0
 10
41.9
 20
6.81561
 11
41.9
 21
9.68439
  0
LINE
  8
0
 10
41.9
 20
9.68439
 11
41.8633
 21
9.79736
  0
LINE
  8
0
 10
41.8633
 20
9.79736
 11
41.7935
 21
9.89346
  0
LINE
  8
0
 10
41.7935
 20
9.89346
 11
41.6974
 21
9.96329
  0
LINE
  8
0
 10
41.6974
 20
9.96329
 11
41.5844
 21
10
  0
LINE
  8
0
 10
41.5844
 20
10
 11
41.0677
 21
10
  0
LINE
  8
0
 10
41.0677
 20
10
 11
41.03
 21
10.0122
  0
LINE
  8
0
 10
41.03
 20
10.0122
 11
40.998
 21
10.0355
  0
LINE
  8
0
 10
40.998
 20
10.0355
 11
40.9747
 21
10.0675
  0
LINE
  8
0
 10
40.9747
 20
10.0675
 11
40.9625
 21
10.1052
  0
LINE
  8
0
 10
40.9625
 20
10.1052
 11
40.9625
 21
20.9844
  0
LINE
  8
0
 10
40.9625
 20
20.9844
 11
32.1187
 21
20.9844
  0
LINE
  8
0
 10
32.1187
 20
20.9844
 11
32.1187
 21
22.7656
  0
LINE
  8
0
 10
32.1187
 20
22.7656
 11
28.6187
 21
22.7656
  0
LINE
  8
0
 10
28.6187
 20
22.7656
 11
28.6187
 21
21.7656
  0
LINE
  8
0
 10
28.6187
 20
21.7656
 11
29.6187
 21
21.7656
  0
LINE
  8
0
 10
29.6187
 20
21.7656
 11
29.6187
 21
20.9844
  0
LINE
  8
0
 10
29.6187
 20
20.9844
 11
12.8687
 21
20.9844
  0
LINE
  8
0
 10
12.8687
 20
20.9844
 11
12.8687
 21
22.7656
  0
LINE
  8
0
 10
12.8687
 20
22.7656
 11
9.36874
 21
22.7656
  0
LINE
  8
0
 10
9.36874
 20
22.7656
 11
9.36874
 21
21.7656
  0
LINE
  8
0
 10
9.36874
 20
21.7656
 11
10.3687
 21
21.7656
  0
LINE
  8
0
 10
10.3687
 20
21.7656
 11
10.3687
 21
20.9844
  0
LINE
  8
0
 10
10.3687
 20
20.9844
 11
2.52499
 21
20.9844
  0
LINE
  8
0
 10
2.52499
 20
20.9844
 11
2.52499
 21
-20.9844
  0
LINE
  8
0
 10
2.52499
 20
-20.9844
 11
10.3687
 21
-20.9844
  0
LINE
  8
0
 10
10.3687
 20
-20.9844
 11
10.3687
 21
-21.7656
  0
LINE
  8
0
 10
10.3687
 20
-21.7656
 11
9.36874
 21
-21.7656
  0
LINE
  8
0
 10
9.36874
 20
-21.7656
 11
9.36874
 21
-22.7656
  0
LINE
  8
0
 10
9.36874
 20
-22.7656
 11
12.8687
 21
-22.7656
  0
LINE
  8
0
 10
12.8687
 20
-22.7656
 11
12.8687
 21
-20.9844
  0
LINE
  8
0
 10
12.8687
 20
-20.9844
 11
29.6187
 21
-20.9844
  0
LINE
  8
0
 10
29.6187
 20
-20.9844
 11
29.6187
 21
-21.7656
  0
LINE
  8
0
 10
29.6187
 20
-21.7656
 11
28.6187
 21
-21.7656
  0
LINE
  8
0
 10
28.6187
 20
-21.7656
 11
28.6187
 21
-22.7656
  0
LINE
  8
0
 10
28.6187
 20
-22.7656
 11
32.1187
 21
-22.7656
  0
LINE
  8
0
 10
32.1187
 20
-22.7656
 11
32.1187
 21
-20.9844
  0
ENDSEC
  0
SECTION
  2
OBJECTS
  0
DICTIONARY
  0
ENDSEC
  0
EOF
