  0
SECTION
  2
BLOCKS
  0
ENDSEC
  0
SECTION
  2
ENTITIES
  0
LINE
  8
0
 10
-45.8014
 20
8.18144
 11
-45.6733
 21
8.27454
  0
LINE
  8
0
 10
-45.6733
 20
8.27454
 11
-45.5802
 21
8.40268
  0
LINE
  8
0
 10
-45.5802
 20
8.40268
 11
-45.5312
 21
8.55331
  0
LINE
  8
0
 10
-45.5312
 20
8.55331
 11
-45.5312
 21
9.02728
  0
LINE
  8
0
 10
-45.5312
 20
9.02728
 11
-45.519
 21
9.06494
  0
LINE
  8
0
 10
-45.519
 20
9.06494
 11
-45.4957
 21
9.09697
  0
LINE
  8
0
 10
-45.4957
 20
9.09697
 11
-45.4637
 21
9.12025
  0
LINE
  8
0
 10
-45.4637
 20
9.12025
 11
-45.426
 21
9.13249
  0
LINE
  8
0
 10
-45.426
 20
9.13249
 11
-44.8552
 21
9.13249
  0
LINE
  8
0
 10
-44.8552
 20
9.13249
 11
-44.8176
 21
9.12025
  0
LINE
  8
0
 10
-44.8176
 20
9.12025
 11
-44.7855
 21
9.09697
  0
LINE
  8
0
 10
-44.7855
 20
9.09697
 11
-44.7622
 21
9.06494
  0
LINE
  8
0
 10
-44.7622
 20
9.06494
 11
-44.75
 21
9.02728
  0
LINE
  8
0
 10
-44.75
 20
9.02728
 11
-44.75
 21
8.13249
  0
LINE
  8
0
 10
-44.75
 20
8.13249
 11
32.25
 21
8.13249
  0
LINE
  8
0
 10
32.25
 20
8.13249
 11
32.25
 21
9.02728
  0
LINE
  8
0
 10
32.25
 20
9.02728
 11
32.2622
 21
9.06494
  0
LINE
  8
0
 10
32.2622
 20
9.06494
 11
32.2855
 21
9.09697
  0
LINE
  8
0
 10
32.2855
 20
9.09697
 11
32.3176
 21
9.12025
  0
LINE
  8
0
 10
32.3176
 20
9.12025
 11
32.3552
 21
9.13249
  0
LINE
  8
0
 10
32.3552
 20
9.13249
 11
32.926
 21
9.13249
  0
LINE
  8
0
 10
32.926
 20
9.13249
 11
32.9637
 21
9.12025
  0
LINE
  8
0
 10
32.9637
 20
9.12025
 11
32.9957
 21
9.09697
  0
LINE
  8
0
 10
32.9957
 20
9.09697
 11
33.019
 21
9.06494
  0
LINE
  8
0
 10
33.019
 20
9.06494
 11
33.0312
 21
9.02728
  0
LINE
  8
0
 10
33.0312
 20
9.02728
 11
33.0312
 21
8.55331
  0
LINE
  8
0
 10
33.0312
 20
8.55331
 11
33.0802
 21
8.40268
  0
LINE
  8
0
 10
33.0802
 20
8.40268
 11
33.1733
 21
8.27454
  0
LINE
  8
0
 10
33.1733
 20
8.27454
 11
33.3014
 21
8.18144
  0
LINE
  8
0
 10
33.3014
 20
8.18144
 11
33.4521
 21
8.13249
  0
LINE
  8
0
 10
33.4521
 20
8.13249
 11
33.6104
 21
8.13249
  0
LINE
  8
0
 10
33.6104
 20
8.13249
 11
33.7611
 21
8.18144
  0
LINE
  8
0
 10
33.7611
 20
8.18144
 11
33.8892
 21
8.27454
  0
LINE
  8
0
 10
33.8892
 20
8.27454
 11
33.9823
 21
8.40268
  0
LINE
  8
0
 10
33.9823
 20
8.40268
 11
34.0312
 21
8.55331
  0
LINE
  8
0
 10
34.0312
 20
8.55331
 11
34.0312
 21
11.2117
  0
LINE
  8
0
 10
34.0312
 20
11.2117
 11
33.9823
 21
11.3623
  0
LINE
  8
0
 10
33.9823
 20
11.3623
 11
33.8892
 21
11.4904
  0
LINE
  8
0
 10
33.8892
 20
11.4904
 11
33.7611
 21
11.5835
  0
LINE
  8
0
 10
33.7611
 20
11.5835
 11
33.6104
 21
11.6325
  0
LINE
  8
0
 10
33.6104
 20
11.6325
 11
32.3552
 21
11.6325
  0
LINE
  8
0
 10
32.3552
 20
11.6325
 11
32.3175
 21
11.6447
  0
LINE
  8
0
 10
32.3175
 20
11.6447
 11
32.2855
 21
11.668
  0
LINE
  8
0
 10
32.2855
 20
11.668
 11
32.2622
 21
11.7
  0
LINE
  8
0
 10
32.2622
 20
11.7
 11
32.25
 21
11.7377
  0
LINE
  8
0
 10
32.25
 20
11.7377
 11
32.25
 21
16.0273
  0
LINE
  8
0
 10
32.25
 20
16.0273
 11
32.2622
 21
16.0649
  0
LINE
  8
0
 10
32.2622
 20
16.0649
 11
32.2855
 21
16.097
  0
LINE
  8
0
 10
32.2855
 20
16.097
 11
32.3176
 21
16.1203
  0
LINE
  8
0
 10
32.3176
 20
16.1203
 11
32.3552
 21
16.1325
  0
LINE
  8
0
 10
32.3552
 20
16.1325
 11
32.926
 21
16.1325
  0
LINE
  8
0
 10
32.926
 20
16.1325
 11
32.9637
 21
16.1203
  0
LINE
  8
0
 10
32.9637
 20
16.1203
 11
32.9957
 21
16.097
  0
LINE
  8
0
 10
32.9957
 20
16.097
 11
33.019
 21
16.0649
  0
LINE
  8
0
 10
33.019
 20
16.0649
 11
33.0312
 21
16.0273
  0
LINE
  8
0
 10
33.0312
 20
16.0273
 11
33.0312
 21
15.5533
  0
LINE
  8
0
 10
33.0312
 20
15.5533
 11
33.0802
 21
15.4027
  0
LINE
  8
0
 10
33.0802
 20
15.4027
 11
33.1733
 21
15.2745
  0
LINE
  8
0
 10
33.1733
 20
15.2745
 11
33.3014
 21
15.1814
  0
LINE
  8
0
 10
33.3014
 20
15.1814
 11
33.4521
 21
15.1325
  0
LINE
  8
0
 10
33.4521
 20
15.1325
 11
33.6104
 21
15.1325
  0
LINE
  8
0
 10
33.6104
 20
15.1325
 11
33.7611
 21
15.1814
  0
LINE
  8
0
 10
33.7611
 20
15.1814
 11
33.8892
 21
15.2745
  0
LINE
  8
0
 10
33.8892
 20
15.2745
 11
33.9823
 21
15.4027
  0
LINE
  8
0
 10
33.9823
 20
15.4027
 11
34.0312
 21
15.5533
  0
LINE
  8
0
 10
34.0312
 20
15.5533
 11
34.0312
 21
18.2117
  0
LINE
  8
0
 10
34.0312
 20
18.2117
 11
33.9823
 21
18.3623
  0
LINE
  8
0
 10
33.9823
 20
18.3623
 11
33.8892
 21
18.4904
  0
LINE
  8
0
 10
33.8892
 20
18.4904
 11
33.7611
 21
18.5835
  0
LINE
  8
0
 10
33.7611
 20
18.5835
 11
33.6104
 21
18.6325
  0
LINE
  8
0
 10
33.6104
 20
18.6325
 11
32.3552
 21
18.6325
  0
LINE
  8
0
 10
32.3552
 20
18.6325
 11
32.3175
 21
18.6447
  0
LINE
  8
0
 10
32.3175
 20
18.6447
 11
32.2855
 21
18.668
  0
LINE
  8
0
 10
32.2855
 20
18.668
 11
32.2622
 21
18.7
  0
LINE
  8
0
 10
32.2622
 20
18.7
 11
32.25
 21
18.7377
  0
LINE
  8
0
 10
32.25
 20
18.7377
 11
32.25
 21
20.8825
  0
LINE
  8
0
 10
32.25
 20
20.8825
 11
-44.75
 21
20.8825
  0
LINE
  8
0
 10
-44.75
 20
20.8825
 11
-44.75
 21
18.7377
  0
LINE
  8
0
 10
-44.75
 20
18.7377
 11
-44.7622
 21
18.7
  0
LINE
  8
0
 10
-44.7622
 20
18.7
 11
-44.7855
 21
18.668
  0
LINE
  8
0
 10
-44.7855
 20
18.668
 11
-44.8175
 21
18.6447
  0
LINE
  8
0
 10
-44.8175
 20
18.6447
 11
-44.8552
 21
18.6325
  0
LINE
  8
0
 10
-44.8552
 20
18.6325
 11
-46.1104
 21
18.6325
  0
LINE
  8
0
 10
-46.1104
 20
18.6325
 11
-46.2611
 21
18.5835
  0
LINE
  8
0
 10
-46.2611
 20
18.5835
 11
-46.3892
 21
18.4904
  0
LINE
  8
0
 10
-46.3892
 20
18.4904
 11
-46.4823
 21
18.3623
  0
LINE
  8
0
 10
-46.4823
 20
18.3623
 11
-46.5312
 21
18.2117
  0
LINE
  8
0
 10
-46.5312
 20
18.2117
 11
-46.5312
 21
15.5533
  0
LINE
  8
0
 10
-46.5312
 20
15.5533
 11
-46.4823
 21
15.4027
  0
LINE
  8
0
 10
-46.4823
 20
15.4027
 11
-46.3892
 21
15.2745
  0
LINE
  8
0
 10
-46.3892
 20
15.2745
 11
-46.2611
 21
15.1814
  0
LINE
  8
0
 10
-46.2611
 20
15.1814
 11
-46.1104
 21
15.1325
  0
LINE
  8
0
 10
-46.1104
 20
15.1325
 11
-45.9521
 21
15.1325
  0
LINE
  8
0
 10
-45.9521
 20
15.1325
 11
-45.8014
 21
15.1814
  0
LINE
  8
0
 10
-45.8014
 20
15.1814
 11
-45.6733
 21
15.2745
  0
LINE
  8
0
 10
-45.6733
 20
15.2745
 11
-45.5802
 21
15.4027
  0
LINE
  8
0
 10
-45.5802
 20
15.4027
 11
-45.5312
 21
15.5533
  0
LINE
  8
0
 10
-45.5312
 20
15.5533
 11
-45.5312
 21
16.0273
  0
LINE
  8
0
 10
-45.5312
 20
16.0273
 11
-45.519
 21
16.0649
  0
LINE
  8
0
 10
-45.519
 20
16.0649
 11
-45.4957
 21
16.097
  0
LINE
  8
0
 10
-45.4957
 20
16.097
 11
-45.4637
 21
16.1203
  0
LINE
  8
0
 10
-45.4637
 20
16.1203
 11
-45.426
 21
16.1325
  0
LINE
  8
0
 10
-45.426
 20
16.1325
 11
-44.8552
 21
16.1325
  0
LINE
  8
0
 10
-44.8552
 20
16.1325
 11
-44.8176
 21
16.1203
  0
LINE
  8
0
 10
-44.8176
 20
16.1203
 11
-44.7855
 21
16.097
  0
LINE
  8
0
 10
-44.7855
 20
16.097
 11
-44.7622
 21
16.0649
  0
LINE
  8
0
 10
-44.7622
 20
16.0649
 11
-44.75
 21
16.0273
  0
LINE
  8
0
 10
-44.75
 20
16.0273
 11
-44.75
 21
11.7377
  0
LINE
  8
0
 10
-44.75
 20
11.7377
 11
-44.7622
 21
11.7
  0
LINE
  8
0
 10
-44.7622
 20
11.7
 11
-44.7855
 21
11.668
  0
LINE
  8
0
 10
-44.7855
 20
11.668
 11
-44.8175
 21
11.6447
  0
LINE
  8
0
 10
-44.8175
 20
11.6447
 11
-44.8552
 21
11.6325
  0
LINE
  8
0
 10
-44.8552
 20
11.6325
 11
-46.1104
 21
11.6325
  0
LINE
  8
0
 10
-46.1104
 20
11.6325
 11
-46.2611
 21
11.5835
  0
LINE
  8
0
 10
-46.2611
 20
11.5835
 11
-46.3892
 21
11.4904
  0
LINE
  8
0
 10
-46.3892
 20
11.4904
 11
-46.4823
 21
11.3623
  0
LINE
  8
0
 10
-46.4823
 20
11.3623
 11
-46.5312
 21
11.2117
  0
LINE
  8
0
 10
-46.5312
 20
11.2117
 11
-46.5312
 21
8.55331
  0
LINE
  8
0
 10
-46.5312
 20
8.55331
 11
-46.4823
 21
8.40268
  0
LINE
  8
0
 10
-46.4823
 20
8.40268
 11
-46.3892
 21
8.27454
  0
LINE
  8
0
 10
-46.3892
 20
8.27454
 11
-46.2611
 21
8.18144
  0
LINE
  8
0
 10
-46.2611
 20
8.18144
 11
-46.1104
 21
8.13249
  0
LINE
  8
0
 10
-46.1104
 20
8.13249
 11
-45.9521
 21
8.13249
  0
LINE
  8
0
 10
-45.9521
 20
8.13249
 11
-45.8014
 21
8.18144
  0
LINE
  8
0
 10
20.8438
 20
9.60124
 11
20.8438
 21
10.4137
  0
LINE
  8
0
 10
20.8438
 20
10.4137
 11
24.4062
 21
10.4137
  0
LINE
  8
0
 10
24.4062
 20
10.4137
 11
24.4062
 21
9.60124
  0
LINE
  8
0
 10
24.4062
 20
9.60124
 11
20.8438
 21
9.60124
  0
LINE
  8
0
 10
-36.9062
 20
9.60124
 11
-36.9062
 21
10.4137
  0
LINE
  8
0
 10
-36.9062
 20
10.4137
 11
-33.3438
 21
10.4137
  0
LINE
  8
0
 10
-33.3438
 20
10.4137
 11
-33.3438
 21
9.60124
  0
LINE
  8
0
 10
-33.3438
 20
9.60124
 11
-36.9062
 21
9.60124
  0
LINE
  8
0
 10
-17.6562
 20
9.60124
 11
-17.6562
 21
10.4137
  0
LINE
  8
0
 10
-17.6562
 20
10.4137
 11
-14.0938
 21
10.4137
  0
LINE
  8
0
 10
-14.0938
 20
10.4137
 11
-14.0938
 21
9.60124
  0
LINE
  8
0
 10
-14.0938
 20
9.60124
 11
-17.6562
 21
9.60124
  0
LINE
  8
0
 10
1.59375
 20
9.60124
 11
1.59375
 21
10.4137
  0
LINE
  8
0
 10
1.59375
 20
10.4137
 11
5.15625
 21
10.4137
  0
LINE
  8
0
 10
5.15625
 20
10.4137
 11
5.15625
 21
9.60124
  0
LINE
  8
0
 10
5.15625
 20
9.60124
 11
1.59375
 21
9.60124
  0
LINE
  8
0
 10
-45.8014
 20
-4.82356
 11
-45.6733
 21
-4.73047
  0
LINE
  8
0
 10
-45.6733
 20
-4.73047
 11
-45.5802
 21
-4.60233
  0
LINE
  8
0
 10
-45.5802
 20
-4.60233
 11
-45.5312
 21
-4.45169
  0
LINE
  8
0
 10
-45.5312
 20
-4.45169
 11
-45.5312
 21
-3.97772
  0
LINE
  8
0
 10
-45.5312
 20
-3.97772
 11
-45.519
 21
-3.94006
  0
LINE
  8
0
 10
-45.519
 20
-3.94006
 11
-45.4957
 21
-3.90804
  0
LINE
  8
0
 10
-45.4957
 20
-3.90804
 11
-45.4637
 21
-3.88475
  0
LINE
  8
0
 10
-45.4637
 20
-3.88475
 11
-45.426
 21
-3.87251
  0
LINE
  8
0
 10
-45.426
 20
-3.87251
 11
-44.8552
 21
-3.87251
  0
LINE
  8
0
 10
-44.8552
 20
-3.87251
 11
-44.8176
 21
-3.88475
  0
LINE
  8
0
 10
-44.8176
 20
-3.88475
 11
-44.7855
 21
-3.90804
  0
LINE
  8
0
 10
-44.7855
 20
-3.90804
 11
-44.7622
 21
-3.94006
  0
LINE
  8
0
 10
-44.7622
 20
-3.94006
 11
-44.75
 21
-3.97772
  0
LINE
  8
0
 10
-44.75
 20
-3.97772
 11
-44.75
 21
-4.87251
  0
LINE
  8
0
 10
-44.75
 20
-4.87251
 11
32.25
 21
-4.87251
  0
LINE
  8
0
 10
32.25
 20
-4.87251
 11
32.25
 21
-3.97772
  0
LINE
  8
0
 10
32.25
 20
-3.97772
 11
32.2622
 21
-3.94006
  0
LINE
  8
0
 10
32.2622
 20
-3.94006
 11
32.2855
 21
-3.90804
  0
LINE
  8
0
 10
32.2855
 20
-3.90804
 11
32.3176
 21
-3.88475
  0
LINE
  8
0
 10
32.3176
 20
-3.88475
 11
32.3552
 21
-3.87251
  0
LINE
  8
0
 10
32.3552
 20
-3.87251
 11
32.926
 21
-3.87251
  0
LINE
  8
0
 10
32.926
 20
-3.87251
 11
32.9637
 21
-3.88475
  0
LINE
  8
0
 10
32.9637
 20
-3.88475
 11
32.9957
 21
-3.90804
  0
LINE
  8
0
 10
32.9957
 20
-3.90804
 11
33.019
 21
-3.94006
  0
LINE
  8
0
 10
33.019
 20
-3.94006
 11
33.0312
 21
-3.97772
  0
LINE
  8
0
 10
33.0312
 20
-3.97772
 11
33.0312
 21
-4.45169
  0
LINE
  8
0
 10
33.0312
 20
-4.45169
 11
33.0802
 21
-4.60233
  0
LINE
  8
0
 10
33.0802
 20
-4.60233
 11
33.1733
 21
-4.73047
  0
LINE
  8
0
 10
33.1733
 20
-4.73047
 11
33.3014
 21
-4.82356
  0
LINE
  8
0
 10
33.3014
 20
-4.82356
 11
33.4521
 21
-4.87251
  0
LINE
  8
0
 10
33.4521
 20
-4.87251
 11
33.6104
 21
-4.87251
  0
LINE
  8
0
 10
33.6104
 20
-4.87251
 11
33.7611
 21
-4.82356
  0
LINE
  8
0
 10
33.7611
 20
-4.82356
 11
33.8892
 21
-4.73047
  0
LINE
  8
0
 10
33.8892
 20
-4.73047
 11
33.9823
 21
-4.60233
  0
LINE
  8
0
 10
33.9823
 20
-4.60233
 11
34.0312
 21
-4.45169
  0
LINE
  8
0
 10
34.0312
 20
-4.45169
 11
34.0312
 21
-1.79333
  0
LINE
  8
0
 10
34.0312
 20
-1.79333
 11
33.9823
 21
-1.6427
  0
LINE
  8
0
 10
33.9823
 20
-1.6427
 11
33.8892
 21
-1.51456
  0
LINE
  8
0
 10
33.8892
 20
-1.51456
 11
33.7611
 21
-1.42146
  0
LINE
  8
0
 10
33.7611
 20
-1.42146
 11
33.6104
 21
-1.37251
  0
LINE
  8
0
 10
33.6104
 20
-1.37251
 11
32.3552
 21
-1.37251
  0
LINE
  8
0
 10
32.3552
 20
-1.37251
 11
32.3175
 21
-1.36029
  0
LINE
  8
0
 10
32.3175
 20
-1.36029
 11
32.2855
 21
-1.33701
  0
LINE
  8
0
 10
32.2855
 20
-1.33701
 11
32.2622
 21
-1.30498
  0
LINE
  8
0
 10
32.2622
 20
-1.30498
 11
32.25
 21
-1.26732
  0
LINE
  8
0
 10
32.25
 20
-1.26732
 11
32.25
 21
3.02228
  0
LINE
  8
0
 10
32.25
 20
3.02228
 11
32.2622
 21
3.05994
  0
LINE
  8
0
 10
32.2622
 20
3.05994
 11
32.2855
 21
3.09196
  0
LINE
  8
0
 10
32.2855
 20
3.09196
 11
32.3176
 21
3.11525
  0
LINE
  8
0
 10
32.3176
 20
3.11525
 11
32.3552
 21
3.12749
  0
LINE
  8
0
 10
32.3552
 20
3.12749
 11
32.926
 21
3.12749
  0
LINE
  8
0
 10
32.926
 20
3.12749
 11
32.9637
 21
3.11525
  0
LINE
  8
0
 10
32.9637
 20
3.11525
 11
32.9957
 21
3.09196
  0
LINE
  8
0
 10
32.9957
 20
3.09196
 11
33.019
 21
3.05994
  0
LINE
  8
0
 10
33.019
 20
3.05994
 11
33.0312
 21
3.02228
  0
LINE
  8
0
 10
33.0312
 20
3.02228
 11
33.0312
 21
2.54831
  0
LINE
  8
0
 10
33.0312
 20
2.54831
 11
33.0802
 21
2.39767
  0
LINE
  8
0
 10
33.0802
 20
2.39767
 11
33.1733
 21
2.26953
  0
LINE
  8
0
 10
33.1733
 20
2.26953
 11
33.3014
 21
2.17644
  0
LINE
  8
0
 10
33.3014
 20
2.17644
 11
33.4521
 21
2.12749
  0
LINE
  8
0
 10
33.4521
 20
2.12749
 11
33.6104
 21
2.12749
  0
LINE
  8
0
 10
33.6104
 20
2.12749
 11
33.7611
 21
2.17644
  0
LINE
  8
0
 10
33.7611
 20
2.17644
 11
33.8892
 21
2.26953
  0
LINE
  8
0
 10
33.8892
 20
2.26953
 11
33.9823
 21
2.39767
  0
LINE
  8
0
 10
33.9823
 20
2.39767
 11
34.0312
 21
2.54831
  0
LINE
  8
0
 10
34.0312
 20
2.54831
 11
34.0312
 21
5.20667
  0
LINE
  8
0
 10
34.0312
 20
5.20667
 11
33.9823
 21
5.3573
  0
LINE
  8
0
 10
33.9823
 20
5.3573
 11
33.8892
 21
5.48544
  0
LINE
  8
0
 10
33.8892
 20
5.48544
 11
33.7611
 21
5.57854
  0
LINE
  8
0
 10
33.7611
 20
5.57854
 11
33.6104
 21
5.62749
  0
LINE
  8
0
 10
33.6104
 20
5.62749
 11
32.3552
 21
5.62749
  0
LINE
  8
0
 10
32.3552
 20
5.62749
 11
32.3175
 21
5.63971
  0
LINE
  8
0
 10
32.3175
 20
5.63971
 11
32.2855
 21
5.66299
  0
LINE
  8
0
 10
32.2855
 20
5.66299
 11
32.2622
 21
5.69502
  0
LINE
  8
0
 10
32.2622
 20
5.69502
 11
32.25
 21
5.73268
  0
LINE
  8
0
 10
32.25
 20
5.73268
 11
32.25
 21
7.87749
  0
LINE
  8
0
 10
32.25
 20
7.87749
 11
-44.75
 21
7.87749
  0
LINE
  8
0
 10
-44.75
 20
7.87749
 11
-44.75
 21
5.73268
  0
LINE
  8
0
 10
-44.75
 20
5.73268
 11
-44.7622
 21
5.69502
  0
LINE
  8
0
 10
-44.7622
 20
5.69502
 11
-44.7855
 21
5.66299
  0
LINE
  8
0
 10
-44.7855
 20
5.66299
 11
-44.8175
 21
5.63971
  0
LINE
  8
0
 10
-44.8175
 20
5.63971
 11
-44.8552
 21
5.62749
  0
LINE
  8
0
 10
-44.8552
 20
5.62749
 11
-46.1104
 21
5.62749
  0
LINE
  8
0
 10
-46.1104
 20
5.62749
 11
-46.2611
 21
5.57854
  0
LINE
  8
0
 10
-46.2611
 20
5.57854
 11
-46.3892
 21
5.48544
  0
LINE
  8
0
 10
-46.3892
 20
5.48544
 11
-46.4823
 21
5.3573
  0
LINE
  8
0
 10
-46.4823
 20
5.3573
 11
-46.5312
 21
5.20667
  0
LINE
  8
0
 10
-46.5312
 20
5.20667
 11
-46.5312
 21
2.54831
  0
LINE
  8
0
 10
-46.5312
 20
2.54831
 11
-46.4823
 21
2.39767
  0
LINE
  8
0
 10
-46.4823
 20
2.39767
 11
-46.3892
 21
2.26953
  0
LINE
  8
0
 10
-46.3892
 20
2.26953
 11
-46.2611
 21
2.17644
  0
LINE
  8
0
 10
-46.2611
 20
2.17644
 11
-46.1104
 21
2.12749
  0
LINE
  8
0
 10
-46.1104
 20
2.12749
 11
-45.9521
 21
2.12749
  0
LINE
  8
0
 10
-45.9521
 20
2.12749
 11
-45.8014
 21
2.17644
  0
LINE
  8
0
 10
-45.8014
 20
2.17644
 11
-45.6733
 21
2.26953
  0
LINE
  8
0
 10
-45.6733
 20
2.26953
 11
-45.5802
 21
2.39767
  0
LINE
  8
0
 10
-45.5802
 20
2.39767
 11
-45.5312
 21
2.54831
  0
LINE
  8
0
 10
-45.5312
 20
2.54831
 11
-45.5312
 21
3.02228
  0
LINE
  8
0
 10
-45.5312
 20
3.02228
 11
-45.519
 21
3.05994
  0
LINE
  8
0
 10
-45.519
 20
3.05994
 11
-45.4957
 21
3.09196
  0
LINE
  8
0
 10
-45.4957
 20
3.09196
 11
-45.4637
 21
3.11525
  0
LINE
  8
0
 10
-45.4637
 20
3.11525
 11
-45.426
 21
3.12749
  0
LINE
  8
0
 10
-45.426
 20
3.12749
 11
-44.8552
 21
3.12749
  0
LINE
  8
0
 10
-44.8552
 20
3.12749
 11
-44.8176
 21
3.11525
  0
LINE
  8
0
 10
-44.8176
 20
3.11525
 11
-44.7855
 21
3.09196
  0
LINE
  8
0
 10
-44.7855
 20
3.09196
 11
-44.7622
 21
3.05994
  0
LINE
  8
0
 10
-44.7622
 20
3.05994
 11
-44.75
 21
3.02228
  0
LINE
  8
0
 10
-44.75
 20
3.02228
 11
-44.75
 21
-1.26732
  0
LINE
  8
0
 10
-44.75
 20
-1.26732
 11
-44.7622
 21
-1.30498
  0
LINE
  8
0
 10
-44.7622
 20
-1.30498
 11
-44.7855
 21
-1.33701
  0
LINE
  8
0
 10
-44.7855
 20
-1.33701
 11
-44.8175
 21
-1.36029
  0
LINE
  8
0
 10
-44.8175
 20
-1.36029
 11
-44.8552
 21
-1.37251
  0
LINE
  8
0
 10
-44.8552
 20
-1.37251
 11
-46.1104
 21
-1.37251
  0
LINE
  8
0
 10
-46.1104
 20
-1.37251
 11
-46.2611
 21
-1.42146
  0
LINE
  8
0
 10
-46.2611
 20
-1.42146
 11
-46.3892
 21
-1.51456
  0
LINE
  8
0
 10
-46.3892
 20
-1.51456
 11
-46.4823
 21
-1.6427
  0
LINE
  8
0
 10
-46.4823
 20
-1.6427
 11
-46.5312
 21
-1.79333
  0
LINE
  8
0
 10
-46.5312
 20
-1.79333
 11
-46.5312
 21
-4.45169
  0
LINE
  8
0
 10
-46.5312
 20
-4.45169
 11
-46.4823
 21
-4.60233
  0
LINE
  8
0
 10
-46.4823
 20
-4.60233
 11
-46.3892
 21
-4.73047
  0
LINE
  8
0
 10
-46.3892
 20
-4.73047
 11
-46.2611
 21
-4.82356
  0
LINE
  8
0
 10
-46.2611
 20
-4.82356
 11
-46.1104
 21
-4.87251
  0
LINE
  8
0
 10
-46.1104
 20
-4.87251
 11
-45.9521
 21
-4.87251
  0
LINE
  8
0
 10
-45.9521
 20
-4.87251
 11
-45.8014
 21
-4.82356
  0
LINE
  8
0
 10
-36.9062
 20
-3.40376
 11
-36.9062
 21
-2.59126
  0
LINE
  8
0
 10
-36.9062
 20
-2.59126
 11
-33.3438
 21
-2.59126
  0
LINE
  8
0
 10
-33.3438
 20
-2.59126
 11
-33.3438
 21
-3.40376
  0
LINE
  8
0
 10
-33.3438
 20
-3.40376
 11
-36.9062
 21
-3.40376
  0
LINE
  8
0
 10
-17.6562
 20
-3.40376
 11
-17.6562
 21
-2.59126
  0
LINE
  8
0
 10
-17.6562
 20
-2.59126
 11
-14.0938
 21
-2.59126
  0
LINE
  8
0
 10
-14.0938
 20
-2.59126
 11
-14.0938
 21
-3.40376
  0
LINE
  8
0
 10
-14.0938
 20
-3.40376
 11
-17.6562
 21
-3.40376
  0
LINE
  8
0
 10
1.59375
 20
-3.40376
 11
1.59375
 21
-2.59126
  0
LINE
  8
0
 10
1.59375
 20
-2.59126
 11
5.15625
 21
-2.59126
  0
LINE
  8
0
 10
5.15625
 20
-2.59126
 11
5.15625
 21
-3.40376
  0
LINE
  8
0
 10
5.15625
 20
-3.40376
 11
1.59375
 21
-3.40376
  0
LINE
  8
0
 10
20.8438
 20
-3.40376
 11
20.8438
 21
-2.59126
  0
LINE
  8
0
 10
20.8438
 20
-2.59126
 11
24.4062
 21
-2.59126
  0
LINE
  8
0
 10
24.4062
 20
-2.59126
 11
24.4062
 21
-3.40376
  0
LINE
  8
0
 10
24.4062
 20
-3.40376
 11
20.8438
 21
-3.40376
  0
LINE
  8
0
 10
-45.8014
 20
-17.8285
 11
-45.6733
 21
-17.7354
  0
LINE
  8
0
 10
-45.6733
 20
-17.7354
 11
-45.5802
 21
-17.6073
  0
LINE
  8
0
 10
-45.5802
 20
-17.6073
 11
-45.5312
 21
-17.4567
  0
LINE
  8
0
 10
-45.5312
 20
-17.4567
 11
-45.5312
 21
-16.9827
  0
LINE
  8
0
 10
-45.5312
 20
-16.9827
 11
-45.519
 21
-16.945
  0
LINE
  8
0
 10
-45.519
 20
-16.945
 11
-45.4957
 21
-16.913
  0
LINE
  8
0
 10
-45.4957
 20
-16.913
 11
-45.4637
 21
-16.8897
  0
LINE
  8
0
 10
-45.4637
 20
-16.8897
 11
-45.426
 21
-16.8775
  0
LINE
  8
0
 10
-45.426
 20
-16.8775
 11
-44.8552
 21
-16.8775
  0
LINE
  8
0
 10
-44.8552
 20
-16.8775
 11
-44.8176
 21
-16.8897
  0
LINE
  8
0
 10
-44.8176
 20
-16.8897
 11
-44.7855
 21
-16.913
  0
LINE
  8
0
 10
-44.7855
 20
-16.913
 11
-44.7622
 21
-16.945
  0
LINE
  8
0
 10
-44.7622
 20
-16.945
 11
-44.75
 21
-16.9827
  0
LINE
  8
0
 10
-44.75
 20
-16.9827
 11
-44.75
 21
-17.8775
  0
LINE
  8
0
 10
-44.75
 20
-17.8775
 11
32.25
 21
-17.8775
  0
LINE
  8
0
 10
32.25
 20
-17.8775
 11
32.25
 21
-16.9827
  0
LINE
  8
0
 10
32.25
 20
-16.9827
 11
32.2622
 21
-16.945
  0
LINE
  8
0
 10
32.2622
 20
-16.945
 11
32.2855
 21
-16.913
  0
LINE
  8
0
 10
32.2855
 20
-16.913
 11
32.3176
 21
-16.8897
  0
LINE
  8
0
 10
32.3176
 20
-16.8897
 11
32.3552
 21
-16.8775
  0
LINE
  8
0
 10
32.3552
 20
-16.8775
 11
32.926
 21
-16.8775
  0
LINE
  8
0
 10
32.926
 20
-16.8775
 11
32.9637
 21
-16.8897
  0
LINE
  8
0
 10
32.9637
 20
-16.8897
 11
32.9957
 21
-16.913
  0
LINE
  8
0
 10
32.9957
 20
-16.913
 11
33.019
 21
-16.945
  0
LINE
  8
0
 10
33.019
 20
-16.945
 11
33.0312
 21
-16.9827
  0
LINE
  8
0
 10
33.0312
 20
-16.9827
 11
33.0312
 21
-17.4567
  0
LINE
  8
0
 10
33.0312
 20
-17.4567
 11
33.0802
 21
-17.6073
  0
LINE
  8
0
 10
33.0802
 20
-17.6073
 11
33.1733
 21
-17.7354
  0
LINE
  8
0
 10
33.1733
 20
-17.7354
 11
33.3014
 21
-17.8285
  0
LINE
  8
0
 10
33.3014
 20
-17.8285
 11
33.4521
 21
-17.8775
  0
LINE
  8
0
 10
33.4521
 20
-17.8775
 11
33.6104
 21
-17.8775
  0
LINE
  8
0
 10
33.6104
 20
-17.8775
 11
33.7611
 21
-17.8285
  0
LINE
  8
0
 10
33.7611
 20
-17.8285
 11
33.8892
 21
-17.7354
  0
LINE
  8
0
 10
33.8892
 20
-17.7354
 11
33.9823
 21
-17.6073
  0
LINE
  8
0
 10
33.9823
 20
-17.6073
 11
34.0312
 21
-17.4567
  0
LINE
  8
0
 10
34.0312
 20
-17.4567
 11
34.0312
 21
-14.7983
  0
LINE
  8
0
 10
34.0312
 20
-14.7983
 11
33.9823
 21
-14.6477
  0
LINE
  8
0
 10
33.9823
 20
-14.6477
 11
33.8892
 21
-14.5195
  0
LINE
  8
0
 10
33.8892
 20
-14.5195
 11
33.7611
 21
-14.4264
  0
LINE
  8
0
 10
33.7611
 20
-14.4264
 11
33.6104
 21
-14.3775
  0
LINE
  8
0
 10
33.6104
 20
-14.3775
 11
32.3552
 21
-14.3775
  0
LINE
  8
0
 10
32.3552
 20
-14.3775
 11
32.3175
 21
-14.3653
  0
LINE
  8
0
 10
32.3175
 20
-14.3653
 11
32.2855
 21
-14.342
  0
LINE
  8
0
 10
32.2855
 20
-14.342
 11
32.2622
 21
-14.31
  0
LINE
  8
0
 10
32.2622
 20
-14.31
 11
32.25
 21
-14.2723
  0
LINE
  8
0
 10
32.25
 20
-14.2723
 11
32.25
 21
-9.9827
  0
LINE
  8
0
 10
32.25
 20
-9.9827
 11
32.2622
 21
-9.94504
  0
LINE
  8
0
 10
32.2622
 20
-9.94504
 11
32.2855
 21
-9.91301
  0
LINE
  8
0
 10
32.2855
 20
-9.91301
 11
32.3176
 21
-9.88972
  0
LINE
  8
0
 10
32.3176
 20
-9.88972
 11
32.3552
 21
-9.87749
  0
LINE
  8
0
 10
32.3552
 20
-9.87749
 11
32.926
 21
-9.87749
  0
LINE
  8
0
 10
32.926
 20
-9.87749
 11
32.9637
 21
-9.88972
  0
LINE
  8
0
 10
32.9637
 20
-9.88972
 11
32.9957
 21
-9.91301
  0
LINE
  8
0
 10
32.9957
 20
-9.91301
 11
33.019
 21
-9.94504
  0
LINE
  8
0
 10
33.019
 20
-9.94504
 11
33.0312
 21
-9.9827
  0
LINE
  8
0
 10
33.0312
 20
-9.9827
 11
33.0312
 21
-10.4567
  0
LINE
  8
0
 10
33.0312
 20
-10.4567
 11
33.0802
 21
-10.6073
  0
LINE
  8
0
 10
33.0802
 20
-10.6073
 11
33.1733
 21
-10.7354
  0
LINE
  8
0
 10
33.1733
 20
-10.7354
 11
33.3014
 21
-10.8285
  0
LINE
  8
0
 10
33.3014
 20
-10.8285
 11
33.4521
 21
-10.8775
  0
LINE
  8
0
 10
33.4521
 20
-10.8775
 11
33.6104
 21
-10.8775
  0
LINE
  8
0
 10
33.6104
 20
-10.8775
 11
33.7611
 21
-10.8285
  0
LINE
  8
0
 10
33.7611
 20
-10.8285
 11
33.8892
 21
-10.7354
  0
LINE
  8
0
 10
33.8892
 20
-10.7354
 11
33.9823
 21
-10.6073
  0
LINE
  8
0
 10
33.9823
 20
-10.6073
 11
34.0312
 21
-10.4567
  0
LINE
  8
0
 10
34.0312
 20
-10.4567
 11
34.0312
 21
-7.79831
  0
LINE
  8
0
 10
34.0312
 20
-7.79831
 11
33.9823
 21
-7.64767
  0
LINE
  8
0
 10
33.9823
 20
-7.64767
 11
33.8892
 21
-7.51953
  0
LINE
  8
0
 10
33.8892
 20
-7.51953
 11
33.7611
 21
-7.42644
  0
LINE
  8
0
 10
33.7611
 20
-7.42644
 11
33.6104
 21
-7.37749
  0
LINE
  8
0
 10
33.6104
 20
-7.37749
 11
32.3552
 21
-7.37749
  0
LINE
  8
0
 10
32.3552
 20
-7.37749
 11
32.3175
 21
-7.36526
  0
LINE
  8
0
 10
32.3175
 20
-7.36526
 11
32.2855
 21
-7.34198
  0
LINE
  8
0
 10
32.2855
 20
-7.34198
 11
32.2622
 21
-7.30995
  0
LINE
  8
0
 10
32.2622
 20
-7.30995
 11
32.25
 21
-7.27229
  0
LINE
  8
0
 10
32.25
 20
-7.27229
 11
32.25
 21
-5.12749
  0
LINE
  8
0
 10
32.25
 20
-5.12749
 11
-44.75
 21
-5.12749
  0
LINE
  8
0
 10
-44.75
 20
-5.12749
 11
-44.75
 21
-7.27229
  0
LINE
  8
0
 10
-44.75
 20
-7.27229
 11
-44.7622
 21
-7.30995
  0
LINE
  8
0
 10
-44.7622
 20
-7.30995
 11
-44.7855
 21
-7.34198
  0
LINE
  8
0
 10
-44.7855
 20
-7.34198
 11
-44.8175
 21
-7.36526
  0
LINE
  8
0
 10
-44.8175
 20
-7.36526
 11
-44.8552
 21
-7.37749
  0
LINE
  8
0
 10
-44.8552
 20
-7.37749
 11
-46.1104
 21
-7.37749
  0
LINE
  8
0
 10
-46.1104
 20
-7.37749
 11
-46.2611
 21
-7.42644
  0
LINE
  8
0
 10
-46.2611
 20
-7.42644
 11
-46.3892
 21
-7.51953
  0
LINE
  8
0
 10
-46.3892
 20
-7.51953
 11
-46.4823
 21
-7.64767
  0
LINE
  8
0
 10
-46.4823
 20
-7.64767
 11
-46.5312
 21
-7.79831
  0
LINE
  8
0
 10
-46.5312
 20
-7.79831
 11
-46.5312
 21
-10.4567
  0
LINE
  8
0
 10
-46.5312
 20
-10.4567
 11
-46.4823
 21
-10.6073
  0
LINE
  8
0
 10
-46.4823
 20
-10.6073
 11
-46.3892
 21
-10.7354
  0
LINE
  8
0
 10
-46.3892
 20
-10.7354
 11
-46.2611
 21
-10.8285
  0
LINE
  8
0
 10
-46.2611
 20
-10.8285
 11
-46.1104
 21
-10.8775
  0
LINE
  8
0
 10
-46.1104
 20
-10.8775
 11
-45.9521
 21
-10.8775
  0
LINE
  8
0
 10
-45.9521
 20
-10.8775
 11
-45.8014
 21
-10.8285
  0
LINE
  8
0
 10
-45.8014
 20
-10.8285
 11
-45.6733
 21
-10.7354
  0
LINE
  8
0
 10
-45.6733
 20
-10.7354
 11
-45.5802
 21
-10.6073
  0
LINE
  8
0
 10
-45.5802
 20
-10.6073
 11
-45.5312
 21
-10.4567
  0
LINE
  8
0
 10
-45.5312
 20
-10.4567
 11
-45.5312
 21
-9.9827
  0
LINE
  8
0
 10
-45.5312
 20
-9.9827
 11
-45.519
 21
-9.94504
  0
LINE
  8
0
 10
-45.519
 20
-9.94504
 11
-45.4957
 21
-9.91301
  0
LINE
  8
0
 10
-45.4957
 20
-9.91301
 11
-45.4637
 21
-9.88972
  0
LINE
  8
0
 10
-45.4637
 20
-9.88972
 11
-45.426
 21
-9.87749
  0
LINE
  8
0
 10
-45.426
 20
-9.87749
 11
-44.8552
 21
-9.87749
  0
LINE
  8
0
 10
-44.8552
 20
-9.87749
 11
-44.8176
 21
-9.88972
  0
LINE
  8
0
 10
-44.8176
 20
-9.88972
 11
-44.7855
 21
-9.91301
  0
LINE
  8
0
 10
-44.7855
 20
-9.91301
 11
-44.7622
 21
-9.94504
  0
LINE
  8
0
 10
-44.7622
 20
-9.94504
 11
-44.75
 21
-9.9827
  0
LINE
  8
0
 10
-44.75
 20
-9.9827
 11
-44.75
 21
-14.2723
  0
LINE
  8
0
 10
-44.75
 20
-14.2723
 11
-44.7622
 21
-14.31
  0
LINE
  8
0
 10
-44.7622
 20
-14.31
 11
-44.7855
 21
-14.342
  0
LINE
  8
0
 10
-44.7855
 20
-14.342
 11
-44.8175
 21
-14.3653
  0
LINE
  8
0
 10
-44.8175
 20
-14.3653
 11
-44.8552
 21
-14.3775
  0
LINE
  8
0
 10
-44.8552
 20
-14.3775
 11
-46.1104
 21
-14.3775
  0
LINE
  8
0
 10
-46.1104
 20
-14.3775
 11
-46.2611
 21
-14.4264
  0
LINE
  8
0
 10
-46.2611
 20
-14.4264
 11
-46.3892
 21
-14.5195
  0
LINE
  8
0
 10
-46.3892
 20
-14.5195
 11
-46.4823
 21
-14.6477
  0
LINE
  8
0
 10
-46.4823
 20
-14.6477
 11
-46.5312
 21
-14.7983
  0
LINE
  8
0
 10
-46.5312
 20
-14.7983
 11
-46.5312
 21
-17.4567
  0
LINE
  8
0
 10
-46.5312
 20
-17.4567
 11
-46.4823
 21
-17.6073
  0
LINE
  8
0
 10
-46.4823
 20
-17.6073
 11
-46.3892
 21
-17.7354
  0
LINE
  8
0
 10
-46.3892
 20
-17.7354
 11
-46.2611
 21
-17.8285
  0
LINE
  8
0
 10
-46.2611
 20
-17.8285
 11
-46.1104
 21
-17.8775
  0
LINE
  8
0
 10
-46.1104
 20
-17.8775
 11
-45.9521
 21
-17.8775
  0
LINE
  8
0
 10
-45.9521
 20
-17.8775
 11
-45.8014
 21
-17.8285
  0
LINE
  8
0
 10
20.8438
 20
-16.4087
 11
20.8438
 21
-15.5962
  0
LINE
  8
0
 10
20.8438
 20
-15.5962
 11
24.4062
 21
-15.5962
  0
LINE
  8
0
 10
24.4062
 20
-15.5962
 11
24.4062
 21
-16.4087
  0
LINE
  8
0
 10
24.4062
 20
-16.4087
 11
20.8438
 21
-16.4087
  0
LINE
  8
0
 10
-36.9062
 20
-16.4087
 11
-36.9062
 21
-15.5962
  0
LINE
  8
0
 10
-36.9062
 20
-15.5962
 11
-33.3438
 21
-15.5962
  0
LINE
  8
0
 10
-33.3438
 20
-15.5962
 11
-33.3438
 21
-16.4087
  0
LINE
  8
0
 10
-33.3438
 20
-16.4087
 11
-36.9062
 21
-16.4087
  0
LINE
  8
0
 10
-17.6562
 20
-16.4087
 11
-17.6562
 21
-15.5962
  0
LINE
  8
0
 10
-17.6562
 20
-15.5962
 11
-14.0938
 21
-15.5962
  0
LINE
  8
0
 10
-14.0938
 20
-15.5962
 11
-14.0938
 21
-16.4087
  0
LINE
  8
0
 10
-14.0938
 20
-16.4087
 11
-17.6562
 21
-16.4087
  0
LINE
  8
0
 10
1.59375
 20
-16.4087
 11
1.59375
 21
-15.5962
  0
LINE
  8
0
 10
1.59375
 20
-15.5962
 11
5.15625
 21
-15.5962
  0
LINE
  8
0
 10
5.15625
 20
-15.5962
 11
5.15625
 21
-16.4087
  0
LINE
  8
0
 10
5.15625
 20
-16.4087
 11
1.59375
 21
-16.4087
  0
LINE
  8
0
 10
32.25
 20
-18.3725
 11
-44.75
 21
-18.3725
  0
LINE
  8
0
 10
-44.75
 20
-18.3725
 11
-44.75
 21
-19.8725
  0
LINE
  8
0
 10
-44.75
 20
-19.8725
 11
32.25
 21
-19.8725
  0
LINE
  8
0
 10
32.25
 20
-19.8725
 11
32.25
 21
-18.3725
  0
LINE
  8
0
 10
32.25
 20
-20.1275
 11
-44.75
 21
-20.1275
  0
LINE
  8
0
 10
-44.75
 20
-20.1275
 11
-44.75
 21
-21.6275
  0
LINE
  8
0
 10
-44.75
 20
-21.6275
 11
32.25
 21
-21.6275
  0
LINE
  8
0
 10
32.25
 20
-21.6275
 11
32.25
 21
-20.1275
  0
ENDSEC
  0
SECTION
  2
OBJECTS
  0
DICTIONARY
  0
ENDSEC
  0
EOF
