  0
SECTION
  2
BLOCKS
  0
ENDSEC
  0
SECTION
  2
ENTITIES
  0
LINE
  8
0
 10
-1.02693
 20
15.3793
 11
-0.962021
 21
15.3878
  0
LINE
  8
0
 10
-0.962021
 20
15.3878
 11
-0.897812
 21
15.4006
  0
LINE
  8
0
 10
-0.897812
 20
15.4006
 11
-0.834564
 21
15.4175
  0
LINE
  8
0
 10
-0.834564
 20
15.4175
 11
-0.772568
 21
15.4386
  0
LINE
  8
0
 10
-0.772568
 20
15.4386
 11
-0.712082
 21
15.4636
  0
LINE
  8
0
 10
-0.712082
 20
15.4636
 11
-0.653351
 21
15.4926
  0
LINE
  8
0
 10
-0.653351
 20
15.4926
 11
-0.596664
 21
15.5253
  0
LINE
  8
0
 10
-0.596664
 20
15.5253
 11
-0.542221
 21
15.5617
  0
LINE
  8
0
 10
-0.542221
 20
15.5617
 11
-0.49028
 21
15.6016
  0
LINE
  8
0
 10
-0.49028
 20
15.6016
 11
-0.441055
 21
15.6447
  0
LINE
  8
0
 10
-0.441055
 20
15.6447
 11
-0.39476
 21
15.691
  0
LINE
  8
0
 10
-0.39476
 20
15.691
 11
-0.351578
 21
15.7403
  0
LINE
  8
0
 10
-0.351578
 20
15.7403
 11
-0.311722
 21
15.7922
  0
LINE
  8
0
 10
-0.311722
 20
15.7922
 11
-0.275345
 21
15.8466
  0
LINE
  8
0
 10
-0.275345
 20
15.8466
 11
-0.242615
 21
15.9033
  0
LINE
  8
0
 10
-0.242615
 20
15.9033
 11
-0.213654
 21
15.9621
  0
LINE
  8
0
 10
-0.213654
 20
15.9621
 11
-0.188599
 21
16.0226
  0
LINE
  8
0
 10
-0.188599
 20
16.0226
 11
-0.167557
 21
16.0845
  0
LINE
  8
0
 10
-0.167557
 20
16.0845
 11
-0.150604
 21
16.1478
  0
LINE
  8
0
 10
-0.150604
 20
16.1478
 11
-0.137833
 21
16.212
  0
LINE
  8
0
 10
-0.137833
 20
16.212
 11
-0.129288
 21
16.2769
  0
LINE
  8
0
 10
-0.129288
 20
16.2769
 11
-0.125
 21
16.3423
  0
LINE
  8
0
 10
-0.125
 20
16.3423
 11
-0.125
 21
20.375
  0
LINE
  8
0
 10
-0.125
 20
20.375
 11
-46.875
 21
20.375
  0
LINE
  8
0
 10
-46.875
 20
20.375
 11
-46.875
 21
16.3423
  0
LINE
  8
0
 10
-46.875
 20
16.3423
 11
-46.8707
 21
16.2769
  0
LINE
  8
0
 10
-46.8707
 20
16.2769
 11
-46.8622
 21
16.212
  0
LINE
  8
0
 10
-46.8622
 20
16.212
 11
-46.8494
 21
16.1478
  0
LINE
  8
0
 10
-46.8494
 20
16.1478
 11
-46.8324
 21
16.0846
  0
LINE
  8
0
 10
-46.8324
 20
16.0846
 11
-46.8114
 21
16.0226
  0
LINE
  8
0
 10
-46.8114
 20
16.0226
 11
-46.7863
 21
15.9621
  0
LINE
  8
0
 10
-46.7863
 20
15.9621
 11
-46.7574
 21
15.9034
  0
LINE
  8
0
 10
-46.7574
 20
15.9034
 11
-46.7247
 21
15.8467
  0
LINE
  8
0
 10
-46.7247
 20
15.8467
 11
-46.6883
 21
15.7922
  0
LINE
  8
0
 10
-46.6883
 20
15.7922
 11
-46.6484
 21
15.7403
  0
LINE
  8
0
 10
-46.6484
 20
15.7403
 11
-46.6052
 21
15.6911
  0
LINE
  8
0
 10
-46.6052
 20
15.6911
 11
-46.5589
 21
15.6448
  0
LINE
  8
0
 10
-46.5589
 20
15.6448
 11
-46.5097
 21
15.6016
  0
LINE
  8
0
 10
-46.5097
 20
15.6016
 11
-46.4578
 21
15.5617
  0
LINE
  8
0
 10
-46.4578
 20
15.5617
 11
-46.4033
 21
15.5253
  0
LINE
  8
0
 10
-46.4033
 20
15.5253
 11
-46.3466
 21
15.4926
  0
LINE
  8
0
 10
-46.3466
 20
15.4926
 11
-46.2879
 21
15.4637
  0
LINE
  8
0
 10
-46.2879
 20
15.4637
 11
-46.2274
 21
15.4386
  0
LINE
  8
0
 10
-46.2274
 20
15.4386
 11
-46.1654
 21
15.4176
  0
LINE
  8
0
 10
-46.1654
 20
15.4176
 11
-46.1022
 21
15.4006
  0
LINE
  8
0
 10
-46.1022
 20
15.4006
 11
-46.038
 21
15.3878
  0
LINE
  8
0
 10
-46.038
 20
15.3878
 11
-45.9731
 21
15.3793
  0
LINE
  8
0
 10
-45.9731
 20
15.3793
 11
-45.9077
 21
15.375
  0
LINE
  8
0
 10
-45.9077
 20
15.375
 11
-1.09227
 21
15.375
  0
LINE
  8
0
 10
-1.09227
 20
15.375
 11
-1.02693
 21
15.3793
  0
LINE
  8
0
 10
-43.7316
 20
17.7579
 11
-43.7603
 21
17.7733
  0
LINE
  8
0
 10
-43.7603
 20
17.7733
 11
-43.7842
 21
17.7957
  0
LINE
  8
0
 10
-43.7842
 20
17.7957
 11
-43.8014
 21
17.8234
  0
LINE
  8
0
 10
-43.8014
 20
17.8234
 11
-43.8109
 21
17.8546
  0
LINE
  8
0
 10
-43.8109
 20
17.8546
 11
-43.812
 21
17.8873
  0
LINE
  8
0
 10
-43.812
 20
17.8873
 11
-43.8046
 21
17.9191
  0
LINE
  8
0
 10
-43.8046
 20
17.9191
 11
-43.7892
 21
17.9478
  0
LINE
  8
0
 10
-43.7892
 20
17.9478
 11
-43.7668
 21
17.9717
  0
LINE
  8
0
 10
-43.7668
 20
17.9717
 11
-43.7391
 21
17.9889
  0
LINE
  8
0
 10
-43.7391
 20
17.9889
 11
-43.7079
 21
17.9984
  0
LINE
  8
0
 10
-43.7079
 20
17.9984
 11
-43.6752
 21
17.9995
  0
LINE
  8
0
 10
-43.6752
 20
17.9995
 11
-43.6434
 21
17.9921
  0
LINE
  8
0
 10
-43.6434
 20
17.9921
 11
-43.6146
 21
17.9767
  0
LINE
  8
0
 10
-43.6146
 20
17.9767
 11
-43.5908
 21
17.9543
  0
LINE
  8
0
 10
-43.5908
 20
17.9543
 11
-43.5736
 21
17.9266
  0
LINE
  8
0
 10
-43.5736
 20
17.9266
 11
-43.5641
 21
17.8954
  0
LINE
  8
0
 10
-43.5641
 20
17.8954
 11
-43.563
 21
17.8627
  0
LINE
  8
0
 10
-43.563
 20
17.8627
 11
-43.5704
 21
17.8309
  0
LINE
  8
0
 10
-43.5704
 20
17.8309
 11
-43.5858
 21
17.8022
  0
LINE
  8
0
 10
-43.5858
 20
17.8022
 11
-43.6082
 21
17.7783
  0
LINE
  8
0
 10
-43.6082
 20
17.7783
 11
-43.6359
 21
17.7611
  0
LINE
  8
0
 10
-43.6359
 20
17.7611
 11
-43.6671
 21
17.7516
  0
LINE
  8
0
 10
-43.6671
 20
17.7516
 11
-43.6998
 21
17.7505
  0
LINE
  8
0
 10
-43.6998
 20
17.7505
 11
-43.7316
 21
17.7579
  0
LINE
  8
0
 10
-37.3566
 20
17.7579
 11
-37.3853
 21
17.7733
  0
LINE
  8
0
 10
-37.3853
 20
17.7733
 11
-37.4092
 21
17.7957
  0
LINE
  8
0
 10
-37.4092
 20
17.7957
 11
-37.4264
 21
17.8234
  0
LINE
  8
0
 10
-37.4264
 20
17.8234
 11
-37.4359
 21
17.8546
  0
LINE
  8
0
 10
-37.4359
 20
17.8546
 11
-37.437
 21
17.8873
  0
LINE
  8
0
 10
-37.437
 20
17.8873
 11
-37.4296
 21
17.9191
  0
LINE
  8
0
 10
-37.4296
 20
17.9191
 11
-37.4142
 21
17.9478
  0
LINE
  8
0
 10
-37.4142
 20
17.9478
 11
-37.3918
 21
17.9717
  0
LINE
  8
0
 10
-37.3918
 20
17.9717
 11
-37.3641
 21
17.9889
  0
LINE
  8
0
 10
-37.3641
 20
17.9889
 11
-37.3329
 21
17.9984
  0
LINE
  8
0
 10
-37.3329
 20
17.9984
 11
-37.3002
 21
17.9995
  0
LINE
  8
0
 10
-37.3002
 20
17.9995
 11
-37.2684
 21
17.9921
  0
LINE
  8
0
 10
-37.2684
 20
17.9921
 11
-37.2396
 21
17.9767
  0
LINE
  8
0
 10
-37.2396
 20
17.9767
 11
-37.2158
 21
17.9543
  0
LINE
  8
0
 10
-37.2158
 20
17.9543
 11
-37.1986
 21
17.9266
  0
LINE
  8
0
 10
-37.1986
 20
17.9266
 11
-37.1891
 21
17.8954
  0
LINE
  8
0
 10
-37.1891
 20
17.8954
 11
-37.188
 21
17.8627
  0
LINE
  8
0
 10
-37.188
 20
17.8627
 11
-37.1954
 21
17.8309
  0
LINE
  8
0
 10
-37.1954
 20
17.8309
 11
-37.2108
 21
17.8022
  0
LINE
  8
0
 10
-37.2108
 20
17.8022
 11
-37.2332
 21
17.7783
  0
LINE
  8
0
 10
-37.2332
 20
17.7783
 11
-37.2609
 21
17.7611
  0
LINE
  8
0
 10
-37.2609
 20
17.7611
 11
-37.2921
 21
17.7516
  0
LINE
  8
0
 10
-37.2921
 20
17.7516
 11
-37.3248
 21
17.7505
  0
LINE
  8
0
 10
-37.3248
 20
17.7505
 11
-37.3566
 21
17.7579
  0
LINE
  8
0
 10
45.9731
 20
15.3793
 11
46.038
 21
15.3878
  0
LINE
  8
0
 10
46.038
 20
15.3878
 11
46.1022
 21
15.4006
  0
LINE
  8
0
 10
46.1022
 20
15.4006
 11
46.1654
 21
15.4175
  0
LINE
  8
0
 10
46.1654
 20
15.4175
 11
46.2274
 21
15.4386
  0
LINE
  8
0
 10
46.2274
 20
15.4386
 11
46.2879
 21
15.4636
  0
LINE
  8
0
 10
46.2879
 20
15.4636
 11
46.3466
 21
15.4926
  0
LINE
  8
0
 10
46.3466
 20
15.4926
 11
46.4033
 21
15.5253
  0
LINE
  8
0
 10
46.4033
 20
15.5253
 11
46.4578
 21
15.5617
  0
LINE
  8
0
 10
46.4578
 20
15.5617
 11
46.5097
 21
15.6016
  0
LINE
  8
0
 10
46.5097
 20
15.6016
 11
46.5589
 21
15.6447
  0
LINE
  8
0
 10
46.5589
 20
15.6447
 11
46.6052
 21
15.691
  0
LINE
  8
0
 10
46.6052
 20
15.691
 11
46.6484
 21
15.7403
  0
LINE
  8
0
 10
46.6484
 20
15.7403
 11
46.6883
 21
15.7922
  0
LINE
  8
0
 10
46.6883
 20
15.7922
 11
46.7247
 21
15.8466
  0
LINE
  8
0
 10
46.7247
 20
15.8466
 11
46.7574
 21
15.9033
  0
LINE
  8
0
 10
46.7574
 20
15.9033
 11
46.7863
 21
15.9621
  0
LINE
  8
0
 10
46.7863
 20
15.9621
 11
46.8114
 21
16.0226
  0
LINE
  8
0
 10
46.8114
 20
16.0226
 11
46.8324
 21
16.0845
  0
LINE
  8
0
 10
46.8324
 20
16.0845
 11
46.8494
 21
16.1478
  0
LINE
  8
0
 10
46.8494
 20
16.1478
 11
46.8622
 21
16.212
  0
LINE
  8
0
 10
46.8622
 20
16.212
 11
46.8707
 21
16.2769
  0
LINE
  8
0
 10
46.8707
 20
16.2769
 11
46.875
 21
16.3423
  0
LINE
  8
0
 10
46.875
 20
16.3423
 11
46.875
 21
20.375
  0
LINE
  8
0
 10
46.875
 20
20.375
 11
0.125
 21
20.375
  0
LINE
  8
0
 10
0.125
 20
20.375
 11
0.125
 21
16.3423
  0
LINE
  8
0
 10
0.125
 20
16.3423
 11
0.129288
 21
16.2769
  0
LINE
  8
0
 10
0.129288
 20
16.2769
 11
0.137833
 21
16.212
  0
LINE
  8
0
 10
0.137833
 20
16.212
 11
0.150604
 21
16.1478
  0
LINE
  8
0
 10
0.150604
 20
16.1478
 11
0.167557
 21
16.0846
  0
LINE
  8
0
 10
0.167557
 20
16.0846
 11
0.188599
 21
16.0226
  0
LINE
  8
0
 10
0.188599
 20
16.0226
 11
0.213654
 21
15.9621
  0
LINE
  8
0
 10
0.213654
 20
15.9621
 11
0.242615
 21
15.9034
  0
LINE
  8
0
 10
0.242615
 20
15.9034
 11
0.275345
 21
15.8467
  0
LINE
  8
0
 10
0.275345
 20
15.8467
 11
0.311722
 21
15.7922
  0
LINE
  8
0
 10
0.311722
 20
15.7922
 11
0.351578
 21
15.7403
  0
LINE
  8
0
 10
0.351578
 20
15.7403
 11
0.39476
 21
15.6911
  0
LINE
  8
0
 10
0.39476
 20
15.6911
 11
0.441055
 21
15.6448
  0
LINE
  8
0
 10
0.441055
 20
15.6448
 11
0.49028
 21
15.6016
  0
LINE
  8
0
 10
0.49028
 20
15.6016
 11
0.542221
 21
15.5617
  0
LINE
  8
0
 10
0.542221
 20
15.5617
 11
0.596664
 21
15.5253
  0
LINE
  8
0
 10
0.596664
 20
15.5253
 11
0.653351
 21
15.4926
  0
LINE
  8
0
 10
0.653351
 20
15.4926
 11
0.712082
 21
15.4637
  0
LINE
  8
0
 10
0.712082
 20
15.4637
 11
0.772568
 21
15.4386
  0
LINE
  8
0
 10
0.772568
 20
15.4386
 11
0.834564
 21
15.4176
  0
LINE
  8
0
 10
0.834564
 20
15.4176
 11
0.897812
 21
15.4006
  0
LINE
  8
0
 10
0.897812
 20
15.4006
 11
0.962021
 21
15.3878
  0
LINE
  8
0
 10
0.962021
 20
15.3878
 11
1.02693
 21
15.3793
  0
LINE
  8
0
 10
1.02693
 20
15.3793
 11
1.09227
 21
15.375
  0
LINE
  8
0
 10
1.09227
 20
15.375
 11
45.9077
 21
15.375
  0
LINE
  8
0
 10
45.9077
 20
15.375
 11
45.9731
 21
15.3793
  0
LINE
  8
0
 10
3.26845
 20
17.7579
 11
3.23965
 21
17.7733
  0
LINE
  8
0
 10
3.23965
 20
17.7733
 11
3.21584
 21
17.7957
  0
LINE
  8
0
 10
3.21584
 20
17.7957
 11
3.19859
 21
17.8234
  0
LINE
  8
0
 10
3.19859
 20
17.8234
 11
3.18912
 21
17.8546
  0
LINE
  8
0
 10
3.18912
 20
17.8546
 11
3.18805
 21
17.8873
  0
LINE
  8
0
 10
3.18805
 20
17.8873
 11
3.19545
 21
17.9191
  0
LINE
  8
0
 10
3.19545
 20
17.9191
 11
3.21085
 21
17.9478
  0
LINE
  8
0
 10
3.21085
 20
17.9478
 11
3.23317
 21
17.9717
  0
LINE
  8
0
 10
3.23317
 20
17.9717
 11
3.26089
 21
17.9889
  0
LINE
  8
0
 10
3.26089
 20
17.9889
 11
3.29213
 21
17.9984
  0
LINE
  8
0
 10
3.29213
 20
17.9984
 11
3.32477
 21
17.9995
  0
LINE
  8
0
 10
3.32477
 20
17.9995
 11
3.35657
 21
17.9921
  0
LINE
  8
0
 10
3.35657
 20
17.9921
 11
3.38536
 21
17.9767
  0
LINE
  8
0
 10
3.38536
 20
17.9767
 11
3.40918
 21
17.9543
  0
LINE
  8
0
 10
3.40918
 20
17.9543
 11
3.42642
 21
17.9266
  0
LINE
  8
0
 10
3.42642
 20
17.9266
 11
3.4359
 21
17.8954
  0
LINE
  8
0
 10
3.4359
 20
17.8954
 11
3.43697
 21
17.8627
  0
LINE
  8
0
 10
3.43697
 20
17.8627
 11
3.42957
 21
17.8309
  0
LINE
  8
0
 10
3.42957
 20
17.8309
 11
3.41417
 21
17.8022
  0
LINE
  8
0
 10
3.41417
 20
17.8022
 11
3.39185
 21
17.7783
  0
LINE
  8
0
 10
3.39185
 20
17.7783
 11
3.36412
 21
17.7611
  0
LINE
  8
0
 10
3.36412
 20
17.7611
 11
3.33289
 21
17.7516
  0
LINE
  8
0
 10
3.33289
 20
17.7516
 11
3.30025
 21
17.7505
  0
LINE
  8
0
 10
3.30025
 20
17.7505
 11
3.26845
 21
17.7579
  0
LINE
  8
0
 10
9.64345
 20
17.7579
 11
9.61465
 21
17.7733
  0
LINE
  8
0
 10
9.61465
 20
17.7733
 11
9.59084
 21
17.7957
  0
LINE
  8
0
 10
9.59084
 20
17.7957
 11
9.57359
 21
17.8234
  0
LINE
  8
0
 10
9.57359
 20
17.8234
 11
9.56412
 21
17.8546
  0
LINE
  8
0
 10
9.56412
 20
17.8546
 11
9.56305
 21
17.8873
  0
LINE
  8
0
 10
9.56305
 20
17.8873
 11
9.57045
 21
17.9191
  0
LINE
  8
0
 10
9.57045
 20
17.9191
 11
9.58585
 21
17.9478
  0
LINE
  8
0
 10
9.58585
 20
17.9478
 11
9.60817
 21
17.9717
  0
LINE
  8
0
 10
9.60817
 20
17.9717
 11
9.63589
 21
17.9889
  0
LINE
  8
0
 10
9.63589
 20
17.9889
 11
9.66713
 21
17.9984
  0
LINE
  8
0
 10
9.66713
 20
17.9984
 11
9.69977
 21
17.9995
  0
LINE
  8
0
 10
9.69977
 20
17.9995
 11
9.73157
 21
17.9921
  0
LINE
  8
0
 10
9.73157
 20
17.9921
 11
9.76036
 21
17.9767
  0
LINE
  8
0
 10
9.76036
 20
17.9767
 11
9.78418
 21
17.9543
  0
LINE
  8
0
 10
9.78418
 20
17.9543
 11
9.80142
 21
17.9266
  0
LINE
  8
0
 10
9.80142
 20
17.9266
 11
9.8109
 21
17.8954
  0
LINE
  8
0
 10
9.8109
 20
17.8954
 11
9.81197
 21
17.8627
  0
LINE
  8
0
 10
9.81197
 20
17.8627
 11
9.80457
 21
17.8309
  0
LINE
  8
0
 10
9.80457
 20
17.8309
 11
9.78917
 21
17.8022
  0
LINE
  8
0
 10
9.78917
 20
17.8022
 11
9.76685
 21
17.7783
  0
LINE
  8
0
 10
9.76685
 20
17.7783
 11
9.73912
 21
17.7611
  0
LINE
  8
0
 10
9.73912
 20
17.7611
 11
9.70789
 21
17.7516
  0
LINE
  8
0
 10
9.70789
 20
17.7516
 11
9.67525
 21
17.7505
  0
LINE
  8
0
 10
9.67525
 20
17.7505
 11
9.64345
 21
17.7579
  0
LINE
  8
0
 10
-0.125
 20
10.125
 11
-0.125
 21
14.1577
  0
LINE
  8
0
 10
-0.125
 20
14.1577
 11
-0.129288
 21
14.2231
  0
LINE
  8
0
 10
-0.129288
 20
14.2231
 11
-0.137833
 21
14.288
  0
LINE
  8
0
 10
-0.137833
 20
14.288
 11
-0.150604
 21
14.3522
  0
LINE
  8
0
 10
-0.150604
 20
14.3522
 11
-0.167557
 21
14.4155
  0
LINE
  8
0
 10
-0.167557
 20
14.4155
 11
-0.188599
 21
14.4774
  0
LINE
  8
0
 10
-0.188599
 20
14.4774
 11
-0.213654
 21
14.5379
  0
LINE
  8
0
 10
-0.213654
 20
14.5379
 11
-0.242615
 21
14.5967
  0
LINE
  8
0
 10
-0.242615
 20
14.5967
 11
-0.275345
 21
14.6534
  0
LINE
  8
0
 10
-0.275345
 20
14.6534
 11
-0.311722
 21
14.7078
  0
LINE
  8
0
 10
-0.311722
 20
14.7078
 11
-0.351578
 21
14.7597
  0
LINE
  8
0
 10
-0.351578
 20
14.7597
 11
-0.39476
 21
14.809
  0
LINE
  8
0
 10
-0.39476
 20
14.809
 11
-0.441055
 21
14.8553
  0
LINE
  8
0
 10
-0.441055
 20
14.8553
 11
-0.49028
 21
14.8984
  0
LINE
  8
0
 10
-0.49028
 20
14.8984
 11
-0.542221
 21
14.9383
  0
LINE
  8
0
 10
-0.542221
 20
14.9383
 11
-0.596664
 21
14.9747
  0
LINE
  8
0
 10
-0.596664
 20
14.9747
 11
-0.653351
 21
15.0074
  0
LINE
  8
0
 10
-0.653351
 20
15.0074
 11
-0.712082
 21
15.0364
  0
LINE
  8
0
 10
-0.712082
 20
15.0364
 11
-0.772568
 21
15.0614
  0
LINE
  8
0
 10
-0.772568
 20
15.0614
 11
-0.834564
 21
15.0825
  0
LINE
  8
0
 10
-0.834564
 20
15.0825
 11
-0.897812
 21
15.0994
  0
LINE
  8
0
 10
-0.897812
 20
15.0994
 11
-0.962021
 21
15.1122
  0
LINE
  8
0
 10
-0.962021
 20
15.1122
 11
-1.02693
 21
15.1207
  0
LINE
  8
0
 10
-1.02693
 20
15.1207
 11
-1.09227
 21
15.125
  0
LINE
  8
0
 10
-1.09227
 20
15.125
 11
-45.9077
 21
15.125
  0
LINE
  8
0
 10
-45.9077
 20
15.125
 11
-45.9731
 21
15.1207
  0
LINE
  8
0
 10
-45.9731
 20
15.1207
 11
-46.038
 21
15.1122
  0
LINE
  8
0
 10
-46.038
 20
15.1122
 11
-46.1022
 21
15.0994
  0
LINE
  8
0
 10
-46.1022
 20
15.0994
 11
-46.1654
 21
15.0824
  0
LINE
  8
0
 10
-46.1654
 20
15.0824
 11
-46.2274
 21
15.0614
  0
LINE
  8
0
 10
-46.2274
 20
15.0614
 11
-46.2879
 21
15.0363
  0
LINE
  8
0
 10
-46.2879
 20
15.0363
 11
-46.3466
 21
15.0074
  0
LINE
  8
0
 10
-46.3466
 20
15.0074
 11
-46.4033
 21
14.9747
  0
LINE
  8
0
 10
-46.4033
 20
14.9747
 11
-46.4578
 21
14.9383
  0
LINE
  8
0
 10
-46.4578
 20
14.9383
 11
-46.5097
 21
14.8984
  0
LINE
  8
0
 10
-46.5097
 20
14.8984
 11
-46.5589
 21
14.8552
  0
LINE
  8
0
 10
-46.5589
 20
14.8552
 11
-46.6052
 21
14.8089
  0
LINE
  8
0
 10
-46.6052
 20
14.8089
 11
-46.6484
 21
14.7597
  0
LINE
  8
0
 10
-46.6484
 20
14.7597
 11
-46.6883
 21
14.7078
  0
LINE
  8
0
 10
-46.6883
 20
14.7078
 11
-46.7247
 21
14.6533
  0
LINE
  8
0
 10
-46.7247
 20
14.6533
 11
-46.7574
 21
14.5966
  0
LINE
  8
0
 10
-46.7574
 20
14.5966
 11
-46.7863
 21
14.5379
  0
LINE
  8
0
 10
-46.7863
 20
14.5379
 11
-46.8114
 21
14.4774
  0
LINE
  8
0
 10
-46.8114
 20
14.4774
 11
-46.8324
 21
14.4154
  0
LINE
  8
0
 10
-46.8324
 20
14.4154
 11
-46.8494
 21
14.3522
  0
LINE
  8
0
 10
-46.8494
 20
14.3522
 11
-46.8622
 21
14.288
  0
LINE
  8
0
 10
-46.8622
 20
14.288
 11
-46.8707
 21
14.2231
  0
LINE
  8
0
 10
-46.8707
 20
14.2231
 11
-46.875
 21
14.1577
  0
LINE
  8
0
 10
-46.875
 20
14.1577
 11
-46.875
 21
10.125
  0
LINE
  8
0
 10
-46.875
 20
10.125
 11
-0.125
 21
10.125
  0
LINE
  8
0
 10
-3.35657
 20
12.508
 11
-3.38536
 21
12.5234
  0
LINE
  8
0
 10
-3.38536
 20
12.5234
 11
-3.40918
 21
12.5457
  0
LINE
  8
0
 10
-3.40918
 20
12.5457
 11
-3.42642
 21
12.5734
  0
LINE
  8
0
 10
-3.42642
 20
12.5734
 11
-3.4359
 21
12.6046
  0
LINE
  8
0
 10
-3.4359
 20
12.6046
 11
-3.43697
 21
12.6373
  0
LINE
  8
0
 10
-3.43697
 20
12.6373
 11
-3.42957
 21
12.6691
  0
LINE
  8
0
 10
-3.42957
 20
12.6691
 11
-3.41417
 21
12.6979
  0
LINE
  8
0
 10
-3.41417
 20
12.6979
 11
-3.39185
 21
12.7217
  0
LINE
  8
0
 10
-3.39185
 20
12.7217
 11
-3.36412
 21
12.7389
  0
LINE
  8
0
 10
-3.36412
 20
12.7389
 11
-3.33289
 21
12.7484
  0
LINE
  8
0
 10
-3.33289
 20
12.7484
 11
-3.30025
 21
12.7495
  0
LINE
  8
0
 10
-3.30025
 20
12.7495
 11
-3.26845
 21
12.7421
  0
LINE
  8
0
 10
-3.26845
 20
12.7421
 11
-3.23965
 21
12.7267
  0
LINE
  8
0
 10
-3.23965
 20
12.7267
 11
-3.21584
 21
12.7043
  0
LINE
  8
0
 10
-3.21584
 20
12.7043
 11
-3.19859
 21
12.6766
  0
LINE
  8
0
 10
-3.19859
 20
12.6766
 11
-3.18912
 21
12.6454
  0
LINE
  8
0
 10
-3.18912
 20
12.6454
 11
-3.18805
 21
12.6128
  0
LINE
  8
0
 10
-3.18805
 20
12.6128
 11
-3.19545
 21
12.581
  0
LINE
  8
0
 10
-3.19545
 20
12.581
 11
-3.21085
 21
12.5522
  0
LINE
  8
0
 10
-3.21085
 20
12.5522
 11
-3.23317
 21
12.5284
  0
LINE
  8
0
 10
-3.23317
 20
12.5284
 11
-3.26089
 21
12.5111
  0
LINE
  8
0
 10
-3.26089
 20
12.5111
 11
-3.29213
 21
12.5016
  0
LINE
  8
0
 10
-3.29213
 20
12.5016
 11
-3.32477
 21
12.5006
  0
LINE
  8
0
 10
-3.32477
 20
12.5006
 11
-3.35657
 21
12.508
  0
LINE
  8
0
 10
-9.73157
 20
12.508
 11
-9.76036
 21
12.5234
  0
LINE
  8
0
 10
-9.76036
 20
12.5234
 11
-9.78418
 21
12.5457
  0
LINE
  8
0
 10
-9.78418
 20
12.5457
 11
-9.80142
 21
12.5734
  0
LINE
  8
0
 10
-9.80142
 20
12.5734
 11
-9.8109
 21
12.6046
  0
LINE
  8
0
 10
-9.8109
 20
12.6046
 11
-9.81197
 21
12.6373
  0
LINE
  8
0
 10
-9.81197
 20
12.6373
 11
-9.80457
 21
12.6691
  0
LINE
  8
0
 10
-9.80457
 20
12.6691
 11
-9.78917
 21
12.6979
  0
LINE
  8
0
 10
-9.78917
 20
12.6979
 11
-9.76685
 21
12.7217
  0
LINE
  8
0
 10
-9.76685
 20
12.7217
 11
-9.73912
 21
12.7389
  0
LINE
  8
0
 10
-9.73912
 20
12.7389
 11
-9.70789
 21
12.7484
  0
LINE
  8
0
 10
-9.70789
 20
12.7484
 11
-9.67525
 21
12.7495
  0
LINE
  8
0
 10
-9.67525
 20
12.7495
 11
-9.64345
 21
12.7421
  0
LINE
  8
0
 10
-9.64345
 20
12.7421
 11
-9.61465
 21
12.7267
  0
LINE
  8
0
 10
-9.61465
 20
12.7267
 11
-9.59084
 21
12.7043
  0
LINE
  8
0
 10
-9.59084
 20
12.7043
 11
-9.57359
 21
12.6766
  0
LINE
  8
0
 10
-9.57359
 20
12.6766
 11
-9.56412
 21
12.6454
  0
LINE
  8
0
 10
-9.56412
 20
12.6454
 11
-9.56305
 21
12.6128
  0
LINE
  8
0
 10
-9.56305
 20
12.6128
 11
-9.57045
 21
12.581
  0
LINE
  8
0
 10
-9.57045
 20
12.581
 11
-9.58585
 21
12.5522
  0
LINE
  8
0
 10
-9.58585
 20
12.5522
 11
-9.60817
 21
12.5284
  0
LINE
  8
0
 10
-9.60817
 20
12.5284
 11
-9.63589
 21
12.5111
  0
LINE
  8
0
 10
-9.63589
 20
12.5111
 11
-9.66713
 21
12.5016
  0
LINE
  8
0
 10
-9.66713
 20
12.5016
 11
-9.69977
 21
12.5006
  0
LINE
  8
0
 10
-9.69977
 20
12.5006
 11
-9.73157
 21
12.508
  0
LINE
  8
0
 10
46.875
 20
10.125
 11
46.875
 21
14.1577
  0
LINE
  8
0
 10
46.875
 20
14.1577
 11
46.8707
 21
14.2231
  0
LINE
  8
0
 10
46.8707
 20
14.2231
 11
46.8622
 21
14.288
  0
LINE
  8
0
 10
46.8622
 20
14.288
 11
46.8494
 21
14.3522
  0
LINE
  8
0
 10
46.8494
 20
14.3522
 11
46.8324
 21
14.4155
  0
LINE
  8
0
 10
46.8324
 20
14.4155
 11
46.8114
 21
14.4774
  0
LINE
  8
0
 10
46.8114
 20
14.4774
 11
46.7863
 21
14.5379
  0
LINE
  8
0
 10
46.7863
 20
14.5379
 11
46.7574
 21
14.5967
  0
LINE
  8
0
 10
46.7574
 20
14.5967
 11
46.7247
 21
14.6534
  0
LINE
  8
0
 10
46.7247
 20
14.6534
 11
46.6883
 21
14.7078
  0
LINE
  8
0
 10
46.6883
 20
14.7078
 11
46.6484
 21
14.7597
  0
LINE
  8
0
 10
46.6484
 20
14.7597
 11
46.6052
 21
14.809
  0
LINE
  8
0
 10
46.6052
 20
14.809
 11
46.5589
 21
14.8553
  0
LINE
  8
0
 10
46.5589
 20
14.8553
 11
46.5097
 21
14.8984
  0
LINE
  8
0
 10
46.5097
 20
14.8984
 11
46.4578
 21
14.9383
  0
LINE
  8
0
 10
46.4578
 20
14.9383
 11
46.4033
 21
14.9747
  0
LINE
  8
0
 10
46.4033
 20
14.9747
 11
46.3466
 21
15.0074
  0
LINE
  8
0
 10
46.3466
 20
15.0074
 11
46.2879
 21
15.0364
  0
LINE
  8
0
 10
46.2879
 20
15.0364
 11
46.2274
 21
15.0614
  0
LINE
  8
0
 10
46.2274
 20
15.0614
 11
46.1654
 21
15.0825
  0
LINE
  8
0
 10
46.1654
 20
15.0825
 11
46.1022
 21
15.0994
  0
LINE
  8
0
 10
46.1022
 20
15.0994
 11
46.038
 21
15.1122
  0
LINE
  8
0
 10
46.038
 20
15.1122
 11
45.9731
 21
15.1207
  0
LINE
  8
0
 10
45.9731
 20
15.1207
 11
45.9077
 21
15.125
  0
LINE
  8
0
 10
45.9077
 20
15.125
 11
1.09227
 21
15.125
  0
LINE
  8
0
 10
1.09227
 20
15.125
 11
1.02693
 21
15.1207
  0
LINE
  8
0
 10
1.02693
 20
15.1207
 11
0.962021
 21
15.1122
  0
LINE
  8
0
 10
0.962021
 20
15.1122
 11
0.897812
 21
15.0994
  0
LINE
  8
0
 10
0.897812
 20
15.0994
 11
0.834564
 21
15.0824
  0
LINE
  8
0
 10
0.834564
 20
15.0824
 11
0.772568
 21
15.0614
  0
LINE
  8
0
 10
0.772568
 20
15.0614
 11
0.712082
 21
15.0363
  0
LINE
  8
0
 10
0.712082
 20
15.0363
 11
0.653351
 21
15.0074
  0
LINE
  8
0
 10
0.653351
 20
15.0074
 11
0.596664
 21
14.9747
  0
LINE
  8
0
 10
0.596664
 20
14.9747
 11
0.542221
 21
14.9383
  0
LINE
  8
0
 10
0.542221
 20
14.9383
 11
0.49028
 21
14.8984
  0
LINE
  8
0
 10
0.49028
 20
14.8984
 11
0.441055
 21
14.8552
  0
LINE
  8
0
 10
0.441055
 20
14.8552
 11
0.39476
 21
14.8089
  0
LINE
  8
0
 10
0.39476
 20
14.8089
 11
0.351578
 21
14.7597
  0
LINE
  8
0
 10
0.351578
 20
14.7597
 11
0.311722
 21
14.7078
  0
LINE
  8
0
 10
0.311722
 20
14.7078
 11
0.275345
 21
14.6533
  0
LINE
  8
0
 10
0.275345
 20
14.6533
 11
0.242615
 21
14.5966
  0
LINE
  8
0
 10
0.242615
 20
14.5966
 11
0.213654
 21
14.5379
  0
LINE
  8
0
 10
0.213654
 20
14.5379
 11
0.188599
 21
14.4774
  0
LINE
  8
0
 10
0.188599
 20
14.4774
 11
0.167557
 21
14.4154
  0
LINE
  8
0
 10
0.167557
 20
14.4154
 11
0.150604
 21
14.3522
  0
LINE
  8
0
 10
0.150604
 20
14.3522
 11
0.137833
 21
14.288
  0
LINE
  8
0
 10
0.137833
 20
14.288
 11
0.129288
 21
14.2231
  0
LINE
  8
0
 10
0.129288
 20
14.2231
 11
0.125
 21
14.1577
  0
LINE
  8
0
 10
0.125
 20
14.1577
 11
0.125
 21
10.125
  0
LINE
  8
0
 10
0.125
 20
10.125
 11
46.875
 21
10.125
  0
LINE
  8
0
 10
37.2684
 20
12.508
 11
37.2396
 21
12.5234
  0
LINE
  8
0
 10
37.2396
 20
12.5234
 11
37.2158
 21
12.5457
  0
LINE
  8
0
 10
37.2158
 20
12.5457
 11
37.1986
 21
12.5734
  0
LINE
  8
0
 10
37.1986
 20
12.5734
 11
37.1891
 21
12.6046
  0
LINE
  8
0
 10
37.1891
 20
12.6046
 11
37.188
 21
12.6373
  0
LINE
  8
0
 10
37.188
 20
12.6373
 11
37.1954
 21
12.6691
  0
LINE
  8
0
 10
37.1954
 20
12.6691
 11
37.2108
 21
12.6979
  0
LINE
  8
0
 10
37.2108
 20
12.6979
 11
37.2332
 21
12.7217
  0
LINE
  8
0
 10
37.2332
 20
12.7217
 11
37.2609
 21
12.7389
  0
LINE
  8
0
 10
37.2609
 20
12.7389
 11
37.2921
 21
12.7484
  0
LINE
  8
0
 10
37.2921
 20
12.7484
 11
37.3248
 21
12.7495
  0
LINE
  8
0
 10
37.3248
 20
12.7495
 11
37.3566
 21
12.7421
  0
LINE
  8
0
 10
37.3566
 20
12.7421
 11
37.3853
 21
12.7267
  0
LINE
  8
0
 10
37.3853
 20
12.7267
 11
37.4092
 21
12.7043
  0
LINE
  8
0
 10
37.4092
 20
12.7043
 11
37.4264
 21
12.6766
  0
LINE
  8
0
 10
37.4264
 20
12.6766
 11
37.4359
 21
12.6454
  0
LINE
  8
0
 10
37.4359
 20
12.6454
 11
37.437
 21
12.6128
  0
LINE
  8
0
 10
37.437
 20
12.6128
 11
37.4296
 21
12.581
  0
LINE
  8
0
 10
37.4296
 20
12.581
 11
37.4142
 21
12.5522
  0
LINE
  8
0
 10
37.4142
 20
12.5522
 11
37.3918
 21
12.5284
  0
LINE
  8
0
 10
37.3918
 20
12.5284
 11
37.3641
 21
12.5111
  0
LINE
  8
0
 10
37.3641
 20
12.5111
 11
37.3329
 21
12.5016
  0
LINE
  8
0
 10
37.3329
 20
12.5016
 11
37.3002
 21
12.5006
  0
LINE
  8
0
 10
37.3002
 20
12.5006
 11
37.2684
 21
12.508
  0
LINE
  8
0
 10
43.6434
 20
12.508
 11
43.6146
 21
12.5234
  0
LINE
  8
0
 10
43.6146
 20
12.5234
 11
43.5908
 21
12.5457
  0
LINE
  8
0
 10
43.5908
 20
12.5457
 11
43.5736
 21
12.5734
  0
LINE
  8
0
 10
43.5736
 20
12.5734
 11
43.5641
 21
12.6046
  0
LINE
  8
0
 10
43.5641
 20
12.6046
 11
43.563
 21
12.6373
  0
LINE
  8
0
 10
43.563
 20
12.6373
 11
43.5704
 21
12.6691
  0
LINE
  8
0
 10
43.5704
 20
12.6691
 11
43.5858
 21
12.6979
  0
LINE
  8
0
 10
43.5858
 20
12.6979
 11
43.6082
 21
12.7217
  0
LINE
  8
0
 10
43.6082
 20
12.7217
 11
43.6359
 21
12.7389
  0
LINE
  8
0
 10
43.6359
 20
12.7389
 11
43.6671
 21
12.7484
  0
LINE
  8
0
 10
43.6671
 20
12.7484
 11
43.6998
 21
12.7495
  0
LINE
  8
0
 10
43.6998
 20
12.7495
 11
43.7316
 21
12.7421
  0
LINE
  8
0
 10
43.7316
 20
12.7421
 11
43.7603
 21
12.7267
  0
LINE
  8
0
 10
43.7603
 20
12.7267
 11
43.7842
 21
12.7043
  0
LINE
  8
0
 10
43.7842
 20
12.7043
 11
43.8014
 21
12.6766
  0
LINE
  8
0
 10
43.8014
 20
12.6766
 11
43.8109
 21
12.6454
  0
LINE
  8
0
 10
43.8109
 20
12.6454
 11
43.812
 21
12.6128
  0
LINE
  8
0
 10
43.812
 20
12.6128
 11
43.8046
 21
12.581
  0
LINE
  8
0
 10
43.8046
 20
12.581
 11
43.7892
 21
12.5522
  0
LINE
  8
0
 10
43.7892
 20
12.5522
 11
43.7668
 21
12.5284
  0
LINE
  8
0
 10
43.7668
 20
12.5284
 11
43.7391
 21
12.5111
  0
LINE
  8
0
 10
43.7391
 20
12.5111
 11
43.7079
 21
12.5016
  0
LINE
  8
0
 10
43.7079
 20
12.5016
 11
43.6752
 21
12.5006
  0
LINE
  8
0
 10
43.6752
 20
12.5006
 11
43.6434
 21
12.508
  0
LINE
  8
0
 10
-45.9822
 20
-2.87285
 11
-45.9498
 21
-2.86858
  0
LINE
  8
0
 10
-45.9498
 20
-2.86858
 11
-45.9177
 21
-2.8622
  0
LINE
  8
0
 10
-45.9177
 20
-2.8622
 11
-45.886
 21
-2.85371
  0
LINE
  8
0
 10
-45.886
 20
-2.85371
 11
-45.855
 21
-2.8432
  0
LINE
  8
0
 10
-45.855
 20
-2.8432
 11
-45.8248
 21
-2.83067
  0
LINE
  8
0
 10
-45.8248
 20
-2.83067
 11
-45.7954
 21
-2.81619
  0
LINE
  8
0
 10
-45.7954
 20
-2.81619
 11
-45.7671
 21
-2.79982
  0
LINE
  8
0
 10
-45.7671
 20
-2.79982
 11
-45.7399
 21
-2.78163
  0
LINE
  8
0
 10
-45.7399
 20
-2.78163
 11
-45.7139
 21
-2.7617
  0
LINE
  8
0
 10
-45.7139
 20
-2.7617
 11
-45.6893
 21
-2.74011
  0
LINE
  8
0
 10
-45.6893
 20
-2.74011
 11
-45.6661
 21
-2.71696
  0
LINE
  8
0
 10
-45.6661
 20
-2.71696
 11
-45.6445
 21
-2.69235
  0
LINE
  8
0
 10
-45.6445
 20
-2.69235
 11
-45.6246
 21
-2.66638
  0
LINE
  8
0
 10
-45.6246
 20
-2.66638
 11
-45.6064
 21
-2.63916
  0
LINE
  8
0
 10
-45.6064
 20
-2.63916
 11
-45.5901
 21
-2.61082
  0
LINE
  8
0
 10
-45.5901
 20
-2.61082
 11
-45.5756
 21
-2.58145
  0
LINE
  8
0
 10
-45.5756
 20
-2.58145
 11
-45.563
 21
-2.55121
  0
LINE
  8
0
 10
-45.563
 20
-2.55121
 11
-45.5525
 21
-2.52022
  0
LINE
  8
0
 10
-45.5525
 20
-2.52022
 11
-45.5441
 21
-2.48859
  0
LINE
  8
0
 10
-45.5441
 20
-2.48859
 11
-45.5377
 21
-2.45648
  0
LINE
  8
0
 10
-45.5377
 20
-2.45648
 11
-45.5334
 21
-2.42403
  0
LINE
  8
0
 10
-45.5334
 20
-2.42403
 11
-45.5312
 21
-2.375
  0
LINE
  8
0
 10
-45.5312
 20
-2.375
 11
-45.5296
 21
-1.97963
  0
LINE
  8
0
 10
-45.5296
 20
-1.97963
 11
-45.5202
 21
-1.94839
  0
LINE
  8
0
 10
-45.5202
 20
-1.94839
 11
-45.5029
 21
-1.92067
  0
LINE
  8
0
 10
-45.5029
 20
-1.92067
 11
-45.4791
 21
-1.89835
  0
LINE
  8
0
 10
-45.4791
 20
-1.89835
 11
-45.4503
 21
-1.88295
  0
LINE
  8
0
 10
-45.4503
 20
-1.88295
 11
-45.4185
 21
-1.87555
  0
LINE
  8
0
 10
-45.4185
 20
-1.87555
 11
-44.8873
 21
-1.87555
  0
LINE
  8
0
 10
-44.8873
 20
-1.87555
 11
-44.8546
 21
-1.87662
  0
LINE
  8
0
 10
-44.8546
 20
-1.87662
 11
-44.8234
 21
-1.88609
  0
LINE
  8
0
 10
-44.8234
 20
-1.88609
 11
-44.7957
 21
-1.90334
  0
LINE
  8
0
 10
-44.7957
 20
-1.90334
 11
-44.7733
 21
-1.92715
  0
LINE
  8
0
 10
-44.7733
 20
-1.92715
 11
-44.7579
 21
-1.95595
  0
LINE
  8
0
 10
-44.7579
 20
-1.95595
 11
-44.7505
 21
-1.98775
  0
LINE
  8
0
 10
-44.7505
 20
-1.98775
 11
-44.75
 21
-2.875
  0
LINE
  8
0
 10
-44.75
 20
-2.875
 11
30.25
 21
-2.875
  0
LINE
  8
0
 10
30.25
 20
-2.875
 11
30.2505
 21
-1.98775
  0
LINE
  8
0
 10
30.2505
 20
-1.98775
 11
30.2579
 21
-1.95595
  0
LINE
  8
0
 10
30.2579
 20
-1.95595
 11
30.2733
 21
-1.92715
  0
LINE
  8
0
 10
30.2733
 20
-1.92715
 11
30.2957
 21
-1.90334
  0
LINE
  8
0
 10
30.2957
 20
-1.90334
 11
30.3234
 21
-1.88609
  0
LINE
  8
0
 10
30.3234
 20
-1.88609
 11
30.3546
 21
-1.87662
  0
LINE
  8
0
 10
30.3546
 20
-1.87662
 11
30.3873
 21
-1.87555
  0
LINE
  8
0
 10
30.3873
 20
-1.87555
 11
30.9185
 21
-1.87555
  0
LINE
  8
0
 10
30.9185
 20
-1.87555
 11
30.9503
 21
-1.88295
  0
LINE
  8
0
 10
30.9503
 20
-1.88295
 11
30.9791
 21
-1.89835
  0
LINE
  8
0
 10
30.9791
 20
-1.89835
 11
31.0029
 21
-1.92067
  0
LINE
  8
0
 10
31.0029
 20
-1.92067
 11
31.0202
 21
-1.94839
  0
LINE
  8
0
 10
31.0202
 20
-1.94839
 11
31.0296
 21
-1.97963
  0
LINE
  8
0
 10
31.0296
 20
-1.97963
 11
31.0312
 21
-2.375
  0
LINE
  8
0
 10
31.0312
 20
-2.375
 11
31.0334
 21
-2.42403
  0
LINE
  8
0
 10
31.0334
 20
-2.42403
 11
31.0377
 21
-2.45648
  0
LINE
  8
0
 10
31.0377
 20
-2.45648
 11
31.0441
 21
-2.48859
  0
LINE
  8
0
 10
31.0441
 20
-2.48859
 11
31.0525
 21
-2.52022
  0
LINE
  8
0
 10
31.0525
 20
-2.52022
 11
31.063
 21
-2.55121
  0
LINE
  8
0
 10
31.063
 20
-2.55121
 11
31.0756
 21
-2.58145
  0
LINE
  8
0
 10
31.0756
 20
-2.58145
 11
31.0901
 21
-2.61082
  0
LINE
  8
0
 10
31.0901
 20
-2.61082
 11
31.1064
 21
-2.63916
  0
LINE
  8
0
 10
31.1064
 20
-2.63916
 11
31.1246
 21
-2.66638
  0
LINE
  8
0
 10
31.1246
 20
-2.66638
 11
31.1445
 21
-2.69235
  0
LINE
  8
0
 10
31.1445
 20
-2.69235
 11
31.1661
 21
-2.71696
  0
LINE
  8
0
 10
31.1661
 20
-2.71696
 11
31.1893
 21
-2.74011
  0
LINE
  8
0
 10
31.1893
 20
-2.74011
 11
31.2139
 21
-2.7617
  0
LINE
  8
0
 10
31.2139
 20
-2.7617
 11
31.2399
 21
-2.78163
  0
LINE
  8
0
 10
31.2399
 20
-2.78163
 11
31.2671
 21
-2.79982
  0
LINE
  8
0
 10
31.2671
 20
-2.79982
 11
31.2954
 21
-2.81619
  0
LINE
  8
0
 10
31.2954
 20
-2.81619
 11
31.3248
 21
-2.83067
  0
LINE
  8
0
 10
31.3248
 20
-2.83067
 11
31.355
 21
-2.8432
  0
LINE
  8
0
 10
31.355
 20
-2.8432
 11
31.386
 21
-2.85371
  0
LINE
  8
0
 10
31.386
 20
-2.85371
 11
31.4177
 21
-2.8622
  0
LINE
  8
0
 10
31.4177
 20
-2.8622
 11
31.4498
 21
-2.86858
  0
LINE
  8
0
 10
31.4498
 20
-2.86858
 11
31.4822
 21
-2.87285
  0
LINE
  8
0
 10
31.4822
 20
-2.87285
 11
31.5149
 21
-2.875
  0
LINE
  8
0
 10
31.5149
 20
-2.875
 11
31.5476
 21
-2.875
  0
LINE
  8
0
 10
31.5476
 20
-2.875
 11
31.5803
 21
-2.87285
  0
LINE
  8
0
 10
31.5803
 20
-2.87285
 11
31.6127
 21
-2.86858
  0
LINE
  8
0
 10
31.6127
 20
-2.86858
 11
31.6448
 21
-2.8622
  0
LINE
  8
0
 10
31.6448
 20
-2.8622
 11
31.6765
 21
-2.85371
  0
LINE
  8
0
 10
31.6765
 20
-2.85371
 11
31.7075
 21
-2.8432
  0
LINE
  8
0
 10
31.7075
 20
-2.8432
 11
31.7377
 21
-2.83067
  0
LINE
  8
0
 10
31.7377
 20
-2.83067
 11
31.7671
 21
-2.81619
  0
LINE
  8
0
 10
31.7671
 20
-2.81619
 11
31.7954
 21
-2.79982
  0
LINE
  8
0
 10
31.7954
 20
-2.79982
 11
31.8226
 21
-2.78163
  0
LINE
  8
0
 10
31.8226
 20
-2.78163
 11
31.8486
 21
-2.7617
  0
LINE
  8
0
 10
31.8486
 20
-2.7617
 11
31.8732
 21
-2.74011
  0
LINE
  8
0
 10
31.8732
 20
-2.74011
 11
31.8964
 21
-2.71696
  0
LINE
  8
0
 10
31.8964
 20
-2.71696
 11
31.918
 21
-2.69235
  0
LINE
  8
0
 10
31.918
 20
-2.69235
 11
31.9379
 21
-2.66638
  0
LINE
  8
0
 10
31.9379
 20
-2.66638
 11
31.9561
 21
-2.63916
  0
LINE
  8
0
 10
31.9561
 20
-2.63916
 11
31.9724
 21
-2.61082
  0
LINE
  8
0
 10
31.9724
 20
-2.61082
 11
31.9869
 21
-2.58145
  0
LINE
  8
0
 10
31.9869
 20
-2.58145
 11
31.9995
 21
-2.55121
  0
LINE
  8
0
 10
31.9995
 20
-2.55121
 11
32.01
 21
-2.52022
  0
LINE
  8
0
 10
32.01
 20
-2.52022
 11
32.0184
 21
-2.48859
  0
LINE
  8
0
 10
32.0184
 20
-2.48859
 11
32.0248
 21
-2.45648
  0
LINE
  8
0
 10
32.0248
 20
-2.45648
 11
32.0291
 21
-2.42403
  0
LINE
  8
0
 10
32.0291
 20
-2.42403
 11
32.0312
 21
-2.39136
  0
LINE
  8
0
 10
32.0312
 20
-2.39136
 11
32.0312
 21
0.141357
  0
LINE
  8
0
 10
32.0312
 20
0.141357
 11
32.0291
 21
0.174026
  0
LINE
  8
0
 10
32.0291
 20
0.174026
 11
32.0248
 21
0.206482
  0
LINE
  8
0
 10
32.0248
 20
0.206482
 11
32.0184
 21
0.238586
  0
LINE
  8
0
 10
32.0184
 20
0.238586
 11
32.01
 21
0.270218
  0
LINE
  8
0
 10
32.01
 20
0.270218
 11
31.9995
 21
0.301208
  0
LINE
  8
0
 10
31.9995
 20
0.301208
 11
31.9869
 21
0.331451
  0
LINE
  8
0
 10
31.9869
 20
0.331451
 11
31.9724
 21
0.360825
  0
LINE
  8
0
 10
31.9724
 20
0.360825
 11
31.9561
 21
0.38916
  0
LINE
  8
0
 10
31.9561
 20
0.38916
 11
31.9379
 21
0.416382
  0
LINE
  8
0
 10
31.9379
 20
0.416382
 11
31.918
 21
0.442352
  0
LINE
  8
0
 10
31.918
 20
0.442352
 11
31.8964
 21
0.466965
  0
LINE
  8
0
 10
31.8964
 20
0.466965
 11
31.8732
 21
0.490112
  0
LINE
  8
0
 10
31.8732
 20
0.490112
 11
31.8486
 21
0.511703
  0
LINE
  8
0
 10
31.8486
 20
0.511703
 11
31.8226
 21
0.531631
  0
LINE
  8
0
 10
31.8226
 20
0.531631
 11
31.7954
 21
0.54982
  0
LINE
  8
0
 10
31.7954
 20
0.54982
 11
31.7671
 21
0.566193
  0
LINE
  8
0
 10
31.7671
 20
0.566193
 11
31.7377
 21
0.580673
  0
LINE
  8
0
 10
31.7377
 20
0.580673
 11
31.7075
 21
0.593201
  0
LINE
  8
0
 10
31.7075
 20
0.593201
 11
31.6765
 21
0.603714
  0
LINE
  8
0
 10
31.6765
 20
0.603714
 11
31.6448
 21
0.612198
  0
LINE
  8
0
 10
31.6448
 20
0.612198
 11
31.6127
 21
0.618576
  0
LINE
  8
0
 10
31.6127
 20
0.618576
 11
31.5803
 21
0.622849
  0
LINE
  8
0
 10
31.5803
 20
0.622849
 11
31.5476
 21
0.625
  0
LINE
  8
0
 10
31.5476
 20
0.625
 11
30.375
 21
0.625
  0
LINE
  8
0
 10
30.375
 20
0.625
 11
30.3387
 21
0.63031
  0
LINE
  8
0
 10
30.3387
 20
0.63031
 11
30.3089
 21
0.643784
  0
LINE
  8
0
 10
30.3089
 20
0.643784
 11
30.2837
 21
0.664505
  0
LINE
  8
0
 10
30.2837
 20
0.664505
 11
30.2647
 21
0.69104
  0
LINE
  8
0
 10
30.2647
 20
0.69104
 11
30.2532
 21
0.721588
  0
LINE
  8
0
 10
30.2532
 20
0.721588
 11
30.25
 21
0.75
  0
LINE
  8
0
 10
30.25
 20
0.75
 11
30.2505
 21
5.01225
  0
LINE
  8
0
 10
30.2505
 20
5.01225
 11
30.2579
 21
5.04405
  0
LINE
  8
0
 10
30.2579
 20
5.04405
 11
30.2733
 21
5.07285
  0
LINE
  8
0
 10
30.2733
 20
5.07285
 11
30.2957
 21
5.09666
  0
LINE
  8
0
 10
30.2957
 20
5.09666
 11
30.3234
 21
5.11391
  0
LINE
  8
0
 10
30.3234
 20
5.11391
 11
30.3546
 21
5.12338
  0
LINE
  8
0
 10
30.3546
 20
5.12338
 11
30.3873
 21
5.12445
  0
LINE
  8
0
 10
30.3873
 20
5.12445
 11
30.9185
 21
5.12445
  0
LINE
  8
0
 10
30.9185
 20
5.12445
 11
30.9503
 21
5.11705
  0
LINE
  8
0
 10
30.9503
 20
5.11705
 11
30.9791
 21
5.10165
  0
LINE
  8
0
 10
30.9791
 20
5.10165
 11
31.0029
 21
5.07933
  0
LINE
  8
0
 10
31.0029
 20
5.07933
 11
31.0202
 21
5.05161
  0
LINE
  8
0
 10
31.0202
 20
5.05161
 11
31.0296
 21
5.02037
  0
LINE
  8
0
 10
31.0296
 20
5.02037
 11
31.0312
 21
4.625
  0
LINE
  8
0
 10
31.0312
 20
4.625
 11
31.0334
 21
4.57597
  0
LINE
  8
0
 10
31.0334
 20
4.57597
 11
31.0377
 21
4.54352
  0
LINE
  8
0
 10
31.0377
 20
4.54352
 11
31.0441
 21
4.51141
  0
LINE
  8
0
 10
31.0441
 20
4.51141
 11
31.0525
 21
4.47978
  0
LINE
  8
0
 10
31.0525
 20
4.47978
 11
31.063
 21
4.44879
  0
LINE
  8
0
 10
31.063
 20
4.44879
 11
31.0756
 21
4.41855
  0
LINE
  8
0
 10
31.0756
 20
4.41855
 11
31.0901
 21
4.38918
  0
LINE
  8
0
 10
31.0901
 20
4.38918
 11
31.1064
 21
4.36084
  0
LINE
  8
0
 10
31.1064
 20
4.36084
 11
31.1246
 21
4.33362
  0
LINE
  8
0
 10
31.1246
 20
4.33362
 11
31.1445
 21
4.30765
  0
LINE
  8
0
 10
31.1445
 20
4.30765
 11
31.1661
 21
4.28304
  0
LINE
  8
0
 10
31.1661
 20
4.28304
 11
31.1893
 21
4.25989
  0
LINE
  8
0
 10
31.1893
 20
4.25989
 11
31.2139
 21
4.2383
  0
LINE
  8
0
 10
31.2139
 20
4.2383
 11
31.2399
 21
4.21837
  0
LINE
  8
0
 10
31.2399
 20
4.21837
 11
31.2671
 21
4.20018
  0
LINE
  8
0
 10
31.2671
 20
4.20018
 11
31.2954
 21
4.18381
  0
LINE
  8
0
 10
31.2954
 20
4.18381
 11
31.3248
 21
4.16933
  0
LINE
  8
0
 10
31.3248
 20
4.16933
 11
31.355
 21
4.1568
  0
LINE
  8
0
 10
31.355
 20
4.1568
 11
31.386
 21
4.14629
  0
LINE
  8
0
 10
31.386
 20
4.14629
 11
31.4177
 21
4.1378
  0
LINE
  8
0
 10
31.4177
 20
4.1378
 11
31.4498
 21
4.13142
  0
LINE
  8
0
 10
31.4498
 20
4.13142
 11
31.4822
 21
4.12715
  0
LINE
  8
0
 10
31.4822
 20
4.12715
 11
31.5149
 21
4.125
  0
LINE
  8
0
 10
31.5149
 20
4.125
 11
31.5476
 21
4.125
  0
LINE
  8
0
 10
31.5476
 20
4.125
 11
31.5803
 21
4.12715
  0
LINE
  8
0
 10
31.5803
 20
4.12715
 11
31.6127
 21
4.13142
  0
LINE
  8
0
 10
31.6127
 20
4.13142
 11
31.6448
 21
4.1378
  0
LINE
  8
0
 10
31.6448
 20
4.1378
 11
31.6765
 21
4.14629
  0
LINE
  8
0
 10
31.6765
 20
4.14629
 11
31.7075
 21
4.1568
  0
LINE
  8
0
 10
31.7075
 20
4.1568
 11
31.7377
 21
4.16933
  0
LINE
  8
0
 10
31.7377
 20
4.16933
 11
31.7671
 21
4.18381
  0
LINE
  8
0
 10
31.7671
 20
4.18381
 11
31.7954
 21
4.20018
  0
LINE
  8
0
 10
31.7954
 20
4.20018
 11
31.8226
 21
4.21837
  0
LINE
  8
0
 10
31.8226
 20
4.21837
 11
31.8486
 21
4.2383
  0
LINE
  8
0
 10
31.8486
 20
4.2383
 11
31.8732
 21
4.25989
  0
LINE
  8
0
 10
31.8732
 20
4.25989
 11
31.8964
 21
4.28304
  0
LINE
  8
0
 10
31.8964
 20
4.28304
 11
31.918
 21
4.30765
  0
LINE
  8
0
 10
31.918
 20
4.30765
 11
31.9379
 21
4.33362
  0
LINE
  8
0
 10
31.9379
 20
4.33362
 11
31.9561
 21
4.36084
  0
LINE
  8
0
 10
31.9561
 20
4.36084
 11
31.9724
 21
4.38918
  0
LINE
  8
0
 10
31.9724
 20
4.38918
 11
31.9869
 21
4.41855
  0
LINE
  8
0
 10
31.9869
 20
4.41855
 11
31.9995
 21
4.44879
  0
LINE
  8
0
 10
31.9995
 20
4.44879
 11
32.01
 21
4.47978
  0
LINE
  8
0
 10
32.01
 20
4.47978
 11
32.0184
 21
4.51141
  0
LINE
  8
0
 10
32.0184
 20
4.51141
 11
32.0248
 21
4.54352
  0
LINE
  8
0
 10
32.0248
 20
4.54352
 11
32.0291
 21
4.57597
  0
LINE
  8
0
 10
32.0291
 20
4.57597
 11
32.0312
 21
4.60864
  0
LINE
  8
0
 10
32.0312
 20
4.60864
 11
32.0312
 21
7.14136
  0
LINE
  8
0
 10
32.0312
 20
7.14136
 11
32.0291
 21
7.17403
  0
LINE
  8
0
 10
32.0291
 20
7.17403
 11
32.0248
 21
7.20648
  0
LINE
  8
0
 10
32.0248
 20
7.20648
 11
32.0184
 21
7.23859
  0
LINE
  8
0
 10
32.0184
 20
7.23859
 11
32.01
 21
7.27022
  0
LINE
  8
0
 10
32.01
 20
7.27022
 11
31.9995
 21
7.30121
  0
LINE
  8
0
 10
31.9995
 20
7.30121
 11
31.9869
 21
7.33145
  0
LINE
  8
0
 10
31.9869
 20
7.33145
 11
31.9724
 21
7.36082
  0
LINE
  8
0
 10
31.9724
 20
7.36082
 11
31.9561
 21
7.38916
  0
LINE
  8
0
 10
31.9561
 20
7.38916
 11
31.9379
 21
7.41638
  0
LINE
  8
0
 10
31.9379
 20
7.41638
 11
31.918
 21
7.44235
  0
LINE
  8
0
 10
31.918
 20
7.44235
 11
31.8964
 21
7.46696
  0
LINE
  8
0
 10
31.8964
 20
7.46696
 11
31.8732
 21
7.49011
  0
LINE
  8
0
 10
31.8732
 20
7.49011
 11
31.8486
 21
7.5117
  0
LINE
  8
0
 10
31.8486
 20
7.5117
 11
31.8226
 21
7.53163
  0
LINE
  8
0
 10
31.8226
 20
7.53163
 11
31.7954
 21
7.54982
  0
LINE
  8
0
 10
31.7954
 20
7.54982
 11
31.7671
 21
7.56619
  0
LINE
  8
0
 10
31.7671
 20
7.56619
 11
31.7377
 21
7.58067
  0
LINE
  8
0
 10
31.7377
 20
7.58067
 11
31.7075
 21
7.5932
  0
LINE
  8
0
 10
31.7075
 20
7.5932
 11
31.6765
 21
7.60371
  0
LINE
  8
0
 10
31.6765
 20
7.60371
 11
31.6448
 21
7.6122
  0
LINE
  8
0
 10
31.6448
 20
7.6122
 11
31.6127
 21
7.61858
  0
LINE
  8
0
 10
31.6127
 20
7.61858
 11
31.5803
 21
7.62285
  0
LINE
  8
0
 10
31.5803
 20
7.62285
 11
31.5476
 21
7.625
  0
LINE
  8
0
 10
31.5476
 20
7.625
 11
30.375
 21
7.625
  0
LINE
  8
0
 10
30.375
 20
7.625
 11
30.3387
 21
7.63031
  0
LINE
  8
0
 10
30.3387
 20
7.63031
 11
30.3089
 21
7.64378
  0
LINE
  8
0
 10
30.3089
 20
7.64378
 11
30.2837
 21
7.66451
  0
LINE
  8
0
 10
30.2837
 20
7.66451
 11
30.2647
 21
7.69104
  0
LINE
  8
0
 10
30.2647
 20
7.69104
 11
30.2532
 21
7.72159
  0
LINE
  8
0
 10
30.2532
 20
7.72159
 11
30.25
 21
7.75
  0
LINE
  8
0
 10
30.25
 20
7.75
 11
30.25
 21
9.875
  0
LINE
  8
0
 10
30.25
 20
9.875
 11
-44.75
 21
9.875
  0
LINE
  8
0
 10
-44.75
 20
9.875
 11
-44.75
 21
7.75
  0
LINE
  8
0
 10
-44.75
 20
7.75
 11
-44.7532
 21
7.72159
  0
LINE
  8
0
 10
-44.7532
 20
7.72159
 11
-44.7647
 21
7.69104
  0
LINE
  8
0
 10
-44.7647
 20
7.69104
 11
-44.7837
 21
7.66451
  0
LINE
  8
0
 10
-44.7837
 20
7.66451
 11
-44.8089
 21
7.64378
  0
LINE
  8
0
 10
-44.8089
 20
7.64378
 11
-44.8387
 21
7.63031
  0
LINE
  8
0
 10
-44.8387
 20
7.63031
 11
-44.875
 21
7.625
  0
LINE
  8
0
 10
-44.875
 20
7.625
 11
-46.0476
 21
7.625
  0
LINE
  8
0
 10
-46.0476
 20
7.625
 11
-46.0803
 21
7.62285
  0
LINE
  8
0
 10
-46.0803
 20
7.62285
 11
-46.1127
 21
7.61858
  0
LINE
  8
0
 10
-46.1127
 20
7.61858
 11
-46.1448
 21
7.6122
  0
LINE
  8
0
 10
-46.1448
 20
7.6122
 11
-46.1765
 21
7.60371
  0
LINE
  8
0
 10
-46.1765
 20
7.60371
 11
-46.2075
 21
7.5932
  0
LINE
  8
0
 10
-46.2075
 20
7.5932
 11
-46.2377
 21
7.58067
  0
LINE
  8
0
 10
-46.2377
 20
7.58067
 11
-46.2671
 21
7.56619
  0
LINE
  8
0
 10
-46.2671
 20
7.56619
 11
-46.2954
 21
7.54982
  0
LINE
  8
0
 10
-46.2954
 20
7.54982
 11
-46.3226
 21
7.53163
  0
LINE
  8
0
 10
-46.3226
 20
7.53163
 11
-46.3486
 21
7.5117
  0
LINE
  8
0
 10
-46.3486
 20
7.5117
 11
-46.3732
 21
7.49011
  0
LINE
  8
0
 10
-46.3732
 20
7.49011
 11
-46.3964
 21
7.46696
  0
LINE
  8
0
 10
-46.3964
 20
7.46696
 11
-46.418
 21
7.44235
  0
LINE
  8
0
 10
-46.418
 20
7.44235
 11
-46.4379
 21
7.41638
  0
LINE
  8
0
 10
-46.4379
 20
7.41638
 11
-46.4561
 21
7.38916
  0
LINE
  8
0
 10
-46.4561
 20
7.38916
 11
-46.4724
 21
7.36082
  0
LINE
  8
0
 10
-46.4724
 20
7.36082
 11
-46.4869
 21
7.33145
  0
LINE
  8
0
 10
-46.4869
 20
7.33145
 11
-46.4995
 21
7.30121
  0
LINE
  8
0
 10
-46.4995
 20
7.30121
 11
-46.51
 21
7.27022
  0
LINE
  8
0
 10
-46.51
 20
7.27022
 11
-46.5184
 21
7.23859
  0
LINE
  8
0
 10
-46.5184
 20
7.23859
 11
-46.5248
 21
7.20648
  0
LINE
  8
0
 10
-46.5248
 20
7.20648
 11
-46.5291
 21
7.17403
  0
LINE
  8
0
 10
-46.5291
 20
7.17403
 11
-46.5312
 21
7.14136
  0
LINE
  8
0
 10
-46.5312
 20
7.14136
 11
-46.5312
 21
4.60864
  0
LINE
  8
0
 10
-46.5312
 20
4.60864
 11
-46.5291
 21
4.57597
  0
LINE
  8
0
 10
-46.5291
 20
4.57597
 11
-46.5248
 21
4.54352
  0
LINE
  8
0
 10
-46.5248
 20
4.54352
 11
-46.5184
 21
4.51141
  0
LINE
  8
0
 10
-46.5184
 20
4.51141
 11
-46.51
 21
4.47978
  0
LINE
  8
0
 10
-46.51
 20
4.47978
 11
-46.4995
 21
4.44879
  0
LINE
  8
0
 10
-46.4995
 20
4.44879
 11
-46.4869
 21
4.41855
  0
LINE
  8
0
 10
-46.4869
 20
4.41855
 11
-46.4724
 21
4.38918
  0
LINE
  8
0
 10
-46.4724
 20
4.38918
 11
-46.4561
 21
4.36084
  0
LINE
  8
0
 10
-46.4561
 20
4.36084
 11
-46.4379
 21
4.33362
  0
LINE
  8
0
 10
-46.4379
 20
4.33362
 11
-46.418
 21
4.30765
  0
LINE
  8
0
 10
-46.418
 20
4.30765
 11
-46.3964
 21
4.28304
  0
LINE
  8
0
 10
-46.3964
 20
4.28304
 11
-46.3732
 21
4.25989
  0
LINE
  8
0
 10
-46.3732
 20
4.25989
 11
-46.3486
 21
4.2383
  0
LINE
  8
0
 10
-46.3486
 20
4.2383
 11
-46.3226
 21
4.21837
  0
LINE
  8
0
 10
-46.3226
 20
4.21837
 11
-46.2954
 21
4.20018
  0
LINE
  8
0
 10
-46.2954
 20
4.20018
 11
-46.2671
 21
4.18381
  0
LINE
  8
0
 10
-46.2671
 20
4.18381
 11
-46.2377
 21
4.16933
  0
LINE
  8
0
 10
-46.2377
 20
4.16933
 11
-46.2075
 21
4.1568
  0
LINE
  8
0
 10
-46.2075
 20
4.1568
 11
-46.1765
 21
4.14629
  0
LINE
  8
0
 10
-46.1765
 20
4.14629
 11
-46.1448
 21
4.1378
  0
LINE
  8
0
 10
-46.1448
 20
4.1378
 11
-46.1127
 21
4.13142
  0
LINE
  8
0
 10
-46.1127
 20
4.13142
 11
-46.0803
 21
4.12715
  0
LINE
  8
0
 10
-46.0803
 20
4.12715
 11
-46.0476
 21
4.125
  0
LINE
  8
0
 10
-46.0476
 20
4.125
 11
-46.0149
 21
4.125
  0
LINE
  8
0
 10
-46.0149
 20
4.125
 11
-45.9822
 21
4.12715
  0
LINE
  8
0
 10
-45.9822
 20
4.12715
 11
-45.9498
 21
4.13142
  0
LINE
  8
0
 10
-45.9498
 20
4.13142
 11
-45.9177
 21
4.1378
  0
LINE
  8
0
 10
-45.9177
 20
4.1378
 11
-45.886
 21
4.14629
  0
LINE
  8
0
 10
-45.886
 20
4.14629
 11
-45.855
 21
4.1568
  0
LINE
  8
0
 10
-45.855
 20
4.1568
 11
-45.8248
 21
4.16933
  0
LINE
  8
0
 10
-45.8248
 20
4.16933
 11
-45.7954
 21
4.18381
  0
LINE
  8
0
 10
-45.7954
 20
4.18381
 11
-45.7671
 21
4.20018
  0
LINE
  8
0
 10
-45.7671
 20
4.20018
 11
-45.7399
 21
4.21837
  0
LINE
  8
0
 10
-45.7399
 20
4.21837
 11
-45.7139
 21
4.2383
  0
LINE
  8
0
 10
-45.7139
 20
4.2383
 11
-45.6893
 21
4.25989
  0
LINE
  8
0
 10
-45.6893
 20
4.25989
 11
-45.6661
 21
4.28304
  0
LINE
  8
0
 10
-45.6661
 20
4.28304
 11
-45.6445
 21
4.30765
  0
LINE
  8
0
 10
-45.6445
 20
4.30765
 11
-45.6246
 21
4.33362
  0
LINE
  8
0
 10
-45.6246
 20
4.33362
 11
-45.6064
 21
4.36084
  0
LINE
  8
0
 10
-45.6064
 20
4.36084
 11
-45.5901
 21
4.38918
  0
LINE
  8
0
 10
-45.5901
 20
4.38918
 11
-45.5756
 21
4.41855
  0
LINE
  8
0
 10
-45.5756
 20
4.41855
 11
-45.563
 21
4.44879
  0
LINE
  8
0
 10
-45.563
 20
4.44879
 11
-45.5525
 21
4.47978
  0
LINE
  8
0
 10
-45.5525
 20
4.47978
 11
-45.5441
 21
4.51141
  0
LINE
  8
0
 10
-45.5441
 20
4.51141
 11
-45.5377
 21
4.54352
  0
LINE
  8
0
 10
-45.5377
 20
4.54352
 11
-45.5334
 21
4.57597
  0
LINE
  8
0
 10
-45.5334
 20
4.57597
 11
-45.5312
 21
4.625
  0
LINE
  8
0
 10
-45.5312
 20
4.625
 11
-45.5296
 21
5.02037
  0
LINE
  8
0
 10
-45.5296
 20
5.02037
 11
-45.5202
 21
5.05161
  0
LINE
  8
0
 10
-45.5202
 20
5.05161
 11
-45.5029
 21
5.07933
  0
LINE
  8
0
 10
-45.5029
 20
5.07933
 11
-45.4791
 21
5.10165
  0
LINE
  8
0
 10
-45.4791
 20
5.10165
 11
-45.4503
 21
5.11705
  0
LINE
  8
0
 10
-45.4503
 20
5.11705
 11
-45.4185
 21
5.12445
  0
LINE
  8
0
 10
-45.4185
 20
5.12445
 11
-44.8873
 21
5.12445
  0
LINE
  8
0
 10
-44.8873
 20
5.12445
 11
-44.8546
 21
5.12338
  0
LINE
  8
0
 10
-44.8546
 20
5.12338
 11
-44.8234
 21
5.11391
  0
LINE
  8
0
 10
-44.8234
 20
5.11391
 11
-44.7957
 21
5.09666
  0
LINE
  8
0
 10
-44.7957
 20
5.09666
 11
-44.7733
 21
5.07285
  0
LINE
  8
0
 10
-44.7733
 20
5.07285
 11
-44.7579
 21
5.04405
  0
LINE
  8
0
 10
-44.7579
 20
5.04405
 11
-44.7505
 21
5.01225
  0
LINE
  8
0
 10
-44.7505
 20
5.01225
 11
-44.75
 21
0.75
  0
LINE
  8
0
 10
-44.75
 20
0.75
 11
-44.7532
 21
0.721588
  0
LINE
  8
0
 10
-44.7532
 20
0.721588
 11
-44.7647
 21
0.69104
  0
LINE
  8
0
 10
-44.7647
 20
0.69104
 11
-44.7837
 21
0.664505
  0
LINE
  8
0
 10
-44.7837
 20
0.664505
 11
-44.8089
 21
0.643784
  0
LINE
  8
0
 10
-44.8089
 20
0.643784
 11
-44.8387
 21
0.63031
  0
LINE
  8
0
 10
-44.8387
 20
0.63031
 11
-44.875
 21
0.625
  0
LINE
  8
0
 10
-44.875
 20
0.625
 11
-46.0476
 21
0.625
  0
LINE
  8
0
 10
-46.0476
 20
0.625
 11
-46.0803
 21
0.622849
  0
LINE
  8
0
 10
-46.0803
 20
0.622849
 11
-46.1127
 21
0.618576
  0
LINE
  8
0
 10
-46.1127
 20
0.618576
 11
-46.1448
 21
0.612198
  0
LINE
  8
0
 10
-46.1448
 20
0.612198
 11
-46.1765
 21
0.603714
  0
LINE
  8
0
 10
-46.1765
 20
0.603714
 11
-46.2075
 21
0.593201
  0
LINE
  8
0
 10
-46.2075
 20
0.593201
 11
-46.2377
 21
0.580673
  0
LINE
  8
0
 10
-46.2377
 20
0.580673
 11
-46.2671
 21
0.566193
  0
LINE
  8
0
 10
-46.2671
 20
0.566193
 11
-46.2954
 21
0.54982
  0
LINE
  8
0
 10
-46.2954
 20
0.54982
 11
-46.3226
 21
0.531631
  0
LINE
  8
0
 10
-46.3226
 20
0.531631
 11
-46.3486
 21
0.511703
  0
LINE
  8
0
 10
-46.3486
 20
0.511703
 11
-46.3732
 21
0.490112
  0
LINE
  8
0
 10
-46.3732
 20
0.490112
 11
-46.3964
 21
0.466965
  0
LINE
  8
0
 10
-46.3964
 20
0.466965
 11
-46.418
 21
0.442352
  0
LINE
  8
0
 10
-46.418
 20
0.442352
 11
-46.4379
 21
0.416382
  0
LINE
  8
0
 10
-46.4379
 20
0.416382
 11
-46.4561
 21
0.38916
  0
LINE
  8
0
 10
-46.4561
 20
0.38916
 11
-46.4724
 21
0.360825
  0
LINE
  8
0
 10
-46.4724
 20
0.360825
 11
-46.4869
 21
0.331451
  0
LINE
  8
0
 10
-46.4869
 20
0.331451
 11
-46.4995
 21
0.301208
  0
LINE
  8
0
 10
-46.4995
 20
0.301208
 11
-46.51
 21
0.270218
  0
LINE
  8
0
 10
-46.51
 20
0.270218
 11
-46.5184
 21
0.238586
  0
LINE
  8
0
 10
-46.5184
 20
0.238586
 11
-46.5248
 21
0.206482
  0
LINE
  8
0
 10
-46.5248
 20
0.206482
 11
-46.5291
 21
0.174026
  0
LINE
  8
0
 10
-46.5291
 20
0.174026
 11
-46.5312
 21
0.141357
  0
LINE
  8
0
 10
-46.5312
 20
0.141357
 11
-46.5312
 21
-2.39136
  0
LINE
  8
0
 10
-46.5312
 20
-2.39136
 11
-46.5291
 21
-2.42403
  0
LINE
  8
0
 10
-46.5291
 20
-2.42403
 11
-46.5248
 21
-2.45648
  0
LINE
  8
0
 10
-46.5248
 20
-2.45648
 11
-46.5184
 21
-2.48859
  0
LINE
  8
0
 10
-46.5184
 20
-2.48859
 11
-46.51
 21
-2.52022
  0
LINE
  8
0
 10
-46.51
 20
-2.52022
 11
-46.4995
 21
-2.55121
  0
LINE
  8
0
 10
-46.4995
 20
-2.55121
 11
-46.4869
 21
-2.58145
  0
LINE
  8
0
 10
-46.4869
 20
-2.58145
 11
-46.4724
 21
-2.61082
  0
LINE
  8
0
 10
-46.4724
 20
-2.61082
 11
-46.4561
 21
-2.63916
  0
LINE
  8
0
 10
-46.4561
 20
-2.63916
 11
-46.4379
 21
-2.66638
  0
LINE
  8
0
 10
-46.4379
 20
-2.66638
 11
-46.418
 21
-2.69235
  0
LINE
  8
0
 10
-46.418
 20
-2.69235
 11
-46.3964
 21
-2.71696
  0
LINE
  8
0
 10
-46.3964
 20
-2.71696
 11
-46.3732
 21
-2.74011
  0
LINE
  8
0
 10
-46.3732
 20
-2.74011
 11
-46.3486
 21
-2.7617
  0
LINE
  8
0
 10
-46.3486
 20
-2.7617
 11
-46.3226
 21
-2.78163
  0
LINE
  8
0
 10
-46.3226
 20
-2.78163
 11
-46.2954
 21
-2.79982
  0
LINE
  8
0
 10
-46.2954
 20
-2.79982
 11
-46.2671
 21
-2.81619
  0
LINE
  8
0
 10
-46.2671
 20
-2.81619
 11
-46.2377
 21
-2.83067
  0
LINE
  8
0
 10
-46.2377
 20
-2.83067
 11
-46.2075
 21
-2.8432
  0
LINE
  8
0
 10
-46.2075
 20
-2.8432
 11
-46.1765
 21
-2.85371
  0
LINE
  8
0
 10
-46.1765
 20
-2.85371
 11
-46.1448
 21
-2.8622
  0
LINE
  8
0
 10
-46.1448
 20
-2.8622
 11
-46.1127
 21
-2.86858
  0
LINE
  8
0
 10
-46.1127
 20
-2.86858
 11
-46.0803
 21
-2.87285
  0
LINE
  8
0
 10
-46.0803
 20
-2.87285
 11
-46.0476
 21
-2.875
  0
LINE
  8
0
 10
-46.0476
 20
-2.875
 11
-46.0149
 21
-2.875
  0
LINE
  8
0
 10
-46.0149
 20
-2.875
 11
-45.9822
 21
-2.87285
  0
LINE
  8
0
 10
-42.2941
 20
6.57043
 11
-42.3228
 21
6.58583
  0
LINE
  8
0
 10
-42.3228
 20
6.58583
 11
-42.3467
 21
6.60815
  0
LINE
  8
0
 10
-42.3467
 20
6.60815
 11
-42.3639
 21
6.63588
  0
LINE
  8
0
 10
-42.3639
 20
6.63588
 11
-42.3734
 21
6.66711
  0
LINE
  8
0
 10
-42.3734
 20
6.66711
 11
-42.3745
 21
6.69975
  0
LINE
  8
0
 10
-42.3745
 20
6.69975
 11
-42.3671
 21
6.73155
  0
LINE
  8
0
 10
-42.3671
 20
6.73155
 11
-42.3517
 21
6.76035
  0
LINE
  8
0
 10
-42.3517
 20
6.76035
 11
-42.3293
 21
6.78416
  0
LINE
  8
0
 10
-42.3293
 20
6.78416
 11
-42.3016
 21
6.80141
  0
LINE
  8
0
 10
-42.3016
 20
6.80141
 11
-42.2704
 21
6.81088
  0
LINE
  8
0
 10
-42.2704
 20
6.81088
 11
-42.2377
 21
6.81195
  0
LINE
  8
0
 10
-42.2377
 20
6.81195
 11
-42.2059
 21
6.80455
  0
LINE
  8
0
 10
-42.2059
 20
6.80455
 11
-42.1771
 21
6.78915
  0
LINE
  8
0
 10
-42.1771
 20
6.78915
 11
-42.1533
 21
6.76683
  0
LINE
  8
0
 10
-42.1533
 20
6.76683
 11
-42.1361
 21
6.73911
  0
LINE
  8
0
 10
-42.1361
 20
6.73911
 11
-42.1266
 21
6.70787
  0
LINE
  8
0
 10
-42.1266
 20
6.70787
 11
-42.1255
 21
6.67523
  0
LINE
  8
0
 10
-42.1255
 20
6.67523
 11
-42.1329
 21
6.64343
  0
LINE
  8
0
 10
-42.1329
 20
6.64343
 11
-42.1483
 21
6.61464
  0
LINE
  8
0
 10
-42.1483
 20
6.61464
 11
-42.1707
 21
6.59082
  0
LINE
  8
0
 10
-42.1707
 20
6.59082
 11
-42.1984
 21
6.57358
  0
LINE
  8
0
 10
-42.1984
 20
6.57358
 11
-42.2296
 21
6.5641
  0
LINE
  8
0
 10
-42.2296
 20
6.5641
 11
-42.2623
 21
6.56303
  0
LINE
  8
0
 10
-42.2623
 20
6.56303
 11
-42.2941
 21
6.57043
  0
LINE
  8
0
 10
27.7059
 20
6.57043
 11
27.6771
 21
6.58583
  0
LINE
  8
0
 10
27.6771
 20
6.58583
 11
27.6533
 21
6.60815
  0
LINE
  8
0
 10
27.6533
 20
6.60815
 11
27.6361
 21
6.63588
  0
LINE
  8
0
 10
27.6361
 20
6.63588
 11
27.6266
 21
6.66711
  0
LINE
  8
0
 10
27.6266
 20
6.66711
 11
27.6255
 21
6.69975
  0
LINE
  8
0
 10
27.6255
 20
6.69975
 11
27.6329
 21
6.73155
  0
LINE
  8
0
 10
27.6329
 20
6.73155
 11
27.6483
 21
6.76035
  0
LINE
  8
0
 10
27.6483
 20
6.76035
 11
27.6707
 21
6.78416
  0
LINE
  8
0
 10
27.6707
 20
6.78416
 11
27.6984
 21
6.80141
  0
LINE
  8
0
 10
27.6984
 20
6.80141
 11
27.7296
 21
6.81088
  0
LINE
  8
0
 10
27.7296
 20
6.81088
 11
27.7623
 21
6.81195
  0
LINE
  8
0
 10
27.7623
 20
6.81195
 11
27.7941
 21
6.80455
  0
LINE
  8
0
 10
27.7941
 20
6.80455
 11
27.8228
 21
6.78915
  0
LINE
  8
0
 10
27.8228
 20
6.78915
 11
27.8467
 21
6.76683
  0
LINE
  8
0
 10
27.8467
 20
6.76683
 11
27.8639
 21
6.73911
  0
LINE
  8
0
 10
27.8639
 20
6.73911
 11
27.8734
 21
6.70787
  0
LINE
  8
0
 10
27.8734
 20
6.70787
 11
27.8745
 21
6.67523
  0
LINE
  8
0
 10
27.8745
 20
6.67523
 11
27.8671
 21
6.64343
  0
LINE
  8
0
 10
27.8671
 20
6.64343
 11
27.8517
 21
6.61464
  0
LINE
  8
0
 10
27.8517
 20
6.61464
 11
27.8293
 21
6.59082
  0
LINE
  8
0
 10
27.8293
 20
6.59082
 11
27.8016
 21
6.57358
  0
LINE
  8
0
 10
27.8016
 20
6.57358
 11
27.7704
 21
6.5641
  0
LINE
  8
0
 10
27.7704
 20
6.5641
 11
27.7377
 21
6.56303
  0
LINE
  8
0
 10
27.7377
 20
6.56303
 11
27.7059
 21
6.57043
  0
LINE
  8
0
 10
-42.2941
 20
0.19545
 11
-42.3228
 21
0.210846
  0
LINE
  8
0
 10
-42.3228
 20
0.210846
 11
-42.3467
 21
0.23317
  0
LINE
  8
0
 10
-42.3467
 20
0.23317
 11
-42.3639
 21
0.260895
  0
LINE
  8
0
 10
-42.3639
 20
0.260895
 11
-42.3734
 21
0.29213
  0
LINE
  8
0
 10
-42.3734
 20
0.29213
 11
-42.3745
 21
0.324768
  0
LINE
  8
0
 10
-42.3745
 20
0.324768
 11
-42.3671
 21
0.356567
  0
LINE
  8
0
 10
-42.3671
 20
0.356567
 11
-42.3517
 21
0.385361
  0
LINE
  8
0
 10
-42.3517
 20
0.385361
 11
-42.3293
 21
0.40918
  0
LINE
  8
0
 10
-42.3293
 20
0.40918
 11
-42.3016
 21
0.426422
  0
LINE
  8
0
 10
-42.3016
 20
0.426422
 11
-42.2704
 21
0.435898
  0
LINE
  8
0
 10
-42.2704
 20
0.435898
 11
-42.2377
 21
0.436966
  0
LINE
  8
0
 10
-42.2377
 20
0.436966
 11
-42.2059
 21
0.429565
  0
LINE
  8
0
 10
-42.2059
 20
0.429565
 11
-42.1771
 21
0.414169
  0
LINE
  8
0
 10
-42.1771
 20
0.414169
 11
-42.1533
 21
0.391846
  0
LINE
  8
0
 10
-42.1533
 20
0.391846
 11
-42.1361
 21
0.36412
  0
LINE
  8
0
 10
-42.1361
 20
0.36412
 11
-42.1266
 21
0.332886
  0
LINE
  8
0
 10
-42.1266
 20
0.332886
 11
-42.1255
 21
0.300247
  0
LINE
  8
0
 10
-42.1255
 20
0.300247
 11
-42.1329
 21
0.268448
  0
LINE
  8
0
 10
-42.1329
 20
0.268448
 11
-42.1483
 21
0.239655
  0
LINE
  8
0
 10
-42.1483
 20
0.239655
 11
-42.1707
 21
0.215836
  0
LINE
  8
0
 10
-42.1707
 20
0.215836
 11
-42.1984
 21
0.198593
  0
LINE
  8
0
 10
-42.1984
 20
0.198593
 11
-42.2296
 21
0.189117
  0
LINE
  8
0
 10
-42.2296
 20
0.189117
 11
-42.2623
 21
0.188049
  0
LINE
  8
0
 10
-42.2623
 20
0.188049
 11
-42.2941
 21
0.19545
  0
LINE
  8
0
 10
27.7059
 20
0.19545
 11
27.6771
 21
0.210846
  0
LINE
  8
0
 10
27.6771
 20
0.210846
 11
27.6533
 21
0.23317
  0
LINE
  8
0
 10
27.6533
 20
0.23317
 11
27.6361
 21
0.260895
  0
LINE
  8
0
 10
27.6361
 20
0.260895
 11
27.6266
 21
0.29213
  0
LINE
  8
0
 10
27.6266
 20
0.29213
 11
27.6255
 21
0.324768
  0
LINE
  8
0
 10
27.6255
 20
0.324768
 11
27.6329
 21
0.356567
  0
LINE
  8
0
 10
27.6329
 20
0.356567
 11
27.6483
 21
0.385361
  0
LINE
  8
0
 10
27.6483
 20
0.385361
 11
27.6707
 21
0.40918
  0
LINE
  8
0
 10
27.6707
 20
0.40918
 11
27.6984
 21
0.426422
  0
LINE
  8
0
 10
27.6984
 20
0.426422
 11
27.7296
 21
0.435898
  0
LINE
  8
0
 10
27.7296
 20
0.435898
 11
27.7623
 21
0.436966
  0
LINE
  8
0
 10
27.7623
 20
0.436966
 11
27.7941
 21
0.429565
  0
LINE
  8
0
 10
27.7941
 20
0.429565
 11
27.8228
 21
0.414169
  0
LINE
  8
0
 10
27.8228
 20
0.414169
 11
27.8467
 21
0.391846
  0
LINE
  8
0
 10
27.8467
 20
0.391846
 11
27.8639
 21
0.36412
  0
LINE
  8
0
 10
27.8639
 20
0.36412
 11
27.8734
 21
0.332886
  0
LINE
  8
0
 10
27.8734
 20
0.332886
 11
27.8745
 21
0.300247
  0
LINE
  8
0
 10
27.8745
 20
0.300247
 11
27.8671
 21
0.268448
  0
LINE
  8
0
 10
27.8671
 20
0.268448
 11
27.8517
 21
0.239655
  0
LINE
  8
0
 10
27.8517
 20
0.239655
 11
27.8293
 21
0.215836
  0
LINE
  8
0
 10
27.8293
 20
0.215836
 11
27.8016
 21
0.198593
  0
LINE
  8
0
 10
27.8016
 20
0.198593
 11
27.7704
 21
0.189117
  0
LINE
  8
0
 10
27.7704
 20
0.189117
 11
27.7377
 21
0.188049
  0
LINE
  8
0
 10
27.7377
 20
0.188049
 11
27.7059
 21
0.19545
  0
LINE
  8
0
 10
0.505127
 20
-1.40625
 11
0.474548
 21
-1.40424
  0
LINE
  8
0
 10
0.474548
 20
-1.40424
 11
0.435486
 21
-1.3924
  0
LINE
  8
0
 10
0.435486
 20
-1.3924
 11
0.408951
 21
-1.37708
  0
LINE
  8
0
 10
0.408951
 20
-1.37708
 11
0.38591
 21
-1.35686
  0
LINE
  8
0
 10
0.38591
 20
-1.35686
 11
0.367249
 21
-1.33255
  0
LINE
  8
0
 10
0.367249
 20
-1.33255
 11
0.350403
 21
-1.29538
  0
LINE
  8
0
 10
0.350403
 20
-1.29538
 11
0.34375
 21
-1.25511
  0
LINE
  8
0
 10
0.34375
 20
-1.25511
 11
0.34375
 21
-0.755127
  0
LINE
  8
0
 10
0.34375
 20
-0.755127
 11
0.345764
 21
-0.724548
  0
LINE
  8
0
 10
0.345764
 20
-0.724548
 11
0.357605
 21
-0.685486
  0
LINE
  8
0
 10
0.357605
 20
-0.685486
 11
0.372925
 21
-0.658951
  0
LINE
  8
0
 10
0.372925
 20
-0.658951
 11
0.393143
 21
-0.63591
  0
LINE
  8
0
 10
0.393143
 20
-0.63591
 11
0.41745
 21
-0.617249
  0
LINE
  8
0
 10
0.41745
 20
-0.617249
 11
0.45462
 21
-0.600403
  0
LINE
  8
0
 10
0.45462
 20
-0.600403
 11
0.48468
 21
-0.594421
  0
LINE
  8
0
 10
0.48468
 20
-0.594421
 11
3.76532
 21
-0.594421
  0
LINE
  8
0
 10
3.76532
 20
-0.594421
 11
3.79538
 21
-0.600403
  0
LINE
  8
0
 10
3.79538
 20
-0.600403
 11
3.83255
 21
-0.617249
  0
LINE
  8
0
 10
3.83255
 20
-0.617249
 11
3.85686
 21
-0.63591
  0
LINE
  8
0
 10
3.85686
 20
-0.63591
 11
3.87708
 21
-0.658951
  0
LINE
  8
0
 10
3.87708
 20
-0.658951
 11
3.8924
 21
-0.685486
  0
LINE
  8
0
 10
3.8924
 20
-0.685486
 11
3.90424
 21
-0.724548
  0
LINE
  8
0
 10
3.90424
 20
-0.724548
 11
3.90625
 21
-0.755127
  0
LINE
  8
0
 10
3.90625
 20
-0.755127
 11
3.90625
 21
-1.25511
  0
LINE
  8
0
 10
3.90625
 20
-1.25511
 11
3.90424
 21
-1.27545
  0
LINE
  8
0
 10
3.90424
 20
-1.27545
 11
3.8924
 21
-1.31451
  0
LINE
  8
0
 10
3.8924
 20
-1.31451
 11
3.87708
 21
-1.34105
  0
LINE
  8
0
 10
3.87708
 20
-1.34105
 11
3.85686
 21
-1.36409
  0
LINE
  8
0
 10
3.85686
 20
-1.36409
 11
3.83255
 21
-1.38275
  0
LINE
  8
0
 10
3.83255
 20
-1.38275
 11
3.79538
 21
-1.3996
  0
LINE
  8
0
 10
3.79538
 20
-1.3996
 11
3.75511
 21
-1.40625
  0
LINE
  8
0
 10
3.75511
 20
-1.40625
 11
0.505127
 21
-1.40625
  0
LINE
  8
0
 10
-18.2449
 20
-1.40625
 11
-18.2755
 21
-1.40424
  0
LINE
  8
0
 10
-18.2755
 20
-1.40424
 11
-18.3145
 21
-1.3924
  0
LINE
  8
0
 10
-18.3145
 20
-1.3924
 11
-18.341
 21
-1.37708
  0
LINE
  8
0
 10
-18.341
 20
-1.37708
 11
-18.3641
 21
-1.35686
  0
LINE
  8
0
 10
-18.3641
 20
-1.35686
 11
-18.3828
 21
-1.33255
  0
LINE
  8
0
 10
-18.3828
 20
-1.33255
 11
-18.3996
 21
-1.29538
  0
LINE
  8
0
 10
-18.3996
 20
-1.29538
 11
-18.4062
 21
-1.25511
  0
LINE
  8
0
 10
-18.4062
 20
-1.25511
 11
-18.4062
 21
-0.755127
  0
LINE
  8
0
 10
-18.4062
 20
-0.755127
 11
-18.4042
 21
-0.724548
  0
LINE
  8
0
 10
-18.4042
 20
-0.724548
 11
-18.3924
 21
-0.685486
  0
LINE
  8
0
 10
-18.3924
 20
-0.685486
 11
-18.3771
 21
-0.658951
  0
LINE
  8
0
 10
-18.3771
 20
-0.658951
 11
-18.3569
 21
-0.63591
  0
LINE
  8
0
 10
-18.3569
 20
-0.63591
 11
-18.3326
 21
-0.617249
  0
LINE
  8
0
 10
-18.3326
 20
-0.617249
 11
-18.2954
 21
-0.600403
  0
LINE
  8
0
 10
-18.2954
 20
-0.600403
 11
-18.2653
 21
-0.594421
  0
LINE
  8
0
 10
-18.2653
 20
-0.594421
 11
-14.9847
 21
-0.594421
  0
LINE
  8
0
 10
-14.9847
 20
-0.594421
 11
-14.9546
 21
-0.600403
  0
LINE
  8
0
 10
-14.9546
 20
-0.600403
 11
-14.9174
 21
-0.617249
  0
LINE
  8
0
 10
-14.9174
 20
-0.617249
 11
-14.8931
 21
-0.63591
  0
LINE
  8
0
 10
-14.8931
 20
-0.63591
 11
-14.8729
 21
-0.658951
  0
LINE
  8
0
 10
-14.8729
 20
-0.658951
 11
-14.8576
 21
-0.685486
  0
LINE
  8
0
 10
-14.8576
 20
-0.685486
 11
-14.8458
 21
-0.724548
  0
LINE
  8
0
 10
-14.8458
 20
-0.724548
 11
-14.8438
 21
-0.755127
  0
LINE
  8
0
 10
-14.8438
 20
-0.755127
 11
-14.8438
 21
-1.25511
  0
LINE
  8
0
 10
-14.8438
 20
-1.25511
 11
-14.8458
 21
-1.27545
  0
LINE
  8
0
 10
-14.8458
 20
-1.27545
 11
-14.8576
 21
-1.31451
  0
LINE
  8
0
 10
-14.8576
 20
-1.31451
 11
-14.8729
 21
-1.34105
  0
LINE
  8
0
 10
-14.8729
 20
-1.34105
 11
-14.8931
 21
-1.36409
  0
LINE
  8
0
 10
-14.8931
 20
-1.36409
 11
-14.9174
 21
-1.38275
  0
LINE
  8
0
 10
-14.9174
 20
-1.38275
 11
-14.9546
 21
-1.3996
  0
LINE
  8
0
 10
-14.9546
 20
-1.3996
 11
-14.9949
 21
-1.40625
  0
LINE
  8
0
 10
-14.9949
 20
-1.40625
 11
-18.2449
 21
-1.40625
  0
LINE
  8
0
 10
-36.9949
 20
-1.40625
 11
-37.0255
 21
-1.40424
  0
LINE
  8
0
 10
-37.0255
 20
-1.40424
 11
-37.0645
 21
-1.3924
  0
LINE
  8
0
 10
-37.0645
 20
-1.3924
 11
-37.091
 21
-1.37708
  0
LINE
  8
0
 10
-37.091
 20
-1.37708
 11
-37.1141
 21
-1.35686
  0
LINE
  8
0
 10
-37.1141
 20
-1.35686
 11
-37.1328
 21
-1.33255
  0
LINE
  8
0
 10
-37.1328
 20
-1.33255
 11
-37.1496
 21
-1.29538
  0
LINE
  8
0
 10
-37.1496
 20
-1.29538
 11
-37.1562
 21
-1.25511
  0
LINE
  8
0
 10
-37.1562
 20
-1.25511
 11
-37.1562
 21
-0.755127
  0
LINE
  8
0
 10
-37.1562
 20
-0.755127
 11
-37.1542
 21
-0.724548
  0
LINE
  8
0
 10
-37.1542
 20
-0.724548
 11
-37.1424
 21
-0.685486
  0
LINE
  8
0
 10
-37.1424
 20
-0.685486
 11
-37.1271
 21
-0.658951
  0
LINE
  8
0
 10
-37.1271
 20
-0.658951
 11
-37.1069
 21
-0.63591
  0
LINE
  8
0
 10
-37.1069
 20
-0.63591
 11
-37.0826
 21
-0.617249
  0
LINE
  8
0
 10
-37.0826
 20
-0.617249
 11
-37.0454
 21
-0.600403
  0
LINE
  8
0
 10
-37.0454
 20
-0.600403
 11
-37.0153
 21
-0.594421
  0
LINE
  8
0
 10
-37.0153
 20
-0.594421
 11
-33.7347
 21
-0.594421
  0
LINE
  8
0
 10
-33.7347
 20
-0.594421
 11
-33.7046
 21
-0.600403
  0
LINE
  8
0
 10
-33.7046
 20
-0.600403
 11
-33.6674
 21
-0.617249
  0
LINE
  8
0
 10
-33.6674
 20
-0.617249
 11
-33.6431
 21
-0.63591
  0
LINE
  8
0
 10
-33.6431
 20
-0.63591
 11
-33.6229
 21
-0.658951
  0
LINE
  8
0
 10
-33.6229
 20
-0.658951
 11
-33.6076
 21
-0.685486
  0
LINE
  8
0
 10
-33.6076
 20
-0.685486
 11
-33.5958
 21
-0.724548
  0
LINE
  8
0
 10
-33.5958
 20
-0.724548
 11
-33.5938
 21
-0.755127
  0
LINE
  8
0
 10
-33.5938
 20
-0.755127
 11
-33.5938
 21
-1.25511
  0
LINE
  8
0
 10
-33.5938
 20
-1.25511
 11
-33.5958
 21
-1.27545
  0
LINE
  8
0
 10
-33.5958
 20
-1.27545
 11
-33.6076
 21
-1.31451
  0
LINE
  8
0
 10
-33.6076
 20
-1.31451
 11
-33.6229
 21
-1.34105
  0
LINE
  8
0
 10
-33.6229
 20
-1.34105
 11
-33.6431
 21
-1.36409
  0
LINE
  8
0
 10
-33.6431
 20
-1.36409
 11
-33.6674
 21
-1.38275
  0
LINE
  8
0
 10
-33.6674
 20
-1.38275
 11
-33.7046
 21
-1.3996
  0
LINE
  8
0
 10
-33.7046
 20
-1.3996
 11
-33.7449
 21
-1.40625
  0
LINE
  8
0
 10
-33.7449
 20
-1.40625
 11
-36.9949
 21
-1.40625
  0
LINE
  8
0
 10
19.2551
 20
-1.40625
 11
19.2245
 21
-1.40424
  0
LINE
  8
0
 10
19.2245
 20
-1.40424
 11
19.1855
 21
-1.3924
  0
LINE
  8
0
 10
19.1855
 20
-1.3924
 11
19.159
 21
-1.37708
  0
LINE
  8
0
 10
19.159
 20
-1.37708
 11
19.1359
 21
-1.35686
  0
LINE
  8
0
 10
19.1359
 20
-1.35686
 11
19.1172
 21
-1.33255
  0
LINE
  8
0
 10
19.1172
 20
-1.33255
 11
19.1004
 21
-1.29538
  0
LINE
  8
0
 10
19.1004
 20
-1.29538
 11
19.0938
 21
-1.25511
  0
LINE
  8
0
 10
19.0938
 20
-1.25511
 11
19.0938
 21
-0.755127
  0
LINE
  8
0
 10
19.0938
 20
-0.755127
 11
19.0958
 21
-0.724548
  0
LINE
  8
0
 10
19.0958
 20
-0.724548
 11
19.1076
 21
-0.685486
  0
LINE
  8
0
 10
19.1076
 20
-0.685486
 11
19.1229
 21
-0.658951
  0
LINE
  8
0
 10
19.1229
 20
-0.658951
 11
19.1431
 21
-0.63591
  0
LINE
  8
0
 10
19.1431
 20
-0.63591
 11
19.1674
 21
-0.617249
  0
LINE
  8
0
 10
19.1674
 20
-0.617249
 11
19.2046
 21
-0.600403
  0
LINE
  8
0
 10
19.2046
 20
-0.600403
 11
19.2347
 21
-0.594421
  0
LINE
  8
0
 10
19.2347
 20
-0.594421
 11
22.5153
 21
-0.594421
  0
LINE
  8
0
 10
22.5153
 20
-0.594421
 11
22.5454
 21
-0.600403
  0
LINE
  8
0
 10
22.5454
 20
-0.600403
 11
22.5826
 21
-0.617249
  0
LINE
  8
0
 10
22.5826
 20
-0.617249
 11
22.6069
 21
-0.63591
  0
LINE
  8
0
 10
22.6069
 20
-0.63591
 11
22.6271
 21
-0.658951
  0
LINE
  8
0
 10
22.6271
 20
-0.658951
 11
22.6424
 21
-0.685486
  0
LINE
  8
0
 10
22.6424
 20
-0.685486
 11
22.6542
 21
-0.724548
  0
LINE
  8
0
 10
22.6542
 20
-0.724548
 11
22.6562
 21
-0.755127
  0
LINE
  8
0
 10
22.6562
 20
-0.755127
 11
22.6562
 21
-1.25511
  0
LINE
  8
0
 10
22.6562
 20
-1.25511
 11
22.6542
 21
-1.27545
  0
LINE
  8
0
 10
22.6542
 20
-1.27545
 11
22.6424
 21
-1.31451
  0
LINE
  8
0
 10
22.6424
 20
-1.31451
 11
22.6271
 21
-1.34105
  0
LINE
  8
0
 10
22.6271
 20
-1.34105
 11
22.6069
 21
-1.36409
  0
LINE
  8
0
 10
22.6069
 20
-1.36409
 11
22.5826
 21
-1.38275
  0
LINE
  8
0
 10
22.5826
 20
-1.38275
 11
22.5454
 21
-1.3996
  0
LINE
  8
0
 10
22.5454
 20
-1.3996
 11
22.5051
 21
-1.40625
  0
LINE
  8
0
 10
22.5051
 20
-1.40625
 11
19.2551
 21
-1.40625
  0
LINE
  8
0
 10
-45.9822
 20
-15.8728
 11
-45.9498
 21
-15.8686
  0
LINE
  8
0
 10
-45.9498
 20
-15.8686
 11
-45.9177
 21
-15.8622
  0
LINE
  8
0
 10
-45.9177
 20
-15.8622
 11
-45.886
 21
-15.8537
  0
LINE
  8
0
 10
-45.886
 20
-15.8537
 11
-45.855
 21
-15.8432
  0
LINE
  8
0
 10
-45.855
 20
-15.8432
 11
-45.8248
 21
-15.8307
  0
LINE
  8
0
 10
-45.8248
 20
-15.8307
 11
-45.7954
 21
-15.8162
  0
LINE
  8
0
 10
-45.7954
 20
-15.8162
 11
-45.7671
 21
-15.7998
  0
LINE
  8
0
 10
-45.7671
 20
-15.7998
 11
-45.7399
 21
-15.7816
  0
LINE
  8
0
 10
-45.7399
 20
-15.7816
 11
-45.7139
 21
-15.7617
  0
LINE
  8
0
 10
-45.7139
 20
-15.7617
 11
-45.6893
 21
-15.7401
  0
LINE
  8
0
 10
-45.6893
 20
-15.7401
 11
-45.6661
 21
-15.717
  0
LINE
  8
0
 10
-45.6661
 20
-15.717
 11
-45.6445
 21
-15.6924
  0
LINE
  8
0
 10
-45.6445
 20
-15.6924
 11
-45.6246
 21
-15.6664
  0
LINE
  8
0
 10
-45.6246
 20
-15.6664
 11
-45.6064
 21
-15.6392
  0
LINE
  8
0
 10
-45.6064
 20
-15.6392
 11
-45.5901
 21
-15.6108
  0
LINE
  8
0
 10
-45.5901
 20
-15.6108
 11
-45.5756
 21
-15.5815
  0
LINE
  8
0
 10
-45.5756
 20
-15.5815
 11
-45.563
 21
-15.5512
  0
LINE
  8
0
 10
-45.563
 20
-15.5512
 11
-45.5525
 21
-15.5202
  0
LINE
  8
0
 10
-45.5525
 20
-15.5202
 11
-45.5441
 21
-15.4886
  0
LINE
  8
0
 10
-45.5441
 20
-15.4886
 11
-45.5377
 21
-15.4565
  0
LINE
  8
0
 10
-45.5377
 20
-15.4565
 11
-45.5334
 21
-15.424
  0
LINE
  8
0
 10
-45.5334
 20
-15.424
 11
-45.5312
 21
-15.375
  0
LINE
  8
0
 10
-45.5312
 20
-15.375
 11
-45.5296
 21
-14.9796
  0
LINE
  8
0
 10
-45.5296
 20
-14.9796
 11
-45.5202
 21
-14.9484
  0
LINE
  8
0
 10
-45.5202
 20
-14.9484
 11
-45.5029
 21
-14.9207
  0
LINE
  8
0
 10
-45.5029
 20
-14.9207
 11
-45.4791
 21
-14.8983
  0
LINE
  8
0
 10
-45.4791
 20
-14.8983
 11
-45.4503
 21
-14.8829
  0
LINE
  8
0
 10
-45.4503
 20
-14.8829
 11
-45.4185
 21
-14.8755
  0
LINE
  8
0
 10
-45.4185
 20
-14.8755
 11
-44.8873
 21
-14.8755
  0
LINE
  8
0
 10
-44.8873
 20
-14.8755
 11
-44.8546
 21
-14.8766
  0
LINE
  8
0
 10
-44.8546
 20
-14.8766
 11
-44.8234
 21
-14.8861
  0
LINE
  8
0
 10
-44.8234
 20
-14.8861
 11
-44.7957
 21
-14.9033
  0
LINE
  8
0
 10
-44.7957
 20
-14.9033
 11
-44.7733
 21
-14.9272
  0
LINE
  8
0
 10
-44.7733
 20
-14.9272
 11
-44.7579
 21
-14.9559
  0
LINE
  8
0
 10
-44.7579
 20
-14.9559
 11
-44.7505
 21
-14.9877
  0
LINE
  8
0
 10
-44.7505
 20
-14.9877
 11
-44.75
 21
-15.875
  0
LINE
  8
0
 10
-44.75
 20
-15.875
 11
30.25
 21
-15.875
  0
LINE
  8
0
 10
30.25
 20
-15.875
 11
30.2505
 21
-14.9877
  0
LINE
  8
0
 10
30.2505
 20
-14.9877
 11
30.2579
 21
-14.9559
  0
LINE
  8
0
 10
30.2579
 20
-14.9559
 11
30.2733
 21
-14.9272
  0
LINE
  8
0
 10
30.2733
 20
-14.9272
 11
30.2957
 21
-14.9033
  0
LINE
  8
0
 10
30.2957
 20
-14.9033
 11
30.3234
 21
-14.8861
  0
LINE
  8
0
 10
30.3234
 20
-14.8861
 11
30.3546
 21
-14.8766
  0
LINE
  8
0
 10
30.3546
 20
-14.8766
 11
30.3873
 21
-14.8755
  0
LINE
  8
0
 10
30.3873
 20
-14.8755
 11
30.9185
 21
-14.8755
  0
LINE
  8
0
 10
30.9185
 20
-14.8755
 11
30.9503
 21
-14.8829
  0
LINE
  8
0
 10
30.9503
 20
-14.8829
 11
30.9791
 21
-14.8983
  0
LINE
  8
0
 10
30.9791
 20
-14.8983
 11
31.0029
 21
-14.9207
  0
LINE
  8
0
 10
31.0029
 20
-14.9207
 11
31.0202
 21
-14.9484
  0
LINE
  8
0
 10
31.0202
 20
-14.9484
 11
31.0296
 21
-14.9796
  0
LINE
  8
0
 10
31.0296
 20
-14.9796
 11
31.0312
 21
-15.375
  0
LINE
  8
0
 10
31.0312
 20
-15.375
 11
31.0334
 21
-15.424
  0
LINE
  8
0
 10
31.0334
 20
-15.424
 11
31.0377
 21
-15.4565
  0
LINE
  8
0
 10
31.0377
 20
-15.4565
 11
31.0441
 21
-15.4886
  0
LINE
  8
0
 10
31.0441
 20
-15.4886
 11
31.0525
 21
-15.5202
  0
LINE
  8
0
 10
31.0525
 20
-15.5202
 11
31.063
 21
-15.5512
  0
LINE
  8
0
 10
31.063
 20
-15.5512
 11
31.0756
 21
-15.5815
  0
LINE
  8
0
 10
31.0756
 20
-15.5815
 11
31.0901
 21
-15.6108
  0
LINE
  8
0
 10
31.0901
 20
-15.6108
 11
31.1064
 21
-15.6392
  0
LINE
  8
0
 10
31.1064
 20
-15.6392
 11
31.1246
 21
-15.6664
  0
LINE
  8
0
 10
31.1246
 20
-15.6664
 11
31.1445
 21
-15.6924
  0
LINE
  8
0
 10
31.1445
 20
-15.6924
 11
31.1661
 21
-15.717
  0
LINE
  8
0
 10
31.1661
 20
-15.717
 11
31.1893
 21
-15.7401
  0
LINE
  8
0
 10
31.1893
 20
-15.7401
 11
31.2139
 21
-15.7617
  0
LINE
  8
0
 10
31.2139
 20
-15.7617
 11
31.2399
 21
-15.7816
  0
LINE
  8
0
 10
31.2399
 20
-15.7816
 11
31.2671
 21
-15.7998
  0
LINE
  8
0
 10
31.2671
 20
-15.7998
 11
31.2954
 21
-15.8162
  0
LINE
  8
0
 10
31.2954
 20
-15.8162
 11
31.3248
 21
-15.8307
  0
LINE
  8
0
 10
31.3248
 20
-15.8307
 11
31.355
 21
-15.8432
  0
LINE
  8
0
 10
31.355
 20
-15.8432
 11
31.386
 21
-15.8537
  0
LINE
  8
0
 10
31.386
 20
-15.8537
 11
31.4177
 21
-15.8622
  0
LINE
  8
0
 10
31.4177
 20
-15.8622
 11
31.4498
 21
-15.8686
  0
LINE
  8
0
 10
31.4498
 20
-15.8686
 11
31.4822
 21
-15.8728
  0
LINE
  8
0
 10
31.4822
 20
-15.8728
 11
31.5149
 21
-15.875
  0
LINE
  8
0
 10
31.5149
 20
-15.875
 11
31.5476
 21
-15.875
  0
LINE
  8
0
 10
31.5476
 20
-15.875
 11
31.5803
 21
-15.8728
  0
LINE
  8
0
 10
31.5803
 20
-15.8728
 11
31.6127
 21
-15.8686
  0
LINE
  8
0
 10
31.6127
 20
-15.8686
 11
31.6448
 21
-15.8622
  0
LINE
  8
0
 10
31.6448
 20
-15.8622
 11
31.6765
 21
-15.8537
  0
LINE
  8
0
 10
31.6765
 20
-15.8537
 11
31.7075
 21
-15.8432
  0
LINE
  8
0
 10
31.7075
 20
-15.8432
 11
31.7377
 21
-15.8307
  0
LINE
  8
0
 10
31.7377
 20
-15.8307
 11
31.7671
 21
-15.8162
  0
LINE
  8
0
 10
31.7671
 20
-15.8162
 11
31.7954
 21
-15.7998
  0
LINE
  8
0
 10
31.7954
 20
-15.7998
 11
31.8226
 21
-15.7816
  0
LINE
  8
0
 10
31.8226
 20
-15.7816
 11
31.8486
 21
-15.7617
  0
LINE
  8
0
 10
31.8486
 20
-15.7617
 11
31.8732
 21
-15.7401
  0
LINE
  8
0
 10
31.8732
 20
-15.7401
 11
31.8964
 21
-15.717
  0
LINE
  8
0
 10
31.8964
 20
-15.717
 11
31.918
 21
-15.6924
  0
LINE
  8
0
 10
31.918
 20
-15.6924
 11
31.9379
 21
-15.6664
  0
LINE
  8
0
 10
31.9379
 20
-15.6664
 11
31.9561
 21
-15.6392
  0
LINE
  8
0
 10
31.9561
 20
-15.6392
 11
31.9724
 21
-15.6108
  0
LINE
  8
0
 10
31.9724
 20
-15.6108
 11
31.9869
 21
-15.5815
  0
LINE
  8
0
 10
31.9869
 20
-15.5815
 11
31.9995
 21
-15.5512
  0
LINE
  8
0
 10
31.9995
 20
-15.5512
 11
32.01
 21
-15.5202
  0
LINE
  8
0
 10
32.01
 20
-15.5202
 11
32.0184
 21
-15.4886
  0
LINE
  8
0
 10
32.0184
 20
-15.4886
 11
32.0248
 21
-15.4565
  0
LINE
  8
0
 10
32.0248
 20
-15.4565
 11
32.0291
 21
-15.424
  0
LINE
  8
0
 10
32.0291
 20
-15.424
 11
32.0312
 21
-15.3914
  0
LINE
  8
0
 10
32.0312
 20
-15.3914
 11
32.0312
 21
-12.8586
  0
LINE
  8
0
 10
32.0312
 20
-12.8586
 11
32.0291
 21
-12.826
  0
LINE
  8
0
 10
32.0291
 20
-12.826
 11
32.0248
 21
-12.7935
  0
LINE
  8
0
 10
32.0248
 20
-12.7935
 11
32.0184
 21
-12.7614
  0
LINE
  8
0
 10
32.0184
 20
-12.7614
 11
32.01
 21
-12.7298
  0
LINE
  8
0
 10
32.01
 20
-12.7298
 11
31.9995
 21
-12.6988
  0
LINE
  8
0
 10
31.9995
 20
-12.6988
 11
31.9869
 21
-12.6685
  0
LINE
  8
0
 10
31.9869
 20
-12.6685
 11
31.9724
 21
-12.6392
  0
LINE
  8
0
 10
31.9724
 20
-12.6392
 11
31.9561
 21
-12.6108
  0
LINE
  8
0
 10
31.9561
 20
-12.6108
 11
31.9379
 21
-12.5836
  0
LINE
  8
0
 10
31.9379
 20
-12.5836
 11
31.918
 21
-12.5576
  0
LINE
  8
0
 10
31.918
 20
-12.5576
 11
31.8964
 21
-12.533
  0
LINE
  8
0
 10
31.8964
 20
-12.533
 11
31.8732
 21
-12.5099
  0
LINE
  8
0
 10
31.8732
 20
-12.5099
 11
31.8486
 21
-12.4883
  0
LINE
  8
0
 10
31.8486
 20
-12.4883
 11
31.8226
 21
-12.4684
  0
LINE
  8
0
 10
31.8226
 20
-12.4684
 11
31.7954
 21
-12.4502
  0
LINE
  8
0
 10
31.7954
 20
-12.4502
 11
31.7671
 21
-12.4338
  0
LINE
  8
0
 10
31.7671
 20
-12.4338
 11
31.7377
 21
-12.4193
  0
LINE
  8
0
 10
31.7377
 20
-12.4193
 11
31.7075
 21
-12.4068
  0
LINE
  8
0
 10
31.7075
 20
-12.4068
 11
31.6765
 21
-12.3963
  0
LINE
  8
0
 10
31.6765
 20
-12.3963
 11
31.6448
 21
-12.3878
  0
LINE
  8
0
 10
31.6448
 20
-12.3878
 11
31.6127
 21
-12.3814
  0
LINE
  8
0
 10
31.6127
 20
-12.3814
 11
31.5803
 21
-12.3772
  0
LINE
  8
0
 10
31.5803
 20
-12.3772
 11
31.5476
 21
-12.375
  0
LINE
  8
0
 10
31.5476
 20
-12.375
 11
30.375
 21
-12.375
  0
LINE
  8
0
 10
30.375
 20
-12.375
 11
30.3387
 21
-12.3697
  0
LINE
  8
0
 10
30.3387
 20
-12.3697
 11
30.3089
 21
-12.3562
  0
LINE
  8
0
 10
30.3089
 20
-12.3562
 11
30.2837
 21
-12.3355
  0
LINE
  8
0
 10
30.2837
 20
-12.3355
 11
30.2647
 21
-12.309
  0
LINE
  8
0
 10
30.2647
 20
-12.309
 11
30.2532
 21
-12.2784
  0
LINE
  8
0
 10
30.2532
 20
-12.2784
 11
30.25
 21
-12.25
  0
LINE
  8
0
 10
30.25
 20
-12.25
 11
30.2505
 21
-7.98775
  0
LINE
  8
0
 10
30.2505
 20
-7.98775
 11
30.2579
 21
-7.95595
  0
LINE
  8
0
 10
30.2579
 20
-7.95595
 11
30.2733
 21
-7.92715
  0
LINE
  8
0
 10
30.2733
 20
-7.92715
 11
30.2957
 21
-7.90334
  0
LINE
  8
0
 10
30.2957
 20
-7.90334
 11
30.3234
 21
-7.88609
  0
LINE
  8
0
 10
30.3234
 20
-7.88609
 11
30.3546
 21
-7.87662
  0
LINE
  8
0
 10
30.3546
 20
-7.87662
 11
30.3873
 21
-7.87555
  0
LINE
  8
0
 10
30.3873
 20
-7.87555
 11
30.9185
 21
-7.87555
  0
LINE
  8
0
 10
30.9185
 20
-7.87555
 11
30.9503
 21
-7.88295
  0
LINE
  8
0
 10
30.9503
 20
-7.88295
 11
30.9791
 21
-7.89835
  0
LINE
  8
0
 10
30.9791
 20
-7.89835
 11
31.0029
 21
-7.92067
  0
LINE
  8
0
 10
31.0029
 20
-7.92067
 11
31.0202
 21
-7.94839
  0
LINE
  8
0
 10
31.0202
 20
-7.94839
 11
31.0296
 21
-7.97963
  0
LINE
  8
0
 10
31.0296
 20
-7.97963
 11
31.0312
 21
-8.375
  0
LINE
  8
0
 10
31.0312
 20
-8.375
 11
31.0334
 21
-8.42403
  0
LINE
  8
0
 10
31.0334
 20
-8.42403
 11
31.0377
 21
-8.45648
  0
LINE
  8
0
 10
31.0377
 20
-8.45648
 11
31.0441
 21
-8.48859
  0
LINE
  8
0
 10
31.0441
 20
-8.48859
 11
31.0525
 21
-8.52022
  0
LINE
  8
0
 10
31.0525
 20
-8.52022
 11
31.063
 21
-8.55121
  0
LINE
  8
0
 10
31.063
 20
-8.55121
 11
31.0756
 21
-8.58145
  0
LINE
  8
0
 10
31.0756
 20
-8.58145
 11
31.0901
 21
-8.61082
  0
LINE
  8
0
 10
31.0901
 20
-8.61082
 11
31.1064
 21
-8.63916
  0
LINE
  8
0
 10
31.1064
 20
-8.63916
 11
31.1246
 21
-8.66638
  0
LINE
  8
0
 10
31.1246
 20
-8.66638
 11
31.1445
 21
-8.69235
  0
LINE
  8
0
 10
31.1445
 20
-8.69235
 11
31.1661
 21
-8.71696
  0
LINE
  8
0
 10
31.1661
 20
-8.71696
 11
31.1893
 21
-8.74011
  0
LINE
  8
0
 10
31.1893
 20
-8.74011
 11
31.2139
 21
-8.7617
  0
LINE
  8
0
 10
31.2139
 20
-8.7617
 11
31.2399
 21
-8.78163
  0
LINE
  8
0
 10
31.2399
 20
-8.78163
 11
31.2671
 21
-8.79982
  0
LINE
  8
0
 10
31.2671
 20
-8.79982
 11
31.2954
 21
-8.81619
  0
LINE
  8
0
 10
31.2954
 20
-8.81619
 11
31.3248
 21
-8.83067
  0
LINE
  8
0
 10
31.3248
 20
-8.83067
 11
31.355
 21
-8.8432
  0
LINE
  8
0
 10
31.355
 20
-8.8432
 11
31.386
 21
-8.85371
  0
LINE
  8
0
 10
31.386
 20
-8.85371
 11
31.4177
 21
-8.8622
  0
LINE
  8
0
 10
31.4177
 20
-8.8622
 11
31.4498
 21
-8.86858
  0
LINE
  8
0
 10
31.4498
 20
-8.86858
 11
31.4822
 21
-8.87285
  0
LINE
  8
0
 10
31.4822
 20
-8.87285
 11
31.5149
 21
-8.875
  0
LINE
  8
0
 10
31.5149
 20
-8.875
 11
31.5476
 21
-8.875
  0
LINE
  8
0
 10
31.5476
 20
-8.875
 11
31.5803
 21
-8.87285
  0
LINE
  8
0
 10
31.5803
 20
-8.87285
 11
31.6127
 21
-8.86858
  0
LINE
  8
0
 10
31.6127
 20
-8.86858
 11
31.6448
 21
-8.8622
  0
LINE
  8
0
 10
31.6448
 20
-8.8622
 11
31.6765
 21
-8.85371
  0
LINE
  8
0
 10
31.6765
 20
-8.85371
 11
31.7075
 21
-8.8432
  0
LINE
  8
0
 10
31.7075
 20
-8.8432
 11
31.7377
 21
-8.83067
  0
LINE
  8
0
 10
31.7377
 20
-8.83067
 11
31.7671
 21
-8.81619
  0
LINE
  8
0
 10
31.7671
 20
-8.81619
 11
31.7954
 21
-8.79982
  0
LINE
  8
0
 10
31.7954
 20
-8.79982
 11
31.8226
 21
-8.78163
  0
LINE
  8
0
 10
31.8226
 20
-8.78163
 11
31.8486
 21
-8.7617
  0
LINE
  8
0
 10
31.8486
 20
-8.7617
 11
31.8732
 21
-8.74011
  0
LINE
  8
0
 10
31.8732
 20
-8.74011
 11
31.8964
 21
-8.71696
  0
LINE
  8
0
 10
31.8964
 20
-8.71696
 11
31.918
 21
-8.69235
  0
LINE
  8
0
 10
31.918
 20
-8.69235
 11
31.9379
 21
-8.66638
  0
LINE
  8
0
 10
31.9379
 20
-8.66638
 11
31.9561
 21
-8.63916
  0
LINE
  8
0
 10
31.9561
 20
-8.63916
 11
31.9724
 21
-8.61082
  0
LINE
  8
0
 10
31.9724
 20
-8.61082
 11
31.9869
 21
-8.58145
  0
LINE
  8
0
 10
31.9869
 20
-8.58145
 11
31.9995
 21
-8.55121
  0
LINE
  8
0
 10
31.9995
 20
-8.55121
 11
32.01
 21
-8.52022
  0
LINE
  8
0
 10
32.01
 20
-8.52022
 11
32.0184
 21
-8.48859
  0
LINE
  8
0
 10
32.0184
 20
-8.48859
 11
32.0248
 21
-8.45648
  0
LINE
  8
0
 10
32.0248
 20
-8.45648
 11
32.0291
 21
-8.42403
  0
LINE
  8
0
 10
32.0291
 20
-8.42403
 11
32.0312
 21
-8.39136
  0
LINE
  8
0
 10
32.0312
 20
-8.39136
 11
32.0312
 21
-5.85864
  0
LINE
  8
0
 10
32.0312
 20
-5.85864
 11
32.0291
 21
-5.82597
  0
LINE
  8
0
 10
32.0291
 20
-5.82597
 11
32.0248
 21
-5.79352
  0
LINE
  8
0
 10
32.0248
 20
-5.79352
 11
32.0184
 21
-5.76141
  0
LINE
  8
0
 10
32.0184
 20
-5.76141
 11
32.01
 21
-5.72978
  0
LINE
  8
0
 10
32.01
 20
-5.72978
 11
31.9995
 21
-5.69879
  0
LINE
  8
0
 10
31.9995
 20
-5.69879
 11
31.9869
 21
-5.66855
  0
LINE
  8
0
 10
31.9869
 20
-5.66855
 11
31.9724
 21
-5.63918
  0
LINE
  8
0
 10
31.9724
 20
-5.63918
 11
31.9561
 21
-5.61084
  0
LINE
  8
0
 10
31.9561
 20
-5.61084
 11
31.9379
 21
-5.58362
  0
LINE
  8
0
 10
31.9379
 20
-5.58362
 11
31.918
 21
-5.55765
  0
LINE
  8
0
 10
31.918
 20
-5.55765
 11
31.8964
 21
-5.53304
  0
LINE
  8
0
 10
31.8964
 20
-5.53304
 11
31.8732
 21
-5.50989
  0
LINE
  8
0
 10
31.8732
 20
-5.50989
 11
31.8486
 21
-5.4883
  0
LINE
  8
0
 10
31.8486
 20
-5.4883
 11
31.8226
 21
-5.46837
  0
LINE
  8
0
 10
31.8226
 20
-5.46837
 11
31.7954
 21
-5.45018
  0
LINE
  8
0
 10
31.7954
 20
-5.45018
 11
31.7671
 21
-5.43381
  0
LINE
  8
0
 10
31.7671
 20
-5.43381
 11
31.7377
 21
-5.41933
  0
LINE
  8
0
 10
31.7377
 20
-5.41933
 11
31.7075
 21
-5.4068
  0
LINE
  8
0
 10
31.7075
 20
-5.4068
 11
31.6765
 21
-5.39629
  0
LINE
  8
0
 10
31.6765
 20
-5.39629
 11
31.6448
 21
-5.3878
  0
LINE
  8
0
 10
31.6448
 20
-5.3878
 11
31.6127
 21
-5.38142
  0
LINE
  8
0
 10
31.6127
 20
-5.38142
 11
31.5803
 21
-5.37715
  0
LINE
  8
0
 10
31.5803
 20
-5.37715
 11
31.5476
 21
-5.375
  0
LINE
  8
0
 10
31.5476
 20
-5.375
 11
30.375
 21
-5.375
  0
LINE
  8
0
 10
30.375
 20
-5.375
 11
30.3387
 21
-5.36969
  0
LINE
  8
0
 10
30.3387
 20
-5.36969
 11
30.3089
 21
-5.35622
  0
LINE
  8
0
 10
30.3089
 20
-5.35622
 11
30.2837
 21
-5.33549
  0
LINE
  8
0
 10
30.2837
 20
-5.33549
 11
30.2647
 21
-5.30896
  0
LINE
  8
0
 10
30.2647
 20
-5.30896
 11
30.2532
 21
-5.27841
  0
LINE
  8
0
 10
30.2532
 20
-5.27841
 11
30.25
 21
-5.25
  0
LINE
  8
0
 10
30.25
 20
-5.25
 11
30.25
 21
-3.125
  0
LINE
  8
0
 10
30.25
 20
-3.125
 11
-44.75
 21
-3.125
  0
LINE
  8
0
 10
-44.75
 20
-3.125
 11
-44.75
 21
-5.25
  0
LINE
  8
0
 10
-44.75
 20
-5.25
 11
-44.7532
 21
-5.27841
  0
LINE
  8
0
 10
-44.7532
 20
-5.27841
 11
-44.7647
 21
-5.30896
  0
LINE
  8
0
 10
-44.7647
 20
-5.30896
 11
-44.7837
 21
-5.33549
  0
LINE
  8
0
 10
-44.7837
 20
-5.33549
 11
-44.8089
 21
-5.35622
  0
LINE
  8
0
 10
-44.8089
 20
-5.35622
 11
-44.8387
 21
-5.36969
  0
LINE
  8
0
 10
-44.8387
 20
-5.36969
 11
-44.875
 21
-5.375
  0
LINE
  8
0
 10
-44.875
 20
-5.375
 11
-46.0476
 21
-5.375
  0
LINE
  8
0
 10
-46.0476
 20
-5.375
 11
-46.0803
 21
-5.37715
  0
LINE
  8
0
 10
-46.0803
 20
-5.37715
 11
-46.1127
 21
-5.38142
  0
LINE
  8
0
 10
-46.1127
 20
-5.38142
 11
-46.1448
 21
-5.3878
  0
LINE
  8
0
 10
-46.1448
 20
-5.3878
 11
-46.1765
 21
-5.39629
  0
LINE
  8
0
 10
-46.1765
 20
-5.39629
 11
-46.2075
 21
-5.4068
  0
LINE
  8
0
 10
-46.2075
 20
-5.4068
 11
-46.2377
 21
-5.41933
  0
LINE
  8
0
 10
-46.2377
 20
-5.41933
 11
-46.2671
 21
-5.43381
  0
LINE
  8
0
 10
-46.2671
 20
-5.43381
 11
-46.2954
 21
-5.45018
  0
LINE
  8
0
 10
-46.2954
 20
-5.45018
 11
-46.3226
 21
-5.46837
  0
LINE
  8
0
 10
-46.3226
 20
-5.46837
 11
-46.3486
 21
-5.4883
  0
LINE
  8
0
 10
-46.3486
 20
-5.4883
 11
-46.3732
 21
-5.50989
  0
LINE
  8
0
 10
-46.3732
 20
-5.50989
 11
-46.3964
 21
-5.53304
  0
LINE
  8
0
 10
-46.3964
 20
-5.53304
 11
-46.418
 21
-5.55765
  0
LINE
  8
0
 10
-46.418
 20
-5.55765
 11
-46.4379
 21
-5.58362
  0
LINE
  8
0
 10
-46.4379
 20
-5.58362
 11
-46.4561
 21
-5.61084
  0
LINE
  8
0
 10
-46.4561
 20
-5.61084
 11
-46.4724
 21
-5.63918
  0
LINE
  8
0
 10
-46.4724
 20
-5.63918
 11
-46.4869
 21
-5.66855
  0
LINE
  8
0
 10
-46.4869
 20
-5.66855
 11
-46.4995
 21
-5.69879
  0
LINE
  8
0
 10
-46.4995
 20
-5.69879
 11
-46.51
 21
-5.72978
  0
LINE
  8
0
 10
-46.51
 20
-5.72978
 11
-46.5184
 21
-5.76141
  0
LINE
  8
0
 10
-46.5184
 20
-5.76141
 11
-46.5248
 21
-5.79352
  0
LINE
  8
0
 10
-46.5248
 20
-5.79352
 11
-46.5291
 21
-5.82597
  0
LINE
  8
0
 10
-46.5291
 20
-5.82597
 11
-46.5312
 21
-5.85864
  0
LINE
  8
0
 10
-46.5312
 20
-5.85864
 11
-46.5312
 21
-8.39136
  0
LINE
  8
0
 10
-46.5312
 20
-8.39136
 11
-46.5291
 21
-8.42403
  0
LINE
  8
0
 10
-46.5291
 20
-8.42403
 11
-46.5248
 21
-8.45648
  0
LINE
  8
0
 10
-46.5248
 20
-8.45648
 11
-46.5184
 21
-8.48859
  0
LINE
  8
0
 10
-46.5184
 20
-8.48859
 11
-46.51
 21
-8.52022
  0
LINE
  8
0
 10
-46.51
 20
-8.52022
 11
-46.4995
 21
-8.55121
  0
LINE
  8
0
 10
-46.4995
 20
-8.55121
 11
-46.4869
 21
-8.58145
  0
LINE
  8
0
 10
-46.4869
 20
-8.58145
 11
-46.4724
 21
-8.61082
  0
LINE
  8
0
 10
-46.4724
 20
-8.61082
 11
-46.4561
 21
-8.63916
  0
LINE
  8
0
 10
-46.4561
 20
-8.63916
 11
-46.4379
 21
-8.66638
  0
LINE
  8
0
 10
-46.4379
 20
-8.66638
 11
-46.418
 21
-8.69235
  0
LINE
  8
0
 10
-46.418
 20
-8.69235
 11
-46.3964
 21
-8.71696
  0
LINE
  8
0
 10
-46.3964
 20
-8.71696
 11
-46.3732
 21
-8.74011
  0
LINE
  8
0
 10
-46.3732
 20
-8.74011
 11
-46.3486
 21
-8.7617
  0
LINE
  8
0
 10
-46.3486
 20
-8.7617
 11
-46.3226
 21
-8.78163
  0
LINE
  8
0
 10
-46.3226
 20
-8.78163
 11
-46.2954
 21
-8.79982
  0
LINE
  8
0
 10
-46.2954
 20
-8.79982
 11
-46.2671
 21
-8.81619
  0
LINE
  8
0
 10
-46.2671
 20
-8.81619
 11
-46.2377
 21
-8.83067
  0
LINE
  8
0
 10
-46.2377
 20
-8.83067
 11
-46.2075
 21
-8.8432
  0
LINE
  8
0
 10
-46.2075
 20
-8.8432
 11
-46.1765
 21
-8.85371
  0
LINE
  8
0
 10
-46.1765
 20
-8.85371
 11
-46.1448
 21
-8.8622
  0
LINE
  8
0
 10
-46.1448
 20
-8.8622
 11
-46.1127
 21
-8.86858
  0
LINE
  8
0
 10
-46.1127
 20
-8.86858
 11
-46.0803
 21
-8.87285
  0
LINE
  8
0
 10
-46.0803
 20
-8.87285
 11
-46.0476
 21
-8.875
  0
LINE
  8
0
 10
-46.0476
 20
-8.875
 11
-46.0149
 21
-8.875
  0
LINE
  8
0
 10
-46.0149
 20
-8.875
 11
-45.9822
 21
-8.87285
  0
LINE
  8
0
 10
-45.9822
 20
-8.87285
 11
-45.9498
 21
-8.86858
  0
LINE
  8
0
 10
-45.9498
 20
-8.86858
 11
-45.9177
 21
-8.8622
  0
LINE
  8
0
 10
-45.9177
 20
-8.8622
 11
-45.886
 21
-8.85371
  0
LINE
  8
0
 10
-45.886
 20
-8.85371
 11
-45.855
 21
-8.8432
  0
LINE
  8
0
 10
-45.855
 20
-8.8432
 11
-45.8248
 21
-8.83067
  0
LINE
  8
0
 10
-45.8248
 20
-8.83067
 11
-45.7954
 21
-8.81619
  0
LINE
  8
0
 10
-45.7954
 20
-8.81619
 11
-45.7671
 21
-8.79982
  0
LINE
  8
0
 10
-45.7671
 20
-8.79982
 11
-45.7399
 21
-8.78163
  0
LINE
  8
0
 10
-45.7399
 20
-8.78163
 11
-45.7139
 21
-8.7617
  0
LINE
  8
0
 10
-45.7139
 20
-8.7617
 11
-45.6893
 21
-8.74011
  0
LINE
  8
0
 10
-45.6893
 20
-8.74011
 11
-45.6661
 21
-8.71696
  0
LINE
  8
0
 10
-45.6661
 20
-8.71696
 11
-45.6445
 21
-8.69235
  0
LINE
  8
0
 10
-45.6445
 20
-8.69235
 11
-45.6246
 21
-8.66638
  0
LINE
  8
0
 10
-45.6246
 20
-8.66638
 11
-45.6064
 21
-8.63916
  0
LINE
  8
0
 10
-45.6064
 20
-8.63916
 11
-45.5901
 21
-8.61082
  0
LINE
  8
0
 10
-45.5901
 20
-8.61082
 11
-45.5756
 21
-8.58145
  0
LINE
  8
0
 10
-45.5756
 20
-8.58145
 11
-45.563
 21
-8.55121
  0
LINE
  8
0
 10
-45.563
 20
-8.55121
 11
-45.5525
 21
-8.52022
  0
LINE
  8
0
 10
-45.5525
 20
-8.52022
 11
-45.5441
 21
-8.48859
  0
LINE
  8
0
 10
-45.5441
 20
-8.48859
 11
-45.5377
 21
-8.45648
  0
LINE
  8
0
 10
-45.5377
 20
-8.45648
 11
-45.5334
 21
-8.42403
  0
LINE
  8
0
 10
-45.5334
 20
-8.42403
 11
-45.5312
 21
-8.375
  0
LINE
  8
0
 10
-45.5312
 20
-8.375
 11
-45.5296
 21
-7.97963
  0
LINE
  8
0
 10
-45.5296
 20
-7.97963
 11
-45.5202
 21
-7.94839
  0
LINE
  8
0
 10
-45.5202
 20
-7.94839
 11
-45.5029
 21
-7.92067
  0
LINE
  8
0
 10
-45.5029
 20
-7.92067
 11
-45.4791
 21
-7.89835
  0
LINE
  8
0
 10
-45.4791
 20
-7.89835
 11
-45.4503
 21
-7.88295
  0
LINE
  8
0
 10
-45.4503
 20
-7.88295
 11
-45.4185
 21
-7.87555
  0
LINE
  8
0
 10
-45.4185
 20
-7.87555
 11
-44.8873
 21
-7.87555
  0
LINE
  8
0
 10
-44.8873
 20
-7.87555
 11
-44.8546
 21
-7.87662
  0
LINE
  8
0
 10
-44.8546
 20
-7.87662
 11
-44.8234
 21
-7.88609
  0
LINE
  8
0
 10
-44.8234
 20
-7.88609
 11
-44.7957
 21
-7.90334
  0
LINE
  8
0
 10
-44.7957
 20
-7.90334
 11
-44.7733
 21
-7.92715
  0
LINE
  8
0
 10
-44.7733
 20
-7.92715
 11
-44.7579
 21
-7.95595
  0
LINE
  8
0
 10
-44.7579
 20
-7.95595
 11
-44.7505
 21
-7.98775
  0
LINE
  8
0
 10
-44.7505
 20
-7.98775
 11
-44.75
 21
-12.25
  0
LINE
  8
0
 10
-44.75
 20
-12.25
 11
-44.7532
 21
-12.2784
  0
LINE
  8
0
 10
-44.7532
 20
-12.2784
 11
-44.7647
 21
-12.309
  0
LINE
  8
0
 10
-44.7647
 20
-12.309
 11
-44.7837
 21
-12.3355
  0
LINE
  8
0
 10
-44.7837
 20
-12.3355
 11
-44.8089
 21
-12.3562
  0
LINE
  8
0
 10
-44.8089
 20
-12.3562
 11
-44.8387
 21
-12.3697
  0
LINE
  8
0
 10
-44.8387
 20
-12.3697
 11
-44.875
 21
-12.375
  0
LINE
  8
0
 10
-44.875
 20
-12.375
 11
-46.0476
 21
-12.375
  0
LINE
  8
0
 10
-46.0476
 20
-12.375
 11
-46.0803
 21
-12.3772
  0
LINE
  8
0
 10
-46.0803
 20
-12.3772
 11
-46.1127
 21
-12.3814
  0
LINE
  8
0
 10
-46.1127
 20
-12.3814
 11
-46.1448
 21
-12.3878
  0
LINE
  8
0
 10
-46.1448
 20
-12.3878
 11
-46.1765
 21
-12.3963
  0
LINE
  8
0
 10
-46.1765
 20
-12.3963
 11
-46.2075
 21
-12.4068
  0
LINE
  8
0
 10
-46.2075
 20
-12.4068
 11
-46.2377
 21
-12.4193
  0
LINE
  8
0
 10
-46.2377
 20
-12.4193
 11
-46.2671
 21
-12.4338
  0
LINE
  8
0
 10
-46.2671
 20
-12.4338
 11
-46.2954
 21
-12.4502
  0
LINE
  8
0
 10
-46.2954
 20
-12.4502
 11
-46.3226
 21
-12.4684
  0
LINE
  8
0
 10
-46.3226
 20
-12.4684
 11
-46.3486
 21
-12.4883
  0
LINE
  8
0
 10
-46.3486
 20
-12.4883
 11
-46.3732
 21
-12.5099
  0
LINE
  8
0
 10
-46.3732
 20
-12.5099
 11
-46.3964
 21
-12.533
  0
LINE
  8
0
 10
-46.3964
 20
-12.533
 11
-46.418
 21
-12.5576
  0
LINE
  8
0
 10
-46.418
 20
-12.5576
 11
-46.4379
 21
-12.5836
  0
LINE
  8
0
 10
-46.4379
 20
-12.5836
 11
-46.4561
 21
-12.6108
  0
LINE
  8
0
 10
-46.4561
 20
-12.6108
 11
-46.4724
 21
-12.6392
  0
LINE
  8
0
 10
-46.4724
 20
-12.6392
 11
-46.4869
 21
-12.6685
  0
LINE
  8
0
 10
-46.4869
 20
-12.6685
 11
-46.4995
 21
-12.6988
  0
LINE
  8
0
 10
-46.4995
 20
-12.6988
 11
-46.51
 21
-12.7298
  0
LINE
  8
0
 10
-46.51
 20
-12.7298
 11
-46.5184
 21
-12.7614
  0
LINE
  8
0
 10
-46.5184
 20
-12.7614
 11
-46.5248
 21
-12.7935
  0
LINE
  8
0
 10
-46.5248
 20
-12.7935
 11
-46.5291
 21
-12.826
  0
LINE
  8
0
 10
-46.5291
 20
-12.826
 11
-46.5312
 21
-12.8586
  0
LINE
  8
0
 10
-46.5312
 20
-12.8586
 11
-46.5312
 21
-15.3914
  0
LINE
  8
0
 10
-46.5312
 20
-15.3914
 11
-46.5291
 21
-15.424
  0
LINE
  8
0
 10
-46.5291
 20
-15.424
 11
-46.5248
 21
-15.4565
  0
LINE
  8
0
 10
-46.5248
 20
-15.4565
 11
-46.5184
 21
-15.4886
  0
LINE
  8
0
 10
-46.5184
 20
-15.4886
 11
-46.51
 21
-15.5202
  0
LINE
  8
0
 10
-46.51
 20
-15.5202
 11
-46.4995
 21
-15.5512
  0
LINE
  8
0
 10
-46.4995
 20
-15.5512
 11
-46.4869
 21
-15.5815
  0
LINE
  8
0
 10
-46.4869
 20
-15.5815
 11
-46.4724
 21
-15.6108
  0
LINE
  8
0
 10
-46.4724
 20
-15.6108
 11
-46.4561
 21
-15.6392
  0
LINE
  8
0
 10
-46.4561
 20
-15.6392
 11
-46.4379
 21
-15.6664
  0
LINE
  8
0
 10
-46.4379
 20
-15.6664
 11
-46.418
 21
-15.6924
  0
LINE
  8
0
 10
-46.418
 20
-15.6924
 11
-46.3964
 21
-15.717
  0
LINE
  8
0
 10
-46.3964
 20
-15.717
 11
-46.3732
 21
-15.7401
  0
LINE
  8
0
 10
-46.3732
 20
-15.7401
 11
-46.3486
 21
-15.7617
  0
LINE
  8
0
 10
-46.3486
 20
-15.7617
 11
-46.3226
 21
-15.7816
  0
LINE
  8
0
 10
-46.3226
 20
-15.7816
 11
-46.2954
 21
-15.7998
  0
LINE
  8
0
 10
-46.2954
 20
-15.7998
 11
-46.2671
 21
-15.8162
  0
LINE
  8
0
 10
-46.2671
 20
-15.8162
 11
-46.2377
 21
-15.8307
  0
LINE
  8
0
 10
-46.2377
 20
-15.8307
 11
-46.2075
 21
-15.8432
  0
LINE
  8
0
 10
-46.2075
 20
-15.8432
 11
-46.1765
 21
-15.8537
  0
LINE
  8
0
 10
-46.1765
 20
-15.8537
 11
-46.1448
 21
-15.8622
  0
LINE
  8
0
 10
-46.1448
 20
-15.8622
 11
-46.1127
 21
-15.8686
  0
LINE
  8
0
 10
-46.1127
 20
-15.8686
 11
-46.0803
 21
-15.8728
  0
LINE
  8
0
 10
-46.0803
 20
-15.8728
 11
-46.0476
 21
-15.875
  0
LINE
  8
0
 10
-46.0476
 20
-15.875
 11
-46.0149
 21
-15.875
  0
LINE
  8
0
 10
-46.0149
 20
-15.875
 11
-45.9822
 21
-15.8728
  0
LINE
  8
0
 10
-42.2941
 20
-6.42957
 11
-42.3228
 21
-6.41417
  0
LINE
  8
0
 10
-42.3228
 20
-6.41417
 11
-42.3467
 21
-6.39185
  0
LINE
  8
0
 10
-42.3467
 20
-6.39185
 11
-42.3639
 21
-6.36412
  0
LINE
  8
0
 10
-42.3639
 20
-6.36412
 11
-42.3734
 21
-6.33289
  0
LINE
  8
0
 10
-42.3734
 20
-6.33289
 11
-42.3745
 21
-6.30025
  0
LINE
  8
0
 10
-42.3745
 20
-6.30025
 11
-42.3671
 21
-6.26845
  0
LINE
  8
0
 10
-42.3671
 20
-6.26845
 11
-42.3517
 21
-6.23965
  0
LINE
  8
0
 10
-42.3517
 20
-6.23965
 11
-42.3293
 21
-6.21584
  0
LINE
  8
0
 10
-42.3293
 20
-6.21584
 11
-42.3016
 21
-6.19859
  0
LINE
  8
0
 10
-42.3016
 20
-6.19859
 11
-42.2704
 21
-6.18912
  0
LINE
  8
0
 10
-42.2704
 20
-6.18912
 11
-42.2377
 21
-6.18805
  0
LINE
  8
0
 10
-42.2377
 20
-6.18805
 11
-42.2059
 21
-6.19545
  0
LINE
  8
0
 10
-42.2059
 20
-6.19545
 11
-42.1771
 21
-6.21085
  0
LINE
  8
0
 10
-42.1771
 20
-6.21085
 11
-42.1533
 21
-6.23317
  0
LINE
  8
0
 10
-42.1533
 20
-6.23317
 11
-42.1361
 21
-6.26089
  0
LINE
  8
0
 10
-42.1361
 20
-6.26089
 11
-42.1266
 21
-6.29213
  0
LINE
  8
0
 10
-42.1266
 20
-6.29213
 11
-42.1255
 21
-6.32477
  0
LINE
  8
0
 10
-42.1255
 20
-6.32477
 11
-42.1329
 21
-6.35657
  0
LINE
  8
0
 10
-42.1329
 20
-6.35657
 11
-42.1483
 21
-6.38536
  0
LINE
  8
0
 10
-42.1483
 20
-6.38536
 11
-42.1707
 21
-6.40918
  0
LINE
  8
0
 10
-42.1707
 20
-6.40918
 11
-42.1984
 21
-6.42642
  0
LINE
  8
0
 10
-42.1984
 20
-6.42642
 11
-42.2296
 21
-6.4359
  0
LINE
  8
0
 10
-42.2296
 20
-6.4359
 11
-42.2623
 21
-6.43697
  0
LINE
  8
0
 10
-42.2623
 20
-6.43697
 11
-42.2941
 21
-6.42957
  0
LINE
  8
0
 10
27.7059
 20
-6.42957
 11
27.6771
 21
-6.41417
  0
LINE
  8
0
 10
27.6771
 20
-6.41417
 11
27.6533
 21
-6.39185
  0
LINE
  8
0
 10
27.6533
 20
-6.39185
 11
27.6361
 21
-6.36412
  0
LINE
  8
0
 10
27.6361
 20
-6.36412
 11
27.6266
 21
-6.33289
  0
LINE
  8
0
 10
27.6266
 20
-6.33289
 11
27.6255
 21
-6.30025
  0
LINE
  8
0
 10
27.6255
 20
-6.30025
 11
27.6329
 21
-6.26845
  0
LINE
  8
0
 10
27.6329
 20
-6.26845
 11
27.6483
 21
-6.23965
  0
LINE
  8
0
 10
27.6483
 20
-6.23965
 11
27.6707
 21
-6.21584
  0
LINE
  8
0
 10
27.6707
 20
-6.21584
 11
27.6984
 21
-6.19859
  0
LINE
  8
0
 10
27.6984
 20
-6.19859
 11
27.7296
 21
-6.18912
  0
LINE
  8
0
 10
27.7296
 20
-6.18912
 11
27.7623
 21
-6.18805
  0
LINE
  8
0
 10
27.7623
 20
-6.18805
 11
27.7941
 21
-6.19545
  0
LINE
  8
0
 10
27.7941
 20
-6.19545
 11
27.8228
 21
-6.21085
  0
LINE
  8
0
 10
27.8228
 20
-6.21085
 11
27.8467
 21
-6.23317
  0
LINE
  8
0
 10
27.8467
 20
-6.23317
 11
27.8639
 21
-6.26089
  0
LINE
  8
0
 10
27.8639
 20
-6.26089
 11
27.8734
 21
-6.29213
  0
LINE
  8
0
 10
27.8734
 20
-6.29213
 11
27.8745
 21
-6.32477
  0
LINE
  8
0
 10
27.8745
 20
-6.32477
 11
27.8671
 21
-6.35657
  0
LINE
  8
0
 10
27.8671
 20
-6.35657
 11
27.8517
 21
-6.38536
  0
LINE
  8
0
 10
27.8517
 20
-6.38536
 11
27.8293
 21
-6.40918
  0
LINE
  8
0
 10
27.8293
 20
-6.40918
 11
27.8016
 21
-6.42642
  0
LINE
  8
0
 10
27.8016
 20
-6.42642
 11
27.7704
 21
-6.4359
  0
LINE
  8
0
 10
27.7704
 20
-6.4359
 11
27.7377
 21
-6.43697
  0
LINE
  8
0
 10
27.7377
 20
-6.43697
 11
27.7059
 21
-6.42957
  0
LINE
  8
0
 10
-42.2941
 20
-12.8046
 11
-42.3228
 21
-12.7892
  0
LINE
  8
0
 10
-42.3228
 20
-12.7892
 11
-42.3467
 21
-12.7668
  0
LINE
  8
0
 10
-42.3467
 20
-12.7668
 11
-42.3639
 21
-12.7391
  0
LINE
  8
0
 10
-42.3639
 20
-12.7391
 11
-42.3734
 21
-12.7079
  0
LINE
  8
0
 10
-42.3734
 20
-12.7079
 11
-42.3745
 21
-12.6752
  0
LINE
  8
0
 10
-42.3745
 20
-12.6752
 11
-42.3671
 21
-12.6434
  0
LINE
  8
0
 10
-42.3671
 20
-12.6434
 11
-42.3517
 21
-12.6146
  0
LINE
  8
0
 10
-42.3517
 20
-12.6146
 11
-42.3293
 21
-12.5908
  0
LINE
  8
0
 10
-42.3293
 20
-12.5908
 11
-42.3016
 21
-12.5736
  0
LINE
  8
0
 10
-42.3016
 20
-12.5736
 11
-42.2704
 21
-12.5641
  0
LINE
  8
0
 10
-42.2704
 20
-12.5641
 11
-42.2377
 21
-12.563
  0
LINE
  8
0
 10
-42.2377
 20
-12.563
 11
-42.2059
 21
-12.5704
  0
LINE
  8
0
 10
-42.2059
 20
-12.5704
 11
-42.1771
 21
-12.5858
  0
LINE
  8
0
 10
-42.1771
 20
-12.5858
 11
-42.1533
 21
-12.6082
  0
LINE
  8
0
 10
-42.1533
 20
-12.6082
 11
-42.1361
 21
-12.6359
  0
LINE
  8
0
 10
-42.1361
 20
-12.6359
 11
-42.1266
 21
-12.6671
  0
LINE
  8
0
 10
-42.1266
 20
-12.6671
 11
-42.1255
 21
-12.6998
  0
LINE
  8
0
 10
-42.1255
 20
-12.6998
 11
-42.1329
 21
-12.7316
  0
LINE
  8
0
 10
-42.1329
 20
-12.7316
 11
-42.1483
 21
-12.7603
  0
LINE
  8
0
 10
-42.1483
 20
-12.7603
 11
-42.1707
 21
-12.7842
  0
LINE
  8
0
 10
-42.1707
 20
-12.7842
 11
-42.1984
 21
-12.8014
  0
LINE
  8
0
 10
-42.1984
 20
-12.8014
 11
-42.2296
 21
-12.8109
  0
LINE
  8
0
 10
-42.2296
 20
-12.8109
 11
-42.2623
 21
-12.812
  0
LINE
  8
0
 10
-42.2623
 20
-12.812
 11
-42.2941
 21
-12.8046
  0
LINE
  8
0
 10
27.7059
 20
-12.8046
 11
27.6771
 21
-12.7892
  0
LINE
  8
0
 10
27.6771
 20
-12.7892
 11
27.6533
 21
-12.7668
  0
LINE
  8
0
 10
27.6533
 20
-12.7668
 11
27.6361
 21
-12.7391
  0
LINE
  8
0
 10
27.6361
 20
-12.7391
 11
27.6266
 21
-12.7079
  0
LINE
  8
0
 10
27.6266
 20
-12.7079
 11
27.6255
 21
-12.6752
  0
LINE
  8
0
 10
27.6255
 20
-12.6752
 11
27.6329
 21
-12.6434
  0
LINE
  8
0
 10
27.6329
 20
-12.6434
 11
27.6483
 21
-12.6146
  0
LINE
  8
0
 10
27.6483
 20
-12.6146
 11
27.6707
 21
-12.5908
  0
LINE
  8
0
 10
27.6707
 20
-12.5908
 11
27.6984
 21
-12.5736
  0
LINE
  8
0
 10
27.6984
 20
-12.5736
 11
27.7296
 21
-12.5641
  0
LINE
  8
0
 10
27.7296
 20
-12.5641
 11
27.7623
 21
-12.563
  0
LINE
  8
0
 10
27.7623
 20
-12.563
 11
27.7941
 21
-12.5704
  0
LINE
  8
0
 10
27.7941
 20
-12.5704
 11
27.8228
 21
-12.5858
  0
LINE
  8
0
 10
27.8228
 20
-12.5858
 11
27.8467
 21
-12.6082
  0
LINE
  8
0
 10
27.8467
 20
-12.6082
 11
27.8639
 21
-12.6359
  0
LINE
  8
0
 10
27.8639
 20
-12.6359
 11
27.8734
 21
-12.6671
  0
LINE
  8
0
 10
27.8734
 20
-12.6671
 11
27.8745
 21
-12.6998
  0
LINE
  8
0
 10
27.8745
 20
-12.6998
 11
27.8671
 21
-12.7316
  0
LINE
  8
0
 10
27.8671
 20
-12.7316
 11
27.8517
 21
-12.7603
  0
LINE
  8
0
 10
27.8517
 20
-12.7603
 11
27.8293
 21
-12.7842
  0
LINE
  8
0
 10
27.8293
 20
-12.7842
 11
27.8016
 21
-12.8014
  0
LINE
  8
0
 10
27.8016
 20
-12.8014
 11
27.7704
 21
-12.8109
  0
LINE
  8
0
 10
27.7704
 20
-12.8109
 11
27.7377
 21
-12.812
  0
LINE
  8
0
 10
27.7377
 20
-12.812
 11
27.7059
 21
-12.8046
  0
LINE
  8
0
 10
-18.2449
 20
-14.4062
 11
-18.2755
 21
-14.4042
  0
LINE
  8
0
 10
-18.2755
 20
-14.4042
 11
-18.3145
 21
-14.3924
  0
LINE
  8
0
 10
-18.3145
 20
-14.3924
 11
-18.341
 21
-14.3771
  0
LINE
  8
0
 10
-18.341
 20
-14.3771
 11
-18.3641
 21
-14.3569
  0
LINE
  8
0
 10
-18.3641
 20
-14.3569
 11
-18.3828
 21
-14.3326
  0
LINE
  8
0
 10
-18.3828
 20
-14.3326
 11
-18.3996
 21
-14.2954
  0
LINE
  8
0
 10
-18.3996
 20
-14.2954
 11
-18.4062
 21
-14.2551
  0
LINE
  8
0
 10
-18.4062
 20
-14.2551
 11
-18.4062
 21
-13.7551
  0
LINE
  8
0
 10
-18.4062
 20
-13.7551
 11
-18.4042
 21
-13.7245
  0
LINE
  8
0
 10
-18.4042
 20
-13.7245
 11
-18.3924
 21
-13.6855
  0
LINE
  8
0
 10
-18.3924
 20
-13.6855
 11
-18.3771
 21
-13.659
  0
LINE
  8
0
 10
-18.3771
 20
-13.659
 11
-18.3569
 21
-13.6359
  0
LINE
  8
0
 10
-18.3569
 20
-13.6359
 11
-18.3326
 21
-13.6172
  0
LINE
  8
0
 10
-18.3326
 20
-13.6172
 11
-18.2954
 21
-13.6004
  0
LINE
  8
0
 10
-18.2954
 20
-13.6004
 11
-18.2653
 21
-13.5944
  0
LINE
  8
0
 10
-18.2653
 20
-13.5944
 11
-14.9847
 21
-13.5944
  0
LINE
  8
0
 10
-14.9847
 20
-13.5944
 11
-14.9546
 21
-13.6004
  0
LINE
  8
0
 10
-14.9546
 20
-13.6004
 11
-14.9174
 21
-13.6172
  0
LINE
  8
0
 10
-14.9174
 20
-13.6172
 11
-14.8931
 21
-13.6359
  0
LINE
  8
0
 10
-14.8931
 20
-13.6359
 11
-14.8729
 21
-13.659
  0
LINE
  8
0
 10
-14.8729
 20
-13.659
 11
-14.8576
 21
-13.6855
  0
LINE
  8
0
 10
-14.8576
 20
-13.6855
 11
-14.8458
 21
-13.7245
  0
LINE
  8
0
 10
-14.8458
 20
-13.7245
 11
-14.8438
 21
-13.7551
  0
LINE
  8
0
 10
-14.8438
 20
-13.7551
 11
-14.8438
 21
-14.2551
  0
LINE
  8
0
 10
-14.8438
 20
-14.2551
 11
-14.8458
 21
-14.2755
  0
LINE
  8
0
 10
-14.8458
 20
-14.2755
 11
-14.8576
 21
-14.3145
  0
LINE
  8
0
 10
-14.8576
 20
-14.3145
 11
-14.8729
 21
-14.341
  0
LINE
  8
0
 10
-14.8729
 20
-14.341
 11
-14.8931
 21
-14.3641
  0
LINE
  8
0
 10
-14.8931
 20
-14.3641
 11
-14.9174
 21
-14.3828
  0
LINE
  8
0
 10
-14.9174
 20
-14.3828
 11
-14.9546
 21
-14.3996
  0
LINE
  8
0
 10
-14.9546
 20
-14.3996
 11
-14.9949
 21
-14.4062
  0
LINE
  8
0
 10
-14.9949
 20
-14.4062
 11
-18.2449
 21
-14.4062
  0
LINE
  8
0
 10
-36.9949
 20
-14.4062
 11
-37.0255
 21
-14.4042
  0
LINE
  8
0
 10
-37.0255
 20
-14.4042
 11
-37.0645
 21
-14.3924
  0
LINE
  8
0
 10
-37.0645
 20
-14.3924
 11
-37.091
 21
-14.3771
  0
LINE
  8
0
 10
-37.091
 20
-14.3771
 11
-37.1141
 21
-14.3569
  0
LINE
  8
0
 10
-37.1141
 20
-14.3569
 11
-37.1328
 21
-14.3326
  0
LINE
  8
0
 10
-37.1328
 20
-14.3326
 11
-37.1496
 21
-14.2954
  0
LINE
  8
0
 10
-37.1496
 20
-14.2954
 11
-37.1562
 21
-14.2551
  0
LINE
  8
0
 10
-37.1562
 20
-14.2551
 11
-37.1562
 21
-13.7551
  0
LINE
  8
0
 10
-37.1562
 20
-13.7551
 11
-37.1542
 21
-13.7245
  0
LINE
  8
0
 10
-37.1542
 20
-13.7245
 11
-37.1424
 21
-13.6855
  0
LINE
  8
0
 10
-37.1424
 20
-13.6855
 11
-37.1271
 21
-13.659
  0
LINE
  8
0
 10
-37.1271
 20
-13.659
 11
-37.1069
 21
-13.6359
  0
LINE
  8
0
 10
-37.1069
 20
-13.6359
 11
-37.0826
 21
-13.6172
  0
LINE
  8
0
 10
-37.0826
 20
-13.6172
 11
-37.0454
 21
-13.6004
  0
LINE
  8
0
 10
-37.0454
 20
-13.6004
 11
-37.0153
 21
-13.5944
  0
LINE
  8
0
 10
-37.0153
 20
-13.5944
 11
-33.7347
 21
-13.5944
  0
LINE
  8
0
 10
-33.7347
 20
-13.5944
 11
-33.7046
 21
-13.6004
  0
LINE
  8
0
 10
-33.7046
 20
-13.6004
 11
-33.6674
 21
-13.6172
  0
LINE
  8
0
 10
-33.6674
 20
-13.6172
 11
-33.6431
 21
-13.6359
  0
LINE
  8
0
 10
-33.6431
 20
-13.6359
 11
-33.6229
 21
-13.659
  0
LINE
  8
0
 10
-33.6229
 20
-13.659
 11
-33.6076
 21
-13.6855
  0
LINE
  8
0
 10
-33.6076
 20
-13.6855
 11
-33.5958
 21
-13.7245
  0
LINE
  8
0
 10
-33.5958
 20
-13.7245
 11
-33.5938
 21
-13.7551
  0
LINE
  8
0
 10
-33.5938
 20
-13.7551
 11
-33.5938
 21
-14.2551
  0
LINE
  8
0
 10
-33.5938
 20
-14.2551
 11
-33.5958
 21
-14.2755
  0
LINE
  8
0
 10
-33.5958
 20
-14.2755
 11
-33.6076
 21
-14.3145
  0
LINE
  8
0
 10
-33.6076
 20
-14.3145
 11
-33.6229
 21
-14.341
  0
LINE
  8
0
 10
-33.6229
 20
-14.341
 11
-33.6431
 21
-14.3641
  0
LINE
  8
0
 10
-33.6431
 20
-14.3641
 11
-33.6674
 21
-14.3828
  0
LINE
  8
0
 10
-33.6674
 20
-14.3828
 11
-33.7046
 21
-14.3996
  0
LINE
  8
0
 10
-33.7046
 20
-14.3996
 11
-33.7449
 21
-14.4062
  0
LINE
  8
0
 10
-33.7449
 20
-14.4062
 11
-36.9949
 21
-14.4062
  0
LINE
  8
0
 10
19.2551
 20
-14.4062
 11
19.2245
 21
-14.4042
  0
LINE
  8
0
 10
19.2245
 20
-14.4042
 11
19.1855
 21
-14.3924
  0
LINE
  8
0
 10
19.1855
 20
-14.3924
 11
19.159
 21
-14.3771
  0
LINE
  8
0
 10
19.159
 20
-14.3771
 11
19.1359
 21
-14.3569
  0
LINE
  8
0
 10
19.1359
 20
-14.3569
 11
19.1172
 21
-14.3326
  0
LINE
  8
0
 10
19.1172
 20
-14.3326
 11
19.1004
 21
-14.2954
  0
LINE
  8
0
 10
19.1004
 20
-14.2954
 11
19.0938
 21
-14.2551
  0
LINE
  8
0
 10
19.0938
 20
-14.2551
 11
19.0938
 21
-13.7551
  0
LINE
  8
0
 10
19.0938
 20
-13.7551
 11
19.0958
 21
-13.7245
  0
LINE
  8
0
 10
19.0958
 20
-13.7245
 11
19.1076
 21
-13.6855
  0
LINE
  8
0
 10
19.1076
 20
-13.6855
 11
19.1229
 21
-13.659
  0
LINE
  8
0
 10
19.1229
 20
-13.659
 11
19.1431
 21
-13.6359
  0
LINE
  8
0
 10
19.1431
 20
-13.6359
 11
19.1674
 21
-13.6172
  0
LINE
  8
0
 10
19.1674
 20
-13.6172
 11
19.2046
 21
-13.6004
  0
LINE
  8
0
 10
19.2046
 20
-13.6004
 11
19.2347
 21
-13.5944
  0
LINE
  8
0
 10
19.2347
 20
-13.5944
 11
22.5153
 21
-13.5944
  0
LINE
  8
0
 10
22.5153
 20
-13.5944
 11
22.5454
 21
-13.6004
  0
LINE
  8
0
 10
22.5454
 20
-13.6004
 11
22.5826
 21
-13.6172
  0
LINE
  8
0
 10
22.5826
 20
-13.6172
 11
22.6069
 21
-13.6359
  0
LINE
  8
0
 10
22.6069
 20
-13.6359
 11
22.6271
 21
-13.659
  0
LINE
  8
0
 10
22.6271
 20
-13.659
 11
22.6424
 21
-13.6855
  0
LINE
  8
0
 10
22.6424
 20
-13.6855
 11
22.6542
 21
-13.7245
  0
LINE
  8
0
 10
22.6542
 20
-13.7245
 11
22.6562
 21
-13.7551
  0
LINE
  8
0
 10
22.6562
 20
-13.7551
 11
22.6562
 21
-14.2551
  0
LINE
  8
0
 10
22.6562
 20
-14.2551
 11
22.6542
 21
-14.2755
  0
LINE
  8
0
 10
22.6542
 20
-14.2755
 11
22.6424
 21
-14.3145
  0
LINE
  8
0
 10
22.6424
 20
-14.3145
 11
22.6271
 21
-14.341
  0
LINE
  8
0
 10
22.6271
 20
-14.341
 11
22.6069
 21
-14.3641
  0
LINE
  8
0
 10
22.6069
 20
-14.3641
 11
22.5826
 21
-14.3828
  0
LINE
  8
0
 10
22.5826
 20
-14.3828
 11
22.5454
 21
-14.3996
  0
LINE
  8
0
 10
22.5454
 20
-14.3996
 11
22.5051
 21
-14.4062
  0
LINE
  8
0
 10
22.5051
 20
-14.4062
 11
19.2551
 21
-14.4062
  0
LINE
  8
0
 10
0.505127
 20
-14.4062
 11
0.474548
 21
-14.4042
  0
LINE
  8
0
 10
0.474548
 20
-14.4042
 11
0.435486
 21
-14.3924
  0
LINE
  8
0
 10
0.435486
 20
-14.3924
 11
0.408951
 21
-14.3771
  0
LINE
  8
0
 10
0.408951
 20
-14.3771
 11
0.38591
 21
-14.3569
  0
LINE
  8
0
 10
0.38591
 20
-14.3569
 11
0.367249
 21
-14.3326
  0
LINE
  8
0
 10
0.367249
 20
-14.3326
 11
0.350403
 21
-14.2954
  0
LINE
  8
0
 10
0.350403
 20
-14.2954
 11
0.34375
 21
-14.2551
  0
LINE
  8
0
 10
0.34375
 20
-14.2551
 11
0.34375
 21
-13.7551
  0
LINE
  8
0
 10
0.34375
 20
-13.7551
 11
0.345764
 21
-13.7245
  0
LINE
  8
0
 10
0.345764
 20
-13.7245
 11
0.357605
 21
-13.6855
  0
LINE
  8
0
 10
0.357605
 20
-13.6855
 11
0.372925
 21
-13.659
  0
LINE
  8
0
 10
0.372925
 20
-13.659
 11
0.393143
 21
-13.6359
  0
LINE
  8
0
 10
0.393143
 20
-13.6359
 11
0.41745
 21
-13.6172
  0
LINE
  8
0
 10
0.41745
 20
-13.6172
 11
0.45462
 21
-13.6004
  0
LINE
  8
0
 10
0.45462
 20
-13.6004
 11
0.48468
 21
-13.5944
  0
LINE
  8
0
 10
0.48468
 20
-13.5944
 11
3.76532
 21
-13.5944
  0
LINE
  8
0
 10
3.76532
 20
-13.5944
 11
3.79538
 21
-13.6004
  0
LINE
  8
0
 10
3.79538
 20
-13.6004
 11
3.83255
 21
-13.6172
  0
LINE
  8
0
 10
3.83255
 20
-13.6172
 11
3.85686
 21
-13.6359
  0
LINE
  8
0
 10
3.85686
 20
-13.6359
 11
3.87708
 21
-13.659
  0
LINE
  8
0
 10
3.87708
 20
-13.659
 11
3.8924
 21
-13.6855
  0
LINE
  8
0
 10
3.8924
 20
-13.6855
 11
3.90424
 21
-13.7245
  0
LINE
  8
0
 10
3.90424
 20
-13.7245
 11
3.90625
 21
-13.7551
  0
LINE
  8
0
 10
3.90625
 20
-13.7551
 11
3.90625
 21
-14.2551
  0
LINE
  8
0
 10
3.90625
 20
-14.2551
 11
3.90424
 21
-14.2755
  0
LINE
  8
0
 10
3.90424
 20
-14.2755
 11
3.8924
 21
-14.3145
  0
LINE
  8
0
 10
3.8924
 20
-14.3145
 11
3.87708
 21
-14.341
  0
LINE
  8
0
 10
3.87708
 20
-14.341
 11
3.85686
 21
-14.3641
  0
LINE
  8
0
 10
3.85686
 20
-14.3641
 11
3.83255
 21
-14.3828
  0
LINE
  8
0
 10
3.83255
 20
-14.3828
 11
3.79538
 21
-14.3996
  0
LINE
  8
0
 10
3.79538
 20
-14.3996
 11
3.75511
 21
-14.4062
  0
LINE
  8
0
 10
3.75511
 20
-14.4062
 11
0.505127
 21
-14.4062
  0
LINE
  8
0
 10
30.25
 20
-16.125
 11
-44.75
 21
-16.125
  0
LINE
  8
0
 10
-44.75
 20
-16.125
 11
-44.75
 21
-17.625
  0
LINE
  8
0
 10
-44.75
 20
-17.625
 11
30.25
 21
-17.625
  0
LINE
  8
0
 10
30.25
 20
-17.625
 11
30.25
 21
-16.125
  0
LINE
  8
0
 10
30.25
 20
-17.875
 11
-44.75
 21
-17.875
  0
LINE
  8
0
 10
-44.75
 20
-17.875
 11
-44.75
 21
-19.375
  0
LINE
  8
0
 10
-44.75
 20
-19.375
 11
30.25
 21
-19.375
  0
LINE
  8
0
 10
30.25
 20
-19.375
 11
30.25
 21
-17.875
  0
ENDSEC
  0
SECTION
  2
OBJECTS
  0
DICTIONARY
  0
ENDSEC
  0
EOF
