  0
SECTION
  2
BLOCKS
  0
ENDSEC
  0
SECTION
  2
ENTITIES
  0
LINE
  8
0
 10
-45.8014
 20
8.17395
 11
-45.6733
 21
8.26704
  0
LINE
  8
0
 10
-45.6733
 20
8.26704
 11
-45.5802
 21
8.39519
  0
LINE
  8
0
 10
-45.5802
 20
8.39519
 11
-45.5312
 21
8.54582
  0
LINE
  8
0
 10
-45.5312
 20
8.54582
 11
-45.5312
 21
9.01979
  0
LINE
  8
0
 10
-45.5312
 20
9.01979
 11
-45.519
 21
9.05745
  0
LINE
  8
0
 10
-45.519
 20
9.05745
 11
-45.4957
 21
9.08948
  0
LINE
  8
0
 10
-45.4957
 20
9.08948
 11
-45.4637
 21
9.11276
  0
LINE
  8
0
 10
-45.4637
 20
9.11276
 11
-45.426
 21
9.125
  0
LINE
  8
0
 10
-45.426
 20
9.125
 11
-44.8552
 21
9.125
  0
LINE
  8
0
 10
-44.8552
 20
9.125
 11
-44.8176
 21
9.11276
  0
LINE
  8
0
 10
-44.8176
 20
9.11276
 11
-44.7855
 21
9.08948
  0
LINE
  8
0
 10
-44.7855
 20
9.08948
 11
-44.7622
 21
9.05745
  0
LINE
  8
0
 10
-44.7622
 20
9.05745
 11
-44.75
 21
9.01979
  0
LINE
  8
0
 10
-44.75
 20
9.01979
 11
-44.75
 21
8.125
  0
LINE
  8
0
 10
-44.75
 20
8.125
 11
32.25
 21
8.125
  0
LINE
  8
0
 10
32.25
 20
8.125
 11
32.25
 21
9.01979
  0
LINE
  8
0
 10
32.25
 20
9.01979
 11
32.2622
 21
9.05745
  0
LINE
  8
0
 10
32.2622
 20
9.05745
 11
32.2855
 21
9.08948
  0
LINE
  8
0
 10
32.2855
 20
9.08948
 11
32.3176
 21
9.11276
  0
LINE
  8
0
 10
32.3176
 20
9.11276
 11
32.3552
 21
9.125
  0
LINE
  8
0
 10
32.3552
 20
9.125
 11
32.926
 21
9.125
  0
LINE
  8
0
 10
32.926
 20
9.125
 11
32.9637
 21
9.11276
  0
LINE
  8
0
 10
32.9637
 20
9.11276
 11
32.9957
 21
9.08948
  0
LINE
  8
0
 10
32.9957
 20
9.08948
 11
33.019
 21
9.05745
  0
LINE
  8
0
 10
33.019
 20
9.05745
 11
33.0312
 21
9.01979
  0
LINE
  8
0
 10
33.0312
 20
9.01979
 11
33.0312
 21
8.54582
  0
LINE
  8
0
 10
33.0312
 20
8.54582
 11
33.0802
 21
8.39519
  0
LINE
  8
0
 10
33.0802
 20
8.39519
 11
33.1733
 21
8.26704
  0
LINE
  8
0
 10
33.1733
 20
8.26704
 11
33.3014
 21
8.17395
  0
LINE
  8
0
 10
33.3014
 20
8.17395
 11
33.4521
 21
8.125
  0
LINE
  8
0
 10
33.4521
 20
8.125
 11
33.6104
 21
8.125
  0
LINE
  8
0
 10
33.6104
 20
8.125
 11
33.7611
 21
8.17395
  0
LINE
  8
0
 10
33.7611
 20
8.17395
 11
33.8892
 21
8.26704
  0
LINE
  8
0
 10
33.8892
 20
8.26704
 11
33.9823
 21
8.39519
  0
LINE
  8
0
 10
33.9823
 20
8.39519
 11
34.0312
 21
8.54582
  0
LINE
  8
0
 10
34.0312
 20
8.54582
 11
34.0312
 21
11.2042
  0
LINE
  8
0
 10
34.0312
 20
11.2042
 11
33.9823
 21
11.3548
  0
LINE
  8
0
 10
33.9823
 20
11.3548
 11
33.8892
 21
11.483
  0
LINE
  8
0
 10
33.8892
 20
11.483
 11
33.7611
 21
11.576
  0
LINE
  8
0
 10
33.7611
 20
11.576
 11
33.6104
 21
11.625
  0
LINE
  8
0
 10
33.6104
 20
11.625
 11
32.3552
 21
11.625
  0
LINE
  8
0
 10
32.3552
 20
11.625
 11
32.3175
 21
11.6372
  0
LINE
  8
0
 10
32.3175
 20
11.6372
 11
32.2855
 21
11.6605
  0
LINE
  8
0
 10
32.2855
 20
11.6605
 11
32.2622
 21
11.6925
  0
LINE
  8
0
 10
32.2622
 20
11.6925
 11
32.25
 21
11.7302
  0
LINE
  8
0
 10
32.25
 20
11.7302
 11
32.25
 21
16.0198
  0
LINE
  8
0
 10
32.25
 20
16.0198
 11
32.2622
 21
16.0574
  0
LINE
  8
0
 10
32.2622
 20
16.0574
 11
32.2855
 21
16.0895
  0
LINE
  8
0
 10
32.2855
 20
16.0895
 11
32.3176
 21
16.1128
  0
LINE
  8
0
 10
32.3176
 20
16.1128
 11
32.3552
 21
16.125
  0
LINE
  8
0
 10
32.3552
 20
16.125
 11
32.926
 21
16.125
  0
LINE
  8
0
 10
32.926
 20
16.125
 11
32.9637
 21
16.1128
  0
LINE
  8
0
 10
32.9637
 20
16.1128
 11
32.9957
 21
16.0895
  0
LINE
  8
0
 10
32.9957
 20
16.0895
 11
33.019
 21
16.0574
  0
LINE
  8
0
 10
33.019
 20
16.0574
 11
33.0312
 21
16.0198
  0
LINE
  8
0
 10
33.0312
 20
16.0198
 11
33.0312
 21
15.5458
  0
LINE
  8
0
 10
33.0312
 20
15.5458
 11
33.0802
 21
15.3952
  0
LINE
  8
0
 10
33.0802
 20
15.3952
 11
33.1733
 21
15.267
  0
LINE
  8
0
 10
33.1733
 20
15.267
 11
33.3014
 21
15.174
  0
LINE
  8
0
 10
33.3014
 20
15.174
 11
33.4521
 21
15.125
  0
LINE
  8
0
 10
33.4521
 20
15.125
 11
33.6104
 21
15.125
  0
LINE
  8
0
 10
33.6104
 20
15.125
 11
33.7611
 21
15.174
  0
LINE
  8
0
 10
33.7611
 20
15.174
 11
33.8892
 21
15.267
  0
LINE
  8
0
 10
33.8892
 20
15.267
 11
33.9823
 21
15.3952
  0
LINE
  8
0
 10
33.9823
 20
15.3952
 11
34.0312
 21
15.5458
  0
LINE
  8
0
 10
34.0312
 20
15.5458
 11
34.0312
 21
18.2042
  0
LINE
  8
0
 10
34.0312
 20
18.2042
 11
33.9823
 21
18.3548
  0
LINE
  8
0
 10
33.9823
 20
18.3548
 11
33.8892
 21
18.483
  0
LINE
  8
0
 10
33.8892
 20
18.483
 11
33.7611
 21
18.576
  0
LINE
  8
0
 10
33.7611
 20
18.576
 11
33.6104
 21
18.625
  0
LINE
  8
0
 10
33.6104
 20
18.625
 11
32.3552
 21
18.625
  0
LINE
  8
0
 10
32.3552
 20
18.625
 11
32.3175
 21
18.6372
  0
LINE
  8
0
 10
32.3175
 20
18.6372
 11
32.2855
 21
18.6605
  0
LINE
  8
0
 10
32.2855
 20
18.6605
 11
32.2622
 21
18.6925
  0
LINE
  8
0
 10
32.2622
 20
18.6925
 11
32.25
 21
18.7302
  0
LINE
  8
0
 10
32.25
 20
18.7302
 11
32.25
 21
20.875
  0
LINE
  8
0
 10
32.25
 20
20.875
 11
-44.75
 21
20.875
  0
LINE
  8
0
 10
-44.75
 20
20.875
 11
-44.75
 21
18.7302
  0
LINE
  8
0
 10
-44.75
 20
18.7302
 11
-44.7622
 21
18.6925
  0
LINE
  8
0
 10
-44.7622
 20
18.6925
 11
-44.7855
 21
18.6605
  0
LINE
  8
0
 10
-44.7855
 20
18.6605
 11
-44.8175
 21
18.6372
  0
LINE
  8
0
 10
-44.8175
 20
18.6372
 11
-44.8552
 21
18.625
  0
LINE
  8
0
 10
-44.8552
 20
18.625
 11
-46.1104
 21
18.625
  0
LINE
  8
0
 10
-46.1104
 20
18.625
 11
-46.2611
 21
18.576
  0
LINE
  8
0
 10
-46.2611
 20
18.576
 11
-46.3892
 21
18.483
  0
LINE
  8
0
 10
-46.3892
 20
18.483
 11
-46.4823
 21
18.3548
  0
LINE
  8
0
 10
-46.4823
 20
18.3548
 11
-46.5312
 21
18.2042
  0
LINE
  8
0
 10
-46.5312
 20
18.2042
 11
-46.5312
 21
15.5458
  0
LINE
  8
0
 10
-46.5312
 20
15.5458
 11
-46.4823
 21
15.3952
  0
LINE
  8
0
 10
-46.4823
 20
15.3952
 11
-46.3892
 21
15.267
  0
LINE
  8
0
 10
-46.3892
 20
15.267
 11
-46.2611
 21
15.174
  0
LINE
  8
0
 10
-46.2611
 20
15.174
 11
-46.1104
 21
15.125
  0
LINE
  8
0
 10
-46.1104
 20
15.125
 11
-45.9521
 21
15.125
  0
LINE
  8
0
 10
-45.9521
 20
15.125
 11
-45.8014
 21
15.174
  0
LINE
  8
0
 10
-45.8014
 20
15.174
 11
-45.6733
 21
15.267
  0
LINE
  8
0
 10
-45.6733
 20
15.267
 11
-45.5802
 21
15.3952
  0
LINE
  8
0
 10
-45.5802
 20
15.3952
 11
-45.5312
 21
15.5458
  0
LINE
  8
0
 10
-45.5312
 20
15.5458
 11
-45.5312
 21
16.0198
  0
LINE
  8
0
 10
-45.5312
 20
16.0198
 11
-45.519
 21
16.0574
  0
LINE
  8
0
 10
-45.519
 20
16.0574
 11
-45.4957
 21
16.0895
  0
LINE
  8
0
 10
-45.4957
 20
16.0895
 11
-45.4637
 21
16.1128
  0
LINE
  8
0
 10
-45.4637
 20
16.1128
 11
-45.426
 21
16.125
  0
LINE
  8
0
 10
-45.426
 20
16.125
 11
-44.8552
 21
16.125
  0
LINE
  8
0
 10
-44.8552
 20
16.125
 11
-44.8176
 21
16.1128
  0
LINE
  8
0
 10
-44.8176
 20
16.1128
 11
-44.7855
 21
16.0895
  0
LINE
  8
0
 10
-44.7855
 20
16.0895
 11
-44.7622
 21
16.0574
  0
LINE
  8
0
 10
-44.7622
 20
16.0574
 11
-44.75
 21
16.0198
  0
LINE
  8
0
 10
-44.75
 20
16.0198
 11
-44.75
 21
11.7302
  0
LINE
  8
0
 10
-44.75
 20
11.7302
 11
-44.7622
 21
11.6925
  0
LINE
  8
0
 10
-44.7622
 20
11.6925
 11
-44.7855
 21
11.6605
  0
LINE
  8
0
 10
-44.7855
 20
11.6605
 11
-44.8175
 21
11.6372
  0
LINE
  8
0
 10
-44.8175
 20
11.6372
 11
-44.8552
 21
11.625
  0
LINE
  8
0
 10
-44.8552
 20
11.625
 11
-46.1104
 21
11.625
  0
LINE
  8
0
 10
-46.1104
 20
11.625
 11
-46.2611
 21
11.576
  0
LINE
  8
0
 10
-46.2611
 20
11.576
 11
-46.3892
 21
11.483
  0
LINE
  8
0
 10
-46.3892
 20
11.483
 11
-46.4823
 21
11.3548
  0
LINE
  8
0
 10
-46.4823
 20
11.3548
 11
-46.5312
 21
11.2042
  0
LINE
  8
0
 10
-46.5312
 20
11.2042
 11
-46.5312
 21
8.54582
  0
LINE
  8
0
 10
-46.5312
 20
8.54582
 11
-46.4823
 21
8.39519
  0
LINE
  8
0
 10
-46.4823
 20
8.39519
 11
-46.3892
 21
8.26704
  0
LINE
  8
0
 10
-46.3892
 20
8.26704
 11
-46.2611
 21
8.17395
  0
LINE
  8
0
 10
-46.2611
 20
8.17395
 11
-46.1104
 21
8.125
  0
LINE
  8
0
 10
-46.1104
 20
8.125
 11
-45.9521
 21
8.125
  0
LINE
  8
0
 10
-45.9521
 20
8.125
 11
-45.8014
 21
8.17395
  0
LINE
  8
0
 10
20.8438
 20
9.59375
 11
20.8438
 21
10.4062
  0
LINE
  8
0
 10
20.8438
 20
10.4062
 11
24.4062
 21
10.4062
  0
LINE
  8
0
 10
24.4062
 20
10.4062
 11
24.4062
 21
9.59375
  0
LINE
  8
0
 10
24.4062
 20
9.59375
 11
20.8438
 21
9.59375
  0
LINE
  8
0
 10
-36.9062
 20
9.59375
 11
-36.9062
 21
10.4062
  0
LINE
  8
0
 10
-36.9062
 20
10.4062
 11
-33.3438
 21
10.4062
  0
LINE
  8
0
 10
-33.3438
 20
10.4062
 11
-33.3438
 21
9.59375
  0
LINE
  8
0
 10
-33.3438
 20
9.59375
 11
-36.9062
 21
9.59375
  0
LINE
  8
0
 10
-17.6562
 20
9.59375
 11
-17.6562
 21
10.4062
  0
LINE
  8
0
 10
-17.6562
 20
10.4062
 11
-14.0938
 21
10.4062
  0
LINE
  8
0
 10
-14.0938
 20
10.4062
 11
-14.0938
 21
9.59375
  0
LINE
  8
0
 10
-14.0938
 20
9.59375
 11
-17.6562
 21
9.59375
  0
LINE
  8
0
 10
1.59375
 20
9.59375
 11
1.59375
 21
10.4062
  0
LINE
  8
0
 10
1.59375
 20
10.4062
 11
5.15625
 21
10.4062
  0
LINE
  8
0
 10
5.15625
 20
10.4062
 11
5.15625
 21
9.59375
  0
LINE
  8
0
 10
5.15625
 20
9.59375
 11
1.59375
 21
9.59375
  0
LINE
  8
0
 10
-45.8014
 20
-4.82605
 11
-45.6733
 21
-4.73296
  0
LINE
  8
0
 10
-45.6733
 20
-4.73296
 11
-45.5802
 21
-4.60481
  0
LINE
  8
0
 10
-45.5802
 20
-4.60481
 11
-45.5312
 21
-4.45418
  0
LINE
  8
0
 10
-45.5312
 20
-4.45418
 11
-45.5312
 21
-3.98021
  0
LINE
  8
0
 10
-45.5312
 20
-3.98021
 11
-45.519
 21
-3.94255
  0
LINE
  8
0
 10
-45.519
 20
-3.94255
 11
-45.4957
 21
-3.91052
  0
LINE
  8
0
 10
-45.4957
 20
-3.91052
 11
-45.4637
 21
-3.88724
  0
LINE
  8
0
 10
-45.4637
 20
-3.88724
 11
-45.426
 21
-3.875
  0
LINE
  8
0
 10
-45.426
 20
-3.875
 11
-44.8552
 21
-3.875
  0
LINE
  8
0
 10
-44.8552
 20
-3.875
 11
-44.8176
 21
-3.88724
  0
LINE
  8
0
 10
-44.8176
 20
-3.88724
 11
-44.7855
 21
-3.91052
  0
LINE
  8
0
 10
-44.7855
 20
-3.91052
 11
-44.7622
 21
-3.94255
  0
LINE
  8
0
 10
-44.7622
 20
-3.94255
 11
-44.75
 21
-3.98021
  0
LINE
  8
0
 10
-44.75
 20
-3.98021
 11
-44.75
 21
-4.875
  0
LINE
  8
0
 10
-44.75
 20
-4.875
 11
32.25
 21
-4.875
  0
LINE
  8
0
 10
32.25
 20
-4.875
 11
32.25
 21
-3.98021
  0
LINE
  8
0
 10
32.25
 20
-3.98021
 11
32.2622
 21
-3.94255
  0
LINE
  8
0
 10
32.2622
 20
-3.94255
 11
32.2855
 21
-3.91052
  0
LINE
  8
0
 10
32.2855
 20
-3.91052
 11
32.3176
 21
-3.88724
  0
LINE
  8
0
 10
32.3176
 20
-3.88724
 11
32.3552
 21
-3.875
  0
LINE
  8
0
 10
32.3552
 20
-3.875
 11
32.926
 21
-3.875
  0
LINE
  8
0
 10
32.926
 20
-3.875
 11
32.9637
 21
-3.88724
  0
LINE
  8
0
 10
32.9637
 20
-3.88724
 11
32.9957
 21
-3.91052
  0
LINE
  8
0
 10
32.9957
 20
-3.91052
 11
33.019
 21
-3.94255
  0
LINE
  8
0
 10
33.019
 20
-3.94255
 11
33.0312
 21
-3.98021
  0
LINE
  8
0
 10
33.0312
 20
-3.98021
 11
33.0312
 21
-4.45418
  0
LINE
  8
0
 10
33.0312
 20
-4.45418
 11
33.0802
 21
-4.60481
  0
LINE
  8
0
 10
33.0802
 20
-4.60481
 11
33.1733
 21
-4.73296
  0
LINE
  8
0
 10
33.1733
 20
-4.73296
 11
33.3014
 21
-4.82605
  0
LINE
  8
0
 10
33.3014
 20
-4.82605
 11
33.4521
 21
-4.875
  0
LINE
  8
0
 10
33.4521
 20
-4.875
 11
33.6104
 21
-4.875
  0
LINE
  8
0
 10
33.6104
 20
-4.875
 11
33.7611
 21
-4.82605
  0
LINE
  8
0
 10
33.7611
 20
-4.82605
 11
33.8892
 21
-4.73296
  0
LINE
  8
0
 10
33.8892
 20
-4.73296
 11
33.9823
 21
-4.60481
  0
LINE
  8
0
 10
33.9823
 20
-4.60481
 11
34.0312
 21
-4.45418
  0
LINE
  8
0
 10
34.0312
 20
-4.45418
 11
34.0312
 21
-1.79582
  0
LINE
  8
0
 10
34.0312
 20
-1.79582
 11
33.9823
 21
-1.64519
  0
LINE
  8
0
 10
33.9823
 20
-1.64519
 11
33.8892
 21
-1.51704
  0
LINE
  8
0
 10
33.8892
 20
-1.51704
 11
33.7611
 21
-1.42395
  0
LINE
  8
0
 10
33.7611
 20
-1.42395
 11
33.6104
 21
-1.375
  0
LINE
  8
0
 10
33.6104
 20
-1.375
 11
32.3552
 21
-1.375
  0
LINE
  8
0
 10
32.3552
 20
-1.375
 11
32.3175
 21
-1.36278
  0
LINE
  8
0
 10
32.3175
 20
-1.36278
 11
32.2855
 21
-1.33949
  0
LINE
  8
0
 10
32.2855
 20
-1.33949
 11
32.2622
 21
-1.30746
  0
LINE
  8
0
 10
32.2622
 20
-1.30746
 11
32.25
 21
-1.26981
  0
LINE
  8
0
 10
32.25
 20
-1.26981
 11
32.25
 21
3.01979
  0
LINE
  8
0
 10
32.25
 20
3.01979
 11
32.2622
 21
3.05745
  0
LINE
  8
0
 10
32.2622
 20
3.05745
 11
32.2855
 21
3.08948
  0
LINE
  8
0
 10
32.2855
 20
3.08948
 11
32.3176
 21
3.11276
  0
LINE
  8
0
 10
32.3176
 20
3.11276
 11
32.3552
 21
3.125
  0
LINE
  8
0
 10
32.3552
 20
3.125
 11
32.926
 21
3.125
  0
LINE
  8
0
 10
32.926
 20
3.125
 11
32.9637
 21
3.11276
  0
LINE
  8
0
 10
32.9637
 20
3.11276
 11
32.9957
 21
3.08948
  0
LINE
  8
0
 10
32.9957
 20
3.08948
 11
33.019
 21
3.05745
  0
LINE
  8
0
 10
33.019
 20
3.05745
 11
33.0312
 21
3.01979
  0
LINE
  8
0
 10
33.0312
 20
3.01979
 11
33.0312
 21
2.54582
  0
LINE
  8
0
 10
33.0312
 20
2.54582
 11
33.0802
 21
2.39519
  0
LINE
  8
0
 10
33.0802
 20
2.39519
 11
33.1733
 21
2.26704
  0
LINE
  8
0
 10
33.1733
 20
2.26704
 11
33.3014
 21
2.17395
  0
LINE
  8
0
 10
33.3014
 20
2.17395
 11
33.4521
 21
2.125
  0
LINE
  8
0
 10
33.4521
 20
2.125
 11
33.6104
 21
2.125
  0
LINE
  8
0
 10
33.6104
 20
2.125
 11
33.7611
 21
2.17395
  0
LINE
  8
0
 10
33.7611
 20
2.17395
 11
33.8892
 21
2.26704
  0
LINE
  8
0
 10
33.8892
 20
2.26704
 11
33.9823
 21
2.39519
  0
LINE
  8
0
 10
33.9823
 20
2.39519
 11
34.0312
 21
2.54582
  0
LINE
  8
0
 10
34.0312
 20
2.54582
 11
34.0312
 21
5.20418
  0
LINE
  8
0
 10
34.0312
 20
5.20418
 11
33.9823
 21
5.35481
  0
LINE
  8
0
 10
33.9823
 20
5.35481
 11
33.8892
 21
5.48296
  0
LINE
  8
0
 10
33.8892
 20
5.48296
 11
33.7611
 21
5.57605
  0
LINE
  8
0
 10
33.7611
 20
5.57605
 11
33.6104
 21
5.625
  0
LINE
  8
0
 10
33.6104
 20
5.625
 11
32.3552
 21
5.625
  0
LINE
  8
0
 10
32.3552
 20
5.625
 11
32.3175
 21
5.63722
  0
LINE
  8
0
 10
32.3175
 20
5.63722
 11
32.2855
 21
5.66051
  0
LINE
  8
0
 10
32.2855
 20
5.66051
 11
32.2622
 21
5.69254
  0
LINE
  8
0
 10
32.2622
 20
5.69254
 11
32.25
 21
5.73019
  0
LINE
  8
0
 10
32.25
 20
5.73019
 11
32.25
 21
7.875
  0
LINE
  8
0
 10
32.25
 20
7.875
 11
-44.75
 21
7.875
  0
LINE
  8
0
 10
-44.75
 20
7.875
 11
-44.75
 21
5.73019
  0
LINE
  8
0
 10
-44.75
 20
5.73019
 11
-44.7622
 21
5.69254
  0
LINE
  8
0
 10
-44.7622
 20
5.69254
 11
-44.7855
 21
5.66051
  0
LINE
  8
0
 10
-44.7855
 20
5.66051
 11
-44.8175
 21
5.63722
  0
LINE
  8
0
 10
-44.8175
 20
5.63722
 11
-44.8552
 21
5.625
  0
LINE
  8
0
 10
-44.8552
 20
5.625
 11
-46.1104
 21
5.625
  0
LINE
  8
0
 10
-46.1104
 20
5.625
 11
-46.2611
 21
5.57605
  0
LINE
  8
0
 10
-46.2611
 20
5.57605
 11
-46.3892
 21
5.48296
  0
LINE
  8
0
 10
-46.3892
 20
5.48296
 11
-46.4823
 21
5.35481
  0
LINE
  8
0
 10
-46.4823
 20
5.35481
 11
-46.5312
 21
5.20418
  0
LINE
  8
0
 10
-46.5312
 20
5.20418
 11
-46.5312
 21
2.54582
  0
LINE
  8
0
 10
-46.5312
 20
2.54582
 11
-46.4823
 21
2.39519
  0
LINE
  8
0
 10
-46.4823
 20
2.39519
 11
-46.3892
 21
2.26704
  0
LINE
  8
0
 10
-46.3892
 20
2.26704
 11
-46.2611
 21
2.17395
  0
LINE
  8
0
 10
-46.2611
 20
2.17395
 11
-46.1104
 21
2.125
  0
LINE
  8
0
 10
-46.1104
 20
2.125
 11
-45.9521
 21
2.125
  0
LINE
  8
0
 10
-45.9521
 20
2.125
 11
-45.8014
 21
2.17395
  0
LINE
  8
0
 10
-45.8014
 20
2.17395
 11
-45.6733
 21
2.26704
  0
LINE
  8
0
 10
-45.6733
 20
2.26704
 11
-45.5802
 21
2.39519
  0
LINE
  8
0
 10
-45.5802
 20
2.39519
 11
-45.5312
 21
2.54582
  0
LINE
  8
0
 10
-45.5312
 20
2.54582
 11
-45.5312
 21
3.01979
  0
LINE
  8
0
 10
-45.5312
 20
3.01979
 11
-45.519
 21
3.05745
  0
LINE
  8
0
 10
-45.519
 20
3.05745
 11
-45.4957
 21
3.08948
  0
LINE
  8
0
 10
-45.4957
 20
3.08948
 11
-45.4637
 21
3.11276
  0
LINE
  8
0
 10
-45.4637
 20
3.11276
 11
-45.426
 21
3.125
  0
LINE
  8
0
 10
-45.426
 20
3.125
 11
-44.8552
 21
3.125
  0
LINE
  8
0
 10
-44.8552
 20
3.125
 11
-44.8176
 21
3.11276
  0
LINE
  8
0
 10
-44.8176
 20
3.11276
 11
-44.7855
 21
3.08948
  0
LINE
  8
0
 10
-44.7855
 20
3.08948
 11
-44.7622
 21
3.05745
  0
LINE
  8
0
 10
-44.7622
 20
3.05745
 11
-44.75
 21
3.01979
  0
LINE
  8
0
 10
-44.75
 20
3.01979
 11
-44.75
 21
-1.26981
  0
LINE
  8
0
 10
-44.75
 20
-1.26981
 11
-44.7622
 21
-1.30746
  0
LINE
  8
0
 10
-44.7622
 20
-1.30746
 11
-44.7855
 21
-1.33949
  0
LINE
  8
0
 10
-44.7855
 20
-1.33949
 11
-44.8175
 21
-1.36278
  0
LINE
  8
0
 10
-44.8175
 20
-1.36278
 11
-44.8552
 21
-1.375
  0
LINE
  8
0
 10
-44.8552
 20
-1.375
 11
-46.1104
 21
-1.375
  0
LINE
  8
0
 10
-46.1104
 20
-1.375
 11
-46.2611
 21
-1.42395
  0
LINE
  8
0
 10
-46.2611
 20
-1.42395
 11
-46.3892
 21
-1.51704
  0
LINE
  8
0
 10
-46.3892
 20
-1.51704
 11
-46.4823
 21
-1.64519
  0
LINE
  8
0
 10
-46.4823
 20
-1.64519
 11
-46.5312
 21
-1.79582
  0
LINE
  8
0
 10
-46.5312
 20
-1.79582
 11
-46.5312
 21
-4.45418
  0
LINE
  8
0
 10
-46.5312
 20
-4.45418
 11
-46.4823
 21
-4.60481
  0
LINE
  8
0
 10
-46.4823
 20
-4.60481
 11
-46.3892
 21
-4.73296
  0
LINE
  8
0
 10
-46.3892
 20
-4.73296
 11
-46.2611
 21
-4.82605
  0
LINE
  8
0
 10
-46.2611
 20
-4.82605
 11
-46.1104
 21
-4.875
  0
LINE
  8
0
 10
-46.1104
 20
-4.875
 11
-45.9521
 21
-4.875
  0
LINE
  8
0
 10
-45.9521
 20
-4.875
 11
-45.8014
 21
-4.82605
  0
LINE
  8
0
 10
-36.9062
 20
-3.40625
 11
-36.9062
 21
-2.59375
  0
LINE
  8
0
 10
-36.9062
 20
-2.59375
 11
-33.3438
 21
-2.59375
  0
LINE
  8
0
 10
-33.3438
 20
-2.59375
 11
-33.3438
 21
-3.40625
  0
LINE
  8
0
 10
-33.3438
 20
-3.40625
 11
-36.9062
 21
-3.40625
  0
LINE
  8
0
 10
-17.6562
 20
-3.40625
 11
-17.6562
 21
-2.59375
  0
LINE
  8
0
 10
-17.6562
 20
-2.59375
 11
-14.0938
 21
-2.59375
  0
LINE
  8
0
 10
-14.0938
 20
-2.59375
 11
-14.0938
 21
-3.40625
  0
LINE
  8
0
 10
-14.0938
 20
-3.40625
 11
-17.6562
 21
-3.40625
  0
LINE
  8
0
 10
1.59375
 20
-3.40625
 11
1.59375
 21
-2.59375
  0
LINE
  8
0
 10
1.59375
 20
-2.59375
 11
5.15625
 21
-2.59375
  0
LINE
  8
0
 10
5.15625
 20
-2.59375
 11
5.15625
 21
-3.40625
  0
LINE
  8
0
 10
5.15625
 20
-3.40625
 11
1.59375
 21
-3.40625
  0
LINE
  8
0
 10
20.8438
 20
-3.40625
 11
20.8438
 21
-2.59375
  0
LINE
  8
0
 10
20.8438
 20
-2.59375
 11
24.4062
 21
-2.59375
  0
LINE
  8
0
 10
24.4062
 20
-2.59375
 11
24.4062
 21
-3.40625
  0
LINE
  8
0
 10
24.4062
 20
-3.40625
 11
20.8438
 21
-3.40625
  0
LINE
  8
0
 10
-45.8014
 20
-17.826
 11
-45.6733
 21
-17.733
  0
LINE
  8
0
 10
-45.6733
 20
-17.733
 11
-45.5802
 21
-17.6048
  0
LINE
  8
0
 10
-45.5802
 20
-17.6048
 11
-45.5312
 21
-17.4542
  0
LINE
  8
0
 10
-45.5312
 20
-17.4542
 11
-45.5312
 21
-16.9802
  0
LINE
  8
0
 10
-45.5312
 20
-16.9802
 11
-45.519
 21
-16.9426
  0
LINE
  8
0
 10
-45.519
 20
-16.9426
 11
-45.4957
 21
-16.9105
  0
LINE
  8
0
 10
-45.4957
 20
-16.9105
 11
-45.4637
 21
-16.8872
  0
LINE
  8
0
 10
-45.4637
 20
-16.8872
 11
-45.426
 21
-16.875
  0
LINE
  8
0
 10
-45.426
 20
-16.875
 11
-44.8552
 21
-16.875
  0
LINE
  8
0
 10
-44.8552
 20
-16.875
 11
-44.8176
 21
-16.8872
  0
LINE
  8
0
 10
-44.8176
 20
-16.8872
 11
-44.7855
 21
-16.9105
  0
LINE
  8
0
 10
-44.7855
 20
-16.9105
 11
-44.7622
 21
-16.9426
  0
LINE
  8
0
 10
-44.7622
 20
-16.9426
 11
-44.75
 21
-16.9802
  0
LINE
  8
0
 10
-44.75
 20
-16.9802
 11
-44.75
 21
-17.875
  0
LINE
  8
0
 10
-44.75
 20
-17.875
 11
32.25
 21
-17.875
  0
LINE
  8
0
 10
32.25
 20
-17.875
 11
32.25
 21
-16.9802
  0
LINE
  8
0
 10
32.25
 20
-16.9802
 11
32.2622
 21
-16.9426
  0
LINE
  8
0
 10
32.2622
 20
-16.9426
 11
32.2855
 21
-16.9105
  0
LINE
  8
0
 10
32.2855
 20
-16.9105
 11
32.3176
 21
-16.8872
  0
LINE
  8
0
 10
32.3176
 20
-16.8872
 11
32.3552
 21
-16.875
  0
LINE
  8
0
 10
32.3552
 20
-16.875
 11
32.926
 21
-16.875
  0
LINE
  8
0
 10
32.926
 20
-16.875
 11
32.9637
 21
-16.8872
  0
LINE
  8
0
 10
32.9637
 20
-16.8872
 11
32.9957
 21
-16.9105
  0
LINE
  8
0
 10
32.9957
 20
-16.9105
 11
33.019
 21
-16.9426
  0
LINE
  8
0
 10
33.019
 20
-16.9426
 11
33.0312
 21
-16.9802
  0
LINE
  8
0
 10
33.0312
 20
-16.9802
 11
33.0312
 21
-17.4542
  0
LINE
  8
0
 10
33.0312
 20
-17.4542
 11
33.0802
 21
-17.6048
  0
LINE
  8
0
 10
33.0802
 20
-17.6048
 11
33.1733
 21
-17.733
  0
LINE
  8
0
 10
33.1733
 20
-17.733
 11
33.3014
 21
-17.826
  0
LINE
  8
0
 10
33.3014
 20
-17.826
 11
33.4521
 21
-17.875
  0
LINE
  8
0
 10
33.4521
 20
-17.875
 11
33.6104
 21
-17.875
  0
LINE
  8
0
 10
33.6104
 20
-17.875
 11
33.7611
 21
-17.826
  0
LINE
  8
0
 10
33.7611
 20
-17.826
 11
33.8892
 21
-17.733
  0
LINE
  8
0
 10
33.8892
 20
-17.733
 11
33.9823
 21
-17.6048
  0
LINE
  8
0
 10
33.9823
 20
-17.6048
 11
34.0312
 21
-17.4542
  0
LINE
  8
0
 10
34.0312
 20
-17.4542
 11
34.0312
 21
-14.7958
  0
LINE
  8
0
 10
34.0312
 20
-14.7958
 11
33.9823
 21
-14.6452
  0
LINE
  8
0
 10
33.9823
 20
-14.6452
 11
33.8892
 21
-14.517
  0
LINE
  8
0
 10
33.8892
 20
-14.517
 11
33.7611
 21
-14.424
  0
LINE
  8
0
 10
33.7611
 20
-14.424
 11
33.6104
 21
-14.375
  0
LINE
  8
0
 10
33.6104
 20
-14.375
 11
32.3552
 21
-14.375
  0
LINE
  8
0
 10
32.3552
 20
-14.375
 11
32.3175
 21
-14.3628
  0
LINE
  8
0
 10
32.3175
 20
-14.3628
 11
32.2855
 21
-14.3395
  0
LINE
  8
0
 10
32.2855
 20
-14.3395
 11
32.2622
 21
-14.3075
  0
LINE
  8
0
 10
32.2622
 20
-14.3075
 11
32.25
 21
-14.2698
  0
LINE
  8
0
 10
32.25
 20
-14.2698
 11
32.25
 21
-9.98021
  0
LINE
  8
0
 10
32.25
 20
-9.98021
 11
32.2622
 21
-9.94255
  0
LINE
  8
0
 10
32.2622
 20
-9.94255
 11
32.2855
 21
-9.91052
  0
LINE
  8
0
 10
32.2855
 20
-9.91052
 11
32.3176
 21
-9.88724
  0
LINE
  8
0
 10
32.3176
 20
-9.88724
 11
32.3552
 21
-9.875
  0
LINE
  8
0
 10
32.3552
 20
-9.875
 11
32.926
 21
-9.875
  0
LINE
  8
0
 10
32.926
 20
-9.875
 11
32.9637
 21
-9.88724
  0
LINE
  8
0
 10
32.9637
 20
-9.88724
 11
32.9957
 21
-9.91052
  0
LINE
  8
0
 10
32.9957
 20
-9.91052
 11
33.019
 21
-9.94255
  0
LINE
  8
0
 10
33.019
 20
-9.94255
 11
33.0312
 21
-9.98021
  0
LINE
  8
0
 10
33.0312
 20
-9.98021
 11
33.0312
 21
-10.4542
  0
LINE
  8
0
 10
33.0312
 20
-10.4542
 11
33.0802
 21
-10.6048
  0
LINE
  8
0
 10
33.0802
 20
-10.6048
 11
33.1733
 21
-10.733
  0
LINE
  8
0
 10
33.1733
 20
-10.733
 11
33.3014
 21
-10.826
  0
LINE
  8
0
 10
33.3014
 20
-10.826
 11
33.4521
 21
-10.875
  0
LINE
  8
0
 10
33.4521
 20
-10.875
 11
33.6104
 21
-10.875
  0
LINE
  8
0
 10
33.6104
 20
-10.875
 11
33.7611
 21
-10.826
  0
LINE
  8
0
 10
33.7611
 20
-10.826
 11
33.8892
 21
-10.733
  0
LINE
  8
0
 10
33.8892
 20
-10.733
 11
33.9823
 21
-10.6048
  0
LINE
  8
0
 10
33.9823
 20
-10.6048
 11
34.0312
 21
-10.4542
  0
LINE
  8
0
 10
34.0312
 20
-10.4542
 11
34.0312
 21
-7.79582
  0
LINE
  8
0
 10
34.0312
 20
-7.79582
 11
33.9823
 21
-7.64519
  0
LINE
  8
0
 10
33.9823
 20
-7.64519
 11
33.8892
 21
-7.51704
  0
LINE
  8
0
 10
33.8892
 20
-7.51704
 11
33.7611
 21
-7.42395
  0
LINE
  8
0
 10
33.7611
 20
-7.42395
 11
33.6104
 21
-7.375
  0
LINE
  8
0
 10
33.6104
 20
-7.375
 11
32.3552
 21
-7.375
  0
LINE
  8
0
 10
32.3552
 20
-7.375
 11
32.3175
 21
-7.36278
  0
LINE
  8
0
 10
32.3175
 20
-7.36278
 11
32.2855
 21
-7.33949
  0
LINE
  8
0
 10
32.2855
 20
-7.33949
 11
32.2622
 21
-7.30746
  0
LINE
  8
0
 10
32.2622
 20
-7.30746
 11
32.25
 21
-7.26981
  0
LINE
  8
0
 10
32.25
 20
-7.26981
 11
32.25
 21
-5.125
  0
LINE
  8
0
 10
32.25
 20
-5.125
 11
-44.75
 21
-5.125
  0
LINE
  8
0
 10
-44.75
 20
-5.125
 11
-44.75
 21
-7.26981
  0
LINE
  8
0
 10
-44.75
 20
-7.26981
 11
-44.7622
 21
-7.30746
  0
LINE
  8
0
 10
-44.7622
 20
-7.30746
 11
-44.7855
 21
-7.33949
  0
LINE
  8
0
 10
-44.7855
 20
-7.33949
 11
-44.8175
 21
-7.36278
  0
LINE
  8
0
 10
-44.8175
 20
-7.36278
 11
-44.8552
 21
-7.375
  0
LINE
  8
0
 10
-44.8552
 20
-7.375
 11
-46.1104
 21
-7.375
  0
LINE
  8
0
 10
-46.1104
 20
-7.375
 11
-46.2611
 21
-7.42395
  0
LINE
  8
0
 10
-46.2611
 20
-7.42395
 11
-46.3892
 21
-7.51704
  0
LINE
  8
0
 10
-46.3892
 20
-7.51704
 11
-46.4823
 21
-7.64519
  0
LINE
  8
0
 10
-46.4823
 20
-7.64519
 11
-46.5312
 21
-7.79582
  0
LINE
  8
0
 10
-46.5312
 20
-7.79582
 11
-46.5312
 21
-10.4542
  0
LINE
  8
0
 10
-46.5312
 20
-10.4542
 11
-46.4823
 21
-10.6048
  0
LINE
  8
0
 10
-46.4823
 20
-10.6048
 11
-46.3892
 21
-10.733
  0
LINE
  8
0
 10
-46.3892
 20
-10.733
 11
-46.2611
 21
-10.826
  0
LINE
  8
0
 10
-46.2611
 20
-10.826
 11
-46.1104
 21
-10.875
  0
LINE
  8
0
 10
-46.1104
 20
-10.875
 11
-45.9521
 21
-10.875
  0
LINE
  8
0
 10
-45.9521
 20
-10.875
 11
-45.8014
 21
-10.826
  0
LINE
  8
0
 10
-45.8014
 20
-10.826
 11
-45.6733
 21
-10.733
  0
LINE
  8
0
 10
-45.6733
 20
-10.733
 11
-45.5802
 21
-10.6048
  0
LINE
  8
0
 10
-45.5802
 20
-10.6048
 11
-45.5312
 21
-10.4542
  0
LINE
  8
0
 10
-45.5312
 20
-10.4542
 11
-45.5312
 21
-9.98021
  0
LINE
  8
0
 10
-45.5312
 20
-9.98021
 11
-45.519
 21
-9.94255
  0
LINE
  8
0
 10
-45.519
 20
-9.94255
 11
-45.4957
 21
-9.91052
  0
LINE
  8
0
 10
-45.4957
 20
-9.91052
 11
-45.4637
 21
-9.88724
  0
LINE
  8
0
 10
-45.4637
 20
-9.88724
 11
-45.426
 21
-9.875
  0
LINE
  8
0
 10
-45.426
 20
-9.875
 11
-44.8552
 21
-9.875
  0
LINE
  8
0
 10
-44.8552
 20
-9.875
 11
-44.8176
 21
-9.88724
  0
LINE
  8
0
 10
-44.8176
 20
-9.88724
 11
-44.7855
 21
-9.91052
  0
LINE
  8
0
 10
-44.7855
 20
-9.91052
 11
-44.7622
 21
-9.94255
  0
LINE
  8
0
 10
-44.7622
 20
-9.94255
 11
-44.75
 21
-9.98021
  0
LINE
  8
0
 10
-44.75
 20
-9.98021
 11
-44.75
 21
-14.2698
  0
LINE
  8
0
 10
-44.75
 20
-14.2698
 11
-44.7622
 21
-14.3075
  0
LINE
  8
0
 10
-44.7622
 20
-14.3075
 11
-44.7855
 21
-14.3395
  0
LINE
  8
0
 10
-44.7855
 20
-14.3395
 11
-44.8175
 21
-14.3628
  0
LINE
  8
0
 10
-44.8175
 20
-14.3628
 11
-44.8552
 21
-14.375
  0
LINE
  8
0
 10
-44.8552
 20
-14.375
 11
-46.1104
 21
-14.375
  0
LINE
  8
0
 10
-46.1104
 20
-14.375
 11
-46.2611
 21
-14.424
  0
LINE
  8
0
 10
-46.2611
 20
-14.424
 11
-46.3892
 21
-14.517
  0
LINE
  8
0
 10
-46.3892
 20
-14.517
 11
-46.4823
 21
-14.6452
  0
LINE
  8
0
 10
-46.4823
 20
-14.6452
 11
-46.5312
 21
-14.7958
  0
LINE
  8
0
 10
-46.5312
 20
-14.7958
 11
-46.5312
 21
-17.4542
  0
LINE
  8
0
 10
-46.5312
 20
-17.4542
 11
-46.4823
 21
-17.6048
  0
LINE
  8
0
 10
-46.4823
 20
-17.6048
 11
-46.3892
 21
-17.733
  0
LINE
  8
0
 10
-46.3892
 20
-17.733
 11
-46.2611
 21
-17.826
  0
LINE
  8
0
 10
-46.2611
 20
-17.826
 11
-46.1104
 21
-17.875
  0
LINE
  8
0
 10
-46.1104
 20
-17.875
 11
-45.9521
 21
-17.875
  0
LINE
  8
0
 10
-45.9521
 20
-17.875
 11
-45.8014
 21
-17.826
  0
LINE
  8
0
 10
20.8438
 20
-16.4062
 11
20.8438
 21
-15.5938
  0
LINE
  8
0
 10
20.8438
 20
-15.5938
 11
24.4062
 21
-15.5938
  0
LINE
  8
0
 10
24.4062
 20
-15.5938
 11
24.4062
 21
-16.4062
  0
LINE
  8
0
 10
24.4062
 20
-16.4062
 11
20.8438
 21
-16.4062
  0
LINE
  8
0
 10
-36.9062
 20
-16.4062
 11
-36.9062
 21
-15.5938
  0
LINE
  8
0
 10
-36.9062
 20
-15.5938
 11
-33.3438
 21
-15.5938
  0
LINE
  8
0
 10
-33.3438
 20
-15.5938
 11
-33.3438
 21
-16.4062
  0
LINE
  8
0
 10
-33.3438
 20
-16.4062
 11
-36.9062
 21
-16.4062
  0
LINE
  8
0
 10
-17.6562
 20
-16.4062
 11
-17.6562
 21
-15.5938
  0
LINE
  8
0
 10
-17.6562
 20
-15.5938
 11
-14.0938
 21
-15.5938
  0
LINE
  8
0
 10
-14.0938
 20
-15.5938
 11
-14.0938
 21
-16.4062
  0
LINE
  8
0
 10
-14.0938
 20
-16.4062
 11
-17.6562
 21
-16.4062
  0
LINE
  8
0
 10
1.59375
 20
-16.4062
 11
1.59375
 21
-15.5938
  0
LINE
  8
0
 10
1.59375
 20
-15.5938
 11
5.15625
 21
-15.5938
  0
LINE
  8
0
 10
5.15625
 20
-15.5938
 11
5.15625
 21
-16.4062
  0
LINE
  8
0
 10
5.15625
 20
-16.4062
 11
1.59375
 21
-16.4062
  0
LINE
  8
0
 10
32.25
 20
-18.125
 11
-44.75
 21
-18.125
  0
LINE
  8
0
 10
-44.75
 20
-18.125
 11
-44.75
 21
-19.625
  0
LINE
  8
0
 10
-44.75
 20
-19.625
 11
32.25
 21
-19.625
  0
LINE
  8
0
 10
32.25
 20
-19.625
 11
32.25
 21
-18.125
  0
LINE
  8
0
 10
32.25
 20
-19.875
 11
-44.75
 21
-19.875
  0
LINE
  8
0
 10
-44.75
 20
-19.875
 11
-44.75
 21
-21.375
  0
LINE
  8
0
 10
-44.75
 20
-21.375
 11
32.25
 21
-21.375
  0
LINE
  8
0
 10
32.25
 20
-21.375
 11
32.25
 21
-19.875
  0
ENDSEC
  0
SECTION
  2
OBJECTS
  0
DICTIONARY
  0
ENDSEC
  0
EOF
