  0
SECTION
  2
BLOCKS
  0
ENDSEC
  0
SECTION
  2
ENTITIES
  0
LINE
  8
0
 10
9.64278
 20
-23.0135
 11
9.67523
 21
-23.0092
  0
LINE
  8
0
 10
9.67523
 20
-23.0092
 11
9.70734
 21
-23.0028
  0
LINE
  8
0
 10
9.70734
 20
-23.0028
 11
9.73897
 21
-22.9943
  0
LINE
  8
0
 10
9.73897
 20
-22.9943
 11
9.76996
 21
-22.9838
  0
LINE
  8
0
 10
9.76996
 20
-22.9838
 11
9.8002
 21
-22.9713
  0
LINE
  8
0
 10
9.8002
 20
-22.9713
 11
9.82957
 21
-22.9568
  0
LINE
  8
0
 10
9.82957
 20
-22.9568
 11
9.85791
 21
-22.9404
  0
LINE
  8
0
 10
9.85791
 20
-22.9404
 11
9.88513
 21
-22.9223
  0
LINE
  8
0
 10
9.88513
 20
-22.9223
 11
9.9111
 21
-22.9023
  0
LINE
  8
0
 10
9.9111
 20
-22.9023
 11
9.93571
 21
-22.8807
  0
LINE
  8
0
 10
9.93571
 20
-22.8807
 11
9.95886
 21
-22.8576
  0
LINE
  8
0
 10
9.95886
 20
-22.8576
 11
9.98045
 21
-22.833
  0
LINE
  8
0
 10
9.98045
 20
-22.833
 11
10.0004
 21
-22.807
  0
LINE
  8
0
 10
10.0004
 20
-22.807
 11
10.0186
 21
-22.7798
  0
LINE
  8
0
 10
10.0186
 20
-22.7798
 11
10.0349
 21
-22.7514
  0
LINE
  8
0
 10
10.0349
 20
-22.7514
 11
10.0494
 21
-22.7221
  0
LINE
  8
0
 10
10.0494
 20
-22.7221
 11
10.062
 21
-22.6918
  0
LINE
  8
0
 10
10.062
 20
-22.6918
 11
10.0725
 21
-22.6608
  0
LINE
  8
0
 10
10.0725
 20
-22.6608
 11
10.0809
 21
-22.6292
  0
LINE
  8
0
 10
10.0809
 20
-22.6292
 11
10.0873
 21
-22.5971
  0
LINE
  8
0
 10
10.0873
 20
-22.5971
 11
10.0916
 21
-22.5647
  0
LINE
  8
0
 10
10.0916
 20
-22.5647
 11
10.0938
 21
-22.532
  0
LINE
  8
0
 10
10.0938
 20
-22.532
 11
10.0938
 21
-21.3594
  0
LINE
  8
0
 10
10.0938
 20
-21.3594
 11
10.0991
 21
-21.3231
  0
LINE
  8
0
 10
10.0991
 20
-21.3231
 11
10.1125
 21
-21.2933
  0
LINE
  8
0
 10
10.1125
 20
-21.2933
 11
10.1333
 21
-21.2681
  0
LINE
  8
0
 10
10.1333
 20
-21.2681
 11
10.1598
 21
-21.2491
  0
LINE
  8
0
 10
10.1598
 20
-21.2491
 11
10.1903
 21
-21.2376
  0
LINE
  8
0
 10
10.1903
 20
-21.2376
 11
10.2188
 21
-21.2344
  0
LINE
  8
0
 10
10.2188
 20
-21.2344
 11
26.231
 21
-21.2349
  0
LINE
  8
0
 10
26.231
 20
-21.2349
 11
26.2628
 21
-21.2423
  0
LINE
  8
0
 10
26.2628
 20
-21.2423
 11
26.2916
 21
-21.2577
  0
LINE
  8
0
 10
26.2916
 20
-21.2577
 11
26.3154
 21
-21.28
  0
LINE
  8
0
 10
26.3154
 20
-21.28
 11
26.3327
 21
-21.3078
  0
LINE
  8
0
 10
26.3327
 20
-21.3078
 11
26.3421
 21
-21.339
  0
LINE
  8
0
 10
26.3421
 20
-21.339
 11
26.3432
 21
-21.3716
  0
LINE
  8
0
 10
26.3432
 20
-21.3716
 11
26.3432
 21
-21.9029
  0
LINE
  8
0
 10
26.3432
 20
-21.9029
 11
26.3358
 21
-21.9347
  0
LINE
  8
0
 10
26.3358
 20
-21.9347
 11
26.3204
 21
-21.9635
  0
LINE
  8
0
 10
26.3204
 20
-21.9635
 11
26.2981
 21
-21.9873
  0
LINE
  8
0
 10
26.2981
 20
-21.9873
 11
26.2704
 21
-22.0045
  0
LINE
  8
0
 10
26.2704
 20
-22.0045
 11
26.2391
 21
-22.014
  0
LINE
  8
0
 10
26.2391
 20
-22.014
 11
25.8438
 21
-22.0156
  0
LINE
  8
0
 10
25.8438
 20
-22.0156
 11
25.7947
 21
-22.0178
  0
LINE
  8
0
 10
25.7947
 20
-22.0178
 11
25.7623
 21
-22.022
  0
LINE
  8
0
 10
25.7623
 20
-22.022
 11
25.7302
 21
-22.0284
  0
LINE
  8
0
 10
25.7302
 20
-22.0284
 11
25.6985
 21
-22.0369
  0
LINE
  8
0
 10
25.6985
 20
-22.0369
 11
25.6675
 21
-22.0474
  0
LINE
  8
0
 10
25.6675
 20
-22.0474
 11
25.6373
 21
-22.06
  0
LINE
  8
0
 10
25.6373
 20
-22.06
 11
25.6079
 21
-22.0744
  0
LINE
  8
0
 10
25.6079
 20
-22.0744
 11
25.5796
 21
-22.0908
  0
LINE
  8
0
 10
25.5796
 20
-22.0908
 11
25.5524
 21
-22.109
  0
LINE
  8
0
 10
25.5524
 20
-22.109
 11
25.5264
 21
-22.1289
  0
LINE
  8
0
 10
25.5264
 20
-22.1289
 11
25.5018
 21
-22.1505
  0
LINE
  8
0
 10
25.5018
 20
-22.1505
 11
25.4786
 21
-22.1737
  0
LINE
  8
0
 10
25.4786
 20
-22.1737
 11
25.457
 21
-22.1983
  0
LINE
  8
0
 10
25.457
 20
-22.1983
 11
25.4371
 21
-22.2242
  0
LINE
  8
0
 10
25.4371
 20
-22.2242
 11
25.4189
 21
-22.2515
  0
LINE
  8
0
 10
25.4189
 20
-22.2515
 11
25.4026
 21
-22.2798
  0
LINE
  8
0
 10
25.4026
 20
-22.2798
 11
25.3881
 21
-22.3092
  0
LINE
  8
0
 10
25.3881
 20
-22.3092
 11
25.3755
 21
-22.3394
  0
LINE
  8
0
 10
25.3755
 20
-22.3394
 11
25.365
 21
-22.3704
  0
LINE
  8
0
 10
25.365
 20
-22.3704
 11
25.3566
 21
-22.402
  0
LINE
  8
0
 10
25.3566
 20
-22.402
 11
25.3502
 21
-22.4341
  0
LINE
  8
0
 10
25.3502
 20
-22.4341
 11
25.3459
 21
-22.4666
  0
LINE
  8
0
 10
25.3459
 20
-22.4666
 11
25.3438
 21
-22.4993
  0
LINE
  8
0
 10
25.3438
 20
-22.4993
 11
25.3438
 21
-22.532
  0
LINE
  8
0
 10
25.3438
 20
-22.532
 11
25.3459
 21
-22.5647
  0
LINE
  8
0
 10
25.3459
 20
-22.5647
 11
25.3502
 21
-22.5971
  0
LINE
  8
0
 10
25.3502
 20
-22.5971
 11
25.3566
 21
-22.6292
  0
LINE
  8
0
 10
25.3566
 20
-22.6292
 11
25.365
 21
-22.6608
  0
LINE
  8
0
 10
25.365
 20
-22.6608
 11
25.3755
 21
-22.6918
  0
LINE
  8
0
 10
25.3755
 20
-22.6918
 11
25.3881
 21
-22.7221
  0
LINE
  8
0
 10
25.3881
 20
-22.7221
 11
25.4026
 21
-22.7514
  0
LINE
  8
0
 10
25.4026
 20
-22.7514
 11
25.4189
 21
-22.7798
  0
LINE
  8
0
 10
25.4189
 20
-22.7798
 11
25.4371
 21
-22.807
  0
LINE
  8
0
 10
25.4371
 20
-22.807
 11
25.457
 21
-22.833
  0
LINE
  8
0
 10
25.457
 20
-22.833
 11
25.4786
 21
-22.8576
  0
LINE
  8
0
 10
25.4786
 20
-22.8576
 11
25.5018
 21
-22.8807
  0
LINE
  8
0
 10
25.5018
 20
-22.8807
 11
25.5264
 21
-22.9023
  0
LINE
  8
0
 10
25.5264
 20
-22.9023
 11
25.5524
 21
-22.9223
  0
LINE
  8
0
 10
25.5524
 20
-22.9223
 11
25.5796
 21
-22.9404
  0
LINE
  8
0
 10
25.5796
 20
-22.9404
 11
25.6079
 21
-22.9568
  0
LINE
  8
0
 10
25.6079
 20
-22.9568
 11
25.6373
 21
-22.9713
  0
LINE
  8
0
 10
25.6373
 20
-22.9713
 11
25.6675
 21
-22.9838
  0
LINE
  8
0
 10
25.6675
 20
-22.9838
 11
25.6985
 21
-22.9943
  0
LINE
  8
0
 10
25.6985
 20
-22.9943
 11
25.7302
 21
-23.0028
  0
LINE
  8
0
 10
25.7302
 20
-23.0028
 11
25.7623
 21
-23.0092
  0
LINE
  8
0
 10
25.7623
 20
-23.0092
 11
25.7947
 21
-23.0135
  0
LINE
  8
0
 10
25.7947
 20
-23.0135
 11
25.8274
 21
-23.0156
  0
LINE
  8
0
 10
25.8274
 20
-23.0156
 11
28.3601
 21
-23.0156
  0
LINE
  8
0
 10
28.3601
 20
-23.0156
 11
28.3928
 21
-23.0135
  0
LINE
  8
0
 10
28.3928
 20
-23.0135
 11
28.4252
 21
-23.0092
  0
LINE
  8
0
 10
28.4252
 20
-23.0092
 11
28.4573
 21
-23.0028
  0
LINE
  8
0
 10
28.4573
 20
-23.0028
 11
28.489
 21
-22.9943
  0
LINE
  8
0
 10
28.489
 20
-22.9943
 11
28.52
 21
-22.9838
  0
LINE
  8
0
 10
28.52
 20
-22.9838
 11
28.5502
 21
-22.9713
  0
LINE
  8
0
 10
28.5502
 20
-22.9713
 11
28.5796
 21
-22.9568
  0
LINE
  8
0
 10
28.5796
 20
-22.9568
 11
28.6079
 21
-22.9404
  0
LINE
  8
0
 10
28.6079
 20
-22.9404
 11
28.6351
 21
-22.9223
  0
LINE
  8
0
 10
28.6351
 20
-22.9223
 11
28.6611
 21
-22.9023
  0
LINE
  8
0
 10
28.6611
 20
-22.9023
 11
28.6857
 21
-22.8807
  0
LINE
  8
0
 10
28.6857
 20
-22.8807
 11
28.7089
 21
-22.8576
  0
LINE
  8
0
 10
28.7089
 20
-22.8576
 11
28.7305
 21
-22.833
  0
LINE
  8
0
 10
28.7305
 20
-22.833
 11
28.7504
 21
-22.807
  0
LINE
  8
0
 10
28.7504
 20
-22.807
 11
28.7686
 21
-22.7798
  0
LINE
  8
0
 10
28.7686
 20
-22.7798
 11
28.7849
 21
-22.7514
  0
LINE
  8
0
 10
28.7849
 20
-22.7514
 11
28.7994
 21
-22.7221
  0
LINE
  8
0
 10
28.7994
 20
-22.7221
 11
28.812
 21
-22.6918
  0
LINE
  8
0
 10
28.812
 20
-22.6918
 11
28.8225
 21
-22.6608
  0
LINE
  8
0
 10
28.8225
 20
-22.6608
 11
28.8309
 21
-22.6292
  0
LINE
  8
0
 10
28.8309
 20
-22.6292
 11
28.8373
 21
-22.5971
  0
LINE
  8
0
 10
28.8373
 20
-22.5971
 11
28.8416
 21
-22.5647
  0
LINE
  8
0
 10
28.8416
 20
-22.5647
 11
28.8438
 21
-22.532
  0
LINE
  8
0
 10
28.8438
 20
-22.532
 11
28.8438
 21
-21.3594
  0
LINE
  8
0
 10
28.8438
 20
-21.3594
 11
28.8491
 21
-21.3231
  0
LINE
  8
0
 10
28.8491
 20
-21.3231
 11
28.8625
 21
-21.2933
  0
LINE
  8
0
 10
28.8625
 20
-21.2933
 11
28.8833
 21
-21.2681
  0
LINE
  8
0
 10
28.8833
 20
-21.2681
 11
28.9098
 21
-21.2491
  0
LINE
  8
0
 10
28.9098
 20
-21.2491
 11
28.9403
 21
-21.2376
  0
LINE
  8
0
 10
28.9403
 20
-21.2376
 11
28.9688
 21
-21.2344
  0
LINE
  8
0
 10
28.9688
 20
-21.2344
 11
37.4375
 21
-21.2344
  0
LINE
  8
0
 10
37.4375
 20
-21.2344
 11
37.4375
 21
-9.6875
  0
LINE
  8
0
 10
37.4375
 20
-9.6875
 11
37.4428
 21
-9.65118
  0
LINE
  8
0
 10
37.4428
 20
-9.65118
 11
37.4563
 21
-9.62144
  0
LINE
  8
0
 10
37.4563
 20
-9.62144
 11
37.477
 21
-9.59621
  0
LINE
  8
0
 10
37.477
 20
-9.59621
 11
37.5035
 21
-9.57719
  0
LINE
  8
0
 10
37.5035
 20
-9.57719
 11
37.5341
 21
-9.56569
  0
LINE
  8
0
 10
37.5341
 20
-9.56569
 11
37.5625
 21
-9.5625
  0
LINE
  8
0
 10
37.5625
 20
-9.5625
 11
38.0123
 21
-9.5625
  0
LINE
  8
0
 10
38.0123
 20
-9.5625
 11
38.0611
 21
-9.55768
  0
LINE
  8
0
 10
38.0611
 20
-9.55768
 11
38.1089
 21
-9.54654
  0
LINE
  8
0
 10
38.1089
 20
-9.54654
 11
38.1548
 21
-9.52925
  0
LINE
  8
0
 10
38.1548
 20
-9.52925
 11
38.1981
 21
-9.50612
  0
LINE
  8
0
 10
38.1981
 20
-9.50612
 11
38.238
 21
-9.47752
  0
LINE
  8
0
 10
38.238
 20
-9.47752
 11
38.2738
 21
-9.44397
  0
LINE
  8
0
 10
38.2738
 20
-9.44397
 11
38.305
 21
-9.40604
  0
LINE
  8
0
 10
38.305
 20
-9.40604
 11
38.3309
 21
-9.36436
  0
LINE
  8
0
 10
38.3309
 20
-9.36436
 11
38.3512
 21
-9.31966
  0
LINE
  8
0
 10
38.3512
 20
-9.31966
 11
38.3654
 21
-9.27269
  0
LINE
  8
0
 10
38.3654
 20
-9.27269
 11
38.3734
 21
-9.22427
  0
LINE
  8
0
 10
38.3734
 20
-9.22427
 11
38.375
 21
-9.17522
  0
LINE
  8
0
 10
38.375
 20
-9.17522
 11
38.375
 21
-6.42523
  0
LINE
  8
0
 10
38.375
 20
-6.42523
 11
38.3702
 21
-6.37639
  0
LINE
  8
0
 10
38.3702
 20
-6.37639
 11
38.359
 21
-6.3286
  0
LINE
  8
0
 10
38.359
 20
-6.3286
 11
38.3418
 21
-6.28265
  0
LINE
  8
0
 10
38.3418
 20
-6.28265
 11
38.3186
 21
-6.23938
  0
LINE
  8
0
 10
38.3186
 20
-6.23938
 11
38.29
 21
-6.19948
  0
LINE
  8
0
 10
38.29
 20
-6.19948
 11
38.2565
 21
-6.16367
  0
LINE
  8
0
 10
38.2565
 20
-6.16367
 11
38.2185
 21
-6.13252
  0
LINE
  8
0
 10
38.2185
 20
-6.13252
 11
38.1769
 21
-6.10661
  0
LINE
  8
0
 10
38.1769
 20
-6.10661
 11
38.1322
 21
-6.08635
  0
LINE
  8
0
 10
38.1322
 20
-6.08635
 11
38.0852
 21
-6.07211
  0
LINE
  8
0
 10
38.0852
 20
-6.07211
 11
38.0368
 21
-6.06412
  0
LINE
  8
0
 10
38.0368
 20
-6.06412
 11
37.9877
 21
-6.0625
  0
LINE
  8
0
 10
37.9877
 20
-6.0625
 11
37.5625
 21
-6.0625
  0
LINE
  8
0
 10
37.5625
 20
-6.0625
 11
37.5262
 21
-6.05719
  0
LINE
  8
0
 10
37.5262
 20
-6.05719
 11
37.4964
 21
-6.04372
  0
LINE
  8
0
 10
37.4964
 20
-6.04372
 11
37.4712
 21
-6.02299
  0
LINE
  8
0
 10
37.4712
 20
-6.02299
 11
37.4522
 21
-5.99646
  0
LINE
  8
0
 10
37.4522
 20
-5.99646
 11
37.4407
 21
-5.96591
  0
LINE
  8
0
 10
37.4407
 20
-5.96591
 11
37.4375
 21
-5.9375
  0
LINE
  8
0
 10
37.4375
 20
-5.9375
 11
37.4375
 21
5.9375
  0
LINE
  8
0
 10
37.4375
 20
5.9375
 11
37.4428
 21
5.97382
  0
LINE
  8
0
 10
37.4428
 20
5.97382
 11
37.4563
 21
6.00356
  0
LINE
  8
0
 10
37.4563
 20
6.00356
 11
37.477
 21
6.02879
  0
LINE
  8
0
 10
37.477
 20
6.02879
 11
37.5035
 21
6.04781
  0
LINE
  8
0
 10
37.5035
 20
6.04781
 11
37.5341
 21
6.05931
  0
LINE
  8
0
 10
37.5341
 20
6.05931
 11
37.5625
 21
6.0625
  0
LINE
  8
0
 10
37.5625
 20
6.0625
 11
38.0123
 21
6.0625
  0
LINE
  8
0
 10
38.0123
 20
6.0625
 11
38.0611
 21
6.06732
  0
LINE
  8
0
 10
38.0611
 20
6.06732
 11
38.1089
 21
6.07846
  0
LINE
  8
0
 10
38.1089
 20
6.07846
 11
38.1548
 21
6.09575
  0
LINE
  8
0
 10
38.1548
 20
6.09575
 11
38.1981
 21
6.11888
  0
LINE
  8
0
 10
38.1981
 20
6.11888
 11
38.238
 21
6.14748
  0
LINE
  8
0
 10
38.238
 20
6.14748
 11
38.2738
 21
6.18103
  0
LINE
  8
0
 10
38.2738
 20
6.18103
 11
38.305
 21
6.21896
  0
LINE
  8
0
 10
38.305
 20
6.21896
 11
38.3309
 21
6.26064
  0
LINE
  8
0
 10
38.3309
 20
6.26064
 11
38.3512
 21
6.30534
  0
LINE
  8
0
 10
38.3512
 20
6.30534
 11
38.3654
 21
6.35231
  0
LINE
  8
0
 10
38.3654
 20
6.35231
 11
38.3734
 21
6.40073
  0
LINE
  8
0
 10
38.3734
 20
6.40073
 11
38.375
 21
6.44978
  0
LINE
  8
0
 10
38.375
 20
6.44978
 11
38.375
 21
9.19977
  0
LINE
  8
0
 10
38.375
 20
9.19977
 11
38.3702
 21
9.24861
  0
LINE
  8
0
 10
38.3702
 20
9.24861
 11
38.359
 21
9.2964
  0
LINE
  8
0
 10
38.359
 20
9.2964
 11
38.3418
 21
9.34235
  0
LINE
  8
0
 10
38.3418
 20
9.34235
 11
38.3186
 21
9.38562
  0
LINE
  8
0
 10
38.3186
 20
9.38562
 11
38.29
 21
9.42552
  0
LINE
  8
0
 10
38.29
 20
9.42552
 11
38.2565
 21
9.46133
  0
LINE
  8
0
 10
38.2565
 20
9.46133
 11
38.2185
 21
9.49248
  0
LINE
  8
0
 10
38.2185
 20
9.49248
 11
38.1769
 21
9.51839
  0
LINE
  8
0
 10
38.1769
 20
9.51839
 11
38.1322
 21
9.53865
  0
LINE
  8
0
 10
38.1322
 20
9.53865
 11
38.0852
 21
9.55289
  0
LINE
  8
0
 10
38.0852
 20
9.55289
 11
38.0368
 21
9.56088
  0
LINE
  8
0
 10
38.0368
 20
9.56088
 11
37.9877
 21
9.5625
  0
LINE
  8
0
 10
37.9877
 20
9.5625
 11
37.5625
 21
9.5625
  0
LINE
  8
0
 10
37.5625
 20
9.5625
 11
37.5262
 21
9.56781
  0
LINE
  8
0
 10
37.5262
 20
9.56781
 11
37.4964
 21
9.58128
  0
LINE
  8
0
 10
37.4964
 20
9.58128
 11
37.4712
 21
9.60201
  0
LINE
  8
0
 10
37.4712
 20
9.60201
 11
37.4522
 21
9.62854
  0
LINE
  8
0
 10
37.4522
 20
9.62854
 11
37.4407
 21
9.65909
  0
LINE
  8
0
 10
37.4407
 20
9.65909
 11
37.4375
 21
9.6875
  0
LINE
  8
0
 10
37.4375
 20
9.6875
 11
37.4375
 21
21.2344
  0
LINE
  8
0
 10
37.4375
 20
21.2344
 11
28.9688
 21
21.2344
  0
LINE
  8
0
 10
28.9688
 20
21.2344
 11
28.9403
 21
21.2376
  0
LINE
  8
0
 10
28.9403
 20
21.2376
 11
28.9098
 21
21.2491
  0
LINE
  8
0
 10
28.9098
 20
21.2491
 11
28.8833
 21
21.2681
  0
LINE
  8
0
 10
28.8833
 20
21.2681
 11
28.8625
 21
21.2933
  0
LINE
  8
0
 10
28.8625
 20
21.2933
 11
28.8491
 21
21.3231
  0
LINE
  8
0
 10
28.8491
 20
21.3231
 11
28.8438
 21
21.3594
  0
LINE
  8
0
 10
28.8438
 20
21.3594
 11
28.8438
 21
22.532
  0
LINE
  8
0
 10
28.8438
 20
22.532
 11
28.8416
 21
22.5647
  0
LINE
  8
0
 10
28.8416
 20
22.5647
 11
28.8373
 21
22.5971
  0
LINE
  8
0
 10
28.8373
 20
22.5971
 11
28.8309
 21
22.6292
  0
LINE
  8
0
 10
28.8309
 20
22.6292
 11
28.8225
 21
22.6608
  0
LINE
  8
0
 10
28.8225
 20
22.6608
 11
28.812
 21
22.6918
  0
LINE
  8
0
 10
28.812
 20
22.6918
 11
28.7994
 21
22.7221
  0
LINE
  8
0
 10
28.7994
 20
22.7221
 11
28.7849
 21
22.7514
  0
LINE
  8
0
 10
28.7849
 20
22.7514
 11
28.7686
 21
22.7798
  0
LINE
  8
0
 10
28.7686
 20
22.7798
 11
28.7504
 21
22.807
  0
LINE
  8
0
 10
28.7504
 20
22.807
 11
28.7305
 21
22.833
  0
LINE
  8
0
 10
28.7305
 20
22.833
 11
28.7089
 21
22.8576
  0
LINE
  8
0
 10
28.7089
 20
22.8576
 11
28.6857
 21
22.8807
  0
LINE
  8
0
 10
28.6857
 20
22.8807
 11
28.6611
 21
22.9023
  0
LINE
  8
0
 10
28.6611
 20
22.9023
 11
28.6351
 21
22.9223
  0
LINE
  8
0
 10
28.6351
 20
22.9223
 11
28.6079
 21
22.9404
  0
LINE
  8
0
 10
28.6079
 20
22.9404
 11
28.5796
 21
22.9568
  0
LINE
  8
0
 10
28.5796
 20
22.9568
 11
28.5502
 21
22.9713
  0
LINE
  8
0
 10
28.5502
 20
22.9713
 11
28.52
 21
22.9838
  0
LINE
  8
0
 10
28.52
 20
22.9838
 11
28.489
 21
22.9943
  0
LINE
  8
0
 10
28.489
 20
22.9943
 11
28.4573
 21
23.0028
  0
LINE
  8
0
 10
28.4573
 20
23.0028
 11
28.4252
 21
23.0092
  0
LINE
  8
0
 10
28.4252
 20
23.0092
 11
28.3928
 21
23.0135
  0
LINE
  8
0
 10
28.3928
 20
23.0135
 11
28.3601
 21
23.0156
  0
LINE
  8
0
 10
28.3601
 20
23.0156
 11
25.8274
 21
23.0156
  0
LINE
  8
0
 10
25.8274
 20
23.0156
 11
25.7947
 21
23.0135
  0
LINE
  8
0
 10
25.7947
 20
23.0135
 11
25.7623
 21
23.0092
  0
LINE
  8
0
 10
25.7623
 20
23.0092
 11
25.7302
 21
23.0028
  0
LINE
  8
0
 10
25.7302
 20
23.0028
 11
25.6985
 21
22.9943
  0
LINE
  8
0
 10
25.6985
 20
22.9943
 11
25.6675
 21
22.9838
  0
LINE
  8
0
 10
25.6675
 20
22.9838
 11
25.6373
 21
22.9713
  0
LINE
  8
0
 10
25.6373
 20
22.9713
 11
25.6079
 21
22.9568
  0
LINE
  8
0
 10
25.6079
 20
22.9568
 11
25.5796
 21
22.9404
  0
LINE
  8
0
 10
25.5796
 20
22.9404
 11
25.5524
 21
22.9223
  0
LINE
  8
0
 10
25.5524
 20
22.9223
 11
25.5264
 21
22.9023
  0
LINE
  8
0
 10
25.5264
 20
22.9023
 11
25.5018
 21
22.8807
  0
LINE
  8
0
 10
25.5018
 20
22.8807
 11
25.4786
 21
22.8576
  0
LINE
  8
0
 10
25.4786
 20
22.8576
 11
25.457
 21
22.833
  0
LINE
  8
0
 10
25.457
 20
22.833
 11
25.4371
 21
22.807
  0
LINE
  8
0
 10
25.4371
 20
22.807
 11
25.4189
 21
22.7798
  0
LINE
  8
0
 10
25.4189
 20
22.7798
 11
25.4026
 21
22.7514
  0
LINE
  8
0
 10
25.4026
 20
22.7514
 11
25.3881
 21
22.7221
  0
LINE
  8
0
 10
25.3881
 20
22.7221
 11
25.3755
 21
22.6918
  0
LINE
  8
0
 10
25.3755
 20
22.6918
 11
25.365
 21
22.6608
  0
LINE
  8
0
 10
25.365
 20
22.6608
 11
25.3566
 21
22.6292
  0
LINE
  8
0
 10
25.3566
 20
22.6292
 11
25.3502
 21
22.5971
  0
LINE
  8
0
 10
25.3502
 20
22.5971
 11
25.3459
 21
22.5647
  0
LINE
  8
0
 10
25.3459
 20
22.5647
 11
25.3438
 21
22.532
  0
LINE
  8
0
 10
25.3438
 20
22.532
 11
25.3438
 21
22.4993
  0
LINE
  8
0
 10
25.3438
 20
22.4993
 11
25.3459
 21
22.4666
  0
LINE
  8
0
 10
25.3459
 20
22.4666
 11
25.3502
 21
22.4341
  0
LINE
  8
0
 10
25.3502
 20
22.4341
 11
25.3566
 21
22.402
  0
LINE
  8
0
 10
25.3566
 20
22.402
 11
25.365
 21
22.3704
  0
LINE
  8
0
 10
25.365
 20
22.3704
 11
25.3755
 21
22.3394
  0
LINE
  8
0
 10
25.3755
 20
22.3394
 11
25.3881
 21
22.3092
  0
LINE
  8
0
 10
25.3881
 20
22.3092
 11
25.4026
 21
22.2798
  0
LINE
  8
0
 10
25.4026
 20
22.2798
 11
25.4189
 21
22.2515
  0
LINE
  8
0
 10
25.4189
 20
22.2515
 11
25.4371
 21
22.2242
  0
LINE
  8
0
 10
25.4371
 20
22.2242
 11
25.457
 21
22.1983
  0
LINE
  8
0
 10
25.457
 20
22.1983
 11
25.4786
 21
22.1737
  0
LINE
  8
0
 10
25.4786
 20
22.1737
 11
25.5018
 21
22.1505
  0
LINE
  8
0
 10
25.5018
 20
22.1505
 11
25.5264
 21
22.1289
  0
LINE
  8
0
 10
25.5264
 20
22.1289
 11
25.5524
 21
22.109
  0
LINE
  8
0
 10
25.5524
 20
22.109
 11
25.5796
 21
22.0908
  0
LINE
  8
0
 10
25.5796
 20
22.0908
 11
25.6079
 21
22.0744
  0
LINE
  8
0
 10
25.6079
 20
22.0744
 11
25.6373
 21
22.06
  0
LINE
  8
0
 10
25.6373
 20
22.06
 11
25.6675
 21
22.0474
  0
LINE
  8
0
 10
25.6675
 20
22.0474
 11
25.6985
 21
22.0369
  0
LINE
  8
0
 10
25.6985
 20
22.0369
 11
25.7302
 21
22.0284
  0
LINE
  8
0
 10
25.7302
 20
22.0284
 11
25.7623
 21
22.022
  0
LINE
  8
0
 10
25.7623
 20
22.022
 11
25.7947
 21
22.0178
  0
LINE
  8
0
 10
25.7947
 20
22.0178
 11
25.8438
 21
22.0156
  0
LINE
  8
0
 10
25.8438
 20
22.0156
 11
26.2391
 21
22.014
  0
LINE
  8
0
 10
26.2391
 20
22.014
 11
26.2704
 21
22.0045
  0
LINE
  8
0
 10
26.2704
 20
22.0045
 11
26.2981
 21
21.9873
  0
LINE
  8
0
 10
26.2981
 20
21.9873
 11
26.3204
 21
21.9635
  0
LINE
  8
0
 10
26.3204
 20
21.9635
 11
26.3358
 21
21.9347
  0
LINE
  8
0
 10
26.3358
 20
21.9347
 11
26.3432
 21
21.9029
  0
LINE
  8
0
 10
26.3432
 20
21.9029
 11
26.3432
 21
21.3716
  0
LINE
  8
0
 10
26.3432
 20
21.3716
 11
26.3421
 21
21.339
  0
LINE
  8
0
 10
26.3421
 20
21.339
 11
26.3327
 21
21.3078
  0
LINE
  8
0
 10
26.3327
 20
21.3078
 11
26.3154
 21
21.28
  0
LINE
  8
0
 10
26.3154
 20
21.28
 11
26.2916
 21
21.2577
  0
LINE
  8
0
 10
26.2916
 20
21.2577
 11
26.2628
 21
21.2423
  0
LINE
  8
0
 10
26.2628
 20
21.2423
 11
26.231
 21
21.2349
  0
LINE
  8
0
 10
26.231
 20
21.2349
 11
10.2188
 21
21.2344
  0
LINE
  8
0
 10
10.2188
 20
21.2344
 11
10.1903
 21
21.2376
  0
LINE
  8
0
 10
10.1903
 20
21.2376
 11
10.1598
 21
21.2491
  0
LINE
  8
0
 10
10.1598
 20
21.2491
 11
10.1333
 21
21.2681
  0
LINE
  8
0
 10
10.1333
 20
21.2681
 11
10.1125
 21
21.2933
  0
LINE
  8
0
 10
10.1125
 20
21.2933
 11
10.0991
 21
21.3231
  0
LINE
  8
0
 10
10.0991
 20
21.3231
 11
10.0938
 21
21.3594
  0
LINE
  8
0
 10
10.0938
 20
21.3594
 11
10.0938
 21
22.532
  0
LINE
  8
0
 10
10.0938
 20
22.532
 11
10.0916
 21
22.5647
  0
LINE
  8
0
 10
10.0916
 20
22.5647
 11
10.0873
 21
22.5971
  0
LINE
  8
0
 10
10.0873
 20
22.5971
 11
10.0809
 21
22.6292
  0
LINE
  8
0
 10
10.0809
 20
22.6292
 11
10.0725
 21
22.6608
  0
LINE
  8
0
 10
10.0725
 20
22.6608
 11
10.062
 21
22.6918
  0
LINE
  8
0
 10
10.062
 20
22.6918
 11
10.0494
 21
22.7221
  0
LINE
  8
0
 10
10.0494
 20
22.7221
 11
10.0349
 21
22.7514
  0
LINE
  8
0
 10
10.0349
 20
22.7514
 11
10.0186
 21
22.7798
  0
LINE
  8
0
 10
10.0186
 20
22.7798
 11
10.0004
 21
22.807
  0
LINE
  8
0
 10
10.0004
 20
22.807
 11
9.98045
 21
22.833
  0
LINE
  8
0
 10
9.98045
 20
22.833
 11
9.95886
 21
22.8576
  0
LINE
  8
0
 10
9.95886
 20
22.8576
 11
9.93571
 21
22.8807
  0
LINE
  8
0
 10
9.93571
 20
22.8807
 11
9.9111
 21
22.9023
  0
LINE
  8
0
 10
9.9111
 20
22.9023
 11
9.88513
 21
22.9223
  0
LINE
  8
0
 10
9.88513
 20
22.9223
 11
9.85791
 21
22.9404
  0
LINE
  8
0
 10
9.85791
 20
22.9404
 11
9.82957
 21
22.9568
  0
LINE
  8
0
 10
9.82957
 20
22.9568
 11
9.8002
 21
22.9713
  0
LINE
  8
0
 10
9.8002
 20
22.9713
 11
9.76996
 21
22.9838
  0
LINE
  8
0
 10
9.76996
 20
22.9838
 11
9.73897
 21
22.9943
  0
LINE
  8
0
 10
9.73897
 20
22.9943
 11
9.70734
 21
23.0028
  0
LINE
  8
0
 10
9.70734
 20
23.0028
 11
9.67523
 21
23.0092
  0
LINE
  8
0
 10
9.67523
 20
23.0092
 11
9.64278
 21
23.0135
  0
LINE
  8
0
 10
9.64278
 20
23.0135
 11
9.61011
 21
23.0156
  0
LINE
  8
0
 10
9.61011
 20
23.0156
 11
7.07739
 21
23.0156
  0
LINE
  8
0
 10
7.07739
 20
23.0156
 11
7.04472
 21
23.0135
  0
LINE
  8
0
 10
7.04472
 20
23.0135
 11
7.01227
 21
23.0092
  0
LINE
  8
0
 10
7.01227
 20
23.0092
 11
6.98016
 21
23.0028
  0
LINE
  8
0
 10
6.98016
 20
23.0028
 11
6.94853
 21
22.9943
  0
LINE
  8
0
 10
6.94853
 20
22.9943
 11
6.91754
 21
22.9838
  0
LINE
  8
0
 10
6.91754
 20
22.9838
 11
6.8873
 21
22.9713
  0
LINE
  8
0
 10
6.8873
 20
22.9713
 11
6.85793
 21
22.9568
  0
LINE
  8
0
 10
6.85793
 20
22.9568
 11
6.82959
 21
22.9404
  0
LINE
  8
0
 10
6.82959
 20
22.9404
 11
6.80237
 21
22.9223
  0
LINE
  8
0
 10
6.80237
 20
22.9223
 11
6.7764
 21
22.9023
  0
LINE
  8
0
 10
6.7764
 20
22.9023
 11
6.75179
 21
22.8807
  0
LINE
  8
0
 10
6.75179
 20
22.8807
 11
6.72864
 21
22.8576
  0
LINE
  8
0
 10
6.72864
 20
22.8576
 11
6.70705
 21
22.833
  0
LINE
  8
0
 10
6.70705
 20
22.833
 11
6.68712
 21
22.807
  0
LINE
  8
0
 10
6.68712
 20
22.807
 11
6.66893
 21
22.7798
  0
LINE
  8
0
 10
6.66893
 20
22.7798
 11
6.65256
 21
22.7514
  0
LINE
  8
0
 10
6.65256
 20
22.7514
 11
6.63808
 21
22.7221
  0
LINE
  8
0
 10
6.63808
 20
22.7221
 11
6.62555
 21
22.6918
  0
LINE
  8
0
 10
6.62555
 20
22.6918
 11
6.61504
 21
22.6608
  0
LINE
  8
0
 10
6.61504
 20
22.6608
 11
6.60655
 21
22.6292
  0
LINE
  8
0
 10
6.60655
 20
22.6292
 11
6.60017
 21
22.5971
  0
LINE
  8
0
 10
6.60017
 20
22.5971
 11
6.5959
 21
22.5647
  0
LINE
  8
0
 10
6.5959
 20
22.5647
 11
6.59375
 21
22.532
  0
LINE
  8
0
 10
6.59375
 20
22.532
 11
6.59375
 21
22.4993
  0
LINE
  8
0
 10
6.59375
 20
22.4993
 11
6.5959
 21
22.4666
  0
LINE
  8
0
 10
6.5959
 20
22.4666
 11
6.60017
 21
22.4341
  0
LINE
  8
0
 10
6.60017
 20
22.4341
 11
6.60655
 21
22.402
  0
LINE
  8
0
 10
6.60655
 20
22.402
 11
6.61504
 21
22.3704
  0
LINE
  8
0
 10
6.61504
 20
22.3704
 11
6.62555
 21
22.3394
  0
LINE
  8
0
 10
6.62555
 20
22.3394
 11
6.63808
 21
22.3092
  0
LINE
  8
0
 10
6.63808
 20
22.3092
 11
6.65256
 21
22.2798
  0
LINE
  8
0
 10
6.65256
 20
22.2798
 11
6.66893
 21
22.2515
  0
LINE
  8
0
 10
6.66893
 20
22.2515
 11
6.68712
 21
22.2242
  0
LINE
  8
0
 10
6.68712
 20
22.2242
 11
6.70705
 21
22.1983
  0
LINE
  8
0
 10
6.70705
 20
22.1983
 11
6.72864
 21
22.1737
  0
LINE
  8
0
 10
6.72864
 20
22.1737
 11
6.75179
 21
22.1505
  0
LINE
  8
0
 10
6.75179
 20
22.1505
 11
6.7764
 21
22.1289
  0
LINE
  8
0
 10
6.7764
 20
22.1289
 11
6.80237
 21
22.109
  0
LINE
  8
0
 10
6.80237
 20
22.109
 11
6.82959
 21
22.0908
  0
LINE
  8
0
 10
6.82959
 20
22.0908
 11
6.85793
 21
22.0744
  0
LINE
  8
0
 10
6.85793
 20
22.0744
 11
6.8873
 21
22.06
  0
LINE
  8
0
 10
6.8873
 20
22.06
 11
6.91754
 21
22.0474
  0
LINE
  8
0
 10
6.91754
 20
22.0474
 11
6.94853
 21
22.0369
  0
LINE
  8
0
 10
6.94853
 20
22.0369
 11
6.98016
 21
22.0284
  0
LINE
  8
0
 10
6.98016
 20
22.0284
 11
7.01227
 21
22.022
  0
LINE
  8
0
 10
7.01227
 20
22.022
 11
7.04472
 21
22.0178
  0
LINE
  8
0
 10
7.04472
 20
22.0178
 11
7.09375
 21
22.0156
  0
LINE
  8
0
 10
7.09375
 20
22.0156
 11
7.48912
 21
22.014
  0
LINE
  8
0
 10
7.48912
 20
22.014
 11
7.52036
 21
22.0045
  0
LINE
  8
0
 10
7.52036
 20
22.0045
 11
7.54808
 21
21.9873
  0
LINE
  8
0
 10
7.54808
 20
21.9873
 11
7.5704
 21
21.9635
  0
LINE
  8
0
 10
7.5704
 20
21.9635
 11
7.5858
 21
21.9347
  0
LINE
  8
0
 10
7.5858
 20
21.9347
 11
7.5932
 21
21.9029
  0
LINE
  8
0
 10
7.5932
 20
21.9029
 11
7.5932
 21
21.3716
  0
LINE
  8
0
 10
7.5932
 20
21.3716
 11
7.59213
 21
21.339
  0
LINE
  8
0
 10
7.59213
 20
21.339
 11
7.58266
 21
21.3078
  0
LINE
  8
0
 10
7.58266
 20
21.3078
 11
7.56541
 21
21.28
  0
LINE
  8
0
 10
7.56541
 20
21.28
 11
7.5416
 21
21.2577
  0
LINE
  8
0
 10
7.5416
 20
21.2577
 11
7.5128
 21
21.2423
  0
LINE
  8
0
 10
7.5128
 20
21.2423
 11
7.481
 21
21.2349
  0
LINE
  8
0
 10
7.481
 20
21.2349
 11
0
 21
21.2344
  0
LINE
  8
0
 10
0
 20
21.2344
 11
0
 21
-21.2344
  0
LINE
  8
0
 10
0
 20
-21.2344
 11
7.481
 21
-21.2349
  0
LINE
  8
0
 10
7.481
 20
-21.2349
 11
7.5128
 21
-21.2423
  0
LINE
  8
0
 10
7.5128
 20
-21.2423
 11
7.5416
 21
-21.2577
  0
LINE
  8
0
 10
7.5416
 20
-21.2577
 11
7.56541
 21
-21.28
  0
LINE
  8
0
 10
7.56541
 20
-21.28
 11
7.58266
 21
-21.3078
  0
LINE
  8
0
 10
7.58266
 20
-21.3078
 11
7.59213
 21
-21.339
  0
LINE
  8
0
 10
7.59213
 20
-21.339
 11
7.5932
 21
-21.3716
  0
LINE
  8
0
 10
7.5932
 20
-21.3716
 11
7.5932
 21
-21.9029
  0
LINE
  8
0
 10
7.5932
 20
-21.9029
 11
7.5858
 21
-21.9347
  0
LINE
  8
0
 10
7.5858
 20
-21.9347
 11
7.5704
 21
-21.9635
  0
LINE
  8
0
 10
7.5704
 20
-21.9635
 11
7.54808
 21
-21.9873
  0
LINE
  8
0
 10
7.54808
 20
-21.9873
 11
7.52036
 21
-22.0045
  0
LINE
  8
0
 10
7.52036
 20
-22.0045
 11
7.48912
 21
-22.014
  0
LINE
  8
0
 10
7.48912
 20
-22.014
 11
7.09375
 21
-22.0156
  0
LINE
  8
0
 10
7.09375
 20
-22.0156
 11
7.04472
 21
-22.0178
  0
LINE
  8
0
 10
7.04472
 20
-22.0178
 11
7.01227
 21
-22.022
  0
LINE
  8
0
 10
7.01227
 20
-22.022
 11
6.98016
 21
-22.0284
  0
LINE
  8
0
 10
6.98016
 20
-22.0284
 11
6.94853
 21
-22.0369
  0
LINE
  8
0
 10
6.94853
 20
-22.0369
 11
6.91754
 21
-22.0474
  0
LINE
  8
0
 10
6.91754
 20
-22.0474
 11
6.8873
 21
-22.06
  0
LINE
  8
0
 10
6.8873
 20
-22.06
 11
6.85793
 21
-22.0744
  0
LINE
  8
0
 10
6.85793
 20
-22.0744
 11
6.82959
 21
-22.0908
  0
LINE
  8
0
 10
6.82959
 20
-22.0908
 11
6.80237
 21
-22.109
  0
LINE
  8
0
 10
6.80237
 20
-22.109
 11
6.7764
 21
-22.1289
  0
LINE
  8
0
 10
6.7764
 20
-22.1289
 11
6.75179
 21
-22.1505
  0
LINE
  8
0
 10
6.75179
 20
-22.1505
 11
6.72864
 21
-22.1737
  0
LINE
  8
0
 10
6.72864
 20
-22.1737
 11
6.70705
 21
-22.1983
  0
LINE
  8
0
 10
6.70705
 20
-22.1983
 11
6.68712
 21
-22.2242
  0
LINE
  8
0
 10
6.68712
 20
-22.2242
 11
6.66893
 21
-22.2515
  0
LINE
  8
0
 10
6.66893
 20
-22.2515
 11
6.65256
 21
-22.2798
  0
LINE
  8
0
 10
6.65256
 20
-22.2798
 11
6.63808
 21
-22.3092
  0
LINE
  8
0
 10
6.63808
 20
-22.3092
 11
6.62555
 21
-22.3394
  0
LINE
  8
0
 10
6.62555
 20
-22.3394
 11
6.61504
 21
-22.3704
  0
LINE
  8
0
 10
6.61504
 20
-22.3704
 11
6.60655
 21
-22.402
  0
LINE
  8
0
 10
6.60655
 20
-22.402
 11
6.60017
 21
-22.4341
  0
LINE
  8
0
 10
6.60017
 20
-22.4341
 11
6.5959
 21
-22.4666
  0
LINE
  8
0
 10
6.5959
 20
-22.4666
 11
6.59375
 21
-22.4993
  0
LINE
  8
0
 10
6.59375
 20
-22.4993
 11
6.59375
 21
-22.532
  0
LINE
  8
0
 10
6.59375
 20
-22.532
 11
6.5959
 21
-22.5647
  0
LINE
  8
0
 10
6.5959
 20
-22.5647
 11
6.60017
 21
-22.5971
  0
LINE
  8
0
 10
6.60017
 20
-22.5971
 11
6.60655
 21
-22.6292
  0
LINE
  8
0
 10
6.60655
 20
-22.6292
 11
6.61504
 21
-22.6608
  0
LINE
  8
0
 10
6.61504
 20
-22.6608
 11
6.62555
 21
-22.6918
  0
LINE
  8
0
 10
6.62555
 20
-22.6918
 11
6.63808
 21
-22.7221
  0
LINE
  8
0
 10
6.63808
 20
-22.7221
 11
6.65256
 21
-22.7514
  0
LINE
  8
0
 10
6.65256
 20
-22.7514
 11
6.66893
 21
-22.7798
  0
LINE
  8
0
 10
6.66893
 20
-22.7798
 11
6.68712
 21
-22.807
  0
LINE
  8
0
 10
6.68712
 20
-22.807
 11
6.70705
 21
-22.833
  0
LINE
  8
0
 10
6.70705
 20
-22.833
 11
6.72864
 21
-22.8576
  0
LINE
  8
0
 10
6.72864
 20
-22.8576
 11
6.75179
 21
-22.8807
  0
LINE
  8
0
 10
6.75179
 20
-22.8807
 11
6.7764
 21
-22.9023
  0
LINE
  8
0
 10
6.7764
 20
-22.9023
 11
6.80237
 21
-22.9223
  0
LINE
  8
0
 10
6.80237
 20
-22.9223
 11
6.82959
 21
-22.9404
  0
LINE
  8
0
 10
6.82959
 20
-22.9404
 11
6.85793
 21
-22.9568
  0
LINE
  8
0
 10
6.85793
 20
-22.9568
 11
6.8873
 21
-22.9713
  0
LINE
  8
0
 10
6.8873
 20
-22.9713
 11
6.91754
 21
-22.9838
  0
LINE
  8
0
 10
6.91754
 20
-22.9838
 11
6.94853
 21
-22.9943
  0
LINE
  8
0
 10
6.94853
 20
-22.9943
 11
6.98016
 21
-23.0028
  0
LINE
  8
0
 10
6.98016
 20
-23.0028
 11
7.01227
 21
-23.0092
  0
LINE
  8
0
 10
7.01227
 20
-23.0092
 11
7.04472
 21
-23.0135
  0
LINE
  8
0
 10
7.04472
 20
-23.0135
 11
7.07739
 21
-23.0156
  0
LINE
  8
0
 10
7.07739
 20
-23.0156
 11
9.61011
 21
-23.0156
  0
LINE
  8
0
 10
9.61011
 20
-23.0156
 11
9.64278
 21
-23.0135
  0
LINE
  8
0
 10
-0.25
 20
22.8125
 11
-47
 21
22.8125
  0
LINE
  8
0
 10
-47
 20
22.8125
 11
-47
 21
10.5298
  0
LINE
  8
0
 10
-47
 20
10.5298
 11
-46.9957
 21
10.4644
  0
LINE
  8
0
 10
-46.9957
 20
10.4644
 11
-46.9872
 21
10.3995
  0
LINE
  8
0
 10
-46.9872
 20
10.3995
 11
-46.9744
 21
10.3353
  0
LINE
  8
0
 10
-46.9744
 20
10.3353
 11
-46.9574
 21
10.272
  0
LINE
  8
0
 10
-46.9574
 20
10.272
 11
-46.9364
 21
10.2101
  0
LINE
  8
0
 10
-46.9364
 20
10.2101
 11
-46.9113
 21
10.1496
  0
LINE
  8
0
 10
-46.9113
 20
10.1496
 11
-46.8824
 21
10.0908
  0
LINE
  8
0
 10
-46.8824
 20
10.0908
 11
-46.8497
 21
10.0341
  0
LINE
  8
0
 10
-46.8497
 20
10.0341
 11
-46.8133
 21
9.97971
  0
LINE
  8
0
 10
-46.8133
 20
9.97971
 11
-46.7734
 21
9.92776
  0
LINE
  8
0
 10
-46.7734
 20
9.92776
 11
-46.7302
 21
9.87854
  0
LINE
  8
0
 10
-46.7302
 20
9.87854
 11
-46.6839
 21
9.83224
  0
LINE
  8
0
 10
-46.6839
 20
9.83224
 11
-46.6347
 21
9.78906
  0
LINE
  8
0
 10
-46.6347
 20
9.78906
 11
-46.5828
 21
9.74921
  0
LINE
  8
0
 10
-46.5828
 20
9.74921
 11
-46.5283
 21
9.71283
  0
LINE
  8
0
 10
-46.5283
 20
9.71283
 11
-46.4716
 21
9.6801
  0
LINE
  8
0
 10
-46.4716
 20
9.6801
 11
-46.4129
 21
9.65114
  0
LINE
  8
0
 10
-46.4129
 20
9.65114
 11
-46.3524
 21
9.62608
  0
LINE
  8
0
 10
-46.3524
 20
9.62608
 11
-46.2904
 21
9.60504
  0
LINE
  8
0
 10
-46.2904
 20
9.60504
 11
-46.2272
 21
9.58809
  0
LINE
  8
0
 10
-46.2272
 20
9.58809
 11
-46.163
 21
9.57532
  0
LINE
  8
0
 10
-46.163
 20
9.57532
 11
-46.0981
 21
9.56677
  0
LINE
  8
0
 10
-46.0981
 20
9.56677
 11
-46.0327
 21
9.5625
  0
LINE
  8
0
 10
-46.0327
 20
9.5625
 11
-40.4673
 21
9.5625
  0
LINE
  8
0
 10
-40.4673
 20
9.5625
 11
-40.4019
 21
9.55821
  0
LINE
  8
0
 10
-40.4019
 20
9.55821
 11
-40.337
 21
9.54967
  0
LINE
  8
0
 10
-40.337
 20
9.54967
 11
-40.2728
 21
9.5369
  0
LINE
  8
0
 10
-40.2728
 20
9.5369
 11
-40.2095
 21
9.51994
  0
LINE
  8
0
 10
-40.2095
 20
9.51994
 11
-40.1476
 21
9.4989
  0
LINE
  8
0
 10
-40.1476
 20
9.4989
 11
-40.0871
 21
9.47385
  0
LINE
  8
0
 10
-40.0871
 20
9.47385
 11
-40.0283
 21
9.44489
  0
LINE
  8
0
 10
-40.0283
 20
9.44489
 11
-39.9716
 21
9.41216
  0
LINE
  8
0
 10
-39.9716
 20
9.41216
 11
-39.9172
 21
9.37578
  0
LINE
  8
0
 10
-39.9172
 20
9.37578
 11
-39.8653
 21
9.33592
  0
LINE
  8
0
 10
-39.8653
 20
9.33592
 11
-39.816
 21
9.29274
  0
LINE
  8
0
 10
-39.816
 20
9.29274
 11
-39.7697
 21
9.24644
  0
LINE
  8
0
 10
-39.7697
 20
9.24644
 11
-39.7266
 21
9.19722
  0
LINE
  8
0
 10
-39.7266
 20
9.19722
 11
-39.6867
 21
9.14528
  0
LINE
  8
0
 10
-39.6867
 20
9.14528
 11
-39.6503
 21
9.09084
  0
LINE
  8
0
 10
-39.6503
 20
9.09084
 11
-39.6176
 21
9.03415
  0
LINE
  8
0
 10
-39.6176
 20
9.03415
 11
-39.5886
 21
8.97542
  0
LINE
  8
0
 10
-39.5886
 20
8.97542
 11
-39.5636
 21
8.91493
  0
LINE
  8
0
 10
-39.5636
 20
8.91493
 11
-39.5425
 21
8.85294
  0
LINE
  8
0
 10
-39.5425
 20
8.85294
 11
-39.5256
 21
8.78969
  0
LINE
  8
0
 10
-39.5256
 20
8.78969
 11
-39.5128
 21
8.72548
  0
LINE
  8
0
 10
-39.5128
 20
8.72548
 11
-39.5043
 21
8.66057
  0
LINE
  8
0
 10
-39.5043
 20
8.66057
 11
-39.5
 21
8.59523
  0
LINE
  8
0
 10
-39.5
 20
8.59523
 11
-39.5
 21
-8.59521
  0
LINE
  8
0
 10
-39.5
 20
-8.59521
 11
-39.5043
 21
-8.66055
  0
LINE
  8
0
 10
-39.5043
 20
-8.66055
 11
-39.5128
 21
-8.72546
  0
LINE
  8
0
 10
-39.5128
 20
-8.72546
 11
-39.5256
 21
-8.78967
  0
LINE
  8
0
 10
-39.5256
 20
-8.78967
 11
-39.5426
 21
-8.85292
  0
LINE
  8
0
 10
-39.5426
 20
-8.85292
 11
-39.5636
 21
-8.91492
  0
LINE
  8
0
 10
-39.5636
 20
-8.91492
 11
-39.5887
 21
-8.9754
  0
LINE
  8
0
 10
-39.5887
 20
-8.9754
 11
-39.6176
 21
-9.03413
  0
LINE
  8
0
 10
-39.6176
 20
-9.03413
 11
-39.6503
 21
-9.09082
  0
LINE
  8
0
 10
-39.6503
 20
-9.09082
 11
-39.6867
 21
-9.14526
  0
LINE
  8
0
 10
-39.6867
 20
-9.14526
 11
-39.7266
 21
-9.1972
  0
LINE
  8
0
 10
-39.7266
 20
-9.1972
 11
-39.7698
 21
-9.24643
  0
LINE
  8
0
 10
-39.7698
 20
-9.24643
 11
-39.8161
 21
-9.29272
  0
LINE
  8
0
 10
-39.8161
 20
-9.29272
 11
-39.8653
 21
-9.33591
  0
LINE
  8
0
 10
-39.8653
 20
-9.33591
 11
-39.9172
 21
-9.37576
  0
LINE
  8
0
 10
-39.9172
 20
-9.37576
 11
-39.9717
 21
-9.41214
  0
LINE
  8
0
 10
-39.9717
 20
-9.41214
 11
-40.0284
 21
-9.44487
  0
LINE
  8
0
 10
-40.0284
 20
-9.44487
 11
-40.0871
 21
-9.47383
  0
LINE
  8
0
 10
-40.0871
 20
-9.47383
 11
-40.1476
 21
-9.49889
  0
LINE
  8
0
 10
-40.1476
 20
-9.49889
 11
-40.2096
 21
-9.51993
  0
LINE
  8
0
 10
-40.2096
 20
-9.51993
 11
-40.2728
 21
-9.53688
  0
LINE
  8
0
 10
-40.2728
 20
-9.53688
 11
-40.337
 21
-9.54965
  0
LINE
  8
0
 10
-40.337
 20
-9.54965
 11
-40.4019
 21
-9.5582
  0
LINE
  8
0
 10
-40.4019
 20
-9.5582
 11
-40.4673
 21
-9.56248
  0
LINE
  8
0
 10
-40.4673
 20
-9.56248
 11
-46.0327
 21
-9.56248
  0
LINE
  8
0
 10
-46.0327
 20
-9.56248
 11
-46.0981
 21
-9.56676
  0
LINE
  8
0
 10
-46.0981
 20
-9.56676
 11
-46.163
 21
-9.5753
  0
LINE
  8
0
 10
-46.163
 20
-9.5753
 11
-46.2272
 21
-9.58807
  0
LINE
  8
0
 10
-46.2272
 20
-9.58807
 11
-46.2905
 21
-9.60503
  0
LINE
  8
0
 10
-46.2905
 20
-9.60503
 11
-46.3524
 21
-9.62607
  0
LINE
  8
0
 10
-46.3524
 20
-9.62607
 11
-46.4129
 21
-9.65112
  0
LINE
  8
0
 10
-46.4129
 20
-9.65112
 11
-46.4717
 21
-9.68008
  0
LINE
  8
0
 10
-46.4717
 20
-9.68008
 11
-46.5284
 21
-9.71281
  0
LINE
  8
0
 10
-46.5284
 20
-9.71281
 11
-46.5828
 21
-9.74919
  0
LINE
  8
0
 10
-46.5828
 20
-9.74919
 11
-46.6347
 21
-9.78905
  0
LINE
  8
0
 10
-46.6347
 20
-9.78905
 11
-46.684
 21
-9.83223
  0
LINE
  8
0
 10
-46.684
 20
-9.83223
 11
-46.7303
 21
-9.87852
  0
LINE
  8
0
 10
-46.7303
 20
-9.87852
 11
-46.7734
 21
-9.92775
  0
LINE
  8
0
 10
-46.7734
 20
-9.92775
 11
-46.8133
 21
-9.97969
  0
LINE
  8
0
 10
-46.8133
 20
-9.97969
 11
-46.8497
 21
-10.0341
  0
LINE
  8
0
 10
-46.8497
 20
-10.0341
 11
-46.8824
 21
-10.0908
  0
LINE
  8
0
 10
-46.8824
 20
-10.0908
 11
-46.9114
 21
-10.1496
  0
LINE
  8
0
 10
-46.9114
 20
-10.1496
 11
-46.9364
 21
-10.21
  0
LINE
  8
0
 10
-46.9364
 20
-10.21
 11
-46.9575
 21
-10.272
  0
LINE
  8
0
 10
-46.9575
 20
-10.272
 11
-46.9744
 21
-10.3353
  0
LINE
  8
0
 10
-46.9744
 20
-10.3353
 11
-46.9872
 21
-10.3995
  0
LINE
  8
0
 10
-46.9872
 20
-10.3995
 11
-46.9957
 21
-10.4644
  0
LINE
  8
0
 10
-46.9957
 20
-10.4644
 11
-47
 21
-10.5297
  0
LINE
  8
0
 10
-47
 20
-10.5297
 11
-47
 21
-22.8125
  0
LINE
  8
0
 10
-47
 20
-22.8125
 11
-0.250015
 21
-22.8125
  0
LINE
  8
0
 10
-0.250015
 20
-22.8125
 11
-0.25
 21
22.8125
  0
LINE
  8
0
 10
-45.6199
 20
21.2188
 11
-45.6504
 21
21.2208
  0
LINE
  8
0
 10
-45.6504
 20
21.2208
 11
-45.6895
 21
21.2326
  0
LINE
  8
0
 10
-45.6895
 20
21.2326
 11
-45.716
 21
21.2479
  0
LINE
  8
0
 10
-45.716
 20
21.2479
 11
-45.7391
 21
21.2681
  0
LINE
  8
0
 10
-45.7391
 20
21.2681
 11
-45.7577
 21
21.2924
  0
LINE
  8
0
 10
-45.7577
 20
21.2924
 11
-45.7746
 21
21.3296
  0
LINE
  8
0
 10
-45.7746
 20
21.3296
 11
-45.7812
 21
21.3699
  0
LINE
  8
0
 10
-45.7812
 20
21.3699
 11
-45.7812
 21
21.8699
  0
LINE
  8
0
 10
-45.7812
 20
21.8699
 11
-45.7792
 21
21.9005
  0
LINE
  8
0
 10
-45.7792
 20
21.9005
 11
-45.7674
 21
21.9395
  0
LINE
  8
0
 10
-45.7674
 20
21.9395
 11
-45.7521
 21
21.966
  0
LINE
  8
0
 10
-45.7521
 20
21.966
 11
-45.7318
 21
21.9891
  0
LINE
  8
0
 10
-45.7318
 20
21.9891
 11
-45.7075
 21
22.0078
  0
LINE
  8
0
 10
-45.7075
 20
22.0078
 11
-45.6704
 21
22.0246
  0
LINE
  8
0
 10
-45.6704
 20
22.0246
 11
-45.6403
 21
22.0306
  0
LINE
  8
0
 10
-45.6403
 20
22.0306
 11
-42.3597
 21
22.0306
  0
LINE
  8
0
 10
-42.3597
 20
22.0306
 11
-42.3296
 21
22.0246
  0
LINE
  8
0
 10
-42.3296
 20
22.0246
 11
-42.2924
 21
22.0078
  0
LINE
  8
0
 10
-42.2924
 20
22.0078
 11
-42.2681
 21
21.9891
  0
LINE
  8
0
 10
-42.2681
 20
21.9891
 11
-42.2479
 21
21.966
  0
LINE
  8
0
 10
-42.2479
 20
21.966
 11
-42.2326
 21
21.9395
  0
LINE
  8
0
 10
-42.2326
 20
21.9395
 11
-42.2207
 21
21.9005
  0
LINE
  8
0
 10
-42.2207
 20
21.9005
 11
-42.2187
 21
21.8699
  0
LINE
  8
0
 10
-42.2187
 20
21.8699
 11
-42.2187
 21
21.3699
  0
LINE
  8
0
 10
-42.2187
 20
21.3699
 11
-42.2207
 21
21.3495
  0
LINE
  8
0
 10
-42.2207
 20
21.3495
 11
-42.2326
 21
21.3105
  0
LINE
  8
0
 10
-42.2326
 20
21.3105
 11
-42.2479
 21
21.284
  0
LINE
  8
0
 10
-42.2479
 20
21.284
 11
-42.2681
 21
21.2609
  0
LINE
  8
0
 10
-42.2681
 20
21.2609
 11
-42.2924
 21
21.2422
  0
LINE
  8
0
 10
-42.2924
 20
21.2422
 11
-42.3296
 21
21.2254
  0
LINE
  8
0
 10
-42.3296
 20
21.2254
 11
-42.3699
 21
21.2188
  0
LINE
  8
0
 10
-42.3699
 20
21.2188
 11
-45.6199
 21
21.2188
  0
LINE
  8
0
 10
-38.6199
 20
21.2188
 11
-38.6504
 21
21.2208
  0
LINE
  8
0
 10
-38.6504
 20
21.2208
 11
-38.6895
 21
21.2326
  0
LINE
  8
0
 10
-38.6895
 20
21.2326
 11
-38.716
 21
21.2479
  0
LINE
  8
0
 10
-38.716
 20
21.2479
 11
-38.7391
 21
21.2681
  0
LINE
  8
0
 10
-38.7391
 20
21.2681
 11
-38.7577
 21
21.2924
  0
LINE
  8
0
 10
-38.7577
 20
21.2924
 11
-38.7746
 21
21.3296
  0
LINE
  8
0
 10
-38.7746
 20
21.3296
 11
-38.7812
 21
21.3699
  0
LINE
  8
0
 10
-38.7812
 20
21.3699
 11
-38.7812
 21
21.8699
  0
LINE
  8
0
 10
-38.7812
 20
21.8699
 11
-38.7792
 21
21.9005
  0
LINE
  8
0
 10
-38.7792
 20
21.9005
 11
-38.7674
 21
21.9395
  0
LINE
  8
0
 10
-38.7674
 20
21.9395
 11
-38.7521
 21
21.966
  0
LINE
  8
0
 10
-38.7521
 20
21.966
 11
-38.7318
 21
21.9891
  0
LINE
  8
0
 10
-38.7318
 20
21.9891
 11
-38.7075
 21
22.0078
  0
LINE
  8
0
 10
-38.7075
 20
22.0078
 11
-38.6704
 21
22.0246
  0
LINE
  8
0
 10
-38.6704
 20
22.0246
 11
-38.6403
 21
22.0306
  0
LINE
  8
0
 10
-38.6403
 20
22.0306
 11
-35.3597
 21
22.0306
  0
LINE
  8
0
 10
-35.3597
 20
22.0306
 11
-35.3296
 21
22.0246
  0
LINE
  8
0
 10
-35.3296
 20
22.0246
 11
-35.2924
 21
22.0078
  0
LINE
  8
0
 10
-35.2924
 20
22.0078
 11
-35.2681
 21
21.9891
  0
LINE
  8
0
 10
-35.2681
 20
21.9891
 11
-35.2479
 21
21.966
  0
LINE
  8
0
 10
-35.2479
 20
21.966
 11
-35.2326
 21
21.9395
  0
LINE
  8
0
 10
-35.2326
 20
21.9395
 11
-35.2207
 21
21.9005
  0
LINE
  8
0
 10
-35.2207
 20
21.9005
 11
-35.2187
 21
21.8699
  0
LINE
  8
0
 10
-35.2187
 20
21.8699
 11
-35.2187
 21
21.3699
  0
LINE
  8
0
 10
-35.2187
 20
21.3699
 11
-35.2207
 21
21.3495
  0
LINE
  8
0
 10
-35.2207
 20
21.3495
 11
-35.2326
 21
21.3105
  0
LINE
  8
0
 10
-35.2326
 20
21.3105
 11
-35.2479
 21
21.284
  0
LINE
  8
0
 10
-35.2479
 20
21.284
 11
-35.2681
 21
21.2609
  0
LINE
  8
0
 10
-35.2681
 20
21.2609
 11
-35.2924
 21
21.2422
  0
LINE
  8
0
 10
-35.2924
 20
21.2422
 11
-35.3296
 21
21.2254
  0
LINE
  8
0
 10
-35.3296
 20
21.2254
 11
-35.3699
 21
21.2188
  0
LINE
  8
0
 10
-35.3699
 20
21.2188
 11
-38.6199
 21
21.2188
  0
LINE
  8
0
 10
-37.1199
 20
6.03125
 11
-37.1504
 21
6.03326
  0
LINE
  8
0
 10
-37.1504
 20
6.03326
 11
-37.1895
 21
6.0451
  0
LINE
  8
0
 10
-37.1895
 20
6.0451
 11
-37.216
 21
6.06042
  0
LINE
  8
0
 10
-37.216
 20
6.06042
 11
-37.2391
 21
6.08064
  0
LINE
  8
0
 10
-37.2391
 20
6.08064
 11
-37.2577
 21
6.10495
  0
LINE
  8
0
 10
-37.2577
 20
6.10495
 11
-37.2746
 21
6.14212
  0
LINE
  8
0
 10
-37.2746
 20
6.14212
 11
-37.2806
 21
6.17218
  0
LINE
  8
0
 10
-37.2806
 20
6.17218
 11
-37.2806
 21
9.45282
  0
LINE
  8
0
 10
-37.2806
 20
9.45282
 11
-37.2746
 21
9.48288
  0
LINE
  8
0
 10
-37.2746
 20
9.48288
 11
-37.2577
 21
9.52005
  0
LINE
  8
0
 10
-37.2577
 20
9.52005
 11
-37.2391
 21
9.54436
  0
LINE
  8
0
 10
-37.2391
 20
9.54436
 11
-37.216
 21
9.56458
  0
LINE
  8
0
 10
-37.216
 20
9.56458
 11
-37.1895
 21
9.5799
  0
LINE
  8
0
 10
-37.1895
 20
9.5799
 11
-37.1504
 21
9.59174
  0
LINE
  8
0
 10
-37.1504
 20
9.59174
 11
-37.1199
 21
9.59375
  0
LINE
  8
0
 10
-37.1199
 20
9.59375
 11
-35.8699
 21
9.59375
  0
LINE
  8
0
 10
-35.8699
 20
9.59375
 11
-35.8495
 21
9.59174
  0
LINE
  8
0
 10
-35.8495
 20
9.59174
 11
-35.8105
 21
9.5799
  0
LINE
  8
0
 10
-35.8105
 20
9.5799
 11
-35.7839
 21
9.56458
  0
LINE
  8
0
 10
-35.7839
 20
9.56458
 11
-35.7609
 21
9.54436
  0
LINE
  8
0
 10
-35.7609
 20
9.54436
 11
-35.7422
 21
9.52005
  0
LINE
  8
0
 10
-35.7422
 20
9.52005
 11
-35.7254
 21
9.48288
  0
LINE
  8
0
 10
-35.7254
 20
9.48288
 11
-35.7187
 21
9.44261
  0
LINE
  8
0
 10
-35.7187
 20
9.44261
 11
-35.7187
 21
6.19263
  0
LINE
  8
0
 10
-35.7187
 20
6.19263
 11
-35.7207
 21
6.16205
  0
LINE
  8
0
 10
-35.7207
 20
6.16205
 11
-35.7326
 21
6.12299
  0
LINE
  8
0
 10
-35.7326
 20
6.12299
 11
-35.7479
 21
6.09645
  0
LINE
  8
0
 10
-35.7479
 20
6.09645
 11
-35.7681
 21
6.07341
  0
LINE
  8
0
 10
-35.7681
 20
6.07341
 11
-35.7924
 21
6.05475
  0
LINE
  8
0
 10
-35.7924
 20
6.05475
 11
-35.8296
 21
6.0379
  0
LINE
  8
0
 10
-35.8296
 20
6.0379
 11
-35.8699
 21
6.03125
  0
LINE
  8
0
 10
-35.8699
 20
6.03125
 11
-37.1199
 21
6.03125
  0
LINE
  8
0
 10
-31.7827
 20
-9.56248
 11
-31.8481
 21
-9.5582
  0
LINE
  8
0
 10
-31.8481
 20
-9.5582
 11
-31.913
 21
-9.54965
  0
LINE
  8
0
 10
-31.913
 20
-9.54965
 11
-31.9772
 21
-9.53688
  0
LINE
  8
0
 10
-31.9772
 20
-9.53688
 11
-32.0404
 21
-9.51993
  0
LINE
  8
0
 10
-32.0404
 20
-9.51993
 11
-32.1024
 21
-9.49889
  0
LINE
  8
0
 10
-32.1024
 20
-9.49889
 11
-32.1629
 21
-9.47383
  0
LINE
  8
0
 10
-32.1629
 20
-9.47383
 11
-32.2216
 21
-9.44487
  0
LINE
  8
0
 10
-32.2216
 20
-9.44487
 11
-32.2783
 21
-9.41214
  0
LINE
  8
0
 10
-32.2783
 20
-9.41214
 11
-32.3328
 21
-9.37576
  0
LINE
  8
0
 10
-32.3328
 20
-9.37576
 11
-32.3847
 21
-9.33591
  0
LINE
  8
0
 10
-32.3847
 20
-9.33591
 11
-32.4339
 21
-9.29272
  0
LINE
  8
0
 10
-32.4339
 20
-9.29272
 11
-32.4802
 21
-9.24643
  0
LINE
  8
0
 10
-32.4802
 20
-9.24643
 11
-32.5234
 21
-9.1972
  0
LINE
  8
0
 10
-32.5234
 20
-9.1972
 11
-32.5633
 21
-9.14526
  0
LINE
  8
0
 10
-32.5633
 20
-9.14526
 11
-32.5997
 21
-9.09082
  0
LINE
  8
0
 10
-32.5997
 20
-9.09082
 11
-32.6324
 21
-9.03413
  0
LINE
  8
0
 10
-32.6324
 20
-9.03413
 11
-32.6613
 21
-8.9754
  0
LINE
  8
0
 10
-32.6613
 20
-8.9754
 11
-32.6864
 21
-8.91492
  0
LINE
  8
0
 10
-32.6864
 20
-8.91492
 11
-32.7074
 21
-8.85292
  0
LINE
  8
0
 10
-32.7074
 20
-8.85292
 11
-32.7244
 21
-8.78967
  0
LINE
  8
0
 10
-32.7244
 20
-8.78967
 11
-32.7372
 21
-8.72546
  0
LINE
  8
0
 10
-32.7372
 20
-8.72546
 11
-32.7457
 21
-8.66055
  0
LINE
  8
0
 10
-32.7457
 20
-8.66055
 11
-32.75
 21
-8.59521
  0
LINE
  8
0
 10
-32.75
 20
-8.59521
 11
-32.75
 21
8.59523
  0
LINE
  8
0
 10
-32.75
 20
8.59523
 11
-32.7457
 21
8.66057
  0
LINE
  8
0
 10
-32.7457
 20
8.66057
 11
-32.7372
 21
8.72548
  0
LINE
  8
0
 10
-32.7372
 20
8.72548
 11
-32.7244
 21
8.78969
  0
LINE
  8
0
 10
-32.7244
 20
8.78969
 11
-32.7074
 21
8.85294
  0
LINE
  8
0
 10
-32.7074
 20
8.85294
 11
-32.6864
 21
8.91493
  0
LINE
  8
0
 10
-32.6864
 20
8.91493
 11
-32.6613
 21
8.97542
  0
LINE
  8
0
 10
-32.6613
 20
8.97542
 11
-32.6324
 21
9.03415
  0
LINE
  8
0
 10
-32.6324
 20
9.03415
 11
-32.5996
 21
9.09084
  0
LINE
  8
0
 10
-32.5996
 20
9.09084
 11
-32.5633
 21
9.14528
  0
LINE
  8
0
 10
-32.5633
 20
9.14528
 11
-32.5234
 21
9.19722
  0
LINE
  8
0
 10
-32.5234
 20
9.19722
 11
-32.4802
 21
9.24644
  0
LINE
  8
0
 10
-32.4802
 20
9.24644
 11
-32.4339
 21
9.29274
  0
LINE
  8
0
 10
-32.4339
 20
9.29274
 11
-32.3847
 21
9.33592
  0
LINE
  8
0
 10
-32.3847
 20
9.33592
 11
-32.3328
 21
9.37578
  0
LINE
  8
0
 10
-32.3328
 20
9.37578
 11
-32.2783
 21
9.41216
  0
LINE
  8
0
 10
-32.2783
 20
9.41216
 11
-32.2216
 21
9.44489
  0
LINE
  8
0
 10
-32.2216
 20
9.44489
 11
-32.1629
 21
9.47385
  0
LINE
  8
0
 10
-32.1629
 20
9.47385
 11
-32.1024
 21
9.4989
  0
LINE
  8
0
 10
-32.1024
 20
9.4989
 11
-32.0404
 21
9.51994
  0
LINE
  8
0
 10
-32.0404
 20
9.51994
 11
-31.9772
 21
9.5369
  0
LINE
  8
0
 10
-31.9772
 20
9.5369
 11
-31.913
 21
9.54967
  0
LINE
  8
0
 10
-31.913
 20
9.54967
 11
-31.8481
 21
9.55821
  0
LINE
  8
0
 10
-31.8481
 20
9.55821
 11
-31.7827
 21
9.5625
  0
LINE
  8
0
 10
-31.7827
 20
9.5625
 11
-28.7173
 21
9.5625
  0
LINE
  8
0
 10
-28.7173
 20
9.5625
 11
-28.6519
 21
9.55821
  0
LINE
  8
0
 10
-28.6519
 20
9.55821
 11
-28.587
 21
9.54967
  0
LINE
  8
0
 10
-28.587
 20
9.54967
 11
-28.5228
 21
9.5369
  0
LINE
  8
0
 10
-28.5228
 20
9.5369
 11
-28.4595
 21
9.51994
  0
LINE
  8
0
 10
-28.4595
 20
9.51994
 11
-28.3976
 21
9.4989
  0
LINE
  8
0
 10
-28.3976
 20
9.4989
 11
-28.3371
 21
9.47385
  0
LINE
  8
0
 10
-28.3371
 20
9.47385
 11
-28.2783
 21
9.44489
  0
LINE
  8
0
 10
-28.2783
 20
9.44489
 11
-28.2216
 21
9.41216
  0
LINE
  8
0
 10
-28.2216
 20
9.41216
 11
-28.1672
 21
9.37578
  0
LINE
  8
0
 10
-28.1672
 20
9.37578
 11
-28.1153
 21
9.33592
  0
LINE
  8
0
 10
-28.1153
 20
9.33592
 11
-28.066
 21
9.29274
  0
LINE
  8
0
 10
-28.066
 20
9.29274
 11
-28.0197
 21
9.24644
  0
LINE
  8
0
 10
-28.0197
 20
9.24644
 11
-27.9766
 21
9.19722
  0
LINE
  8
0
 10
-27.9766
 20
9.19722
 11
-27.9367
 21
9.14528
  0
LINE
  8
0
 10
-27.9367
 20
9.14528
 11
-27.9003
 21
9.09084
  0
LINE
  8
0
 10
-27.9003
 20
9.09084
 11
-27.8676
 21
9.03415
  0
LINE
  8
0
 10
-27.8676
 20
9.03415
 11
-27.8386
 21
8.97542
  0
LINE
  8
0
 10
-27.8386
 20
8.97542
 11
-27.8136
 21
8.91493
  0
LINE
  8
0
 10
-27.8136
 20
8.91493
 11
-27.7925
 21
8.85294
  0
LINE
  8
0
 10
-27.7925
 20
8.85294
 11
-27.7756
 21
8.78969
  0
LINE
  8
0
 10
-27.7756
 20
8.78969
 11
-27.7628
 21
8.72548
  0
LINE
  8
0
 10
-27.7628
 20
8.72548
 11
-27.7543
 21
8.66057
  0
LINE
  8
0
 10
-27.7543
 20
8.66057
 11
-27.75
 21
8.59523
  0
LINE
  8
0
 10
-27.75
 20
8.59523
 11
-27.75
 21
-8.59521
  0
LINE
  8
0
 10
-27.75
 20
-8.59521
 11
-27.7543
 21
-8.66055
  0
LINE
  8
0
 10
-27.7543
 20
-8.66055
 11
-27.7628
 21
-8.72546
  0
LINE
  8
0
 10
-27.7628
 20
-8.72546
 11
-27.7756
 21
-8.78967
  0
LINE
  8
0
 10
-27.7756
 20
-8.78967
 11
-27.7926
 21
-8.85292
  0
LINE
  8
0
 10
-27.7926
 20
-8.85292
 11
-27.8136
 21
-8.91492
  0
LINE
  8
0
 10
-27.8136
 20
-8.91492
 11
-27.8387
 21
-8.9754
  0
LINE
  8
0
 10
-27.8387
 20
-8.9754
 11
-27.8676
 21
-9.03413
  0
LINE
  8
0
 10
-27.8676
 20
-9.03413
 11
-27.9003
 21
-9.09082
  0
LINE
  8
0
 10
-27.9003
 20
-9.09082
 11
-27.9367
 21
-9.14526
  0
LINE
  8
0
 10
-27.9367
 20
-9.14526
 11
-27.9766
 21
-9.1972
  0
LINE
  8
0
 10
-27.9766
 20
-9.1972
 11
-28.0198
 21
-9.24643
  0
LINE
  8
0
 10
-28.0198
 20
-9.24643
 11
-28.0661
 21
-9.29272
  0
LINE
  8
0
 10
-28.0661
 20
-9.29272
 11
-28.1153
 21
-9.33591
  0
LINE
  8
0
 10
-28.1153
 20
-9.33591
 11
-28.1672
 21
-9.37576
  0
LINE
  8
0
 10
-28.1672
 20
-9.37576
 11
-28.2217
 21
-9.41214
  0
LINE
  8
0
 10
-28.2217
 20
-9.41214
 11
-28.2784
 21
-9.44487
  0
LINE
  8
0
 10
-28.2784
 20
-9.44487
 11
-28.3371
 21
-9.47383
  0
LINE
  8
0
 10
-28.3371
 20
-9.47383
 11
-28.3976
 21
-9.49889
  0
LINE
  8
0
 10
-28.3976
 20
-9.49889
 11
-28.4596
 21
-9.51993
  0
LINE
  8
0
 10
-28.4596
 20
-9.51993
 11
-28.5228
 21
-9.53688
  0
LINE
  8
0
 10
-28.5228
 20
-9.53688
 11
-28.587
 21
-9.54965
  0
LINE
  8
0
 10
-28.587
 20
-9.54965
 11
-28.6519
 21
-9.5582
  0
LINE
  8
0
 10
-28.6519
 20
-9.5582
 11
-28.7173
 21
-9.56248
  0
LINE
  8
0
 10
-28.7173
 20
-9.56248
 11
-31.7827
 21
-9.56248
  0
LINE
  8
0
 10
-21.7827
 20
-9.5625
 11
-21.8481
 21
-9.55821
  0
LINE
  8
0
 10
-21.8481
 20
-9.55821
 11
-21.913
 21
-9.54967
  0
LINE
  8
0
 10
-21.913
 20
-9.54967
 11
-21.9772
 21
-9.5369
  0
LINE
  8
0
 10
-21.9772
 20
-9.5369
 11
-22.0405
 21
-9.51994
  0
LINE
  8
0
 10
-22.0405
 20
-9.51994
 11
-22.1024
 21
-9.4989
  0
LINE
  8
0
 10
-22.1024
 20
-9.4989
 11
-22.1629
 21
-9.47385
  0
LINE
  8
0
 10
-22.1629
 20
-9.47385
 11
-22.2217
 21
-9.44489
  0
LINE
  8
0
 10
-22.2217
 20
-9.44489
 11
-22.2784
 21
-9.41216
  0
LINE
  8
0
 10
-22.2784
 20
-9.41216
 11
-22.3328
 21
-9.37578
  0
LINE
  8
0
 10
-22.3328
 20
-9.37578
 11
-22.3847
 21
-9.33592
  0
LINE
  8
0
 10
-22.3847
 20
-9.33592
 11
-22.434
 21
-9.29274
  0
LINE
  8
0
 10
-22.434
 20
-9.29274
 11
-22.4803
 21
-9.24644
  0
LINE
  8
0
 10
-22.4803
 20
-9.24644
 11
-22.5234
 21
-9.19722
  0
LINE
  8
0
 10
-22.5234
 20
-9.19722
 11
-22.5633
 21
-9.14528
  0
LINE
  8
0
 10
-22.5633
 20
-9.14528
 11
-22.5997
 21
-9.09084
  0
LINE
  8
0
 10
-22.5997
 20
-9.09084
 11
-22.6324
 21
-9.03415
  0
LINE
  8
0
 10
-22.6324
 20
-9.03415
 11
-22.6614
 21
-8.97542
  0
LINE
  8
0
 10
-22.6614
 20
-8.97542
 11
-22.6864
 21
-8.91493
  0
LINE
  8
0
 10
-22.6864
 20
-8.91493
 11
-22.7075
 21
-8.85294
  0
LINE
  8
0
 10
-22.7075
 20
-8.85294
 11
-22.7244
 21
-8.78969
  0
LINE
  8
0
 10
-22.7244
 20
-8.78969
 11
-22.7372
 21
-8.72548
  0
LINE
  8
0
 10
-22.7372
 20
-8.72548
 11
-22.7457
 21
-8.66057
  0
LINE
  8
0
 10
-22.7457
 20
-8.66057
 11
-22.75
 21
-8.59523
  0
LINE
  8
0
 10
-22.75
 20
-8.59523
 11
-22.75
 21
8.59523
  0
LINE
  8
0
 10
-22.75
 20
8.59523
 11
-22.7457
 21
8.66057
  0
LINE
  8
0
 10
-22.7457
 20
8.66057
 11
-22.7372
 21
8.72548
  0
LINE
  8
0
 10
-22.7372
 20
8.72548
 11
-22.7244
 21
8.78969
  0
LINE
  8
0
 10
-22.7244
 20
8.78969
 11
-22.7074
 21
8.85294
  0
LINE
  8
0
 10
-22.7074
 20
8.85294
 11
-22.6864
 21
8.91493
  0
LINE
  8
0
 10
-22.6864
 20
8.91493
 11
-22.6613
 21
8.97542
  0
LINE
  8
0
 10
-22.6613
 20
8.97542
 11
-22.6324
 21
9.03415
  0
LINE
  8
0
 10
-22.6324
 20
9.03415
 11
-22.5997
 21
9.09084
  0
LINE
  8
0
 10
-22.5997
 20
9.09084
 11
-22.5633
 21
9.14528
  0
LINE
  8
0
 10
-22.5633
 20
9.14528
 11
-22.5234
 21
9.19722
  0
LINE
  8
0
 10
-22.5234
 20
9.19722
 11
-22.4802
 21
9.24644
  0
LINE
  8
0
 10
-22.4802
 20
9.24644
 11
-22.4339
 21
9.29274
  0
LINE
  8
0
 10
-22.4339
 20
9.29274
 11
-22.3847
 21
9.33592
  0
LINE
  8
0
 10
-22.3847
 20
9.33592
 11
-22.3328
 21
9.37578
  0
LINE
  8
0
 10
-22.3328
 20
9.37578
 11
-22.2783
 21
9.41216
  0
LINE
  8
0
 10
-22.2783
 20
9.41216
 11
-22.2216
 21
9.44489
  0
LINE
  8
0
 10
-22.2216
 20
9.44489
 11
-22.1629
 21
9.47385
  0
LINE
  8
0
 10
-22.1629
 20
9.47385
 11
-22.1024
 21
9.4989
  0
LINE
  8
0
 10
-22.1024
 20
9.4989
 11
-22.0404
 21
9.51994
  0
LINE
  8
0
 10
-22.0404
 20
9.51994
 11
-21.9772
 21
9.5369
  0
LINE
  8
0
 10
-21.9772
 20
9.5369
 11
-21.913
 21
9.54967
  0
LINE
  8
0
 10
-21.913
 20
9.54967
 11
-21.8481
 21
9.55821
  0
LINE
  8
0
 10
-21.8481
 20
9.55821
 11
-21.7827
 21
9.5625
  0
LINE
  8
0
 10
-21.7827
 20
9.5625
 11
-18.7173
 21
9.56248
  0
LINE
  8
0
 10
-18.7173
 20
9.56248
 11
-18.6519
 21
9.5582
  0
LINE
  8
0
 10
-18.6519
 20
9.5582
 11
-18.587
 21
9.54965
  0
LINE
  8
0
 10
-18.587
 20
9.54965
 11
-18.5228
 21
9.53688
  0
LINE
  8
0
 10
-18.5228
 20
9.53688
 11
-18.4596
 21
9.51993
  0
LINE
  8
0
 10
-18.4596
 20
9.51993
 11
-18.3976
 21
9.49889
  0
LINE
  8
0
 10
-18.3976
 20
9.49889
 11
-18.3371
 21
9.47383
  0
LINE
  8
0
 10
-18.3371
 20
9.47383
 11
-18.2784
 21
9.44487
  0
LINE
  8
0
 10
-18.2784
 20
9.44487
 11
-18.2217
 21
9.41214
  0
LINE
  8
0
 10
-18.2217
 20
9.41214
 11
-18.1672
 21
9.37576
  0
LINE
  8
0
 10
-18.1672
 20
9.37576
 11
-18.1153
 21
9.33591
  0
LINE
  8
0
 10
-18.1153
 20
9.33591
 11
-18.0661
 21
9.29272
  0
LINE
  8
0
 10
-18.0661
 20
9.29272
 11
-18.0198
 21
9.24643
  0
LINE
  8
0
 10
-18.0198
 20
9.24643
 11
-17.9766
 21
9.1972
  0
LINE
  8
0
 10
-17.9766
 20
9.1972
 11
-17.9367
 21
9.14526
  0
LINE
  8
0
 10
-17.9367
 20
9.14526
 11
-17.9003
 21
9.09082
  0
LINE
  8
0
 10
-17.9003
 20
9.09082
 11
-17.8676
 21
9.03413
  0
LINE
  8
0
 10
-17.8676
 20
9.03413
 11
-17.8387
 21
8.9754
  0
LINE
  8
0
 10
-17.8387
 20
8.9754
 11
-17.8136
 21
8.91492
  0
LINE
  8
0
 10
-17.8136
 20
8.91492
 11
-17.7926
 21
8.85292
  0
LINE
  8
0
 10
-17.7926
 20
8.85292
 11
-17.7756
 21
8.78967
  0
LINE
  8
0
 10
-17.7756
 20
8.78967
 11
-17.7628
 21
8.72546
  0
LINE
  8
0
 10
-17.7628
 20
8.72546
 11
-17.7543
 21
8.66055
  0
LINE
  8
0
 10
-17.7543
 20
8.66055
 11
-17.75
 21
8.59521
  0
LINE
  8
0
 10
-17.75
 20
8.59521
 11
-17.75
 21
-8.59523
  0
LINE
  8
0
 10
-17.75
 20
-8.59523
 11
-17.7543
 21
-8.66057
  0
LINE
  8
0
 10
-17.7543
 20
-8.66057
 11
-17.7628
 21
-8.72548
  0
LINE
  8
0
 10
-17.7628
 20
-8.72548
 11
-17.7756
 21
-8.78969
  0
LINE
  8
0
 10
-17.7756
 20
-8.78969
 11
-17.7926
 21
-8.85294
  0
LINE
  8
0
 10
-17.7926
 20
-8.85294
 11
-17.8136
 21
-8.91493
  0
LINE
  8
0
 10
-17.8136
 20
-8.91493
 11
-17.8387
 21
-8.97542
  0
LINE
  8
0
 10
-17.8387
 20
-8.97542
 11
-17.8676
 21
-9.03415
  0
LINE
  8
0
 10
-17.8676
 20
-9.03415
 11
-17.9004
 21
-9.09084
  0
LINE
  8
0
 10
-17.9004
 20
-9.09084
 11
-17.9367
 21
-9.14528
  0
LINE
  8
0
 10
-17.9367
 20
-9.14528
 11
-17.9766
 21
-9.19722
  0
LINE
  8
0
 10
-17.9766
 20
-9.19722
 11
-18.0198
 21
-9.24644
  0
LINE
  8
0
 10
-18.0198
 20
-9.24644
 11
-18.0661
 21
-9.29274
  0
LINE
  8
0
 10
-18.0661
 20
-9.29274
 11
-18.1153
 21
-9.33592
  0
LINE
  8
0
 10
-18.1153
 20
-9.33592
 11
-18.1672
 21
-9.37578
  0
LINE
  8
0
 10
-18.1672
 20
-9.37578
 11
-18.2217
 21
-9.41216
  0
LINE
  8
0
 10
-18.2217
 20
-9.41216
 11
-18.2784
 21
-9.44489
  0
LINE
  8
0
 10
-18.2784
 20
-9.44489
 11
-18.3371
 21
-9.47385
  0
LINE
  8
0
 10
-18.3371
 20
-9.47385
 11
-18.3976
 21
-9.4989
  0
LINE
  8
0
 10
-18.3976
 20
-9.4989
 11
-18.4596
 21
-9.51994
  0
LINE
  8
0
 10
-18.4596
 20
-9.51994
 11
-18.5228
 21
-9.5369
  0
LINE
  8
0
 10
-18.5228
 20
-9.5369
 11
-18.587
 21
-9.54967
  0
LINE
  8
0
 10
-18.587
 20
-9.54967
 11
-18.6519
 21
-9.55821
  0
LINE
  8
0
 10
-18.6519
 20
-9.55821
 11
-18.7173
 21
-9.5625
  0
LINE
  8
0
 10
-18.7173
 20
-9.5625
 11
-21.7827
 21
-9.5625
  0
LINE
  8
0
 10
-11.7827
 20
-9.5625
 11
-11.8481
 21
-9.55821
  0
LINE
  8
0
 10
-11.8481
 20
-9.55821
 11
-11.913
 21
-9.54967
  0
LINE
  8
0
 10
-11.913
 20
-9.54967
 11
-11.9772
 21
-9.5369
  0
LINE
  8
0
 10
-11.9772
 20
-9.5369
 11
-12.0405
 21
-9.51994
  0
LINE
  8
0
 10
-12.0405
 20
-9.51994
 11
-12.1024
 21
-9.4989
  0
LINE
  8
0
 10
-12.1024
 20
-9.4989
 11
-12.1629
 21
-9.47385
  0
LINE
  8
0
 10
-12.1629
 20
-9.47385
 11
-12.2217
 21
-9.44489
  0
LINE
  8
0
 10
-12.2217
 20
-9.44489
 11
-12.2784
 21
-9.41216
  0
LINE
  8
0
 10
-12.2784
 20
-9.41216
 11
-12.3328
 21
-9.37578
  0
LINE
  8
0
 10
-12.3328
 20
-9.37578
 11
-12.3847
 21
-9.33592
  0
LINE
  8
0
 10
-12.3847
 20
-9.33592
 11
-12.434
 21
-9.29274
  0
LINE
  8
0
 10
-12.434
 20
-9.29274
 11
-12.4803
 21
-9.24644
  0
LINE
  8
0
 10
-12.4803
 20
-9.24644
 11
-12.5234
 21
-9.19722
  0
LINE
  8
0
 10
-12.5234
 20
-9.19722
 11
-12.5633
 21
-9.14528
  0
LINE
  8
0
 10
-12.5633
 20
-9.14528
 11
-12.5997
 21
-9.09084
  0
LINE
  8
0
 10
-12.5997
 20
-9.09084
 11
-12.6324
 21
-9.03415
  0
LINE
  8
0
 10
-12.6324
 20
-9.03415
 11
-12.6614
 21
-8.97542
  0
LINE
  8
0
 10
-12.6614
 20
-8.97542
 11
-12.6864
 21
-8.91493
  0
LINE
  8
0
 10
-12.6864
 20
-8.91493
 11
-12.7075
 21
-8.85294
  0
LINE
  8
0
 10
-12.7075
 20
-8.85294
 11
-12.7244
 21
-8.78969
  0
LINE
  8
0
 10
-12.7244
 20
-8.78969
 11
-12.7372
 21
-8.72548
  0
LINE
  8
0
 10
-12.7372
 20
-8.72548
 11
-12.7457
 21
-8.66057
  0
LINE
  8
0
 10
-12.7457
 20
-8.66057
 11
-12.75
 21
-8.59523
  0
LINE
  8
0
 10
-12.75
 20
-8.59523
 11
-12.75
 21
8.59521
  0
LINE
  8
0
 10
-12.75
 20
8.59521
 11
-12.7457
 21
8.66055
  0
LINE
  8
0
 10
-12.7457
 20
8.66055
 11
-12.7372
 21
8.72546
  0
LINE
  8
0
 10
-12.7372
 20
8.72546
 11
-12.7244
 21
8.78967
  0
LINE
  8
0
 10
-12.7244
 20
8.78967
 11
-12.7074
 21
8.85292
  0
LINE
  8
0
 10
-12.7074
 20
8.85292
 11
-12.6864
 21
8.91492
  0
LINE
  8
0
 10
-12.6864
 20
8.91492
 11
-12.6613
 21
8.9754
  0
LINE
  8
0
 10
-12.6613
 20
8.9754
 11
-12.6324
 21
9.03413
  0
LINE
  8
0
 10
-12.6324
 20
9.03413
 11
-12.5997
 21
9.09082
  0
LINE
  8
0
 10
-12.5997
 20
9.09082
 11
-12.5633
 21
9.14526
  0
LINE
  8
0
 10
-12.5633
 20
9.14526
 11
-12.5234
 21
9.1972
  0
LINE
  8
0
 10
-12.5234
 20
9.1972
 11
-12.4802
 21
9.24643
  0
LINE
  8
0
 10
-12.4802
 20
9.24643
 11
-12.4339
 21
9.29272
  0
LINE
  8
0
 10
-12.4339
 20
9.29272
 11
-12.3847
 21
9.33591
  0
LINE
  8
0
 10
-12.3847
 20
9.33591
 11
-12.3328
 21
9.37576
  0
LINE
  8
0
 10
-12.3328
 20
9.37576
 11
-12.2783
 21
9.41214
  0
LINE
  8
0
 10
-12.2783
 20
9.41214
 11
-12.2216
 21
9.44487
  0
LINE
  8
0
 10
-12.2216
 20
9.44487
 11
-12.1629
 21
9.47383
  0
LINE
  8
0
 10
-12.1629
 20
9.47383
 11
-12.1024
 21
9.49889
  0
LINE
  8
0
 10
-12.1024
 20
9.49889
 11
-12.0404
 21
9.51993
  0
LINE
  8
0
 10
-12.0404
 20
9.51993
 11
-11.9772
 21
9.53688
  0
LINE
  8
0
 10
-11.9772
 20
9.53688
 11
-11.913
 21
9.54965
  0
LINE
  8
0
 10
-11.913
 20
9.54965
 11
-11.8481
 21
9.5582
  0
LINE
  8
0
 10
-11.8481
 20
9.5582
 11
-11.7827
 21
9.56248
  0
LINE
  8
0
 10
-11.7827
 20
9.56248
 11
-8.71727
 21
9.56248
  0
LINE
  8
0
 10
-8.71727
 20
9.56248
 11
-8.65193
 21
9.5582
  0
LINE
  8
0
 10
-8.65193
 20
9.5582
 11
-8.58702
 21
9.54965
  0
LINE
  8
0
 10
-8.58702
 20
9.54965
 11
-8.52281
 21
9.53688
  0
LINE
  8
0
 10
-8.52281
 20
9.53688
 11
-8.45956
 21
9.51993
  0
LINE
  8
0
 10
-8.45956
 20
9.51993
 11
-8.39757
 21
9.49889
  0
LINE
  8
0
 10
-8.39757
 20
9.49889
 11
-8.33708
 21
9.47383
  0
LINE
  8
0
 10
-8.33708
 20
9.47383
 11
-8.27835
 21
9.44487
  0
LINE
  8
0
 10
-8.27835
 20
9.44487
 11
-8.22166
 21
9.41214
  0
LINE
  8
0
 10
-8.22166
 20
9.41214
 11
-8.16722
 21
9.37576
  0
LINE
  8
0
 10
-8.16722
 20
9.37576
 11
-8.11528
 21
9.33591
  0
LINE
  8
0
 10
-8.11528
 20
9.33591
 11
-8.06606
 21
9.29272
  0
LINE
  8
0
 10
-8.06606
 20
9.29272
 11
-8.01976
 21
9.24643
  0
LINE
  8
0
 10
-8.01976
 20
9.24643
 11
-7.97658
 21
9.1972
  0
LINE
  8
0
 10
-7.97658
 20
9.1972
 11
-7.93672
 21
9.14526
  0
LINE
  8
0
 10
-7.93672
 20
9.14526
 11
-7.90034
 21
9.09082
  0
LINE
  8
0
 10
-7.90034
 20
9.09082
 11
-7.86761
 21
9.03413
  0
LINE
  8
0
 10
-7.86761
 20
9.03413
 11
-7.83865
 21
8.9754
  0
LINE
  8
0
 10
-7.83865
 20
8.9754
 11
-7.8136
 21
8.91492
  0
LINE
  8
0
 10
-7.8136
 20
8.91492
 11
-7.79256
 21
8.85292
  0
LINE
  8
0
 10
-7.79256
 20
8.85292
 11
-7.7756
 21
8.78967
  0
LINE
  8
0
 10
-7.7756
 20
8.78967
 11
-7.76283
 21
8.72546
  0
LINE
  8
0
 10
-7.76283
 20
8.72546
 11
-7.75429
 21
8.66055
  0
LINE
  8
0
 10
-7.75429
 20
8.66055
 11
-7.75
 21
8.59521
  0
LINE
  8
0
 10
-7.75
 20
8.59521
 11
-7.75002
 21
-8.59523
  0
LINE
  8
0
 10
-7.75002
 20
-8.59523
 11
-7.7543
 21
-8.66057
  0
LINE
  8
0
 10
-7.7543
 20
-8.66057
 11
-7.76285
 21
-8.72548
  0
LINE
  8
0
 10
-7.76285
 20
-8.72548
 11
-7.77562
 21
-8.78969
  0
LINE
  8
0
 10
-7.77562
 20
-8.78969
 11
-7.79257
 21
-8.85294
  0
LINE
  8
0
 10
-7.79257
 20
-8.85294
 11
-7.81361
 21
-8.91493
  0
LINE
  8
0
 10
-7.81361
 20
-8.91493
 11
-7.83867
 21
-8.97542
  0
LINE
  8
0
 10
-7.83867
 20
-8.97542
 11
-7.86763
 21
-9.03415
  0
LINE
  8
0
 10
-7.86763
 20
-9.03415
 11
-7.90036
 21
-9.09084
  0
LINE
  8
0
 10
-7.90036
 20
-9.09084
 11
-7.93674
 21
-9.14528
  0
LINE
  8
0
 10
-7.93674
 20
-9.14528
 11
-7.97659
 21
-9.19722
  0
LINE
  8
0
 10
-7.97659
 20
-9.19722
 11
-8.01978
 21
-9.24644
  0
LINE
  8
0
 10
-8.01978
 20
-9.24644
 11
-8.06607
 21
-9.29274
  0
LINE
  8
0
 10
-8.06607
 20
-9.29274
 11
-8.1153
 21
-9.33592
  0
LINE
  8
0
 10
-8.1153
 20
-9.33592
 11
-8.16724
 21
-9.37578
  0
LINE
  8
0
 10
-8.16724
 20
-9.37578
 11
-8.22168
 21
-9.41216
  0
LINE
  8
0
 10
-8.22168
 20
-9.41216
 11
-8.27837
 21
-9.44489
  0
LINE
  8
0
 10
-8.27837
 20
-9.44489
 11
-8.3371
 21
-9.47385
  0
LINE
  8
0
 10
-8.3371
 20
-9.47385
 11
-8.39758
 21
-9.4989
  0
LINE
  8
0
 10
-8.39758
 20
-9.4989
 11
-8.45958
 21
-9.51994
  0
LINE
  8
0
 10
-8.45958
 20
-9.51994
 11
-8.52283
 21
-9.5369
  0
LINE
  8
0
 10
-8.52283
 20
-9.5369
 11
-8.58704
 21
-9.54967
  0
LINE
  8
0
 10
-8.58704
 20
-9.54967
 11
-8.65195
 21
-9.55821
  0
LINE
  8
0
 10
-8.65195
 20
-9.55821
 11
-8.71729
 21
-9.5625
  0
LINE
  8
0
 10
-8.71729
 20
-9.5625
 11
-11.7827
 21
-9.5625
  0
LINE
  8
0
 10
-37.1199
 20
-9.59373
 11
-37.1505
 21
-9.59172
  0
LINE
  8
0
 10
-37.1505
 20
-9.59172
 11
-37.1895
 21
-9.57988
  0
LINE
  8
0
 10
-37.1895
 20
-9.57988
 11
-37.216
 21
-9.56456
  0
LINE
  8
0
 10
-37.216
 20
-9.56456
 11
-37.2391
 21
-9.54434
  0
LINE
  8
0
 10
-37.2391
 20
-9.54434
 11
-37.2578
 21
-9.52003
  0
LINE
  8
0
 10
-37.2578
 20
-9.52003
 11
-37.2746
 21
-9.48286
  0
LINE
  8
0
 10
-37.2746
 20
-9.48286
 11
-37.2806
 21
-9.4528
  0
LINE
  8
0
 10
-37.2806
 20
-9.4528
 11
-37.2806
 21
-6.17216
  0
LINE
  8
0
 10
-37.2806
 20
-6.17216
 11
-37.2746
 21
-6.14211
  0
LINE
  8
0
 10
-37.2746
 20
-6.14211
 11
-37.2578
 21
-6.10493
  0
LINE
  8
0
 10
-37.2578
 20
-6.10493
 11
-37.2391
 21
-6.08063
  0
LINE
  8
0
 10
-37.2391
 20
-6.08063
 11
-37.216
 21
-6.06041
  0
LINE
  8
0
 10
-37.216
 20
-6.06041
 11
-37.1895
 21
-6.04509
  0
LINE
  8
0
 10
-37.1895
 20
-6.04509
 11
-37.1505
 21
-6.03325
  0
LINE
  8
0
 10
-37.1505
 20
-6.03325
 11
-37.1199
 21
-6.03123
  0
LINE
  8
0
 10
-37.1199
 20
-6.03123
 11
-35.8699
 21
-6.03123
  0
LINE
  8
0
 10
-35.8699
 20
-6.03123
 11
-35.8495
 21
-6.03325
  0
LINE
  8
0
 10
-35.8495
 20
-6.03325
 11
-35.8105
 21
-6.04509
  0
LINE
  8
0
 10
-35.8105
 20
-6.04509
 11
-35.784
 21
-6.06041
  0
LINE
  8
0
 10
-35.784
 20
-6.06041
 11
-35.7609
 21
-6.08063
  0
LINE
  8
0
 10
-35.7609
 20
-6.08063
 11
-35.7422
 21
-6.10493
  0
LINE
  8
0
 10
-35.7422
 20
-6.10493
 11
-35.7254
 21
-6.14211
  0
LINE
  8
0
 10
-35.7254
 20
-6.14211
 11
-35.7188
 21
-6.18237
  0
LINE
  8
0
 10
-35.7188
 20
-6.18237
 11
-35.7188
 21
-9.43236
  0
LINE
  8
0
 10
-35.7188
 20
-9.43236
 11
-35.7208
 21
-9.46294
  0
LINE
  8
0
 10
-35.7208
 20
-9.46294
 11
-35.7326
 21
-9.502
  0
LINE
  8
0
 10
-35.7326
 20
-9.502
 11
-35.7479
 21
-9.52853
  0
LINE
  8
0
 10
-35.7479
 20
-9.52853
 11
-35.7681
 21
-9.55157
  0
LINE
  8
0
 10
-35.7681
 20
-9.55157
 11
-35.7924
 21
-9.57024
  0
LINE
  8
0
 10
-35.7924
 20
-9.57024
 11
-35.8296
 21
-9.58708
  0
LINE
  8
0
 10
-35.8296
 20
-9.58708
 11
-35.8699
 21
-9.59373
  0
LINE
  8
0
 10
-35.8699
 20
-9.59373
 11
-37.1199
 21
-9.59373
  0
LINE
  8
0
 10
-45.6199
 20
-22.0312
 11
-45.6505
 21
-22.0292
  0
LINE
  8
0
 10
-45.6505
 20
-22.0292
 11
-45.6895
 21
-22.0174
  0
LINE
  8
0
 10
-45.6895
 20
-22.0174
 11
-45.716
 21
-22.0021
  0
LINE
  8
0
 10
-45.716
 20
-22.0021
 11
-45.7391
 21
-21.9818
  0
LINE
  8
0
 10
-45.7391
 20
-21.9818
 11
-45.7578
 21
-21.9575
  0
LINE
  8
0
 10
-45.7578
 20
-21.9575
 11
-45.7746
 21
-21.9204
  0
LINE
  8
0
 10
-45.7746
 20
-21.9204
 11
-45.7812
 21
-21.8801
  0
LINE
  8
0
 10
-45.7812
 20
-21.8801
 11
-45.7812
 21
-21.3801
  0
LINE
  8
0
 10
-45.7812
 20
-21.3801
 11
-45.7792
 21
-21.3495
  0
LINE
  8
0
 10
-45.7792
 20
-21.3495
 11
-45.7674
 21
-21.3105
  0
LINE
  8
0
 10
-45.7674
 20
-21.3105
 11
-45.7521
 21
-21.2839
  0
LINE
  8
0
 10
-45.7521
 20
-21.2839
 11
-45.7319
 21
-21.2609
  0
LINE
  8
0
 10
-45.7319
 20
-21.2609
 11
-45.7076
 21
-21.2422
  0
LINE
  8
0
 10
-45.7076
 20
-21.2422
 11
-45.6704
 21
-21.2254
  0
LINE
  8
0
 10
-45.6704
 20
-21.2254
 11
-45.6403
 21
-21.2194
  0
LINE
  8
0
 10
-45.6403
 20
-21.2194
 11
-42.3597
 21
-21.2194
  0
LINE
  8
0
 10
-42.3597
 20
-21.2194
 11
-42.3296
 21
-21.2254
  0
LINE
  8
0
 10
-42.3296
 20
-21.2254
 11
-42.2924
 21
-21.2422
  0
LINE
  8
0
 10
-42.2924
 20
-21.2422
 11
-42.2681
 21
-21.2609
  0
LINE
  8
0
 10
-42.2681
 20
-21.2609
 11
-42.2479
 21
-21.2839
  0
LINE
  8
0
 10
-42.2479
 20
-21.2839
 11
-42.2326
 21
-21.3105
  0
LINE
  8
0
 10
-42.2326
 20
-21.3105
 11
-42.2208
 21
-21.3495
  0
LINE
  8
0
 10
-42.2208
 20
-21.3495
 11
-42.2188
 21
-21.3801
  0
LINE
  8
0
 10
-42.2188
 20
-21.3801
 11
-42.2188
 21
-21.8801
  0
LINE
  8
0
 10
-42.2188
 20
-21.8801
 11
-42.2208
 21
-21.9004
  0
LINE
  8
0
 10
-42.2208
 20
-21.9004
 11
-42.2326
 21
-21.9395
  0
LINE
  8
0
 10
-42.2326
 20
-21.9395
 11
-42.2479
 21
-21.966
  0
LINE
  8
0
 10
-42.2479
 20
-21.966
 11
-42.2681
 21
-21.9891
  0
LINE
  8
0
 10
-42.2681
 20
-21.9891
 11
-42.2924
 21
-22.0077
  0
LINE
  8
0
 10
-42.2924
 20
-22.0077
 11
-42.3296
 21
-22.0246
  0
LINE
  8
0
 10
-42.3296
 20
-22.0246
 11
-42.3699
 21
-22.0312
  0
LINE
  8
0
 10
-42.3699
 20
-22.0312
 11
-45.6199
 21
-22.0312
  0
LINE
  8
0
 10
-38.6199
 20
-22.0312
 11
-38.6505
 21
-22.0292
  0
LINE
  8
0
 10
-38.6505
 20
-22.0292
 11
-38.6895
 21
-22.0174
  0
LINE
  8
0
 10
-38.6895
 20
-22.0174
 11
-38.716
 21
-22.0021
  0
LINE
  8
0
 10
-38.716
 20
-22.0021
 11
-38.7391
 21
-21.9818
  0
LINE
  8
0
 10
-38.7391
 20
-21.9818
 11
-38.7578
 21
-21.9575
  0
LINE
  8
0
 10
-38.7578
 20
-21.9575
 11
-38.7746
 21
-21.9204
  0
LINE
  8
0
 10
-38.7746
 20
-21.9204
 11
-38.7812
 21
-21.8801
  0
LINE
  8
0
 10
-38.7812
 20
-21.8801
 11
-38.7812
 21
-21.3801
  0
LINE
  8
0
 10
-38.7812
 20
-21.3801
 11
-38.7792
 21
-21.3495
  0
LINE
  8
0
 10
-38.7792
 20
-21.3495
 11
-38.7674
 21
-21.3105
  0
LINE
  8
0
 10
-38.7674
 20
-21.3105
 11
-38.7521
 21
-21.2839
  0
LINE
  8
0
 10
-38.7521
 20
-21.2839
 11
-38.7319
 21
-21.2609
  0
LINE
  8
0
 10
-38.7319
 20
-21.2609
 11
-38.7076
 21
-21.2422
  0
LINE
  8
0
 10
-38.7076
 20
-21.2422
 11
-38.6704
 21
-21.2254
  0
LINE
  8
0
 10
-38.6704
 20
-21.2254
 11
-38.6403
 21
-21.2194
  0
LINE
  8
0
 10
-38.6403
 20
-21.2194
 11
-35.3597
 21
-21.2194
  0
LINE
  8
0
 10
-35.3597
 20
-21.2194
 11
-35.3296
 21
-21.2254
  0
LINE
  8
0
 10
-35.3296
 20
-21.2254
 11
-35.2924
 21
-21.2422
  0
LINE
  8
0
 10
-35.2924
 20
-21.2422
 11
-35.2681
 21
-21.2609
  0
LINE
  8
0
 10
-35.2681
 20
-21.2609
 11
-35.2479
 21
-21.2839
  0
LINE
  8
0
 10
-35.2479
 20
-21.2839
 11
-35.2326
 21
-21.3105
  0
LINE
  8
0
 10
-35.2326
 20
-21.3105
 11
-35.2208
 21
-21.3495
  0
LINE
  8
0
 10
-35.2208
 20
-21.3495
 11
-35.2188
 21
-21.3801
  0
LINE
  8
0
 10
-35.2188
 20
-21.3801
 11
-35.2188
 21
-21.8801
  0
LINE
  8
0
 10
-35.2188
 20
-21.8801
 11
-35.2208
 21
-21.9004
  0
LINE
  8
0
 10
-35.2208
 20
-21.9004
 11
-35.2326
 21
-21.9395
  0
LINE
  8
0
 10
-35.2326
 20
-21.9395
 11
-35.2479
 21
-21.966
  0
LINE
  8
0
 10
-35.2479
 20
-21.966
 11
-35.2681
 21
-21.9891
  0
LINE
  8
0
 10
-35.2681
 20
-21.9891
 11
-35.2924
 21
-22.0077
  0
LINE
  8
0
 10
-35.2924
 20
-22.0077
 11
-35.3296
 21
-22.0246
  0
LINE
  8
0
 10
-35.3296
 20
-22.0246
 11
-35.3699
 21
-22.0312
  0
LINE
  8
0
 10
-35.3699
 20
-22.0312
 11
-38.6199
 21
-22.0312
  0
ENDSEC
  0
SECTION
  2
OBJECTS
  0
DICTIONARY
  0
ENDSEC
  0
EOF
