  0
SECTION
  2
BLOCKS
  0
ENDSEC
  0
SECTION
  2
ENTITIES
  0
LINE
  8
0
 10
43.4251
 20
-580.126
 11
49.9344
 21
-575.397
  0
LINE
  8
0
 10
49.9344
 20
-575.397
 11
54.6636
 21
-568.888
  0
LINE
  8
0
 10
54.6636
 20
-568.888
 11
57.15
 21
-561.235
  0
LINE
  8
0
 10
57.15
 20
-561.235
 11
57.15
 21
561.235
  0
LINE
  8
0
 10
57.15
 20
561.235
 11
54.6637
 21
568.888
  0
LINE
  8
0
 10
54.6637
 20
568.888
 11
49.9344
 21
575.397
  0
LINE
  8
0
 10
49.9344
 20
575.397
 11
43.4251
 21
580.126
  0
LINE
  8
0
 10
43.4251
 20
580.126
 11
35.773
 21
582.612
  0
LINE
  8
0
 10
35.773
 20
582.612
 11
-1172.42
 21
582.612
  0
LINE
  8
0
 10
-1172.42
 20
582.612
 11
-1180.08
 21
580.126
  0
LINE
  8
0
 10
-1180.08
 20
580.126
 11
-1186.58
 21
575.397
  0
LINE
  8
0
 10
-1186.58
 20
575.397
 11
-1191.31
 21
568.888
  0
LINE
  8
0
 10
-1191.31
 20
568.888
 11
-1193.8
 21
561.235
  0
LINE
  8
0
 10
-1193.8
 20
561.235
 11
-1193.8
 21
-561.235
  0
LINE
  8
0
 10
-1193.8
 20
-561.235
 11
-1191.31
 21
-568.888
  0
LINE
  8
0
 10
-1191.31
 20
-568.888
 11
-1186.58
 21
-575.397
  0
LINE
  8
0
 10
-1186.58
 20
-575.397
 11
-1180.08
 21
-580.126
  0
LINE
  8
0
 10
-1180.08
 20
-580.126
 11
-1172.42
 21
-582.612
  0
LINE
  8
0
 10
-1172.42
 20
-582.612
 11
35.7729
 21
-582.612
  0
LINE
  8
0
 10
35.7729
 20
-582.612
 11
43.4251
 21
-580.126
  0
LINE
  8
0
 10
-1137.44
 20
532.606
 11
-1137.44
 21
553.244
  0
LINE
  8
0
 10
-1137.44
 20
553.244
 11
-1046.96
 21
553.244
  0
LINE
  8
0
 10
-1046.96
 20
553.244
 11
-1046.96
 21
532.606
  0
LINE
  8
0
 10
-1046.96
 20
532.606
 11
-1137.44
 21
532.606
  0
LINE
  8
0
 10
-959.644
 20
532.606
 11
-959.644
 21
553.244
  0
LINE
  8
0
 10
-959.644
 20
553.244
 11
-869.156
 21
553.244
  0
LINE
  8
0
 10
-869.156
 20
553.244
 11
-869.156
 21
532.606
  0
LINE
  8
0
 10
-869.156
 20
532.606
 11
-959.644
 21
532.606
  0
LINE
  8
0
 10
-261.144
 20
532.606
 11
-261.144
 21
553.244
  0
LINE
  8
0
 10
-261.144
 20
553.244
 11
-170.656
 21
553.244
  0
LINE
  8
0
 10
-170.656
 20
553.244
 11
-170.656
 21
532.606
  0
LINE
  8
0
 10
-170.656
 20
532.606
 11
-261.144
 21
532.606
  0
LINE
  8
0
 10
-83.3438
 20
532.606
 11
-83.3438
 21
553.244
  0
LINE
  8
0
 10
-83.3438
 20
553.244
 11
7.14375
 21
553.244
  0
LINE
  8
0
 10
7.14375
 20
553.244
 11
7.14375
 21
532.606
  0
LINE
  8
0
 10
7.14375
 20
532.606
 11
-83.3438
 21
532.606
  0
LINE
  8
0
 10
-742.21
 20
-291.306
 11
-749.863
 21
-288.82
  0
LINE
  8
0
 10
-749.863
 20
-288.82
 11
-756.372
 21
-284.091
  0
LINE
  8
0
 10
-756.372
 20
-284.091
 11
-761.101
 21
-277.581
  0
LINE
  8
0
 10
-761.101
 20
-277.581
 11
-763.587
 21
-269.929
  0
LINE
  8
0
 10
-763.587
 20
-269.929
 11
-763.587
 21
269.929
  0
LINE
  8
0
 10
-763.587
 20
269.929
 11
-761.101
 21
277.581
  0
LINE
  8
0
 10
-761.101
 20
277.581
 11
-756.372
 21
284.091
  0
LINE
  8
0
 10
-756.372
 20
284.091
 11
-749.863
 21
288.82
  0
LINE
  8
0
 10
-749.863
 20
288.82
 11
-742.21
 21
291.306
  0
LINE
  8
0
 10
-742.21
 20
291.306
 11
-480.165
 21
291.306
  0
LINE
  8
0
 10
-480.165
 20
291.306
 11
-472.512
 21
288.82
  0
LINE
  8
0
 10
-472.512
 20
288.82
 11
-466.003
 21
284.091
  0
LINE
  8
0
 10
-466.003
 20
284.091
 11
-461.274
 21
277.581
  0
LINE
  8
0
 10
-461.274
 20
277.581
 11
-458.788
 21
269.929
  0
LINE
  8
0
 10
-458.788
 20
269.929
 11
-458.788
 21
-269.929
  0
LINE
  8
0
 10
-458.788
 20
-269.929
 11
-461.274
 21
-277.581
  0
LINE
  8
0
 10
-461.274
 20
-277.581
 11
-466.003
 21
-284.091
  0
LINE
  8
0
 10
-466.003
 20
-284.091
 11
-472.512
 21
-288.82
  0
LINE
  8
0
 10
-472.512
 20
-288.82
 11
-480.165
 21
-291.306
  0
LINE
  8
0
 10
-480.165
 20
-291.306
 11
-742.21
 21
-291.306
  0
LINE
  8
0
 10
-921.544
 20
164.306
 11
-921.544
 21
254.794
  0
LINE
  8
0
 10
-921.544
 20
254.794
 11
-881.856
 21
254.794
  0
LINE
  8
0
 10
-881.856
 20
254.794
 11
-881.856
 21
164.306
  0
LINE
  8
0
 10
-881.856
 20
164.306
 11
-921.544
 21
164.306
  0
LINE
  8
0
 10
-45.2438
 20
164.306
 11
-45.2438
 21
254.794
  0
LINE
  8
0
 10
-45.2438
 20
254.794
 11
-5.55626
 21
254.794
  0
LINE
  8
0
 10
-5.55626
 20
254.794
 11
-5.55626
 21
164.306
  0
LINE
  8
0
 10
-5.55626
 20
164.306
 11
-45.2438
 21
164.306
  0
LINE
  8
0
 10
-921.544
 20
-254.794
 11
-921.544
 21
-164.306
  0
LINE
  8
0
 10
-921.544
 20
-164.306
 11
-881.856
 21
-164.306
  0
LINE
  8
0
 10
-881.856
 20
-164.306
 11
-881.856
 21
-254.794
  0
LINE
  8
0
 10
-881.856
 20
-254.794
 11
-921.544
 21
-254.794
  0
LINE
  8
0
 10
-45.2438
 20
-254.794
 11
-45.2438
 21
-164.306
  0
LINE
  8
0
 10
-45.2438
 20
-164.306
 11
-5.55626
 21
-164.306
  0
LINE
  8
0
 10
-5.55626
 20
-164.306
 11
-5.55626
 21
-254.794
  0
LINE
  8
0
 10
-5.55626
 20
-254.794
 11
-45.2438
 21
-254.794
  0
LINE
  8
0
 10
-1137.44
 20
-553.244
 11
-1137.44
 21
-532.606
  0
LINE
  8
0
 10
-1137.44
 20
-532.606
 11
-1046.96
 21
-532.606
  0
LINE
  8
0
 10
-1046.96
 20
-532.606
 11
-1046.96
 21
-553.244
  0
LINE
  8
0
 10
-1046.96
 20
-553.244
 11
-1137.44
 21
-553.244
  0
LINE
  8
0
 10
-959.644
 20
-553.244
 11
-959.644
 21
-532.606
  0
LINE
  8
0
 10
-959.644
 20
-532.606
 11
-869.156
 21
-532.606
  0
LINE
  8
0
 10
-869.156
 20
-532.606
 11
-869.156
 21
-553.244
  0
LINE
  8
0
 10
-869.156
 20
-553.244
 11
-959.644
 21
-553.244
  0
LINE
  8
0
 10
-261.144
 20
-553.244
 11
-261.144
 21
-532.606
  0
LINE
  8
0
 10
-261.144
 20
-532.606
 11
-170.656
 21
-532.606
  0
LINE
  8
0
 10
-170.656
 20
-532.606
 11
-170.656
 21
-553.244
  0
LINE
  8
0
 10
-170.656
 20
-553.244
 11
-261.144
 21
-553.244
  0
LINE
  8
0
 10
-83.3438
 20
-553.244
 11
-83.3438
 21
-532.606
  0
LINE
  8
0
 10
-83.3438
 20
-532.606
 11
7.14373
 21
-532.606
  0
LINE
  8
0
 10
7.14373
 20
-532.606
 11
7.14373
 21
-553.244
  0
LINE
  8
0
 10
7.14373
 20
-553.244
 11
-83.3438
 21
-553.244
  0
LINE
  8
0
 10
319.369
 20
-577.004
 11
322.623
 21
-574.639
  0
LINE
  8
0
 10
322.623
 20
-574.639
 11
324.988
 21
-571.384
  0
LINE
  8
0
 10
324.988
 20
-571.384
 11
326.231
 21
-567.558
  0
LINE
  8
0
 10
326.231
 20
-567.558
 11
326.231
 21
-535.675
  0
LINE
  8
0
 10
326.231
 20
-535.675
 11
326.542
 21
-534.719
  0
LINE
  8
0
 10
326.542
 20
-534.719
 11
327.133
 21
-533.905
  0
LINE
  8
0
 10
327.133
 20
-533.905
 11
327.947
 21
-533.314
  0
LINE
  8
0
 10
327.947
 20
-533.314
 11
328.903
 21
-533.003
  0
LINE
  8
0
 10
328.903
 20
-533.003
 11
749.009
 21
-533.003
  0
LINE
  8
0
 10
749.009
 20
-533.003
 11
749.966
 21
-533.314
  0
LINE
  8
0
 10
749.966
 20
-533.314
 11
750.779
 21
-533.905
  0
LINE
  8
0
 10
750.779
 20
-533.905
 11
751.37
 21
-534.719
  0
LINE
  8
0
 10
751.37
 20
-534.719
 11
751.681
 21
-535.675
  0
LINE
  8
0
 10
751.681
 20
-535.675
 11
751.681
 21
-550.175
  0
LINE
  8
0
 10
751.681
 20
-550.175
 11
751.37
 21
-551.131
  0
LINE
  8
0
 10
751.37
 20
-551.131
 11
750.779
 21
-551.945
  0
LINE
  8
0
 10
750.779
 20
-551.945
 11
749.966
 21
-552.536
  0
LINE
  8
0
 10
749.966
 20
-552.536
 11
749.009
 21
-552.847
  0
LINE
  8
0
 10
749.009
 20
-552.847
 11
736.97
 21
-552.847
  0
LINE
  8
0
 10
736.97
 20
-552.847
 11
733.144
 21
-554.09
  0
LINE
  8
0
 10
733.144
 20
-554.09
 11
729.889
 21
-556.455
  0
LINE
  8
0
 10
729.889
 20
-556.455
 11
727.524
 21
-559.709
  0
LINE
  8
0
 10
727.524
 20
-559.709
 11
726.281
 21
-563.535
  0
LINE
  8
0
 10
726.281
 20
-563.535
 11
726.281
 21
-567.558
  0
LINE
  8
0
 10
726.281
 20
-567.558
 11
727.524
 21
-571.384
  0
LINE
  8
0
 10
727.524
 20
-571.384
 11
729.889
 21
-574.639
  0
LINE
  8
0
 10
729.889
 20
-574.639
 11
733.144
 21
-577.004
  0
LINE
  8
0
 10
733.144
 20
-577.004
 11
736.97
 21
-578.247
  0
LINE
  8
0
 10
736.97
 20
-578.247
 11
804.493
 21
-578.247
  0
LINE
  8
0
 10
804.493
 20
-578.247
 11
808.319
 21
-577.004
  0
LINE
  8
0
 10
808.319
 20
-577.004
 11
811.573
 21
-574.639
  0
LINE
  8
0
 10
811.573
 20
-574.639
 11
813.938
 21
-571.384
  0
LINE
  8
0
 10
813.938
 20
-571.384
 11
815.181
 21
-567.558
  0
LINE
  8
0
 10
815.181
 20
-567.558
 11
815.181
 21
-535.675
  0
LINE
  8
0
 10
815.181
 20
-535.675
 11
815.492
 21
-534.719
  0
LINE
  8
0
 10
815.492
 20
-534.719
 11
816.083
 21
-533.905
  0
LINE
  8
0
 10
816.083
 20
-533.905
 11
816.897
 21
-533.314
  0
LINE
  8
0
 10
816.897
 20
-533.314
 11
817.853
 21
-533.003
  0
LINE
  8
0
 10
817.853
 20
-533.003
 11
1039.81
 21
-533.003
  0
LINE
  8
0
 10
1039.81
 20
-533.003
 11
1039.81
 21
-256.672
  0
LINE
  8
0
 10
1039.81
 20
-256.672
 11
1040.12
 21
-255.716
  0
LINE
  8
0
 10
1040.12
 20
-255.716
 11
1040.71
 21
-254.902
  0
LINE
  8
0
 10
1040.71
 20
-254.902
 11
1041.53
 21
-254.311
  0
LINE
  8
0
 10
1041.53
 20
-254.311
 11
1042.48
 21
-254
  0
LINE
  8
0
 10
1042.48
 20
-254
 11
1055.61
 21
-254
  0
LINE
  8
0
 10
1055.61
 20
-254
 11
1058.48
 21
-253.068
  0
LINE
  8
0
 10
1058.48
 20
-253.068
 11
1060.92
 21
-251.294
  0
LINE
  8
0
 10
1060.92
 20
-251.294
 11
1062.69
 21
-248.853
  0
LINE
  8
0
 10
1062.69
 20
-248.853
 11
1063.62
 21
-245.984
  0
LINE
  8
0
 10
1063.62
 20
-245.984
 11
1063.62
 21
-173.116
  0
LINE
  8
0
 10
1063.62
 20
-173.116
 11
1062.69
 21
-170.247
  0
LINE
  8
0
 10
1062.69
 20
-170.247
 11
1060.92
 21
-167.806
  0
LINE
  8
0
 10
1060.92
 20
-167.806
 11
1058.48
 21
-166.032
  0
LINE
  8
0
 10
1058.48
 20
-166.032
 11
1055.61
 21
-165.1
  0
LINE
  8
0
 10
1055.61
 20
-165.1
 11
1042.48
 21
-165.1
  0
LINE
  8
0
 10
1042.48
 20
-165.1
 11
1041.53
 21
-164.789
  0
LINE
  8
0
 10
1041.53
 20
-164.789
 11
1040.71
 21
-164.198
  0
LINE
  8
0
 10
1040.71
 20
-164.198
 11
1040.12
 21
-163.384
  0
LINE
  8
0
 10
1040.12
 20
-163.384
 11
1039.81
 21
-162.428
  0
LINE
  8
0
 10
1039.81
 20
-162.428
 11
1039.81
 21
162.428
  0
LINE
  8
0
 10
1039.81
 20
162.428
 11
1040.12
 21
163.384
  0
LINE
  8
0
 10
1040.12
 20
163.384
 11
1040.71
 21
164.198
  0
LINE
  8
0
 10
1040.71
 20
164.198
 11
1041.53
 21
164.789
  0
LINE
  8
0
 10
1041.53
 20
164.789
 11
1042.48
 21
165.1
  0
LINE
  8
0
 10
1042.48
 20
165.1
 11
1055.61
 21
165.1
  0
LINE
  8
0
 10
1055.61
 20
165.1
 11
1058.48
 21
166.032
  0
LINE
  8
0
 10
1058.48
 20
166.032
 11
1060.92
 21
167.806
  0
LINE
  8
0
 10
1060.92
 20
167.806
 11
1062.69
 21
170.247
  0
LINE
  8
0
 10
1062.69
 20
170.247
 11
1063.62
 21
173.116
  0
LINE
  8
0
 10
1063.62
 20
173.116
 11
1063.62
 21
245.984
  0
LINE
  8
0
 10
1063.62
 20
245.984
 11
1062.69
 21
248.853
  0
LINE
  8
0
 10
1062.69
 20
248.853
 11
1060.92
 21
251.294
  0
LINE
  8
0
 10
1060.92
 20
251.294
 11
1058.48
 21
253.068
  0
LINE
  8
0
 10
1058.48
 20
253.068
 11
1055.61
 21
254
  0
LINE
  8
0
 10
1055.61
 20
254
 11
1042.48
 21
254
  0
LINE
  8
0
 10
1042.48
 20
254
 11
1041.53
 21
254.311
  0
LINE
  8
0
 10
1041.53
 20
254.311
 11
1040.71
 21
254.902
  0
LINE
  8
0
 10
1040.71
 20
254.902
 11
1040.12
 21
255.716
  0
LINE
  8
0
 10
1040.12
 20
255.716
 11
1039.81
 21
256.672
  0
LINE
  8
0
 10
1039.81
 20
256.672
 11
1039.81
 21
533.003
  0
LINE
  8
0
 10
1039.81
 20
533.003
 11
817.853
 21
533.003
  0
LINE
  8
0
 10
817.853
 20
533.003
 11
816.897
 21
533.314
  0
LINE
  8
0
 10
816.897
 20
533.314
 11
816.083
 21
533.905
  0
LINE
  8
0
 10
816.083
 20
533.905
 11
815.492
 21
534.719
  0
LINE
  8
0
 10
815.492
 20
534.719
 11
815.181
 21
535.675
  0
LINE
  8
0
 10
815.181
 20
535.675
 11
815.181
 21
567.558
  0
LINE
  8
0
 10
815.181
 20
567.558
 11
813.938
 21
571.384
  0
LINE
  8
0
 10
813.938
 20
571.384
 11
811.573
 21
574.639
  0
LINE
  8
0
 10
811.573
 20
574.639
 11
808.319
 21
577.004
  0
LINE
  8
0
 10
808.319
 20
577.004
 11
804.493
 21
578.247
  0
LINE
  8
0
 10
804.493
 20
578.247
 11
736.97
 21
578.247
  0
LINE
  8
0
 10
736.97
 20
578.247
 11
733.144
 21
577.004
  0
LINE
  8
0
 10
733.144
 20
577.004
 11
729.889
 21
574.639
  0
LINE
  8
0
 10
729.889
 20
574.639
 11
727.524
 21
571.384
  0
LINE
  8
0
 10
727.524
 20
571.384
 11
726.281
 21
567.558
  0
LINE
  8
0
 10
726.281
 20
567.558
 11
726.281
 21
563.535
  0
LINE
  8
0
 10
726.281
 20
563.535
 11
727.524
 21
559.709
  0
LINE
  8
0
 10
727.524
 20
559.709
 11
729.889
 21
556.455
  0
LINE
  8
0
 10
729.889
 20
556.455
 11
733.144
 21
554.09
  0
LINE
  8
0
 10
733.144
 20
554.09
 11
736.97
 21
552.847
  0
LINE
  8
0
 10
736.97
 20
552.847
 11
749.009
 21
552.847
  0
LINE
  8
0
 10
749.009
 20
552.847
 11
749.966
 21
552.536
  0
LINE
  8
0
 10
749.966
 20
552.536
 11
750.779
 21
551.945
  0
LINE
  8
0
 10
750.779
 20
551.945
 11
751.37
 21
551.131
  0
LINE
  8
0
 10
751.37
 20
551.131
 11
751.681
 21
550.175
  0
LINE
  8
0
 10
751.681
 20
550.175
 11
751.681
 21
535.675
  0
LINE
  8
0
 10
751.681
 20
535.675
 11
751.37
 21
534.719
  0
LINE
  8
0
 10
751.37
 20
534.719
 11
750.779
 21
533.905
  0
LINE
  8
0
 10
750.779
 20
533.905
 11
749.966
 21
533.314
  0
LINE
  8
0
 10
749.966
 20
533.314
 11
749.009
 21
533.003
  0
LINE
  8
0
 10
749.009
 20
533.003
 11
328.903
 21
533.003
  0
LINE
  8
0
 10
328.903
 20
533.003
 11
327.947
 21
533.314
  0
LINE
  8
0
 10
327.947
 20
533.314
 11
327.133
 21
533.905
  0
LINE
  8
0
 10
327.133
 20
533.905
 11
326.542
 21
534.719
  0
LINE
  8
0
 10
326.542
 20
534.719
 11
326.231
 21
535.675
  0
LINE
  8
0
 10
326.231
 20
535.675
 11
326.231
 21
567.558
  0
LINE
  8
0
 10
326.231
 20
567.558
 11
324.988
 21
571.384
  0
LINE
  8
0
 10
324.988
 20
571.384
 11
322.623
 21
574.639
  0
LINE
  8
0
 10
322.623
 20
574.639
 11
319.369
 21
577.004
  0
LINE
  8
0
 10
319.369
 20
577.004
 11
315.543
 21
578.247
  0
LINE
  8
0
 10
315.543
 20
578.247
 11
248.02
 21
578.247
  0
LINE
  8
0
 10
248.02
 20
578.247
 11
244.194
 21
577.004
  0
LINE
  8
0
 10
244.194
 20
577.004
 11
240.939
 21
574.639
  0
LINE
  8
0
 10
240.939
 20
574.639
 11
238.574
 21
571.384
  0
LINE
  8
0
 10
238.574
 20
571.384
 11
237.331
 21
567.558
  0
LINE
  8
0
 10
237.331
 20
567.558
 11
237.331
 21
563.535
  0
LINE
  8
0
 10
237.331
 20
563.535
 11
238.574
 21
559.709
  0
LINE
  8
0
 10
238.574
 20
559.709
 11
240.939
 21
556.455
  0
LINE
  8
0
 10
240.939
 20
556.455
 11
244.194
 21
554.09
  0
LINE
  8
0
 10
244.194
 20
554.09
 11
248.02
 21
552.847
  0
LINE
  8
0
 10
248.02
 20
552.847
 11
260.059
 21
552.847
  0
LINE
  8
0
 10
260.059
 20
552.847
 11
261.016
 21
552.536
  0
LINE
  8
0
 10
261.016
 20
552.536
 11
261.829
 21
551.945
  0
LINE
  8
0
 10
261.829
 20
551.945
 11
262.42
 21
551.131
  0
LINE
  8
0
 10
262.42
 20
551.131
 11
262.731
 21
550.175
  0
LINE
  8
0
 10
262.731
 20
550.175
 11
262.731
 21
535.675
  0
LINE
  8
0
 10
262.731
 20
535.675
 11
262.42
 21
534.719
  0
LINE
  8
0
 10
262.42
 20
534.719
 11
261.829
 21
533.905
  0
LINE
  8
0
 10
261.829
 20
533.905
 11
261.016
 21
533.314
  0
LINE
  8
0
 10
261.016
 20
533.314
 11
260.059
 21
533.003
  0
LINE
  8
0
 10
260.059
 20
533.003
 11
63.5
 21
533.003
  0
LINE
  8
0
 10
63.5
 20
533.003
 11
63.5
 21
-533.003
  0
LINE
  8
0
 10
63.5
 20
-533.003
 11
260.059
 21
-533.003
  0
LINE
  8
0
 10
260.059
 20
-533.003
 11
261.016
 21
-533.314
  0
LINE
  8
0
 10
261.016
 20
-533.314
 11
261.829
 21
-533.905
  0
LINE
  8
0
 10
261.829
 20
-533.905
 11
262.42
 21
-534.719
  0
LINE
  8
0
 10
262.42
 20
-534.719
 11
262.731
 21
-535.675
  0
LINE
  8
0
 10
262.731
 20
-535.675
 11
262.731
 21
-550.175
  0
LINE
  8
0
 10
262.731
 20
-550.175
 11
262.42
 21
-551.131
  0
LINE
  8
0
 10
262.42
 20
-551.131
 11
261.829
 21
-551.945
  0
LINE
  8
0
 10
261.829
 20
-551.945
 11
261.016
 21
-552.536
  0
LINE
  8
0
 10
261.016
 20
-552.536
 11
260.059
 21
-552.847
  0
LINE
  8
0
 10
260.059
 20
-552.847
 11
248.02
 21
-552.847
  0
LINE
  8
0
 10
248.02
 20
-552.847
 11
244.194
 21
-554.09
  0
LINE
  8
0
 10
244.194
 20
-554.09
 11
240.939
 21
-556.455
  0
LINE
  8
0
 10
240.939
 20
-556.455
 11
238.574
 21
-559.709
  0
LINE
  8
0
 10
238.574
 20
-559.709
 11
237.331
 21
-563.535
  0
LINE
  8
0
 10
237.331
 20
-563.535
 11
237.331
 21
-567.558
  0
LINE
  8
0
 10
237.331
 20
-567.558
 11
238.574
 21
-571.384
  0
LINE
  8
0
 10
238.574
 20
-571.384
 11
240.939
 21
-574.639
  0
LINE
  8
0
 10
240.939
 20
-574.639
 11
244.194
 21
-577.004
  0
LINE
  8
0
 10
244.194
 20
-577.004
 11
248.02
 21
-578.247
  0
LINE
  8
0
 10
248.02
 20
-578.247
 11
315.543
 21
-578.247
  0
LINE
  8
0
 10
315.543
 20
-578.247
 11
319.369
 21
-577.004
  0
ENDSEC
  0
SECTION
  2
OBJECTS
  0
DICTIONARY
  0
ENDSEC
  0
EOF
