solid OpenSCAD_Model
  facet normal 0 0 1
    outer loop
      vertex -30 -24.3491 30
      vertex -30 -52.0325 30
      vertex -20 -52.0325 30
    endloop
  endfacet
  facet normal 0 0 1
    outer loop
      vertex 12.7718 -23.0385 30
      vertex -30 -24.3491 30
      vertex -20 -36.0571 30
    endloop
  endfacet
  facet normal 0 0 1
    outer loop
      vertex -20 -36.0571 30
      vertex -30 -24.3491 30
      vertex -20 -52.0325 30
    endloop
  endfacet
  facet normal 0 0 1
    outer loop
      vertex 20.05 -20.9219 30
      vertex -30 -24.3491 30
      vertex 12.7718 -23.0385 30
    endloop
  endfacet
  facet normal 0 0 1
    outer loop
      vertex 30 -8.13803 30
      vertex -30 -24.3491 30
      vertex 20.05 -20.9219 30
    endloop
  endfacet
  facet normal 0 0 1
    outer loop
      vertex 30 -8.13803 30
      vertex 20.05 -20.9219 30
      vertex 30 -20.9219 30
    endloop
  endfacet
  facet normal 0 0 1
    outer loop
      vertex 20 -8.13803 30
      vertex -30 -24.3491 30
      vertex 30 -8.13803 30
    endloop
  endfacet
  facet normal 0 0 1
    outer loop
      vertex -1.57661 -15.0414 30
      vertex -30 -24.3491 30
      vertex 20 -8.13803 30
    endloop
  endfacet
  facet normal 0 0 1
    outer loop
      vertex -13.1175 -18.8207 30
      vertex -30 -24.3491 30
      vertex -1.57661 -15.0414 30
    endloop
  endfacet
  facet normal 0 -1 0
    outer loop
      vertex -20 -52.0325 30
      vertex -30 -52.0325 30
      vertex -30 -52.0325 -30
    endloop
  endfacet
  facet normal 0 -1 0
    outer loop
      vertex -20 -52.0325 -30
      vertex -20 -52.0325 30
      vertex -30 -52.0325 -30
    endloop
  endfacet
  facet normal -1 0 -2.22045e-16
    outer loop
      vertex -30 -52.0325 30
      vertex -30 -24.3491 30
      vertex -30 -52.0325 -30
    endloop
  endfacet
  facet normal -1 0 -2.22045e-16
    outer loop
      vertex -30 -52.0325 -30
      vertex -30 -24.3491 30
      vertex -30 -22.5593 27.2648
    endloop
  endfacet
  facet normal -1 0 -2.22045e-16
    outer loop
      vertex -30 -52.0325 -30
      vertex -30 -22.5593 27.2648
      vertex -30 -20.9104 24.4034
    endloop
  endfacet
  facet normal -1 0 -2.22045e-16
    outer loop
      vertex -30 -52.0325 -30
      vertex -30 -20.9104 24.4034
      vertex -30 -19.446 21.4832
    endloop
  endfacet
  facet normal -1 0 -2.22045e-16
    outer loop
      vertex -30 -52.0325 -30
      vertex -30 -19.446 21.4832
      vertex -30 -18.1697 18.5112
    endloop
  endfacet
  facet normal -1 0 -2.22045e-16
    outer loop
      vertex -30 -52.0325 -30
      vertex -30 -18.1697 18.5112
      vertex -30 -17.0844 15.4947
    endloop
  endfacet
  facet normal -1 0 -2.22045e-16
    outer loop
      vertex -30 -26.0355 2.5
      vertex -30 -17.0844 15.4947
      vertex -30 -16.1929 12.4408
    endloop
  endfacet
  facet normal -1 0 -2.22045e-16
    outer loop
      vertex -30 -23.9645 2.5
      vertex -30 -16.1929 12.4408
      vertex -30 -15.4973 9.35689
    endloop
  endfacet
  facet normal -1 0 -2.22045e-16
    outer loop
      vertex -30 -22.5 1.03553
      vertex -30 -15.4973 9.35689
      vertex -30 -14.9992 6.25047
    endloop
  endfacet
  facet normal -1 0 -2.22045e-16
    outer loop
      vertex -30 -52.0325 -30
      vertex -30 -14.9992 6.25047
      vertex -30 -14.6999 3.12901
    endloop
  endfacet
  facet normal -1 0 -2.22045e-16
    outer loop
      vertex -30 -52.0325 -30
      vertex -30 -14.6999 3.12901
      vertex -30 -14.6 -6.66134e-15
    endloop
  endfacet
  facet normal -1 0 -2.22045e-16
    outer loop
      vertex -30 -52.0325 -30
      vertex -30 -14.6 -6.66134e-15
      vertex -30 -14.6999 -3.12901
    endloop
  endfacet
  facet normal -1 0 -2.22045e-16
    outer loop
      vertex -30 -52.0325 -30
      vertex -30 -14.6999 -3.12901
      vertex -30 -14.9992 -6.25048
    endloop
  endfacet
  facet normal -1 0 -2.22045e-16
    outer loop
      vertex -30 -52.0325 -30
      vertex -30 -14.9992 -6.25048
      vertex -30 -15.4973 -9.35689
    endloop
  endfacet
  facet normal -1 0 -2.22045e-16
    outer loop
      vertex -30 -52.0325 -30
      vertex -30 -15.4973 -9.35689
      vertex -30 -16.1929 -12.4408
    endloop
  endfacet
  facet normal -1 0 -2.22045e-16
    outer loop
      vertex -30 -52.0325 -30
      vertex -30 -16.1929 -12.4408
      vertex -30 -17.0844 -15.4947
    endloop
  endfacet
  facet normal -1 0 -2.22045e-16
    outer loop
      vertex -30 -52.0325 -30
      vertex -30 -17.0844 -15.4947
      vertex -30 -18.1697 -18.5112
    endloop
  endfacet
  facet normal -1 0 -2.22045e-16
    outer loop
      vertex -30 -52.0325 -30
      vertex -30 -18.1697 -18.5112
      vertex -30 -19.446 -21.4832
    endloop
  endfacet
  facet normal -1 0 -2.22045e-16
    outer loop
      vertex -30 -52.0325 -30
      vertex -30 -19.446 -21.4832
      vertex -30 -20.9104 -24.4034
    endloop
  endfacet
  facet normal -1 0 -2.22045e-16
    outer loop
      vertex -30 -52.0325 -30
      vertex -30 -20.9104 -24.4034
      vertex -30 -22.5593 -27.2648
    endloop
  endfacet
  facet normal -1 0 -2.22045e-16
    outer loop
      vertex -30 -52.0325 -30
      vertex -30 -22.5593 -27.2648
      vertex -30 -24.3491 -30
    endloop
  endfacet
  facet normal -1 0 -2.22045e-16
    outer loop
      vertex -30 -26.0355 2.5
      vertex -30 -16.1929 12.4408
      vertex -30 -23.9645 2.5
    endloop
  endfacet
  facet normal -1 0 -2.22045e-16
    outer loop
      vertex -30 -27.5 1.03553
      vertex -30 -17.0844 15.4947
      vertex -30 -26.0355 2.5
    endloop
  endfacet
  facet normal -1 0 -2.22045e-16
    outer loop
      vertex -30 -27.5 -1.03553
      vertex -30 -52.0325 -30
      vertex -30 -27.5 1.03553
    endloop
  endfacet
  facet normal -1 0 -2.22045e-16
    outer loop
      vertex -30 -52.0325 -30
      vertex -30 -17.0844 15.4947
      vertex -30 -27.5 1.03553
    endloop
  endfacet
  facet normal -1 0 -2.22045e-16
    outer loop
      vertex -30 -26.0355 -2.5
      vertex -30 -52.0325 -30
      vertex -30 -27.5 -1.03553
    endloop
  endfacet
  facet normal -1 0 -2.22045e-16
    outer loop
      vertex -30 -52.0325 -30
      vertex -30 -26.0355 -2.5
      vertex -30 -23.9645 -2.5
    endloop
  endfacet
  facet normal -1 0 -2.22045e-16
    outer loop
      vertex -30 -52.0325 -30
      vertex -30 -23.9645 -2.5
      vertex -30 -14.9992 6.25047
    endloop
  endfacet
  facet normal -1 0 -2.22045e-16
    outer loop
      vertex -30 -23.9645 -2.5
      vertex -30 -22.5 -1.03553
      vertex -30 -14.9992 6.25047
    endloop
  endfacet
  facet normal -1 0 -2.22045e-16
    outer loop
      vertex -30 -23.9645 2.5
      vertex -30 -15.4973 9.35689
      vertex -30 -22.5 1.03553
    endloop
  endfacet
  facet normal -1 0 -2.22045e-16
    outer loop
      vertex -30 -22.5 1.03553
      vertex -30 -14.9992 6.25047
      vertex -30 -22.5 -1.03553
    endloop
  endfacet
  facet normal -0.264272 0.807022 0.528087
    outer loop
      vertex -30 -22.5593 27.2648
      vertex -30 -24.3491 30
      vertex -13.1175 -18.8207 30
    endloop
  endfacet
  facet normal -0.264272 0.807022 0.528087
    outer loop
      vertex -1.57661 -15.0414 30
      vertex -30 -22.5593 27.2648
      vertex -13.1175 -18.8207 30
    endloop
  endfacet
  facet normal -0.267141 0.834949 0.48114
    outer loop
      vertex -30 -22.5593 27.2648
      vertex -1.57661 -15.0414 30
      vertex 20 -7.39461 28.7099
    endloop
  endfacet
  facet normal -0.267141 0.834949 0.48114
    outer loop
      vertex 20 -7.39461 28.7099
      vertex -1.57661 -15.0414 30
      vertex 20 -8.13803 30
    endloop
  endfacet
  facet normal -1.10864e-16 0.866438 0.499285
    outer loop
      vertex 20 -8.13803 30
      vertex 30 -8.13803 30
      vertex 20 -7.39461 28.7099
    endloop
  endfacet
  facet normal -1.10864e-16 0.866438 0.499285
    outer loop
      vertex 20 -7.39461 28.7099
      vertex 30 -8.13803 30
      vertex 30 -7.39461 28.7099
    endloop
  endfacet
  facet normal 1 0 2.22045e-16
    outer loop
      vertex 30 -8.13803 30
      vertex 30 -20.9219 30
      vertex 30 -12.8834 6.66134e-15
    endloop
  endfacet
  facet normal 1 0 2.22045e-16
    outer loop
      vertex 30 -8.13803 -30
      vertex 30 -8.13803 30
      vertex 30 -12.8834 6.66134e-15
    endloop
  endfacet
  facet normal 1 0 2.22045e-16
    outer loop
      vertex 30 -20.9219 -30
      vertex 30 -8.13803 -30
      vertex 30 -12.8834 6.66134e-15
    endloop
  endfacet
  facet normal 1 0 2.22045e-16
    outer loop
      vertex 30 -8.13803 -30
      vertex 30 -7.39461 -28.7099
      vertex 30 -8.13803 30
    endloop
  endfacet
  facet normal 1 0 2.22045e-16
    outer loop
      vertex 30 -7.39461 -28.7099
      vertex 30 -5.6718 -25.2744
      vertex 30 -8.13803 30
    endloop
  endfacet
  facet normal 1 0 2.22045e-16
    outer loop
      vertex 30 -5.6718 -25.2744
      vertex 30 -4.17021 -21.7779
      vertex 30 -8.13803 30
    endloop
  endfacet
  facet normal 1 0 2.22045e-16
    outer loop
      vertex 30 -4.17021 -21.7779
      vertex 30 -2.89346 -18.229
      vertex 30 -8.13803 30
    endloop
  endfacet
  facet normal 1 0 2.22045e-16
    outer loop
      vertex 30 -2.89346 -18.229
      vertex 30 -1.84463 -14.6362
      vertex 30 -8.13803 30
    endloop
  endfacet
  facet normal 1 0 2.22045e-16
    outer loop
      vertex 30 -1.84463 -14.6362
      vertex 30 -1.02623 -11.0081
      vertex 30 -8.13803 30
    endloop
  endfacet
  facet normal 1 0 2.22045e-16
    outer loop
      vertex 30 -1.02623 -11.0081
      vertex 30 -0.440257 -7.3535
      vertex 30 -8.13803 30
    endloop
  endfacet
  facet normal 1 0 2.22045e-16
    outer loop
      vertex 30 -0.440257 -7.3535
      vertex 30 -0.0881049 -3.68118
      vertex 30 -8.13803 30
    endloop
  endfacet
  facet normal 1 0 2.22045e-16
    outer loop
      vertex 30 -0.0881049 -3.68118
      vertex 30 0.0293735 6.66134e-15
      vertex 30 -8.13803 30
    endloop
  endfacet
  facet normal 1 0 2.22045e-16
    outer loop
      vertex 30 0.0293735 6.66134e-15
      vertex 30 -0.0881049 3.68118
      vertex 30 -8.13803 30
    endloop
  endfacet
  facet normal 1 0 2.22045e-16
    outer loop
      vertex 30 -0.0881049 3.68118
      vertex 30 -0.440257 7.3535
      vertex 30 -8.13803 30
    endloop
  endfacet
  facet normal 1 0 2.22045e-16
    outer loop
      vertex 30 -0.440257 7.3535
      vertex 30 -1.02623 11.0081
      vertex 30 -8.13803 30
    endloop
  endfacet
  facet normal 1 0 2.22045e-16
    outer loop
      vertex 30 -1.02623 11.0081
      vertex 30 -1.84463 14.6362
      vertex 30 -8.13803 30
    endloop
  endfacet
  facet normal 1 0 2.22045e-16
    outer loop
      vertex 30 -1.84463 14.6362
      vertex 30 -2.89346 18.229
      vertex 30 -8.13803 30
    endloop
  endfacet
  facet normal 1 0 2.22045e-16
    outer loop
      vertex 30 -2.89346 18.229
      vertex 30 -4.17021 21.7779
      vertex 30 -8.13803 30
    endloop
  endfacet
  facet normal 1 0 2.22045e-16
    outer loop
      vertex 30 -4.17021 21.7779
      vertex 30 -5.6718 25.2744
      vertex 30 -8.13803 30
    endloop
  endfacet
  facet normal 1 0 2.22045e-16
    outer loop
      vertex 30 -5.6718 25.2744
      vertex 30 -7.39461 28.7099
      vertex 30 -8.13803 30
    endloop
  endfacet
  facet normal 5.74694e-17 -0.965926 -0.258819
    outer loop
      vertex 20.05 -12.8834 4.45199e-15
      vertex 30 -12.8834 6.66134e-15
      vertex 30 -20.9219 30
    endloop
  endfacet
  facet normal 5.74694e-17 -0.965926 -0.258819
    outer loop
      vertex 20.05 -20.9219 30
      vertex 20.05 -12.8834 4.45199e-15
      vertex 30 -20.9219 30
    endloop
  endfacet
  facet normal 0.270432 -0.929934 -0.249175
    outer loop
      vertex 20.05 -12.8834 4.45199e-15
      vertex 20.05 -20.9219 30
      vertex 12.7718 -23.0385 30
    endloop
  endfacet
  facet normal 0.270432 -0.929934 -0.249175
    outer loop
      vertex -20 -31.2919 25.2349
      vertex 20.05 -12.8834 4.45199e-15
      vertex 12.7718 -23.0385 30
    endloop
  endfacet
  facet normal 0.270432 -0.680759 -0.680759
    outer loop
      vertex -20 -31.2919 25.2349
      vertex 12.7718 -23.0385 30
      vertex -20 -36.0571 30
    endloop
  endfacet
  facet normal 1 0 2.22045e-16
    outer loop
      vertex -20 -52.0325 -30
      vertex -20 -36.0571 -30
      vertex -20 -31.2919 -25.2349
    endloop
  endfacet
  facet normal 1 0 2.22045e-16
    outer loop
      vertex -20 -27.0711 -5
      vertex -20 -52.0325 -30
      vertex -20 -25.87 -5
    endloop
  endfacet
  facet normal 1 0 2.22045e-16
    outer loop
      vertex -20 -25.87 -5
      vertex -20 -52.0325 -30
      vertex -20 -31.2919 -25.2349
    endloop
  endfacet
  facet normal 1 0 2.22045e-16
    outer loop
      vertex -20 -30 -2.07107
      vertex -20 -52.0325 -30
      vertex -20 -27.0711 -5
    endloop
  endfacet
  facet normal 1 0 2.22045e-16
    outer loop
      vertex -20 -30 2.07107
      vertex -20 -52.0325 -30
      vertex -20 -30 -2.07107
    endloop
  endfacet
  facet normal 1 0 2.22045e-16
    outer loop
      vertex -20 -31.2919 25.2349
      vertex -20 -52.0325 -30
      vertex -20 -30 2.07107
    endloop
  endfacet
  facet normal 1 0 2.22045e-16
    outer loop
      vertex -20 -31.2919 25.2349
      vertex -20 -30 2.07107
      vertex -20 -27.0711 5
    endloop
  endfacet
  facet normal 1 0 2.22045e-16
    outer loop
      vertex -20 -31.2919 25.2349
      vertex -20 -27.0711 5
      vertex -20 -25.87 5
    endloop
  endfacet
  facet normal 1 0 2.22045e-16
    outer loop
      vertex -20 -36.0571 30
      vertex -20 -52.0325 -30
      vertex -20 -31.2919 25.2349
    endloop
  endfacet
  facet normal 1 0 2.22045e-16
    outer loop
      vertex -20 -52.0325 30
      vertex -20 -52.0325 -30
      vertex -20 -36.0571 30
    endloop
  endfacet
  facet normal 0 0 -1
    outer loop
      vertex -30 -52.0325 -30
      vertex -30 -24.3491 -30
      vertex -20 -52.0325 -30
    endloop
  endfacet
  facet normal 0 0 -1
    outer loop
      vertex -20 -36.0571 -30
      vertex -30 -24.3491 -30
      vertex -13.1175 -18.8207 -30
    endloop
  endfacet
  facet normal 0 0 -1
    outer loop
      vertex 12.7718 -23.0385 -30
      vertex 20 -8.13803 -30
      vertex 30 -8.13803 -30
    endloop
  endfacet
  facet normal 0 0 -1
    outer loop
      vertex 20.05 -20.9219 -30
      vertex 30 -8.13803 -30
      vertex 30 -20.9219 -30
    endloop
  endfacet
  facet normal 0 0 -1
    outer loop
      vertex -20 -36.0571 -30
      vertex -1.57661 -15.0414 -30
      vertex 20 -8.13803 -30
    endloop
  endfacet
  facet normal 0 0 -1
    outer loop
      vertex -20 -36.0571 -30
      vertex -13.1175 -18.8207 -30
      vertex -1.57661 -15.0414 -30
    endloop
  endfacet
  facet normal 0 0 -1
    outer loop
      vertex -20 -52.0325 -30
      vertex -30 -24.3491 -30
      vertex -20 -36.0571 -30
    endloop
  endfacet
  facet normal 0 0 -1
    outer loop
      vertex 12.7718 -23.0385 -30
      vertex 30 -8.13803 -30
      vertex 20.05 -20.9219 -30
    endloop
  endfacet
  facet normal 0 0 -1
    outer loop
      vertex -20 -36.0571 -30
      vertex 20 -8.13803 -30
      vertex 12.7718 -23.0385 -30
    endloop
  endfacet
  facet normal -0.264272 0.807022 -0.528087
    outer loop
      vertex -30 -24.3491 -30
      vertex -30 -22.5593 -27.2648
      vertex -13.1175 -18.8207 -30
    endloop
  endfacet
  facet normal -0.264272 0.807022 -0.528087
    outer loop
      vertex -13.1175 -18.8207 -30
      vertex -30 -22.5593 -27.2648
      vertex -1.57661 -15.0414 -30
    endloop
  endfacet
  facet normal -0.267141 0.834949 -0.48114
    outer loop
      vertex -30 -22.5593 -27.2648
      vertex 20 -7.39461 -28.7099
      vertex -1.57661 -15.0414 -30
    endloop
  endfacet
  facet normal -0.267141 0.834949 -0.48114
    outer loop
      vertex -1.57661 -15.0414 -30
      vertex 20 -7.39461 -28.7099
      vertex 20 -8.13803 -30
    endloop
  endfacet
  facet normal -0.267141 0.834949 -0.48114
    outer loop
      vertex -30 -22.5593 -27.2648
      vertex -30 -20.9104 -24.4034
      vertex 20 -7.39461 -28.7099
    endloop
  endfacet
  facet normal -0.269849 0.860741 -0.431632
    outer loop
      vertex -30 -20.9104 -24.4034
      vertex -30 -19.446 -21.4832
      vertex 20 -7.39461 -28.7099
    endloop
  endfacet
  facet normal -0.269849 0.860741 -0.431632
    outer loop
      vertex 20 -7.39461 -28.7099
      vertex -30 -19.446 -21.4832
      vertex 20 -5.6718 -25.2744
    endloop
  endfacet
  facet normal -0.272349 0.884114 -0.379694
    outer loop
      vertex 20 -5.6718 -25.2744
      vertex -30 -19.446 -21.4832
      vertex 20 -4.17021 -21.7779
    endloop
  endfacet
  facet normal -0.27235 0.884115 -0.379693
    outer loop
      vertex -30 -19.446 -21.4832
      vertex -30 -18.1697 -18.5112
      vertex 20 -4.17021 -21.7779
    endloop
  endfacet
  facet normal -0.274598 0.904789 -0.325506
    outer loop
      vertex -30 -18.1697 -18.5112
      vertex -30 -17.0844 -15.4947
      vertex 20 -4.17021 -21.7779
    endloop
  endfacet
  facet normal -0.274598 0.904789 -0.325505
    outer loop
      vertex 20 -4.17021 -21.7779
      vertex -30 -17.0844 -15.4947
      vertex 20 -2.89346 -18.229
    endloop
  endfacet
  facet normal -0.27655 0.922496 -0.269299
    outer loop
      vertex -30 -17.0844 -15.4947
      vertex -30 -16.1929 -12.4408
      vertex 20 -2.89346 -18.229
    endloop
  endfacet
  facet normal -0.278165 0.936991 -0.211358
    outer loop
      vertex -30 -16.1929 -12.4408
      vertex -30 -15.4973 -9.35689
      vertex 20 -1.02623 -11.0081
    endloop
  endfacet
  facet normal -0.27655 0.922496 -0.269299
    outer loop
      vertex 20 -2.89346 -18.229
      vertex -30 -16.1929 -12.4408
      vertex 20 -1.84463 -14.6362
    endloop
  endfacet
  facet normal -0.278165 0.936991 -0.211358
    outer loop
      vertex 20 -1.84463 -14.6362
      vertex -30 -16.1929 -12.4408
      vertex 20 -1.02623 -11.0081
    endloop
  endfacet
  facet normal -0.27941 0.948063 -0.152012
    outer loop
      vertex 20 -1.02623 -11.0081
      vertex -30 -15.4973 -9.35689
      vertex 20 -0.440257 -7.3535
    endloop
  endfacet
  facet normal -0.27941 0.948063 -0.152012
    outer loop
      vertex -30 -15.4973 -9.35689
      vertex -30 -14.9992 -6.25048
      vertex 20 -0.440257 -7.3535
    endloop
  endfacet
  facet normal -0.280255 0.955542 -0.0916304
    outer loop
      vertex -30 -14.9992 -6.25048
      vertex -30 -14.6999 -3.12901
      vertex 20 -0.0881049 -3.68118
    endloop
  endfacet
  facet normal -0.280255 0.955542 -0.0916304
    outer loop
      vertex 20 -0.440257 -7.3535
      vertex -30 -14.9992 -6.25048
      vertex 20 -0.0881049 -3.68118
    endloop
  endfacet
  facet normal -0.280683 0.959312 -0.0306148
    outer loop
      vertex -30 -14.6999 -3.12901
      vertex -30 -14.6 -6.66134e-15
      vertex 20 -0.0881049 -3.68118
    endloop
  endfacet
  facet normal -0.280683 0.959312 -0.0306147
    outer loop
      vertex 20 -0.0881049 -3.68118
      vertex -30 -14.6 -6.66134e-15
      vertex 20 0.0293735 4.44089e-15
    endloop
  endfacet
  facet normal -0.280683 0.959312 0.0306147
    outer loop
      vertex 20 0.0293735 4.44089e-15
      vertex -30 -14.6 -6.66134e-15
      vertex 20 -0.0881049 3.68118
    endloop
  endfacet
  facet normal -0.280683 0.959312 0.0306148
    outer loop
      vertex -30 -14.6 -6.66134e-15
      vertex -30 -14.6999 3.12901
      vertex 20 -0.0881049 3.68118
    endloop
  endfacet
  facet normal -0.280255 0.955542 0.0916304
    outer loop
      vertex -30 -14.6999 3.12901
      vertex -30 -14.9992 6.25047
      vertex 20 -0.0881049 3.68118
    endloop
  endfacet
  facet normal -0.280255 0.955542 0.0916304
    outer loop
      vertex 20 -0.0881049 3.68118
      vertex -30 -14.9992 6.25047
      vertex 20 -0.440257 7.3535
    endloop
  endfacet
  facet normal -0.27941 0.948063 0.152012
    outer loop
      vertex -30 -14.9992 6.25047
      vertex -30 -15.4973 9.35689
      vertex 20 -0.440257 7.3535
    endloop
  endfacet
  facet normal -0.27941 0.948063 0.152012
    outer loop
      vertex 20 -0.440257 7.3535
      vertex -30 -15.4973 9.35689
      vertex 20 -1.02623 11.0081
    endloop
  endfacet
  facet normal -0.278165 0.936991 0.211358
    outer loop
      vertex -30 -15.4973 9.35689
      vertex -30 -16.1929 12.4408
      vertex 20 -1.02623 11.0081
    endloop
  endfacet
  facet normal -0.278165 0.936991 0.211358
    outer loop
      vertex 20 -1.02623 11.0081
      vertex -30 -16.1929 12.4408
      vertex 20 -1.84463 14.6362
    endloop
  endfacet
  facet normal -0.27655 0.922496 0.269299
    outer loop
      vertex 20 -1.84463 14.6362
      vertex -30 -16.1929 12.4408
      vertex 20 -2.89346 18.229
    endloop
  endfacet
  facet normal -0.27655 0.922496 0.269299
    outer loop
      vertex -30 -16.1929 12.4408
      vertex -30 -17.0844 15.4947
      vertex 20 -2.89346 18.229
    endloop
  endfacet
  facet normal -0.274598 0.904789 0.325505
    outer loop
      vertex 20 -2.89346 18.229
      vertex -30 -17.0844 15.4947
      vertex 20 -4.17021 21.7779
    endloop
  endfacet
  facet normal -0.274598 0.904789 0.325506
    outer loop
      vertex -30 -17.0844 15.4947
      vertex -30 -18.1697 18.5112
      vertex 20 -4.17021 21.7779
    endloop
  endfacet
  facet normal -0.27235 0.884115 0.379693
    outer loop
      vertex -30 -18.1697 18.5112
      vertex -30 -19.446 21.4832
      vertex 20 -4.17021 21.7779
    endloop
  endfacet
  facet normal -0.272349 0.884114 0.379694
    outer loop
      vertex 20 -4.17021 21.7779
      vertex -30 -19.446 21.4832
      vertex 20 -5.6718 25.2744
    endloop
  endfacet
  facet normal -0.269849 0.860741 0.431632
    outer loop
      vertex 20 -5.6718 25.2744
      vertex -30 -19.446 21.4832
      vertex 20 -7.39461 28.7099
    endloop
  endfacet
  facet normal -0.269849 0.860741 0.431632
    outer loop
      vertex -30 -19.446 21.4832
      vertex -30 -20.9104 24.4034
      vertex 20 -7.39461 28.7099
    endloop
  endfacet
  facet normal -0.267141 0.834949 0.48114
    outer loop
      vertex -30 -20.9104 24.4034
      vertex -30 -22.5593 27.2648
      vertex 20 -7.39461 28.7099
    endloop
  endfacet
  facet normal 1.57009e-16 -0.707107 -0.707107
    outer loop
      vertex -20 -22.5 1.03553
      vertex -20 -23.9645 2.5
      vertex -30 -22.5 1.03553
    endloop
  endfacet
  facet normal 1.57009e-16 -0.707107 -0.707107
    outer loop
      vertex -30 -22.5 1.03553
      vertex -20 -23.9645 2.5
      vertex -30 -23.9645 2.5
    endloop
  endfacet
  facet normal 2.22045e-16 -3.24808e-07 -1
    outer loop
      vertex -20 -23.9645 2.5
      vertex -20 -26.0355 2.5
      vertex -30 -23.9645 2.5
    endloop
  endfacet
  facet normal 2.22045e-16 -3.24808e-07 -1
    outer loop
      vertex -30 -23.9645 2.5
      vertex -20 -26.0355 2.5
      vertex -30 -26.0355 2.5
    endloop
  endfacet
  facet normal -7.21219e-23 -1 3.24808e-07
    outer loop
      vertex -30 -22.5 -1.03553
      vertex -20 -22.5 -1.03553
      vertex -20 -22.5 1.03553
    endloop
  endfacet
  facet normal -7.21219e-23 -1 3.24808e-07
    outer loop
      vertex -30 -22.5 1.03553
      vertex -30 -22.5 -1.03553
      vertex -20 -22.5 1.03553
    endloop
  endfacet
  facet normal -1.57009e-16 -0.707107 0.707107
    outer loop
      vertex -30 -23.9645 -2.5
      vertex -20 -23.9645 -2.5
      vertex -20 -22.5 -1.03553
    endloop
  endfacet
  facet normal -1.57009e-16 -0.707107 0.707107
    outer loop
      vertex -30 -22.5 -1.03553
      vertex -30 -23.9645 -2.5
      vertex -20 -22.5 -1.03553
    endloop
  endfacet
  facet normal -2.22045e-16 3.24808e-07 1
    outer loop
      vertex -20 -26.0355 -2.5
      vertex -20 -23.9645 -2.5
      vertex -30 -23.9645 -2.5
    endloop
  endfacet
  facet normal -2.22045e-16 3.24808e-07 1
    outer loop
      vertex -30 -26.0355 -2.5
      vertex -20 -26.0355 -2.5
      vertex -30 -23.9645 -2.5
    endloop
  endfacet
  facet normal -1.57009e-16 0.707107 0.707107
    outer loop
      vertex -20 -27.5 -1.03553
      vertex -20 -26.0355 -2.5
      vertex -30 -26.0355 -2.5
    endloop
  endfacet
  facet normal -1.57009e-16 0.707107 0.707107
    outer loop
      vertex -30 -27.5 -1.03553
      vertex -20 -27.5 -1.03553
      vertex -30 -26.0355 -2.5
    endloop
  endfacet
  facet normal 7.21219e-23 1 -3.24808e-07
    outer loop
      vertex -20 -27.5 -1.03553
      vertex -30 -27.5 -1.03553
      vertex -20 -27.5 1.03553
    endloop
  endfacet
  facet normal 7.21219e-23 1 -3.24808e-07
    outer loop
      vertex -20 -27.5 1.03553
      vertex -30 -27.5 -1.03553
      vertex -30 -27.5 1.03553
    endloop
  endfacet
  facet normal 1.57009e-16 0.707107 -0.707107
    outer loop
      vertex -20 -27.5 1.03553
      vertex -30 -27.5 1.03553
      vertex -20 -26.0355 2.5
    endloop
  endfacet
  facet normal 1.57009e-16 0.707107 -0.707107
    outer loop
      vertex -20 -26.0355 2.5
      vertex -30 -27.5 1.03553
      vertex -30 -26.0355 2.5
    endloop
  endfacet
  facet normal -9.9534e-17 0.893903 0.448261
    outer loop
      vertex 20 -7.39461 28.7099
      vertex 30 -7.39461 28.7099
      vertex 20 -5.6718 25.2744
    endloop
  endfacet
  facet normal -9.9534e-17 0.893903 0.448261
    outer loop
      vertex 20 -5.6718 25.2744
      vertex 30 -7.39461 28.7099
      vertex 30 -5.6718 25.2744
    endloop
  endfacet
  facet normal -8.76212e-17 0.918848 0.394611
    outer loop
      vertex 20 -5.6718 25.2744
      vertex 30 -5.6718 25.2744
      vertex 20 -4.17021 21.7779
    endloop
  endfacet
  facet normal -8.76212e-17 0.918848 0.394611
    outer loop
      vertex 20 -4.17021 21.7779
      vertex 30 -5.6718 25.2744
      vertex 30 -4.17021 21.7779
    endloop
  endfacet
  facet normal -7.51661e-17 0.94096 0.338518
    outer loop
      vertex 20 -4.17021 21.7779
      vertex 30 -4.17021 21.7779
      vertex 20 -2.89346 18.229
    endloop
  endfacet
  facet normal -7.51661e-17 0.94096 0.338518
    outer loop
      vertex 20 -2.89346 18.229
      vertex 30 -4.17021 21.7779
      vertex 30 -2.89346 18.229
    endloop
  endfacet
  facet normal -6.22232e-17 0.959933 0.280228
    outer loop
      vertex 20 -2.89346 18.229
      vertex 30 -2.89346 18.229
      vertex 20 -1.84463 14.6362
    endloop
  endfacet
  facet normal -6.22232e-17 0.959933 0.280228
    outer loop
      vertex 20 -1.84463 14.6362
      vertex 30 -2.89346 18.229
      vertex 30 -1.84463 14.6362
    endloop
  endfacet
  facet normal -4.88593e-17 0.97549 0.220043
    outer loop
      vertex 20 -1.84463 14.6362
      vertex 30 -1.84463 14.6362
      vertex 20 -1.02623 11.0081
    endloop
  endfacet
  facet normal -4.88593e-17 0.97549 0.220043
    outer loop
      vertex 20 -1.02623 11.0081
      vertex 30 -1.84463 14.6362
      vertex 30 -1.02623 11.0081
    endloop
  endfacet
  facet normal -3.51536e-17 0.987388 0.158318
    outer loop
      vertex 20 -1.02623 11.0081
      vertex 30 -1.02623 11.0081
      vertex 20 -0.440257 7.3535
    endloop
  endfacet
  facet normal -3.51536e-17 0.987388 0.158318
    outer loop
      vertex 20 -0.440257 7.3535
      vertex 30 -1.02623 11.0081
      vertex 30 -0.440257 7.3535
    endloop
  endfacet
  facet normal -2.11954e-17 0.995434 0.0954558
    outer loop
      vertex 20 -0.440257 7.3535
      vertex 30 -0.440257 7.3535
      vertex 20 -0.0881049 3.68118
    endloop
  endfacet
  facet normal -2.11954e-17 0.995434 0.0954558
    outer loop
      vertex 20 -0.0881049 3.68118
      vertex 30 -0.440257 7.3535
      vertex 30 -0.0881049 3.68118
    endloop
  endfacet
  facet normal -7.08255e-18 0.999491 0.031897
    outer loop
      vertex 20 -0.0881049 3.68118
      vertex 30 -0.0881049 3.68118
      vertex 20 0.0293735 4.44089e-15
    endloop
  endfacet
  facet normal -7.08255e-18 0.999491 0.031897
    outer loop
      vertex 20 0.0293735 4.44089e-15
      vertex 30 -0.0881049 3.68118
      vertex 30 0.0293735 6.66134e-15
    endloop
  endfacet
  facet normal 7.08255e-18 0.999491 -0.031897
    outer loop
      vertex 20 0.0293735 4.44089e-15
      vertex 30 0.0293735 6.66134e-15
      vertex 20 -0.0881049 -3.68118
    endloop
  endfacet
  facet normal 7.08255e-18 0.999491 -0.031897
    outer loop
      vertex 20 -0.0881049 -3.68118
      vertex 30 0.0293735 6.66134e-15
      vertex 30 -0.0881049 -3.68118
    endloop
  endfacet
  facet normal 2.11954e-17 0.995434 -0.0954558
    outer loop
      vertex 20 -0.0881049 -3.68118
      vertex 30 -0.0881049 -3.68118
      vertex 20 -0.440257 -7.3535
    endloop
  endfacet
  facet normal 2.11954e-17 0.995434 -0.0954558
    outer loop
      vertex 20 -0.440257 -7.3535
      vertex 30 -0.0881049 -3.68118
      vertex 30 -0.440257 -7.3535
    endloop
  endfacet
  facet normal 3.51536e-17 0.987388 -0.158318
    outer loop
      vertex 20 -0.440257 -7.3535
      vertex 30 -0.440257 -7.3535
      vertex 20 -1.02623 -11.0081
    endloop
  endfacet
  facet normal 3.51536e-17 0.987388 -0.158318
    outer loop
      vertex 20 -1.02623 -11.0081
      vertex 30 -0.440257 -7.3535
      vertex 30 -1.02623 -11.0081
    endloop
  endfacet
  facet normal 4.88593e-17 0.97549 -0.220043
    outer loop
      vertex 20 -1.02623 -11.0081
      vertex 30 -1.02623 -11.0081
      vertex 20 -1.84463 -14.6362
    endloop
  endfacet
  facet normal 4.88593e-17 0.97549 -0.220043
    outer loop
      vertex 20 -1.84463 -14.6362
      vertex 30 -1.02623 -11.0081
      vertex 30 -1.84463 -14.6362
    endloop
  endfacet
  facet normal 6.22232e-17 0.959933 -0.280228
    outer loop
      vertex 20 -1.84463 -14.6362
      vertex 30 -1.84463 -14.6362
      vertex 20 -2.89346 -18.229
    endloop
  endfacet
  facet normal 6.22232e-17 0.959933 -0.280228
    outer loop
      vertex 20 -2.89346 -18.229
      vertex 30 -1.84463 -14.6362
      vertex 30 -2.89346 -18.229
    endloop
  endfacet
  facet normal 7.51661e-17 0.94096 -0.338518
    outer loop
      vertex 20 -2.89346 -18.229
      vertex 30 -2.89346 -18.229
      vertex 20 -4.17021 -21.7779
    endloop
  endfacet
  facet normal 7.51661e-17 0.94096 -0.338518
    outer loop
      vertex 20 -4.17021 -21.7779
      vertex 30 -2.89346 -18.229
      vertex 30 -4.17021 -21.7779
    endloop
  endfacet
  facet normal 8.76212e-17 0.918848 -0.394611
    outer loop
      vertex 20 -4.17021 -21.7779
      vertex 30 -4.17021 -21.7779
      vertex 20 -5.6718 -25.2744
    endloop
  endfacet
  facet normal 8.76212e-17 0.918848 -0.394611
    outer loop
      vertex 20 -5.6718 -25.2744
      vertex 30 -4.17021 -21.7779
      vertex 30 -5.6718 -25.2744
    endloop
  endfacet
  facet normal 9.9534e-17 0.893903 -0.448261
    outer loop
      vertex 20 -5.6718 -25.2744
      vertex 30 -5.6718 -25.2744
      vertex 20 -7.39461 -28.7099
    endloop
  endfacet
  facet normal 9.9534e-17 0.893903 -0.448261
    outer loop
      vertex 20 -7.39461 -28.7099
      vertex 30 -5.6718 -25.2744
      vertex 30 -7.39461 -28.7099
    endloop
  endfacet
  facet normal 1.10864e-16 0.866438 -0.499285
    outer loop
      vertex 20 -7.39461 -28.7099
      vertex 30 -7.39461 -28.7099
      vertex 20 -8.13803 -30
    endloop
  endfacet
  facet normal 1.10864e-16 0.866438 -0.499285
    outer loop
      vertex 20 -8.13803 -30
      vertex 30 -7.39461 -28.7099
      vertex 30 -8.13803 -30
    endloop
  endfacet
  facet normal -5.74694e-17 -0.965926 0.258819
    outer loop
      vertex 20.05 -20.9219 -30
      vertex 30 -20.9219 -30
      vertex 30 -12.8834 6.66134e-15
    endloop
  endfacet
  facet normal -5.74694e-17 -0.965926 0.258819
    outer loop
      vertex 20.05 -12.8834 4.45199e-15
      vertex 20.05 -20.9219 -30
      vertex 30 -12.8834 6.66134e-15
    endloop
  endfacet
  facet normal 0.270432 -0.929934 -0.249175
    outer loop
      vertex 20.05 -12.8834 4.45199e-15
      vertex -9.88645 -22.9289 5
      vertex -2.51345 -20 2.07107
    endloop
  endfacet
  facet normal 0.270432 -0.929934 -0.249175
    outer loop
      vertex -20 -25.87 5
      vertex -9.88645 -22.9289 5
      vertex -20 -31.2919 25.2349
    endloop
  endfacet
  facet normal 0.270432 -0.929934 -0.249175
    outer loop
      vertex -4.42172 -20 -9.8182e-16
      vertex 20.05 -12.8834 4.45199e-15
      vertex -2.51345 -20 2.07107
    endloop
  endfacet
  facet normal 0.270432 -0.929934 -0.249175
    outer loop
      vertex 20.05 -12.8834 4.45199e-15
      vertex -20 -31.2919 25.2349
      vertex -9.88645 -22.9289 5
    endloop
  endfacet
  facet normal 0.270432 -0.929934 0.249175
    outer loop
      vertex 12.7718 -23.0385 -30
      vertex 20.05 -20.9219 -30
      vertex 20.05 -12.8834 4.45199e-15
    endloop
  endfacet
  facet normal 0.270432 -0.929934 0.249175
    outer loop
      vertex -20 -31.2919 -25.2349
      vertex 12.7718 -23.0385 -30
      vertex 20.05 -12.8834 4.45199e-15
    endloop
  endfacet
  facet normal 0.270432 -0.929934 0.249175
    outer loop
      vertex -2.51345 -20 -2.07107
      vertex 20.05 -12.8834 4.45199e-15
      vertex -4.42172 -20 -9.8182e-16
    endloop
  endfacet
  facet normal 0.270432 -0.929934 0.249175
    outer loop
      vertex -20 -31.2919 -25.2349
      vertex 20.05 -12.8834 4.45199e-15
      vertex -2.51345 -20 -2.07107
    endloop
  endfacet
  facet normal 0.270432 -0.929934 0.249175
    outer loop
      vertex -20 -25.87 -5
      vertex -20 -31.2919 -25.2349
      vertex -9.88645 -22.9289 -5
    endloop
  endfacet
  facet normal 0.270432 -0.929934 0.249175
    outer loop
      vertex -2.51345 -20 -2.07107
      vertex -9.88645 -22.9289 -5
      vertex -20 -31.2919 -25.2349
    endloop
  endfacet
  facet normal 2.22045e-16 -1.01764e-07 -1
    outer loop
      vertex -9.88645 -22.9289 5
      vertex -20 -25.87 5
      vertex -20 -22.9289 5
    endloop
  endfacet
  facet normal 2.22045e-16 -1.01764e-07 -1
    outer loop
      vertex -20 -22.9289 5
      vertex -20 -25.87 5
      vertex -20 -27.0711 5
    endloop
  endfacet
  facet normal -2.22045e-16 1.01764e-07 1
    outer loop
      vertex -20 -27.0711 -5
      vertex -20 -25.87 -5
      vertex -20 -22.9289 -5
    endloop
  endfacet
  facet normal -2.22045e-16 1.01764e-07 1
    outer loop
      vertex -20 -22.9289 -5
      vertex -20 -25.87 -5
      vertex -9.88645 -22.9289 -5
    endloop
  endfacet
  facet normal 0.270432 -0.680759 0.680759
    outer loop
      vertex -20 -36.0571 -30
      vertex 12.7718 -23.0385 -30
      vertex -20 -31.2919 -25.2349
    endloop
  endfacet
  facet normal 1 0 2.22045e-16
    outer loop
      vertex -20 -30 2.07107
      vertex -20 -30 -2.07107
      vertex -20 -27.0711 -5
    endloop
  endfacet
  facet normal 1 0 2.22045e-16
    outer loop
      vertex -20 -20 -2.07107
      vertex -20 -22.5 -1.03553
      vertex -20 -22.9289 -5
    endloop
  endfacet
  facet normal 1 0 2.22045e-16
    outer loop
      vertex -20 -27.5 -1.03553
      vertex -20 -30 2.07107
      vertex -20 -27.0711 -5
    endloop
  endfacet
  facet normal 1 0 2.22045e-16
    outer loop
      vertex -20 -23.9645 -2.5
      vertex -20 -26.0355 -2.5
      vertex -20 -22.9289 -5
    endloop
  endfacet
  facet normal 1 0 2.22045e-16
    outer loop
      vertex -20 -27.0711 5
      vertex -20 -30 2.07107
      vertex -20 -22.9289 5
    endloop
  endfacet
  facet normal 1 0 2.22045e-16
    outer loop
      vertex -20 -22.9289 5
      vertex -20 -23.9645 2.5
      vertex -20 -20 2.07107
    endloop
  endfacet
  facet normal 1 0 2.22045e-16
    outer loop
      vertex -20 -20 2.07107
      vertex -20 -22.5 1.03553
      vertex -20 -20 -2.07107
    endloop
  endfacet
  facet normal 1 0 2.22045e-16
    outer loop
      vertex -20 -22.5 1.03553
      vertex -20 -22.5 -1.03553
      vertex -20 -20 -2.07107
    endloop
  endfacet
  facet normal 1 0 2.22045e-16
    outer loop
      vertex -20 -22.5 -1.03553
      vertex -20 -23.9645 -2.5
      vertex -20 -22.9289 -5
    endloop
  endfacet
  facet normal 1 0 2.22045e-16
    outer loop
      vertex -20 -22.9289 -5
      vertex -20 -26.0355 -2.5
      vertex -20 -27.0711 -5
    endloop
  endfacet
  facet normal 1 0 2.22045e-16
    outer loop
      vertex -20 -26.0355 -2.5
      vertex -20 -27.5 -1.03553
      vertex -20 -27.0711 -5
    endloop
  endfacet
  facet normal 1 0 2.22045e-16
    outer loop
      vertex -20 -27.5 1.03553
      vertex -20 -26.0355 2.5
      vertex -20 -30 2.07107
    endloop
  endfacet
  facet normal 1 0 2.22045e-16
    outer loop
      vertex -20 -22.9289 5
      vertex -20 -26.0355 2.5
      vertex -20 -23.9645 2.5
    endloop
  endfacet
  facet normal 1 0 2.22045e-16
    outer loop
      vertex -20 -22.9289 5
      vertex -20 -30 2.07107
      vertex -20 -26.0355 2.5
    endloop
  endfacet
  facet normal 1 0 2.22045e-16
    outer loop
      vertex -20 -23.9645 2.5
      vertex -20 -22.5 1.03553
      vertex -20 -20 2.07107
    endloop
  endfacet
  facet normal 1 0 2.22045e-16
    outer loop
      vertex -20 -27.5 -1.03553
      vertex -20 -27.5 1.03553
      vertex -20 -30 2.07107
    endloop
  endfacet
  facet normal -2.25961e-23 -1 1.01764e-07
    outer loop
      vertex -20 -20 -2.07107
      vertex -2.51345 -20 -2.07107
      vertex -4.42172 -20 -9.8182e-16
    endloop
  endfacet
  facet normal -2.25961e-23 -1 1.01764e-07
    outer loop
      vertex -2.51345 -20 2.07107
      vertex -20 -20 -2.07107
      vertex -4.42172 -20 -9.8182e-16
    endloop
  endfacet
  facet normal -2.25961e-23 -1 1.01764e-07
    outer loop
      vertex -2.51345 -20 2.07107
      vertex -20 -20 2.07107
      vertex -20 -20 -2.07107
    endloop
  endfacet
  facet normal 1.57009e-16 -0.707107 -0.707107
    outer loop
      vertex -2.51345 -20 2.07107
      vertex -9.88645 -22.9289 5
      vertex -20 -20 2.07107
    endloop
  endfacet
  facet normal 1.57009e-16 -0.707107 -0.707107
    outer loop
      vertex -20 -20 2.07107
      vertex -9.88645 -22.9289 5
      vertex -20 -22.9289 5
    endloop
  endfacet
  facet normal -1.57009e-16 -0.707107 0.707107
    outer loop
      vertex -20 -22.9289 -5
      vertex -9.88645 -22.9289 -5
      vertex -2.51345 -20 -2.07107
    endloop
  endfacet
  facet normal -1.57009e-16 -0.707107 0.707107
    outer loop
      vertex -20 -20 -2.07107
      vertex -20 -22.9289 -5
      vertex -2.51345 -20 -2.07107
    endloop
  endfacet
endsolid OpenSCAD_Model
