solid OpenSCAD_Model
  facet normal -1 0 0
    outer loop
      vertex -40 -115 43.3579
      vertex -40 -115 57.5
      vertex -40 -76.4184 4.7763
    endloop
  endfacet
  facet normal -1 0 0
    outer loop
      vertex -40 -76.4184 4.7763
      vertex -40 -115 57.5
      vertex -40 -102.677 57.5
    endloop
  endfacet
  facet normal -1 0 0
    outer loop
      vertex -40 -76.4184 4.7763
      vertex -40 -102.677 57.5
      vertex -40 -15.3226 4.7763
    endloop
  endfacet
  facet normal 0 -1 0
    outer loop
      vertex -40 -115 57.5
      vertex -40 -115 43.3579
      vertex -22.5 -115 43.3579
    endloop
  endfacet
  facet normal 0 -1 0
    outer loop
      vertex -22.5 -115 57.5
      vertex -40 -115 57.5
      vertex -22.5 -115 43.3579
    endloop
  endfacet
  facet normal 0 -0.707107 -0.707107
    outer loop
      vertex 2.2961 -25.8489 -45.7933
      vertex -14.2043 -14.1421 -57.5
      vertex 14.2043 -14.1421 -57.5
    endloop
  endfacet
  facet normal 0 -0.707107 -0.707107
    outer loop
      vertex 22.5 -80 8.35786
      vertex -40 -76.4184 4.7763
      vertex 40 -76.4184 4.7763
    endloop
  endfacet
  facet normal 0 -0.707107 -0.707107
    outer loop
      vertex 5.54328 -29.096 -42.5461
      vertex 2.2961 -25.8489 -45.7933
      vertex 14.2043 -14.1421 -57.5
    endloop
  endfacet
  facet normal 0 -0.707107 -0.707107
    outer loop
      vertex 40 -115 43.3579
      vertex 22.5 -80 8.35786
      vertex 40 -76.4184 4.7763
    endloop
  endfacet
  facet normal 0 -0.707107 -0.707107
    outer loop
      vertex -22.5 -80 8.35786
      vertex -40 -76.4184 4.7763
      vertex 22.5 -80 8.35786
    endloop
  endfacet
  facet normal 0 -0.707107 -0.707107
    outer loop
      vertex -22.5 -80 8.35786
      vertex -22.5 -115 43.3579
      vertex -40 -76.4184 4.7763
    endloop
  endfacet
  facet normal 0 -0.707107 -0.707107
    outer loop
      vertex -40 -115 43.3579
      vertex -40 -76.4184 4.7763
      vertex -22.5 -115 43.3579
    endloop
  endfacet
  facet normal 0 -0.707107 -0.707107
    outer loop
      vertex 5.54328 -33.6882 -37.9539
      vertex 5.54328 -29.096 -42.5461
      vertex 14.2043 -14.1421 -57.5
    endloop
  endfacet
  facet normal 0 -0.707107 -0.707107
    outer loop
      vertex -40 -76.4184 4.7763
      vertex -14.2043 -14.1421 -57.5
      vertex -5.54328 -33.6882 -37.9539
    endloop
  endfacet
  facet normal 0 -0.707107 -0.707107
    outer loop
      vertex 40 -76.4184 4.7763
      vertex -40 -76.4184 4.7763
      vertex -2.2961 -36.9354 -34.7067
    endloop
  endfacet
  facet normal 0 -0.707107 -0.707107
    outer loop
      vertex 40 -76.4184 4.7763
      vertex -2.2961 -36.9354 -34.7067
      vertex 2.2961 -36.9354 -34.7067
    endloop
  endfacet
  facet normal 0 -0.707107 -0.707107
    outer loop
      vertex 40 -76.4184 4.7763
      vertex 5.54328 -33.6882 -37.9539
      vertex 14.2043 -14.1421 -57.5
    endloop
  endfacet
  facet normal 0 -0.707107 -0.707107
    outer loop
      vertex 40 -76.4184 4.7763
      vertex 2.2961 -36.9354 -34.7067
      vertex 5.54328 -33.6882 -37.9539
    endloop
  endfacet
  facet normal 0 -0.707107 -0.707107
    outer loop
      vertex -2.2961 -25.8489 -45.7933
      vertex -14.2043 -14.1421 -57.5
      vertex 2.2961 -25.8489 -45.7933
    endloop
  endfacet
  facet normal 0 -0.707107 -0.707107
    outer loop
      vertex -5.54328 -29.096 -42.5461
      vertex -14.2043 -14.1421 -57.5
      vertex -2.2961 -25.8489 -45.7933
    endloop
  endfacet
  facet normal 0 -0.707107 -0.707107
    outer loop
      vertex -5.54328 -33.6882 -37.9539
      vertex -14.2043 -14.1421 -57.5
      vertex -5.54328 -29.096 -42.5461
    endloop
  endfacet
  facet normal 0 -0.707107 -0.707107
    outer loop
      vertex -5.54328 -33.6882 -37.9539
      vertex -2.2961 -36.9354 -34.7067
      vertex -40 -76.4184 4.7763
    endloop
  endfacet
  facet normal 0 -0.707107 -0.707107
    outer loop
      vertex 22.5 -115 43.3579
      vertex 22.5 -80 8.35786
      vertex 40 -115 43.3579
    endloop
  endfacet
  facet normal -0.92388 0 -0.382683
    outer loop
      vertex -37.5063 0 -1.24409
      vertex -14.2043 0 -57.5
      vertex -40 -15.3226 4.7763
    endloop
  endfacet
  facet normal -0.92388 0 -0.382683
    outer loop
      vertex -40 -15.3226 4.7763
      vertex -14.2043 0 -57.5
      vertex -14.2043 -14.1421 -57.5
    endloop
  endfacet
  facet normal -0.92388 0 -0.382683
    outer loop
      vertex -40 -15.3226 4.7763
      vertex -14.2043 -14.1421 -57.5
      vertex -40 -76.4184 4.7763
    endloop
  endfacet
  facet normal -0.742404 0.346189 0.573576
    outer loop
      vertex -21.2132 -41.3005 44.7721
      vertex -5.05671 0 40.7567
      vertex -37.5063 0 -1.24409
    endloop
  endfacet
  facet normal -0.742404 0.346189 0.573576
    outer loop
      vertex -21.2132 -41.3005 44.7721
      vertex -37.5063 0 -1.24409
      vertex -30 -81.2318 57.5
    endloop
  endfacet
  facet normal -0.742404 0.346189 0.573576
    outer loop
      vertex -37.5063 0 -1.24409
      vertex -40 -15.3226 4.7763
      vertex -30 -81.2318 57.5
    endloop
  endfacet
  facet normal -0.742404 0.346189 0.573576
    outer loop
      vertex -40 -15.3226 4.7763
      vertex -40 -102.677 57.5
      vertex -30 -81.2318 57.5
    endloop
  endfacet
  facet normal 0 0 1
    outer loop
      vertex -40 -102.677 57.5
      vertex -40 -115 57.5
      vertex -22.5 -115 57.5
    endloop
  endfacet
  facet normal 0 0 1
    outer loop
      vertex -30 -105 57.5
      vertex -40 -102.677 57.5
      vertex -22.5 -115 57.5
    endloop
  endfacet
  facet normal 0 0 1
    outer loop
      vertex -22.5 -105 57.5
      vertex -30 -105 57.5
      vertex -22.5 -115 57.5
    endloop
  endfacet
  facet normal 0 0 1
    outer loop
      vertex -30 -105 57.5
      vertex -30 -81.2318 57.5
      vertex -40 -102.677 57.5
    endloop
  endfacet
  facet normal 1 0 0
    outer loop
      vertex -22.5 -80 8.35786
      vertex -22.5 -80 46.636
      vertex -22.5 -105 46.636
    endloop
  endfacet
  facet normal 1 0 0
    outer loop
      vertex -22.5 -115 57.5
      vertex -22.5 -80 8.35786
      vertex -22.5 -105 46.636
    endloop
  endfacet
  facet normal 1 0 0
    outer loop
      vertex -22.5 -105 57.5
      vertex -22.5 -115 57.5
      vertex -22.5 -105 46.636
    endloop
  endfacet
  facet normal 1 0 0
    outer loop
      vertex -22.5 -115 57.5
      vertex -22.5 -115 43.3579
      vertex -22.5 -80 8.35786
    endloop
  endfacet
  facet normal 0 -1 0
    outer loop
      vertex 2.2961 -80 17.4567
      vertex -22.5 -80 8.35786
      vertex 22.5 -80 8.35786
    endloop
  endfacet
  facet normal 0 -1 0
    outer loop
      vertex 22.5 -80 8.35786
      vertex 22.5 -80 46.636
      vertex 21.2132 -80 44.7721
    endloop
  endfacet
  facet normal 0 -1 0
    outer loop
      vertex 0 -80 39.5
      vertex 22.5 -80 8.35786
      vertex 21.2132 -80 44.7721
    endloop
  endfacet
  facet normal 0 -1 0
    outer loop
      vertex 5.54328 -80 25.2961
      vertex 5.54328 -80 20.7039
      vertex 22.5 -80 8.35786
    endloop
  endfacet
  facet normal 0 -1 0
    outer loop
      vertex -22.5 -80 46.636
      vertex -22.5 -80 8.35786
      vertex -21.2132 -80 44.7721
    endloop
  endfacet
  facet normal 0 -1 0
    outer loop
      vertex -21.2132 -80 44.7721
      vertex -22.5 -80 8.35786
      vertex -5.54328 -80 25.2961
    endloop
  endfacet
  facet normal 0 -1 0
    outer loop
      vertex -21.2132 -80 44.7721
      vertex -5.54328 -80 25.2961
      vertex -2.2961 -80 28.5433
    endloop
  endfacet
  facet normal 0 -1 0
    outer loop
      vertex 0 -80 39.5
      vertex 2.2961 -80 28.5433
      vertex 22.5 -80 8.35786
    endloop
  endfacet
  facet normal 0 -1 0
    outer loop
      vertex 0 -80 39.5
      vertex -21.2132 -80 44.7721
      vertex 2.2961 -80 28.5433
    endloop
  endfacet
  facet normal 0 -1 0
    outer loop
      vertex 2.2961 -80 28.5433
      vertex 5.54328 -80 25.2961
      vertex 22.5 -80 8.35786
    endloop
  endfacet
  facet normal 0 -1 0
    outer loop
      vertex -2.2961 -80 17.4567
      vertex -22.5 -80 8.35786
      vertex 2.2961 -80 17.4567
    endloop
  endfacet
  facet normal 0 -1 0
    outer loop
      vertex -5.54328 -80 20.7039
      vertex -22.5 -80 8.35786
      vertex -2.2961 -80 17.4567
    endloop
  endfacet
  facet normal 0 -1 0
    outer loop
      vertex -5.54328 -80 25.2961
      vertex -22.5 -80 8.35786
      vertex -5.54328 -80 20.7039
    endloop
  endfacet
  facet normal 0 -1 0
    outer loop
      vertex 5.54328 -80 20.7039
      vertex 2.2961 -80 17.4567
      vertex 22.5 -80 8.35786
    endloop
  endfacet
  facet normal 0 -1 0
    outer loop
      vertex -2.2961 -80 28.5433
      vertex 2.2961 -80 28.5433
      vertex -21.2132 -80 44.7721
    endloop
  endfacet
  facet normal -1 0 0
    outer loop
      vertex 22.5 -105 57.5
      vertex 22.5 -105 46.636
      vertex 22.5 -115 57.5
    endloop
  endfacet
  facet normal -1 0 0
    outer loop
      vertex 22.5 -80 8.35786
      vertex 22.5 -105 46.636
      vertex 22.5 -80 46.636
    endloop
  endfacet
  facet normal -1 0 0
    outer loop
      vertex 22.5 -115 57.5
      vertex 22.5 -105 46.636
      vertex 22.5 -80 8.35786
    endloop
  endfacet
  facet normal -1 0 0
    outer loop
      vertex 22.5 -115 57.5
      vertex 22.5 -80 8.35786
      vertex 22.5 -115 43.3579
    endloop
  endfacet
  facet normal 0 -1 0
    outer loop
      vertex 22.5 -115 57.5
      vertex 22.5 -115 43.3579
      vertex 40 -115 43.3579
    endloop
  endfacet
  facet normal 0 -1 0
    outer loop
      vertex 40 -115 57.5
      vertex 22.5 -115 57.5
      vertex 40 -115 43.3579
    endloop
  endfacet
  facet normal 1 0 0
    outer loop
      vertex 40 -115 57.5
      vertex 40 -115 43.3579
      vertex 40 -76.4184 4.7763
    endloop
  endfacet
  facet normal 1 0 0
    outer loop
      vertex 40 -102.677 57.5
      vertex 40 -115 57.5
      vertex 40 -15.3226 4.7763
    endloop
  endfacet
  facet normal 1 0 0
    outer loop
      vertex 40 -15.3226 4.7763
      vertex 40 -115 57.5
      vertex 40 -76.4184 4.7763
    endloop
  endfacet
  facet normal 0.92388 0 -0.382683
    outer loop
      vertex 14.2043 0 -57.5
      vertex 37.5063 0 -1.24409
      vertex 40 -15.3226 4.7763
    endloop
  endfacet
  facet normal 0.92388 0 -0.382683
    outer loop
      vertex 14.2043 -14.1421 -57.5
      vertex 14.2043 0 -57.5
      vertex 40 -76.4184 4.7763
    endloop
  endfacet
  facet normal 0.92388 0 -0.382683
    outer loop
      vertex 40 -76.4184 4.7763
      vertex 14.2043 0 -57.5
      vertex 40 -15.3226 4.7763
    endloop
  endfacet
  facet normal 0 0 -1
    outer loop
      vertex -14.2043 -14.1421 -57.5
      vertex -14.2043 0 -57.5
      vertex 14.2043 -14.1421 -57.5
    endloop
  endfacet
  facet normal 0 0 -1
    outer loop
      vertex 14.2043 -14.1421 -57.5
      vertex -14.2043 0 -57.5
      vertex 14.2043 0 -57.5
    endloop
  endfacet
  facet normal 0.707107 -1.57009e-16 -0.707107
    outer loop
      vertex -2.2961 -6 -34.7067
      vertex -2.2961 -36.9354 -34.7067
      vertex -5.54328 -6 -37.9539
    endloop
  endfacet
  facet normal 0.707107 -1.57009e-16 -0.707107
    outer loop
      vertex -5.54328 -6 -37.9539
      vertex -2.2961 -36.9354 -34.7067
      vertex -5.54328 -33.6882 -37.9539
    endloop
  endfacet
  facet normal 1 1.97664e-23 8.90201e-08
    outer loop
      vertex -5.54328 -29.096 -42.5461
      vertex -5.54328 -6 -42.5461
      vertex -5.54328 -6 -37.9539
    endloop
  endfacet
  facet normal 1 1.97664e-23 8.90201e-08
    outer loop
      vertex -5.54328 -33.6882 -37.9539
      vertex -5.54328 -29.096 -42.5461
      vertex -5.54328 -6 -37.9539
    endloop
  endfacet
  facet normal 0.707107 1.57009e-16 0.707107
    outer loop
      vertex -2.2961 -25.8489 -45.7933
      vertex -2.2961 -6 -45.7933
      vertex -5.54328 -6 -42.5461
    endloop
  endfacet
  facet normal 0.707107 1.57009e-16 0.707107
    outer loop
      vertex -5.54328 -29.096 -42.5461
      vertex -2.2961 -25.8489 -45.7933
      vertex -5.54328 -6 -42.5461
    endloop
  endfacet
  facet normal -8.90201e-08 2.22045e-16 1
    outer loop
      vertex 2.2961 -25.8489 -45.7933
      vertex 2.2961 -6 -45.7933
      vertex -2.2961 -6 -45.7933
    endloop
  endfacet
  facet normal -8.90201e-08 2.22045e-16 1
    outer loop
      vertex -2.2961 -25.8489 -45.7933
      vertex 2.2961 -25.8489 -45.7933
      vertex -2.2961 -6 -45.7933
    endloop
  endfacet
  facet normal -0.707107 1.57009e-16 0.707107
    outer loop
      vertex 5.54328 -29.096 -42.5461
      vertex 5.54328 -6 -42.5461
      vertex 2.2961 -6 -45.7933
    endloop
  endfacet
  facet normal -0.707107 1.57009e-16 0.707107
    outer loop
      vertex 2.2961 -25.8489 -45.7933
      vertex 5.54328 -29.096 -42.5461
      vertex 2.2961 -6 -45.7933
    endloop
  endfacet
  facet normal -1 -1.97664e-23 -8.90201e-08
    outer loop
      vertex 5.54328 -6 -42.5461
      vertex 5.54328 -29.096 -42.5461
      vertex 5.54328 -6 -37.9539
    endloop
  endfacet
  facet normal -1 -1.97664e-23 -8.90201e-08
    outer loop
      vertex 5.54328 -6 -37.9539
      vertex 5.54328 -29.096 -42.5461
      vertex 5.54328 -33.6882 -37.9539
    endloop
  endfacet
  facet normal -0.707107 -1.57009e-16 -0.707107
    outer loop
      vertex 5.54328 -6 -37.9539
      vertex 5.54328 -33.6882 -37.9539
      vertex 2.2961 -6 -34.7067
    endloop
  endfacet
  facet normal -0.707107 -1.57009e-16 -0.707107
    outer loop
      vertex 2.2961 -6 -34.7067
      vertex 5.54328 -33.6882 -37.9539
      vertex 2.2961 -36.9354 -34.7067
    endloop
  endfacet
  facet normal 8.90201e-08 -2.22045e-16 -1
    outer loop
      vertex 2.2961 -6 -34.7067
      vertex 2.2961 -36.9354 -34.7067
      vertex -2.2961 -6 -34.7067
    endloop
  endfacet
  facet normal 8.90201e-08 -2.22045e-16 -1
    outer loop
      vertex -2.2961 -6 -34.7067
      vertex 2.2961 -36.9354 -34.7067
      vertex -2.2961 -36.9354 -34.7067
    endloop
  endfacet
  facet normal 0 1 0
    outer loop
      vertex -37.5063 0 -1.24409
      vertex -5.05671 0 40.7567
      vertex -14.2043 0 -57.5
    endloop
  endfacet
  facet normal 0 1 0
    outer loop
      vertex -2.3097 0 23.9567
      vertex -5.05671 0 40.7567
      vertex 0 0 39.5
    endloop
  endfacet
  facet normal 0 1 0
    outer loop
      vertex -0.956709 0 -37.9403
      vertex 5.05671 0 40.7567
      vertex 37.5063 0 -1.24409
    endloop
  endfacet
  facet normal 0 1 0
    outer loop
      vertex 2.3097 0 -41.2067
      vertex 37.5063 0 -1.24409
      vertex 14.2043 0 -57.5
    endloop
  endfacet
  facet normal 0 1 0
    outer loop
      vertex 2.3097 0 22.0433
      vertex 5.05671 0 40.7567
      vertex -2.3097 0 -39.2933
    endloop
  endfacet
  facet normal 0 1 0
    outer loop
      vertex -2.3097 0 23.9567
      vertex 5.05671 0 40.7567
      vertex -0.956709 0 25.3097
    endloop
  endfacet
  facet normal 0 1 0
    outer loop
      vertex -14.2043 0 -57.5
      vertex -2.3097 0 -39.2933
      vertex -2.3097 0 -41.2067
    endloop
  endfacet
  facet normal 0 1 0
    outer loop
      vertex -2.3097 0 22.0433
      vertex -14.2043 0 -57.5
      vertex -2.3097 0 23.9567
    endloop
  endfacet
  facet normal 0 1 0
    outer loop
      vertex -14.2043 0 -57.5
      vertex -2.3097 0 -41.2067
      vertex -0.956709 0 -42.5597
    endloop
  endfacet
  facet normal 0 1 0
    outer loop
      vertex 2.3097 0 -39.2933
      vertex 37.5063 0 -1.24409
      vertex 2.3097 0 -41.2067
    endloop
  endfacet
  facet normal 0 1 0
    outer loop
      vertex -14.2043 0 -57.5
      vertex 0.956709 0 -42.5597
      vertex 14.2043 0 -57.5
    endloop
  endfacet
  facet normal 0 1 0
    outer loop
      vertex 0.956709 0 -42.5597
      vertex 2.3097 0 -41.2067
      vertex 14.2043 0 -57.5
    endloop
  endfacet
  facet normal 0 1 0
    outer loop
      vertex -0.956709 0 -37.9403
      vertex 37.5063 0 -1.24409
      vertex 0.956709 0 -37.9403
    endloop
  endfacet
  facet normal 0 1 0
    outer loop
      vertex -2.3097 0 -39.2933
      vertex 5.05671 0 40.7567
      vertex -0.956709 0 -37.9403
    endloop
  endfacet
  facet normal 0 1 0
    outer loop
      vertex -2.3097 0 23.9567
      vertex 0 0 39.5
      vertex 5.05671 0 40.7567
    endloop
  endfacet
  facet normal 0 1 0
    outer loop
      vertex -14.2043 0 -57.5
      vertex -5.05671 0 40.7567
      vertex -2.3097 0 23.9567
    endloop
  endfacet
  facet normal 0 1 0
    outer loop
      vertex 2.3097 0 22.0433
      vertex -14.2043 0 -57.5
      vertex 0.956709 0 20.6903
    endloop
  endfacet
  facet normal 0 1 0
    outer loop
      vertex -14.2043 0 -57.5
      vertex -2.3097 0 22.0433
      vertex -0.956709 0 20.6903
    endloop
  endfacet
  facet normal 0 1 0
    outer loop
      vertex -14.2043 0 -57.5
      vertex -0.956709 0 20.6903
      vertex 0.956709 0 20.6903
    endloop
  endfacet
  facet normal 0 1 0
    outer loop
      vertex 2.3097 0 23.9567
      vertex 5.05671 0 40.7567
      vertex 2.3097 0 22.0433
    endloop
  endfacet
  facet normal 0 1 0
    outer loop
      vertex -14.2043 0 -57.5
      vertex 2.3097 0 22.0433
      vertex -2.3097 0 -39.2933
    endloop
  endfacet
  facet normal 0 1 0
    outer loop
      vertex 0.956709 0 25.3097
      vertex 5.05671 0 40.7567
      vertex 2.3097 0 23.9567
    endloop
  endfacet
  facet normal 0 1 0
    outer loop
      vertex -0.956709 0 25.3097
      vertex 5.05671 0 40.7567
      vertex 0.956709 0 25.3097
    endloop
  endfacet
  facet normal 0 1 0
    outer loop
      vertex 0.956709 0 -42.5597
      vertex -14.2043 0 -57.5
      vertex -0.956709 0 -42.5597
    endloop
  endfacet
  facet normal 0 1 0
    outer loop
      vertex 0.956709 0 -37.9403
      vertex 37.5063 0 -1.24409
      vertex 2.3097 0 -39.2933
    endloop
  endfacet
  facet normal 0.822943 7.56893e-17 0.568124
    outer loop
      vertex -30 -105 57.5
      vertex -22.5 -105 46.636
      vertex -22.5 -80 46.636
    endloop
  endfacet
  facet normal 0.822943 7.56893e-17 0.568124
    outer loop
      vertex -21.2132 -41.3005 44.7721
      vertex -30 -105 57.5
      vertex -22.5 -80 46.636
    endloop
  endfacet
  facet normal 0.822943 7.56893e-17 0.568124
    outer loop
      vertex -21.2132 -80 44.7721
      vertex -21.2132 -41.3005 44.7721
      vertex -22.5 -80 46.636
    endloop
  endfacet
  facet normal 0.822943 7.56893e-17 0.568124
    outer loop
      vertex -21.2132 -41.3005 44.7721
      vertex -30 -81.2318 57.5
      vertex -30 -105 57.5
    endloop
  endfacet
  facet normal 0.241191 1.29294e-16 0.970478
    outer loop
      vertex 0 -80 39.5
      vertex 0 0 39.5
      vertex -5.05671 0 40.7567
    endloop
  endfacet
  facet normal 0.241191 1.29294e-16 0.970478
    outer loop
      vertex -21.2132 -80 44.7721
      vertex 0 -80 39.5
      vertex -21.2132 -41.3005 44.7721
    endloop
  endfacet
  facet normal 0.241191 1.29294e-16 0.970478
    outer loop
      vertex -21.2132 -41.3005 44.7721
      vertex 0 -80 39.5
      vertex -5.05671 0 40.7567
    endloop
  endfacet
  facet normal 0 1 -3.70074e-16
    outer loop
      vertex -22.5 -105 57.5
      vertex -22.5 -105 46.636
      vertex -30 -105 57.5
    endloop
  endfacet
  facet normal -0.241191 1.29294e-16 0.970478
    outer loop
      vertex 21.2132 -80 44.7721
      vertex 21.2132 -41.3005 44.7721
      vertex 5.05671 0 40.7567
    endloop
  endfacet
  facet normal -0.241191 1.29294e-16 0.970478
    outer loop
      vertex 0 -80 39.5
      vertex 21.2132 -80 44.7721
      vertex 0 0 39.5
    endloop
  endfacet
  facet normal -0.241191 1.29294e-16 0.970478
    outer loop
      vertex 0 0 39.5
      vertex 21.2132 -80 44.7721
      vertex 5.05671 0 40.7567
    endloop
  endfacet
  facet normal -0.822943 7.56893e-17 0.568124
    outer loop
      vertex 22.5 -105 46.636
      vertex 30 -105 57.5
      vertex 22.5 -80 46.636
    endloop
  endfacet
  facet normal -0.822943 7.56893e-17 0.568124
    outer loop
      vertex 22.5 -80 46.636
      vertex 30 -105 57.5
      vertex 30 -81.2318 57.5
    endloop
  endfacet
  facet normal -0.822943 7.56893e-17 0.568124
    outer loop
      vertex 22.5 -80 46.636
      vertex 30 -81.2318 57.5
      vertex 21.2132 -41.3005 44.7721
    endloop
  endfacet
  facet normal -0.822943 7.56893e-17 0.568124
    outer loop
      vertex 22.5 -80 46.636
      vertex 21.2132 -41.3005 44.7721
      vertex 21.2132 -80 44.7721
    endloop
  endfacet
  facet normal 0.707107 -1.57009e-16 -0.707107
    outer loop
      vertex -2.2961 -6 28.5433
      vertex -2.2961 -80 28.5433
      vertex -5.54328 -6 25.2961
    endloop
  endfacet
  facet normal 0.707107 -1.57009e-16 -0.707107
    outer loop
      vertex -5.54328 -6 25.2961
      vertex -2.2961 -80 28.5433
      vertex -5.54328 -80 25.2961
    endloop
  endfacet
  facet normal 1 1.97664e-23 8.90201e-08
    outer loop
      vertex -5.54328 -80 20.7039
      vertex -5.54328 -6 20.7039
      vertex -5.54328 -6 25.2961
    endloop
  endfacet
  facet normal 1 1.97664e-23 8.90201e-08
    outer loop
      vertex -5.54328 -80 25.2961
      vertex -5.54328 -80 20.7039
      vertex -5.54328 -6 25.2961
    endloop
  endfacet
  facet normal 0.707107 1.57009e-16 0.707107
    outer loop
      vertex -2.2961 -80 17.4567
      vertex -2.2961 -6 17.4567
      vertex -5.54328 -6 20.7039
    endloop
  endfacet
  facet normal 0.707107 1.57009e-16 0.707107
    outer loop
      vertex -5.54328 -80 20.7039
      vertex -2.2961 -80 17.4567
      vertex -5.54328 -6 20.7039
    endloop
  endfacet
  facet normal -8.90201e-08 2.22045e-16 1
    outer loop
      vertex 2.2961 -80 17.4567
      vertex 2.2961 -6 17.4567
      vertex -2.2961 -6 17.4567
    endloop
  endfacet
  facet normal -8.90201e-08 2.22045e-16 1
    outer loop
      vertex -2.2961 -80 17.4567
      vertex 2.2961 -80 17.4567
      vertex -2.2961 -6 17.4567
    endloop
  endfacet
  facet normal -0.707107 1.57009e-16 0.707107
    outer loop
      vertex 5.54328 -80 20.7039
      vertex 5.54328 -6 20.7039
      vertex 2.2961 -6 17.4567
    endloop
  endfacet
  facet normal -0.707107 1.57009e-16 0.707107
    outer loop
      vertex 2.2961 -80 17.4567
      vertex 5.54328 -80 20.7039
      vertex 2.2961 -6 17.4567
    endloop
  endfacet
  facet normal -1 -1.97664e-23 -8.90201e-08
    outer loop
      vertex 5.54328 -6 20.7039
      vertex 5.54328 -80 20.7039
      vertex 5.54328 -6 25.2961
    endloop
  endfacet
  facet normal -1 -1.97664e-23 -8.90201e-08
    outer loop
      vertex 5.54328 -6 25.2961
      vertex 5.54328 -80 20.7039
      vertex 5.54328 -80 25.2961
    endloop
  endfacet
  facet normal -0.707107 -1.57009e-16 -0.707107
    outer loop
      vertex 5.54328 -6 25.2961
      vertex 5.54328 -80 25.2961
      vertex 2.2961 -6 28.5433
    endloop
  endfacet
  facet normal -0.707107 -1.57009e-16 -0.707107
    outer loop
      vertex 2.2961 -6 28.5433
      vertex 5.54328 -80 25.2961
      vertex 2.2961 -80 28.5433
    endloop
  endfacet
  facet normal 8.90201e-08 -2.22045e-16 -1
    outer loop
      vertex 2.2961 -6 28.5433
      vertex 2.2961 -80 28.5433
      vertex -2.2961 -6 28.5433
    endloop
  endfacet
  facet normal 8.90201e-08 -2.22045e-16 -1
    outer loop
      vertex -2.2961 -6 28.5433
      vertex 2.2961 -80 28.5433
      vertex -2.2961 -80 28.5433
    endloop
  endfacet
  facet normal 0 0 1
    outer loop
      vertex 22.5 -105 57.5
      vertex 22.5 -115 57.5
      vertex 40 -115 57.5
    endloop
  endfacet
  facet normal 0 0 1
    outer loop
      vertex 30 -105 57.5
      vertex 22.5 -105 57.5
      vertex 40 -115 57.5
    endloop
  endfacet
  facet normal 0 0 1
    outer loop
      vertex 40 -102.677 57.5
      vertex 30 -105 57.5
      vertex 40 -115 57.5
    endloop
  endfacet
  facet normal 0 0 1
    outer loop
      vertex 30 -81.2318 57.5
      vertex 30 -105 57.5
      vertex 40 -102.677 57.5
    endloop
  endfacet
  facet normal 0 1 -3.70074e-16
    outer loop
      vertex 22.5 -105 57.5
      vertex 30 -105 57.5
      vertex 22.5 -105 46.636
    endloop
  endfacet
  facet normal 0.742404 0.346189 0.573576
    outer loop
      vertex 21.2132 -41.3005 44.7721
      vertex 30 -81.2318 57.5
      vertex 40 -102.677 57.5
    endloop
  endfacet
  facet normal 0.742404 0.346189 0.573576
    outer loop
      vertex 37.5063 0 -1.24409
      vertex 21.2132 -41.3005 44.7721
      vertex 40 -15.3226 4.7763
    endloop
  endfacet
  facet normal 0.742404 0.346189 0.573576
    outer loop
      vertex 40 -15.3226 4.7763
      vertex 21.2132 -41.3005 44.7721
      vertex 40 -102.677 57.5
    endloop
  endfacet
  facet normal 0.742404 0.346189 0.573576
    outer loop
      vertex 5.05671 0 40.7567
      vertex 21.2132 -41.3005 44.7721
      vertex 37.5063 0 -1.24409
    endloop
  endfacet
  facet normal 0 -1 2.22045e-16
    outer loop
      vertex -5.54328 -6 -42.5461
      vertex -2.2961 -6 -45.7933
      vertex 2.2961 -6 -45.7933
    endloop
  endfacet
  facet normal 0 -1 2.22045e-16
    outer loop
      vertex 5.54328 -6 -37.9539
      vertex 2.3097 -6 -39.2933
      vertex 5.54328 -6 -42.5461
    endloop
  endfacet
  facet normal 0 -1 2.22045e-16
    outer loop
      vertex -0.956709 -6 -42.5597
      vertex -5.54328 -6 -42.5461
      vertex 2.2961 -6 -45.7933
    endloop
  endfacet
  facet normal 0 -1 2.22045e-16
    outer loop
      vertex -5.54328 -6 -37.9539
      vertex -5.54328 -6 -42.5461
      vertex -2.2961 -6 -34.7067
    endloop
  endfacet
  facet normal 0 -1 2.22045e-16
    outer loop
      vertex 2.3097 -6 -41.2067
      vertex 0.956709 -6 -42.5597
      vertex 5.54328 -6 -42.5461
    endloop
  endfacet
  facet normal 0 -1 2.22045e-16
    outer loop
      vertex -2.2961 -6 -34.7067
      vertex -5.54328 -6 -42.5461
      vertex -2.3097 -6 -39.2933
    endloop
  endfacet
  facet normal 0 -1 2.22045e-16
    outer loop
      vertex -2.2961 -6 -34.7067
      vertex -0.956709 -6 -37.9403
      vertex 2.2961 -6 -34.7067
    endloop
  endfacet
  facet normal 0 -1 2.22045e-16
    outer loop
      vertex -2.2961 -6 -34.7067
      vertex -2.3097 -6 -39.2933
      vertex -0.956709 -6 -37.9403
    endloop
  endfacet
  facet normal 0 -1 2.22045e-16
    outer loop
      vertex 2.2961 -6 -34.7067
      vertex 0.956709 -6 -37.9403
      vertex 5.54328 -6 -37.9539
    endloop
  endfacet
  facet normal 0 -1 2.22045e-16
    outer loop
      vertex -0.956709 -6 -37.9403
      vertex 0.956709 -6 -37.9403
      vertex 2.2961 -6 -34.7067
    endloop
  endfacet
  facet normal 0 -1 2.22045e-16
    outer loop
      vertex 0.956709 -6 -37.9403
      vertex 2.3097 -6 -39.2933
      vertex 5.54328 -6 -37.9539
    endloop
  endfacet
  facet normal 0 -1 2.22045e-16
    outer loop
      vertex 2.3097 -6 -39.2933
      vertex 2.3097 -6 -41.2067
      vertex 5.54328 -6 -42.5461
    endloop
  endfacet
  facet normal 0 -1 2.22045e-16
    outer loop
      vertex 5.54328 -6 -42.5461
      vertex 0.956709 -6 -42.5597
      vertex 2.2961 -6 -45.7933
    endloop
  endfacet
  facet normal 0 -1 2.22045e-16
    outer loop
      vertex 0.956709 -6 -42.5597
      vertex -0.956709 -6 -42.5597
      vertex 2.2961 -6 -45.7933
    endloop
  endfacet
  facet normal 0 -1 2.22045e-16
    outer loop
      vertex -0.956709 -6 -42.5597
      vertex -2.3097 -6 -41.2067
      vertex -5.54328 -6 -42.5461
    endloop
  endfacet
  facet normal 0 -1 2.22045e-16
    outer loop
      vertex -2.3097 -6 -41.2067
      vertex -2.3097 -6 -39.2933
      vertex -5.54328 -6 -42.5461
    endloop
  endfacet
  facet normal 0.707107 -1.57009e-16 -0.707107
    outer loop
      vertex -0.956709 0 -37.9403
      vertex -0.956709 -6 -37.9403
      vertex -2.3097 0 -39.2933
    endloop
  endfacet
  facet normal 0.707107 -1.57009e-16 -0.707107
    outer loop
      vertex -2.3097 0 -39.2933
      vertex -0.956709 -6 -37.9403
      vertex -2.3097 -6 -39.2933
    endloop
  endfacet
  facet normal 1 7.13131e-24 3.21166e-08
    outer loop
      vertex -2.3097 -6 -41.2067
      vertex -2.3097 0 -41.2067
      vertex -2.3097 0 -39.2933
    endloop
  endfacet
  facet normal 1 7.13131e-24 3.21166e-08
    outer loop
      vertex -2.3097 -6 -39.2933
      vertex -2.3097 -6 -41.2067
      vertex -2.3097 0 -39.2933
    endloop
  endfacet
  facet normal 3.21166e-08 -2.22045e-16 -1
    outer loop
      vertex 0.956709 0 -37.9403
      vertex 0.956709 -6 -37.9403
      vertex -0.956709 0 -37.9403
    endloop
  endfacet
  facet normal 3.21166e-08 -2.22045e-16 -1
    outer loop
      vertex -0.956709 0 -37.9403
      vertex 0.956709 -6 -37.9403
      vertex -0.956709 -6 -37.9403
    endloop
  endfacet
  facet normal -0.707107 -1.57009e-16 -0.707107
    outer loop
      vertex 2.3097 0 -39.2933
      vertex 2.3097 -6 -39.2933
      vertex 0.956709 0 -37.9403
    endloop
  endfacet
  facet normal -0.707107 -1.57009e-16 -0.707107
    outer loop
      vertex 0.956709 0 -37.9403
      vertex 2.3097 -6 -39.2933
      vertex 0.956709 -6 -37.9403
    endloop
  endfacet
  facet normal -1 -7.13131e-24 -3.21166e-08
    outer loop
      vertex 2.3097 0 -41.2067
      vertex 2.3097 -6 -41.2067
      vertex 2.3097 0 -39.2933
    endloop
  endfacet
  facet normal -1 -7.13131e-24 -3.21166e-08
    outer loop
      vertex 2.3097 0 -39.2933
      vertex 2.3097 -6 -41.2067
      vertex 2.3097 -6 -39.2933
    endloop
  endfacet
  facet normal -0.707107 1.57009e-16 0.707107
    outer loop
      vertex 2.3097 -6 -41.2067
      vertex 2.3097 0 -41.2067
      vertex 0.956709 0 -42.5597
    endloop
  endfacet
  facet normal -0.707107 1.57009e-16 0.707107
    outer loop
      vertex 0.956709 -6 -42.5597
      vertex 2.3097 -6 -41.2067
      vertex 0.956709 0 -42.5597
    endloop
  endfacet
  facet normal -3.21166e-08 2.22045e-16 1
    outer loop
      vertex 0.956709 -6 -42.5597
      vertex 0.956709 0 -42.5597
      vertex -0.956709 0 -42.5597
    endloop
  endfacet
  facet normal -3.21166e-08 2.22045e-16 1
    outer loop
      vertex -0.956709 -6 -42.5597
      vertex 0.956709 -6 -42.5597
      vertex -0.956709 0 -42.5597
    endloop
  endfacet
  facet normal 0.707107 1.57009e-16 0.707107
    outer loop
      vertex -0.956709 -6 -42.5597
      vertex -0.956709 0 -42.5597
      vertex -2.3097 0 -41.2067
    endloop
  endfacet
  facet normal 0.707107 1.57009e-16 0.707107
    outer loop
      vertex -2.3097 -6 -41.2067
      vertex -0.956709 -6 -42.5597
      vertex -2.3097 0 -41.2067
    endloop
  endfacet
  facet normal 0.707107 -1.57009e-16 -0.707107
    outer loop
      vertex -0.956709 0 25.3097
      vertex -0.956709 -6 25.3097
      vertex -2.3097 0 23.9567
    endloop
  endfacet
  facet normal 0.707107 -1.57009e-16 -0.707107
    outer loop
      vertex -2.3097 0 23.9567
      vertex -0.956709 -6 25.3097
      vertex -2.3097 -6 23.9567
    endloop
  endfacet
  facet normal 1 7.13131e-24 3.21166e-08
    outer loop
      vertex -2.3097 -6 22.0433
      vertex -2.3097 0 22.0433
      vertex -2.3097 0 23.9567
    endloop
  endfacet
  facet normal 1 7.13131e-24 3.21166e-08
    outer loop
      vertex -2.3097 -6 23.9567
      vertex -2.3097 -6 22.0433
      vertex -2.3097 0 23.9567
    endloop
  endfacet
  facet normal 3.21166e-08 -2.22045e-16 -1
    outer loop
      vertex 0.956709 0 25.3097
      vertex 0.956709 -6 25.3097
      vertex -0.956709 0 25.3097
    endloop
  endfacet
  facet normal 3.21166e-08 -2.22045e-16 -1
    outer loop
      vertex -0.956709 0 25.3097
      vertex 0.956709 -6 25.3097
      vertex -0.956709 -6 25.3097
    endloop
  endfacet
  facet normal -0.707107 -1.57009e-16 -0.707107
    outer loop
      vertex 2.3097 0 23.9567
      vertex 2.3097 -6 23.9567
      vertex 0.956709 0 25.3097
    endloop
  endfacet
  facet normal -0.707107 -1.57009e-16 -0.707107
    outer loop
      vertex 0.956709 0 25.3097
      vertex 2.3097 -6 23.9567
      vertex 0.956709 -6 25.3097
    endloop
  endfacet
  facet normal -1 -7.13131e-24 -3.21166e-08
    outer loop
      vertex 2.3097 0 22.0433
      vertex 2.3097 -6 22.0433
      vertex 2.3097 0 23.9567
    endloop
  endfacet
  facet normal -1 -7.13131e-24 -3.21166e-08
    outer loop
      vertex 2.3097 0 23.9567
      vertex 2.3097 -6 22.0433
      vertex 2.3097 -6 23.9567
    endloop
  endfacet
  facet normal -0.707107 1.57009e-16 0.707107
    outer loop
      vertex 2.3097 -6 22.0433
      vertex 2.3097 0 22.0433
      vertex 0.956709 0 20.6903
    endloop
  endfacet
  facet normal -0.707107 1.57009e-16 0.707107
    outer loop
      vertex 0.956709 -6 20.6903
      vertex 2.3097 -6 22.0433
      vertex 0.956709 0 20.6903
    endloop
  endfacet
  facet normal -3.21166e-08 2.22045e-16 1
    outer loop
      vertex 0.956709 -6 20.6903
      vertex 0.956709 0 20.6903
      vertex -0.956709 0 20.6903
    endloop
  endfacet
  facet normal -3.21166e-08 2.22045e-16 1
    outer loop
      vertex -0.956709 -6 20.6903
      vertex 0.956709 -6 20.6903
      vertex -0.956709 0 20.6903
    endloop
  endfacet
  facet normal 0.707107 1.57009e-16 0.707107
    outer loop
      vertex -0.956709 -6 20.6903
      vertex -0.956709 0 20.6903
      vertex -2.3097 0 22.0433
    endloop
  endfacet
  facet normal 0.707107 1.57009e-16 0.707107
    outer loop
      vertex -2.3097 -6 22.0433
      vertex -0.956709 -6 20.6903
      vertex -2.3097 0 22.0433
    endloop
  endfacet
  facet normal 0 -1 2.22045e-16
    outer loop
      vertex -5.54328 -6 20.7039
      vertex -2.2961 -6 17.4567
      vertex 2.2961 -6 17.4567
    endloop
  endfacet
  facet normal 0 -1 2.22045e-16
    outer loop
      vertex 5.54328 -6 25.2961
      vertex 2.3097 -6 23.9567
      vertex 5.54328 -6 20.7039
    endloop
  endfacet
  facet normal 0 -1 2.22045e-16
    outer loop
      vertex -0.956709 -6 20.6903
      vertex -5.54328 -6 20.7039
      vertex 2.2961 -6 17.4567
    endloop
  endfacet
  facet normal 0 -1 2.22045e-16
    outer loop
      vertex -5.54328 -6 25.2961
      vertex -5.54328 -6 20.7039
      vertex -2.2961 -6 28.5433
    endloop
  endfacet
  facet normal 0 -1 2.22045e-16
    outer loop
      vertex 2.3097 -6 22.0433
      vertex 0.956709 -6 20.6903
      vertex 5.54328 -6 20.7039
    endloop
  endfacet
  facet normal 0 -1 2.22045e-16
    outer loop
      vertex -2.2961 -6 28.5433
      vertex -5.54328 -6 20.7039
      vertex -2.3097 -6 23.9567
    endloop
  endfacet
  facet normal 0 -1 2.22045e-16
    outer loop
      vertex -2.2961 -6 28.5433
      vertex -0.956709 -6 25.3097
      vertex 2.2961 -6 28.5433
    endloop
  endfacet
  facet normal 0 -1 2.22045e-16
    outer loop
      vertex -2.2961 -6 28.5433
      vertex -2.3097 -6 23.9567
      vertex -0.956709 -6 25.3097
    endloop
  endfacet
  facet normal 0 -1 2.22045e-16
    outer loop
      vertex 2.2961 -6 28.5433
      vertex 0.956709 -6 25.3097
      vertex 5.54328 -6 25.2961
    endloop
  endfacet
  facet normal 0 -1 2.22045e-16
    outer loop
      vertex -0.956709 -6 25.3097
      vertex 0.956709 -6 25.3097
      vertex 2.2961 -6 28.5433
    endloop
  endfacet
  facet normal 0 -1 2.22045e-16
    outer loop
      vertex 0.956709 -6 25.3097
      vertex 2.3097 -6 23.9567
      vertex 5.54328 -6 25.2961
    endloop
  endfacet
  facet normal 0 -1 2.22045e-16
    outer loop
      vertex 2.3097 -6 23.9567
      vertex 2.3097 -6 22.0433
      vertex 5.54328 -6 20.7039
    endloop
  endfacet
  facet normal 0 -1 2.22045e-16
    outer loop
      vertex 5.54328 -6 20.7039
      vertex 0.956709 -6 20.6903
      vertex 2.2961 -6 17.4567
    endloop
  endfacet
  facet normal 0 -1 2.22045e-16
    outer loop
      vertex 0.956709 -6 20.6903
      vertex -0.956709 -6 20.6903
      vertex 2.2961 -6 17.4567
    endloop
  endfacet
  facet normal 0 -1 2.22045e-16
    outer loop
      vertex -0.956709 -6 20.6903
      vertex -2.3097 -6 22.0433
      vertex -5.54328 -6 20.7039
    endloop
  endfacet
  facet normal 0 -1 2.22045e-16
    outer loop
      vertex -2.3097 -6 22.0433
      vertex -2.3097 -6 23.9567
      vertex -5.54328 -6 20.7039
    endloop
  endfacet
endsolid OpenSCAD_Model
