  0
SECTION
  2
BLOCKS
  0
ENDSEC
  0
SECTION
  2
ENTITIES
  0
LINE
  8
0
 10
63.5
 20
93.5
 11
-63.5
 21
93.5
  0
LINE
  8
0
 10
-63.5
 20
93.5
 11
-63.5
 21
-93.5
  0
LINE
  8
0
 10
-63.5
 20
-93.5
 11
63.5
 21
-93.5
  0
LINE
  8
0
 10
63.5
 20
-93.5
 11
63.5
 21
93.5
  0
LINE
  8
0
 10
-61
 20
-91
 11
-61
 21
91
  0
LINE
  8
0
 10
-61
 20
91
 11
61
 21
91
  0
LINE
  8
0
 10
61
 20
91
 11
61
 21
-91
  0
LINE
  8
0
 10
61
 20
-91
 11
-61
 21
-91
  0
LINE
  8
0
 10
52.7292
 20
70.3183
 11
53.1842
 21
70.5067
  0
LINE
  8
0
 10
53.1842
 20
70.5067
 11
53.5936
 21
70.7803
  0
LINE
  8
0
 10
53.5936
 20
70.7803
 11
53.9419
 21
71.1286
  0
LINE
  8
0
 10
53.9419
 20
71.1286
 11
54.2155
 21
71.538
  0
LINE
  8
0
 10
54.2155
 20
71.538
 11
54.4039
 21
71.993
  0
LINE
  8
0
 10
54.4039
 20
71.993
 11
54.5
 21
72.476
  0
LINE
  8
0
 10
54.5
 20
72.476
 11
54.5
 21
72.9684
  0
LINE
  8
0
 10
54.5
 20
72.9684
 11
54.4039
 21
73.4514
  0
LINE
  8
0
 10
54.4039
 20
73.4514
 11
54.2155
 21
73.9064
  0
LINE
  8
0
 10
54.2155
 20
73.9064
 11
53.9419
 21
74.3159
  0
LINE
  8
0
 10
53.9419
 20
74.3159
 11
53.5936
 21
74.6641
  0
LINE
  8
0
 10
53.5936
 20
74.6641
 11
53.1842
 21
74.9377
  0
LINE
  8
0
 10
53.1842
 20
74.9377
 11
52.7292
 21
75.1261
  0
LINE
  8
0
 10
52.7292
 20
75.1261
 11
52.2462
 21
75.2222
  0
LINE
  8
0
 10
52.2462
 20
75.2222
 11
51.7538
 21
75.2222
  0
LINE
  8
0
 10
51.7538
 20
75.2222
 11
51.2708
 21
75.1261
  0
LINE
  8
0
 10
51.2708
 20
75.1261
 11
50.8158
 21
74.9377
  0
LINE
  8
0
 10
50.8158
 20
74.9377
 11
50.4063
 21
74.6641
  0
LINE
  8
0
 10
50.4063
 20
74.6641
 11
50.0581
 21
74.3159
  0
LINE
  8
0
 10
50.0581
 20
74.3159
 11
49.7845
 21
73.9064
  0
LINE
  8
0
 10
49.7845
 20
73.9064
 11
49.5961
 21
73.4514
  0
LINE
  8
0
 10
49.5961
 20
73.4514
 11
49.5
 21
72.9684
  0
LINE
  8
0
 10
49.5
 20
72.9684
 11
49.5
 21
72.476
  0
LINE
  8
0
 10
49.5
 20
72.476
 11
49.5961
 21
71.993
  0
LINE
  8
0
 10
49.5961
 20
71.993
 11
49.7845
 21
71.538
  0
LINE
  8
0
 10
49.7845
 20
71.538
 11
50.0581
 21
71.1286
  0
LINE
  8
0
 10
50.0581
 20
71.1286
 11
50.4063
 21
70.7803
  0
LINE
  8
0
 10
50.4063
 20
70.7803
 11
50.8158
 21
70.5067
  0
LINE
  8
0
 10
50.8158
 20
70.5067
 11
51.2708
 21
70.3183
  0
LINE
  8
0
 10
51.2708
 20
70.3183
 11
51.7538
 21
70.2222
  0
LINE
  8
0
 10
51.7538
 20
70.2222
 11
52.2462
 21
70.2222
  0
LINE
  8
0
 10
52.2462
 20
70.2222
 11
52.7292
 21
70.3183
  0
LINE
  8
0
 10
-51.2708
 20
70.3183
 11
-50.8158
 21
70.5067
  0
LINE
  8
0
 10
-50.8158
 20
70.5067
 11
-50.4063
 21
70.7803
  0
LINE
  8
0
 10
-50.4063
 20
70.7803
 11
-50.0581
 21
71.1286
  0
LINE
  8
0
 10
-50.0581
 20
71.1286
 11
-49.7845
 21
71.538
  0
LINE
  8
0
 10
-49.7845
 20
71.538
 11
-49.5961
 21
71.993
  0
LINE
  8
0
 10
-49.5961
 20
71.993
 11
-49.5
 21
72.476
  0
LINE
  8
0
 10
-49.5
 20
72.476
 11
-49.5
 21
72.9684
  0
LINE
  8
0
 10
-49.5
 20
72.9684
 11
-49.5961
 21
73.4514
  0
LINE
  8
0
 10
-49.5961
 20
73.4514
 11
-49.7845
 21
73.9064
  0
LINE
  8
0
 10
-49.7845
 20
73.9064
 11
-50.0581
 21
74.3159
  0
LINE
  8
0
 10
-50.0581
 20
74.3159
 11
-50.4063
 21
74.6641
  0
LINE
  8
0
 10
-50.4063
 20
74.6641
 11
-50.8158
 21
74.9377
  0
LINE
  8
0
 10
-50.8158
 20
74.9377
 11
-51.2708
 21
75.1261
  0
LINE
  8
0
 10
-51.2708
 20
75.1261
 11
-51.7538
 21
75.2222
  0
LINE
  8
0
 10
-51.7538
 20
75.2222
 11
-52.2462
 21
75.2222
  0
LINE
  8
0
 10
-52.2462
 20
75.2222
 11
-52.7292
 21
75.1261
  0
LINE
  8
0
 10
-52.7292
 20
75.1261
 11
-53.1842
 21
74.9377
  0
LINE
  8
0
 10
-53.1842
 20
74.9377
 11
-53.5936
 21
74.6641
  0
LINE
  8
0
 10
-53.5936
 20
74.6641
 11
-53.9419
 21
74.3159
  0
LINE
  8
0
 10
-53.9419
 20
74.3159
 11
-54.2155
 21
73.9064
  0
LINE
  8
0
 10
-54.2155
 20
73.9064
 11
-54.4039
 21
73.4514
  0
LINE
  8
0
 10
-54.4039
 20
73.4514
 11
-54.5
 21
72.9684
  0
LINE
  8
0
 10
-54.5
 20
72.9684
 11
-54.5
 21
72.476
  0
LINE
  8
0
 10
-54.5
 20
72.476
 11
-54.4039
 21
71.993
  0
LINE
  8
0
 10
-54.4039
 20
71.993
 11
-54.2155
 21
71.538
  0
LINE
  8
0
 10
-54.2155
 20
71.538
 11
-53.9419
 21
71.1286
  0
LINE
  8
0
 10
-53.9419
 20
71.1286
 11
-53.5936
 21
70.7803
  0
LINE
  8
0
 10
-53.5936
 20
70.7803
 11
-53.1842
 21
70.5067
  0
LINE
  8
0
 10
-53.1842
 20
70.5067
 11
-52.7292
 21
70.3183
  0
LINE
  8
0
 10
-52.7292
 20
70.3183
 11
-52.2462
 21
70.2222
  0
LINE
  8
0
 10
-52.2462
 20
70.2222
 11
-51.7538
 21
70.2222
  0
LINE
  8
0
 10
-51.7538
 20
70.2222
 11
-51.2708
 21
70.3183
  0
LINE
  8
0
 10
-35.5208
 20
59.9294
 11
-35.0658
 21
60.1179
  0
LINE
  8
0
 10
-35.0658
 20
60.1179
 11
-34.6563
 21
60.3914
  0
LINE
  8
0
 10
-34.6563
 20
60.3914
 11
-34.3081
 21
60.7397
  0
LINE
  8
0
 10
-34.3081
 20
60.7397
 11
-34.0345
 21
61.1491
  0
LINE
  8
0
 10
-34.0345
 20
61.1491
 11
-33.8461
 21
61.6041
  0
LINE
  8
0
 10
-33.8461
 20
61.6041
 11
-33.75
 21
62.0871
  0
LINE
  8
0
 10
-33.75
 20
62.0871
 11
-33.75
 21
62.5796
  0
LINE
  8
0
 10
-33.75
 20
62.5796
 11
-33.8461
 21
63.0625
  0
LINE
  8
0
 10
-33.8461
 20
63.0625
 11
-34.0345
 21
63.5175
  0
LINE
  8
0
 10
-34.0345
 20
63.5175
 11
-34.3081
 21
63.927
  0
LINE
  8
0
 10
-34.3081
 20
63.927
 11
-34.6563
 21
64.2752
  0
LINE
  8
0
 10
-34.6563
 20
64.2752
 11
-35.0658
 21
64.5488
  0
LINE
  8
0
 10
-35.0658
 20
64.5488
 11
-35.5208
 21
64.7373
  0
LINE
  8
0
 10
-35.5208
 20
64.7373
 11
-36.0038
 21
64.8333
  0
LINE
  8
0
 10
-36.0038
 20
64.8333
 11
-36.4962
 21
64.8333
  0
LINE
  8
0
 10
-36.4962
 20
64.8333
 11
-36.9792
 21
64.7373
  0
LINE
  8
0
 10
-36.9792
 20
64.7373
 11
-37.4342
 21
64.5488
  0
LINE
  8
0
 10
-37.4342
 20
64.5488
 11
-37.8436
 21
64.2752
  0
LINE
  8
0
 10
-37.8436
 20
64.2752
 11
-38.1919
 21
63.927
  0
LINE
  8
0
 10
-38.1919
 20
63.927
 11
-38.4655
 21
63.5175
  0
LINE
  8
0
 10
-38.4655
 20
63.5175
 11
-38.6539
 21
63.0625
  0
LINE
  8
0
 10
-38.6539
 20
63.0625
 11
-38.75
 21
62.5796
  0
LINE
  8
0
 10
-38.75
 20
62.5796
 11
-38.75
 21
62.0871
  0
LINE
  8
0
 10
-38.75
 20
62.0871
 11
-38.6539
 21
61.6041
  0
LINE
  8
0
 10
-38.6539
 20
61.6041
 11
-38.4655
 21
61.1491
  0
LINE
  8
0
 10
-38.4655
 20
61.1491
 11
-38.1919
 21
60.7397
  0
LINE
  8
0
 10
-38.1919
 20
60.7397
 11
-37.8436
 21
60.3914
  0
LINE
  8
0
 10
-37.8436
 20
60.3914
 11
-37.4342
 21
60.1179
  0
LINE
  8
0
 10
-37.4342
 20
60.1179
 11
-36.9792
 21
59.9294
  0
LINE
  8
0
 10
-36.9792
 20
59.9294
 11
-36.4962
 21
59.8333
  0
LINE
  8
0
 10
-36.4962
 20
59.8333
 11
-36.0038
 21
59.8333
  0
LINE
  8
0
 10
-36.0038
 20
59.8333
 11
-35.5208
 21
59.9294
  0
LINE
  8
0
 10
36.9792
 20
59.9294
 11
37.4342
 21
60.1179
  0
LINE
  8
0
 10
37.4342
 20
60.1179
 11
37.8436
 21
60.3914
  0
LINE
  8
0
 10
37.8436
 20
60.3914
 11
38.1919
 21
60.7397
  0
LINE
  8
0
 10
38.1919
 20
60.7397
 11
38.4655
 21
61.1491
  0
LINE
  8
0
 10
38.4655
 20
61.1491
 11
38.6539
 21
61.6041
  0
LINE
  8
0
 10
38.6539
 20
61.6041
 11
38.75
 21
62.0871
  0
LINE
  8
0
 10
38.75
 20
62.0871
 11
38.75
 21
62.5796
  0
LINE
  8
0
 10
38.75
 20
62.5796
 11
38.6539
 21
63.0625
  0
LINE
  8
0
 10
38.6539
 20
63.0625
 11
38.4655
 21
63.5175
  0
LINE
  8
0
 10
38.4655
 20
63.5175
 11
38.1919
 21
63.927
  0
LINE
  8
0
 10
38.1919
 20
63.927
 11
37.8436
 21
64.2752
  0
LINE
  8
0
 10
37.8436
 20
64.2752
 11
37.4342
 21
64.5488
  0
LINE
  8
0
 10
37.4342
 20
64.5488
 11
36.9792
 21
64.7373
  0
LINE
  8
0
 10
36.9792
 20
64.7373
 11
36.4962
 21
64.8333
  0
LINE
  8
0
 10
36.4962
 20
64.8333
 11
36.0038
 21
64.8333
  0
LINE
  8
0
 10
36.0038
 20
64.8333
 11
35.5208
 21
64.7373
  0
LINE
  8
0
 10
35.5208
 20
64.7373
 11
35.0658
 21
64.5488
  0
LINE
  8
0
 10
35.0658
 20
64.5488
 11
34.6563
 21
64.2752
  0
LINE
  8
0
 10
34.6563
 20
64.2752
 11
34.3081
 21
63.927
  0
LINE
  8
0
 10
34.3081
 20
63.927
 11
34.0345
 21
63.5175
  0
LINE
  8
0
 10
34.0345
 20
63.5175
 11
33.8461
 21
63.0625
  0
LINE
  8
0
 10
33.8461
 20
63.0625
 11
33.75
 21
62.5796
  0
LINE
  8
0
 10
33.75
 20
62.5796
 11
33.75
 21
62.0871
  0
LINE
  8
0
 10
33.75
 20
62.0871
 11
33.8461
 21
61.6041
  0
LINE
  8
0
 10
33.8461
 20
61.6041
 11
34.0345
 21
61.1491
  0
LINE
  8
0
 10
34.0345
 20
61.1491
 11
34.3081
 21
60.7397
  0
LINE
  8
0
 10
34.3081
 20
60.7397
 11
34.6563
 21
60.3914
  0
LINE
  8
0
 10
34.6563
 20
60.3914
 11
35.0658
 21
60.1179
  0
LINE
  8
0
 10
35.0658
 20
60.1179
 11
35.5208
 21
59.9294
  0
LINE
  8
0
 10
35.5208
 20
59.9294
 11
36.0038
 21
59.8333
  0
LINE
  8
0
 10
36.0038
 20
59.8333
 11
36.4962
 21
59.8333
  0
LINE
  8
0
 10
36.4962
 20
59.8333
 11
36.9792
 21
59.9294
  0
LINE
  8
0
 10
-51.2708
 20
49.5405
 11
-50.8158
 21
49.729
  0
LINE
  8
0
 10
-50.8158
 20
49.729
 11
-50.4063
 21
50.0026
  0
LINE
  8
0
 10
-50.4063
 20
50.0026
 11
-50.0581
 21
50.3508
  0
LINE
  8
0
 10
-50.0581
 20
50.3508
 11
-49.7845
 21
50.7602
  0
LINE
  8
0
 10
-49.7845
 20
50.7602
 11
-49.5961
 21
51.2152
  0
LINE
  8
0
 10
-49.5961
 20
51.2152
 11
-49.5
 21
51.6982
  0
LINE
  8
0
 10
-49.5
 20
51.6982
 11
-49.5
 21
52.1907
  0
LINE
  8
0
 10
-49.5
 20
52.1907
 11
-49.5961
 21
52.6737
  0
LINE
  8
0
 10
-49.5961
 20
52.6737
 11
-49.7845
 21
53.1286
  0
LINE
  8
0
 10
-49.7845
 20
53.1286
 11
-50.0581
 21
53.5381
  0
LINE
  8
0
 10
-50.0581
 20
53.5381
 11
-50.4063
 21
53.8863
  0
LINE
  8
0
 10
-50.4063
 20
53.8863
 11
-50.8158
 21
54.1599
  0
LINE
  8
0
 10
-50.8158
 20
54.1599
 11
-51.2708
 21
54.3484
  0
LINE
  8
0
 10
-51.2708
 20
54.3484
 11
-51.7538
 21
54.4444
  0
LINE
  8
0
 10
-51.7538
 20
54.4444
 11
-52.2462
 21
54.4444
  0
LINE
  8
0
 10
-52.2462
 20
54.4444
 11
-52.7292
 21
54.3484
  0
LINE
  8
0
 10
-52.7292
 20
54.3484
 11
-53.1842
 21
54.1599
  0
LINE
  8
0
 10
-53.1842
 20
54.1599
 11
-53.5936
 21
53.8863
  0
LINE
  8
0
 10
-53.5936
 20
53.8863
 11
-53.9419
 21
53.5381
  0
LINE
  8
0
 10
-53.9419
 20
53.5381
 11
-54.2155
 21
53.1286
  0
LINE
  8
0
 10
-54.2155
 20
53.1286
 11
-54.4039
 21
52.6737
  0
LINE
  8
0
 10
-54.4039
 20
52.6737
 11
-54.5
 21
52.1907
  0
LINE
  8
0
 10
-54.5
 20
52.1907
 11
-54.5
 21
51.6982
  0
LINE
  8
0
 10
-54.5
 20
51.6982
 11
-54.4039
 21
51.2152
  0
LINE
  8
0
 10
-54.4039
 20
51.2152
 11
-54.2155
 21
50.7602
  0
LINE
  8
0
 10
-54.2155
 20
50.7602
 11
-53.9419
 21
50.3508
  0
LINE
  8
0
 10
-53.9419
 20
50.3508
 11
-53.5936
 21
50.0026
  0
LINE
  8
0
 10
-53.5936
 20
50.0026
 11
-53.1842
 21
49.729
  0
LINE
  8
0
 10
-53.1842
 20
49.729
 11
-52.7292
 21
49.5405
  0
LINE
  8
0
 10
-52.7292
 20
49.5405
 11
-52.2462
 21
49.4444
  0
LINE
  8
0
 10
-52.2462
 20
49.4444
 11
-51.7538
 21
49.4444
  0
LINE
  8
0
 10
-51.7538
 20
49.4444
 11
-51.2708
 21
49.5405
  0
LINE
  8
0
 10
52.7292
 20
49.5405
 11
53.1842
 21
49.729
  0
LINE
  8
0
 10
53.1842
 20
49.729
 11
53.5936
 21
50.0026
  0
LINE
  8
0
 10
53.5936
 20
50.0026
 11
53.9419
 21
50.3508
  0
LINE
  8
0
 10
53.9419
 20
50.3508
 11
54.2155
 21
50.7602
  0
LINE
  8
0
 10
54.2155
 20
50.7602
 11
54.4039
 21
51.2152
  0
LINE
  8
0
 10
54.4039
 20
51.2152
 11
54.5
 21
51.6982
  0
LINE
  8
0
 10
54.5
 20
51.6982
 11
54.5
 21
52.1907
  0
LINE
  8
0
 10
54.5
 20
52.1907
 11
54.4039
 21
52.6737
  0
LINE
  8
0
 10
54.4039
 20
52.6737
 11
54.2155
 21
53.1286
  0
LINE
  8
0
 10
54.2155
 20
53.1286
 11
53.9419
 21
53.5381
  0
LINE
  8
0
 10
53.9419
 20
53.5381
 11
53.5936
 21
53.8863
  0
LINE
  8
0
 10
53.5936
 20
53.8863
 11
53.1842
 21
54.1599
  0
LINE
  8
0
 10
53.1842
 20
54.1599
 11
52.7292
 21
54.3484
  0
LINE
  8
0
 10
52.7292
 20
54.3484
 11
52.2462
 21
54.4444
  0
LINE
  8
0
 10
52.2462
 20
54.4444
 11
51.7538
 21
54.4444
  0
LINE
  8
0
 10
51.7538
 20
54.4444
 11
51.2708
 21
54.3484
  0
LINE
  8
0
 10
51.2708
 20
54.3484
 11
50.8158
 21
54.1599
  0
LINE
  8
0
 10
50.8158
 20
54.1599
 11
50.4063
 21
53.8863
  0
LINE
  8
0
 10
50.4063
 20
53.8863
 11
50.0581
 21
53.5381
  0
LINE
  8
0
 10
50.0581
 20
53.5381
 11
49.7845
 21
53.1286
  0
LINE
  8
0
 10
49.7845
 20
53.1286
 11
49.5961
 21
52.6737
  0
LINE
  8
0
 10
49.5961
 20
52.6737
 11
49.5
 21
52.1907
  0
LINE
  8
0
 10
49.5
 20
52.1907
 11
49.5
 21
51.6982
  0
LINE
  8
0
 10
49.5
 20
51.6982
 11
49.5961
 21
51.2152
  0
LINE
  8
0
 10
49.5961
 20
51.2152
 11
49.7845
 21
50.7602
  0
LINE
  8
0
 10
49.7845
 20
50.7602
 11
50.0581
 21
50.3508
  0
LINE
  8
0
 10
50.0581
 20
50.3508
 11
50.4063
 21
50.0026
  0
LINE
  8
0
 10
50.4063
 20
50.0026
 11
50.8158
 21
49.729
  0
LINE
  8
0
 10
50.8158
 20
49.729
 11
51.2708
 21
49.5405
  0
LINE
  8
0
 10
51.2708
 20
49.5405
 11
51.7538
 21
49.4444
  0
LINE
  8
0
 10
51.7538
 20
49.4444
 11
52.2462
 21
49.4444
  0
LINE
  8
0
 10
52.2462
 20
49.4444
 11
52.7292
 21
49.5405
  0
LINE
  8
0
 10
-35.5208
 20
39.1516
 11
-35.0658
 21
39.3401
  0
LINE
  8
0
 10
-35.0658
 20
39.3401
 11
-34.6563
 21
39.6137
  0
LINE
  8
0
 10
-34.6563
 20
39.6137
 11
-34.3081
 21
39.9619
  0
LINE
  8
0
 10
-34.3081
 20
39.9619
 11
-34.0345
 21
40.3714
  0
LINE
  8
0
 10
-34.0345
 20
40.3714
 11
-33.8461
 21
40.8263
  0
LINE
  8
0
 10
-33.8461
 20
40.8263
 11
-33.75
 21
41.3093
  0
LINE
  8
0
 10
-33.75
 20
41.3093
 11
-33.75
 21
41.8018
  0
LINE
  8
0
 10
-33.75
 20
41.8018
 11
-33.8461
 21
42.2848
  0
LINE
  8
0
 10
-33.8461
 20
42.2848
 11
-34.0345
 21
42.7397
  0
LINE
  8
0
 10
-34.0345
 20
42.7397
 11
-34.3081
 21
43.1492
  0
LINE
  8
0
 10
-34.3081
 20
43.1492
 11
-34.6563
 21
43.4974
  0
LINE
  8
0
 10
-34.6563
 20
43.4974
 11
-35.0658
 21
43.771
  0
LINE
  8
0
 10
-35.0658
 20
43.771
 11
-35.5208
 21
43.9595
  0
LINE
  8
0
 10
-35.5208
 20
43.9595
 11
-36.0038
 21
44.0555
  0
LINE
  8
0
 10
-36.0038
 20
44.0555
 11
-36.4962
 21
44.0555
  0
LINE
  8
0
 10
-36.4962
 20
44.0555
 11
-36.9792
 21
43.9595
  0
LINE
  8
0
 10
-36.9792
 20
43.9595
 11
-37.4342
 21
43.771
  0
LINE
  8
0
 10
-37.4342
 20
43.771
 11
-37.8436
 21
43.4974
  0
LINE
  8
0
 10
-37.8436
 20
43.4974
 11
-38.1919
 21
43.1492
  0
LINE
  8
0
 10
-38.1919
 20
43.1492
 11
-38.4655
 21
42.7397
  0
LINE
  8
0
 10
-38.4655
 20
42.7397
 11
-38.6539
 21
42.2848
  0
LINE
  8
0
 10
-38.6539
 20
42.2848
 11
-38.75
 21
41.8018
  0
LINE
  8
0
 10
-38.75
 20
41.8018
 11
-38.75
 21
41.3093
  0
LINE
  8
0
 10
-38.75
 20
41.3093
 11
-38.6539
 21
40.8263
  0
LINE
  8
0
 10
-38.6539
 20
40.8263
 11
-38.4655
 21
40.3714
  0
LINE
  8
0
 10
-38.4655
 20
40.3714
 11
-38.1919
 21
39.9619
  0
LINE
  8
0
 10
-38.1919
 20
39.9619
 11
-37.8436
 21
39.6137
  0
LINE
  8
0
 10
-37.8436
 20
39.6137
 11
-37.4342
 21
39.3401
  0
LINE
  8
0
 10
-37.4342
 20
39.3401
 11
-36.9792
 21
39.1516
  0
LINE
  8
0
 10
-36.9792
 20
39.1516
 11
-36.4962
 21
39.0555
  0
LINE
  8
0
 10
-36.4962
 20
39.0555
 11
-36.0038
 21
39.0555
  0
LINE
  8
0
 10
-36.0038
 20
39.0555
 11
-35.5208
 21
39.1516
  0
LINE
  8
0
 10
36.9792
 20
39.1516
 11
37.4342
 21
39.3401
  0
LINE
  8
0
 10
37.4342
 20
39.3401
 11
37.8436
 21
39.6137
  0
LINE
  8
0
 10
37.8436
 20
39.6137
 11
38.1919
 21
39.9619
  0
LINE
  8
0
 10
38.1919
 20
39.9619
 11
38.4655
 21
40.3714
  0
LINE
  8
0
 10
38.4655
 20
40.3714
 11
38.6539
 21
40.8263
  0
LINE
  8
0
 10
38.6539
 20
40.8263
 11
38.75
 21
41.3093
  0
LINE
  8
0
 10
38.75
 20
41.3093
 11
38.75
 21
41.8018
  0
LINE
  8
0
 10
38.75
 20
41.8018
 11
38.6539
 21
42.2848
  0
LINE
  8
0
 10
38.6539
 20
42.2848
 11
38.4655
 21
42.7397
  0
LINE
  8
0
 10
38.4655
 20
42.7397
 11
38.1919
 21
43.1492
  0
LINE
  8
0
 10
38.1919
 20
43.1492
 11
37.8436
 21
43.4974
  0
LINE
  8
0
 10
37.8436
 20
43.4974
 11
37.4342
 21
43.771
  0
LINE
  8
0
 10
37.4342
 20
43.771
 11
36.9792
 21
43.9595
  0
LINE
  8
0
 10
36.9792
 20
43.9595
 11
36.4962
 21
44.0555
  0
LINE
  8
0
 10
36.4962
 20
44.0555
 11
36.0038
 21
44.0555
  0
LINE
  8
0
 10
36.0038
 20
44.0555
 11
35.5208
 21
43.9595
  0
LINE
  8
0
 10
35.5208
 20
43.9595
 11
35.0658
 21
43.771
  0
LINE
  8
0
 10
35.0658
 20
43.771
 11
34.6563
 21
43.4974
  0
LINE
  8
0
 10
34.6563
 20
43.4974
 11
34.3081
 21
43.1492
  0
LINE
  8
0
 10
34.3081
 20
43.1492
 11
34.0345
 21
42.7397
  0
LINE
  8
0
 10
34.0345
 20
42.7397
 11
33.8461
 21
42.2848
  0
LINE
  8
0
 10
33.8461
 20
42.2848
 11
33.75
 21
41.8018
  0
LINE
  8
0
 10
33.75
 20
41.8018
 11
33.75
 21
41.3093
  0
LINE
  8
0
 10
33.75
 20
41.3093
 11
33.8461
 21
40.8263
  0
LINE
  8
0
 10
33.8461
 20
40.8263
 11
34.0345
 21
40.3714
  0
LINE
  8
0
 10
34.0345
 20
40.3714
 11
34.3081
 21
39.9619
  0
LINE
  8
0
 10
34.3081
 20
39.9619
 11
34.6563
 21
39.6137
  0
LINE
  8
0
 10
34.6563
 20
39.6137
 11
35.0658
 21
39.3401
  0
LINE
  8
0
 10
35.0658
 20
39.3401
 11
35.5208
 21
39.1516
  0
LINE
  8
0
 10
35.5208
 20
39.1516
 11
36.0038
 21
39.0555
  0
LINE
  8
0
 10
36.0038
 20
39.0555
 11
36.4962
 21
39.0555
  0
LINE
  8
0
 10
36.4962
 20
39.0555
 11
36.9792
 21
39.1516
  0
LINE
  8
0
 10
-51.2708
 20
28.7627
 11
-50.8158
 21
28.9512
  0
LINE
  8
0
 10
-50.8158
 20
28.9512
 11
-50.4063
 21
29.2248
  0
LINE
  8
0
 10
-50.4063
 20
29.2248
 11
-50.0581
 21
29.573
  0
LINE
  8
0
 10
-50.0581
 20
29.573
 11
-49.7845
 21
29.9825
  0
LINE
  8
0
 10
-49.7845
 20
29.9825
 11
-49.5961
 21
30.4374
  0
LINE
  8
0
 10
-49.5961
 20
30.4374
 11
-49.5
 21
30.9204
  0
LINE
  8
0
 10
-49.5
 20
30.9204
 11
-49.5
 21
31.4129
  0
LINE
  8
0
 10
-49.5
 20
31.4129
 11
-49.5961
 21
31.8959
  0
LINE
  8
0
 10
-49.5961
 20
31.8959
 11
-49.7845
 21
32.3509
  0
LINE
  8
0
 10
-49.7845
 20
32.3509
 11
-50.0581
 21
32.7603
  0
LINE
  8
0
 10
-50.0581
 20
32.7603
 11
-50.4063
 21
33.1085
  0
LINE
  8
0
 10
-50.4063
 20
33.1085
 11
-50.8158
 21
33.3821
  0
LINE
  8
0
 10
-50.8158
 20
33.3821
 11
-51.2708
 21
33.5706
  0
LINE
  8
0
 10
-51.2708
 20
33.5706
 11
-51.7538
 21
33.6667
  0
LINE
  8
0
 10
-51.7538
 20
33.6667
 11
-52.2462
 21
33.6667
  0
LINE
  8
0
 10
-52.2462
 20
33.6667
 11
-52.7292
 21
33.5706
  0
LINE
  8
0
 10
-52.7292
 20
33.5706
 11
-53.1842
 21
33.3821
  0
LINE
  8
0
 10
-53.1842
 20
33.3821
 11
-53.5936
 21
33.1085
  0
LINE
  8
0
 10
-53.5936
 20
33.1085
 11
-53.9419
 21
32.7603
  0
LINE
  8
0
 10
-53.9419
 20
32.7603
 11
-54.2155
 21
32.3509
  0
LINE
  8
0
 10
-54.2155
 20
32.3509
 11
-54.4039
 21
31.8959
  0
LINE
  8
0
 10
-54.4039
 20
31.8959
 11
-54.5
 21
31.4129
  0
LINE
  8
0
 10
-54.5
 20
31.4129
 11
-54.5
 21
30.9204
  0
LINE
  8
0
 10
-54.5
 20
30.9204
 11
-54.4039
 21
30.4374
  0
LINE
  8
0
 10
-54.4039
 20
30.4374
 11
-54.2155
 21
29.9825
  0
LINE
  8
0
 10
-54.2155
 20
29.9825
 11
-53.9419
 21
29.573
  0
LINE
  8
0
 10
-53.9419
 20
29.573
 11
-53.5936
 21
29.2248
  0
LINE
  8
0
 10
-53.5936
 20
29.2248
 11
-53.1842
 21
28.9512
  0
LINE
  8
0
 10
-53.1842
 20
28.9512
 11
-52.7292
 21
28.7627
  0
LINE
  8
0
 10
-52.7292
 20
28.7627
 11
-52.2462
 21
28.6667
  0
LINE
  8
0
 10
-52.2462
 20
28.6667
 11
-51.7538
 21
28.6667
  0
LINE
  8
0
 10
-51.7538
 20
28.6667
 11
-51.2708
 21
28.7627
  0
LINE
  8
0
 10
52.7292
 20
28.7627
 11
53.1842
 21
28.9512
  0
LINE
  8
0
 10
53.1842
 20
28.9512
 11
53.5936
 21
29.2248
  0
LINE
  8
0
 10
53.5936
 20
29.2248
 11
53.9419
 21
29.573
  0
LINE
  8
0
 10
53.9419
 20
29.573
 11
54.2155
 21
29.9825
  0
LINE
  8
0
 10
54.2155
 20
29.9825
 11
54.4039
 21
30.4374
  0
LINE
  8
0
 10
54.4039
 20
30.4374
 11
54.5
 21
30.9204
  0
LINE
  8
0
 10
54.5
 20
30.9204
 11
54.5
 21
31.4129
  0
LINE
  8
0
 10
54.5
 20
31.4129
 11
54.4039
 21
31.8959
  0
LINE
  8
0
 10
54.4039
 20
31.8959
 11
54.2155
 21
32.3509
  0
LINE
  8
0
 10
54.2155
 20
32.3509
 11
53.9419
 21
32.7603
  0
LINE
  8
0
 10
53.9419
 20
32.7603
 11
53.5936
 21
33.1085
  0
LINE
  8
0
 10
53.5936
 20
33.1085
 11
53.1842
 21
33.3821
  0
LINE
  8
0
 10
53.1842
 20
33.3821
 11
52.7292
 21
33.5706
  0
LINE
  8
0
 10
52.7292
 20
33.5706
 11
52.2462
 21
33.6667
  0
LINE
  8
0
 10
52.2462
 20
33.6667
 11
51.7538
 21
33.6667
  0
LINE
  8
0
 10
51.7538
 20
33.6667
 11
51.2708
 21
33.5706
  0
LINE
  8
0
 10
51.2708
 20
33.5706
 11
50.8158
 21
33.3821
  0
LINE
  8
0
 10
50.8158
 20
33.3821
 11
50.4063
 21
33.1085
  0
LINE
  8
0
 10
50.4063
 20
33.1085
 11
50.0581
 21
32.7603
  0
LINE
  8
0
 10
50.0581
 20
32.7603
 11
49.7845
 21
32.3509
  0
LINE
  8
0
 10
49.7845
 20
32.3509
 11
49.5961
 21
31.8959
  0
LINE
  8
0
 10
49.5961
 20
31.8959
 11
49.5
 21
31.4129
  0
LINE
  8
0
 10
49.5
 20
31.4129
 11
49.5
 21
30.9204
  0
LINE
  8
0
 10
49.5
 20
30.9204
 11
49.5961
 21
30.4374
  0
LINE
  8
0
 10
49.5961
 20
30.4374
 11
49.7845
 21
29.9825
  0
LINE
  8
0
 10
49.7845
 20
29.9825
 11
50.0581
 21
29.573
  0
LINE
  8
0
 10
50.0581
 20
29.573
 11
50.4063
 21
29.2248
  0
LINE
  8
0
 10
50.4063
 20
29.2248
 11
50.8158
 21
28.9512
  0
LINE
  8
0
 10
50.8158
 20
28.9512
 11
51.2708
 21
28.7627
  0
LINE
  8
0
 10
51.2708
 20
28.7627
 11
51.7538
 21
28.6667
  0
LINE
  8
0
 10
51.7538
 20
28.6667
 11
52.2462
 21
28.6667
  0
LINE
  8
0
 10
52.2462
 20
28.6667
 11
52.7292
 21
28.7627
  0
LINE
  8
0
 10
-35.5208
 20
18.3738
 11
-35.0658
 21
18.5623
  0
LINE
  8
0
 10
-35.0658
 20
18.5623
 11
-34.6563
 21
18.8359
  0
LINE
  8
0
 10
-34.6563
 20
18.8359
 11
-34.3081
 21
19.1841
  0
LINE
  8
0
 10
-34.3081
 20
19.1841
 11
-34.0345
 21
19.5936
  0
LINE
  8
0
 10
-34.0345
 20
19.5936
 11
-33.8461
 21
20.0486
  0
LINE
  8
0
 10
-33.8461
 20
20.0486
 11
-33.75
 21
20.5315
  0
LINE
  8
0
 10
-33.75
 20
20.5315
 11
-33.75
 21
21.024
  0
LINE
  8
0
 10
-33.75
 20
21.024
 11
-33.8461
 21
21.507
  0
LINE
  8
0
 10
-33.8461
 20
21.507
 11
-34.0345
 21
21.962
  0
LINE
  8
0
 10
-34.0345
 20
21.962
 11
-34.3081
 21
22.3714
  0
LINE
  8
0
 10
-34.3081
 20
22.3714
 11
-34.6563
 21
22.7197
  0
LINE
  8
0
 10
-34.6563
 20
22.7197
 11
-35.0658
 21
22.9932
  0
LINE
  8
0
 10
-35.0658
 20
22.9932
 11
-35.5208
 21
23.1817
  0
LINE
  8
0
 10
-35.5208
 20
23.1817
 11
-36.0038
 21
23.2778
  0
LINE
  8
0
 10
-36.0038
 20
23.2778
 11
-36.4962
 21
23.2778
  0
LINE
  8
0
 10
-36.4962
 20
23.2778
 11
-36.9792
 21
23.1817
  0
LINE
  8
0
 10
-36.9792
 20
23.1817
 11
-37.4342
 21
22.9932
  0
LINE
  8
0
 10
-37.4342
 20
22.9932
 11
-37.8436
 21
22.7197
  0
LINE
  8
0
 10
-37.8436
 20
22.7197
 11
-38.1919
 21
22.3714
  0
LINE
  8
0
 10
-38.1919
 20
22.3714
 11
-38.4655
 21
21.962
  0
LINE
  8
0
 10
-38.4655
 20
21.962
 11
-38.6539
 21
21.507
  0
LINE
  8
0
 10
-38.6539
 20
21.507
 11
-38.75
 21
21.024
  0
LINE
  8
0
 10
-38.75
 20
21.024
 11
-38.75
 21
20.5315
  0
LINE
  8
0
 10
-38.75
 20
20.5315
 11
-38.6539
 21
20.0486
  0
LINE
  8
0
 10
-38.6539
 20
20.0486
 11
-38.4655
 21
19.5936
  0
LINE
  8
0
 10
-38.4655
 20
19.5936
 11
-38.1919
 21
19.1841
  0
LINE
  8
0
 10
-38.1919
 20
19.1841
 11
-37.8436
 21
18.8359
  0
LINE
  8
0
 10
-37.8436
 20
18.8359
 11
-37.4342
 21
18.5623
  0
LINE
  8
0
 10
-37.4342
 20
18.5623
 11
-36.9792
 21
18.3738
  0
LINE
  8
0
 10
-36.9792
 20
18.3738
 11
-36.4962
 21
18.2778
  0
LINE
  8
0
 10
-36.4962
 20
18.2778
 11
-36.0038
 21
18.2778
  0
LINE
  8
0
 10
-36.0038
 20
18.2778
 11
-35.5208
 21
18.3738
  0
LINE
  8
0
 10
36.9792
 20
18.3738
 11
37.4342
 21
18.5623
  0
LINE
  8
0
 10
37.4342
 20
18.5623
 11
37.8436
 21
18.8359
  0
LINE
  8
0
 10
37.8436
 20
18.8359
 11
38.1919
 21
19.1841
  0
LINE
  8
0
 10
38.1919
 20
19.1841
 11
38.4655
 21
19.5936
  0
LINE
  8
0
 10
38.4655
 20
19.5936
 11
38.6539
 21
20.0486
  0
LINE
  8
0
 10
38.6539
 20
20.0486
 11
38.75
 21
20.5315
  0
LINE
  8
0
 10
38.75
 20
20.5315
 11
38.75
 21
21.024
  0
LINE
  8
0
 10
38.75
 20
21.024
 11
38.6539
 21
21.507
  0
LINE
  8
0
 10
38.6539
 20
21.507
 11
38.4655
 21
21.962
  0
LINE
  8
0
 10
38.4655
 20
21.962
 11
38.1919
 21
22.3714
  0
LINE
  8
0
 10
38.1919
 20
22.3714
 11
37.8436
 21
22.7197
  0
LINE
  8
0
 10
37.8436
 20
22.7197
 11
37.4342
 21
22.9932
  0
LINE
  8
0
 10
37.4342
 20
22.9932
 11
36.9792
 21
23.1817
  0
LINE
  8
0
 10
36.9792
 20
23.1817
 11
36.4962
 21
23.2778
  0
LINE
  8
0
 10
36.4962
 20
23.2778
 11
36.0038
 21
23.2778
  0
LINE
  8
0
 10
36.0038
 20
23.2778
 11
35.5208
 21
23.1817
  0
LINE
  8
0
 10
35.5208
 20
23.1817
 11
35.0658
 21
22.9932
  0
LINE
  8
0
 10
35.0658
 20
22.9932
 11
34.6563
 21
22.7197
  0
LINE
  8
0
 10
34.6563
 20
22.7197
 11
34.3081
 21
22.3714
  0
LINE
  8
0
 10
34.3081
 20
22.3714
 11
34.0345
 21
21.962
  0
LINE
  8
0
 10
34.0345
 20
21.962
 11
33.8461
 21
21.507
  0
LINE
  8
0
 10
33.8461
 20
21.507
 11
33.75
 21
21.024
  0
LINE
  8
0
 10
33.75
 20
21.024
 11
33.75
 21
20.5315
  0
LINE
  8
0
 10
33.75
 20
20.5315
 11
33.8461
 21
20.0486
  0
LINE
  8
0
 10
33.8461
 20
20.0486
 11
34.0345
 21
19.5936
  0
LINE
  8
0
 10
34.0345
 20
19.5936
 11
34.3081
 21
19.1841
  0
LINE
  8
0
 10
34.3081
 20
19.1841
 11
34.6563
 21
18.8359
  0
LINE
  8
0
 10
34.6563
 20
18.8359
 11
35.0658
 21
18.5623
  0
LINE
  8
0
 10
35.0658
 20
18.5623
 11
35.5208
 21
18.3738
  0
LINE
  8
0
 10
35.5208
 20
18.3738
 11
36.0038
 21
18.2778
  0
LINE
  8
0
 10
36.0038
 20
18.2778
 11
36.4962
 21
18.2778
  0
LINE
  8
0
 10
36.4962
 20
18.2778
 11
36.9792
 21
18.3738
  0
LINE
  8
0
 10
52.7292
 20
7.98495
 11
53.1842
 21
8.17342
  0
LINE
  8
0
 10
53.1842
 20
8.17342
 11
53.5936
 21
8.44701
  0
LINE
  8
0
 10
53.5936
 20
8.44701
 11
53.9419
 21
8.79523
  0
LINE
  8
0
 10
53.9419
 20
8.79523
 11
54.2155
 21
9.20468
  0
LINE
  8
0
 10
54.2155
 20
9.20468
 11
54.4039
 21
9.65965
  0
LINE
  8
0
 10
54.4039
 20
9.65965
 11
54.5
 21
10.1427
  0
LINE
  8
0
 10
54.5
 20
10.1427
 11
54.5
 21
10.6351
  0
LINE
  8
0
 10
54.5
 20
10.6351
 11
54.4039
 21
11.1181
  0
LINE
  8
0
 10
54.4039
 20
11.1181
 11
54.2155
 21
11.5731
  0
LINE
  8
0
 10
54.2155
 20
11.5731
 11
53.9419
 21
11.9825
  0
LINE
  8
0
 10
53.9419
 20
11.9825
 11
53.5936
 21
12.3308
  0
LINE
  8
0
 10
53.5936
 20
12.3308
 11
53.1842
 21
12.6044
  0
LINE
  8
0
 10
53.1842
 20
12.6044
 11
52.7292
 21
12.7928
  0
LINE
  8
0
 10
52.7292
 20
12.7928
 11
52.2462
 21
12.8889
  0
LINE
  8
0
 10
52.2462
 20
12.8889
 11
51.7538
 21
12.8889
  0
LINE
  8
0
 10
51.7538
 20
12.8889
 11
51.2708
 21
12.7928
  0
LINE
  8
0
 10
51.2708
 20
12.7928
 11
50.8158
 21
12.6044
  0
LINE
  8
0
 10
50.8158
 20
12.6044
 11
50.4063
 21
12.3308
  0
LINE
  8
0
 10
50.4063
 20
12.3308
 11
50.0581
 21
11.9825
  0
LINE
  8
0
 10
50.0581
 20
11.9825
 11
49.7845
 21
11.5731
  0
LINE
  8
0
 10
49.7845
 20
11.5731
 11
49.5961
 21
11.1181
  0
LINE
  8
0
 10
49.5961
 20
11.1181
 11
49.5
 21
10.6351
  0
LINE
  8
0
 10
49.5
 20
10.6351
 11
49.5
 21
10.1427
  0
LINE
  8
0
 10
49.5
 20
10.1427
 11
49.5961
 21
9.65965
  0
LINE
  8
0
 10
49.5961
 20
9.65965
 11
49.7845
 21
9.20468
  0
LINE
  8
0
 10
49.7845
 20
9.20468
 11
50.0581
 21
8.79523
  0
LINE
  8
0
 10
50.0581
 20
8.79523
 11
50.4063
 21
8.44701
  0
LINE
  8
0
 10
50.4063
 20
8.44701
 11
50.8158
 21
8.17342
  0
LINE
  8
0
 10
50.8158
 20
8.17342
 11
51.2708
 21
7.98495
  0
LINE
  8
0
 10
51.2708
 20
7.98495
 11
51.7538
 21
7.88889
  0
LINE
  8
0
 10
51.7538
 20
7.88889
 11
52.2462
 21
7.88889
  0
LINE
  8
0
 10
52.2462
 20
7.88889
 11
52.7292
 21
7.98495
  0
LINE
  8
0
 10
-51.2708
 20
7.98495
 11
-50.8158
 21
8.17342
  0
LINE
  8
0
 10
-50.8158
 20
8.17342
 11
-50.4063
 21
8.44701
  0
LINE
  8
0
 10
-50.4063
 20
8.44701
 11
-50.0581
 21
8.79523
  0
LINE
  8
0
 10
-50.0581
 20
8.79523
 11
-49.7845
 21
9.20468
  0
LINE
  8
0
 10
-49.7845
 20
9.20468
 11
-49.5961
 21
9.65965
  0
LINE
  8
0
 10
-49.5961
 20
9.65965
 11
-49.5
 21
10.1427
  0
LINE
  8
0
 10
-49.5
 20
10.1427
 11
-49.5
 21
10.6351
  0
LINE
  8
0
 10
-49.5
 20
10.6351
 11
-49.5961
 21
11.1181
  0
LINE
  8
0
 10
-49.5961
 20
11.1181
 11
-49.7845
 21
11.5731
  0
LINE
  8
0
 10
-49.7845
 20
11.5731
 11
-50.0581
 21
11.9825
  0
LINE
  8
0
 10
-50.0581
 20
11.9825
 11
-50.4063
 21
12.3308
  0
LINE
  8
0
 10
-50.4063
 20
12.3308
 11
-50.8158
 21
12.6044
  0
LINE
  8
0
 10
-50.8158
 20
12.6044
 11
-51.2708
 21
12.7928
  0
LINE
  8
0
 10
-51.2708
 20
12.7928
 11
-51.7538
 21
12.8889
  0
LINE
  8
0
 10
-51.7538
 20
12.8889
 11
-52.2462
 21
12.8889
  0
LINE
  8
0
 10
-52.2462
 20
12.8889
 11
-52.7292
 21
12.7928
  0
LINE
  8
0
 10
-52.7292
 20
12.7928
 11
-53.1842
 21
12.6044
  0
LINE
  8
0
 10
-53.1842
 20
12.6044
 11
-53.5936
 21
12.3308
  0
LINE
  8
0
 10
-53.5936
 20
12.3308
 11
-53.9419
 21
11.9825
  0
LINE
  8
0
 10
-53.9419
 20
11.9825
 11
-54.2155
 21
11.5731
  0
LINE
  8
0
 10
-54.2155
 20
11.5731
 11
-54.4039
 21
11.1181
  0
LINE
  8
0
 10
-54.4039
 20
11.1181
 11
-54.5
 21
10.6351
  0
LINE
  8
0
 10
-54.5
 20
10.6351
 11
-54.5
 21
10.1427
  0
LINE
  8
0
 10
-54.5
 20
10.1427
 11
-54.4039
 21
9.65965
  0
LINE
  8
0
 10
-54.4039
 20
9.65965
 11
-54.2155
 21
9.20468
  0
LINE
  8
0
 10
-54.2155
 20
9.20468
 11
-53.9419
 21
8.79523
  0
LINE
  8
0
 10
-53.9419
 20
8.79523
 11
-53.5936
 21
8.44701
  0
LINE
  8
0
 10
-53.5936
 20
8.44701
 11
-53.1842
 21
8.17342
  0
LINE
  8
0
 10
-53.1842
 20
8.17342
 11
-52.7292
 21
7.98495
  0
LINE
  8
0
 10
-52.7292
 20
7.98495
 11
-52.2462
 21
7.88889
  0
LINE
  8
0
 10
-52.2462
 20
7.88889
 11
-51.7538
 21
7.88889
  0
LINE
  8
0
 10
-51.7538
 20
7.88889
 11
-51.2708
 21
7.98495
  0
LINE
  8
0
 10
-35.5208
 20
-2.40392
 11
-35.0658
 21
-2.21547
  0
LINE
  8
0
 10
-35.0658
 20
-2.21547
 11
-34.6563
 21
-1.94186
  0
LINE
  8
0
 10
-34.6563
 20
-1.94186
 11
-34.3081
 21
-1.59364
  0
LINE
  8
0
 10
-34.3081
 20
-1.59364
 11
-34.0345
 21
-1.18419
  0
LINE
  8
0
 10
-34.0345
 20
-1.18419
 11
-33.8461
 21
-0.729218
  0
LINE
  8
0
 10
-33.8461
 20
-0.729218
 11
-33.75
 21
-0.246216
  0
LINE
  8
0
 10
-33.75
 20
-0.246216
 11
-33.75
 21
0.246216
  0
LINE
  8
0
 10
-33.75
 20
0.246216
 11
-33.8461
 21
0.729218
  0
LINE
  8
0
 10
-33.8461
 20
0.729218
 11
-34.0345
 21
1.18419
  0
LINE
  8
0
 10
-34.0345
 20
1.18419
 11
-34.3081
 21
1.59364
  0
LINE
  8
0
 10
-34.3081
 20
1.59364
 11
-34.6563
 21
1.94186
  0
LINE
  8
0
 10
-34.6563
 20
1.94186
 11
-35.0658
 21
2.21547
  0
LINE
  8
0
 10
-35.0658
 20
2.21547
 11
-35.5208
 21
2.40392
  0
LINE
  8
0
 10
-35.5208
 20
2.40392
 11
-36.0038
 21
2.5
  0
LINE
  8
0
 10
-36.0038
 20
2.5
 11
-36.4962
 21
2.5
  0
LINE
  8
0
 10
-36.4962
 20
2.5
 11
-36.9792
 21
2.40392
  0
LINE
  8
0
 10
-36.9792
 20
2.40392
 11
-37.4342
 21
2.21547
  0
LINE
  8
0
 10
-37.4342
 20
2.21547
 11
-37.8436
 21
1.94186
  0
LINE
  8
0
 10
-37.8436
 20
1.94186
 11
-38.1919
 21
1.59364
  0
LINE
  8
0
 10
-38.1919
 20
1.59364
 11
-38.4655
 21
1.18419
  0
LINE
  8
0
 10
-38.4655
 20
1.18419
 11
-38.6539
 21
0.729218
  0
LINE
  8
0
 10
-38.6539
 20
0.729218
 11
-38.75
 21
0.246216
  0
LINE
  8
0
 10
-38.75
 20
0.246216
 11
-38.75
 21
-0.246216
  0
LINE
  8
0
 10
-38.75
 20
-0.246216
 11
-38.6539
 21
-0.729218
  0
LINE
  8
0
 10
-38.6539
 20
-0.729218
 11
-38.4655
 21
-1.18419
  0
LINE
  8
0
 10
-38.4655
 20
-1.18419
 11
-38.1919
 21
-1.59364
  0
LINE
  8
0
 10
-38.1919
 20
-1.59364
 11
-37.8436
 21
-1.94186
  0
LINE
  8
0
 10
-37.8436
 20
-1.94186
 11
-37.4342
 21
-2.21547
  0
LINE
  8
0
 10
-37.4342
 20
-2.21547
 11
-36.9792
 21
-2.40392
  0
LINE
  8
0
 10
-36.9792
 20
-2.40392
 11
-36.4962
 21
-2.49998
  0
LINE
  8
0
 10
-36.4962
 20
-2.49998
 11
-36.0038
 21
-2.5
  0
LINE
  8
0
 10
-36.0038
 20
-2.5
 11
-35.5208
 21
-2.40392
  0
LINE
  8
0
 10
36.9792
 20
-2.40392
 11
37.4342
 21
-2.21547
  0
LINE
  8
0
 10
37.4342
 20
-2.21547
 11
37.8436
 21
-1.94186
  0
LINE
  8
0
 10
37.8436
 20
-1.94186
 11
38.1919
 21
-1.59364
  0
LINE
  8
0
 10
38.1919
 20
-1.59364
 11
38.4655
 21
-1.18419
  0
LINE
  8
0
 10
38.4655
 20
-1.18419
 11
38.6539
 21
-0.729218
  0
LINE
  8
0
 10
38.6539
 20
-0.729218
 11
38.75
 21
-0.246216
  0
LINE
  8
0
 10
38.75
 20
-0.246216
 11
38.75
 21
0.246216
  0
LINE
  8
0
 10
38.75
 20
0.246216
 11
38.6539
 21
0.729218
  0
LINE
  8
0
 10
38.6539
 20
0.729218
 11
38.4655
 21
1.18419
  0
LINE
  8
0
 10
38.4655
 20
1.18419
 11
38.1919
 21
1.59364
  0
LINE
  8
0
 10
38.1919
 20
1.59364
 11
37.8436
 21
1.94186
  0
LINE
  8
0
 10
37.8436
 20
1.94186
 11
37.4342
 21
2.21547
  0
LINE
  8
0
 10
37.4342
 20
2.21547
 11
36.9792
 21
2.40392
  0
LINE
  8
0
 10
36.9792
 20
2.40392
 11
36.4962
 21
2.5
  0
LINE
  8
0
 10
36.4962
 20
2.5
 11
36.0038
 21
2.5
  0
LINE
  8
0
 10
36.0038
 20
2.5
 11
35.5208
 21
2.40392
  0
LINE
  8
0
 10
35.5208
 20
2.40392
 11
35.0658
 21
2.21547
  0
LINE
  8
0
 10
35.0658
 20
2.21547
 11
34.6563
 21
1.94186
  0
LINE
  8
0
 10
34.6563
 20
1.94186
 11
34.3081
 21
1.59364
  0
LINE
  8
0
 10
34.3081
 20
1.59364
 11
34.0345
 21
1.18419
  0
LINE
  8
0
 10
34.0345
 20
1.18419
 11
33.8461
 21
0.729218
  0
LINE
  8
0
 10
33.8461
 20
0.729218
 11
33.75
 21
0.246216
  0
LINE
  8
0
 10
33.75
 20
0.246216
 11
33.75
 21
-0.246216
  0
LINE
  8
0
 10
33.75
 20
-0.246216
 11
33.8461
 21
-0.729218
  0
LINE
  8
0
 10
33.8461
 20
-0.729218
 11
34.0345
 21
-1.18419
  0
LINE
  8
0
 10
34.0345
 20
-1.18419
 11
34.3081
 21
-1.59364
  0
LINE
  8
0
 10
34.3081
 20
-1.59364
 11
34.6563
 21
-1.94186
  0
LINE
  8
0
 10
34.6563
 20
-1.94186
 11
35.0658
 21
-2.21547
  0
LINE
  8
0
 10
35.0658
 20
-2.21547
 11
35.5208
 21
-2.40392
  0
LINE
  8
0
 10
35.5208
 20
-2.40392
 11
36.0038
 21
-2.49998
  0
LINE
  8
0
 10
36.0038
 20
-2.49998
 11
36.4962
 21
-2.5
  0
LINE
  8
0
 10
36.4962
 20
-2.5
 11
36.9792
 21
-2.40392
  0
LINE
  8
0
 10
-51.2708
 20
-12.7928
 11
-50.8158
 21
-12.6044
  0
LINE
  8
0
 10
-50.8158
 20
-12.6044
 11
-50.4063
 21
-12.3308
  0
LINE
  8
0
 10
-50.4063
 20
-12.3308
 11
-50.0581
 21
-11.9825
  0
LINE
  8
0
 10
-50.0581
 20
-11.9825
 11
-49.7845
 21
-11.5731
  0
LINE
  8
0
 10
-49.7845
 20
-11.5731
 11
-49.5961
 21
-11.1181
  0
LINE
  8
0
 10
-49.5961
 20
-11.1181
 11
-49.5
 21
-10.6351
  0
LINE
  8
0
 10
-49.5
 20
-10.6351
 11
-49.5
 21
-10.1427
  0
LINE
  8
0
 10
-49.5
 20
-10.1427
 11
-49.5961
 21
-9.65965
  0
LINE
  8
0
 10
-49.5961
 20
-9.65965
 11
-49.7845
 21
-9.20468
  0
LINE
  8
0
 10
-49.7845
 20
-9.20468
 11
-50.0581
 21
-8.79523
  0
LINE
  8
0
 10
-50.0581
 20
-8.79523
 11
-50.4063
 21
-8.44701
  0
LINE
  8
0
 10
-50.4063
 20
-8.44701
 11
-50.8158
 21
-8.17342
  0
LINE
  8
0
 10
-50.8158
 20
-8.17342
 11
-51.2708
 21
-7.98495
  0
LINE
  8
0
 10
-51.2708
 20
-7.98495
 11
-51.7538
 21
-7.88889
  0
LINE
  8
0
 10
-51.7538
 20
-7.88889
 11
-52.2462
 21
-7.88889
  0
LINE
  8
0
 10
-52.2462
 20
-7.88889
 11
-52.7292
 21
-7.98495
  0
LINE
  8
0
 10
-52.7292
 20
-7.98495
 11
-53.1842
 21
-8.17342
  0
LINE
  8
0
 10
-53.1842
 20
-8.17342
 11
-53.5936
 21
-8.44701
  0
LINE
  8
0
 10
-53.5936
 20
-8.44701
 11
-53.9419
 21
-8.79523
  0
LINE
  8
0
 10
-53.9419
 20
-8.79523
 11
-54.2155
 21
-9.20468
  0
LINE
  8
0
 10
-54.2155
 20
-9.20468
 11
-54.4039
 21
-9.65965
  0
LINE
  8
0
 10
-54.4039
 20
-9.65965
 11
-54.5
 21
-10.1427
  0
LINE
  8
0
 10
-54.5
 20
-10.1427
 11
-54.5
 21
-10.6351
  0
LINE
  8
0
 10
-54.5
 20
-10.6351
 11
-54.4039
 21
-11.1181
  0
LINE
  8
0
 10
-54.4039
 20
-11.1181
 11
-54.2155
 21
-11.5731
  0
LINE
  8
0
 10
-54.2155
 20
-11.5731
 11
-53.9419
 21
-11.9825
  0
LINE
  8
0
 10
-53.9419
 20
-11.9825
 11
-53.5936
 21
-12.3308
  0
LINE
  8
0
 10
-53.5936
 20
-12.3308
 11
-53.1842
 21
-12.6044
  0
LINE
  8
0
 10
-53.1842
 20
-12.6044
 11
-52.7292
 21
-12.7928
  0
LINE
  8
0
 10
-52.7292
 20
-12.7928
 11
-52.2462
 21
-12.8889
  0
LINE
  8
0
 10
-52.2462
 20
-12.8889
 11
-51.7538
 21
-12.8889
  0
LINE
  8
0
 10
-51.7538
 20
-12.8889
 11
-51.2708
 21
-12.7928
  0
LINE
  8
0
 10
52.7292
 20
-12.7928
 11
53.1842
 21
-12.6044
  0
LINE
  8
0
 10
53.1842
 20
-12.6044
 11
53.5936
 21
-12.3308
  0
LINE
  8
0
 10
53.5936
 20
-12.3308
 11
53.9419
 21
-11.9825
  0
LINE
  8
0
 10
53.9419
 20
-11.9825
 11
54.2155
 21
-11.5731
  0
LINE
  8
0
 10
54.2155
 20
-11.5731
 11
54.4039
 21
-11.1181
  0
LINE
  8
0
 10
54.4039
 20
-11.1181
 11
54.5
 21
-10.6351
  0
LINE
  8
0
 10
54.5
 20
-10.6351
 11
54.5
 21
-10.1427
  0
LINE
  8
0
 10
54.5
 20
-10.1427
 11
54.4039
 21
-9.65965
  0
LINE
  8
0
 10
54.4039
 20
-9.65965
 11
54.2155
 21
-9.20468
  0
LINE
  8
0
 10
54.2155
 20
-9.20468
 11
53.9419
 21
-8.79523
  0
LINE
  8
0
 10
53.9419
 20
-8.79523
 11
53.5936
 21
-8.44701
  0
LINE
  8
0
 10
53.5936
 20
-8.44701
 11
53.1842
 21
-8.17342
  0
LINE
  8
0
 10
53.1842
 20
-8.17342
 11
52.7292
 21
-7.98495
  0
LINE
  8
0
 10
52.7292
 20
-7.98495
 11
52.2462
 21
-7.88889
  0
LINE
  8
0
 10
52.2462
 20
-7.88889
 11
51.7538
 21
-7.88889
  0
LINE
  8
0
 10
51.7538
 20
-7.88889
 11
51.2708
 21
-7.98495
  0
LINE
  8
0
 10
51.2708
 20
-7.98495
 11
50.8158
 21
-8.17342
  0
LINE
  8
0
 10
50.8158
 20
-8.17342
 11
50.4063
 21
-8.44701
  0
LINE
  8
0
 10
50.4063
 20
-8.44701
 11
50.0581
 21
-8.79523
  0
LINE
  8
0
 10
50.0581
 20
-8.79523
 11
49.7845
 21
-9.20468
  0
LINE
  8
0
 10
49.7845
 20
-9.20468
 11
49.5961
 21
-9.65965
  0
LINE
  8
0
 10
49.5961
 20
-9.65965
 11
49.5
 21
-10.1427
  0
LINE
  8
0
 10
49.5
 20
-10.1427
 11
49.5
 21
-10.6351
  0
LINE
  8
0
 10
49.5
 20
-10.6351
 11
49.5961
 21
-11.1181
  0
LINE
  8
0
 10
49.5961
 20
-11.1181
 11
49.7845
 21
-11.5731
  0
LINE
  8
0
 10
49.7845
 20
-11.5731
 11
50.0581
 21
-11.9825
  0
LINE
  8
0
 10
50.0581
 20
-11.9825
 11
50.4063
 21
-12.3308
  0
LINE
  8
0
 10
50.4063
 20
-12.3308
 11
50.8158
 21
-12.6044
  0
LINE
  8
0
 10
50.8158
 20
-12.6044
 11
51.2708
 21
-12.7928
  0
LINE
  8
0
 10
51.2708
 20
-12.7928
 11
51.7538
 21
-12.8889
  0
LINE
  8
0
 10
51.7538
 20
-12.8889
 11
52.2462
 21
-12.8889
  0
LINE
  8
0
 10
52.2462
 20
-12.8889
 11
52.7292
 21
-12.7928
  0
LINE
  8
0
 10
36.9792
 20
-23.1817
 11
37.4342
 21
-22.9932
  0
LINE
  8
0
 10
37.4342
 20
-22.9932
 11
37.8436
 21
-22.7197
  0
LINE
  8
0
 10
37.8436
 20
-22.7197
 11
38.1919
 21
-22.3714
  0
LINE
  8
0
 10
38.1919
 20
-22.3714
 11
38.4655
 21
-21.962
  0
LINE
  8
0
 10
38.4655
 20
-21.962
 11
38.6539
 21
-21.507
  0
LINE
  8
0
 10
38.6539
 20
-21.507
 11
38.75
 21
-21.024
  0
LINE
  8
0
 10
38.75
 20
-21.024
 11
38.75
 21
-20.5315
  0
LINE
  8
0
 10
38.75
 20
-20.5315
 11
38.6539
 21
-20.0486
  0
LINE
  8
0
 10
38.6539
 20
-20.0486
 11
38.4655
 21
-19.5936
  0
LINE
  8
0
 10
38.4655
 20
-19.5936
 11
38.1919
 21
-19.1841
  0
LINE
  8
0
 10
38.1919
 20
-19.1841
 11
37.8436
 21
-18.8359
  0
LINE
  8
0
 10
37.8436
 20
-18.8359
 11
37.4342
 21
-18.5623
  0
LINE
  8
0
 10
37.4342
 20
-18.5623
 11
36.9792
 21
-18.3738
  0
LINE
  8
0
 10
36.9792
 20
-18.3738
 11
36.4962
 21
-18.2778
  0
LINE
  8
0
 10
36.4962
 20
-18.2778
 11
36.0038
 21
-18.2778
  0
LINE
  8
0
 10
36.0038
 20
-18.2778
 11
35.5208
 21
-18.3738
  0
LINE
  8
0
 10
35.5208
 20
-18.3738
 11
35.0658
 21
-18.5623
  0
LINE
  8
0
 10
35.0658
 20
-18.5623
 11
34.6563
 21
-18.8359
  0
LINE
  8
0
 10
34.6563
 20
-18.8359
 11
34.3081
 21
-19.1841
  0
LINE
  8
0
 10
34.3081
 20
-19.1841
 11
34.0345
 21
-19.5936
  0
LINE
  8
0
 10
34.0345
 20
-19.5936
 11
33.8461
 21
-20.0486
  0
LINE
  8
0
 10
33.8461
 20
-20.0486
 11
33.75
 21
-20.5315
  0
LINE
  8
0
 10
33.75
 20
-20.5315
 11
33.75
 21
-21.024
  0
LINE
  8
0
 10
33.75
 20
-21.024
 11
33.8461
 21
-21.507
  0
LINE
  8
0
 10
33.8461
 20
-21.507
 11
34.0345
 21
-21.962
  0
LINE
  8
0
 10
34.0345
 20
-21.962
 11
34.3081
 21
-22.3714
  0
LINE
  8
0
 10
34.3081
 20
-22.3714
 11
34.6563
 21
-22.7197
  0
LINE
  8
0
 10
34.6563
 20
-22.7197
 11
35.0658
 21
-22.9932
  0
LINE
  8
0
 10
35.0658
 20
-22.9932
 11
35.5208
 21
-23.1817
  0
LINE
  8
0
 10
35.5208
 20
-23.1817
 11
36.0038
 21
-23.2778
  0
LINE
  8
0
 10
36.0038
 20
-23.2778
 11
36.4962
 21
-23.2778
  0
LINE
  8
0
 10
36.4962
 20
-23.2778
 11
36.9792
 21
-23.1817
  0
LINE
  8
0
 10
-35.5208
 20
-23.1817
 11
-35.0658
 21
-22.9932
  0
LINE
  8
0
 10
-35.0658
 20
-22.9932
 11
-34.6563
 21
-22.7197
  0
LINE
  8
0
 10
-34.6563
 20
-22.7197
 11
-34.3081
 21
-22.3714
  0
LINE
  8
0
 10
-34.3081
 20
-22.3714
 11
-34.0345
 21
-21.962
  0
LINE
  8
0
 10
-34.0345
 20
-21.962
 11
-33.8461
 21
-21.507
  0
LINE
  8
0
 10
-33.8461
 20
-21.507
 11
-33.75
 21
-21.024
  0
LINE
  8
0
 10
-33.75
 20
-21.024
 11
-33.75
 21
-20.5315
  0
LINE
  8
0
 10
-33.75
 20
-20.5315
 11
-33.8461
 21
-20.0486
  0
LINE
  8
0
 10
-33.8461
 20
-20.0486
 11
-34.0345
 21
-19.5936
  0
LINE
  8
0
 10
-34.0345
 20
-19.5936
 11
-34.3081
 21
-19.1841
  0
LINE
  8
0
 10
-34.3081
 20
-19.1841
 11
-34.6563
 21
-18.8359
  0
LINE
  8
0
 10
-34.6563
 20
-18.8359
 11
-35.0658
 21
-18.5623
  0
LINE
  8
0
 10
-35.0658
 20
-18.5623
 11
-35.5208
 21
-18.3738
  0
LINE
  8
0
 10
-35.5208
 20
-18.3738
 11
-36.0038
 21
-18.2778
  0
LINE
  8
0
 10
-36.0038
 20
-18.2778
 11
-36.4962
 21
-18.2778
  0
LINE
  8
0
 10
-36.4962
 20
-18.2778
 11
-36.9792
 21
-18.3738
  0
LINE
  8
0
 10
-36.9792
 20
-18.3738
 11
-37.4342
 21
-18.5623
  0
LINE
  8
0
 10
-37.4342
 20
-18.5623
 11
-37.8436
 21
-18.8359
  0
LINE
  8
0
 10
-37.8436
 20
-18.8359
 11
-38.1919
 21
-19.1841
  0
LINE
  8
0
 10
-38.1919
 20
-19.1841
 11
-38.4655
 21
-19.5936
  0
LINE
  8
0
 10
-38.4655
 20
-19.5936
 11
-38.6539
 21
-20.0486
  0
LINE
  8
0
 10
-38.6539
 20
-20.0486
 11
-38.75
 21
-20.5315
  0
LINE
  8
0
 10
-38.75
 20
-20.5315
 11
-38.75
 21
-21.024
  0
LINE
  8
0
 10
-38.75
 20
-21.024
 11
-38.6539
 21
-21.507
  0
LINE
  8
0
 10
-38.6539
 20
-21.507
 11
-38.4655
 21
-21.962
  0
LINE
  8
0
 10
-38.4655
 20
-21.962
 11
-38.1919
 21
-22.3714
  0
LINE
  8
0
 10
-38.1919
 20
-22.3714
 11
-37.8436
 21
-22.7197
  0
LINE
  8
0
 10
-37.8436
 20
-22.7197
 11
-37.4342
 21
-22.9932
  0
LINE
  8
0
 10
-37.4342
 20
-22.9932
 11
-36.9792
 21
-23.1817
  0
LINE
  8
0
 10
-36.9792
 20
-23.1817
 11
-36.4962
 21
-23.2778
  0
LINE
  8
0
 10
-36.4962
 20
-23.2778
 11
-36.0038
 21
-23.2778
  0
LINE
  8
0
 10
-36.0038
 20
-23.2778
 11
-35.5208
 21
-23.1817
  0
LINE
  8
0
 10
52.7292
 20
-33.5706
 11
53.1842
 21
-33.3821
  0
LINE
  8
0
 10
53.1842
 20
-33.3821
 11
53.5936
 21
-33.1085
  0
LINE
  8
0
 10
53.5936
 20
-33.1085
 11
53.9419
 21
-32.7603
  0
LINE
  8
0
 10
53.9419
 20
-32.7603
 11
54.2155
 21
-32.3509
  0
LINE
  8
0
 10
54.2155
 20
-32.3509
 11
54.4039
 21
-31.8959
  0
LINE
  8
0
 10
54.4039
 20
-31.8959
 11
54.5
 21
-31.4129
  0
LINE
  8
0
 10
54.5
 20
-31.4129
 11
54.5
 21
-30.9204
  0
LINE
  8
0
 10
54.5
 20
-30.9204
 11
54.4039
 21
-30.4374
  0
LINE
  8
0
 10
54.4039
 20
-30.4374
 11
54.2155
 21
-29.9825
  0
LINE
  8
0
 10
54.2155
 20
-29.9825
 11
53.9419
 21
-29.573
  0
LINE
  8
0
 10
53.9419
 20
-29.573
 11
53.5936
 21
-29.2248
  0
LINE
  8
0
 10
53.5936
 20
-29.2248
 11
53.1842
 21
-28.9512
  0
LINE
  8
0
 10
53.1842
 20
-28.9512
 11
52.7292
 21
-28.7627
  0
LINE
  8
0
 10
52.7292
 20
-28.7627
 11
52.2462
 21
-28.6667
  0
LINE
  8
0
 10
52.2462
 20
-28.6667
 11
51.7538
 21
-28.6667
  0
LINE
  8
0
 10
51.7538
 20
-28.6667
 11
51.2708
 21
-28.7627
  0
LINE
  8
0
 10
51.2708
 20
-28.7627
 11
50.8158
 21
-28.9512
  0
LINE
  8
0
 10
50.8158
 20
-28.9512
 11
50.4063
 21
-29.2248
  0
LINE
  8
0
 10
50.4063
 20
-29.2248
 11
50.0581
 21
-29.573
  0
LINE
  8
0
 10
50.0581
 20
-29.573
 11
49.7845
 21
-29.9825
  0
LINE
  8
0
 10
49.7845
 20
-29.9825
 11
49.5961
 21
-30.4374
  0
LINE
  8
0
 10
49.5961
 20
-30.4374
 11
49.5
 21
-30.9204
  0
LINE
  8
0
 10
49.5
 20
-30.9204
 11
49.5
 21
-31.4129
  0
LINE
  8
0
 10
49.5
 20
-31.4129
 11
49.5961
 21
-31.8959
  0
LINE
  8
0
 10
49.5961
 20
-31.8959
 11
49.7845
 21
-32.3509
  0
LINE
  8
0
 10
49.7845
 20
-32.3509
 11
50.0581
 21
-32.7603
  0
LINE
  8
0
 10
50.0581
 20
-32.7603
 11
50.4063
 21
-33.1085
  0
LINE
  8
0
 10
50.4063
 20
-33.1085
 11
50.8158
 21
-33.3821
  0
LINE
  8
0
 10
50.8158
 20
-33.3821
 11
51.2708
 21
-33.5706
  0
LINE
  8
0
 10
51.2708
 20
-33.5706
 11
51.7538
 21
-33.6667
  0
LINE
  8
0
 10
51.7538
 20
-33.6667
 11
52.2462
 21
-33.6667
  0
LINE
  8
0
 10
52.2462
 20
-33.6667
 11
52.7292
 21
-33.5706
  0
LINE
  8
0
 10
-51.2708
 20
-33.5706
 11
-50.8158
 21
-33.3821
  0
LINE
  8
0
 10
-50.8158
 20
-33.3821
 11
-50.4063
 21
-33.1085
  0
LINE
  8
0
 10
-50.4063
 20
-33.1085
 11
-50.0581
 21
-32.7603
  0
LINE
  8
0
 10
-50.0581
 20
-32.7603
 11
-49.7845
 21
-32.3509
  0
LINE
  8
0
 10
-49.7845
 20
-32.3509
 11
-49.5961
 21
-31.8959
  0
LINE
  8
0
 10
-49.5961
 20
-31.8959
 11
-49.5
 21
-31.4129
  0
LINE
  8
0
 10
-49.5
 20
-31.4129
 11
-49.5
 21
-30.9204
  0
LINE
  8
0
 10
-49.5
 20
-30.9204
 11
-49.5961
 21
-30.4374
  0
LINE
  8
0
 10
-49.5961
 20
-30.4374
 11
-49.7845
 21
-29.9825
  0
LINE
  8
0
 10
-49.7845
 20
-29.9825
 11
-50.0581
 21
-29.573
  0
LINE
  8
0
 10
-50.0581
 20
-29.573
 11
-50.4063
 21
-29.2248
  0
LINE
  8
0
 10
-50.4063
 20
-29.2248
 11
-50.8158
 21
-28.9512
  0
LINE
  8
0
 10
-50.8158
 20
-28.9512
 11
-51.2708
 21
-28.7627
  0
LINE
  8
0
 10
-51.2708
 20
-28.7627
 11
-51.7538
 21
-28.6667
  0
LINE
  8
0
 10
-51.7538
 20
-28.6667
 11
-52.2462
 21
-28.6667
  0
LINE
  8
0
 10
-52.2462
 20
-28.6667
 11
-52.7292
 21
-28.7627
  0
LINE
  8
0
 10
-52.7292
 20
-28.7627
 11
-53.1842
 21
-28.9512
  0
LINE
  8
0
 10
-53.1842
 20
-28.9512
 11
-53.5936
 21
-29.2248
  0
LINE
  8
0
 10
-53.5936
 20
-29.2248
 11
-53.9419
 21
-29.573
  0
LINE
  8
0
 10
-53.9419
 20
-29.573
 11
-54.2155
 21
-29.9825
  0
LINE
  8
0
 10
-54.2155
 20
-29.9825
 11
-54.4039
 21
-30.4374
  0
LINE
  8
0
 10
-54.4039
 20
-30.4374
 11
-54.5
 21
-30.9204
  0
LINE
  8
0
 10
-54.5
 20
-30.9204
 11
-54.5
 21
-31.4129
  0
LINE
  8
0
 10
-54.5
 20
-31.4129
 11
-54.4039
 21
-31.8959
  0
LINE
  8
0
 10
-54.4039
 20
-31.8959
 11
-54.2155
 21
-32.3509
  0
LINE
  8
0
 10
-54.2155
 20
-32.3509
 11
-53.9419
 21
-32.7603
  0
LINE
  8
0
 10
-53.9419
 20
-32.7603
 11
-53.5936
 21
-33.1085
  0
LINE
  8
0
 10
-53.5936
 20
-33.1085
 11
-53.1842
 21
-33.3821
  0
LINE
  8
0
 10
-53.1842
 20
-33.3821
 11
-52.7292
 21
-33.5706
  0
LINE
  8
0
 10
-52.7292
 20
-33.5706
 11
-52.2462
 21
-33.6667
  0
LINE
  8
0
 10
-52.2462
 20
-33.6667
 11
-51.7538
 21
-33.6667
  0
LINE
  8
0
 10
-51.7538
 20
-33.6667
 11
-51.2708
 21
-33.5706
  0
LINE
  8
0
 10
36.9792
 20
-43.9595
 11
37.4342
 21
-43.771
  0
LINE
  8
0
 10
37.4342
 20
-43.771
 11
37.8436
 21
-43.4974
  0
LINE
  8
0
 10
37.8436
 20
-43.4974
 11
38.1919
 21
-43.1492
  0
LINE
  8
0
 10
38.1919
 20
-43.1492
 11
38.4655
 21
-42.7397
  0
LINE
  8
0
 10
38.4655
 20
-42.7397
 11
38.6539
 21
-42.2848
  0
LINE
  8
0
 10
38.6539
 20
-42.2848
 11
38.75
 21
-41.8018
  0
LINE
  8
0
 10
38.75
 20
-41.8018
 11
38.75
 21
-41.3093
  0
LINE
  8
0
 10
38.75
 20
-41.3093
 11
38.6539
 21
-40.8263
  0
LINE
  8
0
 10
38.6539
 20
-40.8263
 11
38.4655
 21
-40.3714
  0
LINE
  8
0
 10
38.4655
 20
-40.3714
 11
38.1919
 21
-39.9619
  0
LINE
  8
0
 10
38.1919
 20
-39.9619
 11
37.8436
 21
-39.6137
  0
LINE
  8
0
 10
37.8436
 20
-39.6137
 11
37.4342
 21
-39.3401
  0
LINE
  8
0
 10
37.4342
 20
-39.3401
 11
36.9792
 21
-39.1516
  0
LINE
  8
0
 10
36.9792
 20
-39.1516
 11
36.4962
 21
-39.0555
  0
LINE
  8
0
 10
36.4962
 20
-39.0555
 11
36.0038
 21
-39.0555
  0
LINE
  8
0
 10
36.0038
 20
-39.0555
 11
35.5208
 21
-39.1516
  0
LINE
  8
0
 10
35.5208
 20
-39.1516
 11
35.0658
 21
-39.3401
  0
LINE
  8
0
 10
35.0658
 20
-39.3401
 11
34.6563
 21
-39.6137
  0
LINE
  8
0
 10
34.6563
 20
-39.6137
 11
34.3081
 21
-39.9619
  0
LINE
  8
0
 10
34.3081
 20
-39.9619
 11
34.0345
 21
-40.3714
  0
LINE
  8
0
 10
34.0345
 20
-40.3714
 11
33.8461
 21
-40.8263
  0
LINE
  8
0
 10
33.8461
 20
-40.8263
 11
33.75
 21
-41.3093
  0
LINE
  8
0
 10
33.75
 20
-41.3093
 11
33.75
 21
-41.8018
  0
LINE
  8
0
 10
33.75
 20
-41.8018
 11
33.8461
 21
-42.2848
  0
LINE
  8
0
 10
33.8461
 20
-42.2848
 11
34.0345
 21
-42.7397
  0
LINE
  8
0
 10
34.0345
 20
-42.7397
 11
34.3081
 21
-43.1492
  0
LINE
  8
0
 10
34.3081
 20
-43.1492
 11
34.6563
 21
-43.4974
  0
LINE
  8
0
 10
34.6563
 20
-43.4974
 11
35.0658
 21
-43.771
  0
LINE
  8
0
 10
35.0658
 20
-43.771
 11
35.5208
 21
-43.9595
  0
LINE
  8
0
 10
35.5208
 20
-43.9595
 11
36.0038
 21
-44.0555
  0
LINE
  8
0
 10
36.0038
 20
-44.0555
 11
36.4962
 21
-44.0555
  0
LINE
  8
0
 10
36.4962
 20
-44.0555
 11
36.9792
 21
-43.9595
  0
LINE
  8
0
 10
-35.5208
 20
-43.9595
 11
-35.0658
 21
-43.771
  0
LINE
  8
0
 10
-35.0658
 20
-43.771
 11
-34.6563
 21
-43.4974
  0
LINE
  8
0
 10
-34.6563
 20
-43.4974
 11
-34.3081
 21
-43.1492
  0
LINE
  8
0
 10
-34.3081
 20
-43.1492
 11
-34.0345
 21
-42.7397
  0
LINE
  8
0
 10
-34.0345
 20
-42.7397
 11
-33.8461
 21
-42.2848
  0
LINE
  8
0
 10
-33.8461
 20
-42.2848
 11
-33.75
 21
-41.8018
  0
LINE
  8
0
 10
-33.75
 20
-41.8018
 11
-33.75
 21
-41.3093
  0
LINE
  8
0
 10
-33.75
 20
-41.3093
 11
-33.8461
 21
-40.8263
  0
LINE
  8
0
 10
-33.8461
 20
-40.8263
 11
-34.0345
 21
-40.3714
  0
LINE
  8
0
 10
-34.0345
 20
-40.3714
 11
-34.3081
 21
-39.9619
  0
LINE
  8
0
 10
-34.3081
 20
-39.9619
 11
-34.6563
 21
-39.6137
  0
LINE
  8
0
 10
-34.6563
 20
-39.6137
 11
-35.0658
 21
-39.3401
  0
LINE
  8
0
 10
-35.0658
 20
-39.3401
 11
-35.5208
 21
-39.1516
  0
LINE
  8
0
 10
-35.5208
 20
-39.1516
 11
-36.0038
 21
-39.0555
  0
LINE
  8
0
 10
-36.0038
 20
-39.0555
 11
-36.4962
 21
-39.0555
  0
LINE
  8
0
 10
-36.4962
 20
-39.0555
 11
-36.9792
 21
-39.1516
  0
LINE
  8
0
 10
-36.9792
 20
-39.1516
 11
-37.4342
 21
-39.3401
  0
LINE
  8
0
 10
-37.4342
 20
-39.3401
 11
-37.8436
 21
-39.6137
  0
LINE
  8
0
 10
-37.8436
 20
-39.6137
 11
-38.1919
 21
-39.9619
  0
LINE
  8
0
 10
-38.1919
 20
-39.9619
 11
-38.4655
 21
-40.3714
  0
LINE
  8
0
 10
-38.4655
 20
-40.3714
 11
-38.6539
 21
-40.8263
  0
LINE
  8
0
 10
-38.6539
 20
-40.8263
 11
-38.75
 21
-41.3093
  0
LINE
  8
0
 10
-38.75
 20
-41.3093
 11
-38.75
 21
-41.8018
  0
LINE
  8
0
 10
-38.75
 20
-41.8018
 11
-38.6539
 21
-42.2848
  0
LINE
  8
0
 10
-38.6539
 20
-42.2848
 11
-38.4655
 21
-42.7397
  0
LINE
  8
0
 10
-38.4655
 20
-42.7397
 11
-38.1919
 21
-43.1492
  0
LINE
  8
0
 10
-38.1919
 20
-43.1492
 11
-37.8436
 21
-43.4974
  0
LINE
  8
0
 10
-37.8436
 20
-43.4974
 11
-37.4342
 21
-43.771
  0
LINE
  8
0
 10
-37.4342
 20
-43.771
 11
-36.9792
 21
-43.9595
  0
LINE
  8
0
 10
-36.9792
 20
-43.9595
 11
-36.4962
 21
-44.0555
  0
LINE
  8
0
 10
-36.4962
 20
-44.0555
 11
-36.0038
 21
-44.0555
  0
LINE
  8
0
 10
-36.0038
 20
-44.0555
 11
-35.5208
 21
-43.9595
  0
LINE
  8
0
 10
52.7292
 20
-54.3484
 11
53.1842
 21
-54.1599
  0
LINE
  8
0
 10
53.1842
 20
-54.1599
 11
53.5936
 21
-53.8863
  0
LINE
  8
0
 10
53.5936
 20
-53.8863
 11
53.9419
 21
-53.5381
  0
LINE
  8
0
 10
53.9419
 20
-53.5381
 11
54.2155
 21
-53.1286
  0
LINE
  8
0
 10
54.2155
 20
-53.1286
 11
54.4039
 21
-52.6737
  0
LINE
  8
0
 10
54.4039
 20
-52.6737
 11
54.5
 21
-52.1907
  0
LINE
  8
0
 10
54.5
 20
-52.1907
 11
54.5
 21
-51.6982
  0
LINE
  8
0
 10
54.5
 20
-51.6982
 11
54.4039
 21
-51.2152
  0
LINE
  8
0
 10
54.4039
 20
-51.2152
 11
54.2155
 21
-50.7602
  0
LINE
  8
0
 10
54.2155
 20
-50.7602
 11
53.9419
 21
-50.3508
  0
LINE
  8
0
 10
53.9419
 20
-50.3508
 11
53.5936
 21
-50.0026
  0
LINE
  8
0
 10
53.5936
 20
-50.0026
 11
53.1842
 21
-49.729
  0
LINE
  8
0
 10
53.1842
 20
-49.729
 11
52.7292
 21
-49.5405
  0
LINE
  8
0
 10
52.7292
 20
-49.5405
 11
52.2462
 21
-49.4444
  0
LINE
  8
0
 10
52.2462
 20
-49.4444
 11
51.7538
 21
-49.4444
  0
LINE
  8
0
 10
51.7538
 20
-49.4444
 11
51.2708
 21
-49.5405
  0
LINE
  8
0
 10
51.2708
 20
-49.5405
 11
50.8158
 21
-49.729
  0
LINE
  8
0
 10
50.8158
 20
-49.729
 11
50.4063
 21
-50.0026
  0
LINE
  8
0
 10
50.4063
 20
-50.0026
 11
50.0581
 21
-50.3508
  0
LINE
  8
0
 10
50.0581
 20
-50.3508
 11
49.7845
 21
-50.7602
  0
LINE
  8
0
 10
49.7845
 20
-50.7602
 11
49.5961
 21
-51.2152
  0
LINE
  8
0
 10
49.5961
 20
-51.2152
 11
49.5
 21
-51.6982
  0
LINE
  8
0
 10
49.5
 20
-51.6982
 11
49.5
 21
-52.1907
  0
LINE
  8
0
 10
49.5
 20
-52.1907
 11
49.5961
 21
-52.6737
  0
LINE
  8
0
 10
49.5961
 20
-52.6737
 11
49.7845
 21
-53.1286
  0
LINE
  8
0
 10
49.7845
 20
-53.1286
 11
50.0581
 21
-53.5381
  0
LINE
  8
0
 10
50.0581
 20
-53.5381
 11
50.4063
 21
-53.8863
  0
LINE
  8
0
 10
50.4063
 20
-53.8863
 11
50.8158
 21
-54.1599
  0
LINE
  8
0
 10
50.8158
 20
-54.1599
 11
51.2708
 21
-54.3484
  0
LINE
  8
0
 10
51.2708
 20
-54.3484
 11
51.7538
 21
-54.4444
  0
LINE
  8
0
 10
51.7538
 20
-54.4444
 11
52.2462
 21
-54.4444
  0
LINE
  8
0
 10
52.2462
 20
-54.4444
 11
52.7292
 21
-54.3484
  0
LINE
  8
0
 10
-51.2708
 20
-54.3484
 11
-50.8158
 21
-54.1599
  0
LINE
  8
0
 10
-50.8158
 20
-54.1599
 11
-50.4063
 21
-53.8863
  0
LINE
  8
0
 10
-50.4063
 20
-53.8863
 11
-50.0581
 21
-53.5381
  0
LINE
  8
0
 10
-50.0581
 20
-53.5381
 11
-49.7845
 21
-53.1286
  0
LINE
  8
0
 10
-49.7845
 20
-53.1286
 11
-49.5961
 21
-52.6737
  0
LINE
  8
0
 10
-49.5961
 20
-52.6737
 11
-49.5
 21
-52.1907
  0
LINE
  8
0
 10
-49.5
 20
-52.1907
 11
-49.5
 21
-51.6982
  0
LINE
  8
0
 10
-49.5
 20
-51.6982
 11
-49.5961
 21
-51.2152
  0
LINE
  8
0
 10
-49.5961
 20
-51.2152
 11
-49.7845
 21
-50.7602
  0
LINE
  8
0
 10
-49.7845
 20
-50.7602
 11
-50.0581
 21
-50.3508
  0
LINE
  8
0
 10
-50.0581
 20
-50.3508
 11
-50.4063
 21
-50.0026
  0
LINE
  8
0
 10
-50.4063
 20
-50.0026
 11
-50.8158
 21
-49.729
  0
LINE
  8
0
 10
-50.8158
 20
-49.729
 11
-51.2708
 21
-49.5405
  0
LINE
  8
0
 10
-51.2708
 20
-49.5405
 11
-51.7538
 21
-49.4444
  0
LINE
  8
0
 10
-51.7538
 20
-49.4444
 11
-52.2462
 21
-49.4444
  0
LINE
  8
0
 10
-52.2462
 20
-49.4444
 11
-52.7292
 21
-49.5405
  0
LINE
  8
0
 10
-52.7292
 20
-49.5405
 11
-53.1842
 21
-49.729
  0
LINE
  8
0
 10
-53.1842
 20
-49.729
 11
-53.5936
 21
-50.0026
  0
LINE
  8
0
 10
-53.5936
 20
-50.0026
 11
-53.9419
 21
-50.3508
  0
LINE
  8
0
 10
-53.9419
 20
-50.3508
 11
-54.2155
 21
-50.7602
  0
LINE
  8
0
 10
-54.2155
 20
-50.7602
 11
-54.4039
 21
-51.2152
  0
LINE
  8
0
 10
-54.4039
 20
-51.2152
 11
-54.5
 21
-51.6982
  0
LINE
  8
0
 10
-54.5
 20
-51.6982
 11
-54.5
 21
-52.1907
  0
LINE
  8
0
 10
-54.5
 20
-52.1907
 11
-54.4039
 21
-52.6737
  0
LINE
  8
0
 10
-54.4039
 20
-52.6737
 11
-54.2155
 21
-53.1286
  0
LINE
  8
0
 10
-54.2155
 20
-53.1286
 11
-53.9419
 21
-53.5381
  0
LINE
  8
0
 10
-53.9419
 20
-53.5381
 11
-53.5936
 21
-53.8863
  0
LINE
  8
0
 10
-53.5936
 20
-53.8863
 11
-53.1842
 21
-54.1599
  0
LINE
  8
0
 10
-53.1842
 20
-54.1599
 11
-52.7292
 21
-54.3484
  0
LINE
  8
0
 10
-52.7292
 20
-54.3484
 11
-52.2462
 21
-54.4444
  0
LINE
  8
0
 10
-52.2462
 20
-54.4444
 11
-51.7538
 21
-54.4444
  0
LINE
  8
0
 10
-51.7538
 20
-54.4444
 11
-51.2708
 21
-54.3484
  0
LINE
  8
0
 10
36.9792
 20
-64.7373
 11
37.4342
 21
-64.5488
  0
LINE
  8
0
 10
37.4342
 20
-64.5488
 11
37.8436
 21
-64.2752
  0
LINE
  8
0
 10
37.8436
 20
-64.2752
 11
38.1919
 21
-63.927
  0
LINE
  8
0
 10
38.1919
 20
-63.927
 11
38.4655
 21
-63.5175
  0
LINE
  8
0
 10
38.4655
 20
-63.5175
 11
38.6539
 21
-63.0625
  0
LINE
  8
0
 10
38.6539
 20
-63.0625
 11
38.75
 21
-62.5796
  0
LINE
  8
0
 10
38.75
 20
-62.5796
 11
38.75
 21
-62.0871
  0
LINE
  8
0
 10
38.75
 20
-62.0871
 11
38.6539
 21
-61.6041
  0
LINE
  8
0
 10
38.6539
 20
-61.6041
 11
38.4655
 21
-61.1491
  0
LINE
  8
0
 10
38.4655
 20
-61.1491
 11
38.1919
 21
-60.7397
  0
LINE
  8
0
 10
38.1919
 20
-60.7397
 11
37.8436
 21
-60.3914
  0
LINE
  8
0
 10
37.8436
 20
-60.3914
 11
37.4342
 21
-60.1179
  0
LINE
  8
0
 10
37.4342
 20
-60.1179
 11
36.9792
 21
-59.9294
  0
LINE
  8
0
 10
36.9792
 20
-59.9294
 11
36.4962
 21
-59.8333
  0
LINE
  8
0
 10
36.4962
 20
-59.8333
 11
36.0038
 21
-59.8333
  0
LINE
  8
0
 10
36.0038
 20
-59.8333
 11
35.5208
 21
-59.9294
  0
LINE
  8
0
 10
35.5208
 20
-59.9294
 11
35.0658
 21
-60.1179
  0
LINE
  8
0
 10
35.0658
 20
-60.1179
 11
34.6563
 21
-60.3914
  0
LINE
  8
0
 10
34.6563
 20
-60.3914
 11
34.3081
 21
-60.7397
  0
LINE
  8
0
 10
34.3081
 20
-60.7397
 11
34.0345
 21
-61.1491
  0
LINE
  8
0
 10
34.0345
 20
-61.1491
 11
33.8461
 21
-61.6041
  0
LINE
  8
0
 10
33.8461
 20
-61.6041
 11
33.75
 21
-62.0871
  0
LINE
  8
0
 10
33.75
 20
-62.0871
 11
33.75
 21
-62.5796
  0
LINE
  8
0
 10
33.75
 20
-62.5796
 11
33.8461
 21
-63.0625
  0
LINE
  8
0
 10
33.8461
 20
-63.0625
 11
34.0345
 21
-63.5175
  0
LINE
  8
0
 10
34.0345
 20
-63.5175
 11
34.3081
 21
-63.927
  0
LINE
  8
0
 10
34.3081
 20
-63.927
 11
34.6563
 21
-64.2752
  0
LINE
  8
0
 10
34.6563
 20
-64.2752
 11
35.0658
 21
-64.5488
  0
LINE
  8
0
 10
35.0658
 20
-64.5488
 11
35.5208
 21
-64.7373
  0
LINE
  8
0
 10
35.5208
 20
-64.7373
 11
36.0038
 21
-64.8333
  0
LINE
  8
0
 10
36.0038
 20
-64.8333
 11
36.4962
 21
-64.8333
  0
LINE
  8
0
 10
36.4962
 20
-64.8333
 11
36.9792
 21
-64.7373
  0
LINE
  8
0
 10
-35.5208
 20
-64.7373
 11
-35.0658
 21
-64.5488
  0
LINE
  8
0
 10
-35.0658
 20
-64.5488
 11
-34.6563
 21
-64.2752
  0
LINE
  8
0
 10
-34.6563
 20
-64.2752
 11
-34.3081
 21
-63.927
  0
LINE
  8
0
 10
-34.3081
 20
-63.927
 11
-34.0345
 21
-63.5175
  0
LINE
  8
0
 10
-34.0345
 20
-63.5175
 11
-33.8461
 21
-63.0625
  0
LINE
  8
0
 10
-33.8461
 20
-63.0625
 11
-33.75
 21
-62.5796
  0
LINE
  8
0
 10
-33.75
 20
-62.5796
 11
-33.75
 21
-62.0871
  0
LINE
  8
0
 10
-33.75
 20
-62.0871
 11
-33.8461
 21
-61.6041
  0
LINE
  8
0
 10
-33.8461
 20
-61.6041
 11
-34.0345
 21
-61.1491
  0
LINE
  8
0
 10
-34.0345
 20
-61.1491
 11
-34.3081
 21
-60.7397
  0
LINE
  8
0
 10
-34.3081
 20
-60.7397
 11
-34.6563
 21
-60.3914
  0
LINE
  8
0
 10
-34.6563
 20
-60.3914
 11
-35.0658
 21
-60.1179
  0
LINE
  8
0
 10
-35.0658
 20
-60.1179
 11
-35.5208
 21
-59.9294
  0
LINE
  8
0
 10
-35.5208
 20
-59.9294
 11
-36.0038
 21
-59.8333
  0
LINE
  8
0
 10
-36.0038
 20
-59.8333
 11
-36.4962
 21
-59.8333
  0
LINE
  8
0
 10
-36.4962
 20
-59.8333
 11
-36.9792
 21
-59.9294
  0
LINE
  8
0
 10
-36.9792
 20
-59.9294
 11
-37.4342
 21
-60.1179
  0
LINE
  8
0
 10
-37.4342
 20
-60.1179
 11
-37.8436
 21
-60.3914
  0
LINE
  8
0
 10
-37.8436
 20
-60.3914
 11
-38.1919
 21
-60.7397
  0
LINE
  8
0
 10
-38.1919
 20
-60.7397
 11
-38.4655
 21
-61.1491
  0
LINE
  8
0
 10
-38.4655
 20
-61.1491
 11
-38.6539
 21
-61.6041
  0
LINE
  8
0
 10
-38.6539
 20
-61.6041
 11
-38.75
 21
-62.0871
  0
LINE
  8
0
 10
-38.75
 20
-62.0871
 11
-38.75
 21
-62.5796
  0
LINE
  8
0
 10
-38.75
 20
-62.5796
 11
-38.6539
 21
-63.0625
  0
LINE
  8
0
 10
-38.6539
 20
-63.0625
 11
-38.4655
 21
-63.5175
  0
LINE
  8
0
 10
-38.4655
 20
-63.5175
 11
-38.1919
 21
-63.927
  0
LINE
  8
0
 10
-38.1919
 20
-63.927
 11
-37.8436
 21
-64.2752
  0
LINE
  8
0
 10
-37.8436
 20
-64.2752
 11
-37.4342
 21
-64.5488
  0
LINE
  8
0
 10
-37.4342
 20
-64.5488
 11
-36.9792
 21
-64.7373
  0
LINE
  8
0
 10
-36.9792
 20
-64.7373
 11
-36.4962
 21
-64.8333
  0
LINE
  8
0
 10
-36.4962
 20
-64.8333
 11
-36.0038
 21
-64.8333
  0
LINE
  8
0
 10
-36.0038
 20
-64.8333
 11
-35.5208
 21
-64.7373
  0
LINE
  8
0
 10
52.7292
 20
-75.1261
 11
53.1842
 21
-74.9377
  0
LINE
  8
0
 10
53.1842
 20
-74.9377
 11
53.5936
 21
-74.6641
  0
LINE
  8
0
 10
53.5936
 20
-74.6641
 11
53.9419
 21
-74.3159
  0
LINE
  8
0
 10
53.9419
 20
-74.3159
 11
54.2155
 21
-73.9064
  0
LINE
  8
0
 10
54.2155
 20
-73.9064
 11
54.4039
 21
-73.4514
  0
LINE
  8
0
 10
54.4039
 20
-73.4514
 11
54.5
 21
-72.9684
  0
LINE
  8
0
 10
54.5
 20
-72.9684
 11
54.5
 21
-72.476
  0
LINE
  8
0
 10
54.5
 20
-72.476
 11
54.4039
 21
-71.993
  0
LINE
  8
0
 10
54.4039
 20
-71.993
 11
54.2155
 21
-71.538
  0
LINE
  8
0
 10
54.2155
 20
-71.538
 11
53.9419
 21
-71.1286
  0
LINE
  8
0
 10
53.9419
 20
-71.1286
 11
53.5936
 21
-70.7803
  0
LINE
  8
0
 10
53.5936
 20
-70.7803
 11
53.1842
 21
-70.5067
  0
LINE
  8
0
 10
53.1842
 20
-70.5067
 11
52.7292
 21
-70.3183
  0
LINE
  8
0
 10
52.7292
 20
-70.3183
 11
52.2462
 21
-70.2222
  0
LINE
  8
0
 10
52.2462
 20
-70.2222
 11
51.7538
 21
-70.2222
  0
LINE
  8
0
 10
51.7538
 20
-70.2222
 11
51.2708
 21
-70.3183
  0
LINE
  8
0
 10
51.2708
 20
-70.3183
 11
50.8158
 21
-70.5067
  0
LINE
  8
0
 10
50.8158
 20
-70.5067
 11
50.4063
 21
-70.7803
  0
LINE
  8
0
 10
50.4063
 20
-70.7803
 11
50.0581
 21
-71.1286
  0
LINE
  8
0
 10
50.0581
 20
-71.1286
 11
49.7845
 21
-71.538
  0
LINE
  8
0
 10
49.7845
 20
-71.538
 11
49.5961
 21
-71.993
  0
LINE
  8
0
 10
49.5961
 20
-71.993
 11
49.5
 21
-72.476
  0
LINE
  8
0
 10
49.5
 20
-72.476
 11
49.5
 21
-72.9684
  0
LINE
  8
0
 10
49.5
 20
-72.9684
 11
49.5961
 21
-73.4514
  0
LINE
  8
0
 10
49.5961
 20
-73.4514
 11
49.7845
 21
-73.9064
  0
LINE
  8
0
 10
49.7845
 20
-73.9064
 11
50.0581
 21
-74.3159
  0
LINE
  8
0
 10
50.0581
 20
-74.3159
 11
50.4063
 21
-74.6641
  0
LINE
  8
0
 10
50.4063
 20
-74.6641
 11
50.8158
 21
-74.9377
  0
LINE
  8
0
 10
50.8158
 20
-74.9377
 11
51.2708
 21
-75.1261
  0
LINE
  8
0
 10
51.2708
 20
-75.1261
 11
51.7538
 21
-75.2222
  0
LINE
  8
0
 10
51.7538
 20
-75.2222
 11
52.2462
 21
-75.2222
  0
LINE
  8
0
 10
52.2462
 20
-75.2222
 11
52.7292
 21
-75.1261
  0
LINE
  8
0
 10
-51.2708
 20
-75.1261
 11
-50.8158
 21
-74.9377
  0
LINE
  8
0
 10
-50.8158
 20
-74.9377
 11
-50.4063
 21
-74.6641
  0
LINE
  8
0
 10
-50.4063
 20
-74.6641
 11
-50.0581
 21
-74.3159
  0
LINE
  8
0
 10
-50.0581
 20
-74.3159
 11
-49.7845
 21
-73.9064
  0
LINE
  8
0
 10
-49.7845
 20
-73.9064
 11
-49.5961
 21
-73.4514
  0
LINE
  8
0
 10
-49.5961
 20
-73.4514
 11
-49.5
 21
-72.9684
  0
LINE
  8
0
 10
-49.5
 20
-72.9684
 11
-49.5
 21
-72.476
  0
LINE
  8
0
 10
-49.5
 20
-72.476
 11
-49.5961
 21
-71.993
  0
LINE
  8
0
 10
-49.5961
 20
-71.993
 11
-49.7845
 21
-71.538
  0
LINE
  8
0
 10
-49.7845
 20
-71.538
 11
-50.0581
 21
-71.1286
  0
LINE
  8
0
 10
-50.0581
 20
-71.1286
 11
-50.4063
 21
-70.7803
  0
LINE
  8
0
 10
-50.4063
 20
-70.7803
 11
-50.8158
 21
-70.5067
  0
LINE
  8
0
 10
-50.8158
 20
-70.5067
 11
-51.2708
 21
-70.3183
  0
LINE
  8
0
 10
-51.2708
 20
-70.3183
 11
-51.7538
 21
-70.2222
  0
LINE
  8
0
 10
-51.7538
 20
-70.2222
 11
-52.2462
 21
-70.2222
  0
LINE
  8
0
 10
-52.2462
 20
-70.2222
 11
-52.7292
 21
-70.3183
  0
LINE
  8
0
 10
-52.7292
 20
-70.3183
 11
-53.1842
 21
-70.5067
  0
LINE
  8
0
 10
-53.1842
 20
-70.5067
 11
-53.5936
 21
-70.7803
  0
LINE
  8
0
 10
-53.5936
 20
-70.7803
 11
-53.9419
 21
-71.1286
  0
LINE
  8
0
 10
-53.9419
 20
-71.1286
 11
-54.2155
 21
-71.538
  0
LINE
  8
0
 10
-54.2155
 20
-71.538
 11
-54.4039
 21
-71.993
  0
LINE
  8
0
 10
-54.4039
 20
-71.993
 11
-54.5
 21
-72.476
  0
LINE
  8
0
 10
-54.5
 20
-72.476
 11
-54.5
 21
-72.9684
  0
LINE
  8
0
 10
-54.5
 20
-72.9684
 11
-54.4039
 21
-73.4514
  0
LINE
  8
0
 10
-54.4039
 20
-73.4514
 11
-54.2155
 21
-73.9064
  0
LINE
  8
0
 10
-54.2155
 20
-73.9064
 11
-53.9419
 21
-74.3159
  0
LINE
  8
0
 10
-53.9419
 20
-74.3159
 11
-53.5936
 21
-74.6641
  0
LINE
  8
0
 10
-53.5936
 20
-74.6641
 11
-53.1842
 21
-74.9377
  0
LINE
  8
0
 10
-53.1842
 20
-74.9377
 11
-52.7292
 21
-75.1261
  0
LINE
  8
0
 10
-52.7292
 20
-75.1261
 11
-52.2462
 21
-75.2222
  0
LINE
  8
0
 10
-52.2462
 20
-75.2222
 11
-51.7538
 21
-75.2222
  0
LINE
  8
0
 10
-51.7538
 20
-75.2222
 11
-51.2708
 21
-75.1261
  0
ENDSEC
  0
SECTION
  2
OBJECTS
  0
DICTIONARY
  0
ENDSEC
  0
EOF
