  0
SECTION
  2
BLOCKS
  0
ENDSEC
  0
SECTION
  2
ENTITIES
  0
LINE
  8
0
 10
63.5
 20
93.5
 11
-63.5
 21
93.5
  0
LINE
  8
0
 10
-63.5
 20
93.5
 11
-63.5
 21
-93.5
  0
LINE
  8
0
 10
-63.5
 20
-93.5
 11
63.5
 21
-93.5
  0
LINE
  8
0
 10
63.5
 20
-93.5
 11
63.5
 21
93.5
  0
LINE
  8
0
 10
-61
 20
-91
 11
-61
 21
91
  0
LINE
  8
0
 10
-61
 20
91
 11
61
 21
91
  0
LINE
  8
0
 10
61
 20
91
 11
61
 21
-91
  0
LINE
  8
0
 10
61
 20
-91
 11
-61
 21
-91
  0
LINE
  8
0
 10
-47.2708
 20
66.8461
 11
-46.8158
 21
67.0345
  0
LINE
  8
0
 10
-46.8158
 20
67.0345
 11
-46.4063
 21
67.3081
  0
LINE
  8
0
 10
-46.4063
 20
67.3081
 11
-46.0581
 21
67.6563
  0
LINE
  8
0
 10
-46.0581
 20
67.6563
 11
-45.7845
 21
68.0658
  0
LINE
  8
0
 10
-45.7845
 20
68.0658
 11
-45.5961
 21
68.5208
  0
LINE
  8
0
 10
-45.5961
 20
68.5208
 11
-45.5
 21
69.0038
  0
LINE
  8
0
 10
-45.5
 20
69.0038
 11
-45.5
 21
69.4962
  0
LINE
  8
0
 10
-45.5
 20
69.4962
 11
-45.5961
 21
69.9792
  0
LINE
  8
0
 10
-45.5961
 20
69.9792
 11
-45.7845
 21
70.4342
  0
LINE
  8
0
 10
-45.7845
 20
70.4342
 11
-46.0581
 21
70.8436
  0
LINE
  8
0
 10
-46.0581
 20
70.8436
 11
-46.4063
 21
71.1919
  0
LINE
  8
0
 10
-46.4063
 20
71.1919
 11
-46.8158
 21
71.4655
  0
LINE
  8
0
 10
-46.8158
 20
71.4655
 11
-47.2708
 21
71.6539
  0
LINE
  8
0
 10
-47.2708
 20
71.6539
 11
-47.7538
 21
71.75
  0
LINE
  8
0
 10
-47.7538
 20
71.75
 11
-48.2462
 21
71.75
  0
LINE
  8
0
 10
-48.2462
 20
71.75
 11
-48.7292
 21
71.6539
  0
LINE
  8
0
 10
-48.7292
 20
71.6539
 11
-49.1842
 21
71.4655
  0
LINE
  8
0
 10
-49.1842
 20
71.4655
 11
-49.5936
 21
71.1919
  0
LINE
  8
0
 10
-49.5936
 20
71.1919
 11
-49.9419
 21
70.8436
  0
LINE
  8
0
 10
-49.9419
 20
70.8436
 11
-50.2155
 21
70.4342
  0
LINE
  8
0
 10
-50.2155
 20
70.4342
 11
-50.4039
 21
69.9792
  0
LINE
  8
0
 10
-50.4039
 20
69.9792
 11
-50.5
 21
69.4962
  0
LINE
  8
0
 10
-50.5
 20
69.4962
 11
-50.5
 21
69.0038
  0
LINE
  8
0
 10
-50.5
 20
69.0038
 11
-50.4039
 21
68.5208
  0
LINE
  8
0
 10
-50.4039
 20
68.5208
 11
-50.2155
 21
68.0658
  0
LINE
  8
0
 10
-50.2155
 20
68.0658
 11
-49.9419
 21
67.6563
  0
LINE
  8
0
 10
-49.9419
 20
67.6563
 11
-49.5936
 21
67.3081
  0
LINE
  8
0
 10
-49.5936
 20
67.3081
 11
-49.1842
 21
67.0345
  0
LINE
  8
0
 10
-49.1842
 20
67.0345
 11
-48.7292
 21
66.8461
  0
LINE
  8
0
 10
-48.7292
 20
66.8461
 11
-48.2462
 21
66.75
  0
LINE
  8
0
 10
-48.2462
 20
66.75
 11
-47.7538
 21
66.75
  0
LINE
  8
0
 10
-47.7538
 20
66.75
 11
-47.2708
 21
66.8461
  0
LINE
  8
0
 10
0.729218
 20
66.8461
 11
1.18419
 21
67.0345
  0
LINE
  8
0
 10
1.18419
 20
67.0345
 11
1.59364
 21
67.3081
  0
LINE
  8
0
 10
1.59364
 20
67.3081
 11
1.94186
 21
67.6563
  0
LINE
  8
0
 10
1.94186
 20
67.6563
 11
2.21547
 21
68.0658
  0
LINE
  8
0
 10
2.21547
 20
68.0658
 11
2.40392
 21
68.5208
  0
LINE
  8
0
 10
2.40392
 20
68.5208
 11
2.49998
 21
69.0038
  0
LINE
  8
0
 10
2.49998
 20
69.0038
 11
2.5
 21
69.4962
  0
LINE
  8
0
 10
2.5
 20
69.4962
 11
2.40392
 21
69.9792
  0
LINE
  8
0
 10
2.40392
 20
69.9792
 11
2.21547
 21
70.4342
  0
LINE
  8
0
 10
2.21547
 20
70.4342
 11
1.94186
 21
70.8436
  0
LINE
  8
0
 10
1.94186
 20
70.8436
 11
1.59364
 21
71.1919
  0
LINE
  8
0
 10
1.59364
 20
71.1919
 11
1.18419
 21
71.4655
  0
LINE
  8
0
 10
1.18419
 20
71.4655
 11
0.729218
 21
71.6539
  0
LINE
  8
0
 10
0.729218
 20
71.6539
 11
0.246216
 21
71.75
  0
LINE
  8
0
 10
0.246216
 20
71.75
 11
-0.246216
 21
71.75
  0
LINE
  8
0
 10
-0.246216
 20
71.75
 11
-0.729218
 21
71.6539
  0
LINE
  8
0
 10
-0.729218
 20
71.6539
 11
-1.18419
 21
71.4655
  0
LINE
  8
0
 10
-1.18419
 20
71.4655
 11
-1.59364
 21
71.1919
  0
LINE
  8
0
 10
-1.59364
 20
71.1919
 11
-1.94186
 21
70.8436
  0
LINE
  8
0
 10
-1.94186
 20
70.8436
 11
-2.21547
 21
70.4342
  0
LINE
  8
0
 10
-2.21547
 20
70.4342
 11
-2.40392
 21
69.9792
  0
LINE
  8
0
 10
-2.40392
 20
69.9792
 11
-2.5
 21
69.4962
  0
LINE
  8
0
 10
-2.5
 20
69.4962
 11
-2.5
 21
69.0038
  0
LINE
  8
0
 10
-2.5
 20
69.0038
 11
-2.40392
 21
68.5208
  0
LINE
  8
0
 10
-2.40392
 20
68.5208
 11
-2.21547
 21
68.0658
  0
LINE
  8
0
 10
-2.21547
 20
68.0658
 11
-1.94186
 21
67.6563
  0
LINE
  8
0
 10
-1.94186
 20
67.6563
 11
-1.59364
 21
67.3081
  0
LINE
  8
0
 10
-1.59364
 20
67.3081
 11
-1.18419
 21
67.0345
  0
LINE
  8
0
 10
-1.18419
 20
67.0345
 11
-0.729218
 21
66.8461
  0
LINE
  8
0
 10
-0.729218
 20
66.8461
 11
-0.246216
 21
66.75
  0
LINE
  8
0
 10
-0.246216
 20
66.75
 11
0.246216
 21
66.75
  0
LINE
  8
0
 10
0.246216
 20
66.75
 11
0.729218
 21
66.8461
  0
LINE
  8
0
 10
48.7292
 20
66.8461
 11
49.1842
 21
67.0345
  0
LINE
  8
0
 10
49.1842
 20
67.0345
 11
49.5936
 21
67.3081
  0
LINE
  8
0
 10
49.5936
 20
67.3081
 11
49.9419
 21
67.6563
  0
LINE
  8
0
 10
49.9419
 20
67.6563
 11
50.2155
 21
68.0658
  0
LINE
  8
0
 10
50.2155
 20
68.0658
 11
50.4039
 21
68.5208
  0
LINE
  8
0
 10
50.4039
 20
68.5208
 11
50.5
 21
69.0038
  0
LINE
  8
0
 10
50.5
 20
69.0038
 11
50.5
 21
69.4962
  0
LINE
  8
0
 10
50.5
 20
69.4962
 11
50.4039
 21
69.9792
  0
LINE
  8
0
 10
50.4039
 20
69.9792
 11
50.2155
 21
70.4342
  0
LINE
  8
0
 10
50.2155
 20
70.4342
 11
49.9419
 21
70.8436
  0
LINE
  8
0
 10
49.9419
 20
70.8436
 11
49.5936
 21
71.1919
  0
LINE
  8
0
 10
49.5936
 20
71.1919
 11
49.1842
 21
71.4655
  0
LINE
  8
0
 10
49.1842
 20
71.4655
 11
48.7292
 21
71.6539
  0
LINE
  8
0
 10
48.7292
 20
71.6539
 11
48.2462
 21
71.75
  0
LINE
  8
0
 10
48.2462
 20
71.75
 11
47.7538
 21
71.75
  0
LINE
  8
0
 10
47.7538
 20
71.75
 11
47.2708
 21
71.6539
  0
LINE
  8
0
 10
47.2708
 20
71.6539
 11
46.8158
 21
71.4655
  0
LINE
  8
0
 10
46.8158
 20
71.4655
 11
46.4063
 21
71.1919
  0
LINE
  8
0
 10
46.4063
 20
71.1919
 11
46.0581
 21
70.8436
  0
LINE
  8
0
 10
46.0581
 20
70.8436
 11
45.7845
 21
70.4342
  0
LINE
  8
0
 10
45.7845
 20
70.4342
 11
45.5961
 21
69.9792
  0
LINE
  8
0
 10
45.5961
 20
69.9792
 11
45.5
 21
69.4962
  0
LINE
  8
0
 10
45.5
 20
69.4962
 11
45.5
 21
69.0038
  0
LINE
  8
0
 10
45.5
 20
69.0038
 11
45.5961
 21
68.5208
  0
LINE
  8
0
 10
45.5961
 20
68.5208
 11
45.7845
 21
68.0658
  0
LINE
  8
0
 10
45.7845
 20
68.0658
 11
46.0581
 21
67.6563
  0
LINE
  8
0
 10
46.0581
 20
67.6563
 11
46.4063
 21
67.3081
  0
LINE
  8
0
 10
46.4063
 20
67.3081
 11
46.8158
 21
67.0345
  0
LINE
  8
0
 10
46.8158
 20
67.0345
 11
47.2708
 21
66.8461
  0
LINE
  8
0
 10
47.2708
 20
66.8461
 11
47.7538
 21
66.75
  0
LINE
  8
0
 10
47.7538
 20
66.75
 11
48.2462
 21
66.75
  0
LINE
  8
0
 10
48.2462
 20
66.75
 11
48.7292
 21
66.8461
  0
LINE
  8
0
 10
30.75
 20
45
 11
-30.75
 21
45
  0
LINE
  8
0
 10
-30.75
 20
45
 11
-30.75
 21
-45
  0
LINE
  8
0
 10
-30.75
 20
-45
 11
30.75
 21
-45
  0
LINE
  8
0
 10
30.75
 20
-45
 11
30.75
 21
45
  0
LINE
  8
0
 10
-47.2708
 20
-2.40392
 11
-46.8158
 21
-2.21547
  0
LINE
  8
0
 10
-46.8158
 20
-2.21547
 11
-46.4063
 21
-1.94186
  0
LINE
  8
0
 10
-46.4063
 20
-1.94186
 11
-46.0581
 21
-1.59364
  0
LINE
  8
0
 10
-46.0581
 20
-1.59364
 11
-45.7845
 21
-1.18419
  0
LINE
  8
0
 10
-45.7845
 20
-1.18419
 11
-45.5961
 21
-0.729218
  0
LINE
  8
0
 10
-45.5961
 20
-0.729218
 11
-45.5
 21
-0.246216
  0
LINE
  8
0
 10
-45.5
 20
-0.246216
 11
-45.5
 21
0.246216
  0
LINE
  8
0
 10
-45.5
 20
0.246216
 11
-45.5961
 21
0.729218
  0
LINE
  8
0
 10
-45.5961
 20
0.729218
 11
-45.7845
 21
1.18419
  0
LINE
  8
0
 10
-45.7845
 20
1.18419
 11
-46.0581
 21
1.59364
  0
LINE
  8
0
 10
-46.0581
 20
1.59364
 11
-46.4063
 21
1.94186
  0
LINE
  8
0
 10
-46.4063
 20
1.94186
 11
-46.8158
 21
2.21547
  0
LINE
  8
0
 10
-46.8158
 20
2.21547
 11
-47.2708
 21
2.40392
  0
LINE
  8
0
 10
-47.2708
 20
2.40392
 11
-47.7538
 21
2.5
  0
LINE
  8
0
 10
-47.7538
 20
2.5
 11
-48.2462
 21
2.5
  0
LINE
  8
0
 10
-48.2462
 20
2.5
 11
-48.7292
 21
2.40392
  0
LINE
  8
0
 10
-48.7292
 20
2.40392
 11
-49.1842
 21
2.21547
  0
LINE
  8
0
 10
-49.1842
 20
2.21547
 11
-49.5936
 21
1.94186
  0
LINE
  8
0
 10
-49.5936
 20
1.94186
 11
-49.9419
 21
1.59364
  0
LINE
  8
0
 10
-49.9419
 20
1.59364
 11
-50.2155
 21
1.18419
  0
LINE
  8
0
 10
-50.2155
 20
1.18419
 11
-50.4039
 21
0.729218
  0
LINE
  8
0
 10
-50.4039
 20
0.729218
 11
-50.5
 21
0.246216
  0
LINE
  8
0
 10
-50.5
 20
0.246216
 11
-50.5
 21
-0.246216
  0
LINE
  8
0
 10
-50.5
 20
-0.246216
 11
-50.4039
 21
-0.729218
  0
LINE
  8
0
 10
-50.4039
 20
-0.729218
 11
-50.2155
 21
-1.18419
  0
LINE
  8
0
 10
-50.2155
 20
-1.18419
 11
-49.9419
 21
-1.59364
  0
LINE
  8
0
 10
-49.9419
 20
-1.59364
 11
-49.5936
 21
-1.94186
  0
LINE
  8
0
 10
-49.5936
 20
-1.94186
 11
-49.1842
 21
-2.21547
  0
LINE
  8
0
 10
-49.1842
 20
-2.21547
 11
-48.7292
 21
-2.40392
  0
LINE
  8
0
 10
-48.7292
 20
-2.40392
 11
-48.2462
 21
-2.49998
  0
LINE
  8
0
 10
-48.2462
 20
-2.49998
 11
-47.7538
 21
-2.5
  0
LINE
  8
0
 10
-47.7538
 20
-2.5
 11
-47.2708
 21
-2.40392
  0
LINE
  8
0
 10
48.7292
 20
-2.40392
 11
49.1842
 21
-2.21547
  0
LINE
  8
0
 10
49.1842
 20
-2.21547
 11
49.5936
 21
-1.94186
  0
LINE
  8
0
 10
49.5936
 20
-1.94186
 11
49.9419
 21
-1.59364
  0
LINE
  8
0
 10
49.9419
 20
-1.59364
 11
50.2155
 21
-1.18419
  0
LINE
  8
0
 10
50.2155
 20
-1.18419
 11
50.4039
 21
-0.729218
  0
LINE
  8
0
 10
50.4039
 20
-0.729218
 11
50.5
 21
-0.246216
  0
LINE
  8
0
 10
50.5
 20
-0.246216
 11
50.5
 21
0.246216
  0
LINE
  8
0
 10
50.5
 20
0.246216
 11
50.4039
 21
0.729218
  0
LINE
  8
0
 10
50.4039
 20
0.729218
 11
50.2155
 21
1.18419
  0
LINE
  8
0
 10
50.2155
 20
1.18419
 11
49.9419
 21
1.59364
  0
LINE
  8
0
 10
49.9419
 20
1.59364
 11
49.5936
 21
1.94186
  0
LINE
  8
0
 10
49.5936
 20
1.94186
 11
49.1842
 21
2.21547
  0
LINE
  8
0
 10
49.1842
 20
2.21547
 11
48.7292
 21
2.40392
  0
LINE
  8
0
 10
48.7292
 20
2.40392
 11
48.2462
 21
2.5
  0
LINE
  8
0
 10
48.2462
 20
2.5
 11
47.7538
 21
2.5
  0
LINE
  8
0
 10
47.7538
 20
2.5
 11
47.2708
 21
2.40392
  0
LINE
  8
0
 10
47.2708
 20
2.40392
 11
46.8158
 21
2.21547
  0
LINE
  8
0
 10
46.8158
 20
2.21547
 11
46.4063
 21
1.94186
  0
LINE
  8
0
 10
46.4063
 20
1.94186
 11
46.0581
 21
1.59364
  0
LINE
  8
0
 10
46.0581
 20
1.59364
 11
45.7845
 21
1.18419
  0
LINE
  8
0
 10
45.7845
 20
1.18419
 11
45.5961
 21
0.729218
  0
LINE
  8
0
 10
45.5961
 20
0.729218
 11
45.5
 21
0.246216
  0
LINE
  8
0
 10
45.5
 20
0.246216
 11
45.5
 21
-0.246216
  0
LINE
  8
0
 10
45.5
 20
-0.246216
 11
45.5961
 21
-0.729218
  0
LINE
  8
0
 10
45.5961
 20
-0.729218
 11
45.7845
 21
-1.18419
  0
LINE
  8
0
 10
45.7845
 20
-1.18419
 11
46.0581
 21
-1.59364
  0
LINE
  8
0
 10
46.0581
 20
-1.59364
 11
46.4063
 21
-1.94186
  0
LINE
  8
0
 10
46.4063
 20
-1.94186
 11
46.8158
 21
-2.21547
  0
LINE
  8
0
 10
46.8158
 20
-2.21547
 11
47.2708
 21
-2.40392
  0
LINE
  8
0
 10
47.2708
 20
-2.40392
 11
47.7538
 21
-2.49998
  0
LINE
  8
0
 10
47.7538
 20
-2.49998
 11
48.2462
 21
-2.5
  0
LINE
  8
0
 10
48.2462
 20
-2.5
 11
48.7292
 21
-2.40392
  0
LINE
  8
0
 10
-47.2708
 20
-71.6539
 11
-46.8158
 21
-71.4655
  0
LINE
  8
0
 10
-46.8158
 20
-71.4655
 11
-46.4063
 21
-71.1919
  0
LINE
  8
0
 10
-46.4063
 20
-71.1919
 11
-46.0581
 21
-70.8436
  0
LINE
  8
0
 10
-46.0581
 20
-70.8436
 11
-45.7845
 21
-70.4342
  0
LINE
  8
0
 10
-45.7845
 20
-70.4342
 11
-45.5961
 21
-69.9792
  0
LINE
  8
0
 10
-45.5961
 20
-69.9792
 11
-45.5
 21
-69.4962
  0
LINE
  8
0
 10
-45.5
 20
-69.4962
 11
-45.5
 21
-69.0038
  0
LINE
  8
0
 10
-45.5
 20
-69.0038
 11
-45.5961
 21
-68.5208
  0
LINE
  8
0
 10
-45.5961
 20
-68.5208
 11
-45.7845
 21
-68.0658
  0
LINE
  8
0
 10
-45.7845
 20
-68.0658
 11
-46.0581
 21
-67.6563
  0
LINE
  8
0
 10
-46.0581
 20
-67.6563
 11
-46.4063
 21
-67.3081
  0
LINE
  8
0
 10
-46.4063
 20
-67.3081
 11
-46.8158
 21
-67.0345
  0
LINE
  8
0
 10
-46.8158
 20
-67.0345
 11
-47.2708
 21
-66.8461
  0
LINE
  8
0
 10
-47.2708
 20
-66.8461
 11
-47.7538
 21
-66.75
  0
LINE
  8
0
 10
-47.7538
 20
-66.75
 11
-48.2462
 21
-66.75
  0
LINE
  8
0
 10
-48.2462
 20
-66.75
 11
-48.7292
 21
-66.8461
  0
LINE
  8
0
 10
-48.7292
 20
-66.8461
 11
-49.1842
 21
-67.0345
  0
LINE
  8
0
 10
-49.1842
 20
-67.0345
 11
-49.5936
 21
-67.3081
  0
LINE
  8
0
 10
-49.5936
 20
-67.3081
 11
-49.9419
 21
-67.6563
  0
LINE
  8
0
 10
-49.9419
 20
-67.6563
 11
-50.2155
 21
-68.0658
  0
LINE
  8
0
 10
-50.2155
 20
-68.0658
 11
-50.4039
 21
-68.5208
  0
LINE
  8
0
 10
-50.4039
 20
-68.5208
 11
-50.5
 21
-69.0038
  0
LINE
  8
0
 10
-50.5
 20
-69.0038
 11
-50.5
 21
-69.4962
  0
LINE
  8
0
 10
-50.5
 20
-69.4962
 11
-50.4039
 21
-69.9792
  0
LINE
  8
0
 10
-50.4039
 20
-69.9792
 11
-50.2155
 21
-70.4342
  0
LINE
  8
0
 10
-50.2155
 20
-70.4342
 11
-49.9419
 21
-70.8436
  0
LINE
  8
0
 10
-49.9419
 20
-70.8436
 11
-49.5936
 21
-71.1919
  0
LINE
  8
0
 10
-49.5936
 20
-71.1919
 11
-49.1842
 21
-71.4655
  0
LINE
  8
0
 10
-49.1842
 20
-71.4655
 11
-48.7292
 21
-71.6539
  0
LINE
  8
0
 10
-48.7292
 20
-71.6539
 11
-48.2462
 21
-71.75
  0
LINE
  8
0
 10
-48.2462
 20
-71.75
 11
-47.7538
 21
-71.75
  0
LINE
  8
0
 10
-47.7538
 20
-71.75
 11
-47.2708
 21
-71.6539
  0
LINE
  8
0
 10
0.729218
 20
-71.6539
 11
1.18419
 21
-71.4655
  0
LINE
  8
0
 10
1.18419
 20
-71.4655
 11
1.59364
 21
-71.1919
  0
LINE
  8
0
 10
1.59364
 20
-71.1919
 11
1.94186
 21
-70.8436
  0
LINE
  8
0
 10
1.94186
 20
-70.8436
 11
2.21547
 21
-70.4342
  0
LINE
  8
0
 10
2.21547
 20
-70.4342
 11
2.40392
 21
-69.9792
  0
LINE
  8
0
 10
2.40392
 20
-69.9792
 11
2.49998
 21
-69.4962
  0
LINE
  8
0
 10
2.49998
 20
-69.4962
 11
2.5
 21
-69.0038
  0
LINE
  8
0
 10
2.5
 20
-69.0038
 11
2.40392
 21
-68.5208
  0
LINE
  8
0
 10
2.40392
 20
-68.5208
 11
2.21547
 21
-68.0658
  0
LINE
  8
0
 10
2.21547
 20
-68.0658
 11
1.94186
 21
-67.6563
  0
LINE
  8
0
 10
1.94186
 20
-67.6563
 11
1.59364
 21
-67.3081
  0
LINE
  8
0
 10
1.59364
 20
-67.3081
 11
1.18419
 21
-67.0345
  0
LINE
  8
0
 10
1.18419
 20
-67.0345
 11
0.729218
 21
-66.8461
  0
LINE
  8
0
 10
0.729218
 20
-66.8461
 11
0.246216
 21
-66.75
  0
LINE
  8
0
 10
0.246216
 20
-66.75
 11
-0.246216
 21
-66.75
  0
LINE
  8
0
 10
-0.246216
 20
-66.75
 11
-0.729218
 21
-66.8461
  0
LINE
  8
0
 10
-0.729218
 20
-66.8461
 11
-1.18419
 21
-67.0345
  0
LINE
  8
0
 10
-1.18419
 20
-67.0345
 11
-1.59364
 21
-67.3081
  0
LINE
  8
0
 10
-1.59364
 20
-67.3081
 11
-1.94186
 21
-67.6563
  0
LINE
  8
0
 10
-1.94186
 20
-67.6563
 11
-2.21547
 21
-68.0658
  0
LINE
  8
0
 10
-2.21547
 20
-68.0658
 11
-2.40392
 21
-68.5208
  0
LINE
  8
0
 10
-2.40392
 20
-68.5208
 11
-2.5
 21
-69.0038
  0
LINE
  8
0
 10
-2.5
 20
-69.0038
 11
-2.5
 21
-69.4962
  0
LINE
  8
0
 10
-2.5
 20
-69.4962
 11
-2.40392
 21
-69.9792
  0
LINE
  8
0
 10
-2.40392
 20
-69.9792
 11
-2.21547
 21
-70.4342
  0
LINE
  8
0
 10
-2.21547
 20
-70.4342
 11
-1.94186
 21
-70.8436
  0
LINE
  8
0
 10
-1.94186
 20
-70.8436
 11
-1.59364
 21
-71.1919
  0
LINE
  8
0
 10
-1.59364
 20
-71.1919
 11
-1.18419
 21
-71.4655
  0
LINE
  8
0
 10
-1.18419
 20
-71.4655
 11
-0.729218
 21
-71.6539
  0
LINE
  8
0
 10
-0.729218
 20
-71.6539
 11
-0.246216
 21
-71.75
  0
LINE
  8
0
 10
-0.246216
 20
-71.75
 11
0.246216
 21
-71.75
  0
LINE
  8
0
 10
0.246216
 20
-71.75
 11
0.729218
 21
-71.6539
  0
LINE
  8
0
 10
48.7292
 20
-71.6539
 11
49.1842
 21
-71.4655
  0
LINE
  8
0
 10
49.1842
 20
-71.4655
 11
49.5936
 21
-71.1919
  0
LINE
  8
0
 10
49.5936
 20
-71.1919
 11
49.9419
 21
-70.8436
  0
LINE
  8
0
 10
49.9419
 20
-70.8436
 11
50.2155
 21
-70.4342
  0
LINE
  8
0
 10
50.2155
 20
-70.4342
 11
50.4039
 21
-69.9792
  0
LINE
  8
0
 10
50.4039
 20
-69.9792
 11
50.5
 21
-69.4962
  0
LINE
  8
0
 10
50.5
 20
-69.4962
 11
50.5
 21
-69.0038
  0
LINE
  8
0
 10
50.5
 20
-69.0038
 11
50.4039
 21
-68.5208
  0
LINE
  8
0
 10
50.4039
 20
-68.5208
 11
50.2155
 21
-68.0658
  0
LINE
  8
0
 10
50.2155
 20
-68.0658
 11
49.9419
 21
-67.6563
  0
LINE
  8
0
 10
49.9419
 20
-67.6563
 11
49.5936
 21
-67.3081
  0
LINE
  8
0
 10
49.5936
 20
-67.3081
 11
49.1842
 21
-67.0345
  0
LINE
  8
0
 10
49.1842
 20
-67.0345
 11
48.7292
 21
-66.8461
  0
LINE
  8
0
 10
48.7292
 20
-66.8461
 11
48.2462
 21
-66.75
  0
LINE
  8
0
 10
48.2462
 20
-66.75
 11
47.7538
 21
-66.75
  0
LINE
  8
0
 10
47.7538
 20
-66.75
 11
47.2708
 21
-66.8461
  0
LINE
  8
0
 10
47.2708
 20
-66.8461
 11
46.8158
 21
-67.0345
  0
LINE
  8
0
 10
46.8158
 20
-67.0345
 11
46.4063
 21
-67.3081
  0
LINE
  8
0
 10
46.4063
 20
-67.3081
 11
46.0581
 21
-67.6563
  0
LINE
  8
0
 10
46.0581
 20
-67.6563
 11
45.7845
 21
-68.0658
  0
LINE
  8
0
 10
45.7845
 20
-68.0658
 11
45.5961
 21
-68.5208
  0
LINE
  8
0
 10
45.5961
 20
-68.5208
 11
45.5
 21
-69.0038
  0
LINE
  8
0
 10
45.5
 20
-69.0038
 11
45.5
 21
-69.4962
  0
LINE
  8
0
 10
45.5
 20
-69.4962
 11
45.5961
 21
-69.9792
  0
LINE
  8
0
 10
45.5961
 20
-69.9792
 11
45.7845
 21
-70.4342
  0
LINE
  8
0
 10
45.7845
 20
-70.4342
 11
46.0581
 21
-70.8436
  0
LINE
  8
0
 10
46.0581
 20
-70.8436
 11
46.4063
 21
-71.1919
  0
LINE
  8
0
 10
46.4063
 20
-71.1919
 11
46.8158
 21
-71.4655
  0
LINE
  8
0
 10
46.8158
 20
-71.4655
 11
47.2708
 21
-71.6539
  0
LINE
  8
0
 10
47.2708
 20
-71.6539
 11
47.7538
 21
-71.75
  0
LINE
  8
0
 10
47.7538
 20
-71.75
 11
48.2462
 21
-71.75
  0
LINE
  8
0
 10
48.2462
 20
-71.75
 11
48.7292
 21
-71.6539
  0
ENDSEC
  0
SECTION
  2
OBJECTS
  0
DICTIONARY
  0
ENDSEC
  0
EOF
