  0
SECTION
  2
BLOCKS
  0
ENDSEC
  0
SECTION
  2
ENTITIES
  0
LINE
  8
0
 10
381.45
 20
400.5
 11
0
 21
400.5
  0
LINE
  8
0
 10
0
 20
400.5
 11
0
 21
331.6
  0
LINE
  8
0
 10
0
 20
331.6
 11
381.45
 21
331.6
  0
LINE
  8
0
 10
381.45
 20
331.6
 11
381.45
 21
400.5
  0
LINE
  8
0
 10
8.00999
 20
391.575
 11
8.00999
 21
396.525
  0
LINE
  8
0
 10
8.00999
 20
396.525
 11
15.99
 21
396.525
  0
LINE
  8
0
 10
15.99
 20
396.525
 11
15.99
 21
391.575
  0
LINE
  8
0
 10
15.99
 20
391.575
 11
8.00999
 21
391.575
  0
LINE
  8
0
 10
142.86
 20
391.575
 11
142.86
 21
396.525
  0
LINE
  8
0
 10
142.86
 20
396.525
 11
150.84
 21
396.525
  0
LINE
  8
0
 10
150.84
 20
396.525
 11
150.84
 21
391.575
  0
LINE
  8
0
 10
150.84
 20
391.575
 11
142.86
 21
391.575
  0
LINE
  8
0
 10
36.01
 20
391.575
 11
36.01
 21
396.525
  0
LINE
  8
0
 10
36.01
 20
396.525
 11
43.99
 21
396.525
  0
LINE
  8
0
 10
43.99
 20
396.525
 11
43.99
 21
391.575
  0
LINE
  8
0
 10
43.99
 20
391.575
 11
36.01
 21
391.575
  0
LINE
  8
0
 10
114.86
 20
391.575
 11
114.86
 21
396.525
  0
LINE
  8
0
 10
114.86
 20
396.525
 11
122.84
 21
396.525
  0
LINE
  8
0
 10
122.84
 20
396.525
 11
122.84
 21
391.575
  0
LINE
  8
0
 10
122.84
 20
391.575
 11
114.86
 21
391.575
  0
LINE
  8
0
 10
356.56
 20
391.575
 11
356.56
 21
396.525
  0
LINE
  8
0
 10
356.56
 20
396.525
 11
364.54
 21
396.525
  0
LINE
  8
0
 10
364.54
 20
396.525
 11
364.54
 21
391.575
  0
LINE
  8
0
 10
364.54
 20
391.575
 11
356.56
 21
391.575
  0
LINE
  8
0
 10
221.71
 20
391.575
 11
221.71
 21
396.525
  0
LINE
  8
0
 10
221.71
 20
396.525
 11
229.69
 21
396.525
  0
LINE
  8
0
 10
229.69
 20
396.525
 11
229.69
 21
391.575
  0
LINE
  8
0
 10
229.69
 20
391.575
 11
221.71
 21
391.575
  0
LINE
  8
0
 10
249.71
 20
391.575
 11
249.71
 21
396.525
  0
LINE
  8
0
 10
249.71
 20
396.525
 11
257.69
 21
396.525
  0
LINE
  8
0
 10
257.69
 20
396.525
 11
257.69
 21
391.575
  0
LINE
  8
0
 10
257.69
 20
391.575
 11
249.71
 21
391.575
  0
LINE
  8
0
 10
328.56
 20
391.575
 11
328.56
 21
396.525
  0
LINE
  8
0
 10
328.56
 20
396.525
 11
336.54
 21
396.525
  0
LINE
  8
0
 10
336.54
 20
396.525
 11
336.54
 21
391.575
  0
LINE
  8
0
 10
336.54
 20
391.575
 11
328.56
 21
391.575
  0
LINE
  8
0
 10
132.712
 20
392.65
 11
132.442
 21
392.704
  0
LINE
  8
0
 10
132.442
 20
392.704
 11
132.187
 21
392.809
  0
LINE
  8
0
 10
132.187
 20
392.809
 11
131.958
 21
392.963
  0
LINE
  8
0
 10
131.958
 20
392.963
 11
131.763
 21
393.158
  0
LINE
  8
0
 10
131.763
 20
393.158
 11
131.609
 21
393.387
  0
LINE
  8
0
 10
131.609
 20
393.387
 11
131.504
 21
393.642
  0
LINE
  8
0
 10
131.504
 20
393.642
 11
131.45
 21
393.912
  0
LINE
  8
0
 10
131.45
 20
393.912
 11
131.45
 21
394.188
  0
LINE
  8
0
 10
131.45
 20
394.188
 11
131.504
 21
394.458
  0
LINE
  8
0
 10
131.504
 20
394.458
 11
131.609
 21
394.713
  0
LINE
  8
0
 10
131.609
 20
394.713
 11
131.763
 21
394.942
  0
LINE
  8
0
 10
131.763
 20
394.942
 11
131.958
 21
395.137
  0
LINE
  8
0
 10
131.958
 20
395.137
 11
132.187
 21
395.291
  0
LINE
  8
0
 10
132.187
 20
395.291
 11
132.442
 21
395.396
  0
LINE
  8
0
 10
132.442
 20
395.396
 11
132.712
 21
395.45
  0
LINE
  8
0
 10
132.712
 20
395.45
 11
132.988
 21
395.45
  0
LINE
  8
0
 10
132.988
 20
395.45
 11
133.258
 21
395.396
  0
LINE
  8
0
 10
133.258
 20
395.396
 11
133.513
 21
395.291
  0
LINE
  8
0
 10
133.513
 20
395.291
 11
133.742
 21
395.137
  0
LINE
  8
0
 10
133.742
 20
395.137
 11
133.937
 21
394.942
  0
LINE
  8
0
 10
133.937
 20
394.942
 11
134.091
 21
394.713
  0
LINE
  8
0
 10
134.091
 20
394.713
 11
134.196
 21
394.458
  0
LINE
  8
0
 10
134.196
 20
394.458
 11
134.25
 21
394.188
  0
LINE
  8
0
 10
134.25
 20
394.188
 11
134.25
 21
393.912
  0
LINE
  8
0
 10
134.25
 20
393.912
 11
134.196
 21
393.642
  0
LINE
  8
0
 10
134.196
 20
393.642
 11
134.091
 21
393.387
  0
LINE
  8
0
 10
134.091
 20
393.387
 11
133.937
 21
393.158
  0
LINE
  8
0
 10
133.937
 20
393.158
 11
133.742
 21
392.963
  0
LINE
  8
0
 10
133.742
 20
392.963
 11
133.513
 21
392.809
  0
LINE
  8
0
 10
133.513
 20
392.809
 11
133.258
 21
392.704
  0
LINE
  8
0
 10
133.258
 20
392.704
 11
132.988
 21
392.65
  0
LINE
  8
0
 10
132.988
 20
392.65
 11
132.712
 21
392.65
  0
LINE
  8
0
 10
25.8621
 20
392.65
 11
25.5916
 21
392.704
  0
LINE
  8
0
 10
25.5916
 20
392.704
 11
25.3368
 21
392.809
  0
LINE
  8
0
 10
25.3368
 20
392.809
 11
25.1075
 21
392.963
  0
LINE
  8
0
 10
25.1075
 20
392.963
 11
24.9125
 21
393.158
  0
LINE
  8
0
 10
24.9125
 20
393.158
 11
24.7593
 21
393.387
  0
LINE
  8
0
 10
24.7593
 20
393.387
 11
24.6538
 21
393.642
  0
LINE
  8
0
 10
24.6538
 20
393.642
 11
24.6
 21
393.912
  0
LINE
  8
0
 10
24.6
 20
393.912
 11
24.6
 21
394.188
  0
LINE
  8
0
 10
24.6
 20
394.188
 11
24.6538
 21
394.458
  0
LINE
  8
0
 10
24.6538
 20
394.458
 11
24.7593
 21
394.713
  0
LINE
  8
0
 10
24.7593
 20
394.713
 11
24.9125
 21
394.942
  0
LINE
  8
0
 10
24.9125
 20
394.942
 11
25.1075
 21
395.137
  0
LINE
  8
0
 10
25.1075
 20
395.137
 11
25.3368
 21
395.291
  0
LINE
  8
0
 10
25.3368
 20
395.291
 11
25.5916
 21
395.396
  0
LINE
  8
0
 10
25.5916
 20
395.396
 11
25.8621
 21
395.45
  0
LINE
  8
0
 10
25.8621
 20
395.45
 11
26.1379
 21
395.45
  0
LINE
  8
0
 10
26.1379
 20
395.45
 11
26.4084
 21
395.396
  0
LINE
  8
0
 10
26.4084
 20
395.396
 11
26.6631
 21
395.291
  0
LINE
  8
0
 10
26.6631
 20
395.291
 11
26.8924
 21
395.137
  0
LINE
  8
0
 10
26.8924
 20
395.137
 11
27.0874
 21
394.942
  0
LINE
  8
0
 10
27.0874
 20
394.942
 11
27.2407
 21
394.713
  0
LINE
  8
0
 10
27.2407
 20
394.713
 11
27.3462
 21
394.458
  0
LINE
  8
0
 10
27.3462
 20
394.458
 11
27.4
 21
394.188
  0
LINE
  8
0
 10
27.4
 20
394.188
 11
27.4
 21
393.912
  0
LINE
  8
0
 10
27.4
 20
393.912
 11
27.3462
 21
393.642
  0
LINE
  8
0
 10
27.3462
 20
393.642
 11
27.2407
 21
393.387
  0
LINE
  8
0
 10
27.2407
 20
393.387
 11
27.0874
 21
393.158
  0
LINE
  8
0
 10
27.0874
 20
393.158
 11
26.8924
 21
392.963
  0
LINE
  8
0
 10
26.8924
 20
392.963
 11
26.6631
 21
392.809
  0
LINE
  8
0
 10
26.6631
 20
392.809
 11
26.4084
 21
392.704
  0
LINE
  8
0
 10
26.4084
 20
392.704
 11
26.1379
 21
392.65
  0
LINE
  8
0
 10
26.1379
 20
392.65
 11
25.8621
 21
392.65
  0
LINE
  8
0
 10
239.562
 20
392.65
 11
239.292
 21
392.704
  0
LINE
  8
0
 10
239.292
 20
392.704
 11
239.037
 21
392.809
  0
LINE
  8
0
 10
239.037
 20
392.809
 11
238.808
 21
392.963
  0
LINE
  8
0
 10
238.808
 20
392.963
 11
238.613
 21
393.158
  0
LINE
  8
0
 10
238.613
 20
393.158
 11
238.459
 21
393.387
  0
LINE
  8
0
 10
238.459
 20
393.387
 11
238.354
 21
393.642
  0
LINE
  8
0
 10
238.354
 20
393.642
 11
238.3
 21
393.912
  0
LINE
  8
0
 10
238.3
 20
393.912
 11
238.3
 21
394.188
  0
LINE
  8
0
 10
238.3
 20
394.188
 11
238.354
 21
394.458
  0
LINE
  8
0
 10
238.354
 20
394.458
 11
238.459
 21
394.713
  0
LINE
  8
0
 10
238.459
 20
394.713
 11
238.613
 21
394.942
  0
LINE
  8
0
 10
238.613
 20
394.942
 11
238.808
 21
395.137
  0
LINE
  8
0
 10
238.808
 20
395.137
 11
239.037
 21
395.291
  0
LINE
  8
0
 10
239.037
 20
395.291
 11
239.292
 21
395.396
  0
LINE
  8
0
 10
239.292
 20
395.396
 11
239.562
 21
395.45
  0
LINE
  8
0
 10
239.562
 20
395.45
 11
239.838
 21
395.45
  0
LINE
  8
0
 10
239.838
 20
395.45
 11
240.108
 21
395.396
  0
LINE
  8
0
 10
240.108
 20
395.396
 11
240.363
 21
395.291
  0
LINE
  8
0
 10
240.363
 20
395.291
 11
240.592
 21
395.137
  0
LINE
  8
0
 10
240.592
 20
395.137
 11
240.787
 21
394.942
  0
LINE
  8
0
 10
240.787
 20
394.942
 11
240.941
 21
394.713
  0
LINE
  8
0
 10
240.941
 20
394.713
 11
241.046
 21
394.458
  0
LINE
  8
0
 10
241.046
 20
394.458
 11
241.1
 21
394.188
  0
LINE
  8
0
 10
241.1
 20
394.188
 11
241.1
 21
393.912
  0
LINE
  8
0
 10
241.1
 20
393.912
 11
241.046
 21
393.642
  0
LINE
  8
0
 10
241.046
 20
393.642
 11
240.941
 21
393.387
  0
LINE
  8
0
 10
240.941
 20
393.387
 11
240.787
 21
393.158
  0
LINE
  8
0
 10
240.787
 20
393.158
 11
240.592
 21
392.963
  0
LINE
  8
0
 10
240.592
 20
392.963
 11
240.363
 21
392.809
  0
LINE
  8
0
 10
240.363
 20
392.809
 11
240.108
 21
392.704
  0
LINE
  8
0
 10
240.108
 20
392.704
 11
239.838
 21
392.65
  0
LINE
  8
0
 10
239.838
 20
392.65
 11
239.562
 21
392.65
  0
LINE
  8
0
 10
346.412
 20
392.65
 11
346.142
 21
392.704
  0
LINE
  8
0
 10
346.142
 20
392.704
 11
345.887
 21
392.809
  0
LINE
  8
0
 10
345.887
 20
392.809
 11
345.658
 21
392.963
  0
LINE
  8
0
 10
345.658
 20
392.963
 11
345.463
 21
393.158
  0
LINE
  8
0
 10
345.463
 20
393.158
 11
345.309
 21
393.387
  0
LINE
  8
0
 10
345.309
 20
393.387
 11
345.204
 21
393.642
  0
LINE
  8
0
 10
345.204
 20
393.642
 11
345.15
 21
393.912
  0
LINE
  8
0
 10
345.15
 20
393.912
 11
345.15
 21
394.188
  0
LINE
  8
0
 10
345.15
 20
394.188
 11
345.204
 21
394.458
  0
LINE
  8
0
 10
345.204
 20
394.458
 11
345.309
 21
394.713
  0
LINE
  8
0
 10
345.309
 20
394.713
 11
345.463
 21
394.942
  0
LINE
  8
0
 10
345.463
 20
394.942
 11
345.658
 21
395.137
  0
LINE
  8
0
 10
345.658
 20
395.137
 11
345.887
 21
395.291
  0
LINE
  8
0
 10
345.887
 20
395.291
 11
346.142
 21
395.396
  0
LINE
  8
0
 10
346.142
 20
395.396
 11
346.412
 21
395.45
  0
LINE
  8
0
 10
346.412
 20
395.45
 11
346.688
 21
395.45
  0
LINE
  8
0
 10
346.688
 20
395.45
 11
346.958
 21
395.396
  0
LINE
  8
0
 10
346.958
 20
395.396
 11
347.213
 21
395.291
  0
LINE
  8
0
 10
347.213
 20
395.291
 11
347.442
 21
395.137
  0
LINE
  8
0
 10
347.442
 20
395.137
 11
347.637
 21
394.942
  0
LINE
  8
0
 10
347.637
 20
394.942
 11
347.791
 21
394.713
  0
LINE
  8
0
 10
347.791
 20
394.713
 11
347.896
 21
394.458
  0
LINE
  8
0
 10
347.896
 20
394.458
 11
347.95
 21
394.188
  0
LINE
  8
0
 10
347.95
 20
394.188
 11
347.95
 21
393.912
  0
LINE
  8
0
 10
347.95
 20
393.912
 11
347.896
 21
393.642
  0
LINE
  8
0
 10
347.896
 20
393.642
 11
347.791
 21
393.387
  0
LINE
  8
0
 10
347.791
 20
393.387
 11
347.637
 21
393.158
  0
LINE
  8
0
 10
347.637
 20
393.158
 11
347.442
 21
392.963
  0
LINE
  8
0
 10
347.442
 20
392.963
 11
347.213
 21
392.809
  0
LINE
  8
0
 10
347.213
 20
392.809
 11
346.958
 21
392.704
  0
LINE
  8
0
 10
346.958
 20
392.704
 11
346.688
 21
392.65
  0
LINE
  8
0
 10
346.688
 20
392.65
 11
346.412
 21
392.65
  0
LINE
  8
0
 10
122.525
 20
371.61
 11
122.525
 21
379.59
  0
LINE
  8
0
 10
122.525
 20
379.59
 11
127.475
 21
379.59
  0
LINE
  8
0
 10
127.475
 20
379.59
 11
127.475
 21
371.61
  0
LINE
  8
0
 10
127.475
 20
371.61
 11
122.525
 21
371.61
  0
LINE
  8
0
 10
372.525
 20
371.61
 11
372.525
 21
379.59
  0
LINE
  8
0
 10
372.525
 20
379.59
 11
377.475
 21
379.59
  0
LINE
  8
0
 10
377.475
 20
379.59
 11
377.475
 21
371.61
  0
LINE
  8
0
 10
377.475
 20
371.61
 11
372.525
 21
371.61
  0
LINE
  8
0
 10
247.525
 20
371.61
 11
247.525
 21
379.59
  0
LINE
  8
0
 10
247.525
 20
379.59
 11
252.475
 21
379.59
  0
LINE
  8
0
 10
252.475
 20
379.59
 11
252.475
 21
371.61
  0
LINE
  8
0
 10
252.475
 20
371.61
 11
247.525
 21
371.61
  0
LINE
  8
0
 10
124.862
 20
360.2
 11
124.592
 21
360.254
  0
LINE
  8
0
 10
124.592
 20
360.254
 11
124.337
 21
360.359
  0
LINE
  8
0
 10
124.337
 20
360.359
 11
124.108
 21
360.513
  0
LINE
  8
0
 10
124.108
 20
360.513
 11
123.913
 21
360.708
  0
LINE
  8
0
 10
123.913
 20
360.708
 11
123.759
 21
360.937
  0
LINE
  8
0
 10
123.759
 20
360.937
 11
123.654
 21
361.192
  0
LINE
  8
0
 10
123.654
 20
361.192
 11
123.6
 21
361.462
  0
LINE
  8
0
 10
123.6
 20
361.462
 11
123.6
 21
361.738
  0
LINE
  8
0
 10
123.6
 20
361.738
 11
123.654
 21
362.008
  0
LINE
  8
0
 10
123.654
 20
362.008
 11
123.759
 21
362.263
  0
LINE
  8
0
 10
123.759
 20
362.263
 11
123.913
 21
362.492
  0
LINE
  8
0
 10
123.913
 20
362.492
 11
124.108
 21
362.687
  0
LINE
  8
0
 10
124.108
 20
362.687
 11
124.337
 21
362.841
  0
LINE
  8
0
 10
124.337
 20
362.841
 11
124.592
 21
362.946
  0
LINE
  8
0
 10
124.592
 20
362.946
 11
124.862
 21
363
  0
LINE
  8
0
 10
124.862
 20
363
 11
125.138
 21
363
  0
LINE
  8
0
 10
125.138
 20
363
 11
125.408
 21
362.946
  0
LINE
  8
0
 10
125.408
 20
362.946
 11
125.663
 21
362.841
  0
LINE
  8
0
 10
125.663
 20
362.841
 11
125.892
 21
362.687
  0
LINE
  8
0
 10
125.892
 20
362.687
 11
126.087
 21
362.492
  0
LINE
  8
0
 10
126.087
 20
362.492
 11
126.241
 21
362.263
  0
LINE
  8
0
 10
126.241
 20
362.263
 11
126.346
 21
362.008
  0
LINE
  8
0
 10
126.346
 20
362.008
 11
126.4
 21
361.738
  0
LINE
  8
0
 10
126.4
 20
361.738
 11
126.4
 21
361.462
  0
LINE
  8
0
 10
126.4
 20
361.462
 11
126.346
 21
361.192
  0
LINE
  8
0
 10
126.346
 20
361.192
 11
126.241
 21
360.937
  0
LINE
  8
0
 10
126.241
 20
360.937
 11
126.087
 21
360.708
  0
LINE
  8
0
 10
126.087
 20
360.708
 11
125.892
 21
360.513
  0
LINE
  8
0
 10
125.892
 20
360.513
 11
125.663
 21
360.359
  0
LINE
  8
0
 10
125.663
 20
360.359
 11
125.408
 21
360.254
  0
LINE
  8
0
 10
125.408
 20
360.254
 11
125.138
 21
360.2
  0
LINE
  8
0
 10
125.138
 20
360.2
 11
124.862
 21
360.2
  0
LINE
  8
0
 10
249.862
 20
360.2
 11
249.592
 21
360.254
  0
LINE
  8
0
 10
249.592
 20
360.254
 11
249.337
 21
360.359
  0
LINE
  8
0
 10
249.337
 20
360.359
 11
249.108
 21
360.513
  0
LINE
  8
0
 10
249.108
 20
360.513
 11
248.913
 21
360.708
  0
LINE
  8
0
 10
248.913
 20
360.708
 11
248.759
 21
360.937
  0
LINE
  8
0
 10
248.759
 20
360.937
 11
248.654
 21
361.192
  0
LINE
  8
0
 10
248.654
 20
361.192
 11
248.6
 21
361.462
  0
LINE
  8
0
 10
248.6
 20
361.462
 11
248.6
 21
361.738
  0
LINE
  8
0
 10
248.6
 20
361.738
 11
248.654
 21
362.008
  0
LINE
  8
0
 10
248.654
 20
362.008
 11
248.759
 21
362.263
  0
LINE
  8
0
 10
248.759
 20
362.263
 11
248.913
 21
362.492
  0
LINE
  8
0
 10
248.913
 20
362.492
 11
249.108
 21
362.687
  0
LINE
  8
0
 10
249.108
 20
362.687
 11
249.337
 21
362.841
  0
LINE
  8
0
 10
249.337
 20
362.841
 11
249.592
 21
362.946
  0
LINE
  8
0
 10
249.592
 20
362.946
 11
249.862
 21
363
  0
LINE
  8
0
 10
249.862
 20
363
 11
250.138
 21
363
  0
LINE
  8
0
 10
250.138
 20
363
 11
250.408
 21
362.946
  0
LINE
  8
0
 10
250.408
 20
362.946
 11
250.663
 21
362.841
  0
LINE
  8
0
 10
250.663
 20
362.841
 11
250.892
 21
362.687
  0
LINE
  8
0
 10
250.892
 20
362.687
 11
251.087
 21
362.492
  0
LINE
  8
0
 10
251.087
 20
362.492
 11
251.241
 21
362.263
  0
LINE
  8
0
 10
251.241
 20
362.263
 11
251.346
 21
362.008
  0
LINE
  8
0
 10
251.346
 20
362.008
 11
251.4
 21
361.738
  0
LINE
  8
0
 10
251.4
 20
361.738
 11
251.4
 21
361.462
  0
LINE
  8
0
 10
251.4
 20
361.462
 11
251.346
 21
361.192
  0
LINE
  8
0
 10
251.346
 20
361.192
 11
251.241
 21
360.937
  0
LINE
  8
0
 10
251.241
 20
360.937
 11
251.087
 21
360.708
  0
LINE
  8
0
 10
251.087
 20
360.708
 11
250.892
 21
360.513
  0
LINE
  8
0
 10
250.892
 20
360.513
 11
250.663
 21
360.359
  0
LINE
  8
0
 10
250.663
 20
360.359
 11
250.408
 21
360.254
  0
LINE
  8
0
 10
250.408
 20
360.254
 11
250.138
 21
360.2
  0
LINE
  8
0
 10
250.138
 20
360.2
 11
249.862
 21
360.2
  0
LINE
  8
0
 10
374.862
 20
360.2
 11
374.592
 21
360.254
  0
LINE
  8
0
 10
374.592
 20
360.254
 11
374.337
 21
360.359
  0
LINE
  8
0
 10
374.337
 20
360.359
 11
374.108
 21
360.513
  0
LINE
  8
0
 10
374.108
 20
360.513
 11
373.913
 21
360.708
  0
LINE
  8
0
 10
373.913
 20
360.708
 11
373.759
 21
360.937
  0
LINE
  8
0
 10
373.759
 20
360.937
 11
373.654
 21
361.192
  0
LINE
  8
0
 10
373.654
 20
361.192
 11
373.6
 21
361.462
  0
LINE
  8
0
 10
373.6
 20
361.462
 11
373.6
 21
361.738
  0
LINE
  8
0
 10
373.6
 20
361.738
 11
373.654
 21
362.008
  0
LINE
  8
0
 10
373.654
 20
362.008
 11
373.759
 21
362.263
  0
LINE
  8
0
 10
373.759
 20
362.263
 11
373.913
 21
362.492
  0
LINE
  8
0
 10
373.913
 20
362.492
 11
374.108
 21
362.687
  0
LINE
  8
0
 10
374.108
 20
362.687
 11
374.337
 21
362.841
  0
LINE
  8
0
 10
374.337
 20
362.841
 11
374.592
 21
362.946
  0
LINE
  8
0
 10
374.592
 20
362.946
 11
374.862
 21
363
  0
LINE
  8
0
 10
374.862
 20
363
 11
375.138
 21
363
  0
LINE
  8
0
 10
375.138
 20
363
 11
375.408
 21
362.946
  0
LINE
  8
0
 10
375.408
 20
362.946
 11
375.663
 21
362.841
  0
LINE
  8
0
 10
375.663
 20
362.841
 11
375.892
 21
362.687
  0
LINE
  8
0
 10
375.892
 20
362.687
 11
376.087
 21
362.492
  0
LINE
  8
0
 10
376.087
 20
362.492
 11
376.241
 21
362.263
  0
LINE
  8
0
 10
376.241
 20
362.263
 11
376.346
 21
362.008
  0
LINE
  8
0
 10
376.346
 20
362.008
 11
376.4
 21
361.738
  0
LINE
  8
0
 10
376.4
 20
361.738
 11
376.4
 21
361.462
  0
LINE
  8
0
 10
376.4
 20
361.462
 11
376.346
 21
361.192
  0
LINE
  8
0
 10
376.346
 20
361.192
 11
376.241
 21
360.937
  0
LINE
  8
0
 10
376.241
 20
360.937
 11
376.087
 21
360.708
  0
LINE
  8
0
 10
376.087
 20
360.708
 11
375.892
 21
360.513
  0
LINE
  8
0
 10
375.892
 20
360.513
 11
375.663
 21
360.359
  0
LINE
  8
0
 10
375.663
 20
360.359
 11
375.408
 21
360.254
  0
LINE
  8
0
 10
375.408
 20
360.254
 11
375.138
 21
360.2
  0
LINE
  8
0
 10
375.138
 20
360.2
 11
374.862
 21
360.2
  0
LINE
  8
0
 10
372.525
 20
343.61
 11
372.525
 21
351.59
  0
LINE
  8
0
 10
372.525
 20
351.59
 11
377.475
 21
351.59
  0
LINE
  8
0
 10
377.475
 20
351.59
 11
377.475
 21
343.61
  0
LINE
  8
0
 10
377.475
 20
343.61
 11
372.525
 21
343.61
  0
LINE
  8
0
 10
122.525
 20
343.61
 11
122.525
 21
351.59
  0
LINE
  8
0
 10
122.525
 20
351.59
 11
127.475
 21
351.59
  0
LINE
  8
0
 10
127.475
 20
351.59
 11
127.475
 21
343.61
  0
LINE
  8
0
 10
127.475
 20
343.61
 11
122.525
 21
343.61
  0
LINE
  8
0
 10
247.525
 20
343.61
 11
247.525
 21
351.59
  0
LINE
  8
0
 10
247.525
 20
351.59
 11
252.475
 21
351.59
  0
LINE
  8
0
 10
252.475
 20
351.59
 11
252.475
 21
343.61
  0
LINE
  8
0
 10
252.475
 20
343.61
 11
247.525
 21
343.61
  0
LINE
  8
0
 10
764.7
 20
331.6
 11
764.7
 21
400.5
  0
LINE
  8
0
 10
764.7
 20
400.5
 11
383.25
 21
400.5
  0
LINE
  8
0
 10
383.25
 20
400.5
 11
383.25
 21
331.6
  0
LINE
  8
0
 10
383.25
 20
331.6
 11
764.7
 21
331.6
  0
LINE
  8
0
 10
748.71
 20
391.575
 11
748.71
 21
396.525
  0
LINE
  8
0
 10
748.71
 20
396.525
 11
756.69
 21
396.525
  0
LINE
  8
0
 10
756.69
 20
396.525
 11
756.69
 21
391.575
  0
LINE
  8
0
 10
756.69
 20
391.575
 11
748.71
 21
391.575
  0
LINE
  8
0
 10
720.71
 20
391.575
 11
720.71
 21
396.525
  0
LINE
  8
0
 10
720.71
 20
396.525
 11
728.69
 21
396.525
  0
LINE
  8
0
 10
728.69
 20
396.525
 11
728.69
 21
391.575
  0
LINE
  8
0
 10
728.69
 20
391.575
 11
720.71
 21
391.575
  0
LINE
  8
0
 10
641.86
 20
391.575
 11
641.86
 21
396.525
  0
LINE
  8
0
 10
641.86
 20
396.525
 11
649.84
 21
396.525
  0
LINE
  8
0
 10
649.84
 20
396.525
 11
649.84
 21
391.575
  0
LINE
  8
0
 10
649.84
 20
391.575
 11
641.86
 21
391.575
  0
LINE
  8
0
 10
613.86
 20
391.575
 11
613.86
 21
396.525
  0
LINE
  8
0
 10
613.86
 20
396.525
 11
621.84
 21
396.525
  0
LINE
  8
0
 10
621.84
 20
396.525
 11
621.84
 21
391.575
  0
LINE
  8
0
 10
621.84
 20
391.575
 11
613.86
 21
391.575
  0
LINE
  8
0
 10
400.16
 20
391.575
 11
400.16
 21
396.525
  0
LINE
  8
0
 10
400.16
 20
396.525
 11
408.14
 21
396.525
  0
LINE
  8
0
 10
408.14
 20
396.525
 11
408.14
 21
391.575
  0
LINE
  8
0
 10
408.14
 20
391.575
 11
400.16
 21
391.575
  0
LINE
  8
0
 10
428.16
 20
391.575
 11
428.16
 21
396.525
  0
LINE
  8
0
 10
428.16
 20
396.525
 11
436.14
 21
396.525
  0
LINE
  8
0
 10
436.14
 20
396.525
 11
436.14
 21
391.575
  0
LINE
  8
0
 10
436.14
 20
391.575
 11
428.16
 21
391.575
  0
LINE
  8
0
 10
535.01
 20
391.575
 11
535.01
 21
396.525
  0
LINE
  8
0
 10
535.01
 20
396.525
 11
542.99
 21
396.525
  0
LINE
  8
0
 10
542.99
 20
396.525
 11
542.99
 21
391.575
  0
LINE
  8
0
 10
542.99
 20
391.575
 11
535.01
 21
391.575
  0
LINE
  8
0
 10
507.01
 20
391.575
 11
507.01
 21
396.525
  0
LINE
  8
0
 10
507.01
 20
396.525
 11
514.99
 21
396.525
  0
LINE
  8
0
 10
514.99
 20
396.525
 11
514.99
 21
391.575
  0
LINE
  8
0
 10
514.99
 20
391.575
 11
507.01
 21
391.575
  0
LINE
  8
0
 10
738.562
 20
392.65
 11
738.292
 21
392.704
  0
LINE
  8
0
 10
738.292
 20
392.704
 11
738.037
 21
392.809
  0
LINE
  8
0
 10
738.037
 20
392.809
 11
737.808
 21
392.963
  0
LINE
  8
0
 10
737.808
 20
392.963
 11
737.613
 21
393.158
  0
LINE
  8
0
 10
737.613
 20
393.158
 11
737.459
 21
393.387
  0
LINE
  8
0
 10
737.459
 20
393.387
 11
737.354
 21
393.642
  0
LINE
  8
0
 10
737.354
 20
393.642
 11
737.3
 21
393.912
  0
LINE
  8
0
 10
737.3
 20
393.912
 11
737.3
 21
394.188
  0
LINE
  8
0
 10
737.3
 20
394.188
 11
737.354
 21
394.458
  0
LINE
  8
0
 10
737.354
 20
394.458
 11
737.459
 21
394.713
  0
LINE
  8
0
 10
737.459
 20
394.713
 11
737.613
 21
394.942
  0
LINE
  8
0
 10
737.613
 20
394.942
 11
737.808
 21
395.137
  0
LINE
  8
0
 10
737.808
 20
395.137
 11
738.037
 21
395.291
  0
LINE
  8
0
 10
738.037
 20
395.291
 11
738.292
 21
395.396
  0
LINE
  8
0
 10
738.292
 20
395.396
 11
738.562
 21
395.45
  0
LINE
  8
0
 10
738.562
 20
395.45
 11
738.838
 21
395.45
  0
LINE
  8
0
 10
738.838
 20
395.45
 11
739.108
 21
395.396
  0
LINE
  8
0
 10
739.108
 20
395.396
 11
739.363
 21
395.291
  0
LINE
  8
0
 10
739.363
 20
395.291
 11
739.592
 21
395.137
  0
LINE
  8
0
 10
739.592
 20
395.137
 11
739.787
 21
394.942
  0
LINE
  8
0
 10
739.787
 20
394.942
 11
739.941
 21
394.713
  0
LINE
  8
0
 10
739.941
 20
394.713
 11
740.046
 21
394.458
  0
LINE
  8
0
 10
740.046
 20
394.458
 11
740.1
 21
394.188
  0
LINE
  8
0
 10
740.1
 20
394.188
 11
740.1
 21
393.912
  0
LINE
  8
0
 10
740.1
 20
393.912
 11
740.046
 21
393.642
  0
LINE
  8
0
 10
740.046
 20
393.642
 11
739.941
 21
393.387
  0
LINE
  8
0
 10
739.941
 20
393.387
 11
739.787
 21
393.158
  0
LINE
  8
0
 10
739.787
 20
393.158
 11
739.592
 21
392.963
  0
LINE
  8
0
 10
739.592
 20
392.963
 11
739.363
 21
392.809
  0
LINE
  8
0
 10
739.363
 20
392.809
 11
739.108
 21
392.704
  0
LINE
  8
0
 10
739.108
 20
392.704
 11
738.838
 21
392.65
  0
LINE
  8
0
 10
738.838
 20
392.65
 11
738.562
 21
392.65
  0
LINE
  8
0
 10
631.712
 20
392.65
 11
631.442
 21
392.704
  0
LINE
  8
0
 10
631.442
 20
392.704
 11
631.187
 21
392.809
  0
LINE
  8
0
 10
631.187
 20
392.809
 11
630.958
 21
392.963
  0
LINE
  8
0
 10
630.958
 20
392.963
 11
630.763
 21
393.158
  0
LINE
  8
0
 10
630.763
 20
393.158
 11
630.609
 21
393.387
  0
LINE
  8
0
 10
630.609
 20
393.387
 11
630.504
 21
393.642
  0
LINE
  8
0
 10
630.504
 20
393.642
 11
630.45
 21
393.912
  0
LINE
  8
0
 10
630.45
 20
393.912
 11
630.45
 21
394.188
  0
LINE
  8
0
 10
630.45
 20
394.188
 11
630.504
 21
394.458
  0
LINE
  8
0
 10
630.504
 20
394.458
 11
630.609
 21
394.713
  0
LINE
  8
0
 10
630.609
 20
394.713
 11
630.763
 21
394.942
  0
LINE
  8
0
 10
630.763
 20
394.942
 11
630.958
 21
395.137
  0
LINE
  8
0
 10
630.958
 20
395.137
 11
631.187
 21
395.291
  0
LINE
  8
0
 10
631.187
 20
395.291
 11
631.442
 21
395.396
  0
LINE
  8
0
 10
631.442
 20
395.396
 11
631.712
 21
395.45
  0
LINE
  8
0
 10
631.712
 20
395.45
 11
631.988
 21
395.45
  0
LINE
  8
0
 10
631.988
 20
395.45
 11
632.258
 21
395.396
  0
LINE
  8
0
 10
632.258
 20
395.396
 11
632.513
 21
395.291
  0
LINE
  8
0
 10
632.513
 20
395.291
 11
632.742
 21
395.137
  0
LINE
  8
0
 10
632.742
 20
395.137
 11
632.937
 21
394.942
  0
LINE
  8
0
 10
632.937
 20
394.942
 11
633.091
 21
394.713
  0
LINE
  8
0
 10
633.091
 20
394.713
 11
633.196
 21
394.458
  0
LINE
  8
0
 10
633.196
 20
394.458
 11
633.25
 21
394.188
  0
LINE
  8
0
 10
633.25
 20
394.188
 11
633.25
 21
393.912
  0
LINE
  8
0
 10
633.25
 20
393.912
 11
633.196
 21
393.642
  0
LINE
  8
0
 10
633.196
 20
393.642
 11
633.091
 21
393.387
  0
LINE
  8
0
 10
633.091
 20
393.387
 11
632.937
 21
393.158
  0
LINE
  8
0
 10
632.937
 20
393.158
 11
632.742
 21
392.963
  0
LINE
  8
0
 10
632.742
 20
392.963
 11
632.513
 21
392.809
  0
LINE
  8
0
 10
632.513
 20
392.809
 11
632.258
 21
392.704
  0
LINE
  8
0
 10
632.258
 20
392.704
 11
631.988
 21
392.65
  0
LINE
  8
0
 10
631.988
 20
392.65
 11
631.712
 21
392.65
  0
LINE
  8
0
 10
418.012
 20
392.65
 11
417.742
 21
392.704
  0
LINE
  8
0
 10
417.742
 20
392.704
 11
417.487
 21
392.809
  0
LINE
  8
0
 10
417.487
 20
392.809
 11
417.258
 21
392.963
  0
LINE
  8
0
 10
417.258
 20
392.963
 11
417.063
 21
393.158
  0
LINE
  8
0
 10
417.063
 20
393.158
 11
416.909
 21
393.387
  0
LINE
  8
0
 10
416.909
 20
393.387
 11
416.804
 21
393.642
  0
LINE
  8
0
 10
416.804
 20
393.642
 11
416.75
 21
393.912
  0
LINE
  8
0
 10
416.75
 20
393.912
 11
416.75
 21
394.188
  0
LINE
  8
0
 10
416.75
 20
394.188
 11
416.804
 21
394.458
  0
LINE
  8
0
 10
416.804
 20
394.458
 11
416.909
 21
394.713
  0
LINE
  8
0
 10
416.909
 20
394.713
 11
417.063
 21
394.942
  0
LINE
  8
0
 10
417.063
 20
394.942
 11
417.258
 21
395.137
  0
LINE
  8
0
 10
417.258
 20
395.137
 11
417.487
 21
395.291
  0
LINE
  8
0
 10
417.487
 20
395.291
 11
417.742
 21
395.396
  0
LINE
  8
0
 10
417.742
 20
395.396
 11
418.012
 21
395.45
  0
LINE
  8
0
 10
418.012
 20
395.45
 11
418.288
 21
395.45
  0
LINE
  8
0
 10
418.288
 20
395.45
 11
418.558
 21
395.396
  0
LINE
  8
0
 10
418.558
 20
395.396
 11
418.813
 21
395.291
  0
LINE
  8
0
 10
418.813
 20
395.291
 11
419.042
 21
395.137
  0
LINE
  8
0
 10
419.042
 20
395.137
 11
419.237
 21
394.942
  0
LINE
  8
0
 10
419.237
 20
394.942
 11
419.391
 21
394.713
  0
LINE
  8
0
 10
419.391
 20
394.713
 11
419.496
 21
394.458
  0
LINE
  8
0
 10
419.496
 20
394.458
 11
419.55
 21
394.188
  0
LINE
  8
0
 10
419.55
 20
394.188
 11
419.55
 21
393.912
  0
LINE
  8
0
 10
419.55
 20
393.912
 11
419.496
 21
393.642
  0
LINE
  8
0
 10
419.496
 20
393.642
 11
419.391
 21
393.387
  0
LINE
  8
0
 10
419.391
 20
393.387
 11
419.237
 21
393.158
  0
LINE
  8
0
 10
419.237
 20
393.158
 11
419.042
 21
392.963
  0
LINE
  8
0
 10
419.042
 20
392.963
 11
418.813
 21
392.809
  0
LINE
  8
0
 10
418.813
 20
392.809
 11
418.558
 21
392.704
  0
LINE
  8
0
 10
418.558
 20
392.704
 11
418.288
 21
392.65
  0
LINE
  8
0
 10
418.288
 20
392.65
 11
418.012
 21
392.65
  0
LINE
  8
0
 10
524.862
 20
392.65
 11
524.592
 21
392.704
  0
LINE
  8
0
 10
524.592
 20
392.704
 11
524.337
 21
392.809
  0
LINE
  8
0
 10
524.337
 20
392.809
 11
524.108
 21
392.963
  0
LINE
  8
0
 10
524.108
 20
392.963
 11
523.913
 21
393.158
  0
LINE
  8
0
 10
523.913
 20
393.158
 11
523.759
 21
393.387
  0
LINE
  8
0
 10
523.759
 20
393.387
 11
523.654
 21
393.642
  0
LINE
  8
0
 10
523.654
 20
393.642
 11
523.6
 21
393.912
  0
LINE
  8
0
 10
523.6
 20
393.912
 11
523.6
 21
394.188
  0
LINE
  8
0
 10
523.6
 20
394.188
 11
523.654
 21
394.458
  0
LINE
  8
0
 10
523.654
 20
394.458
 11
523.759
 21
394.713
  0
LINE
  8
0
 10
523.759
 20
394.713
 11
523.913
 21
394.942
  0
LINE
  8
0
 10
523.913
 20
394.942
 11
524.108
 21
395.137
  0
LINE
  8
0
 10
524.108
 20
395.137
 11
524.337
 21
395.291
  0
LINE
  8
0
 10
524.337
 20
395.291
 11
524.592
 21
395.396
  0
LINE
  8
0
 10
524.592
 20
395.396
 11
524.862
 21
395.45
  0
LINE
  8
0
 10
524.862
 20
395.45
 11
525.138
 21
395.45
  0
LINE
  8
0
 10
525.138
 20
395.45
 11
525.408
 21
395.396
  0
LINE
  8
0
 10
525.408
 20
395.396
 11
525.663
 21
395.291
  0
LINE
  8
0
 10
525.663
 20
395.291
 11
525.892
 21
395.137
  0
LINE
  8
0
 10
525.892
 20
395.137
 11
526.087
 21
394.942
  0
LINE
  8
0
 10
526.087
 20
394.942
 11
526.241
 21
394.713
  0
LINE
  8
0
 10
526.241
 20
394.713
 11
526.346
 21
394.458
  0
LINE
  8
0
 10
526.346
 20
394.458
 11
526.4
 21
394.188
  0
LINE
  8
0
 10
526.4
 20
394.188
 11
526.4
 21
393.912
  0
LINE
  8
0
 10
526.4
 20
393.912
 11
526.346
 21
393.642
  0
LINE
  8
0
 10
526.346
 20
393.642
 11
526.241
 21
393.387
  0
LINE
  8
0
 10
526.241
 20
393.387
 11
526.087
 21
393.158
  0
LINE
  8
0
 10
526.087
 20
393.158
 11
525.892
 21
392.963
  0
LINE
  8
0
 10
525.892
 20
392.963
 11
525.663
 21
392.809
  0
LINE
  8
0
 10
525.663
 20
392.809
 11
525.408
 21
392.704
  0
LINE
  8
0
 10
525.408
 20
392.704
 11
525.138
 21
392.65
  0
LINE
  8
0
 10
525.138
 20
392.65
 11
524.862
 21
392.65
  0
LINE
  8
0
 10
637.225
 20
371.61
 11
637.225
 21
379.59
  0
LINE
  8
0
 10
637.225
 20
379.59
 11
642.175
 21
379.59
  0
LINE
  8
0
 10
642.175
 20
379.59
 11
642.175
 21
371.61
  0
LINE
  8
0
 10
642.175
 20
371.61
 11
637.225
 21
371.61
  0
LINE
  8
0
 10
512.225
 20
371.61
 11
512.225
 21
379.59
  0
LINE
  8
0
 10
512.225
 20
379.59
 11
517.175
 21
379.59
  0
LINE
  8
0
 10
517.175
 20
379.59
 11
517.175
 21
371.61
  0
LINE
  8
0
 10
517.175
 20
371.61
 11
512.225
 21
371.61
  0
LINE
  8
0
 10
387.225
 20
371.61
 11
387.225
 21
379.59
  0
LINE
  8
0
 10
387.225
 20
379.59
 11
392.175
 21
379.59
  0
LINE
  8
0
 10
392.175
 20
379.59
 11
392.175
 21
371.61
  0
LINE
  8
0
 10
392.175
 20
371.61
 11
387.225
 21
371.61
  0
LINE
  8
0
 10
639.562
 20
360.2
 11
639.292
 21
360.254
  0
LINE
  8
0
 10
639.292
 20
360.254
 11
639.037
 21
360.359
  0
LINE
  8
0
 10
639.037
 20
360.359
 11
638.808
 21
360.513
  0
LINE
  8
0
 10
638.808
 20
360.513
 11
638.613
 21
360.708
  0
LINE
  8
0
 10
638.613
 20
360.708
 11
638.459
 21
360.937
  0
LINE
  8
0
 10
638.459
 20
360.937
 11
638.354
 21
361.192
  0
LINE
  8
0
 10
638.354
 20
361.192
 11
638.3
 21
361.462
  0
LINE
  8
0
 10
638.3
 20
361.462
 11
638.3
 21
361.738
  0
LINE
  8
0
 10
638.3
 20
361.738
 11
638.354
 21
362.008
  0
LINE
  8
0
 10
638.354
 20
362.008
 11
638.459
 21
362.263
  0
LINE
  8
0
 10
638.459
 20
362.263
 11
638.613
 21
362.492
  0
LINE
  8
0
 10
638.613
 20
362.492
 11
638.808
 21
362.687
  0
LINE
  8
0
 10
638.808
 20
362.687
 11
639.037
 21
362.841
  0
LINE
  8
0
 10
639.037
 20
362.841
 11
639.292
 21
362.946
  0
LINE
  8
0
 10
639.292
 20
362.946
 11
639.562
 21
363
  0
LINE
  8
0
 10
639.562
 20
363
 11
639.838
 21
363
  0
LINE
  8
0
 10
639.838
 20
363
 11
640.108
 21
362.946
  0
LINE
  8
0
 10
640.108
 20
362.946
 11
640.363
 21
362.841
  0
LINE
  8
0
 10
640.363
 20
362.841
 11
640.592
 21
362.687
  0
LINE
  8
0
 10
640.592
 20
362.687
 11
640.787
 21
362.492
  0
LINE
  8
0
 10
640.787
 20
362.492
 11
640.941
 21
362.263
  0
LINE
  8
0
 10
640.941
 20
362.263
 11
641.046
 21
362.008
  0
LINE
  8
0
 10
641.046
 20
362.008
 11
641.1
 21
361.738
  0
LINE
  8
0
 10
641.1
 20
361.738
 11
641.1
 21
361.462
  0
LINE
  8
0
 10
641.1
 20
361.462
 11
641.046
 21
361.192
  0
LINE
  8
0
 10
641.046
 20
361.192
 11
640.941
 21
360.937
  0
LINE
  8
0
 10
640.941
 20
360.937
 11
640.787
 21
360.708
  0
LINE
  8
0
 10
640.787
 20
360.708
 11
640.592
 21
360.513
  0
LINE
  8
0
 10
640.592
 20
360.513
 11
640.363
 21
360.359
  0
LINE
  8
0
 10
640.363
 20
360.359
 11
640.108
 21
360.254
  0
LINE
  8
0
 10
640.108
 20
360.254
 11
639.838
 21
360.2
  0
LINE
  8
0
 10
639.838
 20
360.2
 11
639.562
 21
360.2
  0
LINE
  8
0
 10
514.562
 20
360.2
 11
514.292
 21
360.254
  0
LINE
  8
0
 10
514.292
 20
360.254
 11
514.037
 21
360.359
  0
LINE
  8
0
 10
514.037
 20
360.359
 11
513.808
 21
360.513
  0
LINE
  8
0
 10
513.808
 20
360.513
 11
513.613
 21
360.708
  0
LINE
  8
0
 10
513.613
 20
360.708
 11
513.459
 21
360.937
  0
LINE
  8
0
 10
513.459
 20
360.937
 11
513.354
 21
361.192
  0
LINE
  8
0
 10
513.354
 20
361.192
 11
513.3
 21
361.462
  0
LINE
  8
0
 10
513.3
 20
361.462
 11
513.3
 21
361.738
  0
LINE
  8
0
 10
513.3
 20
361.738
 11
513.354
 21
362.008
  0
LINE
  8
0
 10
513.354
 20
362.008
 11
513.459
 21
362.263
  0
LINE
  8
0
 10
513.459
 20
362.263
 11
513.613
 21
362.492
  0
LINE
  8
0
 10
513.613
 20
362.492
 11
513.808
 21
362.687
  0
LINE
  8
0
 10
513.808
 20
362.687
 11
514.037
 21
362.841
  0
LINE
  8
0
 10
514.037
 20
362.841
 11
514.292
 21
362.946
  0
LINE
  8
0
 10
514.292
 20
362.946
 11
514.562
 21
363
  0
LINE
  8
0
 10
514.562
 20
363
 11
514.838
 21
363
  0
LINE
  8
0
 10
514.838
 20
363
 11
515.108
 21
362.946
  0
LINE
  8
0
 10
515.108
 20
362.946
 11
515.363
 21
362.841
  0
LINE
  8
0
 10
515.363
 20
362.841
 11
515.592
 21
362.687
  0
LINE
  8
0
 10
515.592
 20
362.687
 11
515.787
 21
362.492
  0
LINE
  8
0
 10
515.787
 20
362.492
 11
515.941
 21
362.263
  0
LINE
  8
0
 10
515.941
 20
362.263
 11
516.046
 21
362.008
  0
LINE
  8
0
 10
516.046
 20
362.008
 11
516.1
 21
361.738
  0
LINE
  8
0
 10
516.1
 20
361.738
 11
516.1
 21
361.462
  0
LINE
  8
0
 10
516.1
 20
361.462
 11
516.046
 21
361.192
  0
LINE
  8
0
 10
516.046
 20
361.192
 11
515.941
 21
360.937
  0
LINE
  8
0
 10
515.941
 20
360.937
 11
515.787
 21
360.708
  0
LINE
  8
0
 10
515.787
 20
360.708
 11
515.592
 21
360.513
  0
LINE
  8
0
 10
515.592
 20
360.513
 11
515.363
 21
360.359
  0
LINE
  8
0
 10
515.363
 20
360.359
 11
515.108
 21
360.254
  0
LINE
  8
0
 10
515.108
 20
360.254
 11
514.838
 21
360.2
  0
LINE
  8
0
 10
514.838
 20
360.2
 11
514.562
 21
360.2
  0
LINE
  8
0
 10
389.562
 20
360.2
 11
389.292
 21
360.254
  0
LINE
  8
0
 10
389.292
 20
360.254
 11
389.037
 21
360.359
  0
LINE
  8
0
 10
389.037
 20
360.359
 11
388.808
 21
360.513
  0
LINE
  8
0
 10
388.808
 20
360.513
 11
388.613
 21
360.708
  0
LINE
  8
0
 10
388.613
 20
360.708
 11
388.459
 21
360.937
  0
LINE
  8
0
 10
388.459
 20
360.937
 11
388.354
 21
361.192
  0
LINE
  8
0
 10
388.354
 20
361.192
 11
388.3
 21
361.462
  0
LINE
  8
0
 10
388.3
 20
361.462
 11
388.3
 21
361.738
  0
LINE
  8
0
 10
388.3
 20
361.738
 11
388.354
 21
362.008
  0
LINE
  8
0
 10
388.354
 20
362.008
 11
388.459
 21
362.263
  0
LINE
  8
0
 10
388.459
 20
362.263
 11
388.613
 21
362.492
  0
LINE
  8
0
 10
388.613
 20
362.492
 11
388.808
 21
362.687
  0
LINE
  8
0
 10
388.808
 20
362.687
 11
389.037
 21
362.841
  0
LINE
  8
0
 10
389.037
 20
362.841
 11
389.292
 21
362.946
  0
LINE
  8
0
 10
389.292
 20
362.946
 11
389.562
 21
363
  0
LINE
  8
0
 10
389.562
 20
363
 11
389.838
 21
363
  0
LINE
  8
0
 10
389.838
 20
363
 11
390.108
 21
362.946
  0
LINE
  8
0
 10
390.108
 20
362.946
 11
390.363
 21
362.841
  0
LINE
  8
0
 10
390.363
 20
362.841
 11
390.592
 21
362.687
  0
LINE
  8
0
 10
390.592
 20
362.687
 11
390.787
 21
362.492
  0
LINE
  8
0
 10
390.787
 20
362.492
 11
390.941
 21
362.263
  0
LINE
  8
0
 10
390.941
 20
362.263
 11
391.046
 21
362.008
  0
LINE
  8
0
 10
391.046
 20
362.008
 11
391.1
 21
361.738
  0
LINE
  8
0
 10
391.1
 20
361.738
 11
391.1
 21
361.462
  0
LINE
  8
0
 10
391.1
 20
361.462
 11
391.046
 21
361.192
  0
LINE
  8
0
 10
391.046
 20
361.192
 11
390.941
 21
360.937
  0
LINE
  8
0
 10
390.941
 20
360.937
 11
390.787
 21
360.708
  0
LINE
  8
0
 10
390.787
 20
360.708
 11
390.592
 21
360.513
  0
LINE
  8
0
 10
390.592
 20
360.513
 11
390.363
 21
360.359
  0
LINE
  8
0
 10
390.363
 20
360.359
 11
390.108
 21
360.254
  0
LINE
  8
0
 10
390.108
 20
360.254
 11
389.838
 21
360.2
  0
LINE
  8
0
 10
389.838
 20
360.2
 11
389.562
 21
360.2
  0
LINE
  8
0
 10
637.225
 20
343.61
 11
637.225
 21
351.59
  0
LINE
  8
0
 10
637.225
 20
351.59
 11
642.175
 21
351.59
  0
LINE
  8
0
 10
642.175
 20
351.59
 11
642.175
 21
343.61
  0
LINE
  8
0
 10
642.175
 20
343.61
 11
637.225
 21
343.61
  0
LINE
  8
0
 10
387.225
 20
343.61
 11
387.225
 21
351.59
  0
LINE
  8
0
 10
387.225
 20
351.59
 11
392.175
 21
351.59
  0
LINE
  8
0
 10
392.175
 20
351.59
 11
392.175
 21
343.61
  0
LINE
  8
0
 10
392.175
 20
343.61
 11
387.225
 21
343.61
  0
LINE
  8
0
 10
512.225
 20
343.61
 11
512.225
 21
351.59
  0
LINE
  8
0
 10
512.225
 20
351.59
 11
517.175
 21
351.59
  0
LINE
  8
0
 10
517.175
 20
351.59
 11
517.175
 21
343.61
  0
LINE
  8
0
 10
517.175
 20
343.61
 11
512.225
 21
343.61
  0
LINE
  8
0
 10
552.24
 20
9.89999
 11
560.86
 21
9.89999
  0
LINE
  8
0
 10
560.86
 20
9.89999
 11
560.86
 21
13.09
  0
LINE
  8
0
 10
560.86
 20
13.09
 11
559.51
 21
13.09
  0
LINE
  8
0
 10
559.51
 20
13.09
 11
559.51
 21
15.08
  0
LINE
  8
0
 10
559.51
 20
15.08
 11
560.86
 21
15.08
  0
LINE
  8
0
 10
560.86
 20
15.08
 11
560.86
 21
16.75
  0
LINE
  8
0
 10
560.86
 20
16.75
 11
563.64
 21
16.75
  0
LINE
  8
0
 10
563.64
 20
16.75
 11
563.64
 21
15.08
  0
LINE
  8
0
 10
563.64
 20
15.08
 11
564.99
 21
15.08
  0
LINE
  8
0
 10
564.99
 20
15.08
 11
564.99
 21
13.09
  0
LINE
  8
0
 10
564.99
 20
13.09
 11
563.64
 21
13.09
  0
LINE
  8
0
 10
563.64
 20
13.09
 11
563.64
 21
9.89999
  0
LINE
  8
0
 10
563.64
 20
9.89999
 11
572.26
 21
9.89999
  0
LINE
  8
0
 10
572.26
 20
9.89999
 11
572.26
 21
4.97501
  0
LINE
  8
0
 10
572.26
 20
4.97501
 11
580.24
 21
4.97501
  0
LINE
  8
0
 10
580.24
 20
4.97501
 11
580.24
 21
9.89999
  0
LINE
  8
0
 10
580.24
 20
9.89999
 11
592.25
 21
9.89999
  0
LINE
  8
0
 10
592.25
 20
9.89999
 11
592.25
 21
17.91
  0
LINE
  8
0
 10
592.25
 20
17.91
 11
597.175
 21
17.91
  0
LINE
  8
0
 10
597.175
 20
17.91
 11
597.175
 21
25.89
  0
LINE
  8
0
 10
597.175
 20
25.89
 11
592.25
 21
25.89
  0
LINE
  8
0
 10
592.25
 20
25.89
 11
592.25
 21
34.51
  0
LINE
  8
0
 10
592.25
 20
34.51
 11
589.06
 21
34.51
  0
LINE
  8
0
 10
589.06
 20
34.51
 11
589.06
 21
33.16
  0
LINE
  8
0
 10
589.06
 20
33.16
 11
587.07
 21
33.16
  0
LINE
  8
0
 10
587.07
 20
33.16
 11
587.07
 21
34.51
  0
LINE
  8
0
 10
587.07
 20
34.51
 11
585.4
 21
34.51
  0
LINE
  8
0
 10
585.4
 20
34.51
 11
585.4
 21
37.29
  0
LINE
  8
0
 10
585.4
 20
37.29
 11
587.07
 21
37.29
  0
LINE
  8
0
 10
587.07
 20
37.29
 11
587.07
 21
38.64
  0
LINE
  8
0
 10
587.07
 20
38.64
 11
589.06
 21
38.64
  0
LINE
  8
0
 10
589.06
 20
38.64
 11
589.06
 21
37.29
  0
LINE
  8
0
 10
589.06
 20
37.29
 11
592.25
 21
37.29
  0
LINE
  8
0
 10
592.25
 20
37.29
 11
592.25
 21
45.91
  0
LINE
  8
0
 10
592.25
 20
45.91
 11
597.175
 21
45.91
  0
LINE
  8
0
 10
597.175
 20
45.91
 11
597.175
 21
53.89
  0
LINE
  8
0
 10
597.175
 20
53.89
 11
592.25
 21
53.89
  0
LINE
  8
0
 10
592.25
 20
53.89
 11
592.25
 21
104.577
  0
LINE
  8
0
 10
592.25
 20
104.577
 11
597.175
 21
104.577
  0
LINE
  8
0
 10
597.175
 20
104.577
 11
597.175
 21
112.557
  0
LINE
  8
0
 10
597.175
 20
112.557
 11
592.25
 21
112.557
  0
LINE
  8
0
 10
592.25
 20
112.557
 11
592.25
 21
121.177
  0
LINE
  8
0
 10
592.25
 20
121.177
 11
589.06
 21
121.177
  0
LINE
  8
0
 10
589.06
 20
121.177
 11
589.06
 21
119.827
  0
LINE
  8
0
 10
589.06
 20
119.827
 11
587.07
 21
119.827
  0
LINE
  8
0
 10
587.07
 20
119.827
 11
587.07
 21
121.177
  0
LINE
  8
0
 10
587.07
 20
121.177
 11
585.4
 21
121.177
  0
LINE
  8
0
 10
585.4
 20
121.177
 11
585.4
 21
123.957
  0
LINE
  8
0
 10
585.4
 20
123.957
 11
587.07
 21
123.957
  0
LINE
  8
0
 10
587.07
 20
123.957
 11
587.07
 21
125.307
  0
LINE
  8
0
 10
587.07
 20
125.307
 11
589.06
 21
125.307
  0
LINE
  8
0
 10
589.06
 20
125.307
 11
589.06
 21
123.957
  0
LINE
  8
0
 10
589.06
 20
123.957
 11
592.25
 21
123.957
  0
LINE
  8
0
 10
592.25
 20
123.957
 11
592.25
 21
132.577
  0
LINE
  8
0
 10
592.25
 20
132.577
 11
597.175
 21
132.577
  0
LINE
  8
0
 10
597.175
 20
132.577
 11
597.175
 21
140.557
  0
LINE
  8
0
 10
597.175
 20
140.557
 11
592.25
 21
140.557
  0
LINE
  8
0
 10
592.25
 20
140.557
 11
592.25
 21
191.243
  0
LINE
  8
0
 10
592.25
 20
191.243
 11
597.175
 21
191.243
  0
LINE
  8
0
 10
597.175
 20
191.243
 11
597.175
 21
199.223
  0
LINE
  8
0
 10
597.175
 20
199.223
 11
592.25
 21
199.223
  0
LINE
  8
0
 10
592.25
 20
199.223
 11
592.25
 21
207.843
  0
LINE
  8
0
 10
592.25
 20
207.843
 11
589.06
 21
207.843
  0
LINE
  8
0
 10
589.06
 20
207.843
 11
589.06
 21
206.493
  0
LINE
  8
0
 10
589.06
 20
206.493
 11
587.07
 21
206.493
  0
LINE
  8
0
 10
587.07
 20
206.493
 11
587.07
 21
207.843
  0
LINE
  8
0
 10
587.07
 20
207.843
 11
585.4
 21
207.843
  0
LINE
  8
0
 10
585.4
 20
207.843
 11
585.4
 21
210.623
  0
LINE
  8
0
 10
585.4
 20
210.623
 11
587.07
 21
210.623
  0
LINE
  8
0
 10
587.07
 20
210.623
 11
587.07
 21
211.973
  0
LINE
  8
0
 10
587.07
 20
211.973
 11
589.06
 21
211.973
  0
LINE
  8
0
 10
589.06
 20
211.973
 11
589.06
 21
210.623
  0
LINE
  8
0
 10
589.06
 20
210.623
 11
592.25
 21
210.623
  0
LINE
  8
0
 10
592.25
 20
210.623
 11
592.25
 21
219.243
  0
LINE
  8
0
 10
592.25
 20
219.243
 11
597.175
 21
219.243
  0
LINE
  8
0
 10
597.175
 20
219.243
 11
597.175
 21
227.223
  0
LINE
  8
0
 10
597.175
 20
227.223
 11
592.25
 21
227.223
  0
LINE
  8
0
 10
592.25
 20
227.223
 11
592.25
 21
277.91
  0
LINE
  8
0
 10
592.25
 20
277.91
 11
597.175
 21
277.91
  0
LINE
  8
0
 10
597.175
 20
277.91
 11
597.175
 21
285.89
  0
LINE
  8
0
 10
597.175
 20
285.89
 11
592.25
 21
285.89
  0
LINE
  8
0
 10
592.25
 20
285.89
 11
592.25
 21
294.51
  0
LINE
  8
0
 10
592.25
 20
294.51
 11
589.06
 21
294.51
  0
LINE
  8
0
 10
589.06
 20
294.51
 11
589.06
 21
293.16
  0
LINE
  8
0
 10
589.06
 20
293.16
 11
587.07
 21
293.16
  0
LINE
  8
0
 10
587.07
 20
293.16
 11
587.07
 21
294.51
  0
LINE
  8
0
 10
587.07
 20
294.51
 11
585.4
 21
294.51
  0
LINE
  8
0
 10
585.4
 20
294.51
 11
585.4
 21
297.29
  0
LINE
  8
0
 10
585.4
 20
297.29
 11
587.07
 21
297.29
  0
LINE
  8
0
 10
587.07
 20
297.29
 11
587.07
 21
298.64
  0
LINE
  8
0
 10
587.07
 20
298.64
 11
589.06
 21
298.64
  0
LINE
  8
0
 10
589.06
 20
298.64
 11
589.06
 21
297.29
  0
LINE
  8
0
 10
589.06
 20
297.29
 11
592.25
 21
297.29
  0
LINE
  8
0
 10
592.25
 20
297.29
 11
592.25
 21
305.91
  0
LINE
  8
0
 10
592.25
 20
305.91
 11
597.175
 21
305.91
  0
LINE
  8
0
 10
597.175
 20
305.91
 11
597.175
 21
313.89
  0
LINE
  8
0
 10
597.175
 20
313.89
 11
592.25
 21
313.89
  0
LINE
  8
0
 10
592.25
 20
313.89
 11
592.25
 21
321.9
  0
LINE
  8
0
 10
592.25
 20
321.9
 11
580.24
 21
321.9
  0
LINE
  8
0
 10
580.24
 20
321.9
 11
580.24
 21
326.825
  0
LINE
  8
0
 10
580.24
 20
326.825
 11
572.26
 21
326.825
  0
LINE
  8
0
 10
572.26
 20
326.825
 11
572.26
 21
321.9
  0
LINE
  8
0
 10
572.26
 20
321.9
 11
563.64
 21
321.9
  0
LINE
  8
0
 10
563.64
 20
321.9
 11
563.64
 21
318.71
  0
LINE
  8
0
 10
563.64
 20
318.71
 11
564.99
 21
318.71
  0
LINE
  8
0
 10
564.99
 20
318.71
 11
564.99
 21
316.72
  0
LINE
  8
0
 10
564.99
 20
316.72
 11
563.64
 21
316.72
  0
LINE
  8
0
 10
563.64
 20
316.72
 11
563.64
 21
315.05
  0
LINE
  8
0
 10
563.64
 20
315.05
 11
560.86
 21
315.05
  0
LINE
  8
0
 10
560.86
 20
315.05
 11
560.86
 21
316.72
  0
LINE
  8
0
 10
560.86
 20
316.72
 11
559.51
 21
316.72
  0
LINE
  8
0
 10
559.51
 20
316.72
 11
559.51
 21
318.71
  0
LINE
  8
0
 10
559.51
 20
318.71
 11
560.86
 21
318.71
  0
LINE
  8
0
 10
560.86
 20
318.71
 11
560.86
 21
321.9
  0
LINE
  8
0
 10
560.86
 20
321.9
 11
552.24
 21
321.9
  0
LINE
  8
0
 10
552.24
 20
321.9
 11
552.24
 21
326.825
  0
LINE
  8
0
 10
552.24
 20
326.825
 11
544.26
 21
326.825
  0
LINE
  8
0
 10
544.26
 20
326.825
 11
544.26
 21
321.9
  0
LINE
  8
0
 10
544.26
 20
321.9
 11
532.25
 21
321.9
  0
LINE
  8
0
 10
532.25
 20
321.9
 11
532.25
 21
9.89999
  0
LINE
  8
0
 10
532.25
 20
9.89999
 11
544.26
 21
9.89999
  0
LINE
  8
0
 10
544.26
 20
9.89999
 11
544.26
 21
4.97501
  0
LINE
  8
0
 10
544.26
 20
4.97501
 11
552.24
 21
4.97501
  0
LINE
  8
0
 10
552.24
 20
4.97501
 11
552.24
 21
9.89999
  0
LINE
  8
0
 10
224.74
 20
9.89999
 11
295.61
 21
9.89999
  0
LINE
  8
0
 10
295.61
 20
9.89999
 11
295.61
 21
4.97501
  0
LINE
  8
0
 10
295.61
 20
4.97501
 11
303.59
 21
4.97501
  0
LINE
  8
0
 10
303.59
 20
4.97501
 11
303.59
 21
9.89999
  0
LINE
  8
0
 10
303.59
 20
9.89999
 11
312.21
 21
9.89999
  0
LINE
  8
0
 10
312.21
 20
9.89999
 11
312.21
 21
13.09
  0
LINE
  8
0
 10
312.21
 20
13.09
 11
310.86
 21
13.09
  0
LINE
  8
0
 10
310.86
 20
13.09
 11
310.86
 21
15.08
  0
LINE
  8
0
 10
310.86
 20
15.08
 11
312.21
 21
15.08
  0
LINE
  8
0
 10
312.21
 20
15.08
 11
312.21
 21
16.75
  0
LINE
  8
0
 10
312.21
 20
16.75
 11
314.99
 21
16.75
  0
LINE
  8
0
 10
314.99
 20
16.75
 11
314.99
 21
15.08
  0
LINE
  8
0
 10
314.99
 20
15.08
 11
316.34
 21
15.08
  0
LINE
  8
0
 10
316.34
 20
15.08
 11
316.34
 21
13.09
  0
LINE
  8
0
 10
316.34
 20
13.09
 11
314.99
 21
13.09
  0
LINE
  8
0
 10
314.99
 20
13.09
 11
314.99
 21
9.89999
  0
LINE
  8
0
 10
314.99
 20
9.89999
 11
323.61
 21
9.89999
  0
LINE
  8
0
 10
323.61
 20
9.89999
 11
323.61
 21
4.97501
  0
LINE
  8
0
 10
323.61
 20
4.97501
 11
331.59
 21
4.97501
  0
LINE
  8
0
 10
331.59
 20
4.97501
 11
331.59
 21
9.89999
  0
LINE
  8
0
 10
331.59
 20
9.89999
 11
402.46
 21
9.89999
  0
LINE
  8
0
 10
402.46
 20
9.89999
 11
402.46
 21
4.97501
  0
LINE
  8
0
 10
402.46
 20
4.97501
 11
410.44
 21
4.97501
  0
LINE
  8
0
 10
410.44
 20
4.97501
 11
410.44
 21
9.89999
  0
LINE
  8
0
 10
410.44
 20
9.89999
 11
419.06
 21
9.89999
  0
LINE
  8
0
 10
419.06
 20
9.89999
 11
419.06
 21
13.09
  0
LINE
  8
0
 10
419.06
 20
13.09
 11
417.71
 21
13.09
  0
LINE
  8
0
 10
417.71
 20
13.09
 11
417.71
 21
15.08
  0
LINE
  8
0
 10
417.71
 20
15.08
 11
419.06
 21
15.08
  0
LINE
  8
0
 10
419.06
 20
15.08
 11
419.06
 21
16.75
  0
LINE
  8
0
 10
419.06
 20
16.75
 11
421.84
 21
16.75
  0
LINE
  8
0
 10
421.84
 20
16.75
 11
421.84
 21
15.08
  0
LINE
  8
0
 10
421.84
 20
15.08
 11
423.19
 21
15.08
  0
LINE
  8
0
 10
423.19
 20
15.08
 11
423.19
 21
13.09
  0
LINE
  8
0
 10
423.19
 20
13.09
 11
421.84
 21
13.09
  0
LINE
  8
0
 10
421.84
 20
13.09
 11
421.84
 21
9.89999
  0
LINE
  8
0
 10
421.84
 20
9.89999
 11
430.46
 21
9.89999
  0
LINE
  8
0
 10
430.46
 20
9.89999
 11
430.46
 21
4.97501
  0
LINE
  8
0
 10
430.46
 20
4.97501
 11
438.44
 21
4.97501
  0
LINE
  8
0
 10
438.44
 20
4.97501
 11
438.44
 21
9.89999
  0
LINE
  8
0
 10
438.44
 20
9.89999
 11
455.35
 21
9.89999
  0
LINE
  8
0
 10
455.35
 20
9.89999
 11
455.35
 21
321.9
  0
LINE
  8
0
 10
455.35
 20
321.9
 11
438.44
 21
321.9
  0
LINE
  8
0
 10
438.44
 20
321.9
 11
438.44
 21
326.825
  0
LINE
  8
0
 10
438.44
 20
326.825
 11
430.46
 21
326.825
  0
LINE
  8
0
 10
430.46
 20
326.825
 11
430.46
 21
321.9
  0
LINE
  8
0
 10
430.46
 20
321.9
 11
421.84
 21
321.9
  0
LINE
  8
0
 10
421.84
 20
321.9
 11
421.84
 21
318.71
  0
LINE
  8
0
 10
421.84
 20
318.71
 11
423.19
 21
318.71
  0
LINE
  8
0
 10
423.19
 20
318.71
 11
423.19
 21
316.72
  0
LINE
  8
0
 10
423.19
 20
316.72
 11
421.84
 21
316.72
  0
LINE
  8
0
 10
421.84
 20
316.72
 11
421.84
 21
315.05
  0
LINE
  8
0
 10
421.84
 20
315.05
 11
419.06
 21
315.05
  0
LINE
  8
0
 10
419.06
 20
315.05
 11
419.06
 21
316.72
  0
LINE
  8
0
 10
419.06
 20
316.72
 11
417.71
 21
316.72
  0
LINE
  8
0
 10
417.71
 20
316.72
 11
417.71
 21
318.71
  0
LINE
  8
0
 10
417.71
 20
318.71
 11
419.06
 21
318.71
  0
LINE
  8
0
 10
419.06
 20
318.71
 11
419.06
 21
321.9
  0
LINE
  8
0
 10
419.06
 20
321.9
 11
410.44
 21
321.9
  0
LINE
  8
0
 10
410.44
 20
321.9
 11
410.44
 21
326.825
  0
LINE
  8
0
 10
410.44
 20
326.825
 11
402.46
 21
326.825
  0
LINE
  8
0
 10
402.46
 20
326.825
 11
402.46
 21
321.9
  0
LINE
  8
0
 10
402.46
 20
321.9
 11
331.59
 21
321.9
  0
LINE
  8
0
 10
331.59
 20
321.9
 11
331.59
 21
326.825
  0
LINE
  8
0
 10
331.59
 20
326.825
 11
323.61
 21
326.825
  0
LINE
  8
0
 10
323.61
 20
326.825
 11
323.61
 21
321.9
  0
LINE
  8
0
 10
323.61
 20
321.9
 11
314.99
 21
321.9
  0
LINE
  8
0
 10
314.99
 20
321.9
 11
314.99
 21
318.71
  0
LINE
  8
0
 10
314.99
 20
318.71
 11
316.34
 21
318.71
  0
LINE
  8
0
 10
316.34
 20
318.71
 11
316.34
 21
316.72
  0
LINE
  8
0
 10
316.34
 20
316.72
 11
314.99
 21
316.72
  0
LINE
  8
0
 10
314.99
 20
316.72
 11
314.99
 21
315.05
  0
LINE
  8
0
 10
314.99
 20
315.05
 11
312.21
 21
315.05
  0
LINE
  8
0
 10
312.21
 20
315.05
 11
312.21
 21
316.72
  0
LINE
  8
0
 10
312.21
 20
316.72
 11
310.86
 21
316.72
  0
LINE
  8
0
 10
310.86
 20
316.72
 11
310.86
 21
318.71
  0
LINE
  8
0
 10
310.86
 20
318.71
 11
312.21
 21
318.71
  0
LINE
  8
0
 10
312.21
 20
318.71
 11
312.21
 21
321.9
  0
LINE
  8
0
 10
312.21
 20
321.9
 11
303.59
 21
321.9
  0
LINE
  8
0
 10
303.59
 20
321.9
 11
303.59
 21
326.825
  0
LINE
  8
0
 10
303.59
 20
326.825
 11
295.61
 21
326.825
  0
LINE
  8
0
 10
295.61
 20
326.825
 11
295.61
 21
321.9
  0
LINE
  8
0
 10
295.61
 20
321.9
 11
224.74
 21
321.9
  0
LINE
  8
0
 10
224.74
 20
321.9
 11
224.74
 21
326.825
  0
LINE
  8
0
 10
224.74
 20
326.825
 11
216.76
 21
326.825
  0
LINE
  8
0
 10
216.76
 20
326.825
 11
216.76
 21
321.9
  0
LINE
  8
0
 10
216.76
 20
321.9
 11
208.14
 21
321.9
  0
LINE
  8
0
 10
208.14
 20
321.9
 11
208.14
 21
318.71
  0
LINE
  8
0
 10
208.14
 20
318.71
 11
209.49
 21
318.71
  0
LINE
  8
0
 10
209.49
 20
318.71
 11
209.49
 21
316.72
  0
LINE
  8
0
 10
209.49
 20
316.72
 11
208.14
 21
316.72
  0
LINE
  8
0
 10
208.14
 20
316.72
 11
208.14
 21
315.05
  0
LINE
  8
0
 10
208.14
 20
315.05
 11
205.36
 21
315.05
  0
LINE
  8
0
 10
205.36
 20
315.05
 11
205.36
 21
316.72
  0
LINE
  8
0
 10
205.36
 20
316.72
 11
204.01
 21
316.72
  0
LINE
  8
0
 10
204.01
 20
316.72
 11
204.01
 21
318.71
  0
LINE
  8
0
 10
204.01
 20
318.71
 11
205.36
 21
318.71
  0
LINE
  8
0
 10
205.36
 20
318.71
 11
205.36
 21
321.9
  0
LINE
  8
0
 10
205.36
 20
321.9
 11
196.74
 21
321.9
  0
LINE
  8
0
 10
196.74
 20
321.9
 11
196.74
 21
326.825
  0
LINE
  8
0
 10
196.74
 20
326.825
 11
188.76
 21
326.825
  0
LINE
  8
0
 10
188.76
 20
326.825
 11
188.76
 21
321.9
  0
LINE
  8
0
 10
188.76
 20
321.9
 11
117.89
 21
321.9
  0
LINE
  8
0
 10
117.89
 20
321.9
 11
117.89
 21
326.825
  0
LINE
  8
0
 10
117.89
 20
326.825
 11
109.91
 21
326.825
  0
LINE
  8
0
 10
109.91
 20
326.825
 11
109.91
 21
321.9
  0
LINE
  8
0
 10
109.91
 20
321.9
 11
101.29
 21
321.9
  0
LINE
  8
0
 10
101.29
 20
321.9
 11
101.29
 21
318.71
  0
LINE
  8
0
 10
101.29
 20
318.71
 11
102.64
 21
318.71
  0
LINE
  8
0
 10
102.64
 20
318.71
 11
102.64
 21
316.72
  0
LINE
  8
0
 10
102.64
 20
316.72
 11
101.29
 21
316.72
  0
LINE
  8
0
 10
101.29
 20
316.72
 11
101.29
 21
315.05
  0
LINE
  8
0
 10
101.29
 20
315.05
 11
98.51
 21
315.05
  0
LINE
  8
0
 10
98.51
 20
315.05
 11
98.51
 21
316.72
  0
LINE
  8
0
 10
98.51
 20
316.72
 11
97.16
 21
316.72
  0
LINE
  8
0
 10
97.16
 20
316.72
 11
97.16
 21
318.71
  0
LINE
  8
0
 10
97.16
 20
318.71
 11
98.51
 21
318.71
  0
LINE
  8
0
 10
98.51
 20
318.71
 11
98.51
 21
321.9
  0
LINE
  8
0
 10
98.51
 20
321.9
 11
89.89
 21
321.9
  0
LINE
  8
0
 10
89.89
 20
321.9
 11
89.89
 21
326.825
  0
LINE
  8
0
 10
89.89
 20
326.825
 11
81.91
 21
326.825
  0
LINE
  8
0
 10
81.91
 20
326.825
 11
81.91
 21
321.9
  0
LINE
  8
0
 10
81.91
 20
321.9
 11
73.9
 21
321.9
  0
LINE
  8
0
 10
73.9
 20
321.9
 11
73.9
 21
9.90001
  0
LINE
  8
0
 10
73.9
 20
9.90001
 11
81.91
 21
9.90001
  0
LINE
  8
0
 10
81.91
 20
9.90001
 11
81.91
 21
4.97502
  0
LINE
  8
0
 10
81.91
 20
4.97502
 11
89.89
 21
4.97502
  0
LINE
  8
0
 10
89.89
 20
4.97502
 11
89.89
 21
9.90001
  0
LINE
  8
0
 10
89.89
 20
9.90001
 11
98.51
 21
9.90001
  0
LINE
  8
0
 10
98.51
 20
9.90001
 11
98.51
 21
13.09
  0
LINE
  8
0
 10
98.51
 20
13.09
 11
97.16
 21
13.09
  0
LINE
  8
0
 10
97.16
 20
13.09
 11
97.16
 21
15.08
  0
LINE
  8
0
 10
97.16
 20
15.08
 11
98.51
 21
15.08
  0
LINE
  8
0
 10
98.51
 20
15.08
 11
98.51
 21
16.75
  0
LINE
  8
0
 10
98.51
 20
16.75
 11
101.29
 21
16.75
  0
LINE
  8
0
 10
101.29
 20
16.75
 11
101.29
 21
15.08
  0
LINE
  8
0
 10
101.29
 20
15.08
 11
102.64
 21
15.08
  0
LINE
  8
0
 10
102.64
 20
15.08
 11
102.64
 21
13.09
  0
LINE
  8
0
 10
102.64
 20
13.09
 11
101.29
 21
13.09
  0
LINE
  8
0
 10
101.29
 20
13.09
 11
101.29
 21
9.90001
  0
LINE
  8
0
 10
101.29
 20
9.90001
 11
109.91
 21
9.90001
  0
LINE
  8
0
 10
109.91
 20
9.90001
 11
109.91
 21
4.97502
  0
LINE
  8
0
 10
109.91
 20
4.97502
 11
117.89
 21
4.97502
  0
LINE
  8
0
 10
117.89
 20
4.97502
 11
117.89
 21
9.90001
  0
LINE
  8
0
 10
117.89
 20
9.90001
 11
188.76
 21
9.90001
  0
LINE
  8
0
 10
188.76
 20
9.90001
 11
188.76
 21
4.97502
  0
LINE
  8
0
 10
188.76
 20
4.97502
 11
196.74
 21
4.97501
  0
LINE
  8
0
 10
196.74
 20
4.97501
 11
196.74
 21
9.89999
  0
LINE
  8
0
 10
196.74
 20
9.89999
 11
205.36
 21
9.89999
  0
LINE
  8
0
 10
205.36
 20
9.89999
 11
205.36
 21
13.09
  0
LINE
  8
0
 10
205.36
 20
13.09
 11
204.01
 21
13.09
  0
LINE
  8
0
 10
204.01
 20
13.09
 11
204.01
 21
15.08
  0
LINE
  8
0
 10
204.01
 20
15.08
 11
205.36
 21
15.08
  0
LINE
  8
0
 10
205.36
 20
15.08
 11
205.36
 21
16.75
  0
LINE
  8
0
 10
205.36
 20
16.75
 11
208.14
 21
16.75
  0
LINE
  8
0
 10
208.14
 20
16.75
 11
208.14
 21
15.08
  0
LINE
  8
0
 10
208.14
 20
15.08
 11
209.49
 21
15.08
  0
LINE
  8
0
 10
209.49
 20
15.08
 11
209.49
 21
13.09
  0
LINE
  8
0
 10
209.49
 20
13.09
 11
208.14
 21
13.09
  0
LINE
  8
0
 10
208.14
 20
13.09
 11
208.14
 21
9.89999
  0
LINE
  8
0
 10
208.14
 20
9.89999
 11
216.76
 21
9.89999
  0
LINE
  8
0
 10
216.76
 20
9.89999
 11
216.76
 21
4.97501
  0
LINE
  8
0
 10
216.76
 20
4.97501
 11
224.74
 21
4.97501
  0
LINE
  8
0
 10
224.74
 20
4.97501
 11
224.74
 21
9.89999
  0
LINE
  8
0
 10
321.425
 20
305.91
 11
321.425
 21
313.89
  0
LINE
  8
0
 10
321.425
 20
313.89
 11
326.375
 21
313.89
  0
LINE
  8
0
 10
326.375
 20
313.89
 11
326.375
 21
305.91
  0
LINE
  8
0
 10
326.375
 20
305.91
 11
321.425
 21
305.91
  0
LINE
  8
0
 10
196.425
 20
305.91
 11
196.425
 21
313.89
  0
LINE
  8
0
 10
196.425
 20
313.89
 11
201.375
 21
313.89
  0
LINE
  8
0
 10
201.375
 20
313.89
 11
201.375
 21
305.91
  0
LINE
  8
0
 10
201.375
 20
305.91
 11
196.425
 21
305.91
  0
LINE
  8
0
 10
446.425
 20
305.91
 11
446.425
 21
313.89
  0
LINE
  8
0
 10
446.425
 20
313.89
 11
451.375
 21
313.89
  0
LINE
  8
0
 10
451.375
 20
313.89
 11
451.375
 21
305.91
  0
LINE
  8
0
 10
451.375
 20
305.91
 11
446.425
 21
305.91
  0
LINE
  8
0
 10
198.762
 20
294.5
 11
198.492
 21
294.554
  0
LINE
  8
0
 10
198.492
 20
294.554
 11
198.237
 21
294.659
  0
LINE
  8
0
 10
198.237
 20
294.659
 11
198.008
 21
294.813
  0
LINE
  8
0
 10
198.008
 20
294.813
 11
197.813
 21
295.008
  0
LINE
  8
0
 10
197.813
 20
295.008
 11
197.659
 21
295.237
  0
LINE
  8
0
 10
197.659
 20
295.237
 11
197.554
 21
295.492
  0
LINE
  8
0
 10
197.554
 20
295.492
 11
197.5
 21
295.762
  0
LINE
  8
0
 10
197.5
 20
295.762
 11
197.5
 21
296.038
  0
LINE
  8
0
 10
197.5
 20
296.038
 11
197.554
 21
296.308
  0
LINE
  8
0
 10
197.554
 20
296.308
 11
197.659
 21
296.563
  0
LINE
  8
0
 10
197.659
 20
296.563
 11
197.813
 21
296.792
  0
LINE
  8
0
 10
197.813
 20
296.792
 11
198.008
 21
296.987
  0
LINE
  8
0
 10
198.008
 20
296.987
 11
198.237
 21
297.141
  0
LINE
  8
0
 10
198.237
 20
297.141
 11
198.492
 21
297.246
  0
LINE
  8
0
 10
198.492
 20
297.246
 11
198.762
 21
297.3
  0
LINE
  8
0
 10
198.762
 20
297.3
 11
199.038
 21
297.3
  0
LINE
  8
0
 10
199.038
 20
297.3
 11
199.308
 21
297.246
  0
LINE
  8
0
 10
199.308
 20
297.246
 11
199.563
 21
297.141
  0
LINE
  8
0
 10
199.563
 20
297.141
 11
199.792
 21
296.987
  0
LINE
  8
0
 10
199.792
 20
296.987
 11
199.987
 21
296.792
  0
LINE
  8
0
 10
199.987
 20
296.792
 11
200.141
 21
296.563
  0
LINE
  8
0
 10
200.141
 20
296.563
 11
200.246
 21
296.308
  0
LINE
  8
0
 10
200.246
 20
296.308
 11
200.3
 21
296.038
  0
LINE
  8
0
 10
200.3
 20
296.038
 11
200.3
 21
295.762
  0
LINE
  8
0
 10
200.3
 20
295.762
 11
200.246
 21
295.492
  0
LINE
  8
0
 10
200.246
 20
295.492
 11
200.141
 21
295.237
  0
LINE
  8
0
 10
200.141
 20
295.237
 11
199.987
 21
295.008
  0
LINE
  8
0
 10
199.987
 20
295.008
 11
199.792
 21
294.813
  0
LINE
  8
0
 10
199.792
 20
294.813
 11
199.563
 21
294.659
  0
LINE
  8
0
 10
199.563
 20
294.659
 11
199.308
 21
294.554
  0
LINE
  8
0
 10
199.308
 20
294.554
 11
199.038
 21
294.5
  0
LINE
  8
0
 10
199.038
 20
294.5
 11
198.762
 21
294.5
  0
LINE
  8
0
 10
323.762
 20
294.5
 11
323.492
 21
294.554
  0
LINE
  8
0
 10
323.492
 20
294.554
 11
323.237
 21
294.659
  0
LINE
  8
0
 10
323.237
 20
294.659
 11
323.008
 21
294.813
  0
LINE
  8
0
 10
323.008
 20
294.813
 11
322.813
 21
295.008
  0
LINE
  8
0
 10
322.813
 20
295.008
 11
322.659
 21
295.237
  0
LINE
  8
0
 10
322.659
 20
295.237
 11
322.554
 21
295.492
  0
LINE
  8
0
 10
322.554
 20
295.492
 11
322.5
 21
295.762
  0
LINE
  8
0
 10
322.5
 20
295.762
 11
322.5
 21
296.038
  0
LINE
  8
0
 10
322.5
 20
296.038
 11
322.554
 21
296.308
  0
LINE
  8
0
 10
322.554
 20
296.308
 11
322.659
 21
296.563
  0
LINE
  8
0
 10
322.659
 20
296.563
 11
322.813
 21
296.792
  0
LINE
  8
0
 10
322.813
 20
296.792
 11
323.008
 21
296.987
  0
LINE
  8
0
 10
323.008
 20
296.987
 11
323.237
 21
297.141
  0
LINE
  8
0
 10
323.237
 20
297.141
 11
323.492
 21
297.246
  0
LINE
  8
0
 10
323.492
 20
297.246
 11
323.762
 21
297.3
  0
LINE
  8
0
 10
323.762
 20
297.3
 11
324.038
 21
297.3
  0
LINE
  8
0
 10
324.038
 20
297.3
 11
324.308
 21
297.246
  0
LINE
  8
0
 10
324.308
 20
297.246
 11
324.563
 21
297.141
  0
LINE
  8
0
 10
324.563
 20
297.141
 11
324.792
 21
296.987
  0
LINE
  8
0
 10
324.792
 20
296.987
 11
324.987
 21
296.792
  0
LINE
  8
0
 10
324.987
 20
296.792
 11
325.141
 21
296.563
  0
LINE
  8
0
 10
325.141
 20
296.563
 11
325.246
 21
296.308
  0
LINE
  8
0
 10
325.246
 20
296.308
 11
325.3
 21
296.038
  0
LINE
  8
0
 10
325.3
 20
296.038
 11
325.3
 21
295.762
  0
LINE
  8
0
 10
325.3
 20
295.762
 11
325.246
 21
295.492
  0
LINE
  8
0
 10
325.246
 20
295.492
 11
325.141
 21
295.237
  0
LINE
  8
0
 10
325.141
 20
295.237
 11
324.987
 21
295.008
  0
LINE
  8
0
 10
324.987
 20
295.008
 11
324.792
 21
294.813
  0
LINE
  8
0
 10
324.792
 20
294.813
 11
324.563
 21
294.659
  0
LINE
  8
0
 10
324.563
 20
294.659
 11
324.308
 21
294.554
  0
LINE
  8
0
 10
324.308
 20
294.554
 11
324.038
 21
294.5
  0
LINE
  8
0
 10
324.038
 20
294.5
 11
323.762
 21
294.5
  0
LINE
  8
0
 10
448.762
 20
294.5
 11
448.492
 21
294.554
  0
LINE
  8
0
 10
448.492
 20
294.554
 11
448.237
 21
294.659
  0
LINE
  8
0
 10
448.237
 20
294.659
 11
448.008
 21
294.813
  0
LINE
  8
0
 10
448.008
 20
294.813
 11
447.813
 21
295.008
  0
LINE
  8
0
 10
447.813
 20
295.008
 11
447.659
 21
295.237
  0
LINE
  8
0
 10
447.659
 20
295.237
 11
447.554
 21
295.492
  0
LINE
  8
0
 10
447.554
 20
295.492
 11
447.5
 21
295.762
  0
LINE
  8
0
 10
447.5
 20
295.762
 11
447.5
 21
296.038
  0
LINE
  8
0
 10
447.5
 20
296.038
 11
447.554
 21
296.308
  0
LINE
  8
0
 10
447.554
 20
296.308
 11
447.659
 21
296.563
  0
LINE
  8
0
 10
447.659
 20
296.563
 11
447.813
 21
296.792
  0
LINE
  8
0
 10
447.813
 20
296.792
 11
448.008
 21
296.987
  0
LINE
  8
0
 10
448.008
 20
296.987
 11
448.237
 21
297.141
  0
LINE
  8
0
 10
448.237
 20
297.141
 11
448.492
 21
297.246
  0
LINE
  8
0
 10
448.492
 20
297.246
 11
448.762
 21
297.3
  0
LINE
  8
0
 10
448.762
 20
297.3
 11
449.038
 21
297.3
  0
LINE
  8
0
 10
449.038
 20
297.3
 11
449.308
 21
297.246
  0
LINE
  8
0
 10
449.308
 20
297.246
 11
449.563
 21
297.141
  0
LINE
  8
0
 10
449.563
 20
297.141
 11
449.792
 21
296.987
  0
LINE
  8
0
 10
449.792
 20
296.987
 11
449.987
 21
296.792
  0
LINE
  8
0
 10
449.987
 20
296.792
 11
450.141
 21
296.563
  0
LINE
  8
0
 10
450.141
 20
296.563
 11
450.246
 21
296.308
  0
LINE
  8
0
 10
450.246
 20
296.308
 11
450.3
 21
296.038
  0
LINE
  8
0
 10
450.3
 20
296.038
 11
450.3
 21
295.762
  0
LINE
  8
0
 10
450.3
 20
295.762
 11
450.246
 21
295.492
  0
LINE
  8
0
 10
450.246
 20
295.492
 11
450.141
 21
295.237
  0
LINE
  8
0
 10
450.141
 20
295.237
 11
449.987
 21
295.008
  0
LINE
  8
0
 10
449.987
 20
295.008
 11
449.792
 21
294.813
  0
LINE
  8
0
 10
449.792
 20
294.813
 11
449.563
 21
294.659
  0
LINE
  8
0
 10
449.563
 20
294.659
 11
449.308
 21
294.554
  0
LINE
  8
0
 10
449.308
 20
294.554
 11
449.038
 21
294.5
  0
LINE
  8
0
 10
449.038
 20
294.5
 11
448.762
 21
294.5
  0
LINE
  8
0
 10
196.425
 20
277.91
 11
196.425
 21
285.89
  0
LINE
  8
0
 10
196.425
 20
285.89
 11
201.375
 21
285.89
  0
LINE
  8
0
 10
201.375
 20
285.89
 11
201.375
 21
277.91
  0
LINE
  8
0
 10
201.375
 20
277.91
 11
196.425
 21
277.91
  0
LINE
  8
0
 10
321.425
 20
277.91
 11
321.425
 21
285.89
  0
LINE
  8
0
 10
321.425
 20
285.89
 11
326.375
 21
285.89
  0
LINE
  8
0
 10
326.375
 20
285.89
 11
326.375
 21
277.91
  0
LINE
  8
0
 10
326.375
 20
277.91
 11
321.425
 21
277.91
  0
LINE
  8
0
 10
446.425
 20
277.91
 11
446.425
 21
285.89
  0
LINE
  8
0
 10
446.425
 20
285.89
 11
451.375
 21
285.89
  0
LINE
  8
0
 10
451.375
 20
285.89
 11
451.375
 21
277.91
  0
LINE
  8
0
 10
451.375
 20
277.91
 11
446.425
 21
277.91
  0
LINE
  8
0
 10
446.425
 20
219.243
 11
446.425
 21
227.223
  0
LINE
  8
0
 10
446.425
 20
227.223
 11
451.375
 21
227.223
  0
LINE
  8
0
 10
451.375
 20
227.223
 11
451.375
 21
219.243
  0
LINE
  8
0
 10
451.375
 20
219.243
 11
446.425
 21
219.243
  0
LINE
  8
0
 10
196.425
 20
219.243
 11
196.425
 21
227.223
  0
LINE
  8
0
 10
196.425
 20
227.223
 11
201.375
 21
227.223
  0
LINE
  8
0
 10
201.375
 20
227.223
 11
201.375
 21
219.243
  0
LINE
  8
0
 10
201.375
 20
219.243
 11
196.425
 21
219.243
  0
LINE
  8
0
 10
321.425
 20
219.243
 11
321.425
 21
227.223
  0
LINE
  8
0
 10
321.425
 20
227.223
 11
326.375
 21
227.223
  0
LINE
  8
0
 10
326.375
 20
227.223
 11
326.375
 21
219.243
  0
LINE
  8
0
 10
326.375
 20
219.243
 11
321.425
 21
219.243
  0
LINE
  8
0
 10
448.762
 20
207.833
 11
448.492
 21
207.887
  0
LINE
  8
0
 10
448.492
 20
207.887
 11
448.237
 21
207.993
  0
LINE
  8
0
 10
448.237
 20
207.993
 11
448.008
 21
208.146
  0
LINE
  8
0
 10
448.008
 20
208.146
 11
447.813
 21
208.341
  0
LINE
  8
0
 10
447.813
 20
208.341
 11
447.659
 21
208.57
  0
LINE
  8
0
 10
447.659
 20
208.57
 11
447.554
 21
208.825
  0
LINE
  8
0
 10
447.554
 20
208.825
 11
447.5
 21
209.095
  0
LINE
  8
0
 10
447.5
 20
209.095
 11
447.5
 21
209.371
  0
LINE
  8
0
 10
447.5
 20
209.371
 11
447.554
 21
209.642
  0
LINE
  8
0
 10
447.554
 20
209.642
 11
447.659
 21
209.896
  0
LINE
  8
0
 10
447.659
 20
209.896
 11
447.813
 21
210.126
  0
LINE
  8
0
 10
447.813
 20
210.126
 11
448.008
 21
210.321
  0
LINE
  8
0
 10
448.008
 20
210.321
 11
448.237
 21
210.474
  0
LINE
  8
0
 10
448.237
 20
210.474
 11
448.492
 21
210.58
  0
LINE
  8
0
 10
448.492
 20
210.58
 11
448.762
 21
210.633
  0
LINE
  8
0
 10
448.762
 20
210.633
 11
449.038
 21
210.633
  0
LINE
  8
0
 10
449.038
 20
210.633
 11
449.308
 21
210.58
  0
LINE
  8
0
 10
449.308
 20
210.58
 11
449.563
 21
210.474
  0
LINE
  8
0
 10
449.563
 20
210.474
 11
449.792
 21
210.321
  0
LINE
  8
0
 10
449.792
 20
210.321
 11
449.987
 21
210.126
  0
LINE
  8
0
 10
449.987
 20
210.126
 11
450.141
 21
209.896
  0
LINE
  8
0
 10
450.141
 20
209.896
 11
450.246
 21
209.642
  0
LINE
  8
0
 10
450.246
 20
209.642
 11
450.3
 21
209.371
  0
LINE
  8
0
 10
450.3
 20
209.371
 11
450.3
 21
209.095
  0
LINE
  8
0
 10
450.3
 20
209.095
 11
450.246
 21
208.825
  0
LINE
  8
0
 10
450.246
 20
208.825
 11
450.141
 21
208.57
  0
LINE
  8
0
 10
450.141
 20
208.57
 11
449.987
 21
208.341
  0
LINE
  8
0
 10
449.987
 20
208.341
 11
449.792
 21
208.146
  0
LINE
  8
0
 10
449.792
 20
208.146
 11
449.563
 21
207.993
  0
LINE
  8
0
 10
449.563
 20
207.993
 11
449.308
 21
207.887
  0
LINE
  8
0
 10
449.308
 20
207.887
 11
449.038
 21
207.833
  0
LINE
  8
0
 10
449.038
 20
207.833
 11
448.762
 21
207.833
  0
LINE
  8
0
 10
198.762
 20
207.833
 11
198.492
 21
207.887
  0
LINE
  8
0
 10
198.492
 20
207.887
 11
198.237
 21
207.993
  0
LINE
  8
0
 10
198.237
 20
207.993
 11
198.008
 21
208.146
  0
LINE
  8
0
 10
198.008
 20
208.146
 11
197.813
 21
208.341
  0
LINE
  8
0
 10
197.813
 20
208.341
 11
197.659
 21
208.57
  0
LINE
  8
0
 10
197.659
 20
208.57
 11
197.554
 21
208.825
  0
LINE
  8
0
 10
197.554
 20
208.825
 11
197.5
 21
209.095
  0
LINE
  8
0
 10
197.5
 20
209.095
 11
197.5
 21
209.371
  0
LINE
  8
0
 10
197.5
 20
209.371
 11
197.554
 21
209.642
  0
LINE
  8
0
 10
197.554
 20
209.642
 11
197.659
 21
209.896
  0
LINE
  8
0
 10
197.659
 20
209.896
 11
197.813
 21
210.126
  0
LINE
  8
0
 10
197.813
 20
210.126
 11
198.008
 21
210.321
  0
LINE
  8
0
 10
198.008
 20
210.321
 11
198.237
 21
210.474
  0
LINE
  8
0
 10
198.237
 20
210.474
 11
198.492
 21
210.58
  0
LINE
  8
0
 10
198.492
 20
210.58
 11
198.762
 21
210.633
  0
LINE
  8
0
 10
198.762
 20
210.633
 11
199.038
 21
210.633
  0
LINE
  8
0
 10
199.038
 20
210.633
 11
199.308
 21
210.58
  0
LINE
  8
0
 10
199.308
 20
210.58
 11
199.563
 21
210.474
  0
LINE
  8
0
 10
199.563
 20
210.474
 11
199.792
 21
210.321
  0
LINE
  8
0
 10
199.792
 20
210.321
 11
199.987
 21
210.126
  0
LINE
  8
0
 10
199.987
 20
210.126
 11
200.141
 21
209.896
  0
LINE
  8
0
 10
200.141
 20
209.896
 11
200.246
 21
209.642
  0
LINE
  8
0
 10
200.246
 20
209.642
 11
200.3
 21
209.371
  0
LINE
  8
0
 10
200.3
 20
209.371
 11
200.3
 21
209.095
  0
LINE
  8
0
 10
200.3
 20
209.095
 11
200.246
 21
208.825
  0
LINE
  8
0
 10
200.246
 20
208.825
 11
200.141
 21
208.57
  0
LINE
  8
0
 10
200.141
 20
208.57
 11
199.987
 21
208.341
  0
LINE
  8
0
 10
199.987
 20
208.341
 11
199.792
 21
208.146
  0
LINE
  8
0
 10
199.792
 20
208.146
 11
199.563
 21
207.993
  0
LINE
  8
0
 10
199.563
 20
207.993
 11
199.308
 21
207.887
  0
LINE
  8
0
 10
199.308
 20
207.887
 11
199.038
 21
207.833
  0
LINE
  8
0
 10
199.038
 20
207.833
 11
198.762
 21
207.833
  0
LINE
  8
0
 10
323.762
 20
207.833
 11
323.492
 21
207.887
  0
LINE
  8
0
 10
323.492
 20
207.887
 11
323.237
 21
207.993
  0
LINE
  8
0
 10
323.237
 20
207.993
 11
323.008
 21
208.146
  0
LINE
  8
0
 10
323.008
 20
208.146
 11
322.813
 21
208.341
  0
LINE
  8
0
 10
322.813
 20
208.341
 11
322.659
 21
208.57
  0
LINE
  8
0
 10
322.659
 20
208.57
 11
322.554
 21
208.825
  0
LINE
  8
0
 10
322.554
 20
208.825
 11
322.5
 21
209.095
  0
LINE
  8
0
 10
322.5
 20
209.095
 11
322.5
 21
209.371
  0
LINE
  8
0
 10
322.5
 20
209.371
 11
322.554
 21
209.642
  0
LINE
  8
0
 10
322.554
 20
209.642
 11
322.659
 21
209.896
  0
LINE
  8
0
 10
322.659
 20
209.896
 11
322.813
 21
210.126
  0
LINE
  8
0
 10
322.813
 20
210.126
 11
323.008
 21
210.321
  0
LINE
  8
0
 10
323.008
 20
210.321
 11
323.237
 21
210.474
  0
LINE
  8
0
 10
323.237
 20
210.474
 11
323.492
 21
210.579
  0
LINE
  8
0
 10
323.492
 20
210.579
 11
323.762
 21
210.633
  0
LINE
  8
0
 10
323.762
 20
210.633
 11
324.038
 21
210.633
  0
LINE
  8
0
 10
324.038
 20
210.633
 11
324.308
 21
210.579
  0
LINE
  8
0
 10
324.308
 20
210.579
 11
324.563
 21
210.474
  0
LINE
  8
0
 10
324.563
 20
210.474
 11
324.792
 21
210.321
  0
LINE
  8
0
 10
324.792
 20
210.321
 11
324.987
 21
210.126
  0
LINE
  8
0
 10
324.987
 20
210.126
 11
325.141
 21
209.896
  0
LINE
  8
0
 10
325.141
 20
209.896
 11
325.246
 21
209.642
  0
LINE
  8
0
 10
325.246
 20
209.642
 11
325.3
 21
209.371
  0
LINE
  8
0
 10
325.3
 20
209.371
 11
325.3
 21
209.095
  0
LINE
  8
0
 10
325.3
 20
209.095
 11
325.246
 21
208.825
  0
LINE
  8
0
 10
325.246
 20
208.825
 11
325.141
 21
208.57
  0
LINE
  8
0
 10
325.141
 20
208.57
 11
324.987
 21
208.341
  0
LINE
  8
0
 10
324.987
 20
208.341
 11
324.792
 21
208.146
  0
LINE
  8
0
 10
324.792
 20
208.146
 11
324.563
 21
207.993
  0
LINE
  8
0
 10
324.563
 20
207.993
 11
324.308
 21
207.887
  0
LINE
  8
0
 10
324.308
 20
207.887
 11
324.038
 21
207.833
  0
LINE
  8
0
 10
324.038
 20
207.833
 11
323.762
 21
207.833
  0
LINE
  8
0
 10
446.425
 20
191.243
 11
446.425
 21
199.223
  0
LINE
  8
0
 10
446.425
 20
199.223
 11
451.375
 21
199.223
  0
LINE
  8
0
 10
451.375
 20
199.223
 11
451.375
 21
191.243
  0
LINE
  8
0
 10
451.375
 20
191.243
 11
446.425
 21
191.243
  0
LINE
  8
0
 10
196.425
 20
191.243
 11
196.425
 21
199.223
  0
LINE
  8
0
 10
196.425
 20
199.223
 11
201.375
 21
199.223
  0
LINE
  8
0
 10
201.375
 20
199.223
 11
201.375
 21
191.243
  0
LINE
  8
0
 10
201.375
 20
191.243
 11
196.425
 21
191.243
  0
LINE
  8
0
 10
321.425
 20
191.243
 11
321.425
 21
199.223
  0
LINE
  8
0
 10
321.425
 20
199.223
 11
326.375
 21
199.223
  0
LINE
  8
0
 10
326.375
 20
199.223
 11
326.375
 21
191.243
  0
LINE
  8
0
 10
326.375
 20
191.243
 11
321.425
 21
191.243
  0
LINE
  8
0
 10
446.425
 20
132.577
 11
446.425
 21
140.557
  0
LINE
  8
0
 10
446.425
 20
140.557
 11
451.375
 21
140.557
  0
LINE
  8
0
 10
451.375
 20
140.557
 11
451.375
 21
132.577
  0
LINE
  8
0
 10
451.375
 20
132.577
 11
446.425
 21
132.577
  0
LINE
  8
0
 10
196.425
 20
132.577
 11
196.425
 21
140.557
  0
LINE
  8
0
 10
196.425
 20
140.557
 11
201.375
 21
140.557
  0
LINE
  8
0
 10
201.375
 20
140.557
 11
201.375
 21
132.577
  0
LINE
  8
0
 10
201.375
 20
132.577
 11
196.425
 21
132.577
  0
LINE
  8
0
 10
321.425
 20
132.577
 11
321.425
 21
140.557
  0
LINE
  8
0
 10
321.425
 20
140.557
 11
326.375
 21
140.557
  0
LINE
  8
0
 10
326.375
 20
140.557
 11
326.375
 21
132.577
  0
LINE
  8
0
 10
326.375
 20
132.577
 11
321.425
 21
132.577
  0
LINE
  8
0
 10
448.762
 20
121.167
 11
448.492
 21
121.22
  0
LINE
  8
0
 10
448.492
 20
121.22
 11
448.237
 21
121.326
  0
LINE
  8
0
 10
448.237
 20
121.326
 11
448.008
 21
121.479
  0
LINE
  8
0
 10
448.008
 20
121.479
 11
447.813
 21
121.674
  0
LINE
  8
0
 10
447.813
 20
121.674
 11
447.659
 21
121.904
  0
LINE
  8
0
 10
447.659
 20
121.904
 11
447.554
 21
122.158
  0
LINE
  8
0
 10
447.554
 20
122.158
 11
447.5
 21
122.429
  0
LINE
  8
0
 10
447.5
 20
122.429
 11
447.5
 21
122.705
  0
LINE
  8
0
 10
447.5
 20
122.705
 11
447.554
 21
122.975
  0
LINE
  8
0
 10
447.554
 20
122.975
 11
447.659
 21
123.23
  0
LINE
  8
0
 10
447.659
 20
123.23
 11
447.813
 21
123.459
  0
LINE
  8
0
 10
447.813
 20
123.459
 11
448.008
 21
123.654
  0
LINE
  8
0
 10
448.008
 20
123.654
 11
448.237
 21
123.807
  0
LINE
  8
0
 10
448.237
 20
123.807
 11
448.492
 21
123.913
  0
LINE
  8
0
 10
448.492
 20
123.913
 11
448.762
 21
123.967
  0
LINE
  8
0
 10
448.762
 20
123.967
 11
449.038
 21
123.967
  0
LINE
  8
0
 10
449.038
 20
123.967
 11
449.308
 21
123.913
  0
LINE
  8
0
 10
449.308
 20
123.913
 11
449.563
 21
123.807
  0
LINE
  8
0
 10
449.563
 20
123.807
 11
449.792
 21
123.654
  0
LINE
  8
0
 10
449.792
 20
123.654
 11
449.987
 21
123.459
  0
LINE
  8
0
 10
449.987
 20
123.459
 11
450.141
 21
123.23
  0
LINE
  8
0
 10
450.141
 20
123.23
 11
450.246
 21
122.975
  0
LINE
  8
0
 10
450.246
 20
122.975
 11
450.3
 21
122.705
  0
LINE
  8
0
 10
450.3
 20
122.705
 11
450.3
 21
122.429
  0
LINE
  8
0
 10
450.3
 20
122.429
 11
450.246
 21
122.158
  0
LINE
  8
0
 10
450.246
 20
122.158
 11
450.141
 21
121.904
  0
LINE
  8
0
 10
450.141
 20
121.904
 11
449.987
 21
121.674
  0
LINE
  8
0
 10
449.987
 20
121.674
 11
449.792
 21
121.479
  0
LINE
  8
0
 10
449.792
 20
121.479
 11
449.563
 21
121.326
  0
LINE
  8
0
 10
449.563
 20
121.326
 11
449.308
 21
121.22
  0
LINE
  8
0
 10
449.308
 20
121.22
 11
449.038
 21
121.167
  0
LINE
  8
0
 10
449.038
 20
121.167
 11
448.762
 21
121.167
  0
LINE
  8
0
 10
198.762
 20
121.167
 11
198.492
 21
121.22
  0
LINE
  8
0
 10
198.492
 20
121.22
 11
198.237
 21
121.326
  0
LINE
  8
0
 10
198.237
 20
121.326
 11
198.008
 21
121.479
  0
LINE
  8
0
 10
198.008
 20
121.479
 11
197.813
 21
121.674
  0
LINE
  8
0
 10
197.813
 20
121.674
 11
197.659
 21
121.904
  0
LINE
  8
0
 10
197.659
 20
121.904
 11
197.554
 21
122.158
  0
LINE
  8
0
 10
197.554
 20
122.158
 11
197.5
 21
122.429
  0
LINE
  8
0
 10
197.5
 20
122.429
 11
197.5
 21
122.705
  0
LINE
  8
0
 10
197.5
 20
122.705
 11
197.554
 21
122.975
  0
LINE
  8
0
 10
197.554
 20
122.975
 11
197.659
 21
123.23
  0
LINE
  8
0
 10
197.659
 20
123.23
 11
197.813
 21
123.459
  0
LINE
  8
0
 10
197.813
 20
123.459
 11
198.008
 21
123.654
  0
LINE
  8
0
 10
198.008
 20
123.654
 11
198.237
 21
123.807
  0
LINE
  8
0
 10
198.237
 20
123.807
 11
198.492
 21
123.913
  0
LINE
  8
0
 10
198.492
 20
123.913
 11
198.762
 21
123.967
  0
LINE
  8
0
 10
198.762
 20
123.967
 11
199.038
 21
123.967
  0
LINE
  8
0
 10
199.038
 20
123.967
 11
199.308
 21
123.913
  0
LINE
  8
0
 10
199.308
 20
123.913
 11
199.563
 21
123.807
  0
LINE
  8
0
 10
199.563
 20
123.807
 11
199.792
 21
123.654
  0
LINE
  8
0
 10
199.792
 20
123.654
 11
199.987
 21
123.459
  0
LINE
  8
0
 10
199.987
 20
123.459
 11
200.141
 21
123.23
  0
LINE
  8
0
 10
200.141
 20
123.23
 11
200.246
 21
122.975
  0
LINE
  8
0
 10
200.246
 20
122.975
 11
200.3
 21
122.705
  0
LINE
  8
0
 10
200.3
 20
122.705
 11
200.3
 21
122.429
  0
LINE
  8
0
 10
200.3
 20
122.429
 11
200.246
 21
122.158
  0
LINE
  8
0
 10
200.246
 20
122.158
 11
200.141
 21
121.904
  0
LINE
  8
0
 10
200.141
 20
121.904
 11
199.987
 21
121.674
  0
LINE
  8
0
 10
199.987
 20
121.674
 11
199.792
 21
121.479
  0
LINE
  8
0
 10
199.792
 20
121.479
 11
199.563
 21
121.326
  0
LINE
  8
0
 10
199.563
 20
121.326
 11
199.308
 21
121.22
  0
LINE
  8
0
 10
199.308
 20
121.22
 11
199.038
 21
121.167
  0
LINE
  8
0
 10
199.038
 20
121.167
 11
198.762
 21
121.167
  0
LINE
  8
0
 10
323.762
 20
121.167
 11
323.492
 21
121.22
  0
LINE
  8
0
 10
323.492
 20
121.22
 11
323.237
 21
121.326
  0
LINE
  8
0
 10
323.237
 20
121.326
 11
323.008
 21
121.479
  0
LINE
  8
0
 10
323.008
 20
121.479
 11
322.813
 21
121.674
  0
LINE
  8
0
 10
322.813
 20
121.674
 11
322.659
 21
121.903
  0
LINE
  8
0
 10
322.659
 20
121.903
 11
322.554
 21
122.158
  0
LINE
  8
0
 10
322.554
 20
122.158
 11
322.5
 21
122.429
  0
LINE
  8
0
 10
322.5
 20
122.429
 11
322.5
 21
122.705
  0
LINE
  8
0
 10
322.5
 20
122.705
 11
322.554
 21
122.975
  0
LINE
  8
0
 10
322.554
 20
122.975
 11
322.659
 21
123.23
  0
LINE
  8
0
 10
322.659
 20
123.23
 11
322.813
 21
123.459
  0
LINE
  8
0
 10
322.813
 20
123.459
 11
323.008
 21
123.654
  0
LINE
  8
0
 10
323.008
 20
123.654
 11
323.237
 21
123.807
  0
LINE
  8
0
 10
323.237
 20
123.807
 11
323.492
 21
123.913
  0
LINE
  8
0
 10
323.492
 20
123.913
 11
323.762
 21
123.967
  0
LINE
  8
0
 10
323.762
 20
123.967
 11
324.038
 21
123.967
  0
LINE
  8
0
 10
324.038
 20
123.967
 11
324.308
 21
123.913
  0
LINE
  8
0
 10
324.308
 20
123.913
 11
324.563
 21
123.807
  0
LINE
  8
0
 10
324.563
 20
123.807
 11
324.792
 21
123.654
  0
LINE
  8
0
 10
324.792
 20
123.654
 11
324.987
 21
123.459
  0
LINE
  8
0
 10
324.987
 20
123.459
 11
325.141
 21
123.23
  0
LINE
  8
0
 10
325.141
 20
123.23
 11
325.246
 21
122.975
  0
LINE
  8
0
 10
325.246
 20
122.975
 11
325.3
 21
122.705
  0
LINE
  8
0
 10
325.3
 20
122.705
 11
325.3
 21
122.429
  0
LINE
  8
0
 10
325.3
 20
122.429
 11
325.246
 21
122.158
  0
LINE
  8
0
 10
325.246
 20
122.158
 11
325.141
 21
121.903
  0
LINE
  8
0
 10
325.141
 20
121.903
 11
324.987
 21
121.674
  0
LINE
  8
0
 10
324.987
 20
121.674
 11
324.792
 21
121.479
  0
LINE
  8
0
 10
324.792
 20
121.479
 11
324.563
 21
121.326
  0
LINE
  8
0
 10
324.563
 20
121.326
 11
324.308
 21
121.22
  0
LINE
  8
0
 10
324.308
 20
121.22
 11
324.038
 21
121.167
  0
LINE
  8
0
 10
324.038
 20
121.167
 11
323.762
 21
121.167
  0
LINE
  8
0
 10
446.425
 20
104.577
 11
446.425
 21
112.557
  0
LINE
  8
0
 10
446.425
 20
112.557
 11
451.375
 21
112.557
  0
LINE
  8
0
 10
451.375
 20
112.557
 11
451.375
 21
104.577
  0
LINE
  8
0
 10
451.375
 20
104.577
 11
446.425
 21
104.577
  0
LINE
  8
0
 10
196.425
 20
104.577
 11
196.425
 21
112.557
  0
LINE
  8
0
 10
196.425
 20
112.557
 11
201.375
 21
112.557
  0
LINE
  8
0
 10
201.375
 20
112.557
 11
201.375
 21
104.577
  0
LINE
  8
0
 10
201.375
 20
104.577
 11
196.425
 21
104.577
  0
LINE
  8
0
 10
321.425
 20
104.577
 11
321.425
 21
112.557
  0
LINE
  8
0
 10
321.425
 20
112.557
 11
326.375
 21
112.557
  0
LINE
  8
0
 10
326.375
 20
112.557
 11
326.375
 21
104.577
  0
LINE
  8
0
 10
326.375
 20
104.577
 11
321.425
 21
104.577
  0
LINE
  8
0
 10
196.425
 20
45.91
 11
196.425
 21
53.89
  0
LINE
  8
0
 10
196.425
 20
53.89
 11
201.375
 21
53.89
  0
LINE
  8
0
 10
201.375
 20
53.89
 11
201.375
 21
45.91
  0
LINE
  8
0
 10
201.375
 20
45.91
 11
196.425
 21
45.91
  0
LINE
  8
0
 10
446.425
 20
45.91
 11
446.425
 21
53.89
  0
LINE
  8
0
 10
446.425
 20
53.89
 11
451.375
 21
53.89
  0
LINE
  8
0
 10
451.375
 20
53.89
 11
451.375
 21
45.91
  0
LINE
  8
0
 10
451.375
 20
45.91
 11
446.425
 21
45.91
  0
LINE
  8
0
 10
321.425
 20
45.91
 11
321.425
 21
53.89
  0
LINE
  8
0
 10
321.425
 20
53.89
 11
326.375
 21
53.89
  0
LINE
  8
0
 10
326.375
 20
53.89
 11
326.375
 21
45.91
  0
LINE
  8
0
 10
326.375
 20
45.91
 11
321.425
 21
45.91
  0
LINE
  8
0
 10
448.762
 20
34.5
 11
448.492
 21
34.5538
  0
LINE
  8
0
 10
448.492
 20
34.5538
 11
448.237
 21
34.6593
  0
LINE
  8
0
 10
448.237
 20
34.6593
 11
448.008
 21
34.8125
  0
LINE
  8
0
 10
448.008
 20
34.8125
 11
447.813
 21
35.0076
  0
LINE
  8
0
 10
447.813
 20
35.0076
 11
447.659
 21
35.2368
  0
LINE
  8
0
 10
447.659
 20
35.2368
 11
447.554
 21
35.4916
  0
LINE
  8
0
 10
447.554
 20
35.4916
 11
447.5
 21
35.7621
  0
LINE
  8
0
 10
447.5
 20
35.7621
 11
447.5
 21
36.0379
  0
LINE
  8
0
 10
447.5
 20
36.0379
 11
447.554
 21
36.3084
  0
LINE
  8
0
 10
447.554
 20
36.3084
 11
447.659
 21
36.5632
  0
LINE
  8
0
 10
447.659
 20
36.5632
 11
447.813
 21
36.7924
  0
LINE
  8
0
 10
447.813
 20
36.7924
 11
448.008
 21
36.9875
  0
LINE
  8
0
 10
448.008
 20
36.9875
 11
448.237
 21
37.1407
  0
LINE
  8
0
 10
448.237
 20
37.1407
 11
448.492
 21
37.2462
  0
LINE
  8
0
 10
448.492
 20
37.2462
 11
448.762
 21
37.3
  0
LINE
  8
0
 10
448.762
 20
37.3
 11
449.038
 21
37.3
  0
LINE
  8
0
 10
449.038
 20
37.3
 11
449.308
 21
37.2462
  0
LINE
  8
0
 10
449.308
 20
37.2462
 11
449.563
 21
37.1407
  0
LINE
  8
0
 10
449.563
 20
37.1407
 11
449.792
 21
36.9875
  0
LINE
  8
0
 10
449.792
 20
36.9875
 11
449.987
 21
36.7924
  0
LINE
  8
0
 10
449.987
 20
36.7924
 11
450.141
 21
36.5632
  0
LINE
  8
0
 10
450.141
 20
36.5632
 11
450.246
 21
36.3084
  0
LINE
  8
0
 10
450.246
 20
36.3084
 11
450.3
 21
36.0379
  0
LINE
  8
0
 10
450.3
 20
36.0379
 11
450.3
 21
35.7621
  0
LINE
  8
0
 10
450.3
 20
35.7621
 11
450.246
 21
35.4916
  0
LINE
  8
0
 10
450.246
 20
35.4916
 11
450.141
 21
35.2368
  0
LINE
  8
0
 10
450.141
 20
35.2368
 11
449.987
 21
35.0076
  0
LINE
  8
0
 10
449.987
 20
35.0076
 11
449.792
 21
34.8125
  0
LINE
  8
0
 10
449.792
 20
34.8125
 11
449.563
 21
34.6593
  0
LINE
  8
0
 10
449.563
 20
34.6593
 11
449.308
 21
34.5538
  0
LINE
  8
0
 10
449.308
 20
34.5538
 11
449.038
 21
34.5
  0
LINE
  8
0
 10
449.038
 20
34.5
 11
448.762
 21
34.5
  0
LINE
  8
0
 10
198.762
 20
34.5
 11
198.492
 21
34.5538
  0
LINE
  8
0
 10
198.492
 20
34.5538
 11
198.237
 21
34.6593
  0
LINE
  8
0
 10
198.237
 20
34.6593
 11
198.008
 21
34.8125
  0
LINE
  8
0
 10
198.008
 20
34.8125
 11
197.813
 21
35.0075
  0
LINE
  8
0
 10
197.813
 20
35.0075
 11
197.659
 21
35.2368
  0
LINE
  8
0
 10
197.659
 20
35.2368
 11
197.554
 21
35.4916
  0
LINE
  8
0
 10
197.554
 20
35.4916
 11
197.5
 21
35.7621
  0
LINE
  8
0
 10
197.5
 20
35.7621
 11
197.5
 21
36.0379
  0
LINE
  8
0
 10
197.5
 20
36.0379
 11
197.554
 21
36.3083
  0
LINE
  8
0
 10
197.554
 20
36.3083
 11
197.659
 21
36.5631
  0
LINE
  8
0
 10
197.659
 20
36.5631
 11
197.813
 21
36.7924
  0
LINE
  8
0
 10
197.813
 20
36.7924
 11
198.008
 21
36.9874
  0
LINE
  8
0
 10
198.008
 20
36.9874
 11
198.237
 21
37.1407
  0
LINE
  8
0
 10
198.237
 20
37.1407
 11
198.492
 21
37.2462
  0
LINE
  8
0
 10
198.492
 20
37.2462
 11
198.762
 21
37.3
  0
LINE
  8
0
 10
198.762
 20
37.3
 11
199.038
 21
37.3
  0
LINE
  8
0
 10
199.038
 20
37.3
 11
199.308
 21
37.2462
  0
LINE
  8
0
 10
199.308
 20
37.2462
 11
199.563
 21
37.1407
  0
LINE
  8
0
 10
199.563
 20
37.1407
 11
199.792
 21
36.9874
  0
LINE
  8
0
 10
199.792
 20
36.9874
 11
199.987
 21
36.7924
  0
LINE
  8
0
 10
199.987
 20
36.7924
 11
200.141
 21
36.5631
  0
LINE
  8
0
 10
200.141
 20
36.5631
 11
200.246
 21
36.3083
  0
LINE
  8
0
 10
200.246
 20
36.3083
 11
200.3
 21
36.0379
  0
LINE
  8
0
 10
200.3
 20
36.0379
 11
200.3
 21
35.7621
  0
LINE
  8
0
 10
200.3
 20
35.7621
 11
200.246
 21
35.4916
  0
LINE
  8
0
 10
200.246
 20
35.4916
 11
200.141
 21
35.2368
  0
LINE
  8
0
 10
200.141
 20
35.2368
 11
199.987
 21
35.0075
  0
LINE
  8
0
 10
199.987
 20
35.0075
 11
199.792
 21
34.8125
  0
LINE
  8
0
 10
199.792
 20
34.8125
 11
199.563
 21
34.6593
  0
LINE
  8
0
 10
199.563
 20
34.6593
 11
199.308
 21
34.5538
  0
LINE
  8
0
 10
199.308
 20
34.5538
 11
199.038
 21
34.5
  0
LINE
  8
0
 10
199.038
 20
34.5
 11
198.762
 21
34.5
  0
LINE
  8
0
 10
323.762
 20
34.5
 11
323.492
 21
34.5538
  0
LINE
  8
0
 10
323.492
 20
34.5538
 11
323.237
 21
34.6593
  0
LINE
  8
0
 10
323.237
 20
34.6593
 11
323.008
 21
34.8125
  0
LINE
  8
0
 10
323.008
 20
34.8125
 11
322.813
 21
35.0075
  0
LINE
  8
0
 10
322.813
 20
35.0075
 11
322.659
 21
35.2368
  0
LINE
  8
0
 10
322.659
 20
35.2368
 11
322.554
 21
35.4916
  0
LINE
  8
0
 10
322.554
 20
35.4916
 11
322.5
 21
35.7621
  0
LINE
  8
0
 10
322.5
 20
35.7621
 11
322.5
 21
36.0379
  0
LINE
  8
0
 10
322.5
 20
36.0379
 11
322.554
 21
36.3083
  0
LINE
  8
0
 10
322.554
 20
36.3083
 11
322.659
 21
36.5631
  0
LINE
  8
0
 10
322.659
 20
36.5631
 11
322.813
 21
36.7924
  0
LINE
  8
0
 10
322.813
 20
36.7924
 11
323.008
 21
36.9874
  0
LINE
  8
0
 10
323.008
 20
36.9874
 11
323.237
 21
37.1407
  0
LINE
  8
0
 10
323.237
 20
37.1407
 11
323.492
 21
37.2462
  0
LINE
  8
0
 10
323.492
 20
37.2462
 11
323.762
 21
37.3
  0
LINE
  8
0
 10
323.762
 20
37.3
 11
324.038
 21
37.3
  0
LINE
  8
0
 10
324.038
 20
37.3
 11
324.308
 21
37.2462
  0
LINE
  8
0
 10
324.308
 20
37.2462
 11
324.563
 21
37.1407
  0
LINE
  8
0
 10
324.563
 20
37.1407
 11
324.792
 21
36.9874
  0
LINE
  8
0
 10
324.792
 20
36.9874
 11
324.987
 21
36.7924
  0
LINE
  8
0
 10
324.987
 20
36.7924
 11
325.141
 21
36.5631
  0
LINE
  8
0
 10
325.141
 20
36.5631
 11
325.246
 21
36.3083
  0
LINE
  8
0
 10
325.246
 20
36.3083
 11
325.3
 21
36.0379
  0
LINE
  8
0
 10
325.3
 20
36.0379
 11
325.3
 21
35.7621
  0
LINE
  8
0
 10
325.3
 20
35.7621
 11
325.246
 21
35.4916
  0
LINE
  8
0
 10
325.246
 20
35.4916
 11
325.141
 21
35.2368
  0
LINE
  8
0
 10
325.141
 20
35.2368
 11
324.987
 21
35.0075
  0
LINE
  8
0
 10
324.987
 20
35.0075
 11
324.792
 21
34.8125
  0
LINE
  8
0
 10
324.792
 20
34.8125
 11
324.563
 21
34.6593
  0
LINE
  8
0
 10
324.563
 20
34.6593
 11
324.308
 21
34.5538
  0
LINE
  8
0
 10
324.308
 20
34.5538
 11
324.038
 21
34.5
  0
LINE
  8
0
 10
324.038
 20
34.5
 11
323.762
 21
34.5
  0
LINE
  8
0
 10
446.425
 20
17.91
 11
446.425
 21
25.89
  0
LINE
  8
0
 10
446.425
 20
25.89
 11
451.375
 21
25.89
  0
LINE
  8
0
 10
451.375
 20
25.89
 11
451.375
 21
17.91
  0
LINE
  8
0
 10
451.375
 20
17.91
 11
446.425
 21
17.91
  0
LINE
  8
0
 10
196.425
 20
17.91
 11
196.425
 21
25.89
  0
LINE
  8
0
 10
196.425
 20
25.89
 11
201.375
 21
25.89
  0
LINE
  8
0
 10
201.375
 20
25.89
 11
201.375
 21
17.91
  0
LINE
  8
0
 10
201.375
 20
17.91
 11
196.425
 21
17.91
  0
LINE
  8
0
 10
321.425
 20
17.91
 11
321.425
 21
25.89
  0
LINE
  8
0
 10
321.425
 20
25.89
 11
326.375
 21
25.89
  0
LINE
  8
0
 10
326.375
 20
25.89
 11
326.375
 21
17.91
  0
LINE
  8
0
 10
326.375
 20
17.91
 11
321.425
 21
17.91
  0
LINE
  8
0
 10
488.24
 20
9.89999
 11
496.86
 21
9.89999
  0
LINE
  8
0
 10
496.86
 20
9.89999
 11
496.86
 21
13.09
  0
LINE
  8
0
 10
496.86
 20
13.09
 11
495.51
 21
13.09
  0
LINE
  8
0
 10
495.51
 20
13.09
 11
495.51
 21
15.08
  0
LINE
  8
0
 10
495.51
 20
15.08
 11
496.86
 21
15.08
  0
LINE
  8
0
 10
496.86
 20
15.08
 11
496.86
 21
16.75
  0
LINE
  8
0
 10
496.86
 20
16.75
 11
499.64
 21
16.75
  0
LINE
  8
0
 10
499.64
 20
16.75
 11
499.64
 21
15.08
  0
LINE
  8
0
 10
499.64
 20
15.08
 11
500.99
 21
15.08
  0
LINE
  8
0
 10
500.99
 20
15.08
 11
500.99
 21
13.09
  0
LINE
  8
0
 10
500.99
 20
13.09
 11
499.64
 21
13.09
  0
LINE
  8
0
 10
499.64
 20
13.09
 11
499.64
 21
9.89999
  0
LINE
  8
0
 10
499.64
 20
9.89999
 11
508.26
 21
9.89999
  0
LINE
  8
0
 10
508.26
 20
9.89999
 11
508.26
 21
4.97501
  0
LINE
  8
0
 10
508.26
 20
4.97501
 11
516.24
 21
4.97501
  0
LINE
  8
0
 10
516.24
 20
4.97501
 11
516.24
 21
9.89999
  0
LINE
  8
0
 10
516.24
 20
9.89999
 11
528.25
 21
9.89999
  0
LINE
  8
0
 10
528.25
 20
9.89999
 11
528.25
 21
321.9
  0
LINE
  8
0
 10
528.25
 20
321.9
 11
516.24
 21
321.9
  0
LINE
  8
0
 10
516.24
 20
321.9
 11
516.24
 21
326.825
  0
LINE
  8
0
 10
516.24
 20
326.825
 11
508.26
 21
326.825
  0
LINE
  8
0
 10
508.26
 20
326.825
 11
508.26
 21
321.9
  0
LINE
  8
0
 10
508.26
 20
321.9
 11
499.64
 21
321.9
  0
LINE
  8
0
 10
499.64
 20
321.9
 11
499.64
 21
318.71
  0
LINE
  8
0
 10
499.64
 20
318.71
 11
500.99
 21
318.71
  0
LINE
  8
0
 10
500.99
 20
318.71
 11
500.99
 21
316.72
  0
LINE
  8
0
 10
500.99
 20
316.72
 11
499.64
 21
316.72
  0
LINE
  8
0
 10
499.64
 20
316.72
 11
499.64
 21
315.05
  0
LINE
  8
0
 10
499.64
 20
315.05
 11
496.86
 21
315.05
  0
LINE
  8
0
 10
496.86
 20
315.05
 11
496.86
 21
316.72
  0
LINE
  8
0
 10
496.86
 20
316.72
 11
495.51
 21
316.72
  0
LINE
  8
0
 10
495.51
 20
316.72
 11
495.51
 21
318.71
  0
LINE
  8
0
 10
495.51
 20
318.71
 11
496.86
 21
318.71
  0
LINE
  8
0
 10
496.86
 20
318.71
 11
496.86
 21
321.9
  0
LINE
  8
0
 10
496.86
 20
321.9
 11
488.24
 21
321.9
  0
LINE
  8
0
 10
488.24
 20
321.9
 11
488.24
 21
326.825
  0
LINE
  8
0
 10
488.24
 20
326.825
 11
480.26
 21
326.825
  0
LINE
  8
0
 10
480.26
 20
326.825
 11
480.26
 21
321.9
  0
LINE
  8
0
 10
480.26
 20
321.9
 11
468.25
 21
321.9
  0
LINE
  8
0
 10
468.25
 20
321.9
 11
468.25
 21
313.89
  0
LINE
  8
0
 10
468.25
 20
313.89
 11
463.325
 21
313.89
  0
LINE
  8
0
 10
463.325
 20
313.89
 11
463.325
 21
305.91
  0
LINE
  8
0
 10
463.325
 20
305.91
 11
468.25
 21
305.91
  0
LINE
  8
0
 10
468.25
 20
305.91
 11
468.25
 21
297.29
  0
LINE
  8
0
 10
468.25
 20
297.29
 11
471.44
 21
297.29
  0
LINE
  8
0
 10
471.44
 20
297.29
 11
471.44
 21
298.64
  0
LINE
  8
0
 10
471.44
 20
298.64
 11
473.43
 21
298.64
  0
LINE
  8
0
 10
473.43
 20
298.64
 11
473.43
 21
297.29
  0
LINE
  8
0
 10
473.43
 20
297.29
 11
475.1
 21
297.29
  0
LINE
  8
0
 10
475.1
 20
297.29
 11
475.1
 21
294.51
  0
LINE
  8
0
 10
475.1
 20
294.51
 11
473.43
 21
294.51
  0
LINE
  8
0
 10
473.43
 20
294.51
 11
473.43
 21
293.16
  0
LINE
  8
0
 10
473.43
 20
293.16
 11
471.44
 21
293.16
  0
LINE
  8
0
 10
471.44
 20
293.16
 11
471.44
 21
294.51
  0
LINE
  8
0
 10
471.44
 20
294.51
 11
468.25
 21
294.51
  0
LINE
  8
0
 10
468.25
 20
294.51
 11
468.25
 21
285.89
  0
LINE
  8
0
 10
468.25
 20
285.89
 11
463.325
 21
285.89
  0
LINE
  8
0
 10
463.325
 20
285.89
 11
463.325
 21
277.91
  0
LINE
  8
0
 10
463.325
 20
277.91
 11
468.25
 21
277.91
  0
LINE
  8
0
 10
468.25
 20
277.91
 11
468.25
 21
227.223
  0
LINE
  8
0
 10
468.25
 20
227.223
 11
463.325
 21
227.223
  0
LINE
  8
0
 10
463.325
 20
227.223
 11
463.325
 21
219.243
  0
LINE
  8
0
 10
463.325
 20
219.243
 11
468.25
 21
219.243
  0
LINE
  8
0
 10
468.25
 20
219.243
 11
468.25
 21
210.623
  0
LINE
  8
0
 10
468.25
 20
210.623
 11
471.44
 21
210.623
  0
LINE
  8
0
 10
471.44
 20
210.623
 11
471.44
 21
211.973
  0
LINE
  8
0
 10
471.44
 20
211.973
 11
473.43
 21
211.973
  0
LINE
  8
0
 10
473.43
 20
211.973
 11
473.43
 21
210.623
  0
LINE
  8
0
 10
473.43
 20
210.623
 11
475.1
 21
210.623
  0
LINE
  8
0
 10
475.1
 20
210.623
 11
475.1
 21
207.843
  0
LINE
  8
0
 10
475.1
 20
207.843
 11
473.43
 21
207.843
  0
LINE
  8
0
 10
473.43
 20
207.843
 11
473.43
 21
206.493
  0
LINE
  8
0
 10
473.43
 20
206.493
 11
471.44
 21
206.493
  0
LINE
  8
0
 10
471.44
 20
206.493
 11
471.44
 21
207.843
  0
LINE
  8
0
 10
471.44
 20
207.843
 11
468.25
 21
207.843
  0
LINE
  8
0
 10
468.25
 20
207.843
 11
468.25
 21
199.223
  0
LINE
  8
0
 10
468.25
 20
199.223
 11
463.325
 21
199.223
  0
LINE
  8
0
 10
463.325
 20
199.223
 11
463.325
 21
191.243
  0
LINE
  8
0
 10
463.325
 20
191.243
 11
468.25
 21
191.243
  0
LINE
  8
0
 10
468.25
 20
191.243
 11
468.25
 21
140.557
  0
LINE
  8
0
 10
468.25
 20
140.557
 11
463.325
 21
140.557
  0
LINE
  8
0
 10
463.325
 20
140.557
 11
463.325
 21
132.577
  0
LINE
  8
0
 10
463.325
 20
132.577
 11
468.25
 21
132.577
  0
LINE
  8
0
 10
468.25
 20
132.577
 11
468.25
 21
123.957
  0
LINE
  8
0
 10
468.25
 20
123.957
 11
471.44
 21
123.957
  0
LINE
  8
0
 10
471.44
 20
123.957
 11
471.44
 21
125.307
  0
LINE
  8
0
 10
471.44
 20
125.307
 11
473.43
 21
125.307
  0
LINE
  8
0
 10
473.43
 20
125.307
 11
473.43
 21
123.957
  0
LINE
  8
0
 10
473.43
 20
123.957
 11
475.1
 21
123.957
  0
LINE
  8
0
 10
475.1
 20
123.957
 11
475.1
 21
121.177
  0
LINE
  8
0
 10
475.1
 20
121.177
 11
473.43
 21
121.177
  0
LINE
  8
0
 10
473.43
 20
121.177
 11
473.43
 21
119.827
  0
LINE
  8
0
 10
473.43
 20
119.827
 11
471.44
 21
119.827
  0
LINE
  8
0
 10
471.44
 20
119.827
 11
471.44
 21
121.177
  0
LINE
  8
0
 10
471.44
 20
121.177
 11
468.25
 21
121.177
  0
LINE
  8
0
 10
468.25
 20
121.177
 11
468.25
 21
112.557
  0
LINE
  8
0
 10
468.25
 20
112.557
 11
463.325
 21
112.557
  0
LINE
  8
0
 10
463.325
 20
112.557
 11
463.325
 21
104.577
  0
LINE
  8
0
 10
463.325
 20
104.577
 11
468.25
 21
104.577
  0
LINE
  8
0
 10
468.25
 20
104.577
 11
468.25
 21
53.89
  0
LINE
  8
0
 10
468.25
 20
53.89
 11
463.325
 21
53.89
  0
LINE
  8
0
 10
463.325
 20
53.89
 11
463.325
 21
45.91
  0
LINE
  8
0
 10
463.325
 20
45.91
 11
468.25
 21
45.91
  0
LINE
  8
0
 10
468.25
 20
45.91
 11
468.25
 21
37.29
  0
LINE
  8
0
 10
468.25
 20
37.29
 11
471.44
 21
37.29
  0
LINE
  8
0
 10
471.44
 20
37.29
 11
471.44
 21
38.64
  0
LINE
  8
0
 10
471.44
 20
38.64
 11
473.43
 21
38.64
  0
LINE
  8
0
 10
473.43
 20
38.64
 11
473.43
 21
37.29
  0
LINE
  8
0
 10
473.43
 20
37.29
 11
475.1
 21
37.29
  0
LINE
  8
0
 10
475.1
 20
37.29
 11
475.1
 21
34.51
  0
LINE
  8
0
 10
475.1
 20
34.51
 11
473.43
 21
34.51
  0
LINE
  8
0
 10
473.43
 20
34.51
 11
473.43
 21
33.16
  0
LINE
  8
0
 10
473.43
 20
33.16
 11
471.44
 21
33.16
  0
LINE
  8
0
 10
471.44
 20
33.16
 11
471.44
 21
34.51
  0
LINE
  8
0
 10
471.44
 20
34.51
 11
468.25
 21
34.51
  0
LINE
  8
0
 10
468.25
 20
34.51
 11
468.25
 21
25.89
  0
LINE
  8
0
 10
468.25
 20
25.89
 11
463.325
 21
25.89
  0
LINE
  8
0
 10
463.325
 20
25.89
 11
463.325
 21
17.91
  0
LINE
  8
0
 10
463.325
 20
17.91
 11
468.25
 21
17.91
  0
LINE
  8
0
 10
468.25
 20
17.91
 11
468.25
 21
9.89999
  0
LINE
  8
0
 10
468.25
 20
9.89999
 11
480.26
 21
9.89999
  0
LINE
  8
0
 10
480.26
 20
9.89999
 11
480.26
 21
4.97501
  0
LINE
  8
0
 10
480.26
 20
4.97501
 11
488.24
 21
4.97501
  0
LINE
  8
0
 10
488.24
 20
4.97501
 11
488.24
 21
9.89999
  0
LINE
  8
0
 10
26.89
 20
9.89999
 11
35.51
 21
9.89999
  0
LINE
  8
0
 10
35.51
 20
9.89999
 11
35.51
 21
13.09
  0
LINE
  8
0
 10
35.51
 20
13.09
 11
34.16
 21
13.09
  0
LINE
  8
0
 10
34.16
 20
13.09
 11
34.16
 21
15.08
  0
LINE
  8
0
 10
34.16
 20
15.08
 11
35.51
 21
15.08
  0
LINE
  8
0
 10
35.51
 20
15.08
 11
35.51
 21
16.75
  0
LINE
  8
0
 10
35.51
 20
16.75
 11
38.29
 21
16.75
  0
LINE
  8
0
 10
38.29
 20
16.75
 11
38.29
 21
15.08
  0
LINE
  8
0
 10
38.29
 20
15.08
 11
39.64
 21
15.08
  0
LINE
  8
0
 10
39.64
 20
15.08
 11
39.64
 21
13.09
  0
LINE
  8
0
 10
39.64
 20
13.09
 11
38.29
 21
13.09
  0
LINE
  8
0
 10
38.29
 20
13.09
 11
38.29
 21
9.89999
  0
LINE
  8
0
 10
38.29
 20
9.89999
 11
46.91
 21
9.89999
  0
LINE
  8
0
 10
46.91
 20
9.89999
 11
46.91
 21
4.97501
  0
LINE
  8
0
 10
46.91
 20
4.97501
 11
54.89
 21
4.97501
  0
LINE
  8
0
 10
54.89
 20
4.97501
 11
54.89
 21
9.89999
  0
LINE
  8
0
 10
54.89
 20
9.89999
 11
66.9
 21
9.89999
  0
LINE
  8
0
 10
66.9
 20
9.89999
 11
66.9
 21
321.9
  0
LINE
  8
0
 10
66.9
 20
321.9
 11
54.89
 21
321.9
  0
LINE
  8
0
 10
54.89
 20
321.9
 11
54.89
 21
326.825
  0
LINE
  8
0
 10
54.89
 20
326.825
 11
46.91
 21
326.825
  0
LINE
  8
0
 10
46.91
 20
326.825
 11
46.91
 21
321.9
  0
LINE
  8
0
 10
46.91
 20
321.9
 11
38.29
 21
321.9
  0
LINE
  8
0
 10
38.29
 20
321.9
 11
38.29
 21
318.71
  0
LINE
  8
0
 10
38.29
 20
318.71
 11
39.64
 21
318.71
  0
LINE
  8
0
 10
39.64
 20
318.71
 11
39.64
 21
316.72
  0
LINE
  8
0
 10
39.64
 20
316.72
 11
38.29
 21
316.72
  0
LINE
  8
0
 10
38.29
 20
316.72
 11
38.29
 21
315.05
  0
LINE
  8
0
 10
38.29
 20
315.05
 11
35.51
 21
315.05
  0
LINE
  8
0
 10
35.51
 20
315.05
 11
35.51
 21
316.72
  0
LINE
  8
0
 10
35.51
 20
316.72
 11
34.16
 21
316.72
  0
LINE
  8
0
 10
34.16
 20
316.72
 11
34.16
 21
318.71
  0
LINE
  8
0
 10
34.16
 20
318.71
 11
35.51
 21
318.71
  0
LINE
  8
0
 10
35.51
 20
318.71
 11
35.51
 21
321.9
  0
LINE
  8
0
 10
35.51
 20
321.9
 11
26.89
 21
321.9
  0
LINE
  8
0
 10
26.89
 20
321.9
 11
26.89
 21
326.825
  0
LINE
  8
0
 10
26.89
 20
326.825
 11
18.91
 21
326.825
  0
LINE
  8
0
 10
18.91
 20
326.825
 11
18.91
 21
321.9
  0
LINE
  8
0
 10
18.91
 20
321.9
 11
6.89999
 21
321.9
  0
LINE
  8
0
 10
6.89999
 20
321.9
 11
6.89999
 21
313.89
  0
LINE
  8
0
 10
6.89999
 20
313.89
 11
1.97501
 21
313.89
  0
LINE
  8
0
 10
1.97501
 20
313.89
 11
1.97501
 21
305.91
  0
LINE
  8
0
 10
1.97501
 20
305.91
 11
6.89999
 21
305.91
  0
LINE
  8
0
 10
6.89999
 20
305.91
 11
6.89999
 21
297.29
  0
LINE
  8
0
 10
6.89999
 20
297.29
 11
10.09
 21
297.29
  0
LINE
  8
0
 10
10.09
 20
297.29
 11
10.09
 21
298.64
  0
LINE
  8
0
 10
10.09
 20
298.64
 11
12.08
 21
298.64
  0
LINE
  8
0
 10
12.08
 20
298.64
 11
12.08
 21
297.29
  0
LINE
  8
0
 10
12.08
 20
297.29
 11
13.75
 21
297.29
  0
LINE
  8
0
 10
13.75
 20
297.29
 11
13.75
 21
294.51
  0
LINE
  8
0
 10
13.75
 20
294.51
 11
12.08
 21
294.51
  0
LINE
  8
0
 10
12.08
 20
294.51
 11
12.08
 21
293.16
  0
LINE
  8
0
 10
12.08
 20
293.16
 11
10.09
 21
293.16
  0
LINE
  8
0
 10
10.09
 20
293.16
 11
10.09
 21
294.51
  0
LINE
  8
0
 10
10.09
 20
294.51
 11
6.89999
 21
294.51
  0
LINE
  8
0
 10
6.89999
 20
294.51
 11
6.89999
 21
285.89
  0
LINE
  8
0
 10
6.89999
 20
285.89
 11
1.97501
 21
285.89
  0
LINE
  8
0
 10
1.97501
 20
285.89
 11
1.97501
 21
277.91
  0
LINE
  8
0
 10
1.97501
 20
277.91
 11
6.89999
 21
277.91
  0
LINE
  8
0
 10
6.89999
 20
277.91
 11
6.89999
 21
227.223
  0
LINE
  8
0
 10
6.89999
 20
227.223
 11
1.97501
 21
227.223
  0
LINE
  8
0
 10
1.97501
 20
227.223
 11
1.97501
 21
219.243
  0
LINE
  8
0
 10
1.97501
 20
219.243
 11
6.89999
 21
219.243
  0
LINE
  8
0
 10
6.89999
 20
219.243
 11
6.89999
 21
210.623
  0
LINE
  8
0
 10
6.89999
 20
210.623
 11
10.09
 21
210.623
  0
LINE
  8
0
 10
10.09
 20
210.623
 11
10.09
 21
211.973
  0
LINE
  8
0
 10
10.09
 20
211.973
 11
12.08
 21
211.973
  0
LINE
  8
0
 10
12.08
 20
211.973
 11
12.08
 21
210.623
  0
LINE
  8
0
 10
12.08
 20
210.623
 11
13.75
 21
210.623
  0
LINE
  8
0
 10
13.75
 20
210.623
 11
13.75
 21
207.843
  0
LINE
  8
0
 10
13.75
 20
207.843
 11
12.08
 21
207.843
  0
LINE
  8
0
 10
12.08
 20
207.843
 11
12.08
 21
206.493
  0
LINE
  8
0
 10
12.08
 20
206.493
 11
10.09
 21
206.493
  0
LINE
  8
0
 10
10.09
 20
206.493
 11
10.09
 21
207.843
  0
LINE
  8
0
 10
10.09
 20
207.843
 11
6.89999
 21
207.843
  0
LINE
  8
0
 10
6.89999
 20
207.843
 11
6.89999
 21
199.223
  0
LINE
  8
0
 10
6.89999
 20
199.223
 11
1.97501
 21
199.223
  0
LINE
  8
0
 10
1.97501
 20
199.223
 11
1.97501
 21
191.243
  0
LINE
  8
0
 10
1.97501
 20
191.243
 11
6.89999
 21
191.243
  0
LINE
  8
0
 10
6.89999
 20
191.243
 11
6.89999
 21
140.557
  0
LINE
  8
0
 10
6.89999
 20
140.557
 11
1.97501
 21
140.557
  0
LINE
  8
0
 10
1.97501
 20
140.557
 11
1.97501
 21
132.577
  0
LINE
  8
0
 10
1.97501
 20
132.577
 11
6.89999
 21
132.577
  0
LINE
  8
0
 10
6.89999
 20
132.577
 11
6.89999
 21
123.957
  0
LINE
  8
0
 10
6.89999
 20
123.957
 11
10.09
 21
123.957
  0
LINE
  8
0
 10
10.09
 20
123.957
 11
10.09
 21
125.307
  0
LINE
  8
0
 10
10.09
 20
125.307
 11
12.08
 21
125.307
  0
LINE
  8
0
 10
12.08
 20
125.307
 11
12.08
 21
123.957
  0
LINE
  8
0
 10
12.08
 20
123.957
 11
13.75
 21
123.957
  0
LINE
  8
0
 10
13.75
 20
123.957
 11
13.75
 21
121.177
  0
LINE
  8
0
 10
13.75
 20
121.177
 11
12.08
 21
121.177
  0
LINE
  8
0
 10
12.08
 20
121.177
 11
12.08
 21
119.827
  0
LINE
  8
0
 10
12.08
 20
119.827
 11
10.09
 21
119.827
  0
LINE
  8
0
 10
10.09
 20
119.827
 11
10.09
 21
121.177
  0
LINE
  8
0
 10
10.09
 20
121.177
 11
6.89999
 21
121.177
  0
LINE
  8
0
 10
6.89999
 20
121.177
 11
6.89999
 21
112.557
  0
LINE
  8
0
 10
6.89999
 20
112.557
 11
1.97501
 21
112.557
  0
LINE
  8
0
 10
1.97501
 20
112.557
 11
1.97501
 21
104.577
  0
LINE
  8
0
 10
1.97501
 20
104.577
 11
6.89999
 21
104.577
  0
LINE
  8
0
 10
6.89999
 20
104.577
 11
6.89999
 21
53.89
  0
LINE
  8
0
 10
6.89999
 20
53.89
 11
1.97501
 21
53.89
  0
LINE
  8
0
 10
1.97501
 20
53.89
 11
1.97501
 21
45.91
  0
LINE
  8
0
 10
1.97501
 20
45.91
 11
6.89999
 21
45.91
  0
LINE
  8
0
 10
6.89999
 20
45.91
 11
6.89999
 21
37.29
  0
LINE
  8
0
 10
6.89999
 20
37.29
 11
10.09
 21
37.29
  0
LINE
  8
0
 10
10.09
 20
37.29
 11
10.09
 21
38.64
  0
LINE
  8
0
 10
10.09
 20
38.64
 11
12.08
 21
38.64
  0
LINE
  8
0
 10
12.08
 20
38.64
 11
12.08
 21
37.29
  0
LINE
  8
0
 10
12.08
 20
37.29
 11
13.75
 21
37.29
  0
LINE
  8
0
 10
13.75
 20
37.29
 11
13.75
 21
34.51
  0
LINE
  8
0
 10
13.75
 20
34.51
 11
12.08
 21
34.51
  0
LINE
  8
0
 10
12.08
 20
34.51
 11
12.08
 21
33.16
  0
LINE
  8
0
 10
12.08
 20
33.16
 11
10.09
 21
33.16
  0
LINE
  8
0
 10
10.09
 20
33.16
 11
10.09
 21
34.51
  0
LINE
  8
0
 10
10.09
 20
34.51
 11
6.89999
 21
34.51
  0
LINE
  8
0
 10
6.89999
 20
34.51
 11
6.89999
 21
25.89
  0
LINE
  8
0
 10
6.89999
 20
25.89
 11
1.97501
 21
25.89
  0
LINE
  8
0
 10
1.97501
 20
25.89
 11
1.97501
 21
17.91
  0
LINE
  8
0
 10
1.97501
 20
17.91
 11
6.89999
 21
17.91
  0
LINE
  8
0
 10
6.89999
 20
17.91
 11
6.89999
 21
9.89999
  0
LINE
  8
0
 10
6.89999
 20
9.89999
 11
18.91
 21
9.89999
  0
LINE
  8
0
 10
18.91
 20
9.89999
 11
18.91
 21
4.97501
  0
LINE
  8
0
 10
18.91
 20
4.97501
 11
26.89
 21
4.97501
  0
LINE
  8
0
 10
26.89
 20
4.97501
 11
26.89
 21
9.89999
  0
ENDSEC
  0
SECTION
  2
OBJECTS
  0
DICTIONARY
  0
ENDSEC
  0
EOF
