solid OpenSCAD_Model
  facet normal -0.923879 -0.382684 0
    outer loop
      vertex 3.7 0.964725 2
      vertex 2.96163 2.7473 3.6
      vertex 2.96163 2.7473 2
    endloop
  endfacet
  facet normal -0.923879 -0.382684 0
    outer loop
      vertex 2.96163 2.7473 3.6
      vertex 3.7 0.964725 2
      vertex 3.7 0.964725 3.6
    endloop
  endfacet
  facet normal 0 0 1
    outer loop
      vertex 0.461275 5.58166 2
      vertex 0.5 4.56615 2
      vertex 0.5 5.57785 2
    endloop
  endfacet
  facet normal 0 0 1
    outer loop
      vertex 0.5 4.56615 2
      vertex -3.01211 3.9371 2
      vertex 0.5 -4.56615 2
    endloop
  endfacet
  facet normal 0 0 1
    outer loop
      vertex 0.5 4.56615 2
      vertex 0.461275 5.58166 2
      vertex -3.01211 3.9371 2
    endloop
  endfacet
  facet normal -0 0 1
    outer loop
      vertex -3.01211 -3.9371 2
      vertex 0.5 -4.56615 2
      vertex -3.01211 3.9371 2
    endloop
  endfacet
  facet normal 0 -0 1
    outer loop
      vertex 0.461275 -5.58166 2
      vertex 0.5 -4.56615 2
      vertex -3.01211 -3.9371 2
    endloop
  endfacet
  facet normal 0 0 1
    outer loop
      vertex 0.5 -4.56615 2
      vertex 0.461275 -5.58166 2
      vertex 0.5 -5.57785 2
    endloop
  endfacet
  facet normal -0 0 1
    outer loop
      vertex -3.38904 3.73562 2
      vertex -3.01211 -3.9371 2
      vertex -3.01211 3.9371 2
    endloop
  endfacet
  facet normal 0 0 1
    outer loop
      vertex -3.38904 3.73562 2
      vertex -3.38904 -3.73562 2
      vertex -3.01211 -3.9371 2
    endloop
  endfacet
  facet normal -0 0 1
    outer loop
      vertex -3.74442 3.49817 2
      vertex -3.38904 -3.73562 2
      vertex -3.38904 3.73562 2
    endloop
  endfacet
  facet normal 0 0 1
    outer loop
      vertex -3.74442 3.49817 2
      vertex -3.74442 -3.49817 2
      vertex -3.38904 -3.73562 2
    endloop
  endfacet
  facet normal -0 0 1
    outer loop
      vertex -4.0748 3.22702 2
      vertex -3.74442 -3.49817 2
      vertex -3.74442 3.49817 2
    endloop
  endfacet
  facet normal 0 0 1
    outer loop
      vertex -4.0748 3.22702 2
      vertex -4.0748 -3.22702 2
      vertex -3.74442 -3.49817 2
    endloop
  endfacet
  facet normal -0 0 1
    outer loop
      vertex -4.37702 2.9248 2
      vertex -4.0748 -3.22702 2
      vertex -4.0748 3.22702 2
    endloop
  endfacet
  facet normal 0 0 1
    outer loop
      vertex -4.37702 2.9248 2
      vertex -4.37702 -2.9248 2
      vertex -4.0748 -3.22702 2
    endloop
  endfacet
  facet normal -0 0 1
    outer loop
      vertex -4.64817 2.59442 2
      vertex -4.37702 -2.9248 2
      vertex -4.37702 2.9248 2
    endloop
  endfacet
  facet normal 0 0 1
    outer loop
      vertex -4.64817 2.59442 2
      vertex -4.64817 -2.59442 2
      vertex -4.37702 -2.9248 2
    endloop
  endfacet
  facet normal -0 0 1
    outer loop
      vertex -4.88562 2.23904 2
      vertex -4.64817 -2.59442 2
      vertex -4.64817 2.59442 2
    endloop
  endfacet
  facet normal 0 0 1
    outer loop
      vertex -4.88562 2.23904 2
      vertex -4.88562 -2.23904 2
      vertex -4.64817 -2.59442 2
    endloop
  endfacet
  facet normal -0 0 1
    outer loop
      vertex -5.0871 1.86211 2
      vertex -4.88562 -2.23904 2
      vertex -4.88562 2.23904 2
    endloop
  endfacet
  facet normal 0 0 1
    outer loop
      vertex -5.0871 1.86211 2
      vertex -5.0871 -1.86211 2
      vertex -4.88562 -2.23904 2
    endloop
  endfacet
  facet normal -0 0 1
    outer loop
      vertex -5.25066 1.46724 2
      vertex -5.0871 -1.86211 2
      vertex -5.0871 1.86211 2
    endloop
  endfacet
  facet normal 0 0 1
    outer loop
      vertex -5.25066 1.46724 2
      vertex -5.25066 -1.46724 2
      vertex -5.0871 -1.86211 2
    endloop
  endfacet
  facet normal -0 0 1
    outer loop
      vertex -5.37472 1.05824 2
      vertex -5.25066 -1.46724 2
      vertex -5.25066 1.46724 2
    endloop
  endfacet
  facet normal 0 0 1
    outer loop
      vertex -5.37472 1.05824 2
      vertex -5.37472 -1.05824 2
      vertex -5.25066 -1.46724 2
    endloop
  endfacet
  facet normal -0 0 1
    outer loop
      vertex -5.45811 0.639047 2
      vertex -5.37472 -1.05824 2
      vertex -5.37472 1.05824 2
    endloop
  endfacet
  facet normal 0 0 1
    outer loop
      vertex -5.45811 0.639047 2
      vertex -5.45811 -0.639047 2
      vertex -5.37472 -1.05824 2
    endloop
  endfacet
  facet normal -0 0 1
    outer loop
      vertex -5.5 0.213701 2
      vertex -5.45811 -0.639047 2
      vertex -5.45811 0.639047 2
    endloop
  endfacet
  facet normal 0 0 1
    outer loop
      vertex -5.45811 -0.639047 2
      vertex -5.5 0.213701 2
      vertex -5.5 -0.213701 2
    endloop
  endfacet
  facet normal 0 0 1
    outer loop
      vertex 0.5 4.56615 2
      vertex 3.7 0.964725 2
      vertex 2.96163 2.7473 2
    endloop
  endfacet
  facet normal 0 0 1
    outer loop
      vertex 3.7 0.964725 2
      vertex 0.5 4.56615 2
      vertex 3.7 -0.964725 2
    endloop
  endfacet
  facet normal 0 0 1
    outer loop
      vertex 0.5 4.56615 2
      vertex 2.96163 2.7473 2
      vertex 1.5973 4.11163 2
    endloop
  endfacet
  facet normal 0 0 1
    outer loop
      vertex 0.5 -4.56615 2
      vertex 3.7 -0.964725 2
      vertex 0.5 4.56615 2
    endloop
  endfacet
  facet normal 0 0 1
    outer loop
      vertex 3.7 -0.964725 2
      vertex 0.5 -4.56615 2
      vertex 2.96163 -2.7473 2
    endloop
  endfacet
  facet normal 0 0 1
    outer loop
      vertex 2.96163 -2.7473 2
      vertex 0.5 -4.56615 2
      vertex 1.5973 -4.11163 2
    endloop
  endfacet
  facet normal -0.382684 -0.923879 0
    outer loop
      vertex 0.5 4.56615 2
      vertex 1.5973 4.11163 3.6
      vertex 0.5 4.56615 3.6
    endloop
  endfacet
  facet normal -0.382684 -0.923879 -0
    outer loop
      vertex 1.5973 4.11163 3.6
      vertex 0.5 4.56615 2
      vertex 1.5973 4.11163 2
    endloop
  endfacet
  facet normal -0.707107 -0.707107 0
    outer loop
      vertex 2.96163 2.7473 2
      vertex 1.5973 4.11163 3.6
      vertex 1.5973 4.11163 2
    endloop
  endfacet
  facet normal -0.707107 -0.707107 0
    outer loop
      vertex 1.5973 4.11163 3.6
      vertex 2.96163 2.7473 2
      vertex 2.96163 2.7473 3.6
    endloop
  endfacet
  facet normal -0.923879 0.382684 0
    outer loop
      vertex 2.96163 -2.7473 2
      vertex 3.7 -0.964725 3.6
      vertex 3.7 -0.964725 2
    endloop
  endfacet
  facet normal -0.923879 0.382684 0
    outer loop
      vertex 3.7 -0.964725 3.6
      vertex 2.96163 -2.7473 2
      vertex 2.96163 -2.7473 3.6
    endloop
  endfacet
  facet normal -0.382684 0.923879 0
    outer loop
      vertex 1.5973 -4.11163 2
      vertex 0.5 -4.56615 3.6
      vertex 1.5973 -4.11163 3.6
    endloop
  endfacet
  facet normal -0.382684 0.923879 0
    outer loop
      vertex 0.5 -4.56615 3.6
      vertex 1.5973 -4.11163 2
      vertex 0.5 -4.56615 2
    endloop
  endfacet
  facet normal -1 0 0
    outer loop
      vertex 3.7 -0.964725 2
      vertex 3.7 0.964725 3.6
      vertex 3.7 0.964725 2
    endloop
  endfacet
  facet normal -1 -0 0
    outer loop
      vertex 3.7 0.964725 3.6
      vertex 3.7 -0.964725 2
      vertex 3.7 -0.964725 3.6
    endloop
  endfacet
  facet normal -0.707107 0.707107 0
    outer loop
      vertex 1.5973 -4.11163 2
      vertex 2.96163 -2.7473 3.6
      vertex 2.96163 -2.7473 2
    endloop
  endfacet
  facet normal -0.707107 0.707107 0
    outer loop
      vertex 2.96163 -2.7473 3.6
      vertex 1.5973 -4.11163 2
      vertex 1.5973 -4.11163 3.6
    endloop
  endfacet
  facet normal -1 0 0
    outer loop
      vertex 0.5 -5.57785 2
      vertex 0.5 -4.56615 3.6
      vertex 0.5 -4.56615 2
    endloop
  endfacet
  facet normal -1 -0 0
    outer loop
      vertex 0.5 -4.56615 3.6
      vertex 0.5 -5.57785 2
      vertex 0.5 -5.57785 3.6
    endloop
  endfacet
  facet normal -1 0 0
    outer loop
      vertex 0.5 4.56615 2
      vertex 0.5 5.57785 3.6
      vertex 0.5 5.57785 2
    endloop
  endfacet
  facet normal -1 -0 0
    outer loop
      vertex 0.5 5.57785 3.6
      vertex 0.5 4.56615 2
      vertex 0.5 4.56615 3.6
    endloop
  endfacet
  facet normal 0.995185 0.0980175 0
    outer loop
      vertex 5.6 0.27511 3.6
      vertex 5.54607 0.822681 0
      vertex 5.54607 0.822681 3.6
    endloop
  endfacet
  facet normal 0.995185 0.0980175 0
    outer loop
      vertex 5.54607 0.822681 0
      vertex 5.6 0.27511 3.6
      vertex 5.6 0.27511 0
    endloop
  endfacet
  facet normal 0.707107 0.707107 0
    outer loop
      vertex 4.15433 3.76527 3.6
      vertex 3.76527 4.15433 0
      vertex 3.76527 4.15433 3.6
    endloop
  endfacet
  facet normal 0.707107 0.707107 0
    outer loop
      vertex 3.76527 4.15433 0
      vertex 4.15433 3.76527 3.6
      vertex 4.15433 3.76527 0
    endloop
  endfacet
  facet normal 0.92388 0.382682 0
    outer loop
      vertex 5.27901 1.88886 3.6
      vertex 5.06845 2.3972 0
      vertex 5.06845 2.3972 3.6
    endloop
  endfacet
  facet normal 0.92388 0.382682 0
    outer loop
      vertex 5.06845 2.3972 0
      vertex 5.27901 1.88886 3.6
      vertex 5.27901 1.88886 0
    endloop
  endfacet
  facet normal 0.980785 0.19509 0
    outer loop
      vertex 5.54607 0.822681 3.6
      vertex 5.43873 1.36233 0
      vertex 5.43873 1.36233 3.6
    endloop
  endfacet
  facet normal 0.980785 0.19509 0
    outer loop
      vertex 5.43873 1.36233 0
      vertex 5.54607 0.822681 3.6
      vertex 5.54607 0.822681 0
    endloop
  endfacet
  facet normal 0.382682 0.92388 -0
    outer loop
      vertex 2.3972 5.06845 0
      vertex 1.88886 5.27901 3.6
      vertex 2.3972 5.06845 3.6
    endloop
  endfacet
  facet normal 0.382682 0.92388 0
    outer loop
      vertex 1.88886 5.27901 3.6
      vertex 2.3972 5.06845 0
      vertex 1.88886 5.27901 0
    endloop
  endfacet
  facet normal 0.55557 0.83147 -0
    outer loop
      vertex 3.33994 4.50339 0
      vertex 2.88245 4.80907 3.6
      vertex 3.33994 4.50339 3.6
    endloop
  endfacet
  facet normal 0.55557 0.83147 0
    outer loop
      vertex 2.88245 4.80907 3.6
      vertex 3.33994 4.50339 0
      vertex 2.88245 4.80907 0
    endloop
  endfacet
  facet normal 0 0 -1
    outer loop
      vertex 5.54607 -0.822681 0
      vertex 5.6 0.27511 0
      vertex 5.6 -0.27511 0
    endloop
  endfacet
  facet normal 0 0 -1
    outer loop
      vertex -3.01211 -3.9371 0
      vertex 5.6 0.27511 0
      vertex 5.54607 -0.822681 0
    endloop
  endfacet
  facet normal 0 0 -1
    outer loop
      vertex -3.01211 -3.9371 0
      vertex 5.54607 -0.822681 0
      vertex 5.43873 -1.36233 0
    endloop
  endfacet
  facet normal -0 0 -1
    outer loop
      vertex 5.6 0.27511 0
      vertex -3.01211 -3.9371 0
      vertex 5.54607 0.822681 0
    endloop
  endfacet
  facet normal 0 0 -1
    outer loop
      vertex -3.01211 -3.9371 0
      vertex 5.43873 -1.36233 0
      vertex 5.27901 -1.88886 0
    endloop
  endfacet
  facet normal 0 0 -1
    outer loop
      vertex -3.01211 3.9371 0
      vertex 5.54607 0.822681 0
      vertex -3.01211 -3.9371 0
    endloop
  endfacet
  facet normal 0 0 -1
    outer loop
      vertex -3.01211 -3.9371 0
      vertex 5.27901 -1.88886 0
      vertex 5.06845 -2.3972 0
    endloop
  endfacet
  facet normal 0 0 -1
    outer loop
      vertex 5.54607 0.822681 0
      vertex -3.01211 3.9371 0
      vertex 5.43873 1.36233 0
    endloop
  endfacet
  facet normal 0 0 -1
    outer loop
      vertex -3.01211 -3.9371 0
      vertex 5.06845 -2.3972 0
      vertex 4.80907 -2.88245 0
    endloop
  endfacet
  facet normal 0 0 -1
    outer loop
      vertex 5.43873 1.36233 0
      vertex -3.01211 3.9371 0
      vertex 5.27901 1.88886 0
    endloop
  endfacet
  facet normal 0 0 -1
    outer loop
      vertex -3.01211 -3.9371 0
      vertex 4.80907 -2.88245 0
      vertex 4.50339 -3.33994 0
    endloop
  endfacet
  facet normal 0 0 -1
    outer loop
      vertex 5.27901 1.88886 0
      vertex -3.01211 3.9371 0
      vertex 5.06845 2.3972 0
    endloop
  endfacet
  facet normal 0 0 -1
    outer loop
      vertex -3.01211 -3.9371 0
      vertex 4.50339 -3.33994 0
      vertex 4.15433 -3.76527 0
    endloop
  endfacet
  facet normal 0 0 -1
    outer loop
      vertex 5.06845 2.3972 0
      vertex -3.01211 3.9371 0
      vertex 4.80907 2.88245 0
    endloop
  endfacet
  facet normal 0 0 -1
    outer loop
      vertex -3.01211 -3.9371 0
      vertex 4.15433 -3.76527 0
      vertex 3.76527 -4.15433 0
    endloop
  endfacet
  facet normal 0 0 -1
    outer loop
      vertex 4.80907 2.88245 0
      vertex -3.01211 3.9371 0
      vertex 4.50339 3.33994 0
    endloop
  endfacet
  facet normal 0 0 -1
    outer loop
      vertex -3.01211 -3.9371 0
      vertex 3.76527 -4.15433 0
      vertex 3.33994 -4.50339 0
    endloop
  endfacet
  facet normal 0 0 -1
    outer loop
      vertex 4.50339 3.33994 0
      vertex -3.01211 3.9371 0
      vertex 4.15433 3.76527 0
    endloop
  endfacet
  facet normal 0 0 -1
    outer loop
      vertex -3.01211 -3.9371 0
      vertex 3.33994 -4.50339 0
      vertex 2.88245 -4.80907 0
    endloop
  endfacet
  facet normal 0 0 -1
    outer loop
      vertex 4.15433 3.76527 0
      vertex -3.01211 3.9371 0
      vertex 3.76527 4.15433 0
    endloop
  endfacet
  facet normal 0 0 -1
    outer loop
      vertex -3.01211 -3.9371 0
      vertex 2.88245 -4.80907 0
      vertex 2.3972 -5.06845 0
    endloop
  endfacet
  facet normal -0 0 -1
    outer loop
      vertex 3.76527 4.15433 0
      vertex -3.01211 3.9371 0
      vertex 3.33994 4.50339 0
    endloop
  endfacet
  facet normal 0 0 -1
    outer loop
      vertex -3.01211 -3.9371 0
      vertex 2.3972 -5.06845 0
      vertex 1.88886 -5.27901 0
    endloop
  endfacet
  facet normal -0 0 -1
    outer loop
      vertex 3.33994 4.50339 0
      vertex -3.01211 3.9371 0
      vertex 2.88245 4.80907 0
    endloop
  endfacet
  facet normal 0 0 -1
    outer loop
      vertex -3.01211 -3.9371 0
      vertex 1.88886 -5.27901 0
      vertex 1.36233 -5.43873 0
    endloop
  endfacet
  facet normal -0 0 -1
    outer loop
      vertex 2.88245 4.80907 0
      vertex -3.01211 3.9371 0
      vertex 2.3972 5.06845 0
    endloop
  endfacet
  facet normal 0 0 -1
    outer loop
      vertex -3.01211 -3.9371 0
      vertex 1.36233 -5.43873 0
      vertex 0.822681 -5.54607 0
    endloop
  endfacet
  facet normal -0 0 -1
    outer loop
      vertex 2.3972 5.06845 0
      vertex -3.01211 3.9371 0
      vertex 1.88886 5.27901 0
    endloop
  endfacet
  facet normal 0 0 -1
    outer loop
      vertex -3.01211 -3.9371 0
      vertex 0.822681 -5.54607 0
      vertex 0.461275 -5.58166 0
    endloop
  endfacet
  facet normal -0 0 -1
    outer loop
      vertex 1.88886 5.27901 0
      vertex -3.01211 3.9371 0
      vertex 1.36233 5.43873 0
    endloop
  endfacet
  facet normal -0 0 -1
    outer loop
      vertex 1.36233 5.43873 0
      vertex -3.01211 3.9371 0
      vertex 0.822681 5.54607 0
    endloop
  endfacet
  facet normal -0 0 -1
    outer loop
      vertex 0.822681 5.54607 0
      vertex -3.01211 3.9371 0
      vertex 0.461275 5.58166 0
    endloop
  endfacet
  facet normal 0 0 -1
    outer loop
      vertex -3.38904 -3.73562 0
      vertex -3.01211 3.9371 0
      vertex -3.01211 -3.9371 0
    endloop
  endfacet
  facet normal 0 0 -1
    outer loop
      vertex -3.38904 -3.73562 0
      vertex -3.38904 3.73562 0
      vertex -3.01211 3.9371 0
    endloop
  endfacet
  facet normal 0 0 -1
    outer loop
      vertex -3.74442 -3.49817 0
      vertex -3.38904 3.73562 0
      vertex -3.38904 -3.73562 0
    endloop
  endfacet
  facet normal 0 0 -1
    outer loop
      vertex -3.74442 -3.49817 0
      vertex -3.74442 3.49817 0
      vertex -3.38904 3.73562 0
    endloop
  endfacet
  facet normal 0 0 -1
    outer loop
      vertex -4.0748 -3.22702 0
      vertex -3.74442 3.49817 0
      vertex -3.74442 -3.49817 0
    endloop
  endfacet
  facet normal 0 0 -1
    outer loop
      vertex -4.0748 -3.22702 0
      vertex -4.0748 3.22702 0
      vertex -3.74442 3.49817 0
    endloop
  endfacet
  facet normal 0 0 -1
    outer loop
      vertex -4.37702 -2.9248 0
      vertex -4.0748 3.22702 0
      vertex -4.0748 -3.22702 0
    endloop
  endfacet
  facet normal 0 0 -1
    outer loop
      vertex -4.37702 -2.9248 0
      vertex -4.37702 2.9248 0
      vertex -4.0748 3.22702 0
    endloop
  endfacet
  facet normal 0 0 -1
    outer loop
      vertex -4.64817 -2.59442 0
      vertex -4.37702 2.9248 0
      vertex -4.37702 -2.9248 0
    endloop
  endfacet
  facet normal 0 0 -1
    outer loop
      vertex -4.64817 -2.59442 0
      vertex -4.64817 2.59442 0
      vertex -4.37702 2.9248 0
    endloop
  endfacet
  facet normal 0 0 -1
    outer loop
      vertex -4.88562 -2.23904 0
      vertex -4.64817 2.59442 0
      vertex -4.64817 -2.59442 0
    endloop
  endfacet
  facet normal 0 0 -1
    outer loop
      vertex -4.88562 -2.23904 0
      vertex -4.88562 2.23904 0
      vertex -4.64817 2.59442 0
    endloop
  endfacet
  facet normal 0 0 -1
    outer loop
      vertex -5.0871 -1.86211 0
      vertex -4.88562 2.23904 0
      vertex -4.88562 -2.23904 0
    endloop
  endfacet
  facet normal 0 0 -1
    outer loop
      vertex -5.0871 -1.86211 0
      vertex -5.0871 1.86211 0
      vertex -4.88562 2.23904 0
    endloop
  endfacet
  facet normal 0 0 -1
    outer loop
      vertex -5.25066 -1.46724 0
      vertex -5.0871 1.86211 0
      vertex -5.0871 -1.86211 0
    endloop
  endfacet
  facet normal 0 0 -1
    outer loop
      vertex -5.25066 -1.46724 0
      vertex -5.25066 1.46724 0
      vertex -5.0871 1.86211 0
    endloop
  endfacet
  facet normal 0 0 -1
    outer loop
      vertex -5.37472 -1.05824 0
      vertex -5.25066 1.46724 0
      vertex -5.25066 -1.46724 0
    endloop
  endfacet
  facet normal 0 0 -1
    outer loop
      vertex -5.37472 -1.05824 0
      vertex -5.37472 1.05824 0
      vertex -5.25066 1.46724 0
    endloop
  endfacet
  facet normal 0 0 -1
    outer loop
      vertex -5.45811 -0.639047 0
      vertex -5.37472 1.05824 0
      vertex -5.37472 -1.05824 0
    endloop
  endfacet
  facet normal 0 0 -1
    outer loop
      vertex -5.45811 -0.639047 0
      vertex -5.45811 0.639047 0
      vertex -5.37472 1.05824 0
    endloop
  endfacet
  facet normal 0 0 -1
    outer loop
      vertex -5.5 -0.213701 0
      vertex -5.45811 0.639047 0
      vertex -5.45811 -0.639047 0
    endloop
  endfacet
  facet normal 0 0 -1
    outer loop
      vertex -5.45811 0.639047 0
      vertex -5.5 -0.213701 0
      vertex -5.5 0.213701 0
    endloop
  endfacet
  facet normal 0.95694 0.290284 0
    outer loop
      vertex 5.43873 1.36233 3.6
      vertex 5.27901 1.88886 0
      vertex 5.27901 1.88886 3.6
    endloop
  endfacet
  facet normal 0.95694 0.290284 0
    outer loop
      vertex 5.27901 1.88886 0
      vertex 5.43873 1.36233 3.6
      vertex 5.43873 1.36233 0
    endloop
  endfacet
  facet normal 0.83147 0.55557 0
    outer loop
      vertex 4.80907 2.88245 3.6
      vertex 4.50339 3.33994 0
      vertex 4.50339 3.33994 3.6
    endloop
  endfacet
  facet normal 0.83147 0.55557 0
    outer loop
      vertex 4.50339 3.33994 0
      vertex 4.80907 2.88245 3.6
      vertex 4.80907 2.88245 0
    endloop
  endfacet
  facet normal 0.773011 0.634393 0
    outer loop
      vertex 4.50339 3.33994 3.6
      vertex 4.15433 3.76527 0
      vertex 4.15433 3.76527 3.6
    endloop
  endfacet
  facet normal 0.773011 0.634393 0
    outer loop
      vertex 4.15433 3.76527 0
      vertex 4.50339 3.33994 3.6
      vertex 4.50339 3.33994 0
    endloop
  endfacet
  facet normal 0.881921 0.471397 0
    outer loop
      vertex 5.06845 2.3972 3.6
      vertex 4.80907 2.88245 0
      vertex 4.80907 2.88245 3.6
    endloop
  endfacet
  facet normal 0.881921 0.471397 0
    outer loop
      vertex 4.80907 2.88245 0
      vertex 5.06845 2.3972 3.6
      vertex 5.06845 2.3972 0
    endloop
  endfacet
  facet normal 0.19509 0.980785 -0
    outer loop
      vertex 1.36233 5.43873 0
      vertex 0.822681 5.54607 3.6
      vertex 1.36233 5.43873 3.6
    endloop
  endfacet
  facet normal 0.19509 0.980785 0
    outer loop
      vertex 0.822681 5.54607 3.6
      vertex 1.36233 5.43873 0
      vertex 0.822681 5.54607 0
    endloop
  endfacet
  facet normal 0.290284 0.95694 -0
    outer loop
      vertex 1.88886 5.27901 0
      vertex 1.36233 5.43873 3.6
      vertex 1.88886 5.27901 3.6
    endloop
  endfacet
  facet normal 0.290284 0.95694 0
    outer loop
      vertex 1.36233 5.43873 3.6
      vertex 1.88886 5.27901 0
      vertex 1.36233 5.43873 0
    endloop
  endfacet
  facet normal 0.0980181 0.995185 0
    outer loop
      vertex 0.822681 5.54607 3.6
      vertex 0.5 5.57785 2
      vertex 0.5 5.57785 3.6
    endloop
  endfacet
  facet normal 0.0980181 0.995185 -0
    outer loop
      vertex 0.822681 5.54607 0
      vertex 0.5 5.57785 2
      vertex 0.822681 5.54607 3.6
    endloop
  endfacet
  facet normal 0.098017 0.995185 -1.87075e-07
    outer loop
      vertex 0.461275 5.58166 0
      vertex 0.5 5.57785 2
      vertex 0.822681 5.54607 0
    endloop
  endfacet
  facet normal 0.0980074 0.995186 0
    outer loop
      vertex 0.5 5.57785 2
      vertex 0.461275 5.58166 0
      vertex 0.461275 5.58166 2
    endloop
  endfacet
  facet normal 0.471397 0.881921 -0
    outer loop
      vertex 2.88245 4.80907 0
      vertex 2.3972 5.06845 3.6
      vertex 2.88245 4.80907 3.6
    endloop
  endfacet
  facet normal 0.471397 0.881921 0
    outer loop
      vertex 2.3972 5.06845 3.6
      vertex 2.88245 4.80907 0
      vertex 2.3972 5.06845 0
    endloop
  endfacet
  facet normal 0.634393 0.773011 -0
    outer loop
      vertex 3.76527 4.15433 0
      vertex 3.33994 4.50339 3.6
      vertex 3.76527 4.15433 3.6
    endloop
  endfacet
  facet normal 0.634393 0.773011 0
    outer loop
      vertex 3.33994 4.50339 3.6
      vertex 3.76527 4.15433 0
      vertex 3.33994 4.50339 0
    endloop
  endfacet
  facet normal 0 0 1
    outer loop
      vertex 3.7 0.964725 3.6
      vertex 5.6 0.27511 3.6
      vertex 5.54607 0.822681 3.6
    endloop
  endfacet
  facet normal 0 0 1
    outer loop
      vertex 5.6 0.27511 3.6
      vertex 3.7 0.964725 3.6
      vertex 5.6 -0.27511 3.6
    endloop
  endfacet
  facet normal -0 0 1
    outer loop
      vertex 3.7 0.964725 3.6
      vertex 5.54607 0.822681 3.6
      vertex 5.43873 1.36233 3.6
    endloop
  endfacet
  facet normal 0 0 1
    outer loop
      vertex 3.7 -0.964725 3.6
      vertex 5.6 -0.27511 3.6
      vertex 3.7 0.964725 3.6
    endloop
  endfacet
  facet normal 0 0 1
    outer loop
      vertex 3.7 0.964725 3.6
      vertex 5.43873 1.36233 3.6
      vertex 5.27901 1.88886 3.6
    endloop
  endfacet
  facet normal 0 0 1
    outer loop
      vertex 5.6 -0.27511 3.6
      vertex 3.7 -0.964725 3.6
      vertex 5.54607 -0.822681 3.6
    endloop
  endfacet
  facet normal 0 0 1
    outer loop
      vertex 3.7 0.964725 3.6
      vertex 5.27901 1.88886 3.6
      vertex 5.06845 2.3972 3.6
    endloop
  endfacet
  facet normal 0 0 1
    outer loop
      vertex 5.54607 -0.822681 3.6
      vertex 3.7 -0.964725 3.6
      vertex 5.43873 -1.36233 3.6
    endloop
  endfacet
  facet normal 0 0 1
    outer loop
      vertex 3.7 0.964725 3.6
      vertex 5.06845 2.3972 3.6
      vertex 4.80907 2.88245 3.6
    endloop
  endfacet
  facet normal 0 0 1
    outer loop
      vertex 5.43873 -1.36233 3.6
      vertex 3.7 -0.964725 3.6
      vertex 5.27901 -1.88886 3.6
    endloop
  endfacet
  facet normal 0 0 1
    outer loop
      vertex 2.96163 2.7473 3.6
      vertex 4.80907 2.88245 3.6
      vertex 4.50339 3.33994 3.6
    endloop
  endfacet
  facet normal 0 0 1
    outer loop
      vertex 5.27901 -1.88886 3.6
      vertex 3.7 -0.964725 3.6
      vertex 5.06845 -2.3972 3.6
    endloop
  endfacet
  facet normal 0 0 1
    outer loop
      vertex 2.96163 2.7473 3.6
      vertex 4.50339 3.33994 3.6
      vertex 4.15433 3.76527 3.6
    endloop
  endfacet
  facet normal 0 0 1
    outer loop
      vertex 5.06845 -2.3972 3.6
      vertex 3.7 -0.964725 3.6
      vertex 4.80907 -2.88245 3.6
    endloop
  endfacet
  facet normal 0 0 1
    outer loop
      vertex 2.96163 2.7473 3.6
      vertex 4.15433 3.76527 3.6
      vertex 3.76527 4.15433 3.6
    endloop
  endfacet
  facet normal -0 0 1
    outer loop
      vertex 2.96163 -2.7473 3.6
      vertex 4.80907 -2.88245 3.6
      vertex 3.7 -0.964725 3.6
    endloop
  endfacet
  facet normal 0 0 1
    outer loop
      vertex 4.80907 -2.88245 3.6
      vertex 2.96163 -2.7473 3.6
      vertex 4.50339 -3.33994 3.6
    endloop
  endfacet
  facet normal 0 0 1
    outer loop
      vertex 2.96163 2.7473 3.6
      vertex 3.76527 4.15433 3.6
      vertex 3.33994 4.50339 3.6
    endloop
  endfacet
  facet normal 0 0 1
    outer loop
      vertex 4.80907 2.88245 3.6
      vertex 2.96163 2.7473 3.6
      vertex 3.7 0.964725 3.6
    endloop
  endfacet
  facet normal 0 0 1
    outer loop
      vertex 1.5973 4.11163 3.6
      vertex 3.33994 4.50339 3.6
      vertex 2.88245 4.80907 3.6
    endloop
  endfacet
  facet normal 0 0 1
    outer loop
      vertex 1.5973 4.11163 3.6
      vertex 2.88245 4.80907 3.6
      vertex 2.3972 5.06845 3.6
    endloop
  endfacet
  facet normal 0 0 1
    outer loop
      vertex 1.5973 4.11163 3.6
      vertex 2.3972 5.06845 3.6
      vertex 1.88886 5.27901 3.6
    endloop
  endfacet
  facet normal 0 0 1
    outer loop
      vertex 3.33994 4.50339 3.6
      vertex 1.5973 4.11163 3.6
      vertex 2.96163 2.7473 3.6
    endloop
  endfacet
  facet normal 0 0 1
    outer loop
      vertex 1.36233 5.43873 3.6
      vertex 1.5973 4.11163 3.6
      vertex 1.88886 5.27901 3.6
    endloop
  endfacet
  facet normal 0 0 1
    outer loop
      vertex 0.5 4.56615 3.6
      vertex 1.36233 5.43873 3.6
      vertex 0.822681 5.54607 3.6
    endloop
  endfacet
  facet normal 0 0 1
    outer loop
      vertex 0.5 4.56615 3.6
      vertex 0.822681 5.54607 3.6
      vertex 0.5 5.57785 3.6
    endloop
  endfacet
  facet normal 0 0 1
    outer loop
      vertex 1.36233 5.43873 3.6
      vertex 0.5 4.56615 3.6
      vertex 1.5973 4.11163 3.6
    endloop
  endfacet
  facet normal 0 0 1
    outer loop
      vertex 4.50339 -3.33994 3.6
      vertex 2.96163 -2.7473 3.6
      vertex 4.15433 -3.76527 3.6
    endloop
  endfacet
  facet normal 0 0 1
    outer loop
      vertex 4.15433 -3.76527 3.6
      vertex 2.96163 -2.7473 3.6
      vertex 3.76527 -4.15433 3.6
    endloop
  endfacet
  facet normal 0 0 1
    outer loop
      vertex 3.76527 -4.15433 3.6
      vertex 2.96163 -2.7473 3.6
      vertex 3.33994 -4.50339 3.6
    endloop
  endfacet
  facet normal -0 0 1
    outer loop
      vertex 1.5973 -4.11163 3.6
      vertex 3.33994 -4.50339 3.6
      vertex 2.96163 -2.7473 3.6
    endloop
  endfacet
  facet normal 0 0 1
    outer loop
      vertex 3.33994 -4.50339 3.6
      vertex 1.5973 -4.11163 3.6
      vertex 2.88245 -4.80907 3.6
    endloop
  endfacet
  facet normal 0 0 1
    outer loop
      vertex 2.88245 -4.80907 3.6
      vertex 1.5973 -4.11163 3.6
      vertex 2.3972 -5.06845 3.6
    endloop
  endfacet
  facet normal 0 0 1
    outer loop
      vertex 2.3972 -5.06845 3.6
      vertex 1.5973 -4.11163 3.6
      vertex 1.88886 -5.27901 3.6
    endloop
  endfacet
  facet normal 0 0 1
    outer loop
      vertex 1.5973 -4.11163 3.6
      vertex 1.36233 -5.43873 3.6
      vertex 1.88886 -5.27901 3.6
    endloop
  endfacet
  facet normal -0 0 1
    outer loop
      vertex 0.5 -4.56615 3.6
      vertex 1.36233 -5.43873 3.6
      vertex 1.5973 -4.11163 3.6
    endloop
  endfacet
  facet normal 0 0 1
    outer loop
      vertex 1.36233 -5.43873 3.6
      vertex 0.5 -4.56615 3.6
      vertex 0.822681 -5.54607 3.6
    endloop
  endfacet
  facet normal 0 0 1
    outer loop
      vertex 0.822681 -5.54607 3.6
      vertex 0.5 -4.56615 3.6
      vertex 0.5 -5.57785 3.6
    endloop
  endfacet
  facet normal 1 -0 0
    outer loop
      vertex 5.6 -0.27511 3.6
      vertex 5.6 0.27511 0
      vertex 5.6 0.27511 3.6
    endloop
  endfacet
  facet normal 1 0 0
    outer loop
      vertex 5.6 0.27511 0
      vertex 5.6 -0.27511 3.6
      vertex 5.6 -0.27511 0
    endloop
  endfacet
  facet normal 0.0980074 -0.995186 0
    outer loop
      vertex 0.461275 -5.58166 2
      vertex 0.461275 -5.58166 0
      vertex 0.5 -5.57785 2
    endloop
  endfacet
  facet normal 0.0980181 -0.995185 0
    outer loop
      vertex 0.5 -5.57785 2
      vertex 0.822681 -5.54607 3.6
      vertex 0.5 -5.57785 3.6
    endloop
  endfacet
  facet normal 0.098017 -0.995185 -1.87075e-07
    outer loop
      vertex 0.822681 -5.54607 0
      vertex 0.5 -5.57785 2
      vertex 0.461275 -5.58166 0
    endloop
  endfacet
  facet normal 0.0980181 -0.995185 0
    outer loop
      vertex 0.5 -5.57785 2
      vertex 0.822681 -5.54607 0
      vertex 0.822681 -5.54607 3.6
    endloop
  endfacet
  facet normal 0.290284 -0.95694 0
    outer loop
      vertex 1.36233 -5.43873 0
      vertex 1.88886 -5.27901 3.6
      vertex 1.36233 -5.43873 3.6
    endloop
  endfacet
  facet normal 0.290284 -0.95694 0
    outer loop
      vertex 1.88886 -5.27901 3.6
      vertex 1.36233 -5.43873 0
      vertex 1.88886 -5.27901 0
    endloop
  endfacet
  facet normal 0.634393 -0.773011 0
    outer loop
      vertex 3.33994 -4.50339 0
      vertex 3.76527 -4.15433 3.6
      vertex 3.33994 -4.50339 3.6
    endloop
  endfacet
  facet normal 0.634393 -0.773011 0
    outer loop
      vertex 3.76527 -4.15433 3.6
      vertex 3.33994 -4.50339 0
      vertex 3.76527 -4.15433 0
    endloop
  endfacet
  facet normal 0.471397 -0.881921 0
    outer loop
      vertex 2.3972 -5.06845 0
      vertex 2.88245 -4.80907 3.6
      vertex 2.3972 -5.06845 3.6
    endloop
  endfacet
  facet normal 0.471397 -0.881921 0
    outer loop
      vertex 2.88245 -4.80907 3.6
      vertex 2.3972 -5.06845 0
      vertex 2.88245 -4.80907 0
    endloop
  endfacet
  facet normal 0.773011 -0.634393 0
    outer loop
      vertex 4.15433 -3.76527 3.6
      vertex 4.50339 -3.33994 0
      vertex 4.50339 -3.33994 3.6
    endloop
  endfacet
  facet normal 0.773011 -0.634393 0
    outer loop
      vertex 4.50339 -3.33994 0
      vertex 4.15433 -3.76527 3.6
      vertex 4.15433 -3.76527 0
    endloop
  endfacet
  facet normal 0.881921 -0.471397 0
    outer loop
      vertex 4.80907 -2.88245 3.6
      vertex 5.06845 -2.3972 0
      vertex 5.06845 -2.3972 3.6
    endloop
  endfacet
  facet normal 0.881921 -0.471397 0
    outer loop
      vertex 5.06845 -2.3972 0
      vertex 4.80907 -2.88245 3.6
      vertex 4.80907 -2.88245 0
    endloop
  endfacet
  facet normal 0.19509 -0.980785 0
    outer loop
      vertex 0.822681 -5.54607 0
      vertex 1.36233 -5.43873 3.6
      vertex 0.822681 -5.54607 3.6
    endloop
  endfacet
  facet normal 0.19509 -0.980785 0
    outer loop
      vertex 1.36233 -5.43873 3.6
      vertex 0.822681 -5.54607 0
      vertex 1.36233 -5.43873 0
    endloop
  endfacet
  facet normal 0.382682 -0.92388 0
    outer loop
      vertex 1.88886 -5.27901 0
      vertex 2.3972 -5.06845 3.6
      vertex 1.88886 -5.27901 3.6
    endloop
  endfacet
  facet normal 0.382682 -0.92388 0
    outer loop
      vertex 2.3972 -5.06845 3.6
      vertex 1.88886 -5.27901 0
      vertex 2.3972 -5.06845 0
    endloop
  endfacet
  facet normal 0.707107 -0.707107 0
    outer loop
      vertex 3.76527 -4.15433 3.6
      vertex 4.15433 -3.76527 0
      vertex 4.15433 -3.76527 3.6
    endloop
  endfacet
  facet normal 0.707107 -0.707107 0
    outer loop
      vertex 4.15433 -3.76527 0
      vertex 3.76527 -4.15433 3.6
      vertex 3.76527 -4.15433 0
    endloop
  endfacet
  facet normal 0.55557 -0.83147 0
    outer loop
      vertex 2.88245 -4.80907 0
      vertex 3.33994 -4.50339 3.6
      vertex 2.88245 -4.80907 3.6
    endloop
  endfacet
  facet normal 0.55557 -0.83147 0
    outer loop
      vertex 3.33994 -4.50339 3.6
      vertex 2.88245 -4.80907 0
      vertex 3.33994 -4.50339 0
    endloop
  endfacet
  facet normal 0.83147 -0.55557 0
    outer loop
      vertex 4.50339 -3.33994 3.6
      vertex 4.80907 -2.88245 0
      vertex 4.80907 -2.88245 3.6
    endloop
  endfacet
  facet normal 0.83147 -0.55557 0
    outer loop
      vertex 4.80907 -2.88245 0
      vertex 4.50339 -3.33994 3.6
      vertex 4.50339 -3.33994 0
    endloop
  endfacet
  facet normal 0.92388 -0.382682 0
    outer loop
      vertex 5.06845 -2.3972 3.6
      vertex 5.27901 -1.88886 0
      vertex 5.27901 -1.88886 3.6
    endloop
  endfacet
  facet normal 0.92388 -0.382682 0
    outer loop
      vertex 5.27901 -1.88886 0
      vertex 5.06845 -2.3972 3.6
      vertex 5.06845 -2.3972 0
    endloop
  endfacet
  facet normal 0.995185 -0.0980175 0
    outer loop
      vertex 5.54607 -0.822681 3.6
      vertex 5.6 -0.27511 0
      vertex 5.6 -0.27511 3.6
    endloop
  endfacet
  facet normal 0.995185 -0.0980175 0
    outer loop
      vertex 5.6 -0.27511 0
      vertex 5.54607 -0.822681 3.6
      vertex 5.54607 -0.822681 0
    endloop
  endfacet
  facet normal 0.95694 -0.290284 0
    outer loop
      vertex 5.27901 -1.88886 3.6
      vertex 5.43873 -1.36233 0
      vertex 5.43873 -1.36233 3.6
    endloop
  endfacet
  facet normal 0.95694 -0.290284 0
    outer loop
      vertex 5.43873 -1.36233 0
      vertex 5.27901 -1.88886 3.6
      vertex 5.27901 -1.88886 0
    endloop
  endfacet
  facet normal 0.980785 -0.19509 0
    outer loop
      vertex 5.43873 -1.36233 3.6
      vertex 5.54607 -0.822681 0
      vertex 5.54607 -0.822681 3.6
    endloop
  endfacet
  facet normal 0.980785 -0.19509 0
    outer loop
      vertex 5.54607 -0.822681 0
      vertex 5.43873 -1.36233 3.6
      vertex 5.43873 -1.36233 0
    endloop
  endfacet
  facet normal -0.980785 0.195091 0
    outer loop
      vertex -5.45811 0.639047 0
      vertex -5.37472 1.05824 2
      vertex -5.37472 1.05824 0
    endloop
  endfacet
  facet normal -0.980785 0.195091 0
    outer loop
      vertex -5.37472 1.05824 2
      vertex -5.45811 0.639047 0
      vertex -5.45811 0.639047 2
    endloop
  endfacet
  facet normal -1 0 0
    outer loop
      vertex -5.5 -0.213701 0
      vertex -5.5 0.213701 2
      vertex -5.5 0.213701 0
    endloop
  endfacet
  facet normal -1 -0 0
    outer loop
      vertex -5.5 0.213701 2
      vertex -5.5 -0.213701 0
      vertex -5.5 -0.213701 2
    endloop
  endfacet
  facet normal -0.831469 -0.555571 0
    outer loop
      vertex -4.64817 -2.59442 0
      vertex -4.88562 -2.23904 2
      vertex -4.88562 -2.23904 0
    endloop
  endfacet
  facet normal -0.831469 -0.555571 0
    outer loop
      vertex -4.88562 -2.23904 2
      vertex -4.64817 -2.59442 0
      vertex -4.64817 -2.59442 2
    endloop
  endfacet
  facet normal -0.95694 0.290286 0
    outer loop
      vertex -5.37472 1.05824 0
      vertex -5.25066 1.46724 2
      vertex -5.25066 1.46724 0
    endloop
  endfacet
  facet normal -0.95694 0.290286 0
    outer loop
      vertex -5.25066 1.46724 2
      vertex -5.37472 1.05824 0
      vertex -5.37472 1.05824 2
    endloop
  endfacet
  facet normal -0.831469 0.555571 0
    outer loop
      vertex -4.88562 2.23904 0
      vertex -4.64817 2.59442 2
      vertex -4.64817 2.59442 0
    endloop
  endfacet
  facet normal -0.831469 0.555571 0
    outer loop
      vertex -4.64817 2.59442 2
      vertex -4.88562 2.23904 0
      vertex -4.88562 2.23904 2
    endloop
  endfacet
  facet normal -0.980785 -0.195091 0
    outer loop
      vertex -5.37472 -1.05824 0
      vertex -5.45811 -0.639047 2
      vertex -5.45811 -0.639047 0
    endloop
  endfacet
  facet normal -0.980785 -0.195091 0
    outer loop
      vertex -5.45811 -0.639047 2
      vertex -5.37472 -1.05824 0
      vertex -5.37472 -1.05824 2
    endloop
  endfacet
  facet normal -0.995185 0.0980175 0
    outer loop
      vertex -5.5 0.213701 0
      vertex -5.45811 0.639047 2
      vertex -5.45811 0.639047 0
    endloop
  endfacet
  facet normal -0.995185 0.0980175 0
    outer loop
      vertex -5.45811 0.639047 2
      vertex -5.5 0.213701 0
      vertex -5.5 0.213701 2
    endloop
  endfacet
  facet normal -0.555571 -0.831469 0
    outer loop
      vertex -3.74442 -3.49817 0
      vertex -3.38904 -3.73562 2
      vertex -3.74442 -3.49817 2
    endloop
  endfacet
  facet normal -0.555571 -0.831469 -0
    outer loop
      vertex -3.38904 -3.73562 2
      vertex -3.74442 -3.49817 0
      vertex -3.38904 -3.73562 0
    endloop
  endfacet
  facet normal -0.881922 0.471396 0
    outer loop
      vertex -5.0871 1.86211 0
      vertex -4.88562 2.23904 2
      vertex -4.88562 2.23904 0
    endloop
  endfacet
  facet normal -0.881922 0.471396 0
    outer loop
      vertex -4.88562 2.23904 2
      vertex -5.0871 1.86211 0
      vertex -5.0871 1.86211 2
    endloop
  endfacet
  facet normal -0.92388 0.382682 0
    outer loop
      vertex -5.25066 1.46724 0
      vertex -5.0871 1.86211 2
      vertex -5.0871 1.86211 0
    endloop
  endfacet
  facet normal -0.92388 0.382682 0
    outer loop
      vertex -5.0871 1.86211 2
      vertex -5.25066 1.46724 0
      vertex -5.25066 1.46724 2
    endloop
  endfacet
  facet normal -0.471397 0.881921 0
    outer loop
      vertex -3.01211 3.9371 0
      vertex -3.38904 3.73562 2
      vertex -3.01211 3.9371 2
    endloop
  endfacet
  facet normal -0.471397 0.881921 0
    outer loop
      vertex -3.38904 3.73562 2
      vertex -3.01211 3.9371 0
      vertex -3.38904 3.73562 0
    endloop
  endfacet
  facet normal -0.427934 0.90381 0
    outer loop
      vertex 0.461275 5.58166 0
      vertex -3.01211 3.9371 2
      vertex 0.461275 5.58166 2
    endloop
  endfacet
  facet normal -0.427934 0.90381 0
    outer loop
      vertex -3.01211 3.9371 2
      vertex 0.461275 5.58166 0
      vertex -3.01211 3.9371 0
    endloop
  endfacet
  facet normal -0.77301 0.634394 0
    outer loop
      vertex -4.64817 2.59442 0
      vertex -4.37702 2.9248 2
      vertex -4.37702 2.9248 0
    endloop
  endfacet
  facet normal -0.77301 0.634394 0
    outer loop
      vertex -4.37702 2.9248 2
      vertex -4.64817 2.59442 0
      vertex -4.64817 2.59442 2
    endloop
  endfacet
  facet normal -0.707108 0.707106 0
    outer loop
      vertex -4.37702 2.9248 0
      vertex -4.0748 3.22702 2
      vertex -4.0748 3.22702 0
    endloop
  endfacet
  facet normal -0.707108 0.707106 0
    outer loop
      vertex -4.0748 3.22702 2
      vertex -4.37702 2.9248 0
      vertex -4.37702 2.9248 2
    endloop
  endfacet
  facet normal -0.634393 0.773011 0
    outer loop
      vertex -3.74442 3.49817 0
      vertex -4.0748 3.22702 2
      vertex -3.74442 3.49817 2
    endloop
  endfacet
  facet normal -0.634393 0.773011 0
    outer loop
      vertex -4.0748 3.22702 2
      vertex -3.74442 3.49817 0
      vertex -4.0748 3.22702 0
    endloop
  endfacet
  facet normal -0.555571 0.831469 0
    outer loop
      vertex -3.38904 3.73562 0
      vertex -3.74442 3.49817 2
      vertex -3.38904 3.73562 2
    endloop
  endfacet
  facet normal -0.555571 0.831469 0
    outer loop
      vertex -3.74442 3.49817 2
      vertex -3.38904 3.73562 0
      vertex -3.74442 3.49817 0
    endloop
  endfacet
  facet normal -0.634393 -0.773011 0
    outer loop
      vertex -4.0748 -3.22702 0
      vertex -3.74442 -3.49817 2
      vertex -4.0748 -3.22702 2
    endloop
  endfacet
  facet normal -0.634393 -0.773011 -0
    outer loop
      vertex -3.74442 -3.49817 2
      vertex -4.0748 -3.22702 0
      vertex -3.74442 -3.49817 0
    endloop
  endfacet
  facet normal -0.995185 -0.0980175 0
    outer loop
      vertex -5.45811 -0.639047 0
      vertex -5.5 -0.213701 2
      vertex -5.5 -0.213701 0
    endloop
  endfacet
  facet normal -0.995185 -0.0980175 0
    outer loop
      vertex -5.5 -0.213701 2
      vertex -5.45811 -0.639047 0
      vertex -5.45811 -0.639047 2
    endloop
  endfacet
  facet normal -0.881922 -0.471396 0
    outer loop
      vertex -4.88562 -2.23904 0
      vertex -5.0871 -1.86211 2
      vertex -5.0871 -1.86211 0
    endloop
  endfacet
  facet normal -0.881922 -0.471396 0
    outer loop
      vertex -5.0871 -1.86211 2
      vertex -4.88562 -2.23904 0
      vertex -4.88562 -2.23904 2
    endloop
  endfacet
  facet normal -0.427934 -0.90381 0
    outer loop
      vertex -3.01211 -3.9371 0
      vertex 0.461275 -5.58166 2
      vertex -3.01211 -3.9371 2
    endloop
  endfacet
  facet normal -0.427934 -0.90381 -0
    outer loop
      vertex 0.461275 -5.58166 2
      vertex -3.01211 -3.9371 0
      vertex 0.461275 -5.58166 0
    endloop
  endfacet
  facet normal -0.471397 -0.881921 0
    outer loop
      vertex -3.38904 -3.73562 0
      vertex -3.01211 -3.9371 2
      vertex -3.38904 -3.73562 2
    endloop
  endfacet
  facet normal -0.471397 -0.881921 -0
    outer loop
      vertex -3.01211 -3.9371 2
      vertex -3.38904 -3.73562 0
      vertex -3.01211 -3.9371 0
    endloop
  endfacet
  facet normal -0.77301 -0.634394 0
    outer loop
      vertex -4.37702 -2.9248 0
      vertex -4.64817 -2.59442 2
      vertex -4.64817 -2.59442 0
    endloop
  endfacet
  facet normal -0.77301 -0.634394 0
    outer loop
      vertex -4.64817 -2.59442 2
      vertex -4.37702 -2.9248 0
      vertex -4.37702 -2.9248 2
    endloop
  endfacet
  facet normal -0.707108 -0.707106 0
    outer loop
      vertex -4.0748 -3.22702 0
      vertex -4.37702 -2.9248 2
      vertex -4.37702 -2.9248 0
    endloop
  endfacet
  facet normal -0.707108 -0.707106 0
    outer loop
      vertex -4.37702 -2.9248 2
      vertex -4.0748 -3.22702 0
      vertex -4.0748 -3.22702 2
    endloop
  endfacet
  facet normal -0.92388 -0.382682 0
    outer loop
      vertex -5.0871 -1.86211 0
      vertex -5.25066 -1.46724 2
      vertex -5.25066 -1.46724 0
    endloop
  endfacet
  facet normal -0.92388 -0.382682 0
    outer loop
      vertex -5.25066 -1.46724 2
      vertex -5.0871 -1.86211 0
      vertex -5.0871 -1.86211 2
    endloop
  endfacet
  facet normal -0.95694 -0.290286 0
    outer loop
      vertex -5.25066 -1.46724 0
      vertex -5.37472 -1.05824 2
      vertex -5.37472 -1.05824 0
    endloop
  endfacet
  facet normal -0.95694 -0.290286 0
    outer loop
      vertex -5.37472 -1.05824 2
      vertex -5.25066 -1.46724 0
      vertex -5.25066 -1.46724 2
    endloop
  endfacet
endsolid OpenSCAD_Model
