  0
SECTION
  2
BLOCKS
  0
ENDSEC
  0
SECTION
  2
ENTITIES
  0
LINE
  8
0
 10
-45.5312
 20
9.5
 11
-44.75
 21
9.5
  0
LINE
  8
0
 10
-44.75
 20
9.5
 11
-44.75
 21
8.5
  0
LINE
  8
0
 10
-44.75
 20
8.5
 11
32.25
 21
8.5
  0
LINE
  8
0
 10
32.25
 20
8.5
 11
32.25
 21
9.5
  0
LINE
  8
0
 10
32.25
 20
9.5
 11
33.0312
 21
9.5
  0
LINE
  8
0
 10
33.0312
 20
9.5
 11
33.0313
 21
8.5
  0
LINE
  8
0
 10
33.0313
 20
8.5
 11
34.0312
 21
8.5
  0
LINE
  8
0
 10
34.0312
 20
8.5
 11
34.0312
 21
12
  0
LINE
  8
0
 10
34.0312
 20
12
 11
32.25
 21
12
  0
LINE
  8
0
 10
32.25
 20
12
 11
32.25
 21
16.5
  0
LINE
  8
0
 10
32.25
 20
16.5
 11
33.0312
 21
16.5
  0
LINE
  8
0
 10
33.0312
 20
16.5
 11
33.0313
 21
15.5
  0
LINE
  8
0
 10
33.0313
 20
15.5
 11
34.0312
 21
15.5
  0
LINE
  8
0
 10
34.0312
 20
15.5
 11
34.0312
 21
19
  0
LINE
  8
0
 10
34.0312
 20
19
 11
32.25
 21
19
  0
LINE
  8
0
 10
32.25
 20
19
 11
32.25
 21
21.25
  0
LINE
  8
0
 10
32.25
 20
21.25
 11
-44.75
 21
21.25
  0
LINE
  8
0
 10
-44.75
 20
21.25
 11
-44.75
 21
19
  0
LINE
  8
0
 10
-44.75
 20
19
 11
-46.5312
 21
19
  0
LINE
  8
0
 10
-46.5312
 20
19
 11
-46.5312
 21
15.5
  0
LINE
  8
0
 10
-46.5312
 20
15.5
 11
-45.5313
 21
15.5
  0
LINE
  8
0
 10
-45.5313
 20
15.5
 11
-45.5312
 21
16.5
  0
LINE
  8
0
 10
-45.5312
 20
16.5
 11
-44.75
 21
16.5
  0
LINE
  8
0
 10
-44.75
 20
16.5
 11
-44.75
 21
12
  0
LINE
  8
0
 10
-44.75
 20
12
 11
-46.5312
 21
12
  0
LINE
  8
0
 10
-46.5312
 20
12
 11
-46.5312
 21
8.5
  0
LINE
  8
0
 10
-46.5312
 20
8.5
 11
-45.5313
 21
8.5
  0
LINE
  8
0
 10
-45.5313
 20
8.5
 11
-45.5312
 21
9.5
  0
LINE
  8
0
 10
20.8438
 20
9.96875
 11
20.8438
 21
10.7812
  0
LINE
  8
0
 10
20.8438
 20
10.7812
 11
24.4062
 21
10.7812
  0
LINE
  8
0
 10
24.4062
 20
10.7812
 11
24.4062
 21
9.96875
  0
LINE
  8
0
 10
24.4062
 20
9.96875
 11
20.8438
 21
9.96875
  0
LINE
  8
0
 10
-36.9062
 20
9.96875
 11
-36.9062
 21
10.7812
  0
LINE
  8
0
 10
-36.9062
 20
10.7812
 11
-33.3438
 21
10.7812
  0
LINE
  8
0
 10
-33.3438
 20
10.7812
 11
-33.3438
 21
9.96875
  0
LINE
  8
0
 10
-33.3438
 20
9.96875
 11
-36.9062
 21
9.96875
  0
LINE
  8
0
 10
-17.6562
 20
9.96875
 11
-17.6562
 21
10.7812
  0
LINE
  8
0
 10
-17.6562
 20
10.7812
 11
-14.0938
 21
10.7812
  0
LINE
  8
0
 10
-14.0938
 20
10.7812
 11
-14.0938
 21
9.96875
  0
LINE
  8
0
 10
-14.0938
 20
9.96875
 11
-17.6562
 21
9.96875
  0
LINE
  8
0
 10
1.59375
 20
9.96875
 11
1.59375
 21
10.7812
  0
LINE
  8
0
 10
1.59375
 20
10.7812
 11
5.15625
 21
10.7812
  0
LINE
  8
0
 10
5.15625
 20
10.7812
 11
5.15625
 21
9.96875
  0
LINE
  8
0
 10
5.15625
 20
9.96875
 11
1.59375
 21
9.96875
  0
LINE
  8
0
 10
-45.5312
 20
-3.75
 11
-44.75
 21
-3.75
  0
LINE
  8
0
 10
-44.75
 20
-3.75
 11
-44.75
 21
-4.75
  0
LINE
  8
0
 10
-44.75
 20
-4.75
 11
32.25
 21
-4.75
  0
LINE
  8
0
 10
32.25
 20
-4.75
 11
32.25
 21
-3.75
  0
LINE
  8
0
 10
32.25
 20
-3.75
 11
33.0312
 21
-3.75
  0
LINE
  8
0
 10
33.0312
 20
-3.75
 11
33.0313
 21
-4.75
  0
LINE
  8
0
 10
33.0313
 20
-4.75
 11
34.0312
 21
-4.75
  0
LINE
  8
0
 10
34.0312
 20
-4.75
 11
34.0312
 21
-1.25
  0
LINE
  8
0
 10
34.0312
 20
-1.25
 11
32.25
 21
-1.25
  0
LINE
  8
0
 10
32.25
 20
-1.25
 11
32.25
 21
3.25
  0
LINE
  8
0
 10
32.25
 20
3.25
 11
33.0312
 21
3.25
  0
LINE
  8
0
 10
33.0312
 20
3.25
 11
33.0313
 21
2.25
  0
LINE
  8
0
 10
33.0313
 20
2.25
 11
34.0312
 21
2.25
  0
LINE
  8
0
 10
34.0312
 20
2.25
 11
34.0312
 21
5.75
  0
LINE
  8
0
 10
34.0312
 20
5.75
 11
32.25
 21
5.75
  0
LINE
  8
0
 10
32.25
 20
5.75
 11
32.25
 21
8
  0
LINE
  8
0
 10
32.25
 20
8
 11
-44.75
 21
8
  0
LINE
  8
0
 10
-44.75
 20
8
 11
-44.75
 21
5.75
  0
LINE
  8
0
 10
-44.75
 20
5.75
 11
-46.5312
 21
5.75
  0
LINE
  8
0
 10
-46.5312
 20
5.75
 11
-46.5312
 21
2.25
  0
LINE
  8
0
 10
-46.5312
 20
2.25
 11
-45.5313
 21
2.25
  0
LINE
  8
0
 10
-45.5313
 20
2.25
 11
-45.5312
 21
3.25
  0
LINE
  8
0
 10
-45.5312
 20
3.25
 11
-44.75
 21
3.25
  0
LINE
  8
0
 10
-44.75
 20
3.25
 11
-44.75
 21
-1.25
  0
LINE
  8
0
 10
-44.75
 20
-1.25
 11
-46.5312
 21
-1.25
  0
LINE
  8
0
 10
-46.5312
 20
-1.25
 11
-46.5312
 21
-4.75
  0
LINE
  8
0
 10
-46.5312
 20
-4.75
 11
-45.5313
 21
-4.75
  0
LINE
  8
0
 10
-45.5313
 20
-4.75
 11
-45.5312
 21
-3.75
  0
LINE
  8
0
 10
-36.9062
 20
-3.28125
 11
-36.9062
 21
-2.46875
  0
LINE
  8
0
 10
-36.9062
 20
-2.46875
 11
-33.3438
 21
-2.46875
  0
LINE
  8
0
 10
-33.3438
 20
-2.46875
 11
-33.3438
 21
-3.28125
  0
LINE
  8
0
 10
-33.3438
 20
-3.28125
 11
-36.9062
 21
-3.28125
  0
LINE
  8
0
 10
-17.6562
 20
-3.28125
 11
-17.6562
 21
-2.46875
  0
LINE
  8
0
 10
-17.6562
 20
-2.46875
 11
-14.0938
 21
-2.46875
  0
LINE
  8
0
 10
-14.0938
 20
-2.46875
 11
-14.0938
 21
-3.28125
  0
LINE
  8
0
 10
-14.0938
 20
-3.28125
 11
-17.6562
 21
-3.28125
  0
LINE
  8
0
 10
1.59375
 20
-3.28125
 11
1.59375
 21
-2.46875
  0
LINE
  8
0
 10
1.59375
 20
-2.46875
 11
5.15625
 21
-2.46875
  0
LINE
  8
0
 10
5.15625
 20
-2.46875
 11
5.15625
 21
-3.28125
  0
LINE
  8
0
 10
5.15625
 20
-3.28125
 11
1.59375
 21
-3.28125
  0
LINE
  8
0
 10
20.8438
 20
-3.28125
 11
20.8438
 21
-2.46875
  0
LINE
  8
0
 10
20.8438
 20
-2.46875
 11
24.4062
 21
-2.46875
  0
LINE
  8
0
 10
24.4062
 20
-2.46875
 11
24.4062
 21
-3.28125
  0
LINE
  8
0
 10
24.4062
 20
-3.28125
 11
20.8438
 21
-3.28125
  0
LINE
  8
0
 10
-45.5312
 20
-17
 11
-44.75
 21
-17
  0
LINE
  8
0
 10
-44.75
 20
-17
 11
-44.75
 21
-18
  0
LINE
  8
0
 10
-44.75
 20
-18
 11
32.25
 21
-18
  0
LINE
  8
0
 10
32.25
 20
-18
 11
32.25
 21
-17
  0
LINE
  8
0
 10
32.25
 20
-17
 11
33.0312
 21
-17
  0
LINE
  8
0
 10
33.0312
 20
-17
 11
33.0313
 21
-18
  0
LINE
  8
0
 10
33.0313
 20
-18
 11
34.0312
 21
-18
  0
LINE
  8
0
 10
34.0312
 20
-18
 11
34.0312
 21
-14.5
  0
LINE
  8
0
 10
34.0312
 20
-14.5
 11
32.25
 21
-14.5
  0
LINE
  8
0
 10
32.25
 20
-14.5
 11
32.25
 21
-10
  0
LINE
  8
0
 10
32.25
 20
-10
 11
33.0312
 21
-10
  0
LINE
  8
0
 10
33.0312
 20
-10
 11
33.0313
 21
-11
  0
LINE
  8
0
 10
33.0313
 20
-11
 11
34.0312
 21
-11
  0
LINE
  8
0
 10
34.0312
 20
-11
 11
34.0312
 21
-7.5
  0
LINE
  8
0
 10
34.0312
 20
-7.5
 11
32.25
 21
-7.5
  0
LINE
  8
0
 10
32.25
 20
-7.5
 11
32.25
 21
-5.25
  0
LINE
  8
0
 10
32.25
 20
-5.25
 11
-44.75
 21
-5.25
  0
LINE
  8
0
 10
-44.75
 20
-5.25
 11
-44.75
 21
-7.5
  0
LINE
  8
0
 10
-44.75
 20
-7.5
 11
-46.5312
 21
-7.5
  0
LINE
  8
0
 10
-46.5312
 20
-7.5
 11
-46.5312
 21
-11
  0
LINE
  8
0
 10
-46.5312
 20
-11
 11
-45.5313
 21
-11
  0
LINE
  8
0
 10
-45.5313
 20
-11
 11
-45.5312
 21
-10
  0
LINE
  8
0
 10
-45.5312
 20
-10
 11
-44.75
 21
-10
  0
LINE
  8
0
 10
-44.75
 20
-10
 11
-44.75
 21
-14.5
  0
LINE
  8
0
 10
-44.75
 20
-14.5
 11
-46.5312
 21
-14.5
  0
LINE
  8
0
 10
-46.5312
 20
-14.5
 11
-46.5312
 21
-18
  0
LINE
  8
0
 10
-46.5312
 20
-18
 11
-45.5313
 21
-18
  0
LINE
  8
0
 10
-45.5313
 20
-18
 11
-45.5312
 21
-17
  0
LINE
  8
0
 10
20.8438
 20
-16.5312
 11
20.8438
 21
-15.7188
  0
LINE
  8
0
 10
20.8438
 20
-15.7188
 11
24.4062
 21
-15.7188
  0
LINE
  8
0
 10
24.4062
 20
-15.7188
 11
24.4062
 21
-16.5312
  0
LINE
  8
0
 10
24.4062
 20
-16.5312
 11
20.8438
 21
-16.5312
  0
LINE
  8
0
 10
-36.9062
 20
-16.5312
 11
-36.9062
 21
-15.7188
  0
LINE
  8
0
 10
-36.9062
 20
-15.7188
 11
-33.3438
 21
-15.7188
  0
LINE
  8
0
 10
-33.3438
 20
-15.7188
 11
-33.3438
 21
-16.5312
  0
LINE
  8
0
 10
-33.3438
 20
-16.5312
 11
-36.9062
 21
-16.5312
  0
LINE
  8
0
 10
-17.6562
 20
-16.5312
 11
-17.6562
 21
-15.7188
  0
LINE
  8
0
 10
-17.6562
 20
-15.7188
 11
-14.0938
 21
-15.7188
  0
LINE
  8
0
 10
-14.0938
 20
-15.7188
 11
-14.0938
 21
-16.5312
  0
LINE
  8
0
 10
-14.0938
 20
-16.5312
 11
-17.6562
 21
-16.5312
  0
LINE
  8
0
 10
1.59375
 20
-16.5312
 11
1.59375
 21
-15.7188
  0
LINE
  8
0
 10
1.59375
 20
-15.7188
 11
5.15625
 21
-15.7188
  0
LINE
  8
0
 10
5.15625
 20
-15.7188
 11
5.15625
 21
-16.5312
  0
LINE
  8
0
 10
5.15625
 20
-16.5312
 11
1.59375
 21
-16.5312
  0
LINE
  8
0
 10
32.25
 20
-18.5
 11
-44.75
 21
-18.5
  0
LINE
  8
0
 10
-44.75
 20
-18.5
 11
-44.75
 21
-20
  0
LINE
  8
0
 10
-44.75
 20
-20
 11
32.25
 21
-20
  0
LINE
  8
0
 10
32.25
 20
-20
 11
32.25
 21
-18.5
  0
LINE
  8
0
 10
32.25
 20
-20.5
 11
-44.75
 21
-20.5
  0
LINE
  8
0
 10
-44.75
 20
-20.5
 11
-44.75
 21
-22
  0
LINE
  8
0
 10
-44.75
 20
-22
 11
32.25
 21
-22
  0
LINE
  8
0
 10
32.25
 20
-22
 11
32.25
 21
-20.5
  0
ENDSEC
  0
SECTION
  2
OBJECTS
  0
DICTIONARY
  0
ENDSEC
  0
EOF
