<?xml version="1.0" standalone="no"?>
<!DOCTYPE svg PUBLIC "-//W3C//DTD SVG 1.1//EN" "http://www.w3.org/Graphics/SVG/1.1/DTD/svg11.dtd">
<svg width="2309" height="1130" viewBox="-1169 -565 2309 1130" xmlns="http://www.w3.org/2000/svg" version="1.1">
<title>OpenSCAD Model</title>
<path d="
M 68.8251,561.87 L 75.3344,557.141 L 80.0636,550.631 L 82.55,542.979 L 82.55,-542.979 L 80.0637,-550.631
 L 75.3344,-557.141 L 68.8251,-561.87 L 61.173,-564.356 L -1147.02,-564.356 L -1154.68,-561.87 L -1161.18,-557.141
 L -1165.91,-550.631 L -1168.4,-542.979 L -1168.4,542.979 L -1165.91,550.631 L -1161.18,557.141 L -1154.68,561.87
 L -1147.02,564.356 L 61.1729,564.356 z
M -1112.44,-513.159 L -1112.44,-534.591 L -1021.16,-534.591 L -1021.16,-513.159 z
M -934.641,-513.159 L -934.641,-534.591 L -843.359,-534.591 L -843.359,-513.159 z
M -236.141,-513.159 L -236.141,-534.591 L -144.859,-534.591 L -144.859,-513.159 z
M -58.3406,-513.159 L -58.3406,-534.591 L 32.9406,-534.591 L 32.9406,-513.159 z
M -716.81,282.178 L -724.463,279.692 L -730.972,274.962 L -735.701,268.453 L -738.187,260.801 L -738.187,-260.801
 L -735.701,-268.453 L -730.972,-274.963 L -724.463,-279.692 L -716.81,-282.178 L -454.765,-282.178 L -447.112,-279.692
 L -440.603,-274.963 L -435.874,-268.453 L -433.388,-260.801 L -433.388,260.801 L -435.874,268.453 L -440.603,274.963
 L -447.112,279.692 L -454.765,282.178 z
M -877.491,-163.909 L -877.491,-255.191 L -856.059,-255.191 L -856.059,-163.909 z
M -1.19064,-163.909 L -1.19062,-255.191 L 20.2406,-255.191 L 20.2406,-163.909 z
M -877.491,255.191 L -877.491,163.909 L -856.059,163.909 L -856.059,255.191 z
M -1.19064,255.191 L -1.19062,163.909 L 20.2406,163.909 L 20.2406,255.191 z
M -1112.44,534.591 L -1112.44,513.159 L -1021.16,513.159 L -1021.16,534.591 z
M -934.641,534.591 L -934.641,513.159 L -843.359,513.159 L -843.359,534.591 z
M -58.3406,534.591 L -58.3406,513.159 L 32.9406,513.159 L 32.9406,534.591 z
M -236.141,534.591 L -236.141,513.159 L -144.859,513.159 L -144.859,534.591 z
M 400.569,559.343 L 403.824,556.978 L 406.189,553.723 L 407.432,549.897 L 407.432,513.755 L 830.897,513.755
 L 830.897,535.186 L 804.307,535.186 L 804.307,549.897 L 805.55,553.723 L 807.915,556.978 L 811.169,559.343
 L 814.995,560.586 L 882.518,560.586 L 886.344,559.343 L 889.599,556.978 L 891.964,553.723 L 893.207,549.897
 L 893.207,513.755 L 1115.85,513.755 L 1115.85,254 L 1131.65,254 L 1134.52,253.068 L 1136.96,251.294
 L 1138.73,248.853 L 1139.67,245.984 L 1139.67,173.116 L 1138.73,170.247 L 1136.96,167.806 L 1134.52,166.032
 L 1131.65,165.1 L 1115.85,165.1 L 1115.85,-165.1 L 1131.65,-165.1 L 1134.52,-166.032 L 1136.96,-167.806
 L 1138.73,-170.247 L 1139.67,-173.116 L 1139.67,-245.984 L 1138.73,-248.853 L 1136.96,-251.294 L 1134.52,-253.068
 L 1131.65,-254 L 1115.85,-254 L 1115.85,-513.755 L 893.207,-513.755 L 893.207,-549.897 L 891.964,-553.723
 L 889.599,-556.978 L 886.344,-559.343 L 882.518,-560.586 L 814.995,-560.586 L 811.169,-559.343 L 807.915,-556.978
 L 805.55,-553.723 L 804.307,-549.897 L 804.307,-535.186 L 830.897,-535.186 L 830.897,-513.755 L 407.432,-513.755
 L 407.432,-549.897 L 406.189,-553.723 L 403.824,-556.978 L 400.569,-559.343 L 396.743,-560.586 L 329.22,-560.586
 L 325.394,-559.343 L 322.14,-556.978 L 319.775,-553.723 L 318.532,-549.897 L 318.532,-535.186 L 345.123,-535.186
 L 345.123,-513.755 L 146.685,-513.755 L 146.685,513.755 L 345.123,513.755 L 345.123,535.186 L 318.532,535.186
 L 318.532,549.897 L 319.775,553.723 L 322.14,556.978 L 325.394,559.343 L 329.22,560.586 L 396.743,560.586
 z
" stroke="black" fill="lightgray" stroke-width="0.5"/></svg>
