<?xml version="1.0" standalone="no"?>
<!DOCTYPE svg PUBLIC "-//W3C//DTD SVG 1.1//EN" "http://www.w3.org/Graphics/SVG/1.1/DTD/svg11.dtd">
<svg width="2047" height="1099" viewBox="-1182 -540 2047 1099" xmlns="http://www.w3.org/2000/svg" version="1.1">
<title>OpenSCAD Model</title>
<path d="
M -1156.49,-241.3 L -1136.65,-241.3 L -1136.65,-215.9 L 819.15,-215.9 L 819.15,-241.3 L 838.994,-241.3
 L 838.994,-215.9 L 864.394,-215.9 L 864.394,-304.8 L 819.15,-304.8 L 819.15,-419.1 L 838.994,-419.1
 L 838.994,-393.7 L 864.394,-393.7 L 864.394,-482.6 L 819.15,-482.6 L 819.15,-539.75 L -1136.65,-539.75
 L -1136.65,-482.6 L -1181.89,-482.6 L -1181.89,-393.7 L -1156.49,-393.7 L -1156.49,-419.1 L -1136.65,-419.1
 L -1136.65,-304.8 L -1181.89,-304.8 L -1181.89,-215.9 L -1156.49,-215.9 z
M 529.431,-253.206 L 529.431,-273.844 L 619.919,-273.844 L 619.919,-253.206 z
M -937.419,-253.206 L -937.419,-273.844 L -846.931,-273.844 L -846.931,-253.206 z
M -448.469,-253.206 L -448.469,-273.844 L -357.981,-273.844 L -357.981,-253.206 z
M 40.4812,-253.206 L 40.4812,-273.844 L 130.969,-273.844 L 130.969,-253.206 z
M -1156.49,95.25 L -1136.65,95.25 L -1136.65,120.65 L 819.15,120.65 L 819.15,95.25 L 838.994,95.25
 L 838.994,120.65 L 864.394,120.65 L 864.394,31.75 L 819.15,31.75 L 819.15,-82.55 L 838.994,-82.55
 L 838.994,-57.15 L 864.394,-57.15 L 864.394,-146.05 L 819.15,-146.05 L 819.15,-203.2 L -1136.65,-203.2
 L -1136.65,-146.05 L -1181.89,-146.05 L -1181.89,-57.15 L -1156.49,-57.15 L -1156.49,-82.55 L -1136.65,-82.55
 L -1136.65,31.75 L -1181.89,31.75 L -1181.89,120.65 L -1156.49,120.65 z
M -937.419,83.3438 L -937.419,62.7063 L -846.931,62.7063 L -846.931,83.3438 z
M -448.469,83.3438 L -448.469,62.7063 L -357.981,62.7063 L -357.981,83.3438 z
M 40.4812,83.3438 L 40.4812,62.7063 L 130.969,62.7063 L 130.969,83.3438 z
M 529.431,83.3438 L 529.431,62.7063 L 619.919,62.7063 L 619.919,83.3438 z
M -1156.49,431.8 L -1136.65,431.8 L -1136.65,457.2 L 819.15,457.2 L 819.15,431.8 L 838.994,431.8
 L 838.994,457.2 L 864.394,457.2 L 864.394,368.3 L 819.15,368.3 L 819.15,254 L 838.994,254
 L 838.994,279.4 L 864.394,279.4 L 864.394,190.5 L 819.15,190.5 L 819.15,133.35 L -1136.65,133.35
 L -1136.65,190.5 L -1181.89,190.5 L -1181.89,279.4 L -1156.49,279.4 L -1156.49,254 L -1136.65,254
 L -1136.65,368.3 L -1181.89,368.3 L -1181.89,457.2 L -1156.49,457.2 z
M 529.431,419.894 L 529.431,399.256 L 619.919,399.256 L 619.919,419.894 z
M -937.419,419.894 L -937.419,399.256 L -846.931,399.256 L -846.931,419.894 z
M -448.469,419.894 L -448.469,399.256 L -357.981,399.256 L -357.981,419.894 z
M 40.4812,419.894 L 40.4812,399.256 L 130.969,399.256 L 130.969,419.894 z
M 819.15,469.9 L -1136.65,469.9 L -1136.65,508 L 819.15,508 z
M 819.15,520.7 L -1136.65,520.7 L -1136.65,558.8 L 819.15,558.8 z
" stroke="black" fill="lightgray" stroke-width="0.5"/></svg>
