<?xml version="1.0" standalone="no"?>
<!DOCTYPE svg PUBLIC "-//W3C//DTD SVG 1.1//EN" "http://www.w3.org/Graphics/SVG/1.1/DTD/svg11.dtd">
<svg width="2265" height="1166" viewBox="-1194 -583 2265 1166" xmlns="http://www.w3.org/2000/svg" version="1.1">
<title>OpenSCAD Model</title>
<path d="
M 43.4251,580.126 L 49.9344,575.397 L 54.6636,568.888 L 57.15,561.235 L 57.15,-561.235 L 54.6637,-568.888
 L 49.9344,-575.397 L 43.4251,-580.126 L 35.773,-582.612 L -1172.42,-582.612 L -1180.08,-580.126 L -1186.58,-575.397
 L -1191.31,-568.888 L -1193.8,-561.235 L -1193.8,-427.777 L -1191.31,-420.125 L -1186.58,-413.616 L -1180.08,-408.886
 L -1172.42,-406.4 L -994.197,-406.4 L -986.545,-403.914 L -980.036,-399.184 L -975.306,-392.675 L -972.82,-385.023
 L -972.82,80.2229 L -975.306,87.8751 L -980.036,94.3844 L -986.545,99.1136 L -994.197,101.6 L -1172.42,101.6
 L -1180.08,104.086 L -1186.58,108.816 L -1191.31,115.325 L -1193.8,122.977 L -1193.8,561.235 L -1191.31,568.888
 L -1186.58,575.397 L -1180.08,580.126 L -1172.42,582.612 L 35.7729,582.612 z
M -1137.44,-532.606 L -1137.44,-553.244 L -1046.96,-553.244 L -1046.96,-532.606 z
M -959.644,-532.606 L -959.644,-553.244 L -869.156,-553.244 L -869.156,-532.606 z
M -261.144,-532.606 L -261.144,-553.244 L -170.656,-553.244 L -170.656,-532.606 z
M -83.3438,-532.606 L -83.3438,-553.244 L 7.14375,-553.244 L 7.14375,-532.606 z
M -772.373,101.6 L -780.025,99.1136 L -786.534,94.3844 L -791.264,87.8751 L -793.75,80.2229 L -793.75,-385.023
 L -791.264,-392.675 L -786.534,-399.184 L -780.025,-403.914 L -772.373,-406.4 L -688.127,-406.4 L -680.475,-403.914
 L -673.966,-399.184 L -669.236,-392.675 L -666.75,-385.023 L -666.75,80.2229 L -669.236,87.8751 L -673.966,94.3844
 L -680.475,99.1136 L -688.127,101.6 z
M -518.373,101.6 L -526.025,99.1136 L -532.534,94.3844 L -537.264,87.8751 L -539.75,80.2229 L -539.75,-385.023
 L -537.264,-392.675 L -532.534,-399.184 L -526.025,-403.914 L -518.373,-406.4 L -434.127,-406.4 L -426.475,-403.914
 L -419.966,-399.184 L -415.236,-392.675 L -412.75,-385.023 L -412.75,80.2229 L -415.236,87.8751 L -419.966,94.3844
 L -426.475,99.1136 L -434.127,101.6 z
M -264.373,101.6 L -272.025,99.1136 L -278.534,94.3844 L -283.264,87.8751 L -285.75,80.2229 L -285.75,-385.023
 L -283.264,-392.675 L -278.534,-399.184 L -272.025,-403.914 L -264.373,-406.4 L -180.127,-406.4 L -172.475,-403.914
 L -165.966,-399.184 L -161.236,-392.675 L -158.75,-385.023 L -158.75,80.2229 L -161.236,87.8751 L -165.966,94.3844
 L -172.475,99.1136 L -180.127,101.6 z
M -921.544,-164.306 L -921.544,-254.794 L -881.856,-254.794 L -881.856,-164.306 z
M -45.2438,-164.306 L -45.2438,-254.794 L -5.55626,-254.794 L -5.55626,-164.306 z
M -921.544,254.794 L -921.544,164.306 L -881.856,164.306 L -881.856,254.794 z
M -45.2438,254.794 L -45.2438,164.306 L -5.55626,164.306 L -5.55626,254.794 z
M -1137.44,553.244 L -1137.44,532.606 L -1046.96,532.606 L -1046.96,553.244 z
M -959.644,553.244 L -959.644,532.606 L -869.156,532.606 L -869.156,553.244 z
M -83.3438,553.244 L -83.3438,532.606 L 7.14373,532.606 L 7.14373,553.244 z
M -261.144,553.244 L -261.144,532.606 L -170.656,532.606 L -170.656,553.244 z
M 326.354,577.004 L 329.608,574.639 L 331.973,571.384 L 333.216,567.558 L 333.216,533.003 L 758.666,533.003
 L 758.666,552.847 L 743.955,552.847 L 740.129,554.09 L 736.874,556.455 L 734.509,559.709 L 733.266,563.535
 L 733.266,567.558 L 734.509,571.384 L 736.874,574.639 L 740.129,577.004 L 743.955,578.247 L 811.478,578.247
 L 815.304,577.004 L 818.558,574.639 L 820.923,571.384 L 822.166,567.558 L 822.166,533.003 L 1046.8,533.003
 L 1046.8,256.672 L 1047.11,255.716 L 1047.7,254.902 L 1048.51,254.311 L 1049.47,254 L 1062.59,254
 L 1065.46,253.068 L 1067.9,251.294 L 1069.68,248.853 L 1070.61,245.984 L 1070.61,173.116 L 1069.68,170.247
 L 1067.9,167.806 L 1065.46,166.032 L 1062.59,165.1 L 1049.47,165.1 L 1048.51,164.789 L 1047.7,164.198
 L 1047.11,163.384 L 1046.8,162.428 L 1046.8,-162.428 L 1047.11,-163.384 L 1047.7,-164.198 L 1048.51,-164.789
 L 1049.47,-165.1 L 1062.59,-165.1 L 1065.46,-166.032 L 1067.9,-167.806 L 1069.68,-170.247 L 1070.61,-173.116
 L 1070.61,-245.984 L 1069.68,-248.853 L 1067.9,-251.294 L 1065.46,-253.068 L 1062.59,-254 L 1049.47,-254
 L 1048.51,-254.311 L 1047.7,-254.902 L 1047.11,-255.716 L 1046.8,-256.672 L 1046.8,-533.003 L 822.166,-533.003
 L 822.166,-567.558 L 820.923,-571.384 L 818.558,-574.639 L 815.304,-577.004 L 811.478,-578.247 L 743.955,-578.247
 L 740.129,-577.004 L 736.874,-574.639 L 734.509,-571.384 L 733.266,-567.558 L 733.266,-563.535 L 734.509,-559.709
 L 736.874,-556.455 L 740.129,-554.09 L 743.955,-552.847 L 758.666,-552.847 L 758.666,-533.003 L 333.216,-533.003
 L 333.216,-567.558 L 331.973,-571.384 L 329.608,-574.639 L 326.354,-577.004 L 322.528,-578.247 L 255.005,-578.247
 L 251.179,-577.004 L 247.924,-574.639 L 245.559,-571.384 L 244.316,-567.558 L 244.316,-563.535 L 245.559,-559.709
 L 247.924,-556.455 L 251.179,-554.09 L 255.005,-552.847 L 269.716,-552.847 L 269.716,-533.003 L 70.485,-533.003
 L 70.485,533.003 L 269.716,533.003 L 269.716,552.847 L 255.005,552.847 L 251.179,554.09 L 247.924,556.455
 L 245.559,559.709 L 244.316,563.535 L 244.316,567.558 L 245.559,571.384 L 247.924,574.639 L 251.179,577.004
 L 255.005,578.247 L 322.528,578.247 z
" stroke="black" fill="lightgray" stroke-width="0.5"/></svg>
