  0
SECTION
  2
BLOCKS
  0
ENDSEC
  0
SECTION
  2
ENTITIES
  0
LINE
  8
0
 10
-1163.36
 20
217.143
 11
-1160.1
 21
219.508
  0
LINE
  8
0
 10
-1160.1
 20
219.508
 11
-1157.74
 21
222.762
  0
LINE
  8
0
 10
-1157.74
 20
222.762
 11
-1156.49
 21
226.589
  0
LINE
  8
0
 10
-1156.49
 20
226.589
 11
-1156.49
 21
241.3
  0
LINE
  8
0
 10
-1156.49
 20
241.3
 11
-1136.65
 21
241.3
  0
LINE
  8
0
 10
-1136.65
 20
241.3
 11
-1136.65
 21
215.9
  0
LINE
  8
0
 10
-1136.65
 20
215.9
 11
819.15
 21
215.9
  0
LINE
  8
0
 10
819.15
 20
215.9
 11
819.15
 21
241.3
  0
LINE
  8
0
 10
819.15
 20
241.3
 11
838.994
 21
241.3
  0
LINE
  8
0
 10
838.994
 20
241.3
 11
838.994
 21
226.589
  0
LINE
  8
0
 10
838.994
 20
226.589
 11
840.237
 21
222.762
  0
LINE
  8
0
 10
840.237
 20
222.762
 11
842.602
 21
219.508
  0
LINE
  8
0
 10
842.602
 20
219.508
 11
845.856
 21
217.143
  0
LINE
  8
0
 10
845.856
 20
217.143
 11
849.682
 21
215.9
  0
LINE
  8
0
 10
849.682
 20
215.9
 11
853.705
 21
215.9
  0
LINE
  8
0
 10
853.705
 20
215.9
 11
857.531
 21
217.143
  0
LINE
  8
0
 10
857.531
 20
217.143
 11
860.786
 21
219.508
  0
LINE
  8
0
 10
860.786
 20
219.508
 11
863.151
 21
222.762
  0
LINE
  8
0
 10
863.151
 20
222.762
 11
864.394
 21
226.589
  0
LINE
  8
0
 10
864.394
 20
226.589
 11
864.394
 21
294.111
  0
LINE
  8
0
 10
864.394
 20
294.111
 11
863.151
 21
297.938
  0
LINE
  8
0
 10
863.151
 20
297.938
 11
860.786
 21
301.192
  0
LINE
  8
0
 10
860.786
 20
301.192
 11
857.531
 21
303.557
  0
LINE
  8
0
 10
857.531
 20
303.557
 11
853.705
 21
304.8
  0
LINE
  8
0
 10
853.705
 20
304.8
 11
819.15
 21
304.8
  0
LINE
  8
0
 10
819.15
 20
304.8
 11
819.15
 21
419.1
  0
LINE
  8
0
 10
819.15
 20
419.1
 11
838.994
 21
419.1
  0
LINE
  8
0
 10
838.994
 20
419.1
 11
838.994
 21
404.389
  0
LINE
  8
0
 10
838.994
 20
404.389
 11
840.237
 21
400.562
  0
LINE
  8
0
 10
840.237
 20
400.562
 11
842.602
 21
397.308
  0
LINE
  8
0
 10
842.602
 20
397.308
 11
845.856
 21
394.943
  0
LINE
  8
0
 10
845.856
 20
394.943
 11
849.682
 21
393.7
  0
LINE
  8
0
 10
849.682
 20
393.7
 11
853.705
 21
393.7
  0
LINE
  8
0
 10
853.705
 20
393.7
 11
857.531
 21
394.943
  0
LINE
  8
0
 10
857.531
 20
394.943
 11
860.786
 21
397.308
  0
LINE
  8
0
 10
860.786
 20
397.308
 11
863.151
 21
400.562
  0
LINE
  8
0
 10
863.151
 20
400.562
 11
864.394
 21
404.389
  0
LINE
  8
0
 10
864.394
 20
404.389
 11
864.394
 21
471.911
  0
LINE
  8
0
 10
864.394
 20
471.911
 11
863.151
 21
475.738
  0
LINE
  8
0
 10
863.151
 20
475.738
 11
860.786
 21
478.992
  0
LINE
  8
0
 10
860.786
 20
478.992
 11
857.531
 21
481.357
  0
LINE
  8
0
 10
857.531
 20
481.357
 11
853.705
 21
482.6
  0
LINE
  8
0
 10
853.705
 20
482.6
 11
819.15
 21
482.6
  0
LINE
  8
0
 10
819.15
 20
482.6
 11
819.15
 21
539.75
  0
LINE
  8
0
 10
819.15
 20
539.75
 11
-1136.65
 21
539.75
  0
LINE
  8
0
 10
-1136.65
 20
539.75
 11
-1136.65
 21
482.6
  0
LINE
  8
0
 10
-1136.65
 20
482.6
 11
-1171.21
 21
482.6
  0
LINE
  8
0
 10
-1171.21
 20
482.6
 11
-1175.03
 21
481.357
  0
LINE
  8
0
 10
-1175.03
 20
481.357
 11
-1178.29
 21
478.992
  0
LINE
  8
0
 10
-1178.29
 20
478.992
 11
-1180.65
 21
475.738
  0
LINE
  8
0
 10
-1180.65
 20
475.738
 11
-1181.89
 21
471.911
  0
LINE
  8
0
 10
-1181.89
 20
471.911
 11
-1181.89
 21
404.389
  0
LINE
  8
0
 10
-1181.89
 20
404.389
 11
-1180.65
 21
400.562
  0
LINE
  8
0
 10
-1180.65
 20
400.562
 11
-1178.29
 21
397.308
  0
LINE
  8
0
 10
-1178.29
 20
397.308
 11
-1175.03
 21
394.943
  0
LINE
  8
0
 10
-1175.03
 20
394.943
 11
-1171.21
 21
393.7
  0
LINE
  8
0
 10
-1171.21
 20
393.7
 11
-1167.18
 21
393.7
  0
LINE
  8
0
 10
-1167.18
 20
393.7
 11
-1163.36
 21
394.943
  0
LINE
  8
0
 10
-1163.36
 20
394.943
 11
-1160.1
 21
397.308
  0
LINE
  8
0
 10
-1160.1
 20
397.308
 11
-1157.74
 21
400.562
  0
LINE
  8
0
 10
-1157.74
 20
400.562
 11
-1156.49
 21
404.389
  0
LINE
  8
0
 10
-1156.49
 20
404.389
 11
-1156.49
 21
419.1
  0
LINE
  8
0
 10
-1156.49
 20
419.1
 11
-1136.65
 21
419.1
  0
LINE
  8
0
 10
-1136.65
 20
419.1
 11
-1136.65
 21
304.8
  0
LINE
  8
0
 10
-1136.65
 20
304.8
 11
-1171.21
 21
304.8
  0
LINE
  8
0
 10
-1171.21
 20
304.8
 11
-1175.03
 21
303.557
  0
LINE
  8
0
 10
-1175.03
 20
303.557
 11
-1178.29
 21
301.192
  0
LINE
  8
0
 10
-1178.29
 20
301.192
 11
-1180.65
 21
297.938
  0
LINE
  8
0
 10
-1180.65
 20
297.938
 11
-1181.89
 21
294.111
  0
LINE
  8
0
 10
-1181.89
 20
294.111
 11
-1181.89
 21
226.589
  0
LINE
  8
0
 10
-1181.89
 20
226.589
 11
-1180.65
 21
222.762
  0
LINE
  8
0
 10
-1180.65
 20
222.762
 11
-1178.29
 21
219.508
  0
LINE
  8
0
 10
-1178.29
 20
219.508
 11
-1175.03
 21
217.143
  0
LINE
  8
0
 10
-1175.03
 20
217.143
 11
-1171.21
 21
215.9
  0
LINE
  8
0
 10
-1171.21
 20
215.9
 11
-1167.18
 21
215.9
  0
LINE
  8
0
 10
-1167.18
 20
215.9
 11
-1163.36
 21
217.143
  0
LINE
  8
0
 10
529.431
 20
253.206
 11
529.431
 21
273.844
  0
LINE
  8
0
 10
529.431
 20
273.844
 11
619.919
 21
273.844
  0
LINE
  8
0
 10
619.919
 20
273.844
 11
619.919
 21
253.206
  0
LINE
  8
0
 10
619.919
 20
253.206
 11
529.431
 21
253.206
  0
LINE
  8
0
 10
-937.419
 20
253.206
 11
-937.419
 21
273.844
  0
LINE
  8
0
 10
-937.419
 20
273.844
 11
-846.931
 21
273.844
  0
LINE
  8
0
 10
-846.931
 20
273.844
 11
-846.931
 21
253.206
  0
LINE
  8
0
 10
-846.931
 20
253.206
 11
-937.419
 21
253.206
  0
LINE
  8
0
 10
-448.469
 20
253.206
 11
-448.469
 21
273.844
  0
LINE
  8
0
 10
-448.469
 20
273.844
 11
-357.981
 21
273.844
  0
LINE
  8
0
 10
-357.981
 20
273.844
 11
-357.981
 21
253.206
  0
LINE
  8
0
 10
-357.981
 20
253.206
 11
-448.469
 21
253.206
  0
LINE
  8
0
 10
40.4812
 20
253.206
 11
40.4812
 21
273.844
  0
LINE
  8
0
 10
40.4812
 20
273.844
 11
130.969
 21
273.844
  0
LINE
  8
0
 10
130.969
 20
273.844
 11
130.969
 21
253.206
  0
LINE
  8
0
 10
130.969
 20
253.206
 11
40.4812
 21
253.206
  0
LINE
  8
0
 10
-1163.36
 20
-119.407
 11
-1160.1
 21
-117.042
  0
LINE
  8
0
 10
-1160.1
 20
-117.042
 11
-1157.74
 21
-113.788
  0
LINE
  8
0
 10
-1157.74
 20
-113.788
 11
-1156.49
 21
-109.961
  0
LINE
  8
0
 10
-1156.49
 20
-109.961
 11
-1156.49
 21
-95.25
  0
LINE
  8
0
 10
-1156.49
 20
-95.25
 11
-1136.65
 21
-95.25
  0
LINE
  8
0
 10
-1136.65
 20
-95.25
 11
-1136.65
 21
-120.65
  0
LINE
  8
0
 10
-1136.65
 20
-120.65
 11
819.15
 21
-120.65
  0
LINE
  8
0
 10
819.15
 20
-120.65
 11
819.15
 21
-95.25
  0
LINE
  8
0
 10
819.15
 20
-95.25
 11
838.994
 21
-95.25
  0
LINE
  8
0
 10
838.994
 20
-95.25
 11
838.994
 21
-109.961
  0
LINE
  8
0
 10
838.994
 20
-109.961
 11
840.237
 21
-113.788
  0
LINE
  8
0
 10
840.237
 20
-113.788
 11
842.602
 21
-117.042
  0
LINE
  8
0
 10
842.602
 20
-117.042
 11
845.856
 21
-119.407
  0
LINE
  8
0
 10
845.856
 20
-119.407
 11
849.682
 21
-120.65
  0
LINE
  8
0
 10
849.682
 20
-120.65
 11
853.705
 21
-120.65
  0
LINE
  8
0
 10
853.705
 20
-120.65
 11
857.531
 21
-119.407
  0
LINE
  8
0
 10
857.531
 20
-119.407
 11
860.786
 21
-117.042
  0
LINE
  8
0
 10
860.786
 20
-117.042
 11
863.151
 21
-113.788
  0
LINE
  8
0
 10
863.151
 20
-113.788
 11
864.394
 21
-109.961
  0
LINE
  8
0
 10
864.394
 20
-109.961
 11
864.394
 21
-42.4385
  0
LINE
  8
0
 10
864.394
 20
-42.4385
 11
863.151
 21
-38.6125
  0
LINE
  8
0
 10
863.151
 20
-38.6125
 11
860.786
 21
-35.3578
  0
LINE
  8
0
 10
860.786
 20
-35.3578
 11
857.531
 21
-32.9932
  0
LINE
  8
0
 10
857.531
 20
-32.9932
 11
853.705
 21
-31.75
  0
LINE
  8
0
 10
853.705
 20
-31.75
 11
819.15
 21
-31.75
  0
LINE
  8
0
 10
819.15
 20
-31.75
 11
819.15
 21
82.55
  0
LINE
  8
0
 10
819.15
 20
82.55
 11
838.994
 21
82.55
  0
LINE
  8
0
 10
838.994
 20
82.55
 11
838.994
 21
67.8385
  0
LINE
  8
0
 10
838.994
 20
67.8385
 11
840.237
 21
64.0125
  0
LINE
  8
0
 10
840.237
 20
64.0125
 11
842.602
 21
60.7578
  0
LINE
  8
0
 10
842.602
 20
60.7578
 11
845.856
 21
58.3932
  0
LINE
  8
0
 10
845.856
 20
58.3932
 11
849.682
 21
57.15
  0
LINE
  8
0
 10
849.682
 20
57.15
 11
853.705
 21
57.15
  0
LINE
  8
0
 10
853.705
 20
57.15
 11
857.531
 21
58.3932
  0
LINE
  8
0
 10
857.531
 20
58.3932
 11
860.786
 21
60.7578
  0
LINE
  8
0
 10
860.786
 20
60.7578
 11
863.151
 21
64.0125
  0
LINE
  8
0
 10
863.151
 20
64.0125
 11
864.394
 21
67.8385
  0
LINE
  8
0
 10
864.394
 20
67.8385
 11
864.394
 21
135.361
  0
LINE
  8
0
 10
864.394
 20
135.361
 11
863.151
 21
139.188
  0
LINE
  8
0
 10
863.151
 20
139.188
 11
860.786
 21
142.442
  0
LINE
  8
0
 10
860.786
 20
142.442
 11
857.531
 21
144.807
  0
LINE
  8
0
 10
857.531
 20
144.807
 11
853.705
 21
146.05
  0
LINE
  8
0
 10
853.705
 20
146.05
 11
819.15
 21
146.05
  0
LINE
  8
0
 10
819.15
 20
146.05
 11
819.15
 21
203.2
  0
LINE
  8
0
 10
819.15
 20
203.2
 11
-1136.65
 21
203.2
  0
LINE
  8
0
 10
-1136.65
 20
203.2
 11
-1136.65
 21
146.05
  0
LINE
  8
0
 10
-1136.65
 20
146.05
 11
-1171.21
 21
146.05
  0
LINE
  8
0
 10
-1171.21
 20
146.05
 11
-1175.03
 21
144.807
  0
LINE
  8
0
 10
-1175.03
 20
144.807
 11
-1178.29
 21
142.442
  0
LINE
  8
0
 10
-1178.29
 20
142.442
 11
-1180.65
 21
139.188
  0
LINE
  8
0
 10
-1180.65
 20
139.188
 11
-1181.89
 21
135.361
  0
LINE
  8
0
 10
-1181.89
 20
135.361
 11
-1181.89
 21
67.8385
  0
LINE
  8
0
 10
-1181.89
 20
67.8385
 11
-1180.65
 21
64.0125
  0
LINE
  8
0
 10
-1180.65
 20
64.0125
 11
-1178.29
 21
60.7578
  0
LINE
  8
0
 10
-1178.29
 20
60.7578
 11
-1175.03
 21
58.3932
  0
LINE
  8
0
 10
-1175.03
 20
58.3932
 11
-1171.21
 21
57.15
  0
LINE
  8
0
 10
-1171.21
 20
57.15
 11
-1167.18
 21
57.15
  0
LINE
  8
0
 10
-1167.18
 20
57.15
 11
-1163.36
 21
58.3932
  0
LINE
  8
0
 10
-1163.36
 20
58.3932
 11
-1160.1
 21
60.7578
  0
LINE
  8
0
 10
-1160.1
 20
60.7578
 11
-1157.74
 21
64.0125
  0
LINE
  8
0
 10
-1157.74
 20
64.0125
 11
-1156.49
 21
67.8385
  0
LINE
  8
0
 10
-1156.49
 20
67.8385
 11
-1156.49
 21
82.55
  0
LINE
  8
0
 10
-1156.49
 20
82.55
 11
-1136.65
 21
82.55
  0
LINE
  8
0
 10
-1136.65
 20
82.55
 11
-1136.65
 21
-31.75
  0
LINE
  8
0
 10
-1136.65
 20
-31.75
 11
-1171.21
 21
-31.75
  0
LINE
  8
0
 10
-1171.21
 20
-31.75
 11
-1175.03
 21
-32.9932
  0
LINE
  8
0
 10
-1175.03
 20
-32.9932
 11
-1178.29
 21
-35.3578
  0
LINE
  8
0
 10
-1178.29
 20
-35.3578
 11
-1180.65
 21
-38.6125
  0
LINE
  8
0
 10
-1180.65
 20
-38.6125
 11
-1181.89
 21
-42.4385
  0
LINE
  8
0
 10
-1181.89
 20
-42.4385
 11
-1181.89
 21
-109.961
  0
LINE
  8
0
 10
-1181.89
 20
-109.961
 11
-1180.65
 21
-113.788
  0
LINE
  8
0
 10
-1180.65
 20
-113.788
 11
-1178.29
 21
-117.042
  0
LINE
  8
0
 10
-1178.29
 20
-117.042
 11
-1175.03
 21
-119.407
  0
LINE
  8
0
 10
-1175.03
 20
-119.407
 11
-1171.21
 21
-120.65
  0
LINE
  8
0
 10
-1171.21
 20
-120.65
 11
-1167.18
 21
-120.65
  0
LINE
  8
0
 10
-1167.18
 20
-120.65
 11
-1163.36
 21
-119.407
  0
LINE
  8
0
 10
-937.419
 20
-83.3438
 11
-937.419
 21
-62.7063
  0
LINE
  8
0
 10
-937.419
 20
-62.7063
 11
-846.931
 21
-62.7063
  0
LINE
  8
0
 10
-846.931
 20
-62.7063
 11
-846.931
 21
-83.3438
  0
LINE
  8
0
 10
-846.931
 20
-83.3438
 11
-937.419
 21
-83.3438
  0
LINE
  8
0
 10
-448.469
 20
-83.3438
 11
-448.469
 21
-62.7063
  0
LINE
  8
0
 10
-448.469
 20
-62.7063
 11
-357.981
 21
-62.7063
  0
LINE
  8
0
 10
-357.981
 20
-62.7063
 11
-357.981
 21
-83.3438
  0
LINE
  8
0
 10
-357.981
 20
-83.3438
 11
-448.469
 21
-83.3438
  0
LINE
  8
0
 10
40.4812
 20
-83.3438
 11
40.4812
 21
-62.7063
  0
LINE
  8
0
 10
40.4812
 20
-62.7063
 11
130.969
 21
-62.7063
  0
LINE
  8
0
 10
130.969
 20
-62.7063
 11
130.969
 21
-83.3438
  0
LINE
  8
0
 10
130.969
 20
-83.3438
 11
40.4812
 21
-83.3438
  0
LINE
  8
0
 10
529.431
 20
-83.3438
 11
529.431
 21
-62.7063
  0
LINE
  8
0
 10
529.431
 20
-62.7063
 11
619.919
 21
-62.7063
  0
LINE
  8
0
 10
619.919
 20
-62.7063
 11
619.919
 21
-83.3438
  0
LINE
  8
0
 10
619.919
 20
-83.3438
 11
529.431
 21
-83.3438
  0
LINE
  8
0
 10
-1163.36
 20
-455.957
 11
-1160.1
 21
-453.592
  0
LINE
  8
0
 10
-1160.1
 20
-453.592
 11
-1157.74
 21
-450.338
  0
LINE
  8
0
 10
-1157.74
 20
-450.338
 11
-1156.49
 21
-446.511
  0
LINE
  8
0
 10
-1156.49
 20
-446.511
 11
-1156.49
 21
-431.8
  0
LINE
  8
0
 10
-1156.49
 20
-431.8
 11
-1136.65
 21
-431.8
  0
LINE
  8
0
 10
-1136.65
 20
-431.8
 11
-1136.65
 21
-457.2
  0
LINE
  8
0
 10
-1136.65
 20
-457.2
 11
819.15
 21
-457.2
  0
LINE
  8
0
 10
819.15
 20
-457.2
 11
819.15
 21
-431.8
  0
LINE
  8
0
 10
819.15
 20
-431.8
 11
838.994
 21
-431.8
  0
LINE
  8
0
 10
838.994
 20
-431.8
 11
838.994
 21
-446.511
  0
LINE
  8
0
 10
838.994
 20
-446.511
 11
840.237
 21
-450.338
  0
LINE
  8
0
 10
840.237
 20
-450.338
 11
842.602
 21
-453.592
  0
LINE
  8
0
 10
842.602
 20
-453.592
 11
845.856
 21
-455.957
  0
LINE
  8
0
 10
845.856
 20
-455.957
 11
849.682
 21
-457.2
  0
LINE
  8
0
 10
849.682
 20
-457.2
 11
853.705
 21
-457.2
  0
LINE
  8
0
 10
853.705
 20
-457.2
 11
857.531
 21
-455.957
  0
LINE
  8
0
 10
857.531
 20
-455.957
 11
860.786
 21
-453.592
  0
LINE
  8
0
 10
860.786
 20
-453.592
 11
863.151
 21
-450.338
  0
LINE
  8
0
 10
863.151
 20
-450.338
 11
864.394
 21
-446.511
  0
LINE
  8
0
 10
864.394
 20
-446.511
 11
864.394
 21
-378.989
  0
LINE
  8
0
 10
864.394
 20
-378.989
 11
863.151
 21
-375.162
  0
LINE
  8
0
 10
863.151
 20
-375.162
 11
860.786
 21
-371.908
  0
LINE
  8
0
 10
860.786
 20
-371.908
 11
857.531
 21
-369.543
  0
LINE
  8
0
 10
857.531
 20
-369.543
 11
853.705
 21
-368.3
  0
LINE
  8
0
 10
853.705
 20
-368.3
 11
819.15
 21
-368.3
  0
LINE
  8
0
 10
819.15
 20
-368.3
 11
819.15
 21
-254
  0
LINE
  8
0
 10
819.15
 20
-254
 11
838.994
 21
-254
  0
LINE
  8
0
 10
838.994
 20
-254
 11
838.994
 21
-268.711
  0
LINE
  8
0
 10
838.994
 20
-268.711
 11
840.237
 21
-272.538
  0
LINE
  8
0
 10
840.237
 20
-272.538
 11
842.602
 21
-275.792
  0
LINE
  8
0
 10
842.602
 20
-275.792
 11
845.856
 21
-278.157
  0
LINE
  8
0
 10
845.856
 20
-278.157
 11
849.682
 21
-279.4
  0
LINE
  8
0
 10
849.682
 20
-279.4
 11
853.705
 21
-279.4
  0
LINE
  8
0
 10
853.705
 20
-279.4
 11
857.531
 21
-278.157
  0
LINE
  8
0
 10
857.531
 20
-278.157
 11
860.786
 21
-275.792
  0
LINE
  8
0
 10
860.786
 20
-275.792
 11
863.151
 21
-272.538
  0
LINE
  8
0
 10
863.151
 20
-272.538
 11
864.394
 21
-268.711
  0
LINE
  8
0
 10
864.394
 20
-268.711
 11
864.394
 21
-201.189
  0
LINE
  8
0
 10
864.394
 20
-201.189
 11
863.151
 21
-197.362
  0
LINE
  8
0
 10
863.151
 20
-197.362
 11
860.786
 21
-194.108
  0
LINE
  8
0
 10
860.786
 20
-194.108
 11
857.531
 21
-191.743
  0
LINE
  8
0
 10
857.531
 20
-191.743
 11
853.705
 21
-190.5
  0
LINE
  8
0
 10
853.705
 20
-190.5
 11
819.15
 21
-190.5
  0
LINE
  8
0
 10
819.15
 20
-190.5
 11
819.15
 21
-133.35
  0
LINE
  8
0
 10
819.15
 20
-133.35
 11
-1136.65
 21
-133.35
  0
LINE
  8
0
 10
-1136.65
 20
-133.35
 11
-1136.65
 21
-190.5
  0
LINE
  8
0
 10
-1136.65
 20
-190.5
 11
-1171.21
 21
-190.5
  0
LINE
  8
0
 10
-1171.21
 20
-190.5
 11
-1175.03
 21
-191.743
  0
LINE
  8
0
 10
-1175.03
 20
-191.743
 11
-1178.29
 21
-194.108
  0
LINE
  8
0
 10
-1178.29
 20
-194.108
 11
-1180.65
 21
-197.362
  0
LINE
  8
0
 10
-1180.65
 20
-197.362
 11
-1181.89
 21
-201.189
  0
LINE
  8
0
 10
-1181.89
 20
-201.189
 11
-1181.89
 21
-268.711
  0
LINE
  8
0
 10
-1181.89
 20
-268.711
 11
-1180.65
 21
-272.538
  0
LINE
  8
0
 10
-1180.65
 20
-272.538
 11
-1178.29
 21
-275.792
  0
LINE
  8
0
 10
-1178.29
 20
-275.792
 11
-1175.03
 21
-278.157
  0
LINE
  8
0
 10
-1175.03
 20
-278.157
 11
-1171.21
 21
-279.4
  0
LINE
  8
0
 10
-1171.21
 20
-279.4
 11
-1167.18
 21
-279.4
  0
LINE
  8
0
 10
-1167.18
 20
-279.4
 11
-1163.36
 21
-278.157
  0
LINE
  8
0
 10
-1163.36
 20
-278.157
 11
-1160.1
 21
-275.792
  0
LINE
  8
0
 10
-1160.1
 20
-275.792
 11
-1157.74
 21
-272.538
  0
LINE
  8
0
 10
-1157.74
 20
-272.538
 11
-1156.49
 21
-268.711
  0
LINE
  8
0
 10
-1156.49
 20
-268.711
 11
-1156.49
 21
-254
  0
LINE
  8
0
 10
-1156.49
 20
-254
 11
-1136.65
 21
-254
  0
LINE
  8
0
 10
-1136.65
 20
-254
 11
-1136.65
 21
-368.3
  0
LINE
  8
0
 10
-1136.65
 20
-368.3
 11
-1171.21
 21
-368.3
  0
LINE
  8
0
 10
-1171.21
 20
-368.3
 11
-1175.03
 21
-369.543
  0
LINE
  8
0
 10
-1175.03
 20
-369.543
 11
-1178.29
 21
-371.908
  0
LINE
  8
0
 10
-1178.29
 20
-371.908
 11
-1180.65
 21
-375.162
  0
LINE
  8
0
 10
-1180.65
 20
-375.162
 11
-1181.89
 21
-378.989
  0
LINE
  8
0
 10
-1181.89
 20
-378.989
 11
-1181.89
 21
-446.511
  0
LINE
  8
0
 10
-1181.89
 20
-446.511
 11
-1180.65
 21
-450.338
  0
LINE
  8
0
 10
-1180.65
 20
-450.338
 11
-1178.29
 21
-453.592
  0
LINE
  8
0
 10
-1178.29
 20
-453.592
 11
-1175.03
 21
-455.957
  0
LINE
  8
0
 10
-1175.03
 20
-455.957
 11
-1171.21
 21
-457.2
  0
LINE
  8
0
 10
-1171.21
 20
-457.2
 11
-1167.18
 21
-457.2
  0
LINE
  8
0
 10
-1167.18
 20
-457.2
 11
-1163.36
 21
-455.957
  0
LINE
  8
0
 10
529.431
 20
-419.894
 11
529.431
 21
-399.256
  0
LINE
  8
0
 10
529.431
 20
-399.256
 11
619.919
 21
-399.256
  0
LINE
  8
0
 10
619.919
 20
-399.256
 11
619.919
 21
-419.894
  0
LINE
  8
0
 10
619.919
 20
-419.894
 11
529.431
 21
-419.894
  0
LINE
  8
0
 10
-937.419
 20
-419.894
 11
-937.419
 21
-399.256
  0
LINE
  8
0
 10
-937.419
 20
-399.256
 11
-846.931
 21
-399.256
  0
LINE
  8
0
 10
-846.931
 20
-399.256
 11
-846.931
 21
-419.894
  0
LINE
  8
0
 10
-846.931
 20
-419.894
 11
-937.419
 21
-419.894
  0
LINE
  8
0
 10
-448.469
 20
-419.894
 11
-448.469
 21
-399.256
  0
LINE
  8
0
 10
-448.469
 20
-399.256
 11
-357.981
 21
-399.256
  0
LINE
  8
0
 10
-357.981
 20
-399.256
 11
-357.981
 21
-419.894
  0
LINE
  8
0
 10
-357.981
 20
-419.894
 11
-448.469
 21
-419.894
  0
LINE
  8
0
 10
40.4812
 20
-419.894
 11
40.4812
 21
-399.256
  0
LINE
  8
0
 10
40.4812
 20
-399.256
 11
130.969
 21
-399.256
  0
LINE
  8
0
 10
130.969
 20
-399.256
 11
130.969
 21
-419.894
  0
LINE
  8
0
 10
130.969
 20
-419.894
 11
40.4812
 21
-419.894
  0
LINE
  8
0
 10
819.15
 20
-469.9
 11
-1136.65
 21
-469.9
  0
LINE
  8
0
 10
-1136.65
 20
-469.9
 11
-1136.65
 21
-508
  0
LINE
  8
0
 10
-1136.65
 20
-508
 11
819.15
 21
-508
  0
LINE
  8
0
 10
819.15
 20
-508
 11
819.15
 21
-469.9
  0
LINE
  8
0
 10
819.15
 20
-520.7
 11
-1136.65
 21
-520.7
  0
LINE
  8
0
 10
-1136.65
 20
-520.7
 11
-1136.65
 21
-558.8
  0
LINE
  8
0
 10
-1136.65
 20
-558.8
 11
819.15
 21
-558.8
  0
LINE
  8
0
 10
819.15
 20
-558.8
 11
819.15
 21
-520.7
  0
ENDSEC
  0
SECTION
  2
OBJECTS
  0
DICTIONARY
  0
ENDSEC
  0
EOF
