  0
SECTION
  2
BLOCKS
  0
ENDSEC
  0
SECTION
  2
ENTITIES
  0
LINE
  8
0
 10
67.7751
 20
-559.245
 11
74.2844
 21
-554.516
  0
LINE
  8
0
 10
74.2844
 20
-554.516
 11
79.0137
 21
-548.006
  0
LINE
  8
0
 10
79.0137
 20
-548.006
 11
81.5
 21
-540.354
  0
LINE
  8
0
 10
81.5
 20
-540.354
 11
81.5
 21
540.354
  0
LINE
  8
0
 10
81.5
 20
540.354
 11
79.0137
 21
548.006
  0
LINE
  8
0
 10
79.0137
 20
548.006
 11
74.2844
 21
554.516
  0
LINE
  8
0
 10
74.2844
 20
554.516
 11
67.7751
 21
559.245
  0
LINE
  8
0
 10
67.7751
 20
559.245
 11
60.123
 21
561.731
  0
LINE
  8
0
 10
60.123
 20
561.731
 11
-1147.02
 21
561.731
  0
LINE
  8
0
 10
-1147.02
 20
561.731
 11
-1154.68
 21
559.245
  0
LINE
  8
0
 10
-1154.68
 20
559.245
 11
-1161.18
 21
554.516
  0
LINE
  8
0
 10
-1161.18
 20
554.516
 11
-1165.91
 21
548.006
  0
LINE
  8
0
 10
-1165.91
 20
548.006
 11
-1168.4
 21
540.354
  0
LINE
  8
0
 10
-1168.4
 20
540.354
 11
-1168.4
 21
-540.354
  0
LINE
  8
0
 10
-1168.4
 20
-540.354
 11
-1165.91
 21
-548.006
  0
LINE
  8
0
 10
-1165.91
 20
-548.006
 11
-1161.18
 21
-554.516
  0
LINE
  8
0
 10
-1161.18
 20
-554.516
 11
-1154.68
 21
-559.245
  0
LINE
  8
0
 10
-1154.68
 20
-559.245
 11
-1147.02
 21
-561.731
  0
LINE
  8
0
 10
-1147.02
 20
-561.731
 11
60.1229
 21
-561.731
  0
LINE
  8
0
 10
60.1229
 20
-561.731
 11
67.7751
 21
-559.245
  0
LINE
  8
0
 10
-1113.49
 20
513.159
 11
-1113.49
 21
533.541
  0
LINE
  8
0
 10
-1113.49
 20
533.541
 11
-1022.21
 21
533.541
  0
LINE
  8
0
 10
-1022.21
 20
533.541
 11
-1022.21
 21
513.159
  0
LINE
  8
0
 10
-1022.21
 20
513.159
 11
-1113.49
 21
513.159
  0
LINE
  8
0
 10
-935.691
 20
513.159
 11
-935.691
 21
533.541
  0
LINE
  8
0
 10
-935.691
 20
533.541
 11
-844.409
 21
533.541
  0
LINE
  8
0
 10
-844.409
 20
533.541
 11
-844.409
 21
513.159
  0
LINE
  8
0
 10
-844.409
 20
513.159
 11
-935.691
 21
513.159
  0
LINE
  8
0
 10
-237.191
 20
513.159
 11
-237.191
 21
533.541
  0
LINE
  8
0
 10
-237.191
 20
533.541
 11
-145.909
 21
533.541
  0
LINE
  8
0
 10
-145.909
 20
533.541
 11
-145.909
 21
513.159
  0
LINE
  8
0
 10
-145.909
 20
513.159
 11
-237.191
 21
513.159
  0
LINE
  8
0
 10
-59.3906
 20
513.159
 11
-59.3906
 21
533.541
  0
LINE
  8
0
 10
-59.3906
 20
533.541
 11
31.8906
 21
533.541
  0
LINE
  8
0
 10
31.8906
 20
533.541
 11
31.8906
 21
513.159
  0
LINE
  8
0
 10
31.8906
 20
513.159
 11
-59.3906
 21
513.159
  0
LINE
  8
0
 10
-718.123
 20
-280.866
 11
-725.775
 21
-278.379
  0
LINE
  8
0
 10
-725.775
 20
-278.379
 11
-732.284
 21
-273.65
  0
LINE
  8
0
 10
-732.284
 20
-273.65
 11
-737.014
 21
-267.141
  0
LINE
  8
0
 10
-737.014
 20
-267.141
 11
-739.5
 21
-259.489
  0
LINE
  8
0
 10
-739.5
 20
-259.489
 11
-739.5
 21
259.489
  0
LINE
  8
0
 10
-739.5
 20
259.489
 11
-737.014
 21
267.141
  0
LINE
  8
0
 10
-737.014
 20
267.141
 11
-732.284
 21
273.65
  0
LINE
  8
0
 10
-732.284
 20
273.65
 11
-725.775
 21
278.379
  0
LINE
  8
0
 10
-725.775
 20
278.379
 11
-718.123
 21
280.866
  0
LINE
  8
0
 10
-718.123
 20
280.866
 11
-456.077
 21
280.866
  0
LINE
  8
0
 10
-456.077
 20
280.866
 11
-448.425
 21
278.379
  0
LINE
  8
0
 10
-448.425
 20
278.379
 11
-441.916
 21
273.65
  0
LINE
  8
0
 10
-441.916
 20
273.65
 11
-437.186
 21
267.141
  0
LINE
  8
0
 10
-437.186
 20
267.141
 11
-434.7
 21
259.489
  0
LINE
  8
0
 10
-434.7
 20
259.489
 11
-434.7
 21
-259.489
  0
LINE
  8
0
 10
-434.7
 20
-259.489
 11
-437.186
 21
-267.141
  0
LINE
  8
0
 10
-437.186
 20
-267.141
 11
-441.916
 21
-273.65
  0
LINE
  8
0
 10
-441.916
 20
-273.65
 11
-448.425
 21
-278.379
  0
LINE
  8
0
 10
-448.425
 20
-278.379
 11
-456.077
 21
-280.866
  0
LINE
  8
0
 10
-456.077
 20
-280.866
 11
-718.123
 21
-280.866
  0
LINE
  8
0
 10
-877.491
 20
163.909
 11
-877.491
 21
255.191
  0
LINE
  8
0
 10
-877.491
 20
255.191
 11
-857.109
 21
255.191
  0
LINE
  8
0
 10
-857.109
 20
255.191
 11
-857.109
 21
163.909
  0
LINE
  8
0
 10
-857.109
 20
163.909
 11
-877.491
 21
163.909
  0
LINE
  8
0
 10
-1.19063
 20
163.909
 11
-1.19063
 21
255.191
  0
LINE
  8
0
 10
-1.19063
 20
255.191
 11
19.1906
 21
255.191
  0
LINE
  8
0
 10
19.1906
 20
255.191
 11
19.1906
 21
163.909
  0
LINE
  8
0
 10
19.1906
 20
163.909
 11
-1.19063
 21
163.909
  0
LINE
  8
0
 10
-877.491
 20
-255.191
 11
-877.491
 21
-163.909
  0
LINE
  8
0
 10
-877.491
 20
-163.909
 11
-857.109
 21
-163.909
  0
LINE
  8
0
 10
-857.109
 20
-163.909
 11
-857.109
 21
-255.191
  0
LINE
  8
0
 10
-857.109
 20
-255.191
 11
-877.491
 21
-255.191
  0
LINE
  8
0
 10
-1.19063
 20
-255.191
 11
-1.19063
 21
-163.909
  0
LINE
  8
0
 10
-1.19063
 20
-163.909
 11
19.1906
 21
-163.909
  0
LINE
  8
0
 10
19.1906
 20
-163.909
 11
19.1906
 21
-255.191
  0
LINE
  8
0
 10
19.1906
 20
-255.191
 11
-1.19063
 21
-255.191
  0
LINE
  8
0
 10
-1113.49
 20
-533.541
 11
-1113.49
 21
-513.159
  0
LINE
  8
0
 10
-1113.49
 20
-513.159
 11
-1022.21
 21
-513.159
  0
LINE
  8
0
 10
-1022.21
 20
-513.159
 11
-1022.21
 21
-533.541
  0
LINE
  8
0
 10
-1022.21
 20
-533.541
 11
-1113.49
 21
-533.541
  0
LINE
  8
0
 10
-935.691
 20
-533.541
 11
-935.691
 21
-513.159
  0
LINE
  8
0
 10
-935.691
 20
-513.159
 11
-844.409
 21
-513.159
  0
LINE
  8
0
 10
-844.409
 20
-513.159
 11
-844.409
 21
-533.541
  0
LINE
  8
0
 10
-844.409
 20
-533.541
 11
-935.691
 21
-533.541
  0
LINE
  8
0
 10
-59.3906
 20
-533.541
 11
-59.3906
 21
-513.159
  0
LINE
  8
0
 10
-59.3906
 20
-513.159
 11
31.8906
 21
-513.159
  0
LINE
  8
0
 10
31.8906
 20
-513.159
 11
31.8906
 21
-533.541
  0
LINE
  8
0
 10
31.8906
 20
-533.541
 11
-59.3906
 21
-533.541
  0
LINE
  8
0
 10
-237.191
 20
-533.541
 11
-237.191
 21
-513.159
  0
LINE
  8
0
 10
-237.191
 20
-513.159
 11
-145.909
 21
-513.159
  0
LINE
  8
0
 10
-145.909
 20
-513.159
 11
-145.909
 21
-533.541
  0
LINE
  8
0
 10
-145.909
 20
-533.541
 11
-237.191
 21
-533.541
  0
LINE
  8
0
 10
399.519
 20
-558.293
 11
402.774
 21
-555.928
  0
LINE
  8
0
 10
402.774
 20
-555.928
 11
405.139
 21
-552.673
  0
LINE
  8
0
 10
405.139
 20
-552.673
 11
406.382
 21
-548.847
  0
LINE
  8
0
 10
406.382
 20
-548.847
 11
406.382
 21
-513.755
  0
LINE
  8
0
 10
406.382
 20
-513.755
 11
829.847
 21
-513.755
  0
LINE
  8
0
 10
829.847
 20
-513.755
 11
829.847
 21
-534.136
  0
LINE
  8
0
 10
829.847
 20
-534.136
 11
803.257
 21
-534.136
  0
LINE
  8
0
 10
803.257
 20
-534.136
 11
803.257
 21
-548.847
  0
LINE
  8
0
 10
803.257
 20
-548.847
 11
804.5
 21
-552.673
  0
LINE
  8
0
 10
804.5
 20
-552.673
 11
806.865
 21
-555.928
  0
LINE
  8
0
 10
806.865
 20
-555.928
 11
810.119
 21
-558.293
  0
LINE
  8
0
 10
810.119
 20
-558.293
 11
813.945
 21
-559.536
  0
LINE
  8
0
 10
813.945
 20
-559.536
 11
881.468
 21
-559.536
  0
LINE
  8
0
 10
881.468
 20
-559.536
 11
885.294
 21
-558.293
  0
LINE
  8
0
 10
885.294
 20
-558.293
 11
888.549
 21
-555.928
  0
LINE
  8
0
 10
888.549
 20
-555.928
 11
890.914
 21
-552.673
  0
LINE
  8
0
 10
890.914
 20
-552.673
 11
892.157
 21
-548.847
  0
LINE
  8
0
 10
892.157
 20
-548.847
 11
892.157
 21
-513.755
  0
LINE
  8
0
 10
892.157
 20
-513.755
 11
1114.8
 21
-513.755
  0
LINE
  8
0
 10
1114.8
 20
-513.755
 11
1114.8
 21
-254
  0
LINE
  8
0
 10
1114.8
 20
-254
 11
1129.73
 21
-254
  0
LINE
  8
0
 10
1129.73
 20
-254
 11
1132.44
 21
-253.119
  0
LINE
  8
0
 10
1132.44
 20
-253.119
 11
1134.75
 21
-251.443
  0
LINE
  8
0
 10
1134.75
 20
-251.443
 11
1136.42
 21
-249.137
  0
LINE
  8
0
 10
1136.42
 20
-249.137
 11
1137.3
 21
-246.425
  0
LINE
  8
0
 10
1137.3
 20
-246.425
 11
1137.3
 21
-172.675
  0
LINE
  8
0
 10
1137.3
 20
-172.675
 11
1136.42
 21
-169.963
  0
LINE
  8
0
 10
1136.42
 20
-169.963
 11
1134.75
 21
-167.657
  0
LINE
  8
0
 10
1134.75
 20
-167.657
 11
1132.44
 21
-165.981
  0
LINE
  8
0
 10
1132.44
 20
-165.981
 11
1129.73
 21
-165.1
  0
LINE
  8
0
 10
1129.73
 20
-165.1
 11
1114.8
 21
-165.1
  0
LINE
  8
0
 10
1114.8
 20
-165.1
 11
1114.8
 21
165.1
  0
LINE
  8
0
 10
1114.8
 20
165.1
 11
1129.73
 21
165.1
  0
LINE
  8
0
 10
1129.73
 20
165.1
 11
1132.44
 21
165.981
  0
LINE
  8
0
 10
1132.44
 20
165.981
 11
1134.75
 21
167.657
  0
LINE
  8
0
 10
1134.75
 20
167.657
 11
1136.42
 21
169.963
  0
LINE
  8
0
 10
1136.42
 20
169.963
 11
1137.3
 21
172.675
  0
LINE
  8
0
 10
1137.3
 20
172.675
 11
1137.3
 21
246.425
  0
LINE
  8
0
 10
1137.3
 20
246.425
 11
1136.42
 21
249.137
  0
LINE
  8
0
 10
1136.42
 20
249.137
 11
1134.75
 21
251.443
  0
LINE
  8
0
 10
1134.75
 20
251.443
 11
1132.44
 21
253.119
  0
LINE
  8
0
 10
1132.44
 20
253.119
 11
1129.73
 21
254
  0
LINE
  8
0
 10
1129.73
 20
254
 11
1114.8
 21
254
  0
LINE
  8
0
 10
1114.8
 20
254
 11
1114.8
 21
513.755
  0
LINE
  8
0
 10
1114.8
 20
513.755
 11
892.157
 21
513.755
  0
LINE
  8
0
 10
892.157
 20
513.755
 11
892.157
 21
548.847
  0
LINE
  8
0
 10
892.157
 20
548.847
 11
890.914
 21
552.673
  0
LINE
  8
0
 10
890.914
 20
552.673
 11
888.549
 21
555.928
  0
LINE
  8
0
 10
888.549
 20
555.928
 11
885.294
 21
558.293
  0
LINE
  8
0
 10
885.294
 20
558.293
 11
881.468
 21
559.536
  0
LINE
  8
0
 10
881.468
 20
559.536
 11
813.945
 21
559.536
  0
LINE
  8
0
 10
813.945
 20
559.536
 11
810.119
 21
558.293
  0
LINE
  8
0
 10
810.119
 20
558.293
 11
806.865
 21
555.928
  0
LINE
  8
0
 10
806.865
 20
555.928
 11
804.5
 21
552.673
  0
LINE
  8
0
 10
804.5
 20
552.673
 11
803.257
 21
548.847
  0
LINE
  8
0
 10
803.257
 20
548.847
 11
803.257
 21
534.136
  0
LINE
  8
0
 10
803.257
 20
534.136
 11
829.847
 21
534.136
  0
LINE
  8
0
 10
829.847
 20
534.136
 11
829.847
 21
513.755
  0
LINE
  8
0
 10
829.847
 20
513.755
 11
406.382
 21
513.755
  0
LINE
  8
0
 10
406.382
 20
513.755
 11
406.382
 21
548.847
  0
LINE
  8
0
 10
406.382
 20
548.847
 11
405.139
 21
552.673
  0
LINE
  8
0
 10
405.139
 20
552.673
 11
402.774
 21
555.928
  0
LINE
  8
0
 10
402.774
 20
555.928
 11
399.519
 21
558.293
  0
LINE
  8
0
 10
399.519
 20
558.293
 11
395.693
 21
559.536
  0
LINE
  8
0
 10
395.693
 20
559.536
 11
328.17
 21
559.536
  0
LINE
  8
0
 10
328.17
 20
559.536
 11
324.344
 21
558.293
  0
LINE
  8
0
 10
324.344
 20
558.293
 11
321.09
 21
555.928
  0
LINE
  8
0
 10
321.09
 20
555.928
 11
318.725
 21
552.673
  0
LINE
  8
0
 10
318.725
 20
552.673
 11
317.482
 21
548.847
  0
LINE
  8
0
 10
317.482
 20
548.847
 11
317.482
 21
534.136
  0
LINE
  8
0
 10
317.482
 20
534.136
 11
344.073
 21
534.136
  0
LINE
  8
0
 10
344.073
 20
534.136
 11
344.073
 21
513.755
  0
LINE
  8
0
 10
344.073
 20
513.755
 11
145.635
 21
513.755
  0
LINE
  8
0
 10
145.635
 20
513.755
 11
145.635
 21
-513.755
  0
LINE
  8
0
 10
145.635
 20
-513.755
 11
344.073
 21
-513.755
  0
LINE
  8
0
 10
344.073
 20
-513.755
 11
344.073
 21
-534.136
  0
LINE
  8
0
 10
344.073
 20
-534.136
 11
317.482
 21
-534.136
  0
LINE
  8
0
 10
317.482
 20
-534.136
 11
317.482
 21
-548.847
  0
LINE
  8
0
 10
317.482
 20
-548.847
 11
318.725
 21
-552.673
  0
LINE
  8
0
 10
318.725
 20
-552.673
 11
321.09
 21
-555.928
  0
LINE
  8
0
 10
321.09
 20
-555.928
 11
324.344
 21
-558.293
  0
LINE
  8
0
 10
324.344
 20
-558.293
 11
328.17
 21
-559.536
  0
LINE
  8
0
 10
328.17
 20
-559.536
 11
395.693
 21
-559.536
  0
LINE
  8
0
 10
395.693
 20
-559.536
 11
399.519
 21
-558.293
  0
ENDSEC
  0
SECTION
  2
OBJECTS
  0
DICTIONARY
  0
ENDSEC
  0
EOF
