  0
SECTION
  2
BLOCKS
  0
ENDSEC
  0
SECTION
  2
ENTITIES
  0
LINE
  8
0
 10
-1156.49
 20
241.3
 11
-1136.65
 21
241.3
  0
LINE
  8
0
 10
-1136.65
 20
241.3
 11
-1136.65
 21
215.9
  0
LINE
  8
0
 10
-1136.65
 20
215.9
 11
819.15
 21
215.9
  0
LINE
  8
0
 10
819.15
 20
215.9
 11
819.15
 21
241.3
  0
LINE
  8
0
 10
819.15
 20
241.3
 11
838.994
 21
241.3
  0
LINE
  8
0
 10
838.994
 20
241.3
 11
838.994
 21
215.9
  0
LINE
  8
0
 10
838.994
 20
215.9
 11
864.394
 21
215.9
  0
LINE
  8
0
 10
864.394
 20
215.9
 11
864.394
 21
304.8
  0
LINE
  8
0
 10
864.394
 20
304.8
 11
819.15
 21
304.8
  0
LINE
  8
0
 10
819.15
 20
304.8
 11
819.15
 21
419.1
  0
LINE
  8
0
 10
819.15
 20
419.1
 11
838.994
 21
419.1
  0
LINE
  8
0
 10
838.994
 20
419.1
 11
838.994
 21
393.7
  0
LINE
  8
0
 10
838.994
 20
393.7
 11
864.394
 21
393.7
  0
LINE
  8
0
 10
864.394
 20
393.7
 11
864.394
 21
482.6
  0
LINE
  8
0
 10
864.394
 20
482.6
 11
819.15
 21
482.6
  0
LINE
  8
0
 10
819.15
 20
482.6
 11
819.15
 21
539.75
  0
LINE
  8
0
 10
819.15
 20
539.75
 11
-1136.65
 21
539.75
  0
LINE
  8
0
 10
-1136.65
 20
539.75
 11
-1136.65
 21
482.6
  0
LINE
  8
0
 10
-1136.65
 20
482.6
 11
-1181.89
 21
482.6
  0
LINE
  8
0
 10
-1181.89
 20
482.6
 11
-1181.89
 21
393.7
  0
LINE
  8
0
 10
-1181.89
 20
393.7
 11
-1156.49
 21
393.7
  0
LINE
  8
0
 10
-1156.49
 20
393.7
 11
-1156.49
 21
419.1
  0
LINE
  8
0
 10
-1156.49
 20
419.1
 11
-1136.65
 21
419.1
  0
LINE
  8
0
 10
-1136.65
 20
419.1
 11
-1136.65
 21
304.8
  0
LINE
  8
0
 10
-1136.65
 20
304.8
 11
-1181.89
 21
304.8
  0
LINE
  8
0
 10
-1181.89
 20
304.8
 11
-1181.89
 21
215.9
  0
LINE
  8
0
 10
-1181.89
 20
215.9
 11
-1156.49
 21
215.9
  0
LINE
  8
0
 10
-1156.49
 20
215.9
 11
-1156.49
 21
241.3
  0
LINE
  8
0
 10
529.431
 20
253.206
 11
529.431
 21
273.844
  0
LINE
  8
0
 10
529.431
 20
273.844
 11
619.919
 21
273.844
  0
LINE
  8
0
 10
619.919
 20
273.844
 11
619.919
 21
253.206
  0
LINE
  8
0
 10
619.919
 20
253.206
 11
529.431
 21
253.206
  0
LINE
  8
0
 10
-937.419
 20
253.206
 11
-937.419
 21
273.844
  0
LINE
  8
0
 10
-937.419
 20
273.844
 11
-846.931
 21
273.844
  0
LINE
  8
0
 10
-846.931
 20
273.844
 11
-846.931
 21
253.206
  0
LINE
  8
0
 10
-846.931
 20
253.206
 11
-937.419
 21
253.206
  0
LINE
  8
0
 10
-448.469
 20
253.206
 11
-448.469
 21
273.844
  0
LINE
  8
0
 10
-448.469
 20
273.844
 11
-357.981
 21
273.844
  0
LINE
  8
0
 10
-357.981
 20
273.844
 11
-357.981
 21
253.206
  0
LINE
  8
0
 10
-357.981
 20
253.206
 11
-448.469
 21
253.206
  0
LINE
  8
0
 10
40.4812
 20
253.206
 11
40.4812
 21
273.844
  0
LINE
  8
0
 10
40.4812
 20
273.844
 11
130.969
 21
273.844
  0
LINE
  8
0
 10
130.969
 20
273.844
 11
130.969
 21
253.206
  0
LINE
  8
0
 10
130.969
 20
253.206
 11
40.4812
 21
253.206
  0
LINE
  8
0
 10
-1156.49
 20
-95.25
 11
-1136.65
 21
-95.25
  0
LINE
  8
0
 10
-1136.65
 20
-95.25
 11
-1136.65
 21
-120.65
  0
LINE
  8
0
 10
-1136.65
 20
-120.65
 11
819.15
 21
-120.65
  0
LINE
  8
0
 10
819.15
 20
-120.65
 11
819.15
 21
-95.25
  0
LINE
  8
0
 10
819.15
 20
-95.25
 11
838.994
 21
-95.25
  0
LINE
  8
0
 10
838.994
 20
-95.25
 11
838.994
 21
-120.65
  0
LINE
  8
0
 10
838.994
 20
-120.65
 11
864.394
 21
-120.65
  0
LINE
  8
0
 10
864.394
 20
-120.65
 11
864.394
 21
-31.75
  0
LINE
  8
0
 10
864.394
 20
-31.75
 11
819.15
 21
-31.75
  0
LINE
  8
0
 10
819.15
 20
-31.75
 11
819.15
 21
82.55
  0
LINE
  8
0
 10
819.15
 20
82.55
 11
838.994
 21
82.55
  0
LINE
  8
0
 10
838.994
 20
82.55
 11
838.994
 21
57.15
  0
LINE
  8
0
 10
838.994
 20
57.15
 11
864.394
 21
57.15
  0
LINE
  8
0
 10
864.394
 20
57.15
 11
864.394
 21
146.05
  0
LINE
  8
0
 10
864.394
 20
146.05
 11
819.15
 21
146.05
  0
LINE
  8
0
 10
819.15
 20
146.05
 11
819.15
 21
203.2
  0
LINE
  8
0
 10
819.15
 20
203.2
 11
-1136.65
 21
203.2
  0
LINE
  8
0
 10
-1136.65
 20
203.2
 11
-1136.65
 21
146.05
  0
LINE
  8
0
 10
-1136.65
 20
146.05
 11
-1181.89
 21
146.05
  0
LINE
  8
0
 10
-1181.89
 20
146.05
 11
-1181.89
 21
57.15
  0
LINE
  8
0
 10
-1181.89
 20
57.15
 11
-1156.49
 21
57.15
  0
LINE
  8
0
 10
-1156.49
 20
57.15
 11
-1156.49
 21
82.55
  0
LINE
  8
0
 10
-1156.49
 20
82.55
 11
-1136.65
 21
82.55
  0
LINE
  8
0
 10
-1136.65
 20
82.55
 11
-1136.65
 21
-31.75
  0
LINE
  8
0
 10
-1136.65
 20
-31.75
 11
-1181.89
 21
-31.75
  0
LINE
  8
0
 10
-1181.89
 20
-31.75
 11
-1181.89
 21
-120.65
  0
LINE
  8
0
 10
-1181.89
 20
-120.65
 11
-1156.49
 21
-120.65
  0
LINE
  8
0
 10
-1156.49
 20
-120.65
 11
-1156.49
 21
-95.25
  0
LINE
  8
0
 10
-937.419
 20
-83.3438
 11
-937.419
 21
-62.7063
  0
LINE
  8
0
 10
-937.419
 20
-62.7063
 11
-846.931
 21
-62.7063
  0
LINE
  8
0
 10
-846.931
 20
-62.7063
 11
-846.931
 21
-83.3438
  0
LINE
  8
0
 10
-846.931
 20
-83.3438
 11
-937.419
 21
-83.3438
  0
LINE
  8
0
 10
-448.469
 20
-83.3438
 11
-448.469
 21
-62.7063
  0
LINE
  8
0
 10
-448.469
 20
-62.7063
 11
-357.981
 21
-62.7063
  0
LINE
  8
0
 10
-357.981
 20
-62.7063
 11
-357.981
 21
-83.3438
  0
LINE
  8
0
 10
-357.981
 20
-83.3438
 11
-448.469
 21
-83.3438
  0
LINE
  8
0
 10
40.4812
 20
-83.3438
 11
40.4812
 21
-62.7063
  0
LINE
  8
0
 10
40.4812
 20
-62.7063
 11
130.969
 21
-62.7063
  0
LINE
  8
0
 10
130.969
 20
-62.7063
 11
130.969
 21
-83.3438
  0
LINE
  8
0
 10
130.969
 20
-83.3438
 11
40.4812
 21
-83.3438
  0
LINE
  8
0
 10
529.431
 20
-83.3438
 11
529.431
 21
-62.7063
  0
LINE
  8
0
 10
529.431
 20
-62.7063
 11
619.919
 21
-62.7063
  0
LINE
  8
0
 10
619.919
 20
-62.7063
 11
619.919
 21
-83.3438
  0
LINE
  8
0
 10
619.919
 20
-83.3438
 11
529.431
 21
-83.3438
  0
LINE
  8
0
 10
-1156.49
 20
-431.8
 11
-1136.65
 21
-431.8
  0
LINE
  8
0
 10
-1136.65
 20
-431.8
 11
-1136.65
 21
-457.2
  0
LINE
  8
0
 10
-1136.65
 20
-457.2
 11
819.15
 21
-457.2
  0
LINE
  8
0
 10
819.15
 20
-457.2
 11
819.15
 21
-431.8
  0
LINE
  8
0
 10
819.15
 20
-431.8
 11
838.994
 21
-431.8
  0
LINE
  8
0
 10
838.994
 20
-431.8
 11
838.994
 21
-457.2
  0
LINE
  8
0
 10
838.994
 20
-457.2
 11
864.394
 21
-457.2
  0
LINE
  8
0
 10
864.394
 20
-457.2
 11
864.394
 21
-368.3
  0
LINE
  8
0
 10
864.394
 20
-368.3
 11
819.15
 21
-368.3
  0
LINE
  8
0
 10
819.15
 20
-368.3
 11
819.15
 21
-254
  0
LINE
  8
0
 10
819.15
 20
-254
 11
838.994
 21
-254
  0
LINE
  8
0
 10
838.994
 20
-254
 11
838.994
 21
-279.4
  0
LINE
  8
0
 10
838.994
 20
-279.4
 11
864.394
 21
-279.4
  0
LINE
  8
0
 10
864.394
 20
-279.4
 11
864.394
 21
-190.5
  0
LINE
  8
0
 10
864.394
 20
-190.5
 11
819.15
 21
-190.5
  0
LINE
  8
0
 10
819.15
 20
-190.5
 11
819.15
 21
-133.35
  0
LINE
  8
0
 10
819.15
 20
-133.35
 11
-1136.65
 21
-133.35
  0
LINE
  8
0
 10
-1136.65
 20
-133.35
 11
-1136.65
 21
-190.5
  0
LINE
  8
0
 10
-1136.65
 20
-190.5
 11
-1181.89
 21
-190.5
  0
LINE
  8
0
 10
-1181.89
 20
-190.5
 11
-1181.89
 21
-279.4
  0
LINE
  8
0
 10
-1181.89
 20
-279.4
 11
-1156.49
 21
-279.4
  0
LINE
  8
0
 10
-1156.49
 20
-279.4
 11
-1156.49
 21
-254
  0
LINE
  8
0
 10
-1156.49
 20
-254
 11
-1136.65
 21
-254
  0
LINE
  8
0
 10
-1136.65
 20
-254
 11
-1136.65
 21
-368.3
  0
LINE
  8
0
 10
-1136.65
 20
-368.3
 11
-1181.89
 21
-368.3
  0
LINE
  8
0
 10
-1181.89
 20
-368.3
 11
-1181.89
 21
-457.2
  0
LINE
  8
0
 10
-1181.89
 20
-457.2
 11
-1156.49
 21
-457.2
  0
LINE
  8
0
 10
-1156.49
 20
-457.2
 11
-1156.49
 21
-431.8
  0
LINE
  8
0
 10
529.431
 20
-419.894
 11
529.431
 21
-399.256
  0
LINE
  8
0
 10
529.431
 20
-399.256
 11
619.919
 21
-399.256
  0
LINE
  8
0
 10
619.919
 20
-399.256
 11
619.919
 21
-419.894
  0
LINE
  8
0
 10
619.919
 20
-419.894
 11
529.431
 21
-419.894
  0
LINE
  8
0
 10
-937.419
 20
-419.894
 11
-937.419
 21
-399.256
  0
LINE
  8
0
 10
-937.419
 20
-399.256
 11
-846.931
 21
-399.256
  0
LINE
  8
0
 10
-846.931
 20
-399.256
 11
-846.931
 21
-419.894
  0
LINE
  8
0
 10
-846.931
 20
-419.894
 11
-937.419
 21
-419.894
  0
LINE
  8
0
 10
-448.469
 20
-419.894
 11
-448.469
 21
-399.256
  0
LINE
  8
0
 10
-448.469
 20
-399.256
 11
-357.981
 21
-399.256
  0
LINE
  8
0
 10
-357.981
 20
-399.256
 11
-357.981
 21
-419.894
  0
LINE
  8
0
 10
-357.981
 20
-419.894
 11
-448.469
 21
-419.894
  0
LINE
  8
0
 10
40.4812
 20
-419.894
 11
40.4812
 21
-399.256
  0
LINE
  8
0
 10
40.4812
 20
-399.256
 11
130.969
 21
-399.256
  0
LINE
  8
0
 10
130.969
 20
-399.256
 11
130.969
 21
-419.894
  0
LINE
  8
0
 10
130.969
 20
-419.894
 11
40.4812
 21
-419.894
  0
LINE
  8
0
 10
819.15
 20
-469.9
 11
-1136.65
 21
-469.9
  0
LINE
  8
0
 10
-1136.65
 20
-469.9
 11
-1136.65
 21
-508
  0
LINE
  8
0
 10
-1136.65
 20
-508
 11
819.15
 21
-508
  0
LINE
  8
0
 10
819.15
 20
-508
 11
819.15
 21
-469.9
  0
LINE
  8
0
 10
819.15
 20
-520.7
 11
-1136.65
 21
-520.7
  0
LINE
  8
0
 10
-1136.65
 20
-520.7
 11
-1136.65
 21
-558.8
  0
LINE
  8
0
 10
-1136.65
 20
-558.8
 11
819.15
 21
-558.8
  0
LINE
  8
0
 10
819.15
 20
-558.8
 11
819.15
 21
-520.7
  0
ENDSEC
  0
SECTION
  2
OBJECTS
  0
DICTIONARY
  0
ENDSEC
  0
EOF
