<?xml version="1.0" standalone="no"?>
<!DOCTYPE svg PUBLIC "-//W3C//DTD SVG 1.1//EN" "http://www.w3.org/Graphics/SVG/1.1/DTD/svg11.dtd">
<svg width="2033" height="1137" viewBox="-1159 -559 2033 1137" xmlns="http://www.w3.org/2000/svg" version="1.1">
<title>OpenSCAD Model</title>
<path d="
M 828.7,-261.4 L 847.891,-261.4 L 866.428,-272.693 L 869.683,-275.058 L 872.047,-278.312 L 873.291,-282.139
 L 873.291,-329.561 L 872.047,-333.388 L 869.683,-336.642 L 866.428,-339.007 L 847.891,-350.3 L 828.7,-350.3
 L 828.7,-439.2 L 847.891,-439.2 L 866.428,-450.493 L 869.683,-452.858 L 872.047,-456.112 L 873.291,-459.939
 L 873.291,-507.361 L 872.047,-511.188 L 869.683,-514.442 L 866.428,-516.807 L 847.891,-528.1 L 828.7,-528.1
 L 828.7,-558.8 L -1114.4,-558.8 L -1114.4,-528.1 L -1133.59,-528.1 L -1152.13,-516.807 L -1155.38,-514.442
 L -1157.75,-511.188 L -1158.99,-507.361 L -1158.99,-459.939 L -1157.75,-456.112 L -1155.38,-452.858 L -1152.13,-450.493
 L -1133.59,-439.2 L -1114.4,-439.2 L -1114.4,-350.3 L -1133.59,-350.3 L -1152.13,-339.007 L -1155.38,-336.642
 L -1157.75,-333.388 L -1158.99,-329.561 L -1158.99,-282.139 L -1157.75,-278.312 L -1155.38,-275.058 L -1152.13,-272.693
 L -1133.59,-261.4 L -1114.4,-261.4 L -1114.4,-236 L 828.7,-236 z
M -1142.59,-471.475 L -1142.59,-495.825 L -1124.59,-495.825 L -1124.59,-471.475 z
M 838.891,-471.475 L 838.891,-495.825 L 856.891,-495.825 L 856.891,-471.475 z
M -1142.59,-293.675 L -1142.59,-318.025 L -1124.59,-318.025 L -1124.59,-293.675 z
M 838.891,-293.675 L 838.891,-318.025 L 856.891,-318.025 L 856.891,-293.675 z
M -917.153,-272.909 L -917.153,-293.291 L -825.872,-293.291 L -825.872,-272.909 z
M -431.378,-272.909 L -431.378,-293.291 L -340.097,-293.291 L -340.097,-272.909 z
M 54.3969,-272.909 L 54.3969,-293.291 L 145.678,-293.291 L 145.678,-272.909 z
M 540.172,-272.909 L 540.172,-293.291 L 631.453,-293.291 L 631.453,-272.909 z
M 828.7,86.8 L 847.891,86.8 L 866.428,75.5068 L 869.683,73.1422 L 872.047,69.8875 L 873.291,66.0614
 L 873.291,18.6385 L 872.047,14.8124 L 869.683,11.5578 L 866.428,9.19315 L 847.891,-2.10001 L 828.7,-2.10001
 L 828.7,-91 L 847.891,-91 L 866.428,-102.293 L 869.683,-104.658 L 872.047,-107.912 L 873.291,-111.739
 L 873.291,-159.161 L 872.047,-162.988 L 869.683,-166.242 L 866.428,-168.607 L 847.891,-179.9 L 828.7,-179.9
 L 828.7,-210.6 L -1114.4,-210.6 L -1114.4,-179.9 L -1133.59,-179.9 L -1152.13,-168.607 L -1155.38,-166.242
 L -1157.75,-162.988 L -1158.99,-159.161 L -1158.99,-111.739 L -1157.75,-107.912 L -1155.38,-104.658 L -1152.13,-102.293
 L -1133.59,-91 L -1114.4,-91 L -1114.4,-2.10001 L -1133.59,-2.10001 L -1152.13,9.19315 L -1155.38,11.5578
 L -1157.75,14.8124 L -1158.99,18.6385 L -1158.99,66.0614 L -1157.75,69.8875 L -1155.38,73.1422 L -1152.13,75.5068
 L -1133.59,86.8 L -1114.4,86.8 L -1114.4,112.2 L 828.7,112.2 z
M -1142.59,-123.275 L -1142.59,-147.625 L -1124.59,-147.625 L -1124.59,-123.275 z
M 838.891,-123.275 L 838.891,-147.625 L 856.891,-147.625 L 856.891,-123.275 z
M 838.891,54.525 L 838.891,30.175 L 856.891,30.175 L 856.891,54.525 z
M -1142.59,54.525 L -1142.59,30.175 L -1124.59,30.175 L -1124.59,54.525 z
M -917.153,75.2906 L -917.153,54.9093 L -825.872,54.9094 L -825.872,75.2906 z
M 540.172,75.2906 L 540.172,54.9093 L 631.453,54.9094 L 631.453,75.2906 z
M 54.3969,75.2906 L 54.3969,54.9093 L 145.678,54.9094 L 145.678,75.2906 z
M -431.378,75.2906 L -431.378,54.9093 L -340.097,54.9094 L -340.097,75.2906 z
M 828.7,435 L 847.891,435 L 866.428,423.707 L 869.683,421.342 L 872.047,418.088 L 873.291,414.261
 L 873.291,366.839 L 872.047,363.012 L 869.683,359.758 L 866.428,357.393 L 847.891,346.1 L 828.7,346.1
 L 828.7,257.2 L 847.891,257.2 L 866.428,245.907 L 869.683,243.542 L 872.047,240.288 L 873.291,236.461
 L 873.291,189.039 L 872.047,185.212 L 869.683,181.958 L 866.428,179.593 L 847.891,168.3 L 828.7,168.3
 L 828.7,137.6 L -1114.4,137.6 L -1114.4,168.3 L -1133.59,168.3 L -1152.13,179.593 L -1155.38,181.958
 L -1157.75,185.212 L -1158.99,189.039 L -1158.99,236.461 L -1157.75,240.288 L -1155.38,243.542 L -1152.13,245.907
 L -1133.59,257.2 L -1114.4,257.2 L -1114.4,346.1 L -1133.59,346.1 L -1152.13,357.393 L -1155.38,359.758
 L -1157.75,363.012 L -1158.99,366.839 L -1158.99,414.261 L -1157.75,418.088 L -1155.38,421.342 L -1152.13,423.707
 L -1133.59,435 L -1114.4,435 L -1114.4,460.4 L 828.7,460.4 z
M -1142.59,224.925 L -1142.59,200.575 L -1124.59,200.575 L -1124.59,224.925 z
M 838.891,224.925 L 838.891,200.575 L 856.891,200.575 L 856.891,224.925 z
M -1142.59,402.725 L -1142.59,378.375 L -1124.59,378.375 L -1124.59,402.725 z
M 838.891,402.725 L 838.891,378.375 L 856.891,378.375 L 856.891,402.725 z
M -917.153,423.491 L -917.153,403.109 L -825.872,403.109 L -825.872,423.491 z
M -431.378,423.491 L -431.378,403.109 L -340.097,403.109 L -340.097,423.491 z
M 54.3969,423.491 L 54.3969,403.109 L 145.678,403.109 L 145.678,423.491 z
M 540.172,423.491 L 540.172,403.109 L 631.453,403.109 L 631.453,423.491 z
M 828.7,482.6 L -1114.4,482.6 L -1114.4,520.7 L 828.7,520.7 z
M 828.7,539.75 L -1114.4,539.75 L -1114.4,577.85 L 828.7,577.85 z
" stroke="black" fill="lightgray" stroke-width="0.5"/></svg>
