  0
SECTION
  2
BLOCKS
  0
ENDSEC
  0
SECTION
  2
ENTITIES
  0
LINE
  8
0
 10
68.8251
 20
-561.87
 11
75.3344
 21
-557.141
  0
LINE
  8
0
 10
75.3344
 20
-557.141
 11
80.0636
 21
-550.631
  0
LINE
  8
0
 10
80.0636
 20
-550.631
 11
82.55
 21
-542.979
  0
LINE
  8
0
 10
82.55
 20
-542.979
 11
82.55
 21
542.979
  0
LINE
  8
0
 10
82.55
 20
542.979
 11
80.0637
 21
550.631
  0
LINE
  8
0
 10
80.0637
 20
550.631
 11
75.3344
 21
557.141
  0
LINE
  8
0
 10
75.3344
 20
557.141
 11
68.8251
 21
561.87
  0
LINE
  8
0
 10
68.8251
 20
561.87
 11
61.173
 21
564.356
  0
LINE
  8
0
 10
61.173
 20
564.356
 11
-1147.02
 21
564.356
  0
LINE
  8
0
 10
-1147.02
 20
564.356
 11
-1154.68
 21
561.87
  0
LINE
  8
0
 10
-1154.68
 20
561.87
 11
-1161.18
 21
557.141
  0
LINE
  8
0
 10
-1161.18
 20
557.141
 11
-1165.91
 21
550.631
  0
LINE
  8
0
 10
-1165.91
 20
550.631
 11
-1168.4
 21
542.979
  0
LINE
  8
0
 10
-1168.4
 20
542.979
 11
-1168.4
 21
427.777
  0
LINE
  8
0
 10
-1168.4
 20
427.777
 11
-1165.91
 21
420.125
  0
LINE
  8
0
 10
-1165.91
 20
420.125
 11
-1161.18
 21
413.616
  0
LINE
  8
0
 10
-1161.18
 20
413.616
 11
-1154.68
 21
408.886
  0
LINE
  8
0
 10
-1154.68
 20
408.886
 11
-1147.02
 21
406.4
  0
LINE
  8
0
 10
-1147.02
 20
406.4
 11
-968.797
 21
406.4
  0
LINE
  8
0
 10
-968.797
 20
406.4
 11
-961.145
 21
403.914
  0
LINE
  8
0
 10
-961.145
 20
403.914
 11
-954.636
 21
399.184
  0
LINE
  8
0
 10
-954.636
 20
399.184
 11
-949.906
 21
392.675
  0
LINE
  8
0
 10
-949.906
 20
392.675
 11
-947.42
 21
385.023
  0
LINE
  8
0
 10
-947.42
 20
385.023
 11
-947.42
 21
-80.2229
  0
LINE
  8
0
 10
-947.42
 20
-80.2229
 11
-949.906
 21
-87.8751
  0
LINE
  8
0
 10
-949.906
 20
-87.8751
 11
-954.636
 21
-94.3844
  0
LINE
  8
0
 10
-954.636
 20
-94.3844
 11
-961.145
 21
-99.1136
  0
LINE
  8
0
 10
-961.145
 20
-99.1136
 11
-968.797
 21
-101.6
  0
LINE
  8
0
 10
-968.797
 20
-101.6
 11
-1147.02
 21
-101.6
  0
LINE
  8
0
 10
-1147.02
 20
-101.6
 11
-1154.68
 21
-104.086
  0
LINE
  8
0
 10
-1154.68
 20
-104.086
 11
-1161.18
 21
-108.816
  0
LINE
  8
0
 10
-1161.18
 20
-108.816
 11
-1165.91
 21
-115.325
  0
LINE
  8
0
 10
-1165.91
 20
-115.325
 11
-1168.4
 21
-122.977
  0
LINE
  8
0
 10
-1168.4
 20
-122.977
 11
-1168.4
 21
-542.979
  0
LINE
  8
0
 10
-1168.4
 20
-542.979
 11
-1165.91
 21
-550.631
  0
LINE
  8
0
 10
-1165.91
 20
-550.631
 11
-1161.18
 21
-557.141
  0
LINE
  8
0
 10
-1161.18
 20
-557.141
 11
-1154.68
 21
-561.87
  0
LINE
  8
0
 10
-1154.68
 20
-561.87
 11
-1147.02
 21
-564.356
  0
LINE
  8
0
 10
-1147.02
 20
-564.356
 11
61.1729
 21
-564.356
  0
LINE
  8
0
 10
61.1729
 20
-564.356
 11
68.8251
 21
-561.87
  0
LINE
  8
0
 10
-1112.44
 20
513.159
 11
-1112.44
 21
534.591
  0
LINE
  8
0
 10
-1112.44
 20
534.591
 11
-1021.16
 21
534.591
  0
LINE
  8
0
 10
-1021.16
 20
534.591
 11
-1021.16
 21
513.159
  0
LINE
  8
0
 10
-1021.16
 20
513.159
 11
-1112.44
 21
513.159
  0
LINE
  8
0
 10
-934.641
 20
513.159
 11
-934.641
 21
534.591
  0
LINE
  8
0
 10
-934.641
 20
534.591
 11
-843.359
 21
534.591
  0
LINE
  8
0
 10
-843.359
 20
534.591
 11
-843.359
 21
513.159
  0
LINE
  8
0
 10
-843.359
 20
513.159
 11
-934.641
 21
513.159
  0
LINE
  8
0
 10
-58.3406
 20
513.159
 11
-58.3406
 21
534.591
  0
LINE
  8
0
 10
-58.3406
 20
534.591
 11
32.9406
 21
534.591
  0
LINE
  8
0
 10
32.9406
 20
534.591
 11
32.9406
 21
513.159
  0
LINE
  8
0
 10
32.9406
 20
513.159
 11
-58.3406
 21
513.159
  0
LINE
  8
0
 10
-236.141
 20
513.159
 11
-236.141
 21
534.591
  0
LINE
  8
0
 10
-236.141
 20
534.591
 11
-144.859
 21
534.591
  0
LINE
  8
0
 10
-144.859
 20
534.591
 11
-144.859
 21
513.159
  0
LINE
  8
0
 10
-144.859
 20
513.159
 11
-236.141
 21
513.159
  0
LINE
  8
0
 10
-746.973
 20
-101.6
 11
-754.625
 21
-99.1136
  0
LINE
  8
0
 10
-754.625
 20
-99.1136
 11
-761.134
 21
-94.3844
  0
LINE
  8
0
 10
-761.134
 20
-94.3844
 11
-765.864
 21
-87.8751
  0
LINE
  8
0
 10
-765.864
 20
-87.8751
 11
-768.35
 21
-80.2229
  0
LINE
  8
0
 10
-768.35
 20
-80.2229
 11
-768.35
 21
385.023
  0
LINE
  8
0
 10
-768.35
 20
385.023
 11
-765.864
 21
392.675
  0
LINE
  8
0
 10
-765.864
 20
392.675
 11
-761.134
 21
399.184
  0
LINE
  8
0
 10
-761.134
 20
399.184
 11
-754.625
 21
403.914
  0
LINE
  8
0
 10
-754.625
 20
403.914
 11
-746.973
 21
406.4
  0
LINE
  8
0
 10
-746.973
 20
406.4
 11
-662.727
 21
406.4
  0
LINE
  8
0
 10
-662.727
 20
406.4
 11
-655.075
 21
403.914
  0
LINE
  8
0
 10
-655.075
 20
403.914
 11
-648.566
 21
399.184
  0
LINE
  8
0
 10
-648.566
 20
399.184
 11
-643.836
 21
392.675
  0
LINE
  8
0
 10
-643.836
 20
392.675
 11
-641.35
 21
385.023
  0
LINE
  8
0
 10
-641.35
 20
385.023
 11
-641.35
 21
-80.2229
  0
LINE
  8
0
 10
-641.35
 20
-80.2229
 11
-643.836
 21
-87.8751
  0
LINE
  8
0
 10
-643.836
 20
-87.8751
 11
-648.566
 21
-94.3844
  0
LINE
  8
0
 10
-648.566
 20
-94.3844
 11
-655.075
 21
-99.1136
  0
LINE
  8
0
 10
-655.075
 20
-99.1136
 11
-662.727
 21
-101.6
  0
LINE
  8
0
 10
-662.727
 20
-101.6
 11
-746.973
 21
-101.6
  0
LINE
  8
0
 10
-492.973
 20
-101.6
 11
-500.625
 21
-99.1136
  0
LINE
  8
0
 10
-500.625
 20
-99.1136
 11
-507.134
 21
-94.3844
  0
LINE
  8
0
 10
-507.134
 20
-94.3844
 11
-511.864
 21
-87.8751
  0
LINE
  8
0
 10
-511.864
 20
-87.8751
 11
-514.35
 21
-80.2229
  0
LINE
  8
0
 10
-514.35
 20
-80.2229
 11
-514.35
 21
385.023
  0
LINE
  8
0
 10
-514.35
 20
385.023
 11
-511.864
 21
392.675
  0
LINE
  8
0
 10
-511.864
 20
392.675
 11
-507.134
 21
399.184
  0
LINE
  8
0
 10
-507.134
 20
399.184
 11
-500.625
 21
403.914
  0
LINE
  8
0
 10
-500.625
 20
403.914
 11
-492.973
 21
406.4
  0
LINE
  8
0
 10
-492.973
 20
406.4
 11
-408.727
 21
406.4
  0
LINE
  8
0
 10
-408.727
 20
406.4
 11
-401.075
 21
403.914
  0
LINE
  8
0
 10
-401.075
 20
403.914
 11
-394.566
 21
399.184
  0
LINE
  8
0
 10
-394.566
 20
399.184
 11
-389.836
 21
392.675
  0
LINE
  8
0
 10
-389.836
 20
392.675
 11
-387.35
 21
385.023
  0
LINE
  8
0
 10
-387.35
 20
385.023
 11
-387.35
 21
-80.2229
  0
LINE
  8
0
 10
-387.35
 20
-80.2229
 11
-389.836
 21
-87.8751
  0
LINE
  8
0
 10
-389.836
 20
-87.8751
 11
-394.566
 21
-94.3844
  0
LINE
  8
0
 10
-394.566
 20
-94.3844
 11
-401.075
 21
-99.1136
  0
LINE
  8
0
 10
-401.075
 20
-99.1136
 11
-408.727
 21
-101.6
  0
LINE
  8
0
 10
-408.727
 20
-101.6
 11
-492.973
 21
-101.6
  0
LINE
  8
0
 10
-238.973
 20
-101.6
 11
-246.625
 21
-99.1136
  0
LINE
  8
0
 10
-246.625
 20
-99.1136
 11
-253.134
 21
-94.3844
  0
LINE
  8
0
 10
-253.134
 20
-94.3844
 11
-257.864
 21
-87.8751
  0
LINE
  8
0
 10
-257.864
 20
-87.8751
 11
-260.35
 21
-80.2229
  0
LINE
  8
0
 10
-260.35
 20
-80.2229
 11
-260.35
 21
385.023
  0
LINE
  8
0
 10
-260.35
 20
385.023
 11
-257.864
 21
392.675
  0
LINE
  8
0
 10
-257.864
 20
392.675
 11
-253.134
 21
399.184
  0
LINE
  8
0
 10
-253.134
 20
399.184
 11
-246.625
 21
403.914
  0
LINE
  8
0
 10
-246.625
 20
403.914
 11
-238.973
 21
406.4
  0
LINE
  8
0
 10
-238.973
 20
406.4
 11
-154.727
 21
406.4
  0
LINE
  8
0
 10
-154.727
 20
406.4
 11
-147.075
 21
403.914
  0
LINE
  8
0
 10
-147.075
 20
403.914
 11
-140.566
 21
399.184
  0
LINE
  8
0
 10
-140.566
 20
399.184
 11
-135.836
 21
392.675
  0
LINE
  8
0
 10
-135.836
 20
392.675
 11
-133.35
 21
385.023
  0
LINE
  8
0
 10
-133.35
 20
385.023
 11
-133.35
 21
-80.2229
  0
LINE
  8
0
 10
-133.35
 20
-80.2229
 11
-135.836
 21
-87.8751
  0
LINE
  8
0
 10
-135.836
 20
-87.8751
 11
-140.566
 21
-94.3844
  0
LINE
  8
0
 10
-140.566
 20
-94.3844
 11
-147.075
 21
-99.1136
  0
LINE
  8
0
 10
-147.075
 20
-99.1136
 11
-154.727
 21
-101.6
  0
LINE
  8
0
 10
-154.727
 20
-101.6
 11
-238.973
 21
-101.6
  0
LINE
  8
0
 10
-877.491
 20
163.909
 11
-877.491
 21
255.191
  0
LINE
  8
0
 10
-877.491
 20
255.191
 11
-856.059
 21
255.191
  0
LINE
  8
0
 10
-856.059
 20
255.191
 11
-856.059
 21
163.909
  0
LINE
  8
0
 10
-856.059
 20
163.909
 11
-877.491
 21
163.909
  0
LINE
  8
0
 10
-1.19064
 20
163.909
 11
-1.19062
 21
255.191
  0
LINE
  8
0
 10
-1.19062
 20
255.191
 11
20.2406
 21
255.191
  0
LINE
  8
0
 10
20.2406
 20
255.191
 11
20.2406
 21
163.909
  0
LINE
  8
0
 10
20.2406
 20
163.909
 11
-1.19064
 21
163.909
  0
LINE
  8
0
 10
-877.491
 20
-255.191
 11
-877.491
 21
-163.909
  0
LINE
  8
0
 10
-877.491
 20
-163.909
 11
-856.059
 21
-163.909
  0
LINE
  8
0
 10
-856.059
 20
-163.909
 11
-856.059
 21
-255.191
  0
LINE
  8
0
 10
-856.059
 20
-255.191
 11
-877.491
 21
-255.191
  0
LINE
  8
0
 10
-1.19064
 20
-255.191
 11
-1.19062
 21
-163.909
  0
LINE
  8
0
 10
-1.19062
 20
-163.909
 11
20.2406
 21
-163.909
  0
LINE
  8
0
 10
20.2406
 20
-163.909
 11
20.2406
 21
-255.191
  0
LINE
  8
0
 10
20.2406
 20
-255.191
 11
-1.19064
 21
-255.191
  0
LINE
  8
0
 10
-934.641
 20
-534.591
 11
-934.641
 21
-513.159
  0
LINE
  8
0
 10
-934.641
 20
-513.159
 11
-843.359
 21
-513.159
  0
LINE
  8
0
 10
-843.359
 20
-513.159
 11
-843.359
 21
-534.591
  0
LINE
  8
0
 10
-843.359
 20
-534.591
 11
-934.641
 21
-534.591
  0
LINE
  8
0
 10
-1112.44
 20
-534.591
 11
-1112.44
 21
-513.159
  0
LINE
  8
0
 10
-1112.44
 20
-513.159
 11
-1021.16
 21
-513.159
  0
LINE
  8
0
 10
-1021.16
 20
-513.159
 11
-1021.16
 21
-534.591
  0
LINE
  8
0
 10
-1021.16
 20
-534.591
 11
-1112.44
 21
-534.591
  0
LINE
  8
0
 10
-236.141
 20
-534.591
 11
-236.141
 21
-513.159
  0
LINE
  8
0
 10
-236.141
 20
-513.159
 11
-144.859
 21
-513.159
  0
LINE
  8
0
 10
-144.859
 20
-513.159
 11
-144.859
 21
-534.591
  0
LINE
  8
0
 10
-144.859
 20
-534.591
 11
-236.141
 21
-534.591
  0
LINE
  8
0
 10
-58.3406
 20
-534.591
 11
-58.3406
 21
-513.159
  0
LINE
  8
0
 10
-58.3406
 20
-513.159
 11
32.9406
 21
-513.159
  0
LINE
  8
0
 10
32.9406
 20
-513.159
 11
32.9406
 21
-534.591
  0
LINE
  8
0
 10
32.9406
 20
-534.591
 11
-58.3406
 21
-534.591
  0
LINE
  8
0
 10
400.569
 20
-559.343
 11
403.824
 21
-556.978
  0
LINE
  8
0
 10
403.824
 20
-556.978
 11
406.189
 21
-553.723
  0
LINE
  8
0
 10
406.189
 20
-553.723
 11
407.432
 21
-549.897
  0
LINE
  8
0
 10
407.432
 20
-549.897
 11
407.432
 21
-513.755
  0
LINE
  8
0
 10
407.432
 20
-513.755
 11
830.897
 21
-513.755
  0
LINE
  8
0
 10
830.897
 20
-513.755
 11
830.897
 21
-535.186
  0
LINE
  8
0
 10
830.897
 20
-535.186
 11
804.307
 21
-535.186
  0
LINE
  8
0
 10
804.307
 20
-535.186
 11
804.307
 21
-549.897
  0
LINE
  8
0
 10
804.307
 20
-549.897
 11
805.55
 21
-553.723
  0
LINE
  8
0
 10
805.55
 20
-553.723
 11
807.915
 21
-556.978
  0
LINE
  8
0
 10
807.915
 20
-556.978
 11
811.169
 21
-559.343
  0
LINE
  8
0
 10
811.169
 20
-559.343
 11
814.995
 21
-560.586
  0
LINE
  8
0
 10
814.995
 20
-560.586
 11
882.518
 21
-560.586
  0
LINE
  8
0
 10
882.518
 20
-560.586
 11
886.344
 21
-559.343
  0
LINE
  8
0
 10
886.344
 20
-559.343
 11
889.599
 21
-556.978
  0
LINE
  8
0
 10
889.599
 20
-556.978
 11
891.964
 21
-553.723
  0
LINE
  8
0
 10
891.964
 20
-553.723
 11
893.207
 21
-549.897
  0
LINE
  8
0
 10
893.207
 20
-549.897
 11
893.207
 21
-513.755
  0
LINE
  8
0
 10
893.207
 20
-513.755
 11
1115.85
 21
-513.755
  0
LINE
  8
0
 10
1115.85
 20
-513.755
 11
1115.85
 21
-254
  0
LINE
  8
0
 10
1115.85
 20
-254
 11
1131.65
 21
-254
  0
LINE
  8
0
 10
1131.65
 20
-254
 11
1134.52
 21
-253.068
  0
LINE
  8
0
 10
1134.52
 20
-253.068
 11
1136.96
 21
-251.294
  0
LINE
  8
0
 10
1136.96
 20
-251.294
 11
1138.73
 21
-248.853
  0
LINE
  8
0
 10
1138.73
 20
-248.853
 11
1139.67
 21
-245.984
  0
LINE
  8
0
 10
1139.67
 20
-245.984
 11
1139.67
 21
-173.116
  0
LINE
  8
0
 10
1139.67
 20
-173.116
 11
1138.73
 21
-170.247
  0
LINE
  8
0
 10
1138.73
 20
-170.247
 11
1136.96
 21
-167.806
  0
LINE
  8
0
 10
1136.96
 20
-167.806
 11
1134.52
 21
-166.032
  0
LINE
  8
0
 10
1134.52
 20
-166.032
 11
1131.65
 21
-165.1
  0
LINE
  8
0
 10
1131.65
 20
-165.1
 11
1115.85
 21
-165.1
  0
LINE
  8
0
 10
1115.85
 20
-165.1
 11
1115.85
 21
165.1
  0
LINE
  8
0
 10
1115.85
 20
165.1
 11
1131.65
 21
165.1
  0
LINE
  8
0
 10
1131.65
 20
165.1
 11
1134.52
 21
166.032
  0
LINE
  8
0
 10
1134.52
 20
166.032
 11
1136.96
 21
167.806
  0
LINE
  8
0
 10
1136.96
 20
167.806
 11
1138.73
 21
170.247
  0
LINE
  8
0
 10
1138.73
 20
170.247
 11
1139.67
 21
173.116
  0
LINE
  8
0
 10
1139.67
 20
173.116
 11
1139.67
 21
245.984
  0
LINE
  8
0
 10
1139.67
 20
245.984
 11
1138.73
 21
248.853
  0
LINE
  8
0
 10
1138.73
 20
248.853
 11
1136.96
 21
251.294
  0
LINE
  8
0
 10
1136.96
 20
251.294
 11
1134.52
 21
253.068
  0
LINE
  8
0
 10
1134.52
 20
253.068
 11
1131.65
 21
254
  0
LINE
  8
0
 10
1131.65
 20
254
 11
1115.85
 21
254
  0
LINE
  8
0
 10
1115.85
 20
254
 11
1115.85
 21
513.755
  0
LINE
  8
0
 10
1115.85
 20
513.755
 11
893.207
 21
513.755
  0
LINE
  8
0
 10
893.207
 20
513.755
 11
893.207
 21
549.897
  0
LINE
  8
0
 10
893.207
 20
549.897
 11
891.964
 21
553.723
  0
LINE
  8
0
 10
891.964
 20
553.723
 11
889.599
 21
556.978
  0
LINE
  8
0
 10
889.599
 20
556.978
 11
886.344
 21
559.343
  0
LINE
  8
0
 10
886.344
 20
559.343
 11
882.518
 21
560.586
  0
LINE
  8
0
 10
882.518
 20
560.586
 11
814.995
 21
560.586
  0
LINE
  8
0
 10
814.995
 20
560.586
 11
811.169
 21
559.343
  0
LINE
  8
0
 10
811.169
 20
559.343
 11
807.915
 21
556.978
  0
LINE
  8
0
 10
807.915
 20
556.978
 11
805.55
 21
553.723
  0
LINE
  8
0
 10
805.55
 20
553.723
 11
804.307
 21
549.897
  0
LINE
  8
0
 10
804.307
 20
549.897
 11
804.307
 21
535.186
  0
LINE
  8
0
 10
804.307
 20
535.186
 11
830.897
 21
535.186
  0
LINE
  8
0
 10
830.897
 20
535.186
 11
830.897
 21
513.755
  0
LINE
  8
0
 10
830.897
 20
513.755
 11
407.432
 21
513.755
  0
LINE
  8
0
 10
407.432
 20
513.755
 11
407.432
 21
549.897
  0
LINE
  8
0
 10
407.432
 20
549.897
 11
406.189
 21
553.723
  0
LINE
  8
0
 10
406.189
 20
553.723
 11
403.824
 21
556.978
  0
LINE
  8
0
 10
403.824
 20
556.978
 11
400.569
 21
559.343
  0
LINE
  8
0
 10
400.569
 20
559.343
 11
396.743
 21
560.586
  0
LINE
  8
0
 10
396.743
 20
560.586
 11
329.22
 21
560.586
  0
LINE
  8
0
 10
329.22
 20
560.586
 11
325.394
 21
559.343
  0
LINE
  8
0
 10
325.394
 20
559.343
 11
322.14
 21
556.978
  0
LINE
  8
0
 10
322.14
 20
556.978
 11
319.775
 21
553.723
  0
LINE
  8
0
 10
319.775
 20
553.723
 11
318.532
 21
549.897
  0
LINE
  8
0
 10
318.532
 20
549.897
 11
318.532
 21
535.186
  0
LINE
  8
0
 10
318.532
 20
535.186
 11
345.123
 21
535.186
  0
LINE
  8
0
 10
345.123
 20
535.186
 11
345.123
 21
513.755
  0
LINE
  8
0
 10
345.123
 20
513.755
 11
146.685
 21
513.755
  0
LINE
  8
0
 10
146.685
 20
513.755
 11
146.685
 21
-513.755
  0
LINE
  8
0
 10
146.685
 20
-513.755
 11
345.123
 21
-513.755
  0
LINE
  8
0
 10
345.123
 20
-513.755
 11
345.123
 21
-535.186
  0
LINE
  8
0
 10
345.123
 20
-535.186
 11
318.532
 21
-535.186
  0
LINE
  8
0
 10
318.532
 20
-535.186
 11
318.532
 21
-549.897
  0
LINE
  8
0
 10
318.532
 20
-549.897
 11
319.775
 21
-553.723
  0
LINE
  8
0
 10
319.775
 20
-553.723
 11
322.14
 21
-556.978
  0
LINE
  8
0
 10
322.14
 20
-556.978
 11
325.394
 21
-559.343
  0
LINE
  8
0
 10
325.394
 20
-559.343
 11
329.22
 21
-560.586
  0
LINE
  8
0
 10
329.22
 20
-560.586
 11
396.743
 21
-560.586
  0
LINE
  8
0
 10
396.743
 20
-560.586
 11
400.569
 21
-559.343
  0
ENDSEC
  0
SECTION
  2
OBJECTS
  0
DICTIONARY
  0
ENDSEC
  0
EOF
