<?xml version="1.0" standalone="no"?>
<!DOCTYPE svg PUBLIC "-//W3C//DTD SVG 1.1//EN" "http://www.w3.org/Graphics/SVG/1.1/DTD/svg11.dtd">
<svg width="2047" height="1099" viewBox="-1182 -540 2047 1099" xmlns="http://www.w3.org/2000/svg" version="1.1">
<title>OpenSCAD Model</title>
<path d="
M -1163.36,-217.143 L -1160.1,-219.508 L -1157.74,-222.762 L -1156.49,-226.589 L -1156.49,-241.3 L -1136.65,-241.3
 L -1136.65,-215.9 L 819.15,-215.9 L 819.15,-241.3 L 838.994,-241.3 L 838.994,-226.589 L 840.237,-222.762
 L 842.602,-219.508 L 845.856,-217.143 L 849.682,-215.9 L 853.705,-215.9 L 857.531,-217.143 L 860.786,-219.508
 L 863.151,-222.762 L 864.394,-226.589 L 864.394,-294.111 L 863.151,-297.938 L 860.786,-301.192 L 857.531,-303.557
 L 853.705,-304.8 L 819.15,-304.8 L 819.15,-419.1 L 838.994,-419.1 L 838.994,-404.389 L 840.237,-400.562
 L 842.602,-397.308 L 845.856,-394.943 L 849.682,-393.7 L 853.705,-393.7 L 857.531,-394.943 L 860.786,-397.308
 L 863.151,-400.562 L 864.394,-404.389 L 864.394,-471.911 L 863.151,-475.738 L 860.786,-478.992 L 857.531,-481.357
 L 853.705,-482.6 L 819.15,-482.6 L 819.15,-539.75 L -1136.65,-539.75 L -1136.65,-482.6 L -1171.21,-482.6
 L -1175.03,-481.357 L -1178.29,-478.992 L -1180.65,-475.738 L -1181.89,-471.911 L -1181.89,-404.389 L -1180.65,-400.562
 L -1178.29,-397.308 L -1175.03,-394.943 L -1171.21,-393.7 L -1167.18,-393.7 L -1163.36,-394.943 L -1160.1,-397.308
 L -1157.74,-400.562 L -1156.49,-404.389 L -1156.49,-419.1 L -1136.65,-419.1 L -1136.65,-304.8 L -1171.21,-304.8
 L -1175.03,-303.557 L -1178.29,-301.192 L -1180.65,-297.938 L -1181.89,-294.111 L -1181.89,-226.589 L -1180.65,-222.762
 L -1178.29,-219.508 L -1175.03,-217.143 L -1171.21,-215.9 L -1167.18,-215.9 z
M 529.431,-253.206 L 529.431,-273.844 L 619.919,-273.844 L 619.919,-253.206 z
M -937.419,-253.206 L -937.419,-273.844 L -846.931,-273.844 L -846.931,-253.206 z
M -448.469,-253.206 L -448.469,-273.844 L -357.981,-273.844 L -357.981,-253.206 z
M 40.4812,-253.206 L 40.4812,-273.844 L 130.969,-273.844 L 130.969,-253.206 z
M -1163.36,119.407 L -1160.1,117.042 L -1157.74,113.788 L -1156.49,109.961 L -1156.49,95.25 L -1136.65,95.25
 L -1136.65,120.65 L 819.15,120.65 L 819.15,95.25 L 838.994,95.25 L 838.994,109.961 L 840.237,113.788
 L 842.602,117.042 L 845.856,119.407 L 849.682,120.65 L 853.705,120.65 L 857.531,119.407 L 860.786,117.042
 L 863.151,113.788 L 864.394,109.961 L 864.394,42.4385 L 863.151,38.6125 L 860.786,35.3578 L 857.531,32.9932
 L 853.705,31.75 L 819.15,31.75 L 819.15,-82.55 L 838.994,-82.55 L 838.994,-67.8385 L 840.237,-64.0125
 L 842.602,-60.7578 L 845.856,-58.3932 L 849.682,-57.15 L 853.705,-57.15 L 857.531,-58.3932 L 860.786,-60.7578
 L 863.151,-64.0125 L 864.394,-67.8385 L 864.394,-135.361 L 863.151,-139.188 L 860.786,-142.442 L 857.531,-144.807
 L 853.705,-146.05 L 819.15,-146.05 L 819.15,-203.2 L -1136.65,-203.2 L -1136.65,-146.05 L -1171.21,-146.05
 L -1175.03,-144.807 L -1178.29,-142.442 L -1180.65,-139.188 L -1181.89,-135.361 L -1181.89,-67.8385 L -1180.65,-64.0125
 L -1178.29,-60.7578 L -1175.03,-58.3932 L -1171.21,-57.15 L -1167.18,-57.15 L -1163.36,-58.3932 L -1160.1,-60.7578
 L -1157.74,-64.0125 L -1156.49,-67.8385 L -1156.49,-82.55 L -1136.65,-82.55 L -1136.65,31.75 L -1171.21,31.75
 L -1175.03,32.9932 L -1178.29,35.3578 L -1180.65,38.6125 L -1181.89,42.4385 L -1181.89,109.961 L -1180.65,113.788
 L -1178.29,117.042 L -1175.03,119.407 L -1171.21,120.65 L -1167.18,120.65 z
M -937.419,83.3438 L -937.419,62.7063 L -846.931,62.7063 L -846.931,83.3438 z
M -448.469,83.3438 L -448.469,62.7063 L -357.981,62.7063 L -357.981,83.3438 z
M 40.4812,83.3438 L 40.4812,62.7063 L 130.969,62.7063 L 130.969,83.3438 z
M 529.431,83.3438 L 529.431,62.7063 L 619.919,62.7063 L 619.919,83.3438 z
M -1163.36,455.957 L -1160.1,453.592 L -1157.74,450.338 L -1156.49,446.511 L -1156.49,431.8 L -1136.65,431.8
 L -1136.65,457.2 L 819.15,457.2 L 819.15,431.8 L 838.994,431.8 L 838.994,446.511 L 840.237,450.338
 L 842.602,453.592 L 845.856,455.957 L 849.682,457.2 L 853.705,457.2 L 857.531,455.957 L 860.786,453.592
 L 863.151,450.338 L 864.394,446.511 L 864.394,378.989 L 863.151,375.162 L 860.786,371.908 L 857.531,369.543
 L 853.705,368.3 L 819.15,368.3 L 819.15,254 L 838.994,254 L 838.994,268.711 L 840.237,272.538
 L 842.602,275.792 L 845.856,278.157 L 849.682,279.4 L 853.705,279.4 L 857.531,278.157 L 860.786,275.792
 L 863.151,272.538 L 864.394,268.711 L 864.394,201.189 L 863.151,197.362 L 860.786,194.108 L 857.531,191.743
 L 853.705,190.5 L 819.15,190.5 L 819.15,133.35 L -1136.65,133.35 L -1136.65,190.5 L -1171.21,190.5
 L -1175.03,191.743 L -1178.29,194.108 L -1180.65,197.362 L -1181.89,201.189 L -1181.89,268.711 L -1180.65,272.538
 L -1178.29,275.792 L -1175.03,278.157 L -1171.21,279.4 L -1167.18,279.4 L -1163.36,278.157 L -1160.1,275.792
 L -1157.74,272.538 L -1156.49,268.711 L -1156.49,254 L -1136.65,254 L -1136.65,368.3 L -1171.21,368.3
 L -1175.03,369.543 L -1178.29,371.908 L -1180.65,375.162 L -1181.89,378.989 L -1181.89,446.511 L -1180.65,450.338
 L -1178.29,453.592 L -1175.03,455.957 L -1171.21,457.2 L -1167.18,457.2 z
M 529.431,419.894 L 529.431,399.256 L 619.919,399.256 L 619.919,419.894 z
M -937.419,419.894 L -937.419,399.256 L -846.931,399.256 L -846.931,419.894 z
M -448.469,419.894 L -448.469,399.256 L -357.981,399.256 L -357.981,419.894 z
M 40.4812,419.894 L 40.4812,399.256 L 130.969,399.256 L 130.969,419.894 z
M 819.15,469.9 L -1136.65,469.9 L -1136.65,508 L 819.15,508 z
M 819.15,520.7 L -1136.65,520.7 L -1136.65,558.8 L 819.15,558.8 z
" stroke="black" fill="lightgray" stroke-width="0.5"/></svg>
