<?xml version="1.0" standalone="no"?>
<!DOCTYPE svg PUBLIC "-//W3C//DTD SVG 1.1//EN" "http://www.w3.org/Graphics/SVG/1.1/DTD/svg11.dtd">
<svg width="2309" height="1130" viewBox="-1169 -565 2309 1130" xmlns="http://www.w3.org/2000/svg" version="1.1">
<title>OpenSCAD Model</title>
<path d="
M 68.8251,561.87 L 75.3344,557.141 L 80.0636,550.631 L 82.55,542.979 L 82.55,-542.979 L 80.0637,-550.631
 L 75.3344,-557.141 L 68.8251,-561.87 L 61.173,-564.356 L -1147.02,-564.356 L -1154.68,-561.87 L -1161.18,-557.141
 L -1165.91,-550.631 L -1168.4,-542.979 L -1168.4,-427.777 L -1165.91,-420.125 L -1161.18,-413.616 L -1154.68,-408.886
 L -1147.02,-406.4 L -968.797,-406.4 L -961.145,-403.914 L -954.636,-399.184 L -949.906,-392.675 L -947.42,-385.023
 L -947.42,80.2229 L -949.906,87.8751 L -954.636,94.3844 L -961.145,99.1136 L -968.797,101.6 L -1147.02,101.6
 L -1154.68,104.086 L -1161.18,108.816 L -1165.91,115.325 L -1168.4,122.977 L -1168.4,542.979 L -1165.91,550.631
 L -1161.18,557.141 L -1154.68,561.87 L -1147.02,564.356 L 61.1729,564.356 z
M -1112.44,-513.159 L -1112.44,-534.591 L -1021.16,-534.591 L -1021.16,-513.159 z
M -934.641,-513.159 L -934.641,-534.591 L -843.359,-534.591 L -843.359,-513.159 z
M -58.3406,-513.159 L -58.3406,-534.591 L 32.9406,-534.591 L 32.9406,-513.159 z
M -236.141,-513.159 L -236.141,-534.591 L -144.859,-534.591 L -144.859,-513.159 z
M -746.973,101.6 L -754.625,99.1136 L -761.134,94.3844 L -765.864,87.8751 L -768.35,80.2229 L -768.35,-385.023
 L -765.864,-392.675 L -761.134,-399.184 L -754.625,-403.914 L -746.973,-406.4 L -662.727,-406.4 L -655.075,-403.914
 L -648.566,-399.184 L -643.836,-392.675 L -641.35,-385.023 L -641.35,80.2229 L -643.836,87.8751 L -648.566,94.3844
 L -655.075,99.1136 L -662.727,101.6 z
M -492.973,101.6 L -500.625,99.1136 L -507.134,94.3844 L -511.864,87.8751 L -514.35,80.2229 L -514.35,-385.023
 L -511.864,-392.675 L -507.134,-399.184 L -500.625,-403.914 L -492.973,-406.4 L -408.727,-406.4 L -401.075,-403.914
 L -394.566,-399.184 L -389.836,-392.675 L -387.35,-385.023 L -387.35,80.2229 L -389.836,87.8751 L -394.566,94.3844
 L -401.075,99.1136 L -408.727,101.6 z
M -238.973,101.6 L -246.625,99.1136 L -253.134,94.3844 L -257.864,87.8751 L -260.35,80.2229 L -260.35,-385.023
 L -257.864,-392.675 L -253.134,-399.184 L -246.625,-403.914 L -238.973,-406.4 L -154.727,-406.4 L -147.075,-403.914
 L -140.566,-399.184 L -135.836,-392.675 L -133.35,-385.023 L -133.35,80.2229 L -135.836,87.8751 L -140.566,94.3844
 L -147.075,99.1136 L -154.727,101.6 z
M -877.491,-163.909 L -877.491,-255.191 L -856.059,-255.191 L -856.059,-163.909 z
M -1.19064,-163.909 L -1.19062,-255.191 L 20.2406,-255.191 L 20.2406,-163.909 z
M -877.491,255.191 L -877.491,163.909 L -856.059,163.909 L -856.059,255.191 z
M -1.19064,255.191 L -1.19062,163.909 L 20.2406,163.909 L 20.2406,255.191 z
M -934.641,534.591 L -934.641,513.159 L -843.359,513.159 L -843.359,534.591 z
M -1112.44,534.591 L -1112.44,513.159 L -1021.16,513.159 L -1021.16,534.591 z
M -236.141,534.591 L -236.141,513.159 L -144.859,513.159 L -144.859,534.591 z
M -58.3406,534.591 L -58.3406,513.159 L 32.9406,513.159 L 32.9406,534.591 z
M 400.569,559.343 L 403.824,556.978 L 406.189,553.723 L 407.432,549.897 L 407.432,513.755 L 830.897,513.755
 L 830.897,535.186 L 804.307,535.186 L 804.307,549.897 L 805.55,553.723 L 807.915,556.978 L 811.169,559.343
 L 814.995,560.586 L 882.518,560.586 L 886.344,559.343 L 889.599,556.978 L 891.964,553.723 L 893.207,549.897
 L 893.207,513.755 L 1115.85,513.755 L 1115.85,254 L 1131.65,254 L 1134.52,253.068 L 1136.96,251.294
 L 1138.73,248.853 L 1139.67,245.984 L 1139.67,173.116 L 1138.73,170.247 L 1136.96,167.806 L 1134.52,166.032
 L 1131.65,165.1 L 1115.85,165.1 L 1115.85,-165.1 L 1131.65,-165.1 L 1134.52,-166.032 L 1136.96,-167.806
 L 1138.73,-170.247 L 1139.67,-173.116 L 1139.67,-245.984 L 1138.73,-248.853 L 1136.96,-251.294 L 1134.52,-253.068
 L 1131.65,-254 L 1115.85,-254 L 1115.85,-513.755 L 893.207,-513.755 L 893.207,-549.897 L 891.964,-553.723
 L 889.599,-556.978 L 886.344,-559.343 L 882.518,-560.586 L 814.995,-560.586 L 811.169,-559.343 L 807.915,-556.978
 L 805.55,-553.723 L 804.307,-549.897 L 804.307,-535.186 L 830.897,-535.186 L 830.897,-513.755 L 407.432,-513.755
 L 407.432,-549.897 L 406.189,-553.723 L 403.824,-556.978 L 400.569,-559.343 L 396.743,-560.586 L 329.22,-560.586
 L 325.394,-559.343 L 322.14,-556.978 L 319.775,-553.723 L 318.532,-549.897 L 318.532,-535.186 L 345.123,-535.186
 L 345.123,-513.755 L 146.685,-513.755 L 146.685,513.755 L 345.123,513.755 L 345.123,535.186 L 318.532,535.186
 L 318.532,549.897 L 319.775,553.723 L 322.14,556.978 L 325.394,559.343 L 329.22,560.586 L 396.743,560.586
 z
" stroke="black" fill="lightgray" stroke-width="0.5"/></svg>
