<?xml version="1.0" standalone="no"?>
<!DOCTYPE svg PUBLIC "-//W3C//DTD SVG 1.1//EN" "http://www.w3.org/Graphics/SVG/1.1/DTD/svg11.dtd">
<svg width="2259" height="1166" viewBox="-1194 -583 2259 1166" xmlns="http://www.w3.org/2000/svg" version="1.1">
<title>OpenSCAD Model</title>
<path d="
M 43.4251,580.126 L 49.9344,575.397 L 54.6636,568.888 L 57.15,561.235 L 57.15,-561.235 L 54.6637,-568.888
 L 49.9344,-575.397 L 43.4251,-580.126 L 35.773,-582.612 L -1172.42,-582.612 L -1180.08,-580.126 L -1186.58,-575.397
 L -1191.31,-568.888 L -1193.8,-561.235 L -1193.8,-427.777 L -1191.31,-420.125 L -1186.58,-413.616 L -1180.08,-408.886
 L -1172.42,-406.4 L -994.197,-406.4 L -986.545,-403.914 L -980.036,-399.184 L -975.306,-392.675 L -972.82,-385.023
 L -972.82,80.2229 L -975.306,87.8751 L -980.036,94.3844 L -986.545,99.1136 L -994.197,101.6 L -1172.42,101.6
 L -1180.08,104.086 L -1186.58,108.816 L -1191.31,115.325 L -1193.8,122.977 L -1193.8,561.235 L -1191.31,568.888
 L -1186.58,575.397 L -1180.08,580.126 L -1172.42,582.612 L 35.7729,582.612 z
M -1137.44,-532.606 L -1137.44,-553.244 L -1046.96,-553.244 L -1046.96,-532.606 z
M -959.644,-532.606 L -959.644,-553.244 L -869.156,-553.244 L -869.156,-532.606 z
M -261.144,-532.606 L -261.144,-553.244 L -170.656,-553.244 L -170.656,-532.606 z
M -83.3438,-532.606 L -83.3438,-553.244 L 7.14375,-553.244 L 7.14375,-532.606 z
M -772.373,101.6 L -780.025,99.1136 L -786.534,94.3844 L -791.264,87.8751 L -793.75,80.2229 L -793.75,-385.023
 L -791.264,-392.675 L -786.534,-399.184 L -780.025,-403.914 L -772.373,-406.4 L -688.127,-406.4 L -680.475,-403.914
 L -673.966,-399.184 L -669.236,-392.675 L -666.75,-385.023 L -666.75,80.2229 L -669.236,87.8751 L -673.966,94.3844
 L -680.475,99.1136 L -688.127,101.6 z
M -518.373,101.6 L -526.025,99.1136 L -532.534,94.3844 L -537.264,87.8751 L -539.75,80.2229 L -539.75,-385.023
 L -537.264,-392.675 L -532.534,-399.184 L -526.025,-403.914 L -518.373,-406.4 L -434.127,-406.4 L -426.475,-403.914
 L -419.966,-399.184 L -415.236,-392.675 L -412.75,-385.023 L -412.75,80.2229 L -415.236,87.8751 L -419.966,94.3844
 L -426.475,99.1136 L -434.127,101.6 z
M -264.373,101.6 L -272.025,99.1136 L -278.534,94.3844 L -283.264,87.8751 L -285.75,80.2229 L -285.75,-385.023
 L -283.264,-392.675 L -278.534,-399.184 L -272.025,-403.914 L -264.373,-406.4 L -180.127,-406.4 L -172.475,-403.914
 L -165.966,-399.184 L -161.236,-392.675 L -158.75,-385.023 L -158.75,80.2229 L -161.236,87.8751 L -165.966,94.3844
 L -172.475,99.1136 L -180.127,101.6 z
M -921.544,-164.306 L -921.544,-254.794 L -881.856,-254.794 L -881.856,-164.306 z
M -45.2438,-164.306 L -45.2438,-254.794 L -5.55626,-254.794 L -5.55626,-164.306 z
M -921.544,254.794 L -921.544,164.306 L -881.856,164.306 L -881.856,254.794 z
M -45.2438,254.794 L -45.2438,164.306 L -5.55626,164.306 L -5.55626,254.794 z
M -1137.44,553.244 L -1137.44,532.606 L -1046.96,532.606 L -1046.96,553.244 z
M -959.644,553.244 L -959.644,532.606 L -869.156,532.606 L -869.156,553.244 z
M -83.3438,553.244 L -83.3438,532.606 L 7.14373,532.606 L 7.14373,553.244 z
M -261.144,553.244 L -261.144,532.606 L -170.656,532.606 L -170.656,553.244 z
M 326.866,533.003 L 752.316,533.003 L 752.316,552.847 L 726.916,552.847 L 726.916,578.247 L 815.816,578.247
 L 815.816,533.003 L 1040.45,533.003 L 1040.45,256.672 L 1040.76,255.716 L 1041.35,254.902 L 1042.16,254.311
 L 1043.12,254 L 1056.24,254 L 1059.11,253.068 L 1061.55,251.294 L 1063.33,248.853 L 1064.26,245.984
 L 1064.26,173.116 L 1063.33,170.247 L 1061.55,167.806 L 1059.11,166.032 L 1056.24,165.1 L 1043.12,165.1
 L 1042.16,164.789 L 1041.35,164.198 L 1040.76,163.384 L 1040.45,162.428 L 1040.45,-162.428 L 1040.76,-163.384
 L 1041.35,-164.198 L 1042.16,-164.789 L 1043.12,-165.1 L 1056.24,-165.1 L 1059.11,-166.032 L 1061.55,-167.806
 L 1063.33,-170.247 L 1064.26,-173.116 L 1064.26,-245.984 L 1063.33,-248.853 L 1061.55,-251.294 L 1059.11,-253.068
 L 1056.24,-254 L 1043.12,-254 L 1042.16,-254.311 L 1041.35,-254.902 L 1040.76,-255.716 L 1040.45,-256.672
 L 1040.45,-533.003 L 815.816,-533.003 L 815.816,-578.247 L 726.916,-578.247 L 726.916,-552.847 L 752.316,-552.847
 L 752.316,-533.003 L 326.866,-533.003 L 326.866,-578.247 L 237.966,-578.247 L 237.966,-552.847 L 263.366,-552.847
 L 263.366,-533.003 L 64.135,-533.003 L 64.135,533.003 L 263.366,533.003 L 263.366,552.847 L 237.966,552.847
 L 237.966,578.247 L 326.866,578.247 z
" stroke="black" fill="lightgray" stroke-width="0.5"/></svg>
