  0
SECTION
  2
BLOCKS
  0
ENDSEC
  0
SECTION
  2
ENTITIES
  0
LINE
  8
0
 10
43.4251
 20
-580.126
 11
49.9344
 21
-575.397
  0
LINE
  8
0
 10
49.9344
 20
-575.397
 11
54.6636
 21
-568.888
  0
LINE
  8
0
 10
54.6636
 20
-568.888
 11
57.15
 21
-561.235
  0
LINE
  8
0
 10
57.15
 20
-561.235
 11
57.15
 21
561.235
  0
LINE
  8
0
 10
57.15
 20
561.235
 11
54.6637
 21
568.888
  0
LINE
  8
0
 10
54.6637
 20
568.888
 11
49.9344
 21
575.397
  0
LINE
  8
0
 10
49.9344
 20
575.397
 11
43.4251
 21
580.126
  0
LINE
  8
0
 10
43.4251
 20
580.126
 11
35.773
 21
582.612
  0
LINE
  8
0
 10
35.773
 20
582.612
 11
-1172.42
 21
582.612
  0
LINE
  8
0
 10
-1172.42
 20
582.612
 11
-1180.08
 21
580.126
  0
LINE
  8
0
 10
-1180.08
 20
580.126
 11
-1186.58
 21
575.397
  0
LINE
  8
0
 10
-1186.58
 20
575.397
 11
-1191.31
 21
568.888
  0
LINE
  8
0
 10
-1191.31
 20
568.888
 11
-1193.8
 21
561.235
  0
LINE
  8
0
 10
-1193.8
 20
561.235
 11
-1193.8
 21
-561.235
  0
LINE
  8
0
 10
-1193.8
 20
-561.235
 11
-1191.31
 21
-568.888
  0
LINE
  8
0
 10
-1191.31
 20
-568.888
 11
-1186.58
 21
-575.397
  0
LINE
  8
0
 10
-1186.58
 20
-575.397
 11
-1180.08
 21
-580.126
  0
LINE
  8
0
 10
-1180.08
 20
-580.126
 11
-1172.42
 21
-582.612
  0
LINE
  8
0
 10
-1172.42
 20
-582.612
 11
35.7729
 21
-582.612
  0
LINE
  8
0
 10
35.7729
 20
-582.612
 11
43.4251
 21
-580.126
  0
LINE
  8
0
 10
-1137.44
 20
532.606
 11
-1137.44
 21
553.244
  0
LINE
  8
0
 10
-1137.44
 20
553.244
 11
-1046.96
 21
553.244
  0
LINE
  8
0
 10
-1046.96
 20
553.244
 11
-1046.96
 21
532.606
  0
LINE
  8
0
 10
-1046.96
 20
532.606
 11
-1137.44
 21
532.606
  0
LINE
  8
0
 10
-959.644
 20
532.606
 11
-959.644
 21
553.244
  0
LINE
  8
0
 10
-959.644
 20
553.244
 11
-869.156
 21
553.244
  0
LINE
  8
0
 10
-869.156
 20
553.244
 11
-869.156
 21
532.606
  0
LINE
  8
0
 10
-869.156
 20
532.606
 11
-959.644
 21
532.606
  0
LINE
  8
0
 10
-261.144
 20
532.606
 11
-261.144
 21
553.244
  0
LINE
  8
0
 10
-261.144
 20
553.244
 11
-170.656
 21
553.244
  0
LINE
  8
0
 10
-170.656
 20
553.244
 11
-170.656
 21
532.606
  0
LINE
  8
0
 10
-170.656
 20
532.606
 11
-261.144
 21
532.606
  0
LINE
  8
0
 10
-83.3438
 20
532.606
 11
-83.3438
 21
553.244
  0
LINE
  8
0
 10
-83.3438
 20
553.244
 11
7.14375
 21
553.244
  0
LINE
  8
0
 10
7.14375
 20
553.244
 11
7.14375
 21
532.606
  0
LINE
  8
0
 10
7.14375
 20
532.606
 11
-83.3438
 21
532.606
  0
LINE
  8
0
 10
-742.21
 20
-291.306
 11
-749.863
 21
-288.82
  0
LINE
  8
0
 10
-749.863
 20
-288.82
 11
-756.372
 21
-284.091
  0
LINE
  8
0
 10
-756.372
 20
-284.091
 11
-761.101
 21
-277.581
  0
LINE
  8
0
 10
-761.101
 20
-277.581
 11
-763.587
 21
-269.929
  0
LINE
  8
0
 10
-763.587
 20
-269.929
 11
-763.587
 21
269.929
  0
LINE
  8
0
 10
-763.587
 20
269.929
 11
-761.101
 21
277.581
  0
LINE
  8
0
 10
-761.101
 20
277.581
 11
-756.372
 21
284.091
  0
LINE
  8
0
 10
-756.372
 20
284.091
 11
-749.863
 21
288.82
  0
LINE
  8
0
 10
-749.863
 20
288.82
 11
-742.21
 21
291.306
  0
LINE
  8
0
 10
-742.21
 20
291.306
 11
-480.165
 21
291.306
  0
LINE
  8
0
 10
-480.165
 20
291.306
 11
-472.512
 21
288.82
  0
LINE
  8
0
 10
-472.512
 20
288.82
 11
-466.003
 21
284.091
  0
LINE
  8
0
 10
-466.003
 20
284.091
 11
-461.274
 21
277.581
  0
LINE
  8
0
 10
-461.274
 20
277.581
 11
-458.788
 21
269.929
  0
LINE
  8
0
 10
-458.788
 20
269.929
 11
-458.788
 21
-269.929
  0
LINE
  8
0
 10
-458.788
 20
-269.929
 11
-461.274
 21
-277.581
  0
LINE
  8
0
 10
-461.274
 20
-277.581
 11
-466.003
 21
-284.091
  0
LINE
  8
0
 10
-466.003
 20
-284.091
 11
-472.512
 21
-288.82
  0
LINE
  8
0
 10
-472.512
 20
-288.82
 11
-480.165
 21
-291.306
  0
LINE
  8
0
 10
-480.165
 20
-291.306
 11
-742.21
 21
-291.306
  0
LINE
  8
0
 10
-921.544
 20
164.306
 11
-921.544
 21
254.794
  0
LINE
  8
0
 10
-921.544
 20
254.794
 11
-881.856
 21
254.794
  0
LINE
  8
0
 10
-881.856
 20
254.794
 11
-881.856
 21
164.306
  0
LINE
  8
0
 10
-881.856
 20
164.306
 11
-921.544
 21
164.306
  0
LINE
  8
0
 10
-45.2438
 20
164.306
 11
-45.2438
 21
254.794
  0
LINE
  8
0
 10
-45.2438
 20
254.794
 11
-5.55626
 21
254.794
  0
LINE
  8
0
 10
-5.55626
 20
254.794
 11
-5.55626
 21
164.306
  0
LINE
  8
0
 10
-5.55626
 20
164.306
 11
-45.2438
 21
164.306
  0
LINE
  8
0
 10
-921.544
 20
-254.794
 11
-921.544
 21
-164.306
  0
LINE
  8
0
 10
-921.544
 20
-164.306
 11
-881.856
 21
-164.306
  0
LINE
  8
0
 10
-881.856
 20
-164.306
 11
-881.856
 21
-254.794
  0
LINE
  8
0
 10
-881.856
 20
-254.794
 11
-921.544
 21
-254.794
  0
LINE
  8
0
 10
-45.2438
 20
-254.794
 11
-45.2438
 21
-164.306
  0
LINE
  8
0
 10
-45.2438
 20
-164.306
 11
-5.55626
 21
-164.306
  0
LINE
  8
0
 10
-5.55626
 20
-164.306
 11
-5.55626
 21
-254.794
  0
LINE
  8
0
 10
-5.55626
 20
-254.794
 11
-45.2438
 21
-254.794
  0
LINE
  8
0
 10
-1137.44
 20
-553.244
 11
-1137.44
 21
-532.606
  0
LINE
  8
0
 10
-1137.44
 20
-532.606
 11
-1046.96
 21
-532.606
  0
LINE
  8
0
 10
-1046.96
 20
-532.606
 11
-1046.96
 21
-553.244
  0
LINE
  8
0
 10
-1046.96
 20
-553.244
 11
-1137.44
 21
-553.244
  0
LINE
  8
0
 10
-959.644
 20
-553.244
 11
-959.644
 21
-532.606
  0
LINE
  8
0
 10
-959.644
 20
-532.606
 11
-869.156
 21
-532.606
  0
LINE
  8
0
 10
-869.156
 20
-532.606
 11
-869.156
 21
-553.244
  0
LINE
  8
0
 10
-869.156
 20
-553.244
 11
-959.644
 21
-553.244
  0
LINE
  8
0
 10
-261.144
 20
-553.244
 11
-261.144
 21
-532.606
  0
LINE
  8
0
 10
-261.144
 20
-532.606
 11
-170.656
 21
-532.606
  0
LINE
  8
0
 10
-170.656
 20
-532.606
 11
-170.656
 21
-553.244
  0
LINE
  8
0
 10
-170.656
 20
-553.244
 11
-261.144
 21
-553.244
  0
LINE
  8
0
 10
-83.3438
 20
-553.244
 11
-83.3438
 21
-532.606
  0
LINE
  8
0
 10
-83.3438
 20
-532.606
 11
7.14373
 21
-532.606
  0
LINE
  8
0
 10
7.14373
 20
-532.606
 11
7.14373
 21
-553.244
  0
LINE
  8
0
 10
7.14373
 20
-553.244
 11
-83.3438
 21
-553.244
  0
LINE
  8
0
 10
326.354
 20
-577.004
 11
329.608
 21
-574.639
  0
LINE
  8
0
 10
329.608
 20
-574.639
 11
331.973
 21
-571.384
  0
LINE
  8
0
 10
331.973
 20
-571.384
 11
333.216
 21
-567.558
  0
LINE
  8
0
 10
333.216
 20
-567.558
 11
333.216
 21
-533.003
  0
LINE
  8
0
 10
333.216
 20
-533.003
 11
758.666
 21
-533.003
  0
LINE
  8
0
 10
758.666
 20
-533.003
 11
758.666
 21
-552.847
  0
LINE
  8
0
 10
758.666
 20
-552.847
 11
743.955
 21
-552.847
  0
LINE
  8
0
 10
743.955
 20
-552.847
 11
740.129
 21
-554.09
  0
LINE
  8
0
 10
740.129
 20
-554.09
 11
736.874
 21
-556.455
  0
LINE
  8
0
 10
736.874
 20
-556.455
 11
734.509
 21
-559.709
  0
LINE
  8
0
 10
734.509
 20
-559.709
 11
733.266
 21
-563.535
  0
LINE
  8
0
 10
733.266
 20
-563.535
 11
733.266
 21
-567.558
  0
LINE
  8
0
 10
733.266
 20
-567.558
 11
734.509
 21
-571.384
  0
LINE
  8
0
 10
734.509
 20
-571.384
 11
736.874
 21
-574.639
  0
LINE
  8
0
 10
736.874
 20
-574.639
 11
740.129
 21
-577.004
  0
LINE
  8
0
 10
740.129
 20
-577.004
 11
743.955
 21
-578.247
  0
LINE
  8
0
 10
743.955
 20
-578.247
 11
811.478
 21
-578.247
  0
LINE
  8
0
 10
811.478
 20
-578.247
 11
815.304
 21
-577.004
  0
LINE
  8
0
 10
815.304
 20
-577.004
 11
818.558
 21
-574.639
  0
LINE
  8
0
 10
818.558
 20
-574.639
 11
820.923
 21
-571.384
  0
LINE
  8
0
 10
820.923
 20
-571.384
 11
822.166
 21
-567.558
  0
LINE
  8
0
 10
822.166
 20
-567.558
 11
822.166
 21
-533.003
  0
LINE
  8
0
 10
822.166
 20
-533.003
 11
1046.8
 21
-533.003
  0
LINE
  8
0
 10
1046.8
 20
-533.003
 11
1046.8
 21
-256.672
  0
LINE
  8
0
 10
1046.8
 20
-256.672
 11
1047.11
 21
-255.716
  0
LINE
  8
0
 10
1047.11
 20
-255.716
 11
1047.7
 21
-254.902
  0
LINE
  8
0
 10
1047.7
 20
-254.902
 11
1048.51
 21
-254.311
  0
LINE
  8
0
 10
1048.51
 20
-254.311
 11
1049.47
 21
-254
  0
LINE
  8
0
 10
1049.47
 20
-254
 11
1062.59
 21
-254
  0
LINE
  8
0
 10
1062.59
 20
-254
 11
1065.46
 21
-253.068
  0
LINE
  8
0
 10
1065.46
 20
-253.068
 11
1067.9
 21
-251.294
  0
LINE
  8
0
 10
1067.9
 20
-251.294
 11
1069.68
 21
-248.853
  0
LINE
  8
0
 10
1069.68
 20
-248.853
 11
1070.61
 21
-245.984
  0
LINE
  8
0
 10
1070.61
 20
-245.984
 11
1070.61
 21
-173.116
  0
LINE
  8
0
 10
1070.61
 20
-173.116
 11
1069.68
 21
-170.247
  0
LINE
  8
0
 10
1069.68
 20
-170.247
 11
1067.9
 21
-167.806
  0
LINE
  8
0
 10
1067.9
 20
-167.806
 11
1065.46
 21
-166.032
  0
LINE
  8
0
 10
1065.46
 20
-166.032
 11
1062.59
 21
-165.1
  0
LINE
  8
0
 10
1062.59
 20
-165.1
 11
1049.47
 21
-165.1
  0
LINE
  8
0
 10
1049.47
 20
-165.1
 11
1048.51
 21
-164.789
  0
LINE
  8
0
 10
1048.51
 20
-164.789
 11
1047.7
 21
-164.198
  0
LINE
  8
0
 10
1047.7
 20
-164.198
 11
1047.11
 21
-163.384
  0
LINE
  8
0
 10
1047.11
 20
-163.384
 11
1046.8
 21
-162.428
  0
LINE
  8
0
 10
1046.8
 20
-162.428
 11
1046.8
 21
162.428
  0
LINE
  8
0
 10
1046.8
 20
162.428
 11
1047.11
 21
163.384
  0
LINE
  8
0
 10
1047.11
 20
163.384
 11
1047.7
 21
164.198
  0
LINE
  8
0
 10
1047.7
 20
164.198
 11
1048.51
 21
164.789
  0
LINE
  8
0
 10
1048.51
 20
164.789
 11
1049.47
 21
165.1
  0
LINE
  8
0
 10
1049.47
 20
165.1
 11
1062.59
 21
165.1
  0
LINE
  8
0
 10
1062.59
 20
165.1
 11
1065.46
 21
166.032
  0
LINE
  8
0
 10
1065.46
 20
166.032
 11
1067.9
 21
167.806
  0
LINE
  8
0
 10
1067.9
 20
167.806
 11
1069.68
 21
170.247
  0
LINE
  8
0
 10
1069.68
 20
170.247
 11
1070.61
 21
173.116
  0
LINE
  8
0
 10
1070.61
 20
173.116
 11
1070.61
 21
245.984
  0
LINE
  8
0
 10
1070.61
 20
245.984
 11
1069.68
 21
248.853
  0
LINE
  8
0
 10
1069.68
 20
248.853
 11
1067.9
 21
251.294
  0
LINE
  8
0
 10
1067.9
 20
251.294
 11
1065.46
 21
253.068
  0
LINE
  8
0
 10
1065.46
 20
253.068
 11
1062.59
 21
254
  0
LINE
  8
0
 10
1062.59
 20
254
 11
1049.47
 21
254
  0
LINE
  8
0
 10
1049.47
 20
254
 11
1048.51
 21
254.311
  0
LINE
  8
0
 10
1048.51
 20
254.311
 11
1047.7
 21
254.902
  0
LINE
  8
0
 10
1047.7
 20
254.902
 11
1047.11
 21
255.716
  0
LINE
  8
0
 10
1047.11
 20
255.716
 11
1046.8
 21
256.672
  0
LINE
  8
0
 10
1046.8
 20
256.672
 11
1046.8
 21
533.003
  0
LINE
  8
0
 10
1046.8
 20
533.003
 11
822.166
 21
533.003
  0
LINE
  8
0
 10
822.166
 20
533.003
 11
822.166
 21
567.558
  0
LINE
  8
0
 10
822.166
 20
567.558
 11
820.923
 21
571.384
  0
LINE
  8
0
 10
820.923
 20
571.384
 11
818.558
 21
574.639
  0
LINE
  8
0
 10
818.558
 20
574.639
 11
815.304
 21
577.004
  0
LINE
  8
0
 10
815.304
 20
577.004
 11
811.478
 21
578.247
  0
LINE
  8
0
 10
811.478
 20
578.247
 11
743.955
 21
578.247
  0
LINE
  8
0
 10
743.955
 20
578.247
 11
740.129
 21
577.004
  0
LINE
  8
0
 10
740.129
 20
577.004
 11
736.874
 21
574.639
  0
LINE
  8
0
 10
736.874
 20
574.639
 11
734.509
 21
571.384
  0
LINE
  8
0
 10
734.509
 20
571.384
 11
733.266
 21
567.558
  0
LINE
  8
0
 10
733.266
 20
567.558
 11
733.266
 21
563.535
  0
LINE
  8
0
 10
733.266
 20
563.535
 11
734.509
 21
559.709
  0
LINE
  8
0
 10
734.509
 20
559.709
 11
736.874
 21
556.455
  0
LINE
  8
0
 10
736.874
 20
556.455
 11
740.129
 21
554.09
  0
LINE
  8
0
 10
740.129
 20
554.09
 11
743.955
 21
552.847
  0
LINE
  8
0
 10
743.955
 20
552.847
 11
758.666
 21
552.847
  0
LINE
  8
0
 10
758.666
 20
552.847
 11
758.666
 21
533.003
  0
LINE
  8
0
 10
758.666
 20
533.003
 11
333.216
 21
533.003
  0
LINE
  8
0
 10
333.216
 20
533.003
 11
333.216
 21
567.558
  0
LINE
  8
0
 10
333.216
 20
567.558
 11
331.973
 21
571.384
  0
LINE
  8
0
 10
331.973
 20
571.384
 11
329.608
 21
574.639
  0
LINE
  8
0
 10
329.608
 20
574.639
 11
326.354
 21
577.004
  0
LINE
  8
0
 10
326.354
 20
577.004
 11
322.528
 21
578.247
  0
LINE
  8
0
 10
322.528
 20
578.247
 11
255.005
 21
578.247
  0
LINE
  8
0
 10
255.005
 20
578.247
 11
251.179
 21
577.004
  0
LINE
  8
0
 10
251.179
 20
577.004
 11
247.924
 21
574.639
  0
LINE
  8
0
 10
247.924
 20
574.639
 11
245.559
 21
571.384
  0
LINE
  8
0
 10
245.559
 20
571.384
 11
244.316
 21
567.558
  0
LINE
  8
0
 10
244.316
 20
567.558
 11
244.316
 21
563.535
  0
LINE
  8
0
 10
244.316
 20
563.535
 11
245.559
 21
559.709
  0
LINE
  8
0
 10
245.559
 20
559.709
 11
247.924
 21
556.455
  0
LINE
  8
0
 10
247.924
 20
556.455
 11
251.179
 21
554.09
  0
LINE
  8
0
 10
251.179
 20
554.09
 11
255.005
 21
552.847
  0
LINE
  8
0
 10
255.005
 20
552.847
 11
269.716
 21
552.847
  0
LINE
  8
0
 10
269.716
 20
552.847
 11
269.716
 21
533.003
  0
LINE
  8
0
 10
269.716
 20
533.003
 11
70.485
 21
533.003
  0
LINE
  8
0
 10
70.485
 20
533.003
 11
70.485
 21
-533.003
  0
LINE
  8
0
 10
70.485
 20
-533.003
 11
269.716
 21
-533.003
  0
LINE
  8
0
 10
269.716
 20
-533.003
 11
269.716
 21
-552.847
  0
LINE
  8
0
 10
269.716
 20
-552.847
 11
255.005
 21
-552.847
  0
LINE
  8
0
 10
255.005
 20
-552.847
 11
251.179
 21
-554.09
  0
LINE
  8
0
 10
251.179
 20
-554.09
 11
247.924
 21
-556.455
  0
LINE
  8
0
 10
247.924
 20
-556.455
 11
245.559
 21
-559.709
  0
LINE
  8
0
 10
245.559
 20
-559.709
 11
244.316
 21
-563.535
  0
LINE
  8
0
 10
244.316
 20
-563.535
 11
244.316
 21
-567.558
  0
LINE
  8
0
 10
244.316
 20
-567.558
 11
245.559
 21
-571.384
  0
LINE
  8
0
 10
245.559
 20
-571.384
 11
247.924
 21
-574.639
  0
LINE
  8
0
 10
247.924
 20
-574.639
 11
251.179
 21
-577.004
  0
LINE
  8
0
 10
251.179
 20
-577.004
 11
255.005
 21
-578.247
  0
LINE
  8
0
 10
255.005
 20
-578.247
 11
322.528
 21
-578.247
  0
LINE
  8
0
 10
322.528
 20
-578.247
 11
326.354
 21
-577.004
  0
ENDSEC
  0
SECTION
  2
OBJECTS
  0
DICTIONARY
  0
ENDSEC
  0
EOF
