  0
SECTION
  2
BLOCKS
  0
ENDSEC
  0
SECTION
  2
ENTITIES
  0
LINE
  8
0
 10
828.7
 20
261.4
 11
847.891
 21
261.4
  0
LINE
  8
0
 10
847.891
 20
261.4
 11
866.428
 21
272.693
  0
LINE
  8
0
 10
866.428
 20
272.693
 11
869.683
 21
275.058
  0
LINE
  8
0
 10
869.683
 20
275.058
 11
872.047
 21
278.312
  0
LINE
  8
0
 10
872.047
 20
278.312
 11
873.291
 21
282.139
  0
LINE
  8
0
 10
873.291
 20
282.139
 11
873.291
 21
329.561
  0
LINE
  8
0
 10
873.291
 20
329.561
 11
872.047
 21
333.388
  0
LINE
  8
0
 10
872.047
 20
333.388
 11
869.683
 21
336.642
  0
LINE
  8
0
 10
869.683
 20
336.642
 11
866.428
 21
339.007
  0
LINE
  8
0
 10
866.428
 20
339.007
 11
847.891
 21
350.3
  0
LINE
  8
0
 10
847.891
 20
350.3
 11
828.7
 21
350.3
  0
LINE
  8
0
 10
828.7
 20
350.3
 11
828.7
 21
439.2
  0
LINE
  8
0
 10
828.7
 20
439.2
 11
847.891
 21
439.2
  0
LINE
  8
0
 10
847.891
 20
439.2
 11
866.428
 21
450.493
  0
LINE
  8
0
 10
866.428
 20
450.493
 11
869.683
 21
452.858
  0
LINE
  8
0
 10
869.683
 20
452.858
 11
872.047
 21
456.112
  0
LINE
  8
0
 10
872.047
 20
456.112
 11
873.291
 21
459.939
  0
LINE
  8
0
 10
873.291
 20
459.939
 11
873.291
 21
507.361
  0
LINE
  8
0
 10
873.291
 20
507.361
 11
872.047
 21
511.188
  0
LINE
  8
0
 10
872.047
 20
511.188
 11
869.683
 21
514.442
  0
LINE
  8
0
 10
869.683
 20
514.442
 11
866.428
 21
516.807
  0
LINE
  8
0
 10
866.428
 20
516.807
 11
847.891
 21
528.1
  0
LINE
  8
0
 10
847.891
 20
528.1
 11
828.7
 21
528.1
  0
LINE
  8
0
 10
828.7
 20
528.1
 11
828.7
 21
558.8
  0
LINE
  8
0
 10
828.7
 20
558.8
 11
-1114.4
 21
558.8
  0
LINE
  8
0
 10
-1114.4
 20
558.8
 11
-1114.4
 21
528.1
  0
LINE
  8
0
 10
-1114.4
 20
528.1
 11
-1133.59
 21
528.1
  0
LINE
  8
0
 10
-1133.59
 20
528.1
 11
-1152.13
 21
516.807
  0
LINE
  8
0
 10
-1152.13
 20
516.807
 11
-1155.38
 21
514.442
  0
LINE
  8
0
 10
-1155.38
 20
514.442
 11
-1157.75
 21
511.188
  0
LINE
  8
0
 10
-1157.75
 20
511.188
 11
-1158.99
 21
507.361
  0
LINE
  8
0
 10
-1158.99
 20
507.361
 11
-1158.99
 21
459.939
  0
LINE
  8
0
 10
-1158.99
 20
459.939
 11
-1157.75
 21
456.112
  0
LINE
  8
0
 10
-1157.75
 20
456.112
 11
-1155.38
 21
452.858
  0
LINE
  8
0
 10
-1155.38
 20
452.858
 11
-1152.13
 21
450.493
  0
LINE
  8
0
 10
-1152.13
 20
450.493
 11
-1133.59
 21
439.2
  0
LINE
  8
0
 10
-1133.59
 20
439.2
 11
-1114.4
 21
439.2
  0
LINE
  8
0
 10
-1114.4
 20
439.2
 11
-1114.4
 21
350.3
  0
LINE
  8
0
 10
-1114.4
 20
350.3
 11
-1133.59
 21
350.3
  0
LINE
  8
0
 10
-1133.59
 20
350.3
 11
-1152.13
 21
339.007
  0
LINE
  8
0
 10
-1152.13
 20
339.007
 11
-1155.38
 21
336.642
  0
LINE
  8
0
 10
-1155.38
 20
336.642
 11
-1157.75
 21
333.388
  0
LINE
  8
0
 10
-1157.75
 20
333.388
 11
-1158.99
 21
329.561
  0
LINE
  8
0
 10
-1158.99
 20
329.561
 11
-1158.99
 21
282.139
  0
LINE
  8
0
 10
-1158.99
 20
282.139
 11
-1157.75
 21
278.312
  0
LINE
  8
0
 10
-1157.75
 20
278.312
 11
-1155.38
 21
275.058
  0
LINE
  8
0
 10
-1155.38
 20
275.058
 11
-1152.13
 21
272.693
  0
LINE
  8
0
 10
-1152.13
 20
272.693
 11
-1133.59
 21
261.4
  0
LINE
  8
0
 10
-1133.59
 20
261.4
 11
-1114.4
 21
261.4
  0
LINE
  8
0
 10
-1114.4
 20
261.4
 11
-1114.4
 21
236
  0
LINE
  8
0
 10
-1114.4
 20
236
 11
828.7
 21
236
  0
LINE
  8
0
 10
828.7
 20
236
 11
828.7
 21
261.4
  0
LINE
  8
0
 10
-1142.59
 20
471.475
 11
-1142.59
 21
495.825
  0
LINE
  8
0
 10
-1142.59
 20
495.825
 11
-1124.59
 21
495.825
  0
LINE
  8
0
 10
-1124.59
 20
495.825
 11
-1124.59
 21
471.475
  0
LINE
  8
0
 10
-1124.59
 20
471.475
 11
-1142.59
 21
471.475
  0
LINE
  8
0
 10
838.891
 20
471.475
 11
838.891
 21
495.825
  0
LINE
  8
0
 10
838.891
 20
495.825
 11
856.891
 21
495.825
  0
LINE
  8
0
 10
856.891
 20
495.825
 11
856.891
 21
471.475
  0
LINE
  8
0
 10
856.891
 20
471.475
 11
838.891
 21
471.475
  0
LINE
  8
0
 10
-1142.59
 20
293.675
 11
-1142.59
 21
318.025
  0
LINE
  8
0
 10
-1142.59
 20
318.025
 11
-1124.59
 21
318.025
  0
LINE
  8
0
 10
-1124.59
 20
318.025
 11
-1124.59
 21
293.675
  0
LINE
  8
0
 10
-1124.59
 20
293.675
 11
-1142.59
 21
293.675
  0
LINE
  8
0
 10
838.891
 20
293.675
 11
838.891
 21
318.025
  0
LINE
  8
0
 10
838.891
 20
318.025
 11
856.891
 21
318.025
  0
LINE
  8
0
 10
856.891
 20
318.025
 11
856.891
 21
293.675
  0
LINE
  8
0
 10
856.891
 20
293.675
 11
838.891
 21
293.675
  0
LINE
  8
0
 10
-917.153
 20
272.909
 11
-917.153
 21
293.291
  0
LINE
  8
0
 10
-917.153
 20
293.291
 11
-825.872
 21
293.291
  0
LINE
  8
0
 10
-825.872
 20
293.291
 11
-825.872
 21
272.909
  0
LINE
  8
0
 10
-825.872
 20
272.909
 11
-917.153
 21
272.909
  0
LINE
  8
0
 10
-431.378
 20
272.909
 11
-431.378
 21
293.291
  0
LINE
  8
0
 10
-431.378
 20
293.291
 11
-340.097
 21
293.291
  0
LINE
  8
0
 10
-340.097
 20
293.291
 11
-340.097
 21
272.909
  0
LINE
  8
0
 10
-340.097
 20
272.909
 11
-431.378
 21
272.909
  0
LINE
  8
0
 10
54.3969
 20
272.909
 11
54.3969
 21
293.291
  0
LINE
  8
0
 10
54.3969
 20
293.291
 11
145.678
 21
293.291
  0
LINE
  8
0
 10
145.678
 20
293.291
 11
145.678
 21
272.909
  0
LINE
  8
0
 10
145.678
 20
272.909
 11
54.3969
 21
272.909
  0
LINE
  8
0
 10
540.172
 20
272.909
 11
540.172
 21
293.291
  0
LINE
  8
0
 10
540.172
 20
293.291
 11
631.453
 21
293.291
  0
LINE
  8
0
 10
631.453
 20
293.291
 11
631.453
 21
272.909
  0
LINE
  8
0
 10
631.453
 20
272.909
 11
540.172
 21
272.909
  0
LINE
  8
0
 10
828.7
 20
-86.8
 11
847.891
 21
-86.8
  0
LINE
  8
0
 10
847.891
 20
-86.8
 11
866.428
 21
-75.5068
  0
LINE
  8
0
 10
866.428
 20
-75.5068
 11
869.683
 21
-73.1422
  0
LINE
  8
0
 10
869.683
 20
-73.1422
 11
872.047
 21
-69.8875
  0
LINE
  8
0
 10
872.047
 20
-69.8875
 11
873.291
 21
-66.0614
  0
LINE
  8
0
 10
873.291
 20
-66.0614
 11
873.291
 21
-18.6385
  0
LINE
  8
0
 10
873.291
 20
-18.6385
 11
872.047
 21
-14.8124
  0
LINE
  8
0
 10
872.047
 20
-14.8124
 11
869.683
 21
-11.5578
  0
LINE
  8
0
 10
869.683
 20
-11.5578
 11
866.428
 21
-9.19315
  0
LINE
  8
0
 10
866.428
 20
-9.19315
 11
847.891
 21
2.10001
  0
LINE
  8
0
 10
847.891
 20
2.10001
 11
828.7
 21
2.10001
  0
LINE
  8
0
 10
828.7
 20
2.10001
 11
828.7
 21
91
  0
LINE
  8
0
 10
828.7
 20
91
 11
847.891
 21
91
  0
LINE
  8
0
 10
847.891
 20
91
 11
866.428
 21
102.293
  0
LINE
  8
0
 10
866.428
 20
102.293
 11
869.683
 21
104.658
  0
LINE
  8
0
 10
869.683
 20
104.658
 11
872.047
 21
107.912
  0
LINE
  8
0
 10
872.047
 20
107.912
 11
873.291
 21
111.739
  0
LINE
  8
0
 10
873.291
 20
111.739
 11
873.291
 21
159.161
  0
LINE
  8
0
 10
873.291
 20
159.161
 11
872.047
 21
162.988
  0
LINE
  8
0
 10
872.047
 20
162.988
 11
869.683
 21
166.242
  0
LINE
  8
0
 10
869.683
 20
166.242
 11
866.428
 21
168.607
  0
LINE
  8
0
 10
866.428
 20
168.607
 11
847.891
 21
179.9
  0
LINE
  8
0
 10
847.891
 20
179.9
 11
828.7
 21
179.9
  0
LINE
  8
0
 10
828.7
 20
179.9
 11
828.7
 21
210.6
  0
LINE
  8
0
 10
828.7
 20
210.6
 11
-1114.4
 21
210.6
  0
LINE
  8
0
 10
-1114.4
 20
210.6
 11
-1114.4
 21
179.9
  0
LINE
  8
0
 10
-1114.4
 20
179.9
 11
-1133.59
 21
179.9
  0
LINE
  8
0
 10
-1133.59
 20
179.9
 11
-1152.13
 21
168.607
  0
LINE
  8
0
 10
-1152.13
 20
168.607
 11
-1155.38
 21
166.242
  0
LINE
  8
0
 10
-1155.38
 20
166.242
 11
-1157.75
 21
162.988
  0
LINE
  8
0
 10
-1157.75
 20
162.988
 11
-1158.99
 21
159.161
  0
LINE
  8
0
 10
-1158.99
 20
159.161
 11
-1158.99
 21
111.739
  0
LINE
  8
0
 10
-1158.99
 20
111.739
 11
-1157.75
 21
107.912
  0
LINE
  8
0
 10
-1157.75
 20
107.912
 11
-1155.38
 21
104.658
  0
LINE
  8
0
 10
-1155.38
 20
104.658
 11
-1152.13
 21
102.293
  0
LINE
  8
0
 10
-1152.13
 20
102.293
 11
-1133.59
 21
91
  0
LINE
  8
0
 10
-1133.59
 20
91
 11
-1114.4
 21
91
  0
LINE
  8
0
 10
-1114.4
 20
91
 11
-1114.4
 21
2.10001
  0
LINE
  8
0
 10
-1114.4
 20
2.10001
 11
-1133.59
 21
2.10001
  0
LINE
  8
0
 10
-1133.59
 20
2.10001
 11
-1152.13
 21
-9.19315
  0
LINE
  8
0
 10
-1152.13
 20
-9.19315
 11
-1155.38
 21
-11.5578
  0
LINE
  8
0
 10
-1155.38
 20
-11.5578
 11
-1157.75
 21
-14.8124
  0
LINE
  8
0
 10
-1157.75
 20
-14.8124
 11
-1158.99
 21
-18.6385
  0
LINE
  8
0
 10
-1158.99
 20
-18.6385
 11
-1158.99
 21
-66.0614
  0
LINE
  8
0
 10
-1158.99
 20
-66.0614
 11
-1157.75
 21
-69.8875
  0
LINE
  8
0
 10
-1157.75
 20
-69.8875
 11
-1155.38
 21
-73.1422
  0
LINE
  8
0
 10
-1155.38
 20
-73.1422
 11
-1152.13
 21
-75.5068
  0
LINE
  8
0
 10
-1152.13
 20
-75.5068
 11
-1133.59
 21
-86.8
  0
LINE
  8
0
 10
-1133.59
 20
-86.8
 11
-1114.4
 21
-86.8
  0
LINE
  8
0
 10
-1114.4
 20
-86.8
 11
-1114.4
 21
-112.2
  0
LINE
  8
0
 10
-1114.4
 20
-112.2
 11
828.7
 21
-112.2
  0
LINE
  8
0
 10
828.7
 20
-112.2
 11
828.7
 21
-86.8
  0
LINE
  8
0
 10
-1142.59
 20
123.275
 11
-1142.59
 21
147.625
  0
LINE
  8
0
 10
-1142.59
 20
147.625
 11
-1124.59
 21
147.625
  0
LINE
  8
0
 10
-1124.59
 20
147.625
 11
-1124.59
 21
123.275
  0
LINE
  8
0
 10
-1124.59
 20
123.275
 11
-1142.59
 21
123.275
  0
LINE
  8
0
 10
838.891
 20
123.275
 11
838.891
 21
147.625
  0
LINE
  8
0
 10
838.891
 20
147.625
 11
856.891
 21
147.625
  0
LINE
  8
0
 10
856.891
 20
147.625
 11
856.891
 21
123.275
  0
LINE
  8
0
 10
856.891
 20
123.275
 11
838.891
 21
123.275
  0
LINE
  8
0
 10
838.891
 20
-54.525
 11
838.891
 21
-30.175
  0
LINE
  8
0
 10
838.891
 20
-30.175
 11
856.891
 21
-30.175
  0
LINE
  8
0
 10
856.891
 20
-30.175
 11
856.891
 21
-54.525
  0
LINE
  8
0
 10
856.891
 20
-54.525
 11
838.891
 21
-54.525
  0
LINE
  8
0
 10
-1142.59
 20
-54.525
 11
-1142.59
 21
-30.175
  0
LINE
  8
0
 10
-1142.59
 20
-30.175
 11
-1124.59
 21
-30.175
  0
LINE
  8
0
 10
-1124.59
 20
-30.175
 11
-1124.59
 21
-54.525
  0
LINE
  8
0
 10
-1124.59
 20
-54.525
 11
-1142.59
 21
-54.525
  0
LINE
  8
0
 10
-917.153
 20
-75.2906
 11
-917.153
 21
-54.9093
  0
LINE
  8
0
 10
-917.153
 20
-54.9093
 11
-825.872
 21
-54.9094
  0
LINE
  8
0
 10
-825.872
 20
-54.9094
 11
-825.872
 21
-75.2906
  0
LINE
  8
0
 10
-825.872
 20
-75.2906
 11
-917.153
 21
-75.2906
  0
LINE
  8
0
 10
540.172
 20
-75.2906
 11
540.172
 21
-54.9093
  0
LINE
  8
0
 10
540.172
 20
-54.9093
 11
631.453
 21
-54.9094
  0
LINE
  8
0
 10
631.453
 20
-54.9094
 11
631.453
 21
-75.2906
  0
LINE
  8
0
 10
631.453
 20
-75.2906
 11
540.172
 21
-75.2906
  0
LINE
  8
0
 10
54.3969
 20
-75.2906
 11
54.3969
 21
-54.9093
  0
LINE
  8
0
 10
54.3969
 20
-54.9093
 11
145.678
 21
-54.9094
  0
LINE
  8
0
 10
145.678
 20
-54.9094
 11
145.678
 21
-75.2906
  0
LINE
  8
0
 10
145.678
 20
-75.2906
 11
54.3969
 21
-75.2906
  0
LINE
  8
0
 10
-431.378
 20
-75.2906
 11
-431.378
 21
-54.9093
  0
LINE
  8
0
 10
-431.378
 20
-54.9093
 11
-340.097
 21
-54.9094
  0
LINE
  8
0
 10
-340.097
 20
-54.9094
 11
-340.097
 21
-75.2906
  0
LINE
  8
0
 10
-340.097
 20
-75.2906
 11
-431.378
 21
-75.2906
  0
LINE
  8
0
 10
828.7
 20
-435
 11
847.891
 21
-435
  0
LINE
  8
0
 10
847.891
 20
-435
 11
866.428
 21
-423.707
  0
LINE
  8
0
 10
866.428
 20
-423.707
 11
869.683
 21
-421.342
  0
LINE
  8
0
 10
869.683
 20
-421.342
 11
872.047
 21
-418.088
  0
LINE
  8
0
 10
872.047
 20
-418.088
 11
873.291
 21
-414.261
  0
LINE
  8
0
 10
873.291
 20
-414.261
 11
873.291
 21
-366.839
  0
LINE
  8
0
 10
873.291
 20
-366.839
 11
872.047
 21
-363.012
  0
LINE
  8
0
 10
872.047
 20
-363.012
 11
869.683
 21
-359.758
  0
LINE
  8
0
 10
869.683
 20
-359.758
 11
866.428
 21
-357.393
  0
LINE
  8
0
 10
866.428
 20
-357.393
 11
847.891
 21
-346.1
  0
LINE
  8
0
 10
847.891
 20
-346.1
 11
828.7
 21
-346.1
  0
LINE
  8
0
 10
828.7
 20
-346.1
 11
828.7
 21
-257.2
  0
LINE
  8
0
 10
828.7
 20
-257.2
 11
847.891
 21
-257.2
  0
LINE
  8
0
 10
847.891
 20
-257.2
 11
866.428
 21
-245.907
  0
LINE
  8
0
 10
866.428
 20
-245.907
 11
869.683
 21
-243.542
  0
LINE
  8
0
 10
869.683
 20
-243.542
 11
872.047
 21
-240.288
  0
LINE
  8
0
 10
872.047
 20
-240.288
 11
873.291
 21
-236.461
  0
LINE
  8
0
 10
873.291
 20
-236.461
 11
873.291
 21
-189.039
  0
LINE
  8
0
 10
873.291
 20
-189.039
 11
872.047
 21
-185.212
  0
LINE
  8
0
 10
872.047
 20
-185.212
 11
869.683
 21
-181.958
  0
LINE
  8
0
 10
869.683
 20
-181.958
 11
866.428
 21
-179.593
  0
LINE
  8
0
 10
866.428
 20
-179.593
 11
847.891
 21
-168.3
  0
LINE
  8
0
 10
847.891
 20
-168.3
 11
828.7
 21
-168.3
  0
LINE
  8
0
 10
828.7
 20
-168.3
 11
828.7
 21
-137.6
  0
LINE
  8
0
 10
828.7
 20
-137.6
 11
-1114.4
 21
-137.6
  0
LINE
  8
0
 10
-1114.4
 20
-137.6
 11
-1114.4
 21
-168.3
  0
LINE
  8
0
 10
-1114.4
 20
-168.3
 11
-1133.59
 21
-168.3
  0
LINE
  8
0
 10
-1133.59
 20
-168.3
 11
-1152.13
 21
-179.593
  0
LINE
  8
0
 10
-1152.13
 20
-179.593
 11
-1155.38
 21
-181.958
  0
LINE
  8
0
 10
-1155.38
 20
-181.958
 11
-1157.75
 21
-185.212
  0
LINE
  8
0
 10
-1157.75
 20
-185.212
 11
-1158.99
 21
-189.039
  0
LINE
  8
0
 10
-1158.99
 20
-189.039
 11
-1158.99
 21
-236.461
  0
LINE
  8
0
 10
-1158.99
 20
-236.461
 11
-1157.75
 21
-240.288
  0
LINE
  8
0
 10
-1157.75
 20
-240.288
 11
-1155.38
 21
-243.542
  0
LINE
  8
0
 10
-1155.38
 20
-243.542
 11
-1152.13
 21
-245.907
  0
LINE
  8
0
 10
-1152.13
 20
-245.907
 11
-1133.59
 21
-257.2
  0
LINE
  8
0
 10
-1133.59
 20
-257.2
 11
-1114.4
 21
-257.2
  0
LINE
  8
0
 10
-1114.4
 20
-257.2
 11
-1114.4
 21
-346.1
  0
LINE
  8
0
 10
-1114.4
 20
-346.1
 11
-1133.59
 21
-346.1
  0
LINE
  8
0
 10
-1133.59
 20
-346.1
 11
-1152.13
 21
-357.393
  0
LINE
  8
0
 10
-1152.13
 20
-357.393
 11
-1155.38
 21
-359.758
  0
LINE
  8
0
 10
-1155.38
 20
-359.758
 11
-1157.75
 21
-363.012
  0
LINE
  8
0
 10
-1157.75
 20
-363.012
 11
-1158.99
 21
-366.839
  0
LINE
  8
0
 10
-1158.99
 20
-366.839
 11
-1158.99
 21
-414.261
  0
LINE
  8
0
 10
-1158.99
 20
-414.261
 11
-1157.75
 21
-418.088
  0
LINE
  8
0
 10
-1157.75
 20
-418.088
 11
-1155.38
 21
-421.342
  0
LINE
  8
0
 10
-1155.38
 20
-421.342
 11
-1152.13
 21
-423.707
  0
LINE
  8
0
 10
-1152.13
 20
-423.707
 11
-1133.59
 21
-435
  0
LINE
  8
0
 10
-1133.59
 20
-435
 11
-1114.4
 21
-435
  0
LINE
  8
0
 10
-1114.4
 20
-435
 11
-1114.4
 21
-460.4
  0
LINE
  8
0
 10
-1114.4
 20
-460.4
 11
828.7
 21
-460.4
  0
LINE
  8
0
 10
828.7
 20
-460.4
 11
828.7
 21
-435
  0
LINE
  8
0
 10
-1142.59
 20
-224.925
 11
-1142.59
 21
-200.575
  0
LINE
  8
0
 10
-1142.59
 20
-200.575
 11
-1124.59
 21
-200.575
  0
LINE
  8
0
 10
-1124.59
 20
-200.575
 11
-1124.59
 21
-224.925
  0
LINE
  8
0
 10
-1124.59
 20
-224.925
 11
-1142.59
 21
-224.925
  0
LINE
  8
0
 10
838.891
 20
-224.925
 11
838.891
 21
-200.575
  0
LINE
  8
0
 10
838.891
 20
-200.575
 11
856.891
 21
-200.575
  0
LINE
  8
0
 10
856.891
 20
-200.575
 11
856.891
 21
-224.925
  0
LINE
  8
0
 10
856.891
 20
-224.925
 11
838.891
 21
-224.925
  0
LINE
  8
0
 10
-1142.59
 20
-402.725
 11
-1142.59
 21
-378.375
  0
LINE
  8
0
 10
-1142.59
 20
-378.375
 11
-1124.59
 21
-378.375
  0
LINE
  8
0
 10
-1124.59
 20
-378.375
 11
-1124.59
 21
-402.725
  0
LINE
  8
0
 10
-1124.59
 20
-402.725
 11
-1142.59
 21
-402.725
  0
LINE
  8
0
 10
838.891
 20
-402.725
 11
838.891
 21
-378.375
  0
LINE
  8
0
 10
838.891
 20
-378.375
 11
856.891
 21
-378.375
  0
LINE
  8
0
 10
856.891
 20
-378.375
 11
856.891
 21
-402.725
  0
LINE
  8
0
 10
856.891
 20
-402.725
 11
838.891
 21
-402.725
  0
LINE
  8
0
 10
-917.153
 20
-423.491
 11
-917.153
 21
-403.109
  0
LINE
  8
0
 10
-917.153
 20
-403.109
 11
-825.872
 21
-403.109
  0
LINE
  8
0
 10
-825.872
 20
-403.109
 11
-825.872
 21
-423.491
  0
LINE
  8
0
 10
-825.872
 20
-423.491
 11
-917.153
 21
-423.491
  0
LINE
  8
0
 10
-431.378
 20
-423.491
 11
-431.378
 21
-403.109
  0
LINE
  8
0
 10
-431.378
 20
-403.109
 11
-340.097
 21
-403.109
  0
LINE
  8
0
 10
-340.097
 20
-403.109
 11
-340.097
 21
-423.491
  0
LINE
  8
0
 10
-340.097
 20
-423.491
 11
-431.378
 21
-423.491
  0
LINE
  8
0
 10
54.3969
 20
-423.491
 11
54.3969
 21
-403.109
  0
LINE
  8
0
 10
54.3969
 20
-403.109
 11
145.678
 21
-403.109
  0
LINE
  8
0
 10
145.678
 20
-403.109
 11
145.678
 21
-423.491
  0
LINE
  8
0
 10
145.678
 20
-423.491
 11
54.3969
 21
-423.491
  0
LINE
  8
0
 10
540.172
 20
-423.491
 11
540.172
 21
-403.109
  0
LINE
  8
0
 10
540.172
 20
-403.109
 11
631.453
 21
-403.109
  0
LINE
  8
0
 10
631.453
 20
-403.109
 11
631.453
 21
-423.491
  0
LINE
  8
0
 10
631.453
 20
-423.491
 11
540.172
 21
-423.491
  0
LINE
  8
0
 10
828.7
 20
-482.6
 11
-1114.4
 21
-482.6
  0
LINE
  8
0
 10
-1114.4
 20
-482.6
 11
-1114.4
 21
-520.7
  0
LINE
  8
0
 10
-1114.4
 20
-520.7
 11
828.7
 21
-520.7
  0
LINE
  8
0
 10
828.7
 20
-520.7
 11
828.7
 21
-482.6
  0
LINE
  8
0
 10
828.7
 20
-539.75
 11
-1114.4
 21
-539.75
  0
LINE
  8
0
 10
-1114.4
 20
-539.75
 11
-1114.4
 21
-577.85
  0
LINE
  8
0
 10
-1114.4
 20
-577.85
 11
828.7
 21
-577.85
  0
LINE
  8
0
 10
828.7
 20
-577.85
 11
828.7
 21
-539.75
  0
ENDSEC
  0
SECTION
  2
OBJECTS
  0
DICTIONARY
  0
ENDSEC
  0
EOF
