<?xml version="1.0" standalone="no"?>
<!DOCTYPE svg PUBLIC "-//W3C//DTD SVG 1.1//EN" "http://www.w3.org/Graphics/SVG/1.1/DTD/svg11.dtd">
<svg width="2307" height="1124" viewBox="-1169 -562 2307 1124" xmlns="http://www.w3.org/2000/svg" version="1.1">
<title>OpenSCAD Model</title>
<path d="
M 67.7751,559.245 L 74.2844,554.516 L 79.0137,548.006 L 81.5,540.354 L 81.5,-540.354 L 79.0137,-548.006
 L 74.2844,-554.516 L 67.7751,-559.245 L 60.123,-561.731 L -1147.02,-561.731 L -1154.68,-559.245 L -1161.18,-554.516
 L -1165.91,-548.006 L -1168.4,-540.354 L -1168.4,-427.777 L -1165.91,-420.125 L -1161.18,-413.616 L -1154.68,-408.886
 L -1147.02,-406.4 L -968.797,-406.4 L -961.145,-403.914 L -954.636,-399.184 L -949.906,-392.675 L -947.42,-385.023
 L -947.42,80.2229 L -949.906,87.8751 L -954.636,94.3844 L -961.145,99.1136 L -968.797,101.6 L -1147.02,101.6
 L -1154.68,104.086 L -1161.18,108.816 L -1165.91,115.325 L -1168.4,122.977 L -1168.4,540.354 L -1165.91,548.006
 L -1161.18,554.516 L -1154.68,559.245 L -1147.02,561.731 L 60.1229,561.731 z
M -1113.49,-513.159 L -1113.49,-533.541 L -1022.21,-533.541 L -1022.21,-513.159 z
M -935.691,-513.159 L -935.691,-533.541 L -844.409,-533.541 L -844.409,-513.159 z
M -59.3906,-513.159 L -59.3906,-533.541 L 31.8906,-533.541 L 31.8906,-513.159 z
M -237.191,-513.159 L -237.191,-533.541 L -145.909,-533.541 L -145.909,-513.159 z
M -748.023,101.6 L -755.675,99.1136 L -762.184,94.3844 L -766.914,87.8751 L -769.4,80.2229 L -769.4,-385.023
 L -766.914,-392.675 L -762.184,-399.184 L -755.675,-403.914 L -748.023,-406.4 L -663.777,-406.4 L -656.125,-403.914
 L -649.616,-399.184 L -644.886,-392.675 L -642.4,-385.023 L -642.4,80.2229 L -644.886,87.8751 L -649.616,94.3844
 L -656.125,99.1136 L -663.777,101.6 z
M -494.023,101.6 L -501.675,99.1136 L -508.184,94.3844 L -512.914,87.8751 L -515.4,80.2229 L -515.4,-385.023
 L -512.914,-392.675 L -508.184,-399.184 L -501.675,-403.914 L -494.023,-406.4 L -409.777,-406.4 L -402.125,-403.914
 L -395.616,-399.184 L -390.886,-392.675 L -388.4,-385.023 L -388.4,80.2229 L -390.886,87.8751 L -395.616,94.3844
 L -402.125,99.1136 L -409.777,101.6 z
M -240.023,101.6 L -247.675,99.1136 L -254.184,94.3844 L -258.914,87.8751 L -261.4,80.2229 L -261.4,-385.023
 L -258.914,-392.675 L -254.184,-399.184 L -247.675,-403.914 L -240.023,-406.4 L -155.777,-406.4 L -148.125,-403.914
 L -141.616,-399.184 L -136.886,-392.675 L -134.4,-385.023 L -134.4,80.2229 L -136.886,87.8751 L -141.616,94.3844
 L -148.125,99.1136 L -155.777,101.6 z
M -877.491,-163.909 L -877.491,-255.191 L -857.109,-255.191 L -857.109,-163.909 z
M -1.19063,-163.909 L -1.19063,-255.191 L 19.1906,-255.191 L 19.1906,-163.909 z
M -877.491,255.191 L -877.491,163.909 L -857.109,163.909 L -857.109,255.191 z
M -1.19063,255.191 L -1.19063,163.909 L 19.1906,163.909 L 19.1906,255.191 z
M -935.691,533.541 L -935.691,513.159 L -844.409,513.159 L -844.409,533.541 z
M -1113.49,533.541 L -1113.49,513.159 L -1022.21,513.159 L -1022.21,533.541 z
M -237.191,533.541 L -237.191,513.159 L -145.909,513.159 L -145.909,533.541 z
M -59.3906,533.541 L -59.3906,513.159 L 31.8906,513.159 L 31.8906,533.541 z
M 399.519,558.293 L 402.774,555.928 L 405.139,552.673 L 406.382,548.847 L 406.382,513.755 L 829.847,513.755
 L 829.847,534.136 L 803.257,534.136 L 803.257,548.847 L 804.5,552.673 L 806.865,555.928 L 810.119,558.293
 L 813.945,559.536 L 881.468,559.536 L 885.294,558.293 L 888.549,555.928 L 890.914,552.673 L 892.157,548.847
 L 892.157,513.755 L 1114.8,513.755 L 1114.8,254 L 1129.73,254 L 1132.44,253.119 L 1134.75,251.443
 L 1136.42,249.137 L 1137.3,246.425 L 1137.3,172.675 L 1136.42,169.963 L 1134.75,167.657 L 1132.44,165.981
 L 1129.73,165.1 L 1114.8,165.1 L 1114.8,-165.1 L 1129.73,-165.1 L 1132.44,-165.981 L 1134.75,-167.657
 L 1136.42,-169.963 L 1137.3,-172.675 L 1137.3,-246.425 L 1136.42,-249.137 L 1134.75,-251.443 L 1132.44,-253.119
 L 1129.73,-254 L 1114.8,-254 L 1114.8,-513.755 L 892.157,-513.755 L 892.157,-548.847 L 890.914,-552.673
 L 888.549,-555.928 L 885.294,-558.293 L 881.468,-559.536 L 813.945,-559.536 L 810.119,-558.293 L 806.865,-555.928
 L 804.5,-552.673 L 803.257,-548.847 L 803.257,-534.136 L 829.847,-534.136 L 829.847,-513.755 L 406.382,-513.755
 L 406.382,-548.847 L 405.139,-552.673 L 402.774,-555.928 L 399.519,-558.293 L 395.693,-559.536 L 328.17,-559.536
 L 324.344,-558.293 L 321.09,-555.928 L 318.725,-552.673 L 317.482,-548.847 L 317.482,-534.136 L 344.073,-534.136
 L 344.073,-513.755 L 145.635,-513.755 L 145.635,513.755 L 344.073,513.755 L 344.073,534.136 L 317.482,534.136
 L 317.482,548.847 L 318.725,552.673 L 321.09,555.928 L 324.344,558.293 L 328.17,559.536 L 395.693,559.536
 z
" stroke="black" fill="lightgray" stroke-width="0.5"/></svg>
