  0
SECTION
  2
BLOCKS
  0
ENDSEC
  0
SECTION
  2
ENTITIES
  0
LINE
  8
0
 10
831.85
 20
260.35
 11
852.091
 21
260.35
  0
LINE
  8
0
 10
852.091
 20
260.35
 11
870.628
 21
271.118
  0
LINE
  8
0
 10
870.628
 20
271.118
 11
873.883
 21
273.483
  0
LINE
  8
0
 10
873.883
 20
273.483
 11
876.247
 21
276.737
  0
LINE
  8
0
 10
876.247
 20
276.737
 11
877.491
 21
280.564
  0
LINE
  8
0
 10
877.491
 20
280.564
 11
877.491
 21
329.036
  0
LINE
  8
0
 10
877.491
 20
329.036
 11
876.247
 21
332.863
  0
LINE
  8
0
 10
876.247
 20
332.863
 11
873.883
 21
336.117
  0
LINE
  8
0
 10
873.883
 20
336.117
 11
870.628
 21
338.482
  0
LINE
  8
0
 10
870.628
 20
338.482
 11
852.091
 21
349.25
  0
LINE
  8
0
 10
852.091
 20
349.25
 11
831.85
 21
349.25
  0
LINE
  8
0
 10
831.85
 20
349.25
 11
831.85
 21
438.15
  0
LINE
  8
0
 10
831.85
 20
438.15
 11
852.091
 21
438.15
  0
LINE
  8
0
 10
852.091
 20
438.15
 11
870.628
 21
448.918
  0
LINE
  8
0
 10
870.628
 20
448.918
 11
873.883
 21
451.283
  0
LINE
  8
0
 10
873.883
 20
451.283
 11
876.247
 21
454.537
  0
LINE
  8
0
 10
876.247
 20
454.537
 11
877.491
 21
458.364
  0
LINE
  8
0
 10
877.491
 20
458.364
 11
877.491
 21
506.836
  0
LINE
  8
0
 10
877.491
 20
506.836
 11
876.247
 21
510.663
  0
LINE
  8
0
 10
876.247
 20
510.663
 11
873.883
 21
513.917
  0
LINE
  8
0
 10
873.883
 20
513.917
 11
870.628
 21
516.282
  0
LINE
  8
0
 10
870.628
 20
516.282
 11
852.091
 21
527.05
  0
LINE
  8
0
 10
852.091
 20
527.05
 11
831.85
 21
527.05
  0
LINE
  8
0
 10
831.85
 20
527.05
 11
831.85
 21
558.8
  0
LINE
  8
0
 10
831.85
 20
558.8
 11
-1111.25
 21
558.8
  0
LINE
  8
0
 10
-1111.25
 20
558.8
 11
-1111.25
 21
527.05
  0
LINE
  8
0
 10
-1111.25
 20
527.05
 11
-1131.49
 21
527.05
  0
LINE
  8
0
 10
-1131.49
 20
527.05
 11
-1150.03
 21
516.282
  0
LINE
  8
0
 10
-1150.03
 20
516.282
 11
-1153.28
 21
513.917
  0
LINE
  8
0
 10
-1153.28
 20
513.917
 11
-1155.65
 21
510.663
  0
LINE
  8
0
 10
-1155.65
 20
510.663
 11
-1156.89
 21
506.836
  0
LINE
  8
0
 10
-1156.89
 20
506.836
 11
-1156.89
 21
458.364
  0
LINE
  8
0
 10
-1156.89
 20
458.364
 11
-1155.65
 21
454.537
  0
LINE
  8
0
 10
-1155.65
 20
454.537
 11
-1153.28
 21
451.283
  0
LINE
  8
0
 10
-1153.28
 20
451.283
 11
-1150.03
 21
448.918
  0
LINE
  8
0
 10
-1150.03
 20
448.918
 11
-1131.49
 21
438.15
  0
LINE
  8
0
 10
-1131.49
 20
438.15
 11
-1111.25
 21
438.15
  0
LINE
  8
0
 10
-1111.25
 20
438.15
 11
-1111.25
 21
349.25
  0
LINE
  8
0
 10
-1111.25
 20
349.25
 11
-1131.49
 21
349.25
  0
LINE
  8
0
 10
-1131.49
 20
349.25
 11
-1150.03
 21
338.482
  0
LINE
  8
0
 10
-1150.03
 20
338.482
 11
-1153.28
 21
336.117
  0
LINE
  8
0
 10
-1153.28
 20
336.117
 11
-1155.65
 21
332.863
  0
LINE
  8
0
 10
-1155.65
 20
332.863
 11
-1156.89
 21
329.036
  0
LINE
  8
0
 10
-1156.89
 20
329.036
 11
-1156.89
 21
280.564
  0
LINE
  8
0
 10
-1156.89
 20
280.564
 11
-1155.65
 21
276.737
  0
LINE
  8
0
 10
-1155.65
 20
276.737
 11
-1153.28
 21
273.483
  0
LINE
  8
0
 10
-1153.28
 20
273.483
 11
-1150.03
 21
271.118
  0
LINE
  8
0
 10
-1150.03
 20
271.118
 11
-1131.49
 21
260.35
  0
LINE
  8
0
 10
-1131.49
 20
260.35
 11
-1111.25
 21
260.35
  0
LINE
  8
0
 10
-1111.25
 20
260.35
 11
-1111.25
 21
234.95
  0
LINE
  8
0
 10
-1111.25
 20
234.95
 11
831.85
 21
234.95
  0
LINE
  8
0
 10
831.85
 20
234.95
 11
831.85
 21
260.35
  0
LINE
  8
0
 10
-1141.02
 20
469.9
 11
-1141.02
 21
495.3
  0
LINE
  8
0
 10
-1141.02
 20
495.3
 11
-1121.97
 21
495.3
  0
LINE
  8
0
 10
-1121.97
 20
495.3
 11
-1121.97
 21
469.9
  0
LINE
  8
0
 10
-1121.97
 20
469.9
 11
-1141.02
 21
469.9
  0
LINE
  8
0
 10
842.566
 20
469.9
 11
842.566
 21
495.3
  0
LINE
  8
0
 10
842.566
 20
495.3
 11
861.616
 21
495.3
  0
LINE
  8
0
 10
861.616
 20
495.3
 11
861.616
 21
469.9
  0
LINE
  8
0
 10
861.616
 20
469.9
 11
842.566
 21
469.9
  0
LINE
  8
0
 10
-1141.02
 20
292.1
 11
-1141.02
 21
317.5
  0
LINE
  8
0
 10
-1141.02
 20
317.5
 11
-1121.97
 21
317.5
  0
LINE
  8
0
 10
-1121.97
 20
317.5
 11
-1121.97
 21
292.1
  0
LINE
  8
0
 10
-1121.97
 20
292.1
 11
-1141.02
 21
292.1
  0
LINE
  8
0
 10
842.566
 20
292.1
 11
842.566
 21
317.5
  0
LINE
  8
0
 10
842.566
 20
317.5
 11
861.616
 21
317.5
  0
LINE
  8
0
 10
861.616
 20
317.5
 11
861.616
 21
292.1
  0
LINE
  8
0
 10
861.616
 20
292.1
 11
842.566
 21
292.1
  0
LINE
  8
0
 10
-914.003
 20
271.859
 11
-914.003
 21
293.291
  0
LINE
  8
0
 10
-914.003
 20
293.291
 11
-822.722
 21
293.291
  0
LINE
  8
0
 10
-822.722
 20
293.291
 11
-822.722
 21
271.859
  0
LINE
  8
0
 10
-822.722
 20
271.859
 11
-914.003
 21
271.859
  0
LINE
  8
0
 10
-428.228
 20
271.859
 11
-428.228
 21
293.291
  0
LINE
  8
0
 10
-428.228
 20
293.291
 11
-336.947
 21
293.291
  0
LINE
  8
0
 10
-336.947
 20
293.291
 11
-336.947
 21
271.859
  0
LINE
  8
0
 10
-336.947
 20
271.859
 11
-428.228
 21
271.859
  0
LINE
  8
0
 10
57.5469
 20
271.859
 11
57.5469
 21
293.291
  0
LINE
  8
0
 10
57.5469
 20
293.291
 11
148.828
 21
293.291
  0
LINE
  8
0
 10
148.828
 20
293.291
 11
148.828
 21
271.859
  0
LINE
  8
0
 10
148.828
 20
271.859
 11
57.5469
 21
271.859
  0
LINE
  8
0
 10
543.322
 20
271.859
 11
543.322
 21
293.291
  0
LINE
  8
0
 10
543.322
 20
293.291
 11
634.603
 21
293.291
  0
LINE
  8
0
 10
634.603
 20
293.291
 11
634.603
 21
271.859
  0
LINE
  8
0
 10
634.603
 20
271.859
 11
543.322
 21
271.859
  0
LINE
  8
0
 10
831.85
 20
-88.9
 11
852.091
 21
-88.9
  0
LINE
  8
0
 10
852.091
 20
-88.9
 11
870.628
 21
-78.1318
  0
LINE
  8
0
 10
870.628
 20
-78.1318
 11
873.883
 21
-75.7672
  0
LINE
  8
0
 10
873.883
 20
-75.7672
 11
876.247
 21
-72.5125
  0
LINE
  8
0
 10
876.247
 20
-72.5125
 11
877.491
 21
-68.6865
  0
LINE
  8
0
 10
877.491
 20
-68.6865
 11
877.491
 21
-20.2135
  0
LINE
  8
0
 10
877.491
 20
-20.2135
 11
876.247
 21
-16.3874
  0
LINE
  8
0
 10
876.247
 20
-16.3874
 11
873.883
 21
-13.1328
  0
LINE
  8
0
 10
873.883
 20
-13.1328
 11
870.628
 21
-10.7682
  0
LINE
  8
0
 10
870.628
 20
-10.7682
 11
852.091
 21
0
  0
LINE
  8
0
 10
852.091
 20
0
 11
831.85
 21
0
  0
LINE
  8
0
 10
831.85
 20
0
 11
831.85
 21
88.9
  0
LINE
  8
0
 10
831.85
 20
88.9
 11
852.091
 21
88.9
  0
LINE
  8
0
 10
852.091
 20
88.9
 11
870.628
 21
99.6682
  0
LINE
  8
0
 10
870.628
 20
99.6682
 11
873.883
 21
102.033
  0
LINE
  8
0
 10
873.883
 20
102.033
 11
876.247
 21
105.287
  0
LINE
  8
0
 10
876.247
 20
105.287
 11
877.491
 21
109.114
  0
LINE
  8
0
 10
877.491
 20
109.114
 11
877.491
 21
157.586
  0
LINE
  8
0
 10
877.491
 20
157.586
 11
876.247
 21
161.413
  0
LINE
  8
0
 10
876.247
 20
161.413
 11
873.883
 21
164.667
  0
LINE
  8
0
 10
873.883
 20
164.667
 11
870.628
 21
167.032
  0
LINE
  8
0
 10
870.628
 20
167.032
 11
852.091
 21
177.8
  0
LINE
  8
0
 10
852.091
 20
177.8
 11
831.85
 21
177.8
  0
LINE
  8
0
 10
831.85
 20
177.8
 11
831.85
 21
209.55
  0
LINE
  8
0
 10
831.85
 20
209.55
 11
-1111.25
 21
209.55
  0
LINE
  8
0
 10
-1111.25
 20
209.55
 11
-1111.25
 21
177.8
  0
LINE
  8
0
 10
-1111.25
 20
177.8
 11
-1131.49
 21
177.8
  0
LINE
  8
0
 10
-1131.49
 20
177.8
 11
-1150.03
 21
167.032
  0
LINE
  8
0
 10
-1150.03
 20
167.032
 11
-1153.28
 21
164.667
  0
LINE
  8
0
 10
-1153.28
 20
164.667
 11
-1155.65
 21
161.413
  0
LINE
  8
0
 10
-1155.65
 20
161.413
 11
-1156.89
 21
157.586
  0
LINE
  8
0
 10
-1156.89
 20
157.586
 11
-1156.89
 21
109.114
  0
LINE
  8
0
 10
-1156.89
 20
109.114
 11
-1155.65
 21
105.287
  0
LINE
  8
0
 10
-1155.65
 20
105.287
 11
-1153.28
 21
102.033
  0
LINE
  8
0
 10
-1153.28
 20
102.033
 11
-1150.03
 21
99.6682
  0
LINE
  8
0
 10
-1150.03
 20
99.6682
 11
-1131.49
 21
88.9
  0
LINE
  8
0
 10
-1131.49
 20
88.9
 11
-1111.25
 21
88.9
  0
LINE
  8
0
 10
-1111.25
 20
88.9
 11
-1111.25
 21
0
  0
LINE
  8
0
 10
-1111.25
 20
0
 11
-1131.49
 21
0
  0
LINE
  8
0
 10
-1131.49
 20
0
 11
-1150.03
 21
-10.7682
  0
LINE
  8
0
 10
-1150.03
 20
-10.7682
 11
-1153.28
 21
-13.1328
  0
LINE
  8
0
 10
-1153.28
 20
-13.1328
 11
-1155.65
 21
-16.3874
  0
LINE
  8
0
 10
-1155.65
 20
-16.3874
 11
-1156.89
 21
-20.2135
  0
LINE
  8
0
 10
-1156.89
 20
-20.2135
 11
-1156.89
 21
-68.6865
  0
LINE
  8
0
 10
-1156.89
 20
-68.6865
 11
-1155.65
 21
-72.5125
  0
LINE
  8
0
 10
-1155.65
 20
-72.5125
 11
-1153.28
 21
-75.7672
  0
LINE
  8
0
 10
-1153.28
 20
-75.7672
 11
-1150.03
 21
-78.1318
  0
LINE
  8
0
 10
-1150.03
 20
-78.1318
 11
-1131.49
 21
-88.9
  0
LINE
  8
0
 10
-1131.49
 20
-88.9
 11
-1111.25
 21
-88.9
  0
LINE
  8
0
 10
-1111.25
 20
-88.9
 11
-1111.25
 21
-114.3
  0
LINE
  8
0
 10
-1111.25
 20
-114.3
 11
831.85
 21
-114.3
  0
LINE
  8
0
 10
831.85
 20
-114.3
 11
831.85
 21
-88.9
  0
LINE
  8
0
 10
-1141.02
 20
120.65
 11
-1141.02
 21
146.05
  0
LINE
  8
0
 10
-1141.02
 20
146.05
 11
-1121.97
 21
146.05
  0
LINE
  8
0
 10
-1121.97
 20
146.05
 11
-1121.97
 21
120.65
  0
LINE
  8
0
 10
-1121.97
 20
120.65
 11
-1141.02
 21
120.65
  0
LINE
  8
0
 10
842.566
 20
120.65
 11
842.566
 21
146.05
  0
LINE
  8
0
 10
842.566
 20
146.05
 11
861.616
 21
146.05
  0
LINE
  8
0
 10
861.616
 20
146.05
 11
861.616
 21
120.65
  0
LINE
  8
0
 10
861.616
 20
120.65
 11
842.566
 21
120.65
  0
LINE
  8
0
 10
842.566
 20
-57.15
 11
842.566
 21
-31.75
  0
LINE
  8
0
 10
842.566
 20
-31.75
 11
861.616
 21
-31.75
  0
LINE
  8
0
 10
861.616
 20
-31.75
 11
861.616
 21
-57.15
  0
LINE
  8
0
 10
861.616
 20
-57.15
 11
842.566
 21
-57.15
  0
LINE
  8
0
 10
-1141.02
 20
-57.15
 11
-1141.02
 21
-31.75
  0
LINE
  8
0
 10
-1141.02
 20
-31.75
 11
-1121.97
 21
-31.75
  0
LINE
  8
0
 10
-1121.97
 20
-31.75
 11
-1121.97
 21
-57.15
  0
LINE
  8
0
 10
-1121.97
 20
-57.15
 11
-1141.02
 21
-57.15
  0
LINE
  8
0
 10
-914.003
 20
-77.3906
 11
-914.003
 21
-55.9594
  0
LINE
  8
0
 10
-914.003
 20
-55.9594
 11
-822.722
 21
-55.9594
  0
LINE
  8
0
 10
-822.722
 20
-55.9594
 11
-822.722
 21
-77.3906
  0
LINE
  8
0
 10
-822.722
 20
-77.3906
 11
-914.003
 21
-77.3906
  0
LINE
  8
0
 10
543.322
 20
-77.3906
 11
543.322
 21
-55.9594
  0
LINE
  8
0
 10
543.322
 20
-55.9594
 11
634.603
 21
-55.9594
  0
LINE
  8
0
 10
634.603
 20
-55.9594
 11
634.603
 21
-77.3906
  0
LINE
  8
0
 10
634.603
 20
-77.3906
 11
543.322
 21
-77.3906
  0
LINE
  8
0
 10
57.5469
 20
-77.3906
 11
57.5469
 21
-55.9594
  0
LINE
  8
0
 10
57.5469
 20
-55.9594
 11
148.828
 21
-55.9594
  0
LINE
  8
0
 10
148.828
 20
-55.9594
 11
148.828
 21
-77.3906
  0
LINE
  8
0
 10
148.828
 20
-77.3906
 11
57.5469
 21
-77.3906
  0
LINE
  8
0
 10
-428.228
 20
-77.3906
 11
-428.228
 21
-55.9594
  0
LINE
  8
0
 10
-428.228
 20
-55.9594
 11
-336.947
 21
-55.9594
  0
LINE
  8
0
 10
-336.947
 20
-55.9594
 11
-336.947
 21
-77.3906
  0
LINE
  8
0
 10
-336.947
 20
-77.3906
 11
-428.228
 21
-77.3906
  0
LINE
  8
0
 10
831.85
 20
-438.15
 11
852.091
 21
-438.15
  0
LINE
  8
0
 10
852.091
 20
-438.15
 11
870.628
 21
-427.382
  0
LINE
  8
0
 10
870.628
 20
-427.382
 11
873.883
 21
-425.017
  0
LINE
  8
0
 10
873.883
 20
-425.017
 11
876.247
 21
-421.763
  0
LINE
  8
0
 10
876.247
 20
-421.763
 11
877.491
 21
-417.936
  0
LINE
  8
0
 10
877.491
 20
-417.936
 11
877.491
 21
-369.464
  0
LINE
  8
0
 10
877.491
 20
-369.464
 11
876.247
 21
-365.637
  0
LINE
  8
0
 10
876.247
 20
-365.637
 11
873.883
 21
-362.383
  0
LINE
  8
0
 10
873.883
 20
-362.383
 11
870.628
 21
-360.018
  0
LINE
  8
0
 10
870.628
 20
-360.018
 11
852.091
 21
-349.25
  0
LINE
  8
0
 10
852.091
 20
-349.25
 11
831.85
 21
-349.25
  0
LINE
  8
0
 10
831.85
 20
-349.25
 11
831.85
 21
-260.35
  0
LINE
  8
0
 10
831.85
 20
-260.35
 11
852.091
 21
-260.35
  0
LINE
  8
0
 10
852.091
 20
-260.35
 11
870.628
 21
-249.582
  0
LINE
  8
0
 10
870.628
 20
-249.582
 11
873.883
 21
-247.217
  0
LINE
  8
0
 10
873.883
 20
-247.217
 11
876.247
 21
-243.963
  0
LINE
  8
0
 10
876.247
 20
-243.963
 11
877.491
 21
-240.136
  0
LINE
  8
0
 10
877.491
 20
-240.136
 11
877.491
 21
-191.664
  0
LINE
  8
0
 10
877.491
 20
-191.664
 11
876.247
 21
-187.837
  0
LINE
  8
0
 10
876.247
 20
-187.837
 11
873.883
 21
-184.583
  0
LINE
  8
0
 10
873.883
 20
-184.583
 11
870.628
 21
-182.218
  0
LINE
  8
0
 10
870.628
 20
-182.218
 11
852.091
 21
-171.45
  0
LINE
  8
0
 10
852.091
 20
-171.45
 11
831.85
 21
-171.45
  0
LINE
  8
0
 10
831.85
 20
-171.45
 11
831.85
 21
-139.7
  0
LINE
  8
0
 10
831.85
 20
-139.7
 11
-1111.25
 21
-139.7
  0
LINE
  8
0
 10
-1111.25
 20
-139.7
 11
-1111.25
 21
-171.45
  0
LINE
  8
0
 10
-1111.25
 20
-171.45
 11
-1131.49
 21
-171.45
  0
LINE
  8
0
 10
-1131.49
 20
-171.45
 11
-1150.03
 21
-182.218
  0
LINE
  8
0
 10
-1150.03
 20
-182.218
 11
-1153.28
 21
-184.583
  0
LINE
  8
0
 10
-1153.28
 20
-184.583
 11
-1155.65
 21
-187.837
  0
LINE
  8
0
 10
-1155.65
 20
-187.837
 11
-1156.89
 21
-191.664
  0
LINE
  8
0
 10
-1156.89
 20
-191.664
 11
-1156.89
 21
-240.136
  0
LINE
  8
0
 10
-1156.89
 20
-240.136
 11
-1155.65
 21
-243.963
  0
LINE
  8
0
 10
-1155.65
 20
-243.963
 11
-1153.28
 21
-247.217
  0
LINE
  8
0
 10
-1153.28
 20
-247.217
 11
-1150.03
 21
-249.582
  0
LINE
  8
0
 10
-1150.03
 20
-249.582
 11
-1131.49
 21
-260.35
  0
LINE
  8
0
 10
-1131.49
 20
-260.35
 11
-1111.25
 21
-260.35
  0
LINE
  8
0
 10
-1111.25
 20
-260.35
 11
-1111.25
 21
-349.25
  0
LINE
  8
0
 10
-1111.25
 20
-349.25
 11
-1131.49
 21
-349.25
  0
LINE
  8
0
 10
-1131.49
 20
-349.25
 11
-1150.03
 21
-360.018
  0
LINE
  8
0
 10
-1150.03
 20
-360.018
 11
-1153.28
 21
-362.383
  0
LINE
  8
0
 10
-1153.28
 20
-362.383
 11
-1155.65
 21
-365.637
  0
LINE
  8
0
 10
-1155.65
 20
-365.637
 11
-1156.89
 21
-369.464
  0
LINE
  8
0
 10
-1156.89
 20
-369.464
 11
-1156.89
 21
-417.936
  0
LINE
  8
0
 10
-1156.89
 20
-417.936
 11
-1155.65
 21
-421.763
  0
LINE
  8
0
 10
-1155.65
 20
-421.763
 11
-1153.28
 21
-425.017
  0
LINE
  8
0
 10
-1153.28
 20
-425.017
 11
-1150.03
 21
-427.382
  0
LINE
  8
0
 10
-1150.03
 20
-427.382
 11
-1131.49
 21
-438.15
  0
LINE
  8
0
 10
-1131.49
 20
-438.15
 11
-1111.25
 21
-438.15
  0
LINE
  8
0
 10
-1111.25
 20
-438.15
 11
-1111.25
 21
-463.55
  0
LINE
  8
0
 10
-1111.25
 20
-463.55
 11
831.85
 21
-463.55
  0
LINE
  8
0
 10
831.85
 20
-463.55
 11
831.85
 21
-438.15
  0
LINE
  8
0
 10
-1141.02
 20
-228.6
 11
-1141.02
 21
-203.2
  0
LINE
  8
0
 10
-1141.02
 20
-203.2
 11
-1121.97
 21
-203.2
  0
LINE
  8
0
 10
-1121.97
 20
-203.2
 11
-1121.97
 21
-228.6
  0
LINE
  8
0
 10
-1121.97
 20
-228.6
 11
-1141.02
 21
-228.6
  0
LINE
  8
0
 10
842.566
 20
-228.6
 11
842.566
 21
-203.2
  0
LINE
  8
0
 10
842.566
 20
-203.2
 11
861.616
 21
-203.2
  0
LINE
  8
0
 10
861.616
 20
-203.2
 11
861.616
 21
-228.6
  0
LINE
  8
0
 10
861.616
 20
-228.6
 11
842.566
 21
-228.6
  0
LINE
  8
0
 10
-1141.02
 20
-406.4
 11
-1141.02
 21
-381
  0
LINE
  8
0
 10
-1141.02
 20
-381
 11
-1121.97
 21
-381
  0
LINE
  8
0
 10
-1121.97
 20
-381
 11
-1121.97
 21
-406.4
  0
LINE
  8
0
 10
-1121.97
 20
-406.4
 11
-1141.02
 21
-406.4
  0
LINE
  8
0
 10
842.566
 20
-406.4
 11
842.566
 21
-381
  0
LINE
  8
0
 10
842.566
 20
-381
 11
861.616
 21
-381
  0
LINE
  8
0
 10
861.616
 20
-381
 11
861.616
 21
-406.4
  0
LINE
  8
0
 10
861.616
 20
-406.4
 11
842.566
 21
-406.4
  0
LINE
  8
0
 10
-914.003
 20
-426.641
 11
-914.003
 21
-405.209
  0
LINE
  8
0
 10
-914.003
 20
-405.209
 11
-822.722
 21
-405.209
  0
LINE
  8
0
 10
-822.722
 20
-405.209
 11
-822.722
 21
-426.641
  0
LINE
  8
0
 10
-822.722
 20
-426.641
 11
-914.003
 21
-426.641
  0
LINE
  8
0
 10
-428.228
 20
-426.641
 11
-428.228
 21
-405.209
  0
LINE
  8
0
 10
-428.228
 20
-405.209
 11
-336.947
 21
-405.209
  0
LINE
  8
0
 10
-336.947
 20
-405.209
 11
-336.947
 21
-426.641
  0
LINE
  8
0
 10
-336.947
 20
-426.641
 11
-428.228
 21
-426.641
  0
LINE
  8
0
 10
57.5469
 20
-426.641
 11
57.5469
 21
-405.209
  0
LINE
  8
0
 10
57.5469
 20
-405.209
 11
148.828
 21
-405.209
  0
LINE
  8
0
 10
148.828
 20
-405.209
 11
148.828
 21
-426.641
  0
LINE
  8
0
 10
148.828
 20
-426.641
 11
57.5469
 21
-426.641
  0
LINE
  8
0
 10
543.322
 20
-426.641
 11
543.322
 21
-405.209
  0
LINE
  8
0
 10
543.322
 20
-405.209
 11
634.603
 21
-405.209
  0
LINE
  8
0
 10
634.603
 20
-405.209
 11
634.603
 21
-426.641
  0
LINE
  8
0
 10
634.603
 20
-426.641
 11
543.322
 21
-426.641
  0
LINE
  8
0
 10
831.85
 20
-482.6
 11
-1111.25
 21
-482.6
  0
LINE
  8
0
 10
-1111.25
 20
-482.6
 11
-1111.25
 21
-520.7
  0
LINE
  8
0
 10
-1111.25
 20
-520.7
 11
831.85
 21
-520.7
  0
LINE
  8
0
 10
831.85
 20
-520.7
 11
831.85
 21
-482.6
  0
LINE
  8
0
 10
831.85
 20
-539.75
 11
-1111.25
 21
-539.75
  0
LINE
  8
0
 10
-1111.25
 20
-539.75
 11
-1111.25
 21
-577.85
  0
LINE
  8
0
 10
-1111.25
 20
-577.85
 11
831.85
 21
-577.85
  0
LINE
  8
0
 10
831.85
 20
-577.85
 11
831.85
 21
-539.75
  0
ENDSEC
  0
SECTION
  2
OBJECTS
  0
DICTIONARY
  0
ENDSEC
  0
EOF
