  0
SECTION
  2
BLOCKS
  0
ENDSEC
  0
SECTION
  2
ENTITIES
  0
LINE
  8
0
 10
43.4251
 20
-580.126
 11
49.9344
 21
-575.397
  0
LINE
  8
0
 10
49.9344
 20
-575.397
 11
54.6636
 21
-568.888
  0
LINE
  8
0
 10
54.6636
 20
-568.888
 11
57.15
 21
-561.235
  0
LINE
  8
0
 10
57.15
 20
-561.235
 11
57.15
 21
561.235
  0
LINE
  8
0
 10
57.15
 20
561.235
 11
54.6637
 21
568.888
  0
LINE
  8
0
 10
54.6637
 20
568.888
 11
49.9344
 21
575.397
  0
LINE
  8
0
 10
49.9344
 20
575.397
 11
43.4251
 21
580.126
  0
LINE
  8
0
 10
43.4251
 20
580.126
 11
35.773
 21
582.612
  0
LINE
  8
0
 10
35.773
 20
582.612
 11
-1172.42
 21
582.612
  0
LINE
  8
0
 10
-1172.42
 20
582.612
 11
-1180.08
 21
580.126
  0
LINE
  8
0
 10
-1180.08
 20
580.126
 11
-1186.58
 21
575.397
  0
LINE
  8
0
 10
-1186.58
 20
575.397
 11
-1191.31
 21
568.888
  0
LINE
  8
0
 10
-1191.31
 20
568.888
 11
-1193.8
 21
561.235
  0
LINE
  8
0
 10
-1193.8
 20
561.235
 11
-1193.8
 21
427.777
  0
LINE
  8
0
 10
-1193.8
 20
427.777
 11
-1191.31
 21
420.125
  0
LINE
  8
0
 10
-1191.31
 20
420.125
 11
-1186.58
 21
413.616
  0
LINE
  8
0
 10
-1186.58
 20
413.616
 11
-1180.08
 21
408.886
  0
LINE
  8
0
 10
-1180.08
 20
408.886
 11
-1172.42
 21
406.4
  0
LINE
  8
0
 10
-1172.42
 20
406.4
 11
-994.197
 21
406.4
  0
LINE
  8
0
 10
-994.197
 20
406.4
 11
-986.545
 21
403.914
  0
LINE
  8
0
 10
-986.545
 20
403.914
 11
-980.036
 21
399.184
  0
LINE
  8
0
 10
-980.036
 20
399.184
 11
-975.306
 21
392.675
  0
LINE
  8
0
 10
-975.306
 20
392.675
 11
-972.82
 21
385.023
  0
LINE
  8
0
 10
-972.82
 20
385.023
 11
-972.82
 21
-80.2229
  0
LINE
  8
0
 10
-972.82
 20
-80.2229
 11
-975.306
 21
-87.8751
  0
LINE
  8
0
 10
-975.306
 20
-87.8751
 11
-980.036
 21
-94.3844
  0
LINE
  8
0
 10
-980.036
 20
-94.3844
 11
-986.545
 21
-99.1136
  0
LINE
  8
0
 10
-986.545
 20
-99.1136
 11
-994.197
 21
-101.6
  0
LINE
  8
0
 10
-994.197
 20
-101.6
 11
-1172.42
 21
-101.6
  0
LINE
  8
0
 10
-1172.42
 20
-101.6
 11
-1180.08
 21
-104.086
  0
LINE
  8
0
 10
-1180.08
 20
-104.086
 11
-1186.58
 21
-108.816
  0
LINE
  8
0
 10
-1186.58
 20
-108.816
 11
-1191.31
 21
-115.325
  0
LINE
  8
0
 10
-1191.31
 20
-115.325
 11
-1193.8
 21
-122.977
  0
LINE
  8
0
 10
-1193.8
 20
-122.977
 11
-1193.8
 21
-561.235
  0
LINE
  8
0
 10
-1193.8
 20
-561.235
 11
-1191.31
 21
-568.888
  0
LINE
  8
0
 10
-1191.31
 20
-568.888
 11
-1186.58
 21
-575.397
  0
LINE
  8
0
 10
-1186.58
 20
-575.397
 11
-1180.08
 21
-580.126
  0
LINE
  8
0
 10
-1180.08
 20
-580.126
 11
-1172.42
 21
-582.612
  0
LINE
  8
0
 10
-1172.42
 20
-582.612
 11
35.7729
 21
-582.612
  0
LINE
  8
0
 10
35.7729
 20
-582.612
 11
43.4251
 21
-580.126
  0
LINE
  8
0
 10
-1137.44
 20
532.606
 11
-1137.44
 21
553.244
  0
LINE
  8
0
 10
-1137.44
 20
553.244
 11
-1046.96
 21
553.244
  0
LINE
  8
0
 10
-1046.96
 20
553.244
 11
-1046.96
 21
532.606
  0
LINE
  8
0
 10
-1046.96
 20
532.606
 11
-1137.44
 21
532.606
  0
LINE
  8
0
 10
-959.644
 20
532.606
 11
-959.644
 21
553.244
  0
LINE
  8
0
 10
-959.644
 20
553.244
 11
-869.156
 21
553.244
  0
LINE
  8
0
 10
-869.156
 20
553.244
 11
-869.156
 21
532.606
  0
LINE
  8
0
 10
-869.156
 20
532.606
 11
-959.644
 21
532.606
  0
LINE
  8
0
 10
-261.144
 20
532.606
 11
-261.144
 21
553.244
  0
LINE
  8
0
 10
-261.144
 20
553.244
 11
-170.656
 21
553.244
  0
LINE
  8
0
 10
-170.656
 20
553.244
 11
-170.656
 21
532.606
  0
LINE
  8
0
 10
-170.656
 20
532.606
 11
-261.144
 21
532.606
  0
LINE
  8
0
 10
-83.3438
 20
532.606
 11
-83.3438
 21
553.244
  0
LINE
  8
0
 10
-83.3438
 20
553.244
 11
7.14375
 21
553.244
  0
LINE
  8
0
 10
7.14375
 20
553.244
 11
7.14375
 21
532.606
  0
LINE
  8
0
 10
7.14375
 20
532.606
 11
-83.3438
 21
532.606
  0
LINE
  8
0
 10
-772.373
 20
-101.6
 11
-780.025
 21
-99.1136
  0
LINE
  8
0
 10
-780.025
 20
-99.1136
 11
-786.534
 21
-94.3844
  0
LINE
  8
0
 10
-786.534
 20
-94.3844
 11
-791.264
 21
-87.8751
  0
LINE
  8
0
 10
-791.264
 20
-87.8751
 11
-793.75
 21
-80.2229
  0
LINE
  8
0
 10
-793.75
 20
-80.2229
 11
-793.75
 21
385.023
  0
LINE
  8
0
 10
-793.75
 20
385.023
 11
-791.264
 21
392.675
  0
LINE
  8
0
 10
-791.264
 20
392.675
 11
-786.534
 21
399.184
  0
LINE
  8
0
 10
-786.534
 20
399.184
 11
-780.025
 21
403.914
  0
LINE
  8
0
 10
-780.025
 20
403.914
 11
-772.373
 21
406.4
  0
LINE
  8
0
 10
-772.373
 20
406.4
 11
-688.127
 21
406.4
  0
LINE
  8
0
 10
-688.127
 20
406.4
 11
-680.475
 21
403.914
  0
LINE
  8
0
 10
-680.475
 20
403.914
 11
-673.966
 21
399.184
  0
LINE
  8
0
 10
-673.966
 20
399.184
 11
-669.236
 21
392.675
  0
LINE
  8
0
 10
-669.236
 20
392.675
 11
-666.75
 21
385.023
  0
LINE
  8
0
 10
-666.75
 20
385.023
 11
-666.75
 21
-80.2229
  0
LINE
  8
0
 10
-666.75
 20
-80.2229
 11
-669.236
 21
-87.8751
  0
LINE
  8
0
 10
-669.236
 20
-87.8751
 11
-673.966
 21
-94.3844
  0
LINE
  8
0
 10
-673.966
 20
-94.3844
 11
-680.475
 21
-99.1136
  0
LINE
  8
0
 10
-680.475
 20
-99.1136
 11
-688.127
 21
-101.6
  0
LINE
  8
0
 10
-688.127
 20
-101.6
 11
-772.373
 21
-101.6
  0
LINE
  8
0
 10
-518.373
 20
-101.6
 11
-526.025
 21
-99.1136
  0
LINE
  8
0
 10
-526.025
 20
-99.1136
 11
-532.534
 21
-94.3844
  0
LINE
  8
0
 10
-532.534
 20
-94.3844
 11
-537.264
 21
-87.8751
  0
LINE
  8
0
 10
-537.264
 20
-87.8751
 11
-539.75
 21
-80.2229
  0
LINE
  8
0
 10
-539.75
 20
-80.2229
 11
-539.75
 21
385.023
  0
LINE
  8
0
 10
-539.75
 20
385.023
 11
-537.264
 21
392.675
  0
LINE
  8
0
 10
-537.264
 20
392.675
 11
-532.534
 21
399.184
  0
LINE
  8
0
 10
-532.534
 20
399.184
 11
-526.025
 21
403.914
  0
LINE
  8
0
 10
-526.025
 20
403.914
 11
-518.373
 21
406.4
  0
LINE
  8
0
 10
-518.373
 20
406.4
 11
-434.127
 21
406.4
  0
LINE
  8
0
 10
-434.127
 20
406.4
 11
-426.475
 21
403.914
  0
LINE
  8
0
 10
-426.475
 20
403.914
 11
-419.966
 21
399.184
  0
LINE
  8
0
 10
-419.966
 20
399.184
 11
-415.236
 21
392.675
  0
LINE
  8
0
 10
-415.236
 20
392.675
 11
-412.75
 21
385.023
  0
LINE
  8
0
 10
-412.75
 20
385.023
 11
-412.75
 21
-80.2229
  0
LINE
  8
0
 10
-412.75
 20
-80.2229
 11
-415.236
 21
-87.8751
  0
LINE
  8
0
 10
-415.236
 20
-87.8751
 11
-419.966
 21
-94.3844
  0
LINE
  8
0
 10
-419.966
 20
-94.3844
 11
-426.475
 21
-99.1136
  0
LINE
  8
0
 10
-426.475
 20
-99.1136
 11
-434.127
 21
-101.6
  0
LINE
  8
0
 10
-434.127
 20
-101.6
 11
-518.373
 21
-101.6
  0
LINE
  8
0
 10
-264.373
 20
-101.6
 11
-272.025
 21
-99.1136
  0
LINE
  8
0
 10
-272.025
 20
-99.1136
 11
-278.534
 21
-94.3844
  0
LINE
  8
0
 10
-278.534
 20
-94.3844
 11
-283.264
 21
-87.8751
  0
LINE
  8
0
 10
-283.264
 20
-87.8751
 11
-285.75
 21
-80.2229
  0
LINE
  8
0
 10
-285.75
 20
-80.2229
 11
-285.75
 21
385.023
  0
LINE
  8
0
 10
-285.75
 20
385.023
 11
-283.264
 21
392.675
  0
LINE
  8
0
 10
-283.264
 20
392.675
 11
-278.534
 21
399.184
  0
LINE
  8
0
 10
-278.534
 20
399.184
 11
-272.025
 21
403.914
  0
LINE
  8
0
 10
-272.025
 20
403.914
 11
-264.373
 21
406.4
  0
LINE
  8
0
 10
-264.373
 20
406.4
 11
-180.127
 21
406.4
  0
LINE
  8
0
 10
-180.127
 20
406.4
 11
-172.475
 21
403.914
  0
LINE
  8
0
 10
-172.475
 20
403.914
 11
-165.966
 21
399.184
  0
LINE
  8
0
 10
-165.966
 20
399.184
 11
-161.236
 21
392.675
  0
LINE
  8
0
 10
-161.236
 20
392.675
 11
-158.75
 21
385.023
  0
LINE
  8
0
 10
-158.75
 20
385.023
 11
-158.75
 21
-80.2229
  0
LINE
  8
0
 10
-158.75
 20
-80.2229
 11
-161.236
 21
-87.8751
  0
LINE
  8
0
 10
-161.236
 20
-87.8751
 11
-165.966
 21
-94.3844
  0
LINE
  8
0
 10
-165.966
 20
-94.3844
 11
-172.475
 21
-99.1136
  0
LINE
  8
0
 10
-172.475
 20
-99.1136
 11
-180.127
 21
-101.6
  0
LINE
  8
0
 10
-180.127
 20
-101.6
 11
-264.373
 21
-101.6
  0
LINE
  8
0
 10
-921.544
 20
164.306
 11
-921.544
 21
254.794
  0
LINE
  8
0
 10
-921.544
 20
254.794
 11
-881.856
 21
254.794
  0
LINE
  8
0
 10
-881.856
 20
254.794
 11
-881.856
 21
164.306
  0
LINE
  8
0
 10
-881.856
 20
164.306
 11
-921.544
 21
164.306
  0
LINE
  8
0
 10
-45.2438
 20
164.306
 11
-45.2438
 21
254.794
  0
LINE
  8
0
 10
-45.2438
 20
254.794
 11
-5.55626
 21
254.794
  0
LINE
  8
0
 10
-5.55626
 20
254.794
 11
-5.55626
 21
164.306
  0
LINE
  8
0
 10
-5.55626
 20
164.306
 11
-45.2438
 21
164.306
  0
LINE
  8
0
 10
-921.544
 20
-254.794
 11
-921.544
 21
-164.306
  0
LINE
  8
0
 10
-921.544
 20
-164.306
 11
-881.856
 21
-164.306
  0
LINE
  8
0
 10
-881.856
 20
-164.306
 11
-881.856
 21
-254.794
  0
LINE
  8
0
 10
-881.856
 20
-254.794
 11
-921.544
 21
-254.794
  0
LINE
  8
0
 10
-45.2438
 20
-254.794
 11
-45.2438
 21
-164.306
  0
LINE
  8
0
 10
-45.2438
 20
-164.306
 11
-5.55626
 21
-164.306
  0
LINE
  8
0
 10
-5.55626
 20
-164.306
 11
-5.55626
 21
-254.794
  0
LINE
  8
0
 10
-5.55626
 20
-254.794
 11
-45.2438
 21
-254.794
  0
LINE
  8
0
 10
-1137.44
 20
-553.244
 11
-1137.44
 21
-532.606
  0
LINE
  8
0
 10
-1137.44
 20
-532.606
 11
-1046.96
 21
-532.606
  0
LINE
  8
0
 10
-1046.96
 20
-532.606
 11
-1046.96
 21
-553.244
  0
LINE
  8
0
 10
-1046.96
 20
-553.244
 11
-1137.44
 21
-553.244
  0
LINE
  8
0
 10
-959.644
 20
-553.244
 11
-959.644
 21
-532.606
  0
LINE
  8
0
 10
-959.644
 20
-532.606
 11
-869.156
 21
-532.606
  0
LINE
  8
0
 10
-869.156
 20
-532.606
 11
-869.156
 21
-553.244
  0
LINE
  8
0
 10
-869.156
 20
-553.244
 11
-959.644
 21
-553.244
  0
LINE
  8
0
 10
-83.3438
 20
-553.244
 11
-83.3438
 21
-532.606
  0
LINE
  8
0
 10
-83.3438
 20
-532.606
 11
7.14373
 21
-532.606
  0
LINE
  8
0
 10
7.14373
 20
-532.606
 11
7.14373
 21
-553.244
  0
LINE
  8
0
 10
7.14373
 20
-553.244
 11
-83.3438
 21
-553.244
  0
LINE
  8
0
 10
-261.144
 20
-553.244
 11
-261.144
 21
-532.606
  0
LINE
  8
0
 10
-261.144
 20
-532.606
 11
-170.656
 21
-532.606
  0
LINE
  8
0
 10
-170.656
 20
-532.606
 11
-170.656
 21
-553.244
  0
LINE
  8
0
 10
-170.656
 20
-553.244
 11
-261.144
 21
-553.244
  0
LINE
  8
0
 10
326.866
 20
-533.003
 11
752.316
 21
-533.003
  0
LINE
  8
0
 10
752.316
 20
-533.003
 11
752.316
 21
-552.847
  0
LINE
  8
0
 10
752.316
 20
-552.847
 11
726.916
 21
-552.847
  0
LINE
  8
0
 10
726.916
 20
-552.847
 11
726.916
 21
-578.247
  0
LINE
  8
0
 10
726.916
 20
-578.247
 11
815.816
 21
-578.247
  0
LINE
  8
0
 10
815.816
 20
-578.247
 11
815.816
 21
-533.003
  0
LINE
  8
0
 10
815.816
 20
-533.003
 11
1040.45
 21
-533.003
  0
LINE
  8
0
 10
1040.45
 20
-533.003
 11
1040.45
 21
-256.672
  0
LINE
  8
0
 10
1040.45
 20
-256.672
 11
1040.76
 21
-255.716
  0
LINE
  8
0
 10
1040.76
 20
-255.716
 11
1041.35
 21
-254.902
  0
LINE
  8
0
 10
1041.35
 20
-254.902
 11
1042.16
 21
-254.311
  0
LINE
  8
0
 10
1042.16
 20
-254.311
 11
1043.12
 21
-254
  0
LINE
  8
0
 10
1043.12
 20
-254
 11
1056.24
 21
-254
  0
LINE
  8
0
 10
1056.24
 20
-254
 11
1059.11
 21
-253.068
  0
LINE
  8
0
 10
1059.11
 20
-253.068
 11
1061.55
 21
-251.294
  0
LINE
  8
0
 10
1061.55
 20
-251.294
 11
1063.33
 21
-248.853
  0
LINE
  8
0
 10
1063.33
 20
-248.853
 11
1064.26
 21
-245.984
  0
LINE
  8
0
 10
1064.26
 20
-245.984
 11
1064.26
 21
-173.116
  0
LINE
  8
0
 10
1064.26
 20
-173.116
 11
1063.33
 21
-170.247
  0
LINE
  8
0
 10
1063.33
 20
-170.247
 11
1061.55
 21
-167.806
  0
LINE
  8
0
 10
1061.55
 20
-167.806
 11
1059.11
 21
-166.032
  0
LINE
  8
0
 10
1059.11
 20
-166.032
 11
1056.24
 21
-165.1
  0
LINE
  8
0
 10
1056.24
 20
-165.1
 11
1043.12
 21
-165.1
  0
LINE
  8
0
 10
1043.12
 20
-165.1
 11
1042.16
 21
-164.789
  0
LINE
  8
0
 10
1042.16
 20
-164.789
 11
1041.35
 21
-164.198
  0
LINE
  8
0
 10
1041.35
 20
-164.198
 11
1040.76
 21
-163.384
  0
LINE
  8
0
 10
1040.76
 20
-163.384
 11
1040.45
 21
-162.428
  0
LINE
  8
0
 10
1040.45
 20
-162.428
 11
1040.45
 21
162.428
  0
LINE
  8
0
 10
1040.45
 20
162.428
 11
1040.76
 21
163.384
  0
LINE
  8
0
 10
1040.76
 20
163.384
 11
1041.35
 21
164.198
  0
LINE
  8
0
 10
1041.35
 20
164.198
 11
1042.16
 21
164.789
  0
LINE
  8
0
 10
1042.16
 20
164.789
 11
1043.12
 21
165.1
  0
LINE
  8
0
 10
1043.12
 20
165.1
 11
1056.24
 21
165.1
  0
LINE
  8
0
 10
1056.24
 20
165.1
 11
1059.11
 21
166.032
  0
LINE
  8
0
 10
1059.11
 20
166.032
 11
1061.55
 21
167.806
  0
LINE
  8
0
 10
1061.55
 20
167.806
 11
1063.33
 21
170.247
  0
LINE
  8
0
 10
1063.33
 20
170.247
 11
1064.26
 21
173.116
  0
LINE
  8
0
 10
1064.26
 20
173.116
 11
1064.26
 21
245.984
  0
LINE
  8
0
 10
1064.26
 20
245.984
 11
1063.33
 21
248.853
  0
LINE
  8
0
 10
1063.33
 20
248.853
 11
1061.55
 21
251.294
  0
LINE
  8
0
 10
1061.55
 20
251.294
 11
1059.11
 21
253.068
  0
LINE
  8
0
 10
1059.11
 20
253.068
 11
1056.24
 21
254
  0
LINE
  8
0
 10
1056.24
 20
254
 11
1043.12
 21
254
  0
LINE
  8
0
 10
1043.12
 20
254
 11
1042.16
 21
254.311
  0
LINE
  8
0
 10
1042.16
 20
254.311
 11
1041.35
 21
254.902
  0
LINE
  8
0
 10
1041.35
 20
254.902
 11
1040.76
 21
255.716
  0
LINE
  8
0
 10
1040.76
 20
255.716
 11
1040.45
 21
256.672
  0
LINE
  8
0
 10
1040.45
 20
256.672
 11
1040.45
 21
533.003
  0
LINE
  8
0
 10
1040.45
 20
533.003
 11
815.816
 21
533.003
  0
LINE
  8
0
 10
815.816
 20
533.003
 11
815.816
 21
578.247
  0
LINE
  8
0
 10
815.816
 20
578.247
 11
726.916
 21
578.247
  0
LINE
  8
0
 10
726.916
 20
578.247
 11
726.916
 21
552.847
  0
LINE
  8
0
 10
726.916
 20
552.847
 11
752.316
 21
552.847
  0
LINE
  8
0
 10
752.316
 20
552.847
 11
752.316
 21
533.003
  0
LINE
  8
0
 10
752.316
 20
533.003
 11
326.866
 21
533.003
  0
LINE
  8
0
 10
326.866
 20
533.003
 11
326.866
 21
578.247
  0
LINE
  8
0
 10
326.866
 20
578.247
 11
237.966
 21
578.247
  0
LINE
  8
0
 10
237.966
 20
578.247
 11
237.966
 21
552.847
  0
LINE
  8
0
 10
237.966
 20
552.847
 11
263.366
 21
552.847
  0
LINE
  8
0
 10
263.366
 20
552.847
 11
263.366
 21
533.003
  0
LINE
  8
0
 10
263.366
 20
533.003
 11
64.135
 21
533.003
  0
LINE
  8
0
 10
64.135
 20
533.003
 11
64.135
 21
-533.003
  0
LINE
  8
0
 10
64.135
 20
-533.003
 11
263.366
 21
-533.003
  0
LINE
  8
0
 10
263.366
 20
-533.003
 11
263.366
 21
-552.847
  0
LINE
  8
0
 10
263.366
 20
-552.847
 11
237.966
 21
-552.847
  0
LINE
  8
0
 10
237.966
 20
-552.847
 11
237.966
 21
-578.247
  0
LINE
  8
0
 10
237.966
 20
-578.247
 11
326.866
 21
-578.247
  0
LINE
  8
0
 10
326.866
 20
-578.247
 11
326.866
 21
-533.003
  0
ENDSEC
  0
SECTION
  2
OBJECTS
  0
DICTIONARY
  0
ENDSEC
  0
EOF
