<?xml version="1.0" standalone="no"?>
<!DOCTYPE svg PUBLIC "-//W3C//DTD SVG 1.1//EN" "http://www.w3.org/Graphics/SVG/1.1/DTD/svg11.dtd">
<svg width="2259" height="1166" viewBox="-1194 -583 2259 1166" xmlns="http://www.w3.org/2000/svg" version="1.1">
<title>OpenSCAD Model</title>
<path d="
M 43.4251,580.126 L 49.9344,575.397 L 54.6636,568.888 L 57.15,561.235 L 57.15,-561.235 L 54.6637,-568.888
 L 49.9344,-575.397 L 43.4251,-580.126 L 35.773,-582.612 L -1172.42,-582.612 L -1180.08,-580.126 L -1186.58,-575.397
 L -1191.31,-568.888 L -1193.8,-561.235 L -1193.8,561.235 L -1191.31,568.888 L -1186.58,575.397 L -1180.08,580.126
 L -1172.42,582.612 L 35.7729,582.612 z
M -1137.44,-532.606 L -1137.44,-553.244 L -1046.96,-553.244 L -1046.96,-532.606 z
M -959.644,-532.606 L -959.644,-553.244 L -869.156,-553.244 L -869.156,-532.606 z
M -261.144,-532.606 L -261.144,-553.244 L -170.656,-553.244 L -170.656,-532.606 z
M -83.3438,-532.606 L -83.3438,-553.244 L 7.14375,-553.244 L 7.14375,-532.606 z
M -742.21,291.306 L -749.863,288.82 L -756.372,284.091 L -761.101,277.581 L -763.587,269.929 L -763.587,-269.929
 L -761.101,-277.581 L -756.372,-284.091 L -749.863,-288.82 L -742.21,-291.306 L -480.165,-291.306 L -472.512,-288.82
 L -466.003,-284.091 L -461.274,-277.581 L -458.788,-269.929 L -458.788,269.929 L -461.274,277.581 L -466.003,284.091
 L -472.512,288.82 L -480.165,291.306 z
M -921.544,-164.306 L -921.544,-254.794 L -881.856,-254.794 L -881.856,-164.306 z
M -45.2438,-164.306 L -45.2438,-254.794 L -5.55626,-254.794 L -5.55626,-164.306 z
M -921.544,254.794 L -921.544,164.306 L -881.856,164.306 L -881.856,254.794 z
M -45.2438,254.794 L -45.2438,164.306 L -5.55626,164.306 L -5.55626,254.794 z
M -1137.44,553.244 L -1137.44,532.606 L -1046.96,532.606 L -1046.96,553.244 z
M -959.644,553.244 L -959.644,532.606 L -869.156,532.606 L -869.156,553.244 z
M -261.144,553.244 L -261.144,532.606 L -170.656,532.606 L -170.656,553.244 z
M -83.3438,553.244 L -83.3438,532.606 L 7.14373,532.606 L 7.14373,553.244 z
M 326.866,533.003 L 752.316,533.003 L 752.316,552.847 L 726.916,552.847 L 726.916,578.247 L 815.816,578.247
 L 815.816,533.003 L 1040.45,533.003 L 1040.45,256.672 L 1040.76,255.716 L 1041.35,254.902 L 1042.16,254.311
 L 1043.12,254 L 1056.24,254 L 1059.11,253.068 L 1061.55,251.294 L 1063.33,248.853 L 1064.26,245.984
 L 1064.26,173.116 L 1063.33,170.247 L 1061.55,167.806 L 1059.11,166.032 L 1056.24,165.1 L 1043.12,165.1
 L 1042.16,164.789 L 1041.35,164.198 L 1040.76,163.384 L 1040.45,162.428 L 1040.45,-162.428 L 1040.76,-163.384
 L 1041.35,-164.198 L 1042.16,-164.789 L 1043.12,-165.1 L 1056.24,-165.1 L 1059.11,-166.032 L 1061.55,-167.806
 L 1063.33,-170.247 L 1064.26,-173.116 L 1064.26,-245.984 L 1063.33,-248.853 L 1061.55,-251.294 L 1059.11,-253.068
 L 1056.24,-254 L 1043.12,-254 L 1042.16,-254.311 L 1041.35,-254.902 L 1040.76,-255.716 L 1040.45,-256.672
 L 1040.45,-533.003 L 815.816,-533.003 L 815.816,-578.247 L 726.916,-578.247 L 726.916,-552.847 L 752.316,-552.847
 L 752.316,-533.003 L 326.866,-533.003 L 326.866,-578.247 L 237.966,-578.247 L 237.966,-552.847 L 263.366,-552.847
 L 263.366,-533.003 L 64.135,-533.003 L 64.135,533.003 L 263.366,533.003 L 263.366,552.847 L 237.966,552.847
 L 237.966,578.247 L 326.866,578.247 z
" stroke="black" fill="lightgray" stroke-width="0.5"/></svg>
