<?xml version="1.0" standalone="no"?>
<!DOCTYPE svg PUBLIC "-//W3C//DTD SVG 1.1//EN" "http://www.w3.org/Graphics/SVG/1.1/DTD/svg11.dtd">
<svg width="2035" height="1137" viewBox="-1157 -559 2035 1137" xmlns="http://www.w3.org/2000/svg" version="1.1">
<title>OpenSCAD Model</title>
<path d="
M 831.85,-260.35 L 852.091,-260.35 L 870.628,-271.118 L 873.883,-273.483 L 876.247,-276.737 L 877.491,-280.564
 L 877.491,-329.036 L 876.247,-332.863 L 873.883,-336.117 L 870.628,-338.482 L 852.091,-349.25 L 831.85,-349.25
 L 831.85,-438.15 L 852.091,-438.15 L 870.628,-448.918 L 873.883,-451.283 L 876.247,-454.537 L 877.491,-458.364
 L 877.491,-506.836 L 876.247,-510.663 L 873.883,-513.917 L 870.628,-516.282 L 852.091,-527.05 L 831.85,-527.05
 L 831.85,-558.8 L -1111.25,-558.8 L -1111.25,-527.05 L -1131.49,-527.05 L -1150.03,-516.282 L -1153.28,-513.917
 L -1155.65,-510.663 L -1156.89,-506.836 L -1156.89,-458.364 L -1155.65,-454.537 L -1153.28,-451.283 L -1150.03,-448.918
 L -1131.49,-438.15 L -1111.25,-438.15 L -1111.25,-349.25 L -1131.49,-349.25 L -1150.03,-338.482 L -1153.28,-336.117
 L -1155.65,-332.863 L -1156.89,-329.036 L -1156.89,-280.564 L -1155.65,-276.737 L -1153.28,-273.483 L -1150.03,-271.118
 L -1131.49,-260.35 L -1111.25,-260.35 L -1111.25,-234.95 L 831.85,-234.95 z
M -1141.02,-469.9 L -1141.02,-495.3 L -1121.97,-495.3 L -1121.97,-469.9 z
M 842.566,-469.9 L 842.566,-495.3 L 861.616,-495.3 L 861.616,-469.9 z
M -1141.02,-292.1 L -1141.02,-317.5 L -1121.97,-317.5 L -1121.97,-292.1 z
M 842.566,-292.1 L 842.566,-317.5 L 861.616,-317.5 L 861.616,-292.1 z
M -914.003,-271.859 L -914.003,-293.291 L -822.722,-293.291 L -822.722,-271.859 z
M -428.228,-271.859 L -428.228,-293.291 L -336.947,-293.291 L -336.947,-271.859 z
M 57.5469,-271.859 L 57.5469,-293.291 L 148.828,-293.291 L 148.828,-271.859 z
M 543.322,-271.859 L 543.322,-293.291 L 634.603,-293.291 L 634.603,-271.859 z
M 831.85,88.9 L 852.091,88.9 L 870.628,78.1318 L 873.883,75.7672 L 876.247,72.5125 L 877.491,68.6865
 L 877.491,20.2135 L 876.247,16.3874 L 873.883,13.1328 L 870.628,10.7682 L 852.091,-0 L 831.85,-0
 L 831.85,-88.9 L 852.091,-88.9 L 870.628,-99.6682 L 873.883,-102.033 L 876.247,-105.287 L 877.491,-109.114
 L 877.491,-157.586 L 876.247,-161.413 L 873.883,-164.667 L 870.628,-167.032 L 852.091,-177.8 L 831.85,-177.8
 L 831.85,-209.55 L -1111.25,-209.55 L -1111.25,-177.8 L -1131.49,-177.8 L -1150.03,-167.032 L -1153.28,-164.667
 L -1155.65,-161.413 L -1156.89,-157.586 L -1156.89,-109.114 L -1155.65,-105.287 L -1153.28,-102.033 L -1150.03,-99.6682
 L -1131.49,-88.9 L -1111.25,-88.9 L -1111.25,-0 L -1131.49,-0 L -1150.03,10.7682 L -1153.28,13.1328
 L -1155.65,16.3874 L -1156.89,20.2135 L -1156.89,68.6865 L -1155.65,72.5125 L -1153.28,75.7672 L -1150.03,78.1318
 L -1131.49,88.9 L -1111.25,88.9 L -1111.25,114.3 L 831.85,114.3 z
M -1141.02,-120.65 L -1141.02,-146.05 L -1121.97,-146.05 L -1121.97,-120.65 z
M 842.566,-120.65 L 842.566,-146.05 L 861.616,-146.05 L 861.616,-120.65 z
M 842.566,57.15 L 842.566,31.75 L 861.616,31.75 L 861.616,57.15 z
M -1141.02,57.15 L -1141.02,31.75 L -1121.97,31.75 L -1121.97,57.15 z
M -914.003,77.3906 L -914.003,55.9594 L -822.722,55.9594 L -822.722,77.3906 z
M 543.322,77.3906 L 543.322,55.9594 L 634.603,55.9594 L 634.603,77.3906 z
M 57.5469,77.3906 L 57.5469,55.9594 L 148.828,55.9594 L 148.828,77.3906 z
M -428.228,77.3906 L -428.228,55.9594 L -336.947,55.9594 L -336.947,77.3906 z
M 831.85,438.15 L 852.091,438.15 L 870.628,427.382 L 873.883,425.017 L 876.247,421.763 L 877.491,417.936
 L 877.491,369.464 L 876.247,365.637 L 873.883,362.383 L 870.628,360.018 L 852.091,349.25 L 831.85,349.25
 L 831.85,260.35 L 852.091,260.35 L 870.628,249.582 L 873.883,247.217 L 876.247,243.963 L 877.491,240.136
 L 877.491,191.664 L 876.247,187.837 L 873.883,184.583 L 870.628,182.218 L 852.091,171.45 L 831.85,171.45
 L 831.85,139.7 L -1111.25,139.7 L -1111.25,171.45 L -1131.49,171.45 L -1150.03,182.218 L -1153.28,184.583
 L -1155.65,187.837 L -1156.89,191.664 L -1156.89,240.136 L -1155.65,243.963 L -1153.28,247.217 L -1150.03,249.582
 L -1131.49,260.35 L -1111.25,260.35 L -1111.25,349.25 L -1131.49,349.25 L -1150.03,360.018 L -1153.28,362.383
 L -1155.65,365.637 L -1156.89,369.464 L -1156.89,417.936 L -1155.65,421.763 L -1153.28,425.017 L -1150.03,427.382
 L -1131.49,438.15 L -1111.25,438.15 L -1111.25,463.55 L 831.85,463.55 z
M -1141.02,228.6 L -1141.02,203.2 L -1121.97,203.2 L -1121.97,228.6 z
M 842.566,228.6 L 842.566,203.2 L 861.616,203.2 L 861.616,228.6 z
M -1141.02,406.4 L -1141.02,381 L -1121.97,381 L -1121.97,406.4 z
M 842.566,406.4 L 842.566,381 L 861.616,381 L 861.616,406.4 z
M -914.003,426.641 L -914.003,405.209 L -822.722,405.209 L -822.722,426.641 z
M -428.228,426.641 L -428.228,405.209 L -336.947,405.209 L -336.947,426.641 z
M 57.5469,426.641 L 57.5469,405.209 L 148.828,405.209 L 148.828,426.641 z
M 543.322,426.641 L 543.322,405.209 L 634.603,405.209 L 634.603,426.641 z
M 831.85,482.6 L -1111.25,482.6 L -1111.25,520.7 L 831.85,520.7 z
M 831.85,539.75 L -1111.25,539.75 L -1111.25,577.85 L 831.85,577.85 z
" stroke="black" fill="lightgray" stroke-width="0.5"/></svg>
