  0
SECTION
  2
BLOCKS
  0
ENDSEC
  0
SECTION
  2
ENTITIES
  0
LINE
  8
0
 10
138.075
 20
10.5764
 11
140.805
 21
11.7072
  0
LINE
  8
0
 10
140.805
 20
11.7072
 11
143.262
 21
13.3487
  0
LINE
  8
0
 10
143.262
 20
13.3487
 11
145.351
 21
15.438
  0
LINE
  8
0
 10
145.351
 20
15.438
 11
146.993
 21
17.8948
  0
LINE
  8
0
 10
146.993
 20
17.8948
 11
236.993
 21
219.195
  0
LINE
  8
0
 10
236.993
 20
219.195
 11
238.124
 21
221.925
  0
LINE
  8
0
 10
238.124
 20
221.925
 11
238.7
 21
224.823
  0
LINE
  8
0
 10
238.7
 20
224.823
 11
238.7
 21
277.777
  0
LINE
  8
0
 10
238.7
 20
277.777
 11
238.124
 21
280.675
  0
LINE
  8
0
 10
238.124
 20
280.675
 11
236.993
 21
283.405
  0
LINE
  8
0
 10
236.993
 20
283.405
 11
146.993
 21
484.705
  0
LINE
  8
0
 10
146.993
 20
484.705
 11
145.351
 21
487.162
  0
LINE
  8
0
 10
145.351
 20
487.162
 11
143.262
 21
489.251
  0
LINE
  8
0
 10
143.262
 20
489.251
 11
140.805
 21
490.893
  0
LINE
  8
0
 10
140.805
 20
490.893
 11
138.075
 21
492.024
  0
LINE
  8
0
 10
138.075
 20
492.024
 11
135.177
 21
492.6
  0
LINE
  8
0
 10
135.177
 20
492.6
 11
-211.3
 21
492.6
  0
LINE
  8
0
 10
-211.3
 20
492.6
 11
-211.3
 21
465.33
  0
LINE
  8
0
 10
-211.3
 20
465.33
 11
-212.069
 21
461.466
  0
LINE
  8
0
 10
-212.069
 20
461.466
 11
-213.576
 21
457.826
  0
LINE
  8
0
 10
-213.576
 20
457.826
 11
-215.765
 21
454.551
  0
LINE
  8
0
 10
-215.765
 20
454.551
 11
-218.551
 21
451.765
  0
LINE
  8
0
 10
-218.551
 20
451.765
 11
-221.826
 21
449.576
  0
LINE
  8
0
 10
-221.826
 20
449.576
 11
-225.466
 21
448.069
  0
LINE
  8
0
 10
-225.466
 20
448.069
 11
-229.33
 21
447.3
  0
LINE
  8
0
 10
-229.33
 20
447.3
 11
-231.3
 21
447.3
  0
LINE
  8
0
 10
-231.3
 20
447.3
 11
-231.3
 21
386.3
  0
LINE
  8
0
 10
-231.3
 20
386.3
 11
-167.36
 21
386.3
  0
LINE
  8
0
 10
-167.36
 20
386.3
 11
-159.632
 21
384.763
  0
LINE
  8
0
 10
-159.632
 20
384.763
 11
-152.353
 21
381.748
  0
LINE
  8
0
 10
-152.353
 20
381.748
 11
-145.801
 21
377.37
  0
LINE
  8
0
 10
-145.801
 20
377.37
 11
-140.23
 21
371.798
  0
LINE
  8
0
 10
-140.23
 20
371.798
 11
-135.852
 21
365.247
  0
LINE
  8
0
 10
-135.852
 20
365.247
 11
-132.837
 21
357.968
  0
LINE
  8
0
 10
-132.837
 20
357.968
 11
-131.3
 21
350.24
  0
LINE
  8
0
 10
-131.3
 20
350.24
 11
-131.3
 21
152.36
  0
LINE
  8
0
 10
-131.3
 20
152.36
 11
-132.837
 21
144.632
  0
LINE
  8
0
 10
-132.837
 20
144.632
 11
-135.852
 21
137.353
  0
LINE
  8
0
 10
-135.852
 20
137.353
 11
-140.23
 21
130.801
  0
LINE
  8
0
 10
-140.23
 20
130.801
 11
-145.801
 21
125.23
  0
LINE
  8
0
 10
-145.801
 20
125.23
 11
-152.353
 21
120.852
  0
LINE
  8
0
 10
-152.353
 20
120.852
 11
-159.632
 21
117.837
  0
LINE
  8
0
 10
-159.632
 20
117.837
 11
-167.36
 21
116.3
  0
LINE
  8
0
 10
-167.36
 20
116.3
 11
-231.3
 21
116.3
  0
LINE
  8
0
 10
-231.3
 20
116.3
 11
-231.3
 21
55.3
  0
LINE
  8
0
 10
-231.3
 20
55.3
 11
-229.33
 21
55.3
  0
LINE
  8
0
 10
-229.33
 20
55.3
 11
-225.466
 21
54.5314
  0
LINE
  8
0
 10
-225.466
 20
54.5314
 11
-221.826
 21
53.0237
  0
LINE
  8
0
 10
-221.826
 20
53.0237
 11
-218.551
 21
50.835
  0
LINE
  8
0
 10
-218.551
 20
50.835
 11
-215.765
 21
48.0492
  0
LINE
  8
0
 10
-215.765
 20
48.0492
 11
-213.576
 21
44.7735
  0
LINE
  8
0
 10
-213.576
 20
44.7735
 11
-212.069
 21
41.1338
  0
LINE
  8
0
 10
-212.069
 20
41.1338
 11
-211.3
 21
37.2698
  0
LINE
  8
0
 10
-211.3
 20
37.2698
 11
-211.3
 21
10
  0
LINE
  8
0
 10
-211.3
 20
10
 11
135.177
 21
10
  0
LINE
  8
0
 10
135.177
 20
10
 11
138.075
 21
10.5764
  0
LINE
  8
0
 10
-191.792
 20
421.3
 11
-192.758
 21
421.492
  0
LINE
  8
0
 10
-192.758
 20
421.492
 11
-193.668
 21
421.869
  0
LINE
  8
0
 10
-193.668
 20
421.869
 11
-194.487
 21
422.416
  0
LINE
  8
0
 10
-194.487
 20
422.416
 11
-195.184
 21
423.113
  0
LINE
  8
0
 10
-195.184
 20
423.113
 11
-195.731
 21
423.932
  0
LINE
  8
0
 10
-195.731
 20
423.932
 11
-196.108
 21
424.842
  0
LINE
  8
0
 10
-196.108
 20
424.842
 11
-196.3
 21
425.808
  0
LINE
  8
0
 10
-196.3
 20
425.808
 11
-196.3
 21
426.792
  0
LINE
  8
0
 10
-196.3
 20
426.792
 11
-196.108
 21
427.758
  0
LINE
  8
0
 10
-196.108
 20
427.758
 11
-195.731
 21
428.668
  0
LINE
  8
0
 10
-195.731
 20
428.668
 11
-195.184
 21
429.487
  0
LINE
  8
0
 10
-195.184
 20
429.487
 11
-194.487
 21
430.184
  0
LINE
  8
0
 10
-194.487
 20
430.184
 11
-193.668
 21
430.731
  0
LINE
  8
0
 10
-193.668
 20
430.731
 11
-192.758
 21
431.108
  0
LINE
  8
0
 10
-192.758
 20
431.108
 11
-191.792
 21
431.3
  0
LINE
  8
0
 10
-191.792
 20
431.3
 11
-190.808
 21
431.3
  0
LINE
  8
0
 10
-190.808
 20
431.3
 11
-189.842
 21
431.108
  0
LINE
  8
0
 10
-189.842
 20
431.108
 11
-188.932
 21
430.731
  0
LINE
  8
0
 10
-188.932
 20
430.731
 11
-188.113
 21
430.184
  0
LINE
  8
0
 10
-188.113
 20
430.184
 11
-187.416
 21
429.487
  0
LINE
  8
0
 10
-187.416
 20
429.487
 11
-186.869
 21
428.668
  0
LINE
  8
0
 10
-186.869
 20
428.668
 11
-186.492
 21
427.758
  0
LINE
  8
0
 10
-186.492
 20
427.758
 11
-186.3
 21
426.792
  0
LINE
  8
0
 10
-186.3
 20
426.792
 11
-186.3
 21
425.808
  0
LINE
  8
0
 10
-186.3
 20
425.808
 11
-186.492
 21
424.842
  0
LINE
  8
0
 10
-186.492
 20
424.842
 11
-186.869
 21
423.932
  0
LINE
  8
0
 10
-186.869
 20
423.932
 11
-187.416
 21
423.113
  0
LINE
  8
0
 10
-187.416
 20
423.113
 11
-188.113
 21
422.416
  0
LINE
  8
0
 10
-188.113
 20
422.416
 11
-188.932
 21
421.869
  0
LINE
  8
0
 10
-188.932
 20
421.869
 11
-189.842
 21
421.492
  0
LINE
  8
0
 10
-189.842
 20
421.492
 11
-190.808
 21
421.3
  0
LINE
  8
0
 10
-190.808
 20
421.3
 11
-191.792
 21
421.3
  0
LINE
  8
0
 10
28.2075
 20
411.3
 11
27.2415
 21
411.492
  0
LINE
  8
0
 10
27.2415
 20
411.492
 11
26.3316
 21
411.869
  0
LINE
  8
0
 10
26.3316
 20
411.869
 11
25.5127
 21
412.416
  0
LINE
  8
0
 10
25.5127
 20
412.416
 11
24.8162
 21
413.113
  0
LINE
  8
0
 10
24.8162
 20
413.113
 11
24.269
 21
413.932
  0
LINE
  8
0
 10
24.269
 20
413.932
 11
23.8921
 21
414.842
  0
LINE
  8
0
 10
23.8921
 20
414.842
 11
23.7
 21
415.808
  0
LINE
  8
0
 10
23.7
 20
415.808
 11
23.7
 21
416.792
  0
LINE
  8
0
 10
23.7
 20
416.792
 11
23.8921
 21
417.758
  0
LINE
  8
0
 10
23.8921
 20
417.758
 11
24.269
 21
418.668
  0
LINE
  8
0
 10
24.269
 20
418.668
 11
24.8162
 21
419.487
  0
LINE
  8
0
 10
24.8162
 20
419.487
 11
25.5127
 21
420.184
  0
LINE
  8
0
 10
25.5127
 20
420.184
 11
26.3316
 21
420.731
  0
LINE
  8
0
 10
26.3316
 20
420.731
 11
27.2415
 21
421.108
  0
LINE
  8
0
 10
27.2415
 20
421.108
 11
28.2075
 21
421.3
  0
LINE
  8
0
 10
28.2075
 20
421.3
 11
29.1924
 21
421.3
  0
LINE
  8
0
 10
29.1924
 20
421.3
 11
30.1584
 21
421.108
  0
LINE
  8
0
 10
30.1584
 20
421.108
 11
31.0684
 21
420.731
  0
LINE
  8
0
 10
31.0684
 20
420.731
 11
31.8873
 21
420.184
  0
LINE
  8
0
 10
31.8873
 20
420.184
 11
32.5837
 21
419.487
  0
LINE
  8
0
 10
32.5837
 20
419.487
 11
33.1309
 21
418.668
  0
LINE
  8
0
 10
33.1309
 20
418.668
 11
33.5078
 21
417.758
  0
LINE
  8
0
 10
33.5078
 20
417.758
 11
33.7
 21
416.792
  0
LINE
  8
0
 10
33.7
 20
416.792
 11
33.7
 21
415.808
  0
LINE
  8
0
 10
33.7
 20
415.808
 11
33.5078
 21
414.842
  0
LINE
  8
0
 10
33.5078
 20
414.842
 11
33.1309
 21
413.932
  0
LINE
  8
0
 10
33.1309
 20
413.932
 11
32.5837
 21
413.113
  0
LINE
  8
0
 10
32.5837
 20
413.113
 11
31.8873
 21
412.416
  0
LINE
  8
0
 10
31.8873
 20
412.416
 11
31.0684
 21
411.869
  0
LINE
  8
0
 10
31.0684
 20
411.869
 11
30.1584
 21
411.492
  0
LINE
  8
0
 10
30.1584
 20
411.492
 11
29.1924
 21
411.3
  0
LINE
  8
0
 10
29.1924
 20
411.3
 11
28.2075
 21
411.3
  0
LINE
  8
0
 10
118.208
 20
286.3
 11
117.242
 21
286.492
  0
LINE
  8
0
 10
117.242
 20
286.492
 11
116.332
 21
286.869
  0
LINE
  8
0
 10
116.332
 20
286.869
 11
115.513
 21
287.416
  0
LINE
  8
0
 10
115.513
 20
287.416
 11
114.816
 21
288.113
  0
LINE
  8
0
 10
114.816
 20
288.113
 11
114.269
 21
288.932
  0
LINE
  8
0
 10
114.269
 20
288.932
 11
113.892
 21
289.842
  0
LINE
  8
0
 10
113.892
 20
289.842
 11
113.7
 21
290.808
  0
LINE
  8
0
 10
113.7
 20
290.808
 11
113.7
 21
291.792
  0
LINE
  8
0
 10
113.7
 20
291.792
 11
113.892
 21
292.758
  0
LINE
  8
0
 10
113.892
 20
292.758
 11
114.269
 21
293.668
  0
LINE
  8
0
 10
114.269
 20
293.668
 11
114.816
 21
294.487
  0
LINE
  8
0
 10
114.816
 20
294.487
 11
115.513
 21
295.184
  0
LINE
  8
0
 10
115.513
 20
295.184
 11
116.332
 21
295.731
  0
LINE
  8
0
 10
116.332
 20
295.731
 11
117.242
 21
296.108
  0
LINE
  8
0
 10
117.242
 20
296.108
 11
118.208
 21
296.3
  0
LINE
  8
0
 10
118.208
 20
296.3
 11
119.192
 21
296.3
  0
LINE
  8
0
 10
119.192
 20
296.3
 11
120.158
 21
296.108
  0
LINE
  8
0
 10
120.158
 20
296.108
 11
121.068
 21
295.731
  0
LINE
  8
0
 10
121.068
 20
295.731
 11
121.887
 21
295.184
  0
LINE
  8
0
 10
121.887
 20
295.184
 11
122.584
 21
294.487
  0
LINE
  8
0
 10
122.584
 20
294.487
 11
123.131
 21
293.668
  0
LINE
  8
0
 10
123.131
 20
293.668
 11
123.508
 21
292.758
  0
LINE
  8
0
 10
123.508
 20
292.758
 11
123.7
 21
291.792
  0
LINE
  8
0
 10
123.7
 20
291.792
 11
123.7
 21
290.808
  0
LINE
  8
0
 10
123.7
 20
290.808
 11
123.508
 21
289.842
  0
LINE
  8
0
 10
123.508
 20
289.842
 11
123.131
 21
288.932
  0
LINE
  8
0
 10
123.131
 20
288.932
 11
122.584
 21
288.113
  0
LINE
  8
0
 10
122.584
 20
288.113
 11
121.887
 21
287.416
  0
LINE
  8
0
 10
121.887
 20
287.416
 11
121.068
 21
286.869
  0
LINE
  8
0
 10
121.068
 20
286.869
 11
120.158
 21
286.492
  0
LINE
  8
0
 10
120.158
 20
286.492
 11
119.192
 21
286.3
  0
LINE
  8
0
 10
119.192
 20
286.3
 11
118.208
 21
286.3
  0
LINE
  8
0
 10
118.208
 20
206.3
 11
117.242
 21
206.492
  0
LINE
  8
0
 10
117.242
 20
206.492
 11
116.332
 21
206.869
  0
LINE
  8
0
 10
116.332
 20
206.869
 11
115.513
 21
207.416
  0
LINE
  8
0
 10
115.513
 20
207.416
 11
114.816
 21
208.113
  0
LINE
  8
0
 10
114.816
 20
208.113
 11
114.269
 21
208.932
  0
LINE
  8
0
 10
114.269
 20
208.932
 11
113.892
 21
209.842
  0
LINE
  8
0
 10
113.892
 20
209.842
 11
113.7
 21
210.808
  0
LINE
  8
0
 10
113.7
 20
210.808
 11
113.7
 21
211.792
  0
LINE
  8
0
 10
113.7
 20
211.792
 11
113.892
 21
212.758
  0
LINE
  8
0
 10
113.892
 20
212.758
 11
114.269
 21
213.668
  0
LINE
  8
0
 10
114.269
 20
213.668
 11
114.816
 21
214.487
  0
LINE
  8
0
 10
114.816
 20
214.487
 11
115.513
 21
215.184
  0
LINE
  8
0
 10
115.513
 20
215.184
 11
116.332
 21
215.731
  0
LINE
  8
0
 10
116.332
 20
215.731
 11
117.242
 21
216.108
  0
LINE
  8
0
 10
117.242
 20
216.108
 11
118.208
 21
216.3
  0
LINE
  8
0
 10
118.208
 20
216.3
 11
119.192
 21
216.3
  0
LINE
  8
0
 10
119.192
 20
216.3
 11
120.158
 21
216.108
  0
LINE
  8
0
 10
120.158
 20
216.108
 11
121.068
 21
215.731
  0
LINE
  8
0
 10
121.068
 20
215.731
 11
121.887
 21
215.184
  0
LINE
  8
0
 10
121.887
 20
215.184
 11
122.584
 21
214.487
  0
LINE
  8
0
 10
122.584
 20
214.487
 11
123.131
 21
213.668
  0
LINE
  8
0
 10
123.131
 20
213.668
 11
123.508
 21
212.758
  0
LINE
  8
0
 10
123.508
 20
212.758
 11
123.7
 21
211.792
  0
LINE
  8
0
 10
123.7
 20
211.792
 11
123.7
 21
210.808
  0
LINE
  8
0
 10
123.7
 20
210.808
 11
123.508
 21
209.842
  0
LINE
  8
0
 10
123.508
 20
209.842
 11
123.131
 21
208.932
  0
LINE
  8
0
 10
123.131
 20
208.932
 11
122.584
 21
208.113
  0
LINE
  8
0
 10
122.584
 20
208.113
 11
121.887
 21
207.416
  0
LINE
  8
0
 10
121.887
 20
207.416
 11
121.068
 21
206.869
  0
LINE
  8
0
 10
121.068
 20
206.869
 11
120.158
 21
206.492
  0
LINE
  8
0
 10
120.158
 20
206.492
 11
119.192
 21
206.3
  0
LINE
  8
0
 10
119.192
 20
206.3
 11
118.208
 21
206.3
  0
LINE
  8
0
 10
28.2075
 20
81.3
 11
27.2415
 21
81.4921
  0
LINE
  8
0
 10
27.2415
 20
81.4921
 11
26.3316
 21
81.869
  0
LINE
  8
0
 10
26.3316
 20
81.869
 11
25.5127
 21
82.4162
  0
LINE
  8
0
 10
25.5127
 20
82.4162
 11
24.8162
 21
83.1127
  0
LINE
  8
0
 10
24.8162
 20
83.1127
 11
24.269
 21
83.9316
  0
LINE
  8
0
 10
24.269
 20
83.9316
 11
23.8921
 21
84.8416
  0
LINE
  8
0
 10
23.8921
 20
84.8416
 11
23.7
 21
85.8075
  0
LINE
  8
0
 10
23.7
 20
85.8075
 11
23.7
 21
86.7924
  0
LINE
  8
0
 10
23.7
 20
86.7924
 11
23.8921
 21
87.7584
  0
LINE
  8
0
 10
23.8921
 20
87.7584
 11
24.269
 21
88.6684
  0
LINE
  8
0
 10
24.269
 20
88.6684
 11
24.8162
 21
89.4873
  0
LINE
  8
0
 10
24.8162
 20
89.4873
 11
25.5127
 21
90.1837
  0
LINE
  8
0
 10
25.5127
 20
90.1837
 11
26.3316
 21
90.7309
  0
LINE
  8
0
 10
26.3316
 20
90.7309
 11
27.2415
 21
91.1078
  0
LINE
  8
0
 10
27.2415
 20
91.1078
 11
28.2075
 21
91.3
  0
LINE
  8
0
 10
28.2075
 20
91.3
 11
29.1924
 21
91.3
  0
LINE
  8
0
 10
29.1924
 20
91.3
 11
30.1584
 21
91.1078
  0
LINE
  8
0
 10
30.1584
 20
91.1078
 11
31.0684
 21
90.7309
  0
LINE
  8
0
 10
31.0684
 20
90.7309
 11
31.8873
 21
90.1837
  0
LINE
  8
0
 10
31.8873
 20
90.1837
 11
32.5837
 21
89.4873
  0
LINE
  8
0
 10
32.5837
 20
89.4873
 11
33.1309
 21
88.6684
  0
LINE
  8
0
 10
33.1309
 20
88.6684
 11
33.5078
 21
87.7584
  0
LINE
  8
0
 10
33.5078
 20
87.7584
 11
33.7
 21
86.7924
  0
LINE
  8
0
 10
33.7
 20
86.7924
 11
33.7
 21
85.8075
  0
LINE
  8
0
 10
33.7
 20
85.8075
 11
33.5078
 21
84.8416
  0
LINE
  8
0
 10
33.5078
 20
84.8416
 11
33.1309
 21
83.9316
  0
LINE
  8
0
 10
33.1309
 20
83.9316
 11
32.5837
 21
83.1127
  0
LINE
  8
0
 10
32.5837
 20
83.1127
 11
31.8873
 21
82.4162
  0
LINE
  8
0
 10
31.8873
 20
82.4162
 11
31.0684
 21
81.869
  0
LINE
  8
0
 10
31.0684
 20
81.869
 11
30.1584
 21
81.4921
  0
LINE
  8
0
 10
30.1584
 20
81.4921
 11
29.1924
 21
81.3
  0
LINE
  8
0
 10
29.1924
 20
81.3
 11
28.2075
 21
81.3
  0
LINE
  8
0
 10
-191.792
 20
71.3
 11
-192.758
 21
71.4921
  0
LINE
  8
0
 10
-192.758
 20
71.4921
 11
-193.668
 21
71.869
  0
LINE
  8
0
 10
-193.668
 20
71.869
 11
-194.487
 21
72.4162
  0
LINE
  8
0
 10
-194.487
 20
72.4162
 11
-195.184
 21
73.1127
  0
LINE
  8
0
 10
-195.184
 20
73.1127
 11
-195.731
 21
73.9316
  0
LINE
  8
0
 10
-195.731
 20
73.9316
 11
-196.108
 21
74.8416
  0
LINE
  8
0
 10
-196.108
 20
74.8416
 11
-196.3
 21
75.8075
  0
LINE
  8
0
 10
-196.3
 20
75.8075
 11
-196.3
 21
76.7924
  0
LINE
  8
0
 10
-196.3
 20
76.7924
 11
-196.108
 21
77.7584
  0
LINE
  8
0
 10
-196.108
 20
77.7584
 11
-195.731
 21
78.6684
  0
LINE
  8
0
 10
-195.731
 20
78.6684
 11
-195.184
 21
79.4873
  0
LINE
  8
0
 10
-195.184
 20
79.4873
 11
-194.487
 21
80.1837
  0
LINE
  8
0
 10
-194.487
 20
80.1837
 11
-193.668
 21
80.7309
  0
LINE
  8
0
 10
-193.668
 20
80.7309
 11
-192.758
 21
81.1078
  0
LINE
  8
0
 10
-192.758
 20
81.1078
 11
-191.792
 21
81.3
  0
LINE
  8
0
 10
-191.792
 20
81.3
 11
-190.808
 21
81.3
  0
LINE
  8
0
 10
-190.808
 20
81.3
 11
-189.842
 21
81.1078
  0
LINE
  8
0
 10
-189.842
 20
81.1078
 11
-188.932
 21
80.7309
  0
LINE
  8
0
 10
-188.932
 20
80.7309
 11
-188.113
 21
80.1837
  0
LINE
  8
0
 10
-188.113
 20
80.1837
 11
-187.416
 21
79.4873
  0
LINE
  8
0
 10
-187.416
 20
79.4873
 11
-186.869
 21
78.6684
  0
LINE
  8
0
 10
-186.869
 20
78.6684
 11
-186.492
 21
77.7584
  0
LINE
  8
0
 10
-186.492
 20
77.7584
 11
-186.3
 21
76.7924
  0
LINE
  8
0
 10
-186.3
 20
76.7924
 11
-186.3
 21
75.8075
  0
LINE
  8
0
 10
-186.3
 20
75.8075
 11
-186.492
 21
74.8416
  0
LINE
  8
0
 10
-186.492
 20
74.8416
 11
-186.869
 21
73.9316
  0
LINE
  8
0
 10
-186.869
 20
73.9316
 11
-187.416
 21
73.1127
  0
LINE
  8
0
 10
-187.416
 20
73.1127
 11
-188.113
 21
72.4162
  0
LINE
  8
0
 10
-188.113
 20
72.4162
 11
-188.932
 21
71.869
  0
LINE
  8
0
 10
-188.932
 20
71.869
 11
-189.842
 21
71.4921
  0
LINE
  8
0
 10
-189.842
 20
71.4921
 11
-190.808
 21
71.3
  0
LINE
  8
0
 10
-190.808
 20
71.3
 11
-191.792
 21
71.3
  0
LINE
  8
0
 10
471.794
 20
-426.68
 11
472.905
 21
-426.2
  0
LINE
  8
0
 10
472.905
 20
-426.2
 11
473.857
 21
-425.453
  0
LINE
  8
0
 10
473.857
 20
-425.453
 11
474.586
 21
-424.487
  0
LINE
  8
0
 10
474.586
 20
-424.487
 11
475.044
 21
-423.367
  0
LINE
  8
0
 10
475.044
 20
-423.367
 11
475.2
 21
-422.167
  0
LINE
  8
0
 10
475.2
 20
-422.167
 11
475.2
 21
-335.572
  0
LINE
  8
0
 10
475.2
 20
-335.572
 11
476.039
 21
-329.202
  0
LINE
  8
0
 10
476.039
 20
-329.202
 11
478.498
 21
-323.265
  0
LINE
  8
0
 10
478.498
 20
-323.265
 11
482.409
 21
-318.167
  0
LINE
  8
0
 10
482.409
 20
-318.167
 11
487.507
 21
-314.256
  0
LINE
  8
0
 10
487.507
 20
-314.256
 11
493.443
 21
-311.797
  0
LINE
  8
0
 10
493.443
 20
-311.797
 11
499.814
 21
-310.958
  0
LINE
  8
0
 10
499.814
 20
-310.958
 11
506.185
 21
-311.797
  0
LINE
  8
0
 10
506.185
 20
-311.797
 11
512.121
 21
-314.256
  0
LINE
  8
0
 10
512.121
 20
-314.256
 11
517.219
 21
-318.167
  0
LINE
  8
0
 10
517.219
 20
-318.167
 11
521.131
 21
-323.265
  0
LINE
  8
0
 10
521.131
 20
-323.265
 11
523.59
 21
-329.202
  0
LINE
  8
0
 10
523.59
 20
-329.202
 11
524.428
 21
-335.572
  0
LINE
  8
0
 10
524.428
 20
-335.572
 11
524.428
 21
-420.256
  0
LINE
  8
0
 10
524.428
 20
-420.256
 11
524.617
 21
-421.713
  0
LINE
  8
0
 10
524.617
 20
-421.713
 11
525.17
 21
-423.075
  0
LINE
  8
0
 10
525.17
 20
-423.075
 11
526.052
 21
-424.25
  0
LINE
  8
0
 10
526.052
 20
-424.25
 11
527.204
 21
-425.163
  0
LINE
  8
0
 10
527.204
 20
-425.163
 11
528.551
 21
-425.752
  0
LINE
  8
0
 10
528.551
 20
-425.752
 11
530.003
 21
-425.978
  0
LINE
  8
0
 10
530.003
 20
-425.978
 11
531.465
 21
-425.828
  0
LINE
  8
0
 10
531.465
 20
-425.828
 11
532.84
 21
-425.311
  0
LINE
  8
0
 10
532.84
 20
-425.311
 11
534.038
 21
-424.46
  0
LINE
  8
0
 10
534.038
 20
-424.46
 11
556.407
 21
-410.29
  0
LINE
  8
0
 10
556.407
 20
-410.29
 11
579.538
 21
-398.073
  0
LINE
  8
0
 10
579.538
 20
-398.073
 11
628.86
 21
-379.936
  0
LINE
  8
0
 10
628.86
 20
-379.936
 11
653.148
 21
-367.47
  0
LINE
  8
0
 10
653.148
 20
-367.47
 11
664.213
 21
-359.397
  0
LINE
  8
0
 10
664.213
 20
-359.397
 11
673.908
 21
-350.096
  0
LINE
  8
0
 10
673.908
 20
-350.096
 11
681.743
 21
-339.574
  0
LINE
  8
0
 10
681.743
 20
-339.574
 11
687.523
 21
-327.93
  0
LINE
  8
0
 10
687.523
 20
-327.93
 11
695.443
 21
-302.704
  0
LINE
  8
0
 10
695.443
 20
-302.704
 11
684.244
 21
-302.704
  0
LINE
  8
0
 10
684.244
 20
-302.704
 11
679.822
 21
-302.122
  0
LINE
  8
0
 10
679.822
 20
-302.122
 11
675.702
 21
-300.415
  0
LINE
  8
0
 10
675.702
 20
-300.415
 11
672.163
 21
-297.7
  0
LINE
  8
0
 10
672.163
 20
-297.7
 11
669.448
 21
-294.161
  0
LINE
  8
0
 10
669.448
 20
-294.161
 11
667.741
 21
-290.041
  0
LINE
  8
0
 10
667.741
 20
-290.041
 11
667.159
 21
-285.619
  0
LINE
  8
0
 10
667.159
 20
-285.619
 11
667.741
 21
-281.197
  0
LINE
  8
0
 10
667.741
 20
-281.197
 11
669.448
 21
-277.076
  0
LINE
  8
0
 10
669.448
 20
-277.076
 11
672.163
 21
-273.537
  0
LINE
  8
0
 10
672.163
 20
-273.537
 11
675.702
 21
-270.822
  0
LINE
  8
0
 10
675.702
 20
-270.822
 11
679.822
 21
-269.115
  0
LINE
  8
0
 10
679.822
 20
-269.115
 11
684.244
 21
-268.533
  0
LINE
  8
0
 10
684.244
 20
-268.533
 11
696.305
 21
-268.533
  0
LINE
  8
0
 10
696.305
 20
-268.533
 11
696.305
 21
159.894
  0
LINE
  8
0
 10
696.305
 20
159.894
 11
685.393
 21
159.894
  0
LINE
  8
0
 10
685.393
 20
159.894
 11
681.417
 21
160.417
  0
LINE
  8
0
 10
681.417
 20
160.417
 11
677.712
 21
161.952
  0
LINE
  8
0
 10
677.712
 20
161.952
 11
674.53
 21
164.393
  0
LINE
  8
0
 10
674.53
 20
164.393
 11
672.089
 21
167.575
  0
LINE
  8
0
 10
672.089
 20
167.575
 11
670.554
 21
171.28
  0
LINE
  8
0
 10
670.554
 20
171.28
 11
670.031
 21
175.256
  0
LINE
  8
0
 10
670.031
 20
175.256
 11
670.554
 21
179.232
  0
LINE
  8
0
 10
670.554
 20
179.232
 11
672.089
 21
182.937
  0
LINE
  8
0
 10
672.089
 20
182.937
 11
674.53
 21
186.119
  0
LINE
  8
0
 10
674.53
 20
186.119
 11
677.712
 21
188.56
  0
LINE
  8
0
 10
677.712
 20
188.56
 11
681.417
 21
190.095
  0
LINE
  8
0
 10
681.417
 20
190.095
 11
685.393
 21
190.619
  0
LINE
  8
0
 10
685.393
 20
190.619
 11
696.305
 21
190.619
  0
LINE
  8
0
 10
696.305
 20
190.619
 11
696.305
 21
410.503
  0
LINE
  8
0
 10
696.305
 20
410.503
 11
302.91
 21
410.503
  0
LINE
  8
0
 10
302.91
 20
410.503
 11
302.91
 21
190.906
  0
LINE
  8
0
 10
302.91
 20
190.906
 11
312.673
 21
190.906
  0
LINE
  8
0
 10
312.673
 20
190.906
 11
316.686
 21
190.377
  0
LINE
  8
0
 10
316.686
 20
190.377
 11
320.426
 21
188.828
  0
LINE
  8
0
 10
320.426
 20
188.828
 11
323.638
 21
186.364
  0
LINE
  8
0
 10
323.638
 20
186.364
 11
326.102
 21
183.153
  0
LINE
  8
0
 10
326.102
 20
183.153
 11
327.651
 21
179.413
  0
LINE
  8
0
 10
327.651
 20
179.413
 11
328.179
 21
175.4
  0
LINE
  8
0
 10
328.179
 20
175.4
 11
327.651
 21
171.386
  0
LINE
  8
0
 10
327.651
 20
171.386
 11
326.102
 21
167.647
  0
LINE
  8
0
 10
326.102
 20
167.647
 11
323.638
 21
164.435
  0
LINE
  8
0
 10
323.638
 20
164.435
 11
320.426
 21
161.971
  0
LINE
  8
0
 10
320.426
 20
161.971
 11
316.686
 21
160.422
  0
LINE
  8
0
 10
316.686
 20
160.422
 11
312.673
 21
159.894
  0
LINE
  8
0
 10
312.673
 20
159.894
 11
302.91
 21
159.894
  0
LINE
  8
0
 10
302.91
 20
159.894
 11
302.91
 21
-269.107
  0
LINE
  8
0
 10
302.91
 20
-269.107
 11
312.673
 21
-269.108
  0
LINE
  8
0
 10
312.673
 20
-269.108
 11
316.761
 21
-269.646
  0
LINE
  8
0
 10
316.761
 20
-269.646
 11
320.57
 21
-271.223
  0
LINE
  8
0
 10
320.57
 20
-271.223
 11
323.841
 21
-273.733
  0
LINE
  8
0
 10
323.841
 20
-273.733
 11
326.351
 21
-277.004
  0
LINE
  8
0
 10
326.351
 20
-277.004
 11
327.928
 21
-280.813
  0
LINE
  8
0
 10
327.928
 20
-280.813
 11
328.466
 21
-284.901
  0
LINE
  8
0
 10
328.466
 20
-284.901
 11
327.928
 21
-288.988
  0
LINE
  8
0
 10
327.928
 20
-288.988
 11
326.351
 21
-292.797
  0
LINE
  8
0
 10
326.351
 20
-292.797
 11
323.841
 21
-296.068
  0
LINE
  8
0
 10
323.841
 20
-296.068
 11
320.57
 21
-298.578
  0
LINE
  8
0
 10
320.57
 20
-298.578
 11
316.761
 21
-300.156
  0
LINE
  8
0
 10
316.761
 20
-300.156
 11
312.673
 21
-300.694
  0
LINE
  8
0
 10
312.673
 20
-300.694
 11
302.91
 21
-300.694
  0
LINE
  8
0
 10
302.91
 20
-300.694
 11
310.568
 21
-326.424
  0
LINE
  8
0
 10
310.568
 20
-326.424
 11
315.984
 21
-338.291
  0
LINE
  8
0
 10
315.984
 20
-338.291
 11
323.301
 21
-348.962
  0
LINE
  8
0
 10
323.301
 20
-348.962
 11
332.817
 21
-358.202
  0
LINE
  8
0
 10
332.817
 20
-358.202
 11
344.076
 21
-366.146
  0
LINE
  8
0
 10
344.076
 20
-366.146
 11
369.603
 21
-378.885
  0
LINE
  8
0
 10
369.603
 20
-378.885
 11
420.667
 21
-398.208
  0
LINE
  8
0
 10
420.667
 20
-398.208
 11
444.148
 21
-410.118
  0
LINE
  8
0
 10
444.148
 20
-410.118
 11
466.52
 21
-424.641
  0
LINE
  8
0
 10
466.52
 20
-424.641
 11
467.285
 21
-425.579
  0
LINE
  8
0
 10
467.285
 20
-425.579
 11
468.265
 21
-426.289
  0
LINE
  8
0
 10
468.265
 20
-426.289
 11
469.394
 21
-426.725
  0
LINE
  8
0
 10
469.394
 20
-426.725
 11
470.597
 21
-426.859
  0
LINE
  8
0
 10
470.597
 20
-426.859
 11
471.794
 21
-426.68
  0
LINE
  8
0
 10
58.5
 20
-465.33
 11
59.2686
 21
-461.466
  0
LINE
  8
0
 10
59.2686
 20
-461.466
 11
60.7762
 21
-457.826
  0
LINE
  8
0
 10
60.7762
 20
-457.826
 11
62.965
 21
-454.551
  0
LINE
  8
0
 10
62.965
 20
-454.551
 11
65.7507
 21
-451.765
  0
LINE
  8
0
 10
65.7507
 20
-451.765
 11
69.0264
 21
-449.576
  0
LINE
  8
0
 10
69.0264
 20
-449.576
 11
72.6662
 21
-448.069
  0
LINE
  8
0
 10
72.6662
 20
-448.069
 11
76.5302
 21
-447.3
  0
LINE
  8
0
 10
76.5302
 20
-447.3
 11
165.1
 21
-447.3
  0
LINE
  8
0
 10
165.1
 20
-447.3
 11
165.1
 21
-55.3
  0
LINE
  8
0
 10
165.1
 20
-55.3
 11
76.5302
 21
-55.3
  0
LINE
  8
0
 10
76.5302
 20
-55.3
 11
72.6662
 21
-54.5314
  0
LINE
  8
0
 10
72.6662
 20
-54.5314
 11
69.0265
 21
-53.0237
  0
LINE
  8
0
 10
69.0265
 20
-53.0237
 11
65.7507
 21
-50.835
  0
LINE
  8
0
 10
65.7507
 20
-50.835
 11
62.965
 21
-48.0492
  0
LINE
  8
0
 10
62.965
 20
-48.0492
 11
60.7762
 21
-44.7735
  0
LINE
  8
0
 10
60.7762
 20
-44.7735
 11
59.2686
 21
-41.1338
  0
LINE
  8
0
 10
59.2686
 20
-41.1338
 11
58.5
 21
-37.2698
  0
LINE
  8
0
 10
58.5
 20
-37.2698
 11
58.5
 21
-10
  0
LINE
  8
0
 10
58.5
 20
-10
 11
-177.8
 21
-10
  0
LINE
  8
0
 10
-177.8
 20
-10
 11
-177.8
 21
-492.6
  0
LINE
  8
0
 10
-177.8
 20
-492.6
 11
58.5
 21
-492.6
  0
LINE
  8
0
 10
58.5
 20
-492.6
 11
58.5
 21
-465.33
  0
LINE
  8
0
 10
-0.393936
 20
-105.3
 11
-1.16673
 21
-105.146
  0
LINE
  8
0
 10
-1.16673
 20
-105.146
 11
-1.89468
 21
-104.845
  0
LINE
  8
0
 10
-1.89468
 20
-104.845
 11
-2.54984
 21
-104.407
  0
LINE
  8
0
 10
-2.54984
 20
-104.407
 11
-3.10698
 21
-103.85
  0
LINE
  8
0
 10
-3.10698
 20
-103.85
 11
-3.54472
 21
-103.195
  0
LINE
  8
0
 10
-3.54472
 20
-103.195
 11
-3.84625
 21
-102.467
  0
LINE
  8
0
 10
-3.84625
 20
-102.467
 11
-3.99998
 21
-101.694
  0
LINE
  8
0
 10
-3.99998
 20
-101.694
 11
-3.99998
 21
-100.906
  0
LINE
  8
0
 10
-3.99998
 20
-100.906
 11
-3.84625
 21
-100.133
  0
LINE
  8
0
 10
-3.84625
 20
-100.133
 11
-3.54472
 21
-99.4053
  0
LINE
  8
0
 10
-3.54472
 20
-99.4053
 11
-3.10698
 21
-98.7501
  0
LINE
  8
0
 10
-3.10698
 20
-98.7501
 11
-2.54984
 21
-98.193
  0
LINE
  8
0
 10
-2.54984
 20
-98.193
 11
-1.89468
 21
-97.7552
  0
LINE
  8
0
 10
-1.89468
 20
-97.7552
 11
-1.16673
 21
-97.4537
  0
LINE
  8
0
 10
-1.16673
 20
-97.4537
 11
-0.393936
 21
-97.3
  0
LINE
  8
0
 10
-0.393936
 20
-97.3
 11
0.393951
 21
-97.3
  0
LINE
  8
0
 10
0.393951
 20
-97.3
 11
1.16675
 21
-97.4537
  0
LINE
  8
0
 10
1.16675
 20
-97.4537
 11
1.8947
 21
-97.7552
  0
LINE
  8
0
 10
1.8947
 20
-97.7552
 11
2.54985
 21
-98.193
  0
LINE
  8
0
 10
2.54985
 20
-98.193
 11
3.10699
 21
-98.7501
  0
LINE
  8
0
 10
3.10699
 20
-98.7501
 11
3.54474
 21
-99.4053
  0
LINE
  8
0
 10
3.54474
 20
-99.4053
 11
3.84627
 21
-100.133
  0
LINE
  8
0
 10
3.84627
 20
-100.133
 11
4
 21
-100.906
  0
LINE
  8
0
 10
4
 20
-100.906
 11
3.99998
 21
-101.694
  0
LINE
  8
0
 10
3.99998
 20
-101.694
 11
3.84627
 21
-102.467
  0
LINE
  8
0
 10
3.84627
 20
-102.467
 11
3.54474
 21
-103.195
  0
LINE
  8
0
 10
3.54474
 20
-103.195
 11
3.10699
 21
-103.85
  0
LINE
  8
0
 10
3.10699
 20
-103.85
 11
2.54985
 21
-104.407
  0
LINE
  8
0
 10
2.54985
 20
-104.407
 11
1.8947
 21
-104.845
  0
LINE
  8
0
 10
1.8947
 20
-104.845
 11
1.16675
 21
-105.146
  0
LINE
  8
0
 10
1.16675
 20
-105.146
 11
0.393951
 21
-105.3
  0
LINE
  8
0
 10
0.393951
 20
-105.3
 11
-0.393936
 21
-105.3
  0
LINE
  8
0
 10
-0.393951
 20
-255.3
 11
-1.16675
 21
-255.146
  0
LINE
  8
0
 10
-1.16675
 20
-255.146
 11
-1.8947
 21
-254.845
  0
LINE
  8
0
 10
-1.8947
 20
-254.845
 11
-2.54985
 21
-254.407
  0
LINE
  8
0
 10
-2.54985
 20
-254.407
 11
-3.10699
 21
-253.85
  0
LINE
  8
0
 10
-3.10699
 20
-253.85
 11
-3.54474
 21
-253.195
  0
LINE
  8
0
 10
-3.54474
 20
-253.195
 11
-3.84627
 21
-252.467
  0
LINE
  8
0
 10
-3.84627
 20
-252.467
 11
-4
 21
-251.694
  0
LINE
  8
0
 10
-4
 20
-251.694
 11
-4
 21
-250.906
  0
LINE
  8
0
 10
-4
 20
-250.906
 11
-3.84625
 21
-250.133
  0
LINE
  8
0
 10
-3.84625
 20
-250.133
 11
-3.54472
 21
-249.405
  0
LINE
  8
0
 10
-3.54472
 20
-249.405
 11
-3.10698
 21
-248.75
  0
LINE
  8
0
 10
-3.10698
 20
-248.75
 11
-2.54984
 21
-248.193
  0
LINE
  8
0
 10
-2.54984
 20
-248.193
 11
-1.89468
 21
-247.755
  0
LINE
  8
0
 10
-1.89468
 20
-247.755
 11
-1.16673
 21
-247.454
  0
LINE
  8
0
 10
-1.16673
 20
-247.454
 11
-0.393936
 21
-247.3
  0
LINE
  8
0
 10
-0.393936
 20
-247.3
 11
0.393951
 21
-247.3
  0
LINE
  8
0
 10
0.393951
 20
-247.3
 11
1.16675
 21
-247.454
  0
LINE
  8
0
 10
1.16675
 20
-247.454
 11
1.8947
 21
-247.755
  0
LINE
  8
0
 10
1.8947
 20
-247.755
 11
2.54985
 21
-248.193
  0
LINE
  8
0
 10
2.54985
 20
-248.193
 11
3.10699
 21
-248.75
  0
LINE
  8
0
 10
3.10699
 20
-248.75
 11
3.54474
 21
-249.405
  0
LINE
  8
0
 10
3.54474
 20
-249.405
 11
3.84627
 21
-250.133
  0
LINE
  8
0
 10
3.84627
 20
-250.133
 11
4
 21
-250.906
  0
LINE
  8
0
 10
4
 20
-250.906
 11
3.99998
 21
-251.694
  0
LINE
  8
0
 10
3.99998
 20
-251.694
 11
3.84625
 21
-252.467
  0
LINE
  8
0
 10
3.84625
 20
-252.467
 11
3.54472
 21
-253.195
  0
LINE
  8
0
 10
3.54472
 20
-253.195
 11
3.10698
 21
-253.85
  0
LINE
  8
0
 10
3.10698
 20
-253.85
 11
2.54984
 21
-254.407
  0
LINE
  8
0
 10
2.54984
 20
-254.407
 11
1.89468
 21
-254.845
  0
LINE
  8
0
 10
1.89468
 20
-254.845
 11
1.16673
 21
-255.146
  0
LINE
  8
0
 10
1.16673
 20
-255.146
 11
0.393936
 21
-255.3
  0
LINE
  8
0
 10
0.393936
 20
-255.3
 11
-0.393951
 21
-255.3
  0
LINE
  8
0
 10
-0.393951
 20
-405.3
 11
-1.16675
 21
-405.146
  0
LINE
  8
0
 10
-1.16675
 20
-405.146
 11
-1.8947
 21
-404.845
  0
LINE
  8
0
 10
-1.8947
 20
-404.845
 11
-2.54985
 21
-404.407
  0
LINE
  8
0
 10
-2.54985
 20
-404.407
 11
-3.10699
 21
-403.85
  0
LINE
  8
0
 10
-3.10699
 20
-403.85
 11
-3.54474
 21
-403.195
  0
LINE
  8
0
 10
-3.54474
 20
-403.195
 11
-3.84627
 21
-402.467
  0
LINE
  8
0
 10
-3.84627
 20
-402.467
 11
-4
 21
-401.694
  0
LINE
  8
0
 10
-4
 20
-401.694
 11
-4
 21
-400.906
  0
LINE
  8
0
 10
-4
 20
-400.906
 11
-3.84627
 21
-400.133
  0
LINE
  8
0
 10
-3.84627
 20
-400.133
 11
-3.54474
 21
-399.405
  0
LINE
  8
0
 10
-3.54474
 20
-399.405
 11
-3.10699
 21
-398.75
  0
LINE
  8
0
 10
-3.10699
 20
-398.75
 11
-2.54985
 21
-398.193
  0
LINE
  8
0
 10
-2.54985
 20
-398.193
 11
-1.8947
 21
-397.755
  0
LINE
  8
0
 10
-1.8947
 20
-397.755
 11
-1.16675
 21
-397.454
  0
LINE
  8
0
 10
-1.16675
 20
-397.454
 11
-0.393951
 21
-397.3
  0
LINE
  8
0
 10
-0.393951
 20
-397.3
 11
0.393936
 21
-397.3
  0
LINE
  8
0
 10
0.393936
 20
-397.3
 11
1.16673
 21
-397.454
  0
LINE
  8
0
 10
1.16673
 20
-397.454
 11
1.89468
 21
-397.755
  0
LINE
  8
0
 10
1.89468
 20
-397.755
 11
2.54984
 21
-398.193
  0
LINE
  8
0
 10
2.54984
 20
-398.193
 11
3.10698
 21
-398.75
  0
LINE
  8
0
 10
3.10698
 20
-398.75
 11
3.54472
 21
-399.405
  0
LINE
  8
0
 10
3.54472
 20
-399.405
 11
3.84625
 21
-400.133
  0
LINE
  8
0
 10
3.84625
 20
-400.133
 11
3.99998
 21
-400.906
  0
LINE
  8
0
 10
3.99998
 20
-400.906
 11
3.99997
 21
-401.694
  0
LINE
  8
0
 10
3.99997
 20
-401.694
 11
3.84625
 21
-402.467
  0
LINE
  8
0
 10
3.84625
 20
-402.467
 11
3.54472
 21
-403.195
  0
LINE
  8
0
 10
3.54472
 20
-403.195
 11
3.10698
 21
-403.85
  0
LINE
  8
0
 10
3.10698
 20
-403.85
 11
2.54984
 21
-404.407
  0
LINE
  8
0
 10
2.54984
 20
-404.407
 11
1.89468
 21
-404.845
  0
LINE
  8
0
 10
1.89468
 20
-404.845
 11
1.16673
 21
-405.146
  0
LINE
  8
0
 10
1.16673
 20
-405.146
 11
0.393936
 21
-405.3
  0
LINE
  8
0
 10
0.393936
 20
-405.3
 11
-0.393951
 21
-405.3
  0
LINE
  8
0
 10
-199.7
 20
-65.3
 11
-275.9
 21
-65.3
  0
LINE
  8
0
 10
-275.9
 20
-65.3
 11
-275.9
 21
-437.3
  0
LINE
  8
0
 10
-275.9
 20
-437.3
 11
-199.7
 21
-437.3
  0
LINE
  8
0
 10
-199.7
 20
-437.3
 11
-199.7
 21
-65.3
  0
LINE
  8
0
 10
-238.194
 20
-105.3
 11
-238.967
 21
-105.146
  0
LINE
  8
0
 10
-238.967
 20
-105.146
 11
-239.695
 21
-104.845
  0
LINE
  8
0
 10
-239.695
 20
-104.845
 11
-240.35
 21
-104.407
  0
LINE
  8
0
 10
-240.35
 20
-104.407
 11
-240.907
 21
-103.85
  0
LINE
  8
0
 10
-240.907
 20
-103.85
 11
-241.345
 21
-103.195
  0
LINE
  8
0
 10
-241.345
 20
-103.195
 11
-241.646
 21
-102.467
  0
LINE
  8
0
 10
-241.646
 20
-102.467
 11
-241.8
 21
-101.694
  0
LINE
  8
0
 10
-241.8
 20
-101.694
 11
-241.8
 21
-100.906
  0
LINE
  8
0
 10
-241.8
 20
-100.906
 11
-241.646
 21
-100.133
  0
LINE
  8
0
 10
-241.646
 20
-100.133
 11
-241.345
 21
-99.4053
  0
LINE
  8
0
 10
-241.345
 20
-99.4053
 11
-240.907
 21
-98.7501
  0
LINE
  8
0
 10
-240.907
 20
-98.7501
 11
-240.35
 21
-98.193
  0
LINE
  8
0
 10
-240.35
 20
-98.193
 11
-239.695
 21
-97.7552
  0
LINE
  8
0
 10
-239.695
 20
-97.7552
 11
-238.967
 21
-97.4537
  0
LINE
  8
0
 10
-238.967
 20
-97.4537
 11
-238.194
 21
-97.3
  0
LINE
  8
0
 10
-238.194
 20
-97.3
 11
-237.406
 21
-97.3
  0
LINE
  8
0
 10
-237.406
 20
-97.3
 11
-236.633
 21
-97.4537
  0
LINE
  8
0
 10
-236.633
 20
-97.4537
 11
-235.905
 21
-97.7552
  0
LINE
  8
0
 10
-235.905
 20
-97.7552
 11
-235.25
 21
-98.193
  0
LINE
  8
0
 10
-235.25
 20
-98.193
 11
-234.693
 21
-98.7501
  0
LINE
  8
0
 10
-234.693
 20
-98.7501
 11
-234.255
 21
-99.4053
  0
LINE
  8
0
 10
-234.255
 20
-99.4053
 11
-233.954
 21
-100.133
  0
LINE
  8
0
 10
-233.954
 20
-100.133
 11
-233.8
 21
-100.906
  0
LINE
  8
0
 10
-233.8
 20
-100.906
 11
-233.8
 21
-101.694
  0
LINE
  8
0
 10
-233.8
 20
-101.694
 11
-233.954
 21
-102.467
  0
LINE
  8
0
 10
-233.954
 20
-102.467
 11
-234.255
 21
-103.195
  0
LINE
  8
0
 10
-234.255
 20
-103.195
 11
-234.693
 21
-103.85
  0
LINE
  8
0
 10
-234.693
 20
-103.85
 11
-235.25
 21
-104.407
  0
LINE
  8
0
 10
-235.25
 20
-104.407
 11
-235.905
 21
-104.845
  0
LINE
  8
0
 10
-235.905
 20
-104.845
 11
-236.633
 21
-105.146
  0
LINE
  8
0
 10
-236.633
 20
-105.146
 11
-237.406
 21
-105.3
  0
LINE
  8
0
 10
-237.406
 20
-105.3
 11
-238.194
 21
-105.3
  0
LINE
  8
0
 10
-238.194
 20
-255.3
 11
-238.967
 21
-255.146
  0
LINE
  8
0
 10
-238.967
 20
-255.146
 11
-239.695
 21
-254.845
  0
LINE
  8
0
 10
-239.695
 20
-254.845
 11
-240.35
 21
-254.407
  0
LINE
  8
0
 10
-240.35
 20
-254.407
 11
-240.907
 21
-253.85
  0
LINE
  8
0
 10
-240.907
 20
-253.85
 11
-241.345
 21
-253.195
  0
LINE
  8
0
 10
-241.345
 20
-253.195
 11
-241.646
 21
-252.467
  0
LINE
  8
0
 10
-241.646
 20
-252.467
 11
-241.8
 21
-251.694
  0
LINE
  8
0
 10
-241.8
 20
-251.694
 11
-241.8
 21
-250.906
  0
LINE
  8
0
 10
-241.8
 20
-250.906
 11
-241.646
 21
-250.133
  0
LINE
  8
0
 10
-241.646
 20
-250.133
 11
-241.345
 21
-249.405
  0
LINE
  8
0
 10
-241.345
 20
-249.405
 11
-240.907
 21
-248.75
  0
LINE
  8
0
 10
-240.907
 20
-248.75
 11
-240.35
 21
-248.193
  0
LINE
  8
0
 10
-240.35
 20
-248.193
 11
-239.695
 21
-247.755
  0
LINE
  8
0
 10
-239.695
 20
-247.755
 11
-238.967
 21
-247.454
  0
LINE
  8
0
 10
-238.967
 20
-247.454
 11
-238.194
 21
-247.3
  0
LINE
  8
0
 10
-238.194
 20
-247.3
 11
-237.406
 21
-247.3
  0
LINE
  8
0
 10
-237.406
 20
-247.3
 11
-236.633
 21
-247.454
  0
LINE
  8
0
 10
-236.633
 20
-247.454
 11
-235.905
 21
-247.755
  0
LINE
  8
0
 10
-235.905
 20
-247.755
 11
-235.25
 21
-248.193
  0
LINE
  8
0
 10
-235.25
 20
-248.193
 11
-234.693
 21
-248.75
  0
LINE
  8
0
 10
-234.693
 20
-248.75
 11
-234.255
 21
-249.405
  0
LINE
  8
0
 10
-234.255
 20
-249.405
 11
-233.954
 21
-250.133
  0
LINE
  8
0
 10
-233.954
 20
-250.133
 11
-233.8
 21
-250.906
  0
LINE
  8
0
 10
-233.8
 20
-250.906
 11
-233.8
 21
-251.694
  0
LINE
  8
0
 10
-233.8
 20
-251.694
 11
-233.954
 21
-252.467
  0
LINE
  8
0
 10
-233.954
 20
-252.467
 11
-234.255
 21
-253.195
  0
LINE
  8
0
 10
-234.255
 20
-253.195
 11
-234.693
 21
-253.85
  0
LINE
  8
0
 10
-234.693
 20
-253.85
 11
-235.25
 21
-254.407
  0
LINE
  8
0
 10
-235.25
 20
-254.407
 11
-235.905
 21
-254.845
  0
LINE
  8
0
 10
-235.905
 20
-254.845
 11
-236.633
 21
-255.146
  0
LINE
  8
0
 10
-236.633
 20
-255.146
 11
-237.406
 21
-255.3
  0
LINE
  8
0
 10
-237.406
 20
-255.3
 11
-238.194
 21
-255.3
  0
LINE
  8
0
 10
-238.194
 20
-405.3
 11
-238.967
 21
-405.146
  0
LINE
  8
0
 10
-238.967
 20
-405.146
 11
-239.695
 21
-404.845
  0
LINE
  8
0
 10
-239.695
 20
-404.845
 11
-240.35
 21
-404.407
  0
LINE
  8
0
 10
-240.35
 20
-404.407
 11
-240.907
 21
-403.85
  0
LINE
  8
0
 10
-240.907
 20
-403.85
 11
-241.345
 21
-403.195
  0
LINE
  8
0
 10
-241.345
 20
-403.195
 11
-241.646
 21
-402.467
  0
LINE
  8
0
 10
-241.646
 20
-402.467
 11
-241.8
 21
-401.694
  0
LINE
  8
0
 10
-241.8
 20
-401.694
 11
-241.8
 21
-400.906
  0
LINE
  8
0
 10
-241.8
 20
-400.906
 11
-241.646
 21
-400.133
  0
LINE
  8
0
 10
-241.646
 20
-400.133
 11
-241.345
 21
-399.405
  0
LINE
  8
0
 10
-241.345
 20
-399.405
 11
-240.907
 21
-398.75
  0
LINE
  8
0
 10
-240.907
 20
-398.75
 11
-240.35
 21
-398.193
  0
LINE
  8
0
 10
-240.35
 20
-398.193
 11
-239.695
 21
-397.755
  0
LINE
  8
0
 10
-239.695
 20
-397.755
 11
-238.967
 21
-397.454
  0
LINE
  8
0
 10
-238.967
 20
-397.454
 11
-238.194
 21
-397.3
  0
LINE
  8
0
 10
-238.194
 20
-397.3
 11
-237.406
 21
-397.3
  0
LINE
  8
0
 10
-237.406
 20
-397.3
 11
-236.633
 21
-397.454
  0
LINE
  8
0
 10
-236.633
 20
-397.454
 11
-235.905
 21
-397.755
  0
LINE
  8
0
 10
-235.905
 20
-397.755
 11
-235.25
 21
-398.193
  0
LINE
  8
0
 10
-235.25
 20
-398.193
 11
-234.693
 21
-398.75
  0
LINE
  8
0
 10
-234.693
 20
-398.75
 11
-234.255
 21
-399.405
  0
LINE
  8
0
 10
-234.255
 20
-399.405
 11
-233.954
 21
-400.133
  0
LINE
  8
0
 10
-233.954
 20
-400.133
 11
-233.8
 21
-400.906
  0
LINE
  8
0
 10
-233.8
 20
-400.906
 11
-233.8
 21
-401.694
  0
LINE
  8
0
 10
-233.8
 20
-401.694
 11
-233.954
 21
-402.467
  0
LINE
  8
0
 10
-233.954
 20
-402.467
 11
-234.255
 21
-403.195
  0
LINE
  8
0
 10
-234.255
 20
-403.195
 11
-234.693
 21
-403.85
  0
LINE
  8
0
 10
-234.693
 20
-403.85
 11
-235.25
 21
-404.407
  0
LINE
  8
0
 10
-235.25
 20
-404.407
 11
-235.905
 21
-404.845
  0
LINE
  8
0
 10
-235.905
 20
-404.845
 11
-236.633
 21
-405.146
  0
LINE
  8
0
 10
-236.633
 20
-405.146
 11
-237.406
 21
-405.3
  0
LINE
  8
0
 10
-237.406
 20
-405.3
 11
-238.194
 21
-405.3
  0
ENDSEC
  0
SECTION
  2
OBJECTS
  0
DICTIONARY
  0
ENDSEC
  0
EOF
