  0
SECTION
  2
BLOCKS
  0
ENDSEC
  0
SECTION
  2
ENTITIES
  0
LINE
  8
0
 10
152.375
 20
10.5764
 11
155.105
 21
11.7072
  0
LINE
  8
0
 10
155.105
 20
11.7072
 11
157.562
 21
13.3487
  0
LINE
  8
0
 10
157.562
 20
13.3487
 11
159.651
 21
15.4381
  0
LINE
  8
0
 10
159.651
 20
15.4381
 11
161.293
 21
17.8948
  0
LINE
  8
0
 10
161.293
 20
17.8948
 11
251.293
 21
204.895
  0
LINE
  8
0
 10
251.293
 20
204.895
 11
252.424
 21
207.625
  0
LINE
  8
0
 10
252.424
 20
207.625
 11
253
 21
210.523
  0
LINE
  8
0
 10
253
 20
210.523
 11
253
 21
263.477
  0
LINE
  8
0
 10
253
 20
263.477
 11
252.424
 21
266.375
  0
LINE
  8
0
 10
252.424
 20
266.375
 11
251.293
 21
269.105
  0
LINE
  8
0
 10
251.293
 20
269.105
 11
161.293
 21
456.105
  0
LINE
  8
0
 10
161.293
 20
456.105
 11
159.651
 21
458.562
  0
LINE
  8
0
 10
159.651
 20
458.562
 11
157.562
 21
460.651
  0
LINE
  8
0
 10
157.562
 20
460.651
 11
155.105
 21
462.293
  0
LINE
  8
0
 10
155.105
 20
462.293
 11
152.375
 21
463.424
  0
LINE
  8
0
 10
152.375
 20
463.424
 11
149.477
 21
464
  0
LINE
  8
0
 10
149.477
 20
464
 11
-197
 21
464
  0
LINE
  8
0
 10
-197
 20
464
 11
-197
 21
437.03
  0
LINE
  8
0
 10
-197
 20
437.03
 11
-197.769
 21
433.166
  0
LINE
  8
0
 10
-197.769
 20
433.166
 11
-199.276
 21
429.526
  0
LINE
  8
0
 10
-199.276
 20
429.526
 11
-201.465
 21
426.251
  0
LINE
  8
0
 10
-201.465
 20
426.251
 11
-204.251
 21
423.465
  0
LINE
  8
0
 10
-204.251
 20
423.465
 11
-207.526
 21
421.276
  0
LINE
  8
0
 10
-207.526
 20
421.276
 11
-211.166
 21
419.769
  0
LINE
  8
0
 10
-211.166
 20
419.769
 11
-215.03
 21
419
  0
LINE
  8
0
 10
-215.03
 20
419
 11
-217
 21
419
  0
LINE
  8
0
 10
-217
 20
419
 11
-217
 21
372
  0
LINE
  8
0
 10
-217
 20
372
 11
-153.06
 21
372
  0
LINE
  8
0
 10
-153.06
 20
372
 11
-145.332
 21
370.463
  0
LINE
  8
0
 10
-145.332
 20
370.463
 11
-138.053
 21
367.448
  0
LINE
  8
0
 10
-138.053
 20
367.448
 11
-131.501
 21
363.07
  0
LINE
  8
0
 10
-131.501
 20
363.07
 11
-125.93
 21
357.499
  0
LINE
  8
0
 10
-125.93
 20
357.499
 11
-121.552
 21
350.947
  0
LINE
  8
0
 10
-121.552
 20
350.947
 11
-118.537
 21
343.668
  0
LINE
  8
0
 10
-118.537
 20
343.668
 11
-117
 21
335.94
  0
LINE
  8
0
 10
-117
 20
335.94
 11
-117
 21
138.06
  0
LINE
  8
0
 10
-117
 20
138.06
 11
-118.537
 21
130.332
  0
LINE
  8
0
 10
-118.537
 20
130.332
 11
-121.552
 21
123.053
  0
LINE
  8
0
 10
-121.552
 20
123.053
 11
-125.93
 21
116.501
  0
LINE
  8
0
 10
-125.93
 20
116.501
 11
-131.501
 21
110.93
  0
LINE
  8
0
 10
-131.501
 20
110.93
 11
-138.053
 21
106.552
  0
LINE
  8
0
 10
-138.053
 20
106.552
 11
-145.332
 21
103.537
  0
LINE
  8
0
 10
-145.332
 20
103.537
 11
-153.06
 21
102
  0
LINE
  8
0
 10
-153.06
 20
102
 11
-217
 21
102
  0
LINE
  8
0
 10
-217
 20
102
 11
-217
 21
55
  0
LINE
  8
0
 10
-217
 20
55
 11
-215.03
 21
55
  0
LINE
  8
0
 10
-215.03
 20
55
 11
-211.166
 21
54.2314
  0
LINE
  8
0
 10
-211.166
 20
54.2314
 11
-207.526
 21
52.7238
  0
LINE
  8
0
 10
-207.526
 20
52.7238
 11
-204.251
 21
50.535
  0
LINE
  8
0
 10
-204.251
 20
50.535
 11
-201.465
 21
47.7493
  0
LINE
  8
0
 10
-201.465
 20
47.7493
 11
-199.276
 21
44.4735
  0
LINE
  8
0
 10
-199.276
 20
44.4735
 11
-197.769
 21
40.8338
  0
LINE
  8
0
 10
-197.769
 20
40.8338
 11
-197
 21
36.9698
  0
LINE
  8
0
 10
-197
 20
36.9698
 11
-197
 21
10
  0
LINE
  8
0
 10
-197
 20
10
 11
149.477
 21
10
  0
LINE
  8
0
 10
149.477
 20
10
 11
152.375
 21
10.5764
  0
LINE
  8
0
 10
-177.492
 20
407
 11
-178.458
 21
407.192
  0
LINE
  8
0
 10
-178.458
 20
407.192
 11
-179.368
 21
407.569
  0
LINE
  8
0
 10
-179.368
 20
407.569
 11
-180.187
 21
408.116
  0
LINE
  8
0
 10
-180.187
 20
408.116
 11
-180.884
 21
408.813
  0
LINE
  8
0
 10
-180.884
 20
408.813
 11
-181.431
 21
409.632
  0
LINE
  8
0
 10
-181.431
 20
409.632
 11
-181.808
 21
410.542
  0
LINE
  8
0
 10
-181.808
 20
410.542
 11
-182
 21
411.508
  0
LINE
  8
0
 10
-182
 20
411.508
 11
-182
 21
412.492
  0
LINE
  8
0
 10
-182
 20
412.492
 11
-181.808
 21
413.458
  0
LINE
  8
0
 10
-181.808
 20
413.458
 11
-181.431
 21
414.368
  0
LINE
  8
0
 10
-181.431
 20
414.368
 11
-180.884
 21
415.187
  0
LINE
  8
0
 10
-180.884
 20
415.187
 11
-180.187
 21
415.884
  0
LINE
  8
0
 10
-180.187
 20
415.884
 11
-179.368
 21
416.431
  0
LINE
  8
0
 10
-179.368
 20
416.431
 11
-178.458
 21
416.808
  0
LINE
  8
0
 10
-178.458
 20
416.808
 11
-177.492
 21
417
  0
LINE
  8
0
 10
-177.492
 20
417
 11
-176.508
 21
417
  0
LINE
  8
0
 10
-176.508
 20
417
 11
-175.542
 21
416.808
  0
LINE
  8
0
 10
-175.542
 20
416.808
 11
-174.632
 21
416.431
  0
LINE
  8
0
 10
-174.632
 20
416.431
 11
-173.813
 21
415.884
  0
LINE
  8
0
 10
-173.813
 20
415.884
 11
-173.116
 21
415.187
  0
LINE
  8
0
 10
-173.116
 20
415.187
 11
-172.569
 21
414.368
  0
LINE
  8
0
 10
-172.569
 20
414.368
 11
-172.192
 21
413.458
  0
LINE
  8
0
 10
-172.192
 20
413.458
 11
-172
 21
412.492
  0
LINE
  8
0
 10
-172
 20
412.492
 11
-172
 21
411.508
  0
LINE
  8
0
 10
-172
 20
411.508
 11
-172.192
 21
410.542
  0
LINE
  8
0
 10
-172.192
 20
410.542
 11
-172.569
 21
409.632
  0
LINE
  8
0
 10
-172.569
 20
409.632
 11
-173.116
 21
408.813
  0
LINE
  8
0
 10
-173.116
 20
408.813
 11
-173.813
 21
408.116
  0
LINE
  8
0
 10
-173.813
 20
408.116
 11
-174.632
 21
407.569
  0
LINE
  8
0
 10
-174.632
 20
407.569
 11
-175.542
 21
407.192
  0
LINE
  8
0
 10
-175.542
 20
407.192
 11
-176.508
 21
407
  0
LINE
  8
0
 10
-176.508
 20
407
 11
-177.492
 21
407
  0
LINE
  8
0
 10
42.5075
 20
397
 11
41.5415
 21
397.192
  0
LINE
  8
0
 10
41.5415
 20
397.192
 11
40.6316
 21
397.569
  0
LINE
  8
0
 10
40.6316
 20
397.569
 11
39.8127
 21
398.116
  0
LINE
  8
0
 10
39.8127
 20
398.116
 11
39.1162
 21
398.813
  0
LINE
  8
0
 10
39.1162
 20
398.813
 11
38.569
 21
399.632
  0
LINE
  8
0
 10
38.569
 20
399.632
 11
38.1921
 21
400.542
  0
LINE
  8
0
 10
38.1921
 20
400.542
 11
38
 21
401.508
  0
LINE
  8
0
 10
38
 20
401.508
 11
38
 21
402.492
  0
LINE
  8
0
 10
38
 20
402.492
 11
38.1921
 21
403.458
  0
LINE
  8
0
 10
38.1921
 20
403.458
 11
38.569
 21
404.368
  0
LINE
  8
0
 10
38.569
 20
404.368
 11
39.1162
 21
405.187
  0
LINE
  8
0
 10
39.1162
 20
405.187
 11
39.8127
 21
405.884
  0
LINE
  8
0
 10
39.8127
 20
405.884
 11
40.6316
 21
406.431
  0
LINE
  8
0
 10
40.6316
 20
406.431
 11
41.5415
 21
406.808
  0
LINE
  8
0
 10
41.5415
 20
406.808
 11
42.5075
 21
407
  0
LINE
  8
0
 10
42.5075
 20
407
 11
43.4924
 21
407
  0
LINE
  8
0
 10
43.4924
 20
407
 11
44.4584
 21
406.808
  0
LINE
  8
0
 10
44.4584
 20
406.808
 11
45.3684
 21
406.431
  0
LINE
  8
0
 10
45.3684
 20
406.431
 11
46.1873
 21
405.884
  0
LINE
  8
0
 10
46.1873
 20
405.884
 11
46.8837
 21
405.187
  0
LINE
  8
0
 10
46.8837
 20
405.187
 11
47.4309
 21
404.368
  0
LINE
  8
0
 10
47.4309
 20
404.368
 11
47.8078
 21
403.458
  0
LINE
  8
0
 10
47.8078
 20
403.458
 11
48
 21
402.492
  0
LINE
  8
0
 10
48
 20
402.492
 11
48
 21
401.508
  0
LINE
  8
0
 10
48
 20
401.508
 11
47.8078
 21
400.542
  0
LINE
  8
0
 10
47.8078
 20
400.542
 11
47.4309
 21
399.632
  0
LINE
  8
0
 10
47.4309
 20
399.632
 11
46.8837
 21
398.813
  0
LINE
  8
0
 10
46.8837
 20
398.813
 11
46.1873
 21
398.116
  0
LINE
  8
0
 10
46.1873
 20
398.116
 11
45.3684
 21
397.569
  0
LINE
  8
0
 10
45.3684
 20
397.569
 11
44.4584
 21
397.192
  0
LINE
  8
0
 10
44.4584
 20
397.192
 11
43.4924
 21
397
  0
LINE
  8
0
 10
43.4924
 20
397
 11
42.5075
 21
397
  0
LINE
  8
0
 10
132.508
 20
272
 11
131.542
 21
272.192
  0
LINE
  8
0
 10
131.542
 20
272.192
 11
130.632
 21
272.569
  0
LINE
  8
0
 10
130.632
 20
272.569
 11
129.813
 21
273.116
  0
LINE
  8
0
 10
129.813
 20
273.116
 11
129.116
 21
273.813
  0
LINE
  8
0
 10
129.116
 20
273.813
 11
128.569
 21
274.632
  0
LINE
  8
0
 10
128.569
 20
274.632
 11
128.192
 21
275.542
  0
LINE
  8
0
 10
128.192
 20
275.542
 11
128
 21
276.508
  0
LINE
  8
0
 10
128
 20
276.508
 11
128
 21
277.492
  0
LINE
  8
0
 10
128
 20
277.492
 11
128.192
 21
278.458
  0
LINE
  8
0
 10
128.192
 20
278.458
 11
128.569
 21
279.368
  0
LINE
  8
0
 10
128.569
 20
279.368
 11
129.116
 21
280.187
  0
LINE
  8
0
 10
129.116
 20
280.187
 11
129.813
 21
280.884
  0
LINE
  8
0
 10
129.813
 20
280.884
 11
130.632
 21
281.431
  0
LINE
  8
0
 10
130.632
 20
281.431
 11
131.542
 21
281.808
  0
LINE
  8
0
 10
131.542
 20
281.808
 11
132.508
 21
282
  0
LINE
  8
0
 10
132.508
 20
282
 11
133.492
 21
282
  0
LINE
  8
0
 10
133.492
 20
282
 11
134.458
 21
281.808
  0
LINE
  8
0
 10
134.458
 20
281.808
 11
135.368
 21
281.431
  0
LINE
  8
0
 10
135.368
 20
281.431
 11
136.187
 21
280.884
  0
LINE
  8
0
 10
136.187
 20
280.884
 11
136.884
 21
280.187
  0
LINE
  8
0
 10
136.884
 20
280.187
 11
137.431
 21
279.368
  0
LINE
  8
0
 10
137.431
 20
279.368
 11
137.808
 21
278.458
  0
LINE
  8
0
 10
137.808
 20
278.458
 11
138
 21
277.492
  0
LINE
  8
0
 10
138
 20
277.492
 11
138
 21
276.508
  0
LINE
  8
0
 10
138
 20
276.508
 11
137.808
 21
275.542
  0
LINE
  8
0
 10
137.808
 20
275.542
 11
137.431
 21
274.632
  0
LINE
  8
0
 10
137.431
 20
274.632
 11
136.884
 21
273.813
  0
LINE
  8
0
 10
136.884
 20
273.813
 11
136.187
 21
273.116
  0
LINE
  8
0
 10
136.187
 20
273.116
 11
135.368
 21
272.569
  0
LINE
  8
0
 10
135.368
 20
272.569
 11
134.458
 21
272.192
  0
LINE
  8
0
 10
134.458
 20
272.192
 11
133.492
 21
272
  0
LINE
  8
0
 10
133.492
 20
272
 11
132.508
 21
272
  0
LINE
  8
0
 10
132.508
 20
192
 11
131.542
 21
192.192
  0
LINE
  8
0
 10
131.542
 20
192.192
 11
130.632
 21
192.569
  0
LINE
  8
0
 10
130.632
 20
192.569
 11
129.813
 21
193.116
  0
LINE
  8
0
 10
129.813
 20
193.116
 11
129.116
 21
193.813
  0
LINE
  8
0
 10
129.116
 20
193.813
 11
128.569
 21
194.632
  0
LINE
  8
0
 10
128.569
 20
194.632
 11
128.192
 21
195.542
  0
LINE
  8
0
 10
128.192
 20
195.542
 11
128
 21
196.508
  0
LINE
  8
0
 10
128
 20
196.508
 11
128
 21
197.492
  0
LINE
  8
0
 10
128
 20
197.492
 11
128.192
 21
198.458
  0
LINE
  8
0
 10
128.192
 20
198.458
 11
128.569
 21
199.368
  0
LINE
  8
0
 10
128.569
 20
199.368
 11
129.116
 21
200.187
  0
LINE
  8
0
 10
129.116
 20
200.187
 11
129.813
 21
200.884
  0
LINE
  8
0
 10
129.813
 20
200.884
 11
130.632
 21
201.431
  0
LINE
  8
0
 10
130.632
 20
201.431
 11
131.542
 21
201.808
  0
LINE
  8
0
 10
131.542
 20
201.808
 11
132.508
 21
202
  0
LINE
  8
0
 10
132.508
 20
202
 11
133.492
 21
202
  0
LINE
  8
0
 10
133.492
 20
202
 11
134.458
 21
201.808
  0
LINE
  8
0
 10
134.458
 20
201.808
 11
135.368
 21
201.431
  0
LINE
  8
0
 10
135.368
 20
201.431
 11
136.187
 21
200.884
  0
LINE
  8
0
 10
136.187
 20
200.884
 11
136.884
 21
200.187
  0
LINE
  8
0
 10
136.884
 20
200.187
 11
137.431
 21
199.368
  0
LINE
  8
0
 10
137.431
 20
199.368
 11
137.808
 21
198.458
  0
LINE
  8
0
 10
137.808
 20
198.458
 11
138
 21
197.492
  0
LINE
  8
0
 10
138
 20
197.492
 11
138
 21
196.508
  0
LINE
  8
0
 10
138
 20
196.508
 11
137.808
 21
195.542
  0
LINE
  8
0
 10
137.808
 20
195.542
 11
137.431
 21
194.632
  0
LINE
  8
0
 10
137.431
 20
194.632
 11
136.884
 21
193.813
  0
LINE
  8
0
 10
136.884
 20
193.813
 11
136.187
 21
193.116
  0
LINE
  8
0
 10
136.187
 20
193.116
 11
135.368
 21
192.569
  0
LINE
  8
0
 10
135.368
 20
192.569
 11
134.458
 21
192.192
  0
LINE
  8
0
 10
134.458
 20
192.192
 11
133.492
 21
192
  0
LINE
  8
0
 10
133.492
 20
192
 11
132.508
 21
192
  0
LINE
  8
0
 10
42.5075
 20
67
 11
41.5415
 21
67.1922
  0
LINE
  8
0
 10
41.5415
 20
67.1922
 11
40.6316
 21
67.5691
  0
LINE
  8
0
 10
40.6316
 20
67.5691
 11
39.8127
 21
68.1163
  0
LINE
  8
0
 10
39.8127
 20
68.1163
 11
39.1162
 21
68.8127
  0
LINE
  8
0
 10
39.1162
 20
68.8127
 11
38.569
 21
69.6316
  0
LINE
  8
0
 10
38.569
 20
69.6316
 11
38.1921
 21
70.5416
  0
LINE
  8
0
 10
38.1921
 20
70.5416
 11
38
 21
71.5076
  0
LINE
  8
0
 10
38
 20
71.5076
 11
38
 21
72.4925
  0
LINE
  8
0
 10
38
 20
72.4925
 11
38.1921
 21
73.4585
  0
LINE
  8
0
 10
38.1921
 20
73.4585
 11
38.569
 21
74.3684
  0
LINE
  8
0
 10
38.569
 20
74.3684
 11
39.1162
 21
75.1873
  0
LINE
  8
0
 10
39.1162
 20
75.1873
 11
39.8127
 21
75.8838
  0
LINE
  8
0
 10
39.8127
 20
75.8838
 11
40.6316
 21
76.431
  0
LINE
  8
0
 10
40.6316
 20
76.431
 11
41.5415
 21
76.8079
  0
LINE
  8
0
 10
41.5415
 20
76.8079
 11
42.5075
 21
77
  0
LINE
  8
0
 10
42.5075
 20
77
 11
43.4924
 21
77
  0
LINE
  8
0
 10
43.4924
 20
77
 11
44.4584
 21
76.8079
  0
LINE
  8
0
 10
44.4584
 20
76.8079
 11
45.3684
 21
76.431
  0
LINE
  8
0
 10
45.3684
 20
76.431
 11
46.1873
 21
75.8838
  0
LINE
  8
0
 10
46.1873
 20
75.8838
 11
46.8837
 21
75.1873
  0
LINE
  8
0
 10
46.8837
 20
75.1873
 11
47.4309
 21
74.3684
  0
LINE
  8
0
 10
47.4309
 20
74.3684
 11
47.8078
 21
73.4585
  0
LINE
  8
0
 10
47.8078
 20
73.4585
 11
48
 21
72.4925
  0
LINE
  8
0
 10
48
 20
72.4925
 11
48
 21
71.5076
  0
LINE
  8
0
 10
48
 20
71.5076
 11
47.8078
 21
70.5416
  0
LINE
  8
0
 10
47.8078
 20
70.5416
 11
47.4309
 21
69.6316
  0
LINE
  8
0
 10
47.4309
 20
69.6316
 11
46.8837
 21
68.8127
  0
LINE
  8
0
 10
46.8837
 20
68.8127
 11
46.1873
 21
68.1163
  0
LINE
  8
0
 10
46.1873
 20
68.1163
 11
45.3684
 21
67.5691
  0
LINE
  8
0
 10
45.3684
 20
67.5691
 11
44.4584
 21
67.1922
  0
LINE
  8
0
 10
44.4584
 20
67.1922
 11
43.4924
 21
67
  0
LINE
  8
0
 10
43.4924
 20
67
 11
42.5075
 21
67
  0
LINE
  8
0
 10
-177.492
 20
57
 11
-178.458
 21
57.1922
  0
LINE
  8
0
 10
-178.458
 20
57.1922
 11
-179.368
 21
57.5691
  0
LINE
  8
0
 10
-179.368
 20
57.5691
 11
-180.187
 21
58.1163
  0
LINE
  8
0
 10
-180.187
 20
58.1163
 11
-180.884
 21
58.8127
  0
LINE
  8
0
 10
-180.884
 20
58.8127
 11
-181.431
 21
59.6316
  0
LINE
  8
0
 10
-181.431
 20
59.6316
 11
-181.808
 21
60.5416
  0
LINE
  8
0
 10
-181.808
 20
60.5416
 11
-182
 21
61.5076
  0
LINE
  8
0
 10
-182
 20
61.5076
 11
-182
 21
62.4925
  0
LINE
  8
0
 10
-182
 20
62.4925
 11
-181.808
 21
63.4585
  0
LINE
  8
0
 10
-181.808
 20
63.4585
 11
-181.431
 21
64.3684
  0
LINE
  8
0
 10
-181.431
 20
64.3684
 11
-180.884
 21
65.1873
  0
LINE
  8
0
 10
-180.884
 20
65.1873
 11
-180.187
 21
65.8838
  0
LINE
  8
0
 10
-180.187
 20
65.8838
 11
-179.368
 21
66.431
  0
LINE
  8
0
 10
-179.368
 20
66.431
 11
-178.458
 21
66.8079
  0
LINE
  8
0
 10
-178.458
 20
66.8079
 11
-177.492
 21
67
  0
LINE
  8
0
 10
-177.492
 20
67
 11
-176.508
 21
67
  0
LINE
  8
0
 10
-176.508
 20
67
 11
-175.542
 21
66.8079
  0
LINE
  8
0
 10
-175.542
 20
66.8079
 11
-174.632
 21
66.431
  0
LINE
  8
0
 10
-174.632
 20
66.431
 11
-173.813
 21
65.8838
  0
LINE
  8
0
 10
-173.813
 20
65.8838
 11
-173.116
 21
65.1873
  0
LINE
  8
0
 10
-173.116
 20
65.1873
 11
-172.569
 21
64.3684
  0
LINE
  8
0
 10
-172.569
 20
64.3684
 11
-172.192
 21
63.4585
  0
LINE
  8
0
 10
-172.192
 20
63.4585
 11
-172
 21
62.4925
  0
LINE
  8
0
 10
-172
 20
62.4925
 11
-172
 21
61.5076
  0
LINE
  8
0
 10
-172
 20
61.5076
 11
-172.192
 21
60.5416
  0
LINE
  8
0
 10
-172.192
 20
60.5416
 11
-172.569
 21
59.6316
  0
LINE
  8
0
 10
-172.569
 20
59.6316
 11
-173.116
 21
58.8127
  0
LINE
  8
0
 10
-173.116
 20
58.8127
 11
-173.813
 21
58.1163
  0
LINE
  8
0
 10
-173.813
 20
58.1163
 11
-174.632
 21
57.5691
  0
LINE
  8
0
 10
-174.632
 20
57.5691
 11
-175.542
 21
57.1922
  0
LINE
  8
0
 10
-175.542
 20
57.1922
 11
-176.508
 21
57
  0
LINE
  8
0
 10
-176.508
 20
57
 11
-177.492
 21
57
  0
LINE
  8
0
 10
471.794
 20
-426.68
 11
472.905
 21
-426.2
  0
LINE
  8
0
 10
472.905
 20
-426.2
 11
473.857
 21
-425.453
  0
LINE
  8
0
 10
473.857
 20
-425.453
 11
474.586
 21
-424.487
  0
LINE
  8
0
 10
474.586
 20
-424.487
 11
475.044
 21
-423.367
  0
LINE
  8
0
 10
475.044
 20
-423.367
 11
475.2
 21
-422.167
  0
LINE
  8
0
 10
475.2
 20
-422.167
 11
475.2
 21
-335.572
  0
LINE
  8
0
 10
475.2
 20
-335.572
 11
476.039
 21
-329.202
  0
LINE
  8
0
 10
476.039
 20
-329.202
 11
478.498
 21
-323.265
  0
LINE
  8
0
 10
478.498
 20
-323.265
 11
482.409
 21
-318.167
  0
LINE
  8
0
 10
482.409
 20
-318.167
 11
487.507
 21
-314.256
  0
LINE
  8
0
 10
487.507
 20
-314.256
 11
493.443
 21
-311.797
  0
LINE
  8
0
 10
493.443
 20
-311.797
 11
499.814
 21
-310.958
  0
LINE
  8
0
 10
499.814
 20
-310.958
 11
506.185
 21
-311.797
  0
LINE
  8
0
 10
506.185
 20
-311.797
 11
512.121
 21
-314.256
  0
LINE
  8
0
 10
512.121
 20
-314.256
 11
517.219
 21
-318.167
  0
LINE
  8
0
 10
517.219
 20
-318.167
 11
521.131
 21
-323.265
  0
LINE
  8
0
 10
521.131
 20
-323.265
 11
523.59
 21
-329.202
  0
LINE
  8
0
 10
523.59
 20
-329.202
 11
524.428
 21
-335.572
  0
LINE
  8
0
 10
524.428
 20
-335.572
 11
524.428
 21
-420.256
  0
LINE
  8
0
 10
524.428
 20
-420.256
 11
524.617
 21
-421.713
  0
LINE
  8
0
 10
524.617
 20
-421.713
 11
525.17
 21
-423.075
  0
LINE
  8
0
 10
525.17
 20
-423.075
 11
526.052
 21
-424.25
  0
LINE
  8
0
 10
526.052
 20
-424.25
 11
527.204
 21
-425.163
  0
LINE
  8
0
 10
527.204
 20
-425.163
 11
528.551
 21
-425.752
  0
LINE
  8
0
 10
528.551
 20
-425.752
 11
530.003
 21
-425.978
  0
LINE
  8
0
 10
530.003
 20
-425.978
 11
531.465
 21
-425.828
  0
LINE
  8
0
 10
531.465
 20
-425.828
 11
532.84
 21
-425.311
  0
LINE
  8
0
 10
532.84
 20
-425.311
 11
534.038
 21
-424.46
  0
LINE
  8
0
 10
534.038
 20
-424.46
 11
556.407
 21
-410.29
  0
LINE
  8
0
 10
556.407
 20
-410.29
 11
579.538
 21
-398.073
  0
LINE
  8
0
 10
579.538
 20
-398.073
 11
628.86
 21
-379.936
  0
LINE
  8
0
 10
628.86
 20
-379.936
 11
653.148
 21
-367.47
  0
LINE
  8
0
 10
653.148
 20
-367.47
 11
664.213
 21
-359.397
  0
LINE
  8
0
 10
664.213
 20
-359.397
 11
673.908
 21
-350.096
  0
LINE
  8
0
 10
673.908
 20
-350.096
 11
681.743
 21
-339.574
  0
LINE
  8
0
 10
681.743
 20
-339.574
 11
687.523
 21
-327.93
  0
LINE
  8
0
 10
687.523
 20
-327.93
 11
695.443
 21
-302.704
  0
LINE
  8
0
 10
695.443
 20
-302.704
 11
684.244
 21
-302.704
  0
LINE
  8
0
 10
684.244
 20
-302.704
 11
679.822
 21
-302.122
  0
LINE
  8
0
 10
679.822
 20
-302.122
 11
675.702
 21
-300.415
  0
LINE
  8
0
 10
675.702
 20
-300.415
 11
672.163
 21
-297.7
  0
LINE
  8
0
 10
672.163
 20
-297.7
 11
669.448
 21
-294.161
  0
LINE
  8
0
 10
669.448
 20
-294.161
 11
667.741
 21
-290.041
  0
LINE
  8
0
 10
667.741
 20
-290.041
 11
667.159
 21
-285.619
  0
LINE
  8
0
 10
667.159
 20
-285.619
 11
667.741
 21
-281.197
  0
LINE
  8
0
 10
667.741
 20
-281.197
 11
669.448
 21
-277.076
  0
LINE
  8
0
 10
669.448
 20
-277.076
 11
672.163
 21
-273.537
  0
LINE
  8
0
 10
672.163
 20
-273.537
 11
675.702
 21
-270.822
  0
LINE
  8
0
 10
675.702
 20
-270.822
 11
679.822
 21
-269.115
  0
LINE
  8
0
 10
679.822
 20
-269.115
 11
684.244
 21
-268.533
  0
LINE
  8
0
 10
684.244
 20
-268.533
 11
696.305
 21
-268.533
  0
LINE
  8
0
 10
696.305
 20
-268.533
 11
696.305
 21
159.894
  0
LINE
  8
0
 10
696.305
 20
159.894
 11
685.393
 21
159.894
  0
LINE
  8
0
 10
685.393
 20
159.894
 11
681.417
 21
160.417
  0
LINE
  8
0
 10
681.417
 20
160.417
 11
677.712
 21
161.952
  0
LINE
  8
0
 10
677.712
 20
161.952
 11
674.53
 21
164.393
  0
LINE
  8
0
 10
674.53
 20
164.393
 11
672.089
 21
167.575
  0
LINE
  8
0
 10
672.089
 20
167.575
 11
670.554
 21
171.28
  0
LINE
  8
0
 10
670.554
 20
171.28
 11
670.031
 21
175.256
  0
LINE
  8
0
 10
670.031
 20
175.256
 11
670.554
 21
179.232
  0
LINE
  8
0
 10
670.554
 20
179.232
 11
672.089
 21
182.937
  0
LINE
  8
0
 10
672.089
 20
182.937
 11
674.53
 21
186.119
  0
LINE
  8
0
 10
674.53
 20
186.119
 11
677.712
 21
188.56
  0
LINE
  8
0
 10
677.712
 20
188.56
 11
681.417
 21
190.095
  0
LINE
  8
0
 10
681.417
 20
190.095
 11
685.393
 21
190.619
  0
LINE
  8
0
 10
685.393
 20
190.619
 11
696.305
 21
190.619
  0
LINE
  8
0
 10
696.305
 20
190.619
 11
696.305
 21
410.503
  0
LINE
  8
0
 10
696.305
 20
410.503
 11
302.91
 21
410.503
  0
LINE
  8
0
 10
302.91
 20
410.503
 11
302.91
 21
190.906
  0
LINE
  8
0
 10
302.91
 20
190.906
 11
312.673
 21
190.906
  0
LINE
  8
0
 10
312.673
 20
190.906
 11
316.686
 21
190.377
  0
LINE
  8
0
 10
316.686
 20
190.377
 11
320.426
 21
188.828
  0
LINE
  8
0
 10
320.426
 20
188.828
 11
323.638
 21
186.364
  0
LINE
  8
0
 10
323.638
 20
186.364
 11
326.102
 21
183.153
  0
LINE
  8
0
 10
326.102
 20
183.153
 11
327.651
 21
179.413
  0
LINE
  8
0
 10
327.651
 20
179.413
 11
328.179
 21
175.4
  0
LINE
  8
0
 10
328.179
 20
175.4
 11
327.651
 21
171.386
  0
LINE
  8
0
 10
327.651
 20
171.386
 11
326.102
 21
167.647
  0
LINE
  8
0
 10
326.102
 20
167.647
 11
323.638
 21
164.435
  0
LINE
  8
0
 10
323.638
 20
164.435
 11
320.426
 21
161.971
  0
LINE
  8
0
 10
320.426
 20
161.971
 11
316.686
 21
160.422
  0
LINE
  8
0
 10
316.686
 20
160.422
 11
312.673
 21
159.894
  0
LINE
  8
0
 10
312.673
 20
159.894
 11
302.91
 21
159.894
  0
LINE
  8
0
 10
302.91
 20
159.894
 11
302.91
 21
-269.107
  0
LINE
  8
0
 10
302.91
 20
-269.107
 11
312.673
 21
-269.108
  0
LINE
  8
0
 10
312.673
 20
-269.108
 11
316.761
 21
-269.646
  0
LINE
  8
0
 10
316.761
 20
-269.646
 11
320.57
 21
-271.223
  0
LINE
  8
0
 10
320.57
 20
-271.223
 11
323.841
 21
-273.733
  0
LINE
  8
0
 10
323.841
 20
-273.733
 11
326.351
 21
-277.004
  0
LINE
  8
0
 10
326.351
 20
-277.004
 11
327.928
 21
-280.813
  0
LINE
  8
0
 10
327.928
 20
-280.813
 11
328.466
 21
-284.901
  0
LINE
  8
0
 10
328.466
 20
-284.901
 11
327.928
 21
-288.988
  0
LINE
  8
0
 10
327.928
 20
-288.988
 11
326.351
 21
-292.797
  0
LINE
  8
0
 10
326.351
 20
-292.797
 11
323.841
 21
-296.068
  0
LINE
  8
0
 10
323.841
 20
-296.068
 11
320.57
 21
-298.578
  0
LINE
  8
0
 10
320.57
 20
-298.578
 11
316.761
 21
-300.156
  0
LINE
  8
0
 10
316.761
 20
-300.156
 11
312.673
 21
-300.694
  0
LINE
  8
0
 10
312.673
 20
-300.694
 11
302.91
 21
-300.694
  0
LINE
  8
0
 10
302.91
 20
-300.694
 11
310.568
 21
-326.424
  0
LINE
  8
0
 10
310.568
 20
-326.424
 11
315.984
 21
-338.291
  0
LINE
  8
0
 10
315.984
 20
-338.291
 11
323.301
 21
-348.962
  0
LINE
  8
0
 10
323.301
 20
-348.962
 11
332.817
 21
-358.202
  0
LINE
  8
0
 10
332.817
 20
-358.202
 11
344.076
 21
-366.146
  0
LINE
  8
0
 10
344.076
 20
-366.146
 11
369.603
 21
-378.885
  0
LINE
  8
0
 10
369.603
 20
-378.885
 11
420.667
 21
-398.208
  0
LINE
  8
0
 10
420.667
 20
-398.208
 11
444.148
 21
-410.118
  0
LINE
  8
0
 10
444.148
 20
-410.118
 11
466.52
 21
-424.641
  0
LINE
  8
0
 10
466.52
 20
-424.641
 11
467.285
 21
-425.579
  0
LINE
  8
0
 10
467.285
 20
-425.579
 11
468.265
 21
-426.289
  0
LINE
  8
0
 10
468.265
 20
-426.289
 11
469.394
 21
-426.725
  0
LINE
  8
0
 10
469.394
 20
-426.725
 11
470.597
 21
-426.859
  0
LINE
  8
0
 10
470.597
 20
-426.859
 11
471.794
 21
-426.68
  0
LINE
  8
0
 10
177.8
 20
-10
 11
-165.1
 21
-9.99998
  0
LINE
  8
0
 10
-165.1
 20
-9.99998
 11
-165.1
 21
-464
  0
LINE
  8
0
 10
-165.1
 20
-464
 11
177.8
 21
-464
  0
LINE
  8
0
 10
177.8
 20
-464
 11
177.8
 21
-10
  0
LINE
  8
0
 10
-0.393936
 20
-91
 11
-1.16673
 21
-90.8463
  0
LINE
  8
0
 10
-1.16673
 20
-90.8463
 11
-1.89468
 21
-90.5448
  0
LINE
  8
0
 10
-1.89468
 20
-90.5448
 11
-2.54984
 21
-90.107
  0
LINE
  8
0
 10
-2.54984
 20
-90.107
 11
-3.10698
 21
-89.5499
  0
LINE
  8
0
 10
-3.10698
 20
-89.5499
 11
-3.54472
 21
-88.8947
  0
LINE
  8
0
 10
-3.54472
 20
-88.8947
 11
-3.84625
 21
-88.1668
  0
LINE
  8
0
 10
-3.84625
 20
-88.1668
 11
-3.99998
 21
-87.394
  0
LINE
  8
0
 10
-3.99998
 20
-87.394
 11
-3.99998
 21
-86.606
  0
LINE
  8
0
 10
-3.99998
 20
-86.606
 11
-3.84625
 21
-85.8333
  0
LINE
  8
0
 10
-3.84625
 20
-85.8333
 11
-3.54472
 21
-85.1053
  0
LINE
  8
0
 10
-3.54472
 20
-85.1053
 11
-3.10698
 21
-84.4501
  0
LINE
  8
0
 10
-3.10698
 20
-84.4501
 11
-2.54984
 21
-83.893
  0
LINE
  8
0
 10
-2.54984
 20
-83.893
 11
-1.89468
 21
-83.4553
  0
LINE
  8
0
 10
-1.89468
 20
-83.4553
 11
-1.16673
 21
-83.1537
  0
LINE
  8
0
 10
-1.16673
 20
-83.1537
 11
-0.393936
 21
-83
  0
LINE
  8
0
 10
-0.393936
 20
-83
 11
0.393951
 21
-83
  0
LINE
  8
0
 10
0.393951
 20
-83
 11
1.16675
 21
-83.1537
  0
LINE
  8
0
 10
1.16675
 20
-83.1537
 11
1.8947
 21
-83.4553
  0
LINE
  8
0
 10
1.8947
 20
-83.4553
 11
2.54985
 21
-83.893
  0
LINE
  8
0
 10
2.54985
 20
-83.893
 11
3.10699
 21
-84.4501
  0
LINE
  8
0
 10
3.10699
 20
-84.4501
 11
3.54474
 21
-85.1053
  0
LINE
  8
0
 10
3.54474
 20
-85.1053
 11
3.84627
 21
-85.8333
  0
LINE
  8
0
 10
3.84627
 20
-85.8333
 11
4
 21
-86.606
  0
LINE
  8
0
 10
4
 20
-86.606
 11
3.99998
 21
-87.394
  0
LINE
  8
0
 10
3.99998
 20
-87.394
 11
3.84627
 21
-88.1668
  0
LINE
  8
0
 10
3.84627
 20
-88.1668
 11
3.54474
 21
-88.8947
  0
LINE
  8
0
 10
3.54474
 20
-88.8947
 11
3.10699
 21
-89.5499
  0
LINE
  8
0
 10
3.10699
 20
-89.5499
 11
2.54985
 21
-90.107
  0
LINE
  8
0
 10
2.54985
 20
-90.107
 11
1.8947
 21
-90.5448
  0
LINE
  8
0
 10
1.8947
 20
-90.5448
 11
1.16675
 21
-90.8463
  0
LINE
  8
0
 10
1.16675
 20
-90.8463
 11
0.393951
 21
-91
  0
LINE
  8
0
 10
0.393951
 20
-91
 11
-0.393936
 21
-91
  0
LINE
  8
0
 10
-0.393951
 20
-241
 11
-1.16675
 21
-240.846
  0
LINE
  8
0
 10
-1.16675
 20
-240.846
 11
-1.8947
 21
-240.545
  0
LINE
  8
0
 10
-1.8947
 20
-240.545
 11
-2.54985
 21
-240.107
  0
LINE
  8
0
 10
-2.54985
 20
-240.107
 11
-3.10699
 21
-239.55
  0
LINE
  8
0
 10
-3.10699
 20
-239.55
 11
-3.54474
 21
-238.895
  0
LINE
  8
0
 10
-3.54474
 20
-238.895
 11
-3.84627
 21
-238.167
  0
LINE
  8
0
 10
-3.84627
 20
-238.167
 11
-4
 21
-237.394
  0
LINE
  8
0
 10
-4
 20
-237.394
 11
-4
 21
-236.606
  0
LINE
  8
0
 10
-4
 20
-236.606
 11
-3.84625
 21
-235.833
  0
LINE
  8
0
 10
-3.84625
 20
-235.833
 11
-3.54472
 21
-235.105
  0
LINE
  8
0
 10
-3.54472
 20
-235.105
 11
-3.10698
 21
-234.45
  0
LINE
  8
0
 10
-3.10698
 20
-234.45
 11
-2.54984
 21
-233.893
  0
LINE
  8
0
 10
-2.54984
 20
-233.893
 11
-1.89468
 21
-233.455
  0
LINE
  8
0
 10
-1.89468
 20
-233.455
 11
-1.16673
 21
-233.154
  0
LINE
  8
0
 10
-1.16673
 20
-233.154
 11
-0.393936
 21
-233
  0
LINE
  8
0
 10
-0.393936
 20
-233
 11
0.393951
 21
-233
  0
LINE
  8
0
 10
0.393951
 20
-233
 11
1.16675
 21
-233.154
  0
LINE
  8
0
 10
1.16675
 20
-233.154
 11
1.8947
 21
-233.455
  0
LINE
  8
0
 10
1.8947
 20
-233.455
 11
2.54985
 21
-233.893
  0
LINE
  8
0
 10
2.54985
 20
-233.893
 11
3.10699
 21
-234.45
  0
LINE
  8
0
 10
3.10699
 20
-234.45
 11
3.54474
 21
-235.105
  0
LINE
  8
0
 10
3.54474
 20
-235.105
 11
3.84627
 21
-235.833
  0
LINE
  8
0
 10
3.84627
 20
-235.833
 11
4
 21
-236.606
  0
LINE
  8
0
 10
4
 20
-236.606
 11
3.99998
 21
-237.394
  0
LINE
  8
0
 10
3.99998
 20
-237.394
 11
3.84625
 21
-238.167
  0
LINE
  8
0
 10
3.84625
 20
-238.167
 11
3.54472
 21
-238.895
  0
LINE
  8
0
 10
3.54472
 20
-238.895
 11
3.10698
 21
-239.55
  0
LINE
  8
0
 10
3.10698
 20
-239.55
 11
2.54984
 21
-240.107
  0
LINE
  8
0
 10
2.54984
 20
-240.107
 11
1.89468
 21
-240.545
  0
LINE
  8
0
 10
1.89468
 20
-240.545
 11
1.16673
 21
-240.846
  0
LINE
  8
0
 10
1.16673
 20
-240.846
 11
0.393936
 21
-241
  0
LINE
  8
0
 10
0.393936
 20
-241
 11
-0.393951
 21
-241
  0
LINE
  8
0
 10
-0.393951
 20
-391
 11
-1.16675
 21
-390.846
  0
LINE
  8
0
 10
-1.16675
 20
-390.846
 11
-1.8947
 21
-390.545
  0
LINE
  8
0
 10
-1.8947
 20
-390.545
 11
-2.54985
 21
-390.107
  0
LINE
  8
0
 10
-2.54985
 20
-390.107
 11
-3.10699
 21
-389.55
  0
LINE
  8
0
 10
-3.10699
 20
-389.55
 11
-3.54474
 21
-388.895
  0
LINE
  8
0
 10
-3.54474
 20
-388.895
 11
-3.84627
 21
-388.167
  0
LINE
  8
0
 10
-3.84627
 20
-388.167
 11
-4
 21
-387.394
  0
LINE
  8
0
 10
-4
 20
-387.394
 11
-4
 21
-386.606
  0
LINE
  8
0
 10
-4
 20
-386.606
 11
-3.84627
 21
-385.833
  0
LINE
  8
0
 10
-3.84627
 20
-385.833
 11
-3.54474
 21
-385.105
  0
LINE
  8
0
 10
-3.54474
 20
-385.105
 11
-3.10699
 21
-384.45
  0
LINE
  8
0
 10
-3.10699
 20
-384.45
 11
-2.54985
 21
-383.893
  0
LINE
  8
0
 10
-2.54985
 20
-383.893
 11
-1.8947
 21
-383.455
  0
LINE
  8
0
 10
-1.8947
 20
-383.455
 11
-1.16675
 21
-383.154
  0
LINE
  8
0
 10
-1.16675
 20
-383.154
 11
-0.393951
 21
-383
  0
LINE
  8
0
 10
-0.393951
 20
-383
 11
0.393936
 21
-383
  0
LINE
  8
0
 10
0.393936
 20
-383
 11
1.16673
 21
-383.154
  0
LINE
  8
0
 10
1.16673
 20
-383.154
 11
1.89468
 21
-383.455
  0
LINE
  8
0
 10
1.89468
 20
-383.455
 11
2.54984
 21
-383.893
  0
LINE
  8
0
 10
2.54984
 20
-383.893
 11
3.10698
 21
-384.45
  0
LINE
  8
0
 10
3.10698
 20
-384.45
 11
3.54472
 21
-385.105
  0
LINE
  8
0
 10
3.54472
 20
-385.105
 11
3.84625
 21
-385.833
  0
LINE
  8
0
 10
3.84625
 20
-385.833
 11
3.99998
 21
-386.606
  0
LINE
  8
0
 10
3.99998
 20
-386.606
 11
3.99997
 21
-387.394
  0
LINE
  8
0
 10
3.99997
 20
-387.394
 11
3.84625
 21
-388.167
  0
LINE
  8
0
 10
3.84625
 20
-388.167
 11
3.54472
 21
-388.895
  0
LINE
  8
0
 10
3.54472
 20
-388.895
 11
3.10698
 21
-389.55
  0
LINE
  8
0
 10
3.10698
 20
-389.55
 11
2.54984
 21
-390.107
  0
LINE
  8
0
 10
2.54984
 20
-390.107
 11
1.89468
 21
-390.545
  0
LINE
  8
0
 10
1.89468
 20
-390.545
 11
1.16673
 21
-390.846
  0
LINE
  8
0
 10
1.16673
 20
-390.846
 11
0.393936
 21
-391
  0
LINE
  8
0
 10
0.393936
 20
-391
 11
-0.393951
 21
-391
  0
ENDSEC
  0
SECTION
  2
OBJECTS
  0
DICTIONARY
  0
ENDSEC
  0
EOF
